999
DXF created from Projekt
0
SECTION
2
HEADER
9
$ACADVER
1
AC1006
9
$INSUNITS
70
4
9
$INSBASE
10
0.0
20
0.0
30
0.0
9
$EXTMIN
10
-83.753
20
-89.018
9
$EXTMAX
10
71.752
20
53.553
0
ENDSEC
0
SECTION
2
TABLES
0
TABLE
2
LTYPE
70
1
0
LTYPE
2
CONTINUOUS
70
64
3
Solid line
72
65
73
0
40
0.000000
0
ENDTAB
0
TABLE
2
LAYER
70
6
0
LAYER
2
1
70
64
62
7
6
CONTINUOUS
0
ENDTAB
0
TABLE
2
STYLE
70
0
0
ENDTAB
0
ENDSEC
0
SECTION
2
BLOCKS
0
ENDSEC
0
SECTION
2
ENTITIES
0
LINE
8
1
10
8.391
20
52.69
11
8.387
21
52.691
62
0
0
LINE
8
1
10
8.387
20
52.691
11
5.992
21
52.954
62
0
0
LINE
8
1
10
5.992
20
52.954
11
5.99
21
52.955
62
0
0
LINE
8
1
10
5.99
20
52.955
11
3.596
21
53.169
62
0
0
LINE
8
1
10
3.596
20
53.169
11
3.592
21
53.17
62
0
0
LINE
8
1
10
3.592
20
53.17
11
1.198
21
53.337
62
0
0
LINE
8
1
10
1.198
20
53.337
11
1.193
21
53.338
62
0
0
LINE
8
1
10
1.193
20
53.338
11
-1.2
21
53.457
62
0
0
LINE
8
1
10
-1.2
20
53.457
11
-1.202
21
53.458
62
0
0
LINE
8
1
10
-1.202
20
53.458
11
-3.596
21
53.528
62
0
0
LINE
8
1
10
-3.596
20
53.528
11
-3.601
21
53.529
62
0
0
LINE
8
1
10
-3.601
20
53.529
11
-5.994
21
53.552
62
0
0
LINE
8
1
10
-5.994
20
53.552
11
-5.999
21
53.553
62
0
0
LINE
8
1
10
-5.999
20
53.553
11
-8.396
21
53.53
62
0
0
LINE
8
1
10
-8.396
20
53.53
11
-8.398
21
53.529
62
0
0
LINE
8
1
10
-8.398
20
53.529
11
-10.792
21
53.459
62
0
0
LINE
8
1
10
-10.792
20
53.459
11
-10.797
21
53.458
62
0
0
LINE
8
1
10
-10.797
20
53.458
11
-13.191
21
53.339
62
0
0
LINE
8
1
10
-13.191
20
53.339
11
-13.193
21
53.338
62
0
0
LINE
8
1
10
-13.193
20
53.338
11
-15.588
21
53.171
62
0
0
LINE
8
1
10
-15.588
20
53.171
11
-15.592
21
53.17
62
0
0
LINE
8
1
10
-15.592
20
53.17
11
-17.986
21
52.956
62
0
0
LINE
8
1
10
-17.986
20
52.956
11
-17.99
21
52.955
62
0
0
LINE
8
1
10
-17.99
20
52.955
11
-20.384
21
52.692
62
0
0
LINE
8
1
10
-20.384
20
52.692
11
-20.386
21
52.691
62
0
0
LINE
8
1
10
-20.386
20
52.691
11
-22.781
21
52.381
62
0
0
LINE
8
1
10
-22.781
20
52.381
11
-45.264
21
47.075
62
0
0
LINE
8
1
10
-45.264
20
47.075
11
-45.266
21
47.073
62
0
0
LINE
8
1
10
-45.266
20
47.073
11
-45.696
21
46.86
62
0
0
LINE
8
1
10
-45.696
20
46.86
11
-46.114
21
46.621
62
0
0
LINE
8
1
10
-46.114
20
46.621
11
-46.116
21
46.619
62
0
0
LINE
8
1
10
-46.116
20
46.619
11
-46.518
21
46.356
62
0
0
LINE
8
1
10
-46.518
20
46.356
11
-46.52
21
46.354
62
0
0
LINE
8
1
10
-46.52
20
46.354
11
-46.905
21
46.068
62
0
0
LINE
8
1
10
-46.905
20
46.068
11
-48.259
21
44.699
62
0
0
LINE
8
1
10
-48.259
20
44.699
11
-48.541
21
44.309
62
0
0
LINE
8
1
10
-48.541
20
44.309
11
-48.542
21
44.308
62
0
0
LINE
8
1
10
-48.542
20
44.308
11
-48.799
21
43.905
62
0
0
LINE
8
1
10
-48.799
20
43.905
11
-48.801
21
43.903
62
0
0
LINE
8
1
10
-48.801
20
43.903
11
-49.035
21
43.483
62
0
0
LINE
8
1
10
-49.035
20
43.483
11
-49.243
21
43.049
62
0
0
LINE
8
1
10
-49.243
20
43.049
11
-49.425
21
42.606
62
0
0
LINE
8
1
10
-49.425
20
42.606
11
-49.427
21
42.604
62
0
0
LINE
8
1
10
-49.427
20
42.604
11
-49.58
21
42.15
62
0
0
LINE
8
1
10
-49.58
20
42.15
11
-49.583
21
42.147
62
0
0
LINE
8
1
10
-49.583
20
42.147
11
-49.583
21
42.144
62
0
0
LINE
8
1
10
-49.583
20
42.144
11
-55.205
21
26.899
62
0
0
LINE
8
1
10
-55.205
20
26.899
11
-56.016
21
25.063
62
0
0
LINE
8
1
10
-56.016
20
25.063
11
-56.019
21
25.059
62
0
0
LINE
8
1
10
-56.019
20
25.059
11
-56.855
21
23.236
62
0
0
LINE
8
1
10
-56.855
20
23.236
11
-56.858
21
23.232
62
0
0
LINE
8
1
10
-56.858
20
23.232
11
-57.719
21
21.424
62
0
0
LINE
8
1
10
-57.719
20
21.424
11
-57.722
21
21.42
62
0
0
LINE
8
1
10
-57.722
20
21.42
11
-58.609
21
19.625
62
0
0
LINE
8
1
10
-58.609
20
19.625
11
-58.612
21
19.621
62
0
0
LINE
8
1
10
-58.612
20
19.621
11
-59.524
21
17.84
62
0
0
LINE
8
1
10
-59.524
20
17.84
11
-59.526
21
17.837
62
0
0
LINE
8
1
10
-59.526
20
17.837
11
-60.462
21
16.071
62
0
0
LINE
8
1
10
-60.462
20
16.071
11
-73.666
21
-4.044
62
0
0
LINE
8
1
10
-73.666
20
-4.044
11
-73.667
21
-4.045
62
0
0
LINE
8
1
10
-73.667
20
-4.045
11
-74.928
21
-5.627
62
0
0
LINE
8
1
10
-74.928
20
-5.627
11
-81.93
21
-13.691
62
0
0
LINE
8
1
10
-81.93
20
-13.691
11
-82.223
21
-14.072
62
0
0
LINE
8
1
10
-82.223
20
-14.072
11
-82.224
21
-14.073
62
0
0
LINE
8
1
10
-82.224
20
-14.073
11
-82.495
21
-14.47
62
0
0
LINE
8
1
10
-82.495
20
-14.47
11
-82.496
21
-14.471
62
0
0
LINE
8
1
10
-82.496
20
-14.471
11
-82.743
21
-14.885
62
0
0
LINE
8
1
10
-82.743
20
-14.885
11
-82.964
21
-15.313
62
0
0
LINE
8
1
10
-82.964
20
-15.313
11
-83.159
21
-15.753
62
0
0
LINE
8
1
10
-83.159
20
-15.753
11
-83.161
21
-15.754
62
0
0
LINE
8
1
10
-83.161
20
-15.754
11
-83.327
21
-16.204
62
0
0
LINE
8
1
10
-83.327
20
-16.204
11
-83.329
21
-16.206
62
0
0
LINE
8
1
10
-83.329
20
-16.206
11
-83.471
21
-16.667
62
0
0
LINE
8
1
10
-83.471
20
-16.667
11
-83.584
21
-17.136
62
0
0
LINE
8
1
10
-83.584
20
-17.136
11
-83.667
21
-17.608
62
0
0
LINE
8
1
10
-83.667
20
-17.608
11
-83.669
21
-17.609
62
0
0
LINE
8
1
10
-83.669
20
-17.609
11
-83.724
21
-18.088
62
0
0
LINE
8
1
10
-83.724
20
-18.088
11
-83.725
21
-18.089
62
0
0
LINE
8
1
10
-83.725
20
-18.089
11
-83.752
21
-18.568
62
0
0
LINE
8
1
10
-83.752
20
-18.568
11
-83.753
21
-18.569
62
0
0
LINE
8
1
10
-83.753
20
-18.569
11
-83.752
21
-19.056
62
0
0
LINE
8
1
10
-83.752
20
-19.056
11
-83.751
21
-19.057
62
0
0
LINE
8
1
10
-83.751
20
-19.057
11
-83.721
21
-19.536
62
0
0
LINE
8
1
10
-83.721
20
-19.536
11
-83.72
21
-19.537
62
0
0
LINE
8
1
10
-83.72
20
-19.537
11
-83.662
21
-20.014
62
0
0
LINE
8
1
10
-83.662
20
-20.014
11
-83.66
21
-20.015
62
0
0
LINE
8
1
10
-83.66
20
-20.015
11
-83.572
21
-20.488
62
0
0
LINE
8
1
10
-83.572
20
-20.488
11
-79.615
21
-34.813
62
0
0
LINE
8
1
10
-79.615
20
-34.813
11
-78.811
21
-37.115
62
0
0
LINE
8
1
10
-78.811
20
-37.115
11
-78.808
21
-37.12
62
0
0
LINE
8
1
10
-78.808
20
-37.12
11
-77.965
21
-39.396
62
0
0
LINE
8
1
10
-77.965
20
-39.396
11
-77.962
21
-39.4
62
0
0
LINE
8
1
10
-77.962
20
-39.4
11
-77.077
21
-41.652
62
0
0
LINE
8
1
10
-77.077
20
-41.652
11
-77.074
21
-41.656
62
0
0
LINE
8
1
10
-77.074
20
-41.656
11
-76.148
21
-43.884
62
0
0
LINE
8
1
10
-76.148
20
-43.884
11
-76.145
21
-43.888
62
0
0
LINE
8
1
10
-76.145
20
-43.888
11
-75.177
21
-46.092
62
0
0
LINE
8
1
10
-75.177
20
-46.092
11
-75.174
21
-46.096
62
0
0
LINE
8
1
10
-75.174
20
-46.096
11
-74.165
21
-48.276
62
0
0
LINE
8
1
10
-74.165
20
-48.276
11
-74.162
21
-48.28
62
0
0
LINE
8
1
10
-74.162
20
-48.28
11
-73.111
21
-50.437
62
0
0
LINE
8
1
10
-73.111
20
-50.437
11
-73.108
21
-50.441
62
0
0
LINE
8
1
10
-73.108
20
-50.441
11
-72.016
21
-52.573
62
0
0
LINE
8
1
10
-72.016
20
-52.573
11
-58.781
21
-72.622
62
0
0
LINE
8
1
10
-58.781
20
-72.622
11
-57.231
21
-74.492
62
0
0
LINE
8
1
10
-57.231
20
-74.492
11
-57.229
21
-74.495
62
0
0
LINE
8
1
10
-57.229
20
-74.495
11
-55.638
21
-76.342
62
0
0
LINE
8
1
10
-55.638
20
-76.342
11
-55.636
21
-76.344
62
0
0
LINE
8
1
10
-55.636
20
-76.344
11
-45.207
21
-86.936
62
0
0
LINE
8
1
10
-45.207
20
-86.936
11
-44.456
21
-87.541
62
0
0
LINE
8
1
10
-44.456
20
-87.541
11
-44.056
21
-87.806
62
0
0
LINE
8
1
10
-44.056
20
-87.806
11
-44.055
21
-87.807
62
0
0
LINE
8
1
10
-44.055
20
-87.807
11
-43.639
21
-88.05
62
0
0
LINE
8
1
10
-43.639
20
-88.05
11
-43.209
21
-88.266
62
0
0
LINE
8
1
10
-43.209
20
-88.266
11
-43.208
21
-88.267
62
0
0
LINE
8
1
10
-43.208
20
-88.267
11
-42.766
21
-88.456
62
0
0
LINE
8
1
10
-42.766
20
-88.456
11
-42.764
21
-88.458
62
0
0
LINE
8
1
10
-42.764
20
-88.458
11
-42.313
21
-88.62
62
0
0
LINE
8
1
10
-42.313
20
-88.62
11
-42.311
21
-88.622
62
0
0
LINE
8
1
10
-42.311
20
-88.622
11
-41.849
21
-88.758
62
0
0
LINE
8
1
10
-41.849
20
-88.758
11
-41.381
21
-88.865
62
0
0
LINE
8
1
10
-41.381
20
-88.865
11
-41.38
21
-88.866
62
0
0
LINE
8
1
10
-41.38
20
-88.866
11
-40.905
21
-88.944
62
0
0
LINE
8
1
10
-40.905
20
-88.944
11
-40.904
21
-88.946
62
0
0
LINE
8
1
10
-40.904
20
-88.946
11
-40.425
21
-88.996
62
0
0
LINE
8
1
10
-40.425
20
-88.996
11
-40.424
21
-88.997
62
0
0
LINE
8
1
10
-40.424
20
-88.997
11
-39.945
21
-89.017
62
0
0
LINE
8
1
10
-39.945
20
-89.017
11
-39.944
21
-89.018
62
0
0
LINE
8
1
10
-39.944
20
-89.018
11
-39.456
21
-89.012
62
0
0
LINE
8
1
10
-39.456
20
-89.012
11
-39.455
21
-89.011
62
0
0
LINE
8
1
10
-39.455
20
-89.011
11
-38.977
21
-88.976
62
0
0
LINE
8
1
10
-38.977
20
-88.976
11
-38.976
21
-88.975
62
0
0
LINE
8
1
10
-38.976
20
-88.975
11
-38.499
21
-88.911
62
0
0
LINE
8
1
10
-38.499
20
-88.911
11
-38.027
21
-88.817
62
0
0
LINE
8
1
10
-38.027
20
-88.817
11
-34.027
21
-87.957
62
0
0
LINE
8
1
10
-34.027
20
-87.957
11
-34.025
21
-87.956
62
0
0
LINE
8
1
10
-34.025
20
-87.956
11
-32.025
21
-87.57
62
0
0
LINE
8
1
10
-32.025
20
-87.57
11
-32.023
21
-87.569
62
0
0
LINE
8
1
10
-32.023
20
-87.569
11
-30.024
21
-87.211
62
0
0
LINE
8
1
10
-30.024
20
-87.211
11
-30.021
21
-87.21
62
0
0
LINE
8
1
10
-30.021
20
-87.21
11
-28.022
21
-86.881
62
0
0
LINE
8
1
10
-28.022
20
-86.881
11
-28.02
21
-86.88
62
0
0
LINE
8
1
10
-28.02
20
-86.88
11
-26.02
21
-86.58
62
0
0
LINE
8
1
10
-26.02
20
-86.58
11
-26.018
21
-86.579
62
0
0
LINE
8
1
10
-26.018
20
-86.579
11
-24.018
21
-86.307
62
0
0
LINE
8
1
10
-24.018
20
-86.307
11
-24.016
21
-86.306
62
0
0
LINE
8
1
10
-24.016
20
-86.306
11
-22.016
21
-86.063
62
0
0
LINE
8
1
10
-22.016
20
-86.063
11
-22.014
21
-86.062
62
0
0
LINE
8
1
10
-22.014
20
-86.062
11
-20.014
21
-85.848
62
0
0
LINE
8
1
10
-20.014
20
-85.848
11
-20.012
21
-85.847
62
0
0
LINE
8
1
10
-20.012
20
-85.847
11
-18.012
21
-85.661
62
0
0
LINE
8
1
10
-18.012
20
-85.661
11
-18.01
21
-85.66
62
0
0
LINE
8
1
10
-18.01
20
-85.66
11
-16.01
21
-85.504
62
0
0
LINE
8
1
10
-16.01
20
-85.504
11
-16.008
21
-85.503
62
0
0
LINE
8
1
10
-16.008
20
-85.503
11
-14.008
21
-85.375
62
0
0
LINE
8
1
10
-14.008
20
-85.375
11
-14.006
21
-85.374
62
0
0
LINE
8
1
10
-14.006
20
-85.374
11
-12.006
21
-85.274
62
0
0
LINE
8
1
10
-12.006
20
-85.274
11
-12.004
21
-85.273
62
0
0
LINE
8
1
10
-12.004
20
-85.273
11
-10.004
21
-85.202
62
0
0
LINE
8
1
10
-10.004
20
-85.202
11
-10.002
21
-85.201
62
0
0
LINE
8
1
10
-10.002
20
-85.201
11
-8.002
21
-85.159
62
0
0
LINE
8
1
10
-8.002
20
-85.159
11
-8
21
-85.158
62
0
0
LINE
8
1
10
-8
20
-85.158
11
-6.001
21
-85.145
62
0
0
LINE
8
1
10
-6.001
20
-85.145
11
-5.999
21
-85.144
62
0
0
LINE
8
1
10
-5.999
20
-85.144
11
-4.002
21
-85.157
62
0
0
LINE
8
1
10
-4.002
20
-85.157
11
-4
21
-85.158
62
0
0
LINE
8
1
10
-4
20
-85.158
11
-2
21
-85.2
62
0
0
LINE
8
1
10
-2
20
-85.2
11
-1.998
21
-85.201
62
0
0
LINE
8
1
10
-1.998
20
-85.201
11
0.001
21
-85.272
62
0
0
LINE
8
1
10
0.001
20
-85.272
11
0.003
21
-85.273
62
0
0
LINE
8
1
10
0.003
20
-85.273
11
2.003
21
-85.373
62
0
0
LINE
8
1
10
2.003
20
-85.373
11
2.005
21
-85.374
62
0
0
LINE
8
1
10
2.005
20
-85.374
11
4.005
21
-85.502
62
0
0
LINE
8
1
10
4.005
20
-85.502
11
4.007
21
-85.503
62
0
0
LINE
8
1
10
4.007
20
-85.503
11
6.007
21
-85.659
62
0
0
LINE
8
1
10
6.007
20
-85.659
11
6.009
21
-85.66
62
0
0
LINE
8
1
10
6.009
20
-85.66
11
8.009
21
-85.846
62
0
0
LINE
8
1
10
8.009
20
-85.846
11
8.011
21
-85.847
62
0
0
LINE
8
1
10
8.011
20
-85.847
11
10.011
21
-86.061
62
0
0
LINE
8
1
10
10.011
20
-86.061
11
10.013
21
-86.062
62
0
0
LINE
8
1
10
10.013
20
-86.062
11
12.013
21
-86.305
62
0
0
LINE
8
1
10
12.013
20
-86.305
11
12.015
21
-86.306
62
0
0
LINE
8
1
10
12.015
20
-86.306
11
14.015
21
-86.578
62
0
0
LINE
8
1
10
14.015
20
-86.578
11
14.017
21
-86.579
62
0
0
LINE
8
1
10
14.017
20
-86.579
11
16.017
21
-86.879
62
0
0
LINE
8
1
10
16.017
20
-86.879
11
16.019
21
-86.88
62
0
0
LINE
8
1
10
16.019
20
-86.88
11
18.018
21
-87.209
62
0
0
LINE
8
1
10
18.018
20
-87.209
11
18.021
21
-87.21
62
0
0
LINE
8
1
10
18.021
20
-87.21
11
20.02
21
-87.568
62
0
0
LINE
8
1
10
20.02
20
-87.568
11
20.022
21
-87.569
62
0
0
LINE
8
1
10
20.022
20
-87.569
11
22.022
21
-87.955
62
0
0
LINE
8
1
10
22.022
20
-87.955
11
22.024
21
-87.956
62
0
0
LINE
8
1
10
22.024
20
-87.956
11
24.024
21
-88.371
62
0
0
LINE
8
1
10
24.024
20
-88.371
11
24.026
21
-88.372
62
0
0
LINE
8
1
10
24.026
20
-88.372
11
26.026
21
-88.816
62
0
0
LINE
8
1
10
26.026
20
-88.816
11
26.028
21
-88.817
62
0
0
LINE
8
1
10
26.028
20
-88.817
11
26.976
21
-88.974
62
0
0
LINE
8
1
10
26.976
20
-88.974
11
26.977
21
-88.975
62
0
0
LINE
8
1
10
26.977
20
-88.975
11
27.456
21
-89.01
62
0
0
LINE
8
1
10
27.456
20
-89.01
11
27.457
21
-89.011
62
0
0
LINE
8
1
10
27.457
20
-89.011
11
27.938
21
-89.017
62
0
0
LINE
8
1
10
27.938
20
-89.017
11
27.939
21
-89.018
62
0
0
LINE
8
1
10
27.939
20
-89.018
11
28.428
21
-88.997
62
0
0
LINE
8
1
10
28.428
20
-88.997
11
28.429
21
-88.996
62
0
0
LINE
8
1
10
28.429
20
-88.996
11
28.908
21
-88.946
62
0
0
LINE
8
1
10
28.908
20
-88.946
11
28.909
21
-88.944
62
0
0
LINE
8
1
10
28.909
20
-88.944
11
29.383
21
-88.866
62
0
0
LINE
8
1
10
29.383
20
-88.866
11
29.384
21
-88.865
62
0
0
LINE
8
1
10
29.384
20
-88.865
11
29.852
21
-88.758
62
0
0
LINE
8
1
10
29.852
20
-88.758
11
30.314
21
-88.622
62
0
0
LINE
8
1
10
30.314
20
-88.622
11
30.316
21
-88.62
62
0
0
LINE
8
1
10
30.316
20
-88.62
11
30.768
21
-88.458
62
0
0
LINE
8
1
10
30.768
20
-88.458
11
30.77
21
-88.456
62
0
0
LINE
8
1
10
30.77
20
-88.456
11
31.211
21
-88.266
62
0
0
LINE
8
1
10
31.211
20
-88.266
11
31.64
21
-88.049
62
0
0
LINE
8
1
10
31.64
20
-88.049
11
32.055
21
-87.808
62
0
0
LINE
8
1
10
32.055
20
-87.808
11
32.056
21
-87.807
62
0
0
LINE
8
1
10
32.056
20
-87.807
11
32.455
21
-87.541
62
0
0
LINE
8
1
10
32.455
20
-87.541
11
32.456
21
-87.54
62
0
0
LINE
8
1
10
32.456
20
-87.54
11
32.84
21
-87.251
62
0
0
LINE
8
1
10
32.84
20
-87.251
11
45.227
21
-74.498
62
0
0
LINE
8
1
10
45.227
20
-74.498
11
45.229
21
-74.495
62
0
0
LINE
8
1
10
45.229
20
-74.495
11
46.779
21
-72.625
62
0
0
LINE
8
1
10
46.779
20
-72.625
11
60.014
21
-52.576
62
0
0
LINE
8
1
10
60.014
20
-52.576
11
61.106
21
-50.444
62
0
0
LINE
8
1
10
61.106
20
-50.444
11
61.109
21
-50.44
62
0
0
LINE
8
1
10
61.109
20
-50.44
11
62.16
21
-48.283
62
0
0
LINE
8
1
10
62.16
20
-48.283
11
62.163
21
-48.279
62
0
0
LINE
8
1
10
62.163
20
-48.279
11
63.172
21
-46.099
62
0
0
LINE
8
1
10
63.172
20
-46.099
11
63.175
21
-46.095
62
0
0
LINE
8
1
10
63.175
20
-46.095
11
64.143
21
-43.891
62
0
0
LINE
8
1
10
64.143
20
-43.891
11
64.146
21
-43.887
62
0
0
LINE
8
1
10
64.146
20
-43.887
11
65.072
21
-41.659
62
0
0
LINE
8
1
10
65.072
20
-41.659
11
65.075
21
-41.655
62
0
0
LINE
8
1
10
65.075
20
-41.655
11
65.96
21
-39.403
62
0
0
LINE
8
1
10
65.96
20
-39.403
11
65.963
21
-39.399
62
0
0
LINE
8
1
10
65.963
20
-39.399
11
66.806
21
-37.123
62
0
0
LINE
8
1
10
66.806
20
-37.123
11
66.809
21
-37.118
62
0
0
LINE
8
1
10
66.809
20
-37.118
11
67.611
21
-34.819
62
0
0
LINE
8
1
10
67.611
20
-34.819
11
67.614
21
-34.814
62
0
0
LINE
8
1
10
67.614
20
-34.814
11
71.572
21
-20.486
62
0
0
LINE
8
1
10
71.572
20
-20.486
11
71.719
21
-19.537
62
0
0
LINE
8
1
10
71.719
20
-19.537
11
71.72
21
-19.536
62
0
0
LINE
8
1
10
71.72
20
-19.536
11
71.75
21
-19.056
62
0
0
LINE
8
1
10
71.75
20
-19.056
11
71.751
21
-19.055
62
0
0
LINE
8
1
10
71.751
20
-19.055
11
71.751
21
-18.575
62
0
0
LINE
8
1
10
71.751
20
-18.575
11
71.752
21
-18.574
62
0
0
LINE
8
1
10
71.752
20
-18.574
11
71.726
21
-18.085
62
0
0
LINE
8
1
10
71.726
20
-18.085
11
71.725
21
-18.084
62
0
0
LINE
8
1
10
71.725
20
-18.084
11
71.67
21
-17.605
62
0
0
LINE
8
1
10
71.67
20
-17.605
11
71.668
21
-17.604
62
0
0
LINE
8
1
10
71.668
20
-17.604
11
71.584
21
-17.133
62
0
0
LINE
8
1
10
71.584
20
-17.133
11
71.47
21
-16.664
62
0
0
LINE
8
1
10
71.47
20
-16.664
11
71.329
21
-16.203
62
0
0
LINE
8
1
10
71.329
20
-16.203
11
71.327
21
-16.201
62
0
0
LINE
8
1
10
71.327
20
-16.201
11
71.16
21
-15.75
62
0
0
LINE
8
1
10
71.16
20
-15.75
11
71.158
21
-15.749
62
0
0
LINE
8
1
10
71.158
20
-15.749
11
70.963
21
-15.31
62
0
0
LINE
8
1
10
70.963
20
-15.31
11
70.742
21
-14.883
62
0
0
LINE
8
1
10
70.742
20
-14.883
11
70.496
21
-14.471
62
0
0
LINE
8
1
10
70.496
20
-14.471
11
70.494
21
-14.469
62
0
0
LINE
8
1
10
70.494
20
-14.469
11
70.225
21
-14.074
62
0
0
LINE
8
1
10
70.225
20
-14.074
11
70.223
21
-14.072
62
0
0
LINE
8
1
10
70.223
20
-14.072
11
69.93
21
-13.692
62
0
0
LINE
8
1
10
69.93
20
-13.692
11
62.929
21
-5.628
62
0
0
LINE
8
1
10
62.929
20
-5.628
11
61.669
21
-4.047
62
0
0
LINE
8
1
10
61.669
20
-4.047
11
61.667
21
-4.045
62
0
0
LINE
8
1
10
61.667
20
-4.045
11
60.433
21
-2.45
62
0
0
LINE
8
1
10
60.433
20
-2.45
11
60.43
21
-2.448
62
0
0
LINE
8
1
10
60.43
20
-2.448
11
51.429
21
10.846
62
0
0
LINE
8
1
10
51.429
20
10.846
11
44.019
21
25.059
62
0
0
LINE
8
1
10
44.019
20
25.059
11
43.206
21
26.898
62
0
0
LINE
8
1
10
43.206
20
26.898
11
43.203
21
26.902
62
0
0
LINE
8
1
10
43.203
20
26.902
11
37.244
21
43.049
62
0
0
LINE
8
1
10
37.244
20
43.049
11
37.035
21
43.484
62
0
0
LINE
8
1
10
37.035
20
43.484
11
36.8
21
43.905
62
0
0
LINE
8
1
10
36.8
20
43.905
11
36.798
21
43.907
62
0
0
LINE
8
1
10
36.798
20
43.907
11
36.54
21
44.311
62
0
0
LINE
8
1
10
36.54
20
44.311
11
36.538
21
44.313
62
0
0
LINE
8
1
10
36.538
20
44.313
11
36.257
21
44.702
62
0
0
LINE
8
1
10
36.257
20
44.702
11
34.902
21
46.07
62
0
0
LINE
8
1
10
34.902
20
46.07
11
34.516
21
46.357
62
0
0
LINE
8
1
10
34.516
20
46.357
11
34.515
21
46.358
62
0
0
LINE
8
1
10
34.515
20
46.358
11
34.115
21
46.62
62
0
0
LINE
8
1
10
34.115
20
46.62
11
34.113
21
46.622
62
0
0
LINE
8
1
10
34.113
20
46.622
11
33.696
21
46.86
62
0
0
LINE
8
1
10
33.696
20
46.86
11
33.266
21
47.072
62
0
0
LINE
8
1
10
33.266
20
47.072
11
33.265
21
47.073
62
0
0
LINE
8
1
10
33.265
20
47.073
11
32.823
21
47.26
62
0
0
LINE
8
1
10
32.823
20
47.26
11
32.821
21
47.262
62
0
0
LINE
8
1
10
32.821
20
47.262
11
32.368
21
47.42
62
0
0
LINE
8
1
10
32.368
20
47.42
11
32.365
21
47.423
62
0
0
LINE
8
1
10
32.365
20
47.423
11
32.361
21
47.423
62
0
0
LINE
8
1
10
32.361
20
47.423
11
17.978
21
51.159
62
0
0
LINE
8
1
10
17.978
20
51.159
11
10.788
21
52.379
62
0
0
LINE
8
1
10
10.788
20
52.379
11
10.785
21
52.38
62
0
0
LINE
8
1
10
10.785
20
52.38
11
8.391
21
52.69
62
0
0
LINE
8
1
10
14.01
20
20.61
11
14.01
21
24.61
62
0
0
LINE
8
1
10
14.01
20
24.61
11
-26.01
21
24.61
62
0
0
LINE
8
1
10
-26.01
20
24.61
11
-26.01
21
20.61
62
0
0
LINE
8
1
10
-26.01
20
20.61
11
-44.99
21
20.61
62
0
0
LINE
8
1
10
-44.99
20
20.61
11
-44.99
21
40.089
62
0
0
LINE
8
1
10
-44.99
20
40.089
11
32.99
21
40.089
62
0
0
LINE
8
1
10
32.99
20
40.089
11
32.99
21
20.61
62
0
0
LINE
8
1
10
32.99
20
20.61
11
14.01
21
20.61
62
0
0
CIRCLE
8
1
10
-13.499
20
17.999
40
1.48978
62
0
0
CIRCLE
8
1
10
1.499
20
17.999
40
1.48978
62
0
0
CIRCLE
8
1
10
-49.3
20
4.999
40
1.48987
62
0
0
CIRCLE
8
1
10
37.3
20
4.999
40
1.48987
62
0
0
CIRCLE
8
1
10
-5.999
20
-1.499
40
1.48978
62
0
0
LINE
8
1
10
-34.628
20
-59.634
11
-32.573
21
-58.483
62
0
0
LINE
8
1
10
-32.573
20
-58.483
11
-32.235
21
-58.392
62
0
0
LINE
8
1
10
-32.235
20
-58.392
11
-31.889
21
-58.363
62
0
0
LINE
8
1
10
-31.889
20
-58.363
11
-31.888
21
-58.362
62
0
0
LINE
8
1
10
-31.888
20
-58.362
11
-31.55
21
-58.391
62
0
0
LINE
8
1
10
-31.55
20
-58.391
11
-31.212
21
-58.482
62
0
0
LINE
8
1
10
-31.212
20
-58.482
11
-30.899
21
-58.627
62
0
0
LINE
8
1
10
-30.899
20
-58.627
11
-30.898
21
-58.628
62
0
0
LINE
8
1
10
-30.898
20
-58.628
11
-30.614
21
-58.827
62
0
0
LINE
8
1
10
-30.614
20
-58.827
11
-30.367
21
-59.073
62
0
0
LINE
8
1
10
-30.367
20
-59.073
11
-30.169
21
-59.357
62
0
0
LINE
8
1
10
-30.169
20
-59.357
11
-21.674
21
-74.07
62
0
0
LINE
8
1
10
-21.674
20
-74.07
11
-38.544
21
-83.81
62
0
0
LINE
8
1
10
-38.544
20
-83.81
11
-77.534
21
-16.279
62
0
0
LINE
8
1
10
-77.534
20
-16.279
11
-60.664
21
-6.539
62
0
0
LINE
8
1
10
-60.664
20
-6.539
11
-52.022
21
-21.568
62
0
0
LINE
8
1
10
-52.022
20
-21.568
11
-51.933
21
-21.904
62
0
0
LINE
8
1
10
-51.933
20
-21.904
11
-51.903
21
-22.25
62
0
0
LINE
8
1
10
-51.903
20
-22.25
11
-51.902
21
-22.251
62
0
0
LINE
8
1
10
-51.902
20
-22.251
11
-51.932
21
-22.59
62
0
0
LINE
8
1
10
-51.932
20
-22.59
11
-52.022
21
-22.927
62
0
0
LINE
8
1
10
-52.022
20
-22.927
11
-52.168
21
-23.241
62
0
0
LINE
8
1
10
-52.168
20
-23.241
11
-52.367
21
-23.526
62
0
0
LINE
8
1
10
-52.367
20
-23.526
11
-52.614
21
-23.772
62
0
0
LINE
8
1
10
-52.614
20
-23.772
11
-52.897
21
-23.97
62
0
0
LINE
8
1
10
-52.897
20
-23.97
11
-54.638
21
-24.975
62
0
0
LINE
8
1
10
-54.638
20
-24.975
11
-34.628
21
-59.634
62
0
0
LINE
8
1
10
9.674
20
-74.07
11
18.366
21
-59.074
62
0
0
LINE
8
1
10
18.366
20
-59.074
11
18.613
21
-58.828
62
0
0
LINE
8
1
10
18.613
20
-58.828
11
18.897
21
-58.629
62
0
0
LINE
8
1
10
18.897
20
-58.629
11
18.898
21
-58.628
62
0
0
LINE
8
1
10
18.898
20
-58.628
11
19.211
21
-58.483
62
0
0
LINE
8
1
10
19.211
20
-58.483
11
19.549
21
-58.392
62
0
0
LINE
8
1
10
19.549
20
-58.392
11
19.895
21
-58.363
62
0
0
LINE
8
1
10
19.895
20
-58.363
11
19.896
21
-58.362
62
0
0
LINE
8
1
10
19.896
20
-58.362
11
20.234
21
-58.391
62
0
0
LINE
8
1
10
20.234
20
-58.391
11
20.572
21
-58.482
62
0
0
LINE
8
1
10
20.572
20
-58.482
11
20.885
21
-58.627
62
0
0
LINE
8
1
10
20.885
20
-58.627
11
20.886
21
-58.628
62
0
0
LINE
8
1
10
20.886
20
-58.628
11
22.628
21
-59.634
62
0
0
LINE
8
1
10
22.628
20
-59.634
11
42.638
21
-24.975
62
0
0
LINE
8
1
10
42.638
20
-24.975
11
40.613
21
-23.771
62
0
0
LINE
8
1
10
40.613
20
-23.771
11
40.367
21
-23.526
62
0
0
LINE
8
1
10
40.367
20
-23.526
11
40.169
21
-23.242
62
0
0
LINE
8
1
10
40.169
20
-23.242
11
40.023
21
-22.928
62
0
0
LINE
8
1
10
40.023
20
-22.928
11
39.933
21
-22.59
62
0
0
LINE
8
1
10
39.933
20
-22.59
11
39.903
21
-22.244
62
0
0
LINE
8
1
10
39.903
20
-22.244
11
39.902
21
-22.243
62
0
0
LINE
8
1
10
39.902
20
-22.243
11
39.932
21
-21.905
62
0
0
LINE
8
1
10
39.932
20
-21.905
11
40.022
21
-21.567
62
0
0
LINE
8
1
10
40.022
20
-21.567
11
40.167
21
-21.254
62
0
0
LINE
8
1
10
40.167
20
-21.254
11
40.168
21
-21.253
62
0
0
LINE
8
1
10
40.168
20
-21.253
11
48.664
21
-6.539
62
0
0
LINE
8
1
10
48.664
20
-6.539
11
65.534
21
-16.279
62
0
0
LINE
8
1
10
65.534
20
-16.279
11
26.544
21
-83.81
62
0
0
LINE
8
1
10
26.544
20
-83.81
11
9.674
21
-74.07
62
0
0
CIRCLE
8
1
10
-22.021
20
-29.249
40
1.48987
62
0
0
CIRCLE
8
1
10
10.02
20
-29.249
40
1.48987
62
0
0
CIRCLE
8
1
10
-42.658
20
-32.504
40
1.48984
62
0
0
CIRCLE
8
1
10
30.658
20
-32.504
40
1.48984
62
0
0
CIRCLE
8
1
10
-35.158
20
-45.494
40
1.48984
62
0
0
CIRCLE
8
1
10
23.158
20
-45.494
40
1.48984
62
0
0
CIRCLE
8
1
10
-5.999
20
-69.999
40
1.48979
62
0
0
ENDSEC
0
EOF
