999
DXF created from Projekt
0
SECTION
2
HEADER
9
$ACADVER
1
AC1006
9
$INSUNITS
70
4
9
$INSBASE
10
0.0
20
0.0
30
0.0
9
$EXTMIN
10
-45.01
20
-45.01
9
$EXTMAX
10
54.366
20
45.01
0
ENDSEC
0
SECTION
2
TABLES
0
TABLE
2
LTYPE
70
1
0
LTYPE
2
CONTINUOUS
70
64
3
Solid line
72
65
73
0
40
0.000000
0
ENDTAB
0
TABLE
2
LAYER
70
6
0
LAYER
2
1
70
64
62
7
6
CONTINUOUS
0
ENDTAB
0
TABLE
2
STYLE
70
0
0
ENDTAB
0
ENDSEC
0
SECTION
2
BLOCKS
0
ENDSEC
0
SECTION
2
ENTITIES
0
LINE
8
1
10
45.602
20
-20.671
11
45.807
21
-20.913
62
0
0
LINE
8
1
10
45.807
20
-20.913
11
46.048
21
-21.12
62
0
0
LINE
8
1
10
46.048
20
-21.12
11
46.327
21
-21.292
62
0
0
LINE
8
1
10
46.327
20
-21.292
11
46.61
21
-21.41
62
0
0
LINE
8
1
10
46.61
20
-21.41
11
46.919
21
-21.485
62
0
0
LINE
8
1
10
46.919
20
-21.485
11
54.366
21
-21.511
62
0
0
LINE
8
1
10
54.366
20
-21.511
11
54.366
21
21.51
62
0
0
LINE
8
1
10
54.366
20
21.51
11
46.92
21
21.485
62
0
0
LINE
8
1
10
46.92
20
21.485
11
46.61
21
21.41
62
0
0
LINE
8
1
10
46.61
20
21.41
11
46.308
21
21.283
62
0
0
LINE
8
1
10
46.308
20
21.283
11
46.039
21
21.114
62
0
0
LINE
8
1
10
46.039
20
21.114
11
45.807
21
20.913
62
0
0
LINE
8
1
10
45.807
20
20.913
11
45.602
21
20.671
62
0
0
LINE
8
1
10
45.602
20
20.671
11
45.444
21
20.409
62
0
0
LINE
8
1
10
45.444
20
20.409
11
45.116
21
19.812
62
0
0
LINE
8
1
10
45.116
20
19.812
11
44.914
21
19.573
62
0
0
LINE
8
1
10
44.914
20
19.573
11
44.675
21
19.367
62
0
0
LINE
8
1
10
44.675
20
19.367
11
44.408
21
19.202
62
0
0
LINE
8
1
10
44.408
20
19.202
11
44.12
21
19.081
62
0
0
LINE
8
1
10
44.12
20
19.081
11
43.813
21
19.007
62
0
0
LINE
8
1
10
43.813
20
19.007
11
43.5
21
18.982
62
0
0
LINE
8
1
10
43.5
20
18.982
11
43.186
21
19.007
62
0
0
LINE
8
1
10
43.186
20
19.007
11
42.879
21
19.081
62
0
0
LINE
8
1
10
42.879
20
19.081
11
42.591
21
19.202
62
0
0
LINE
8
1
10
42.591
20
19.202
11
42.324
21
19.367
62
0
0
LINE
8
1
10
42.324
20
19.367
11
42.085
21
19.573
62
0
0
LINE
8
1
10
42.085
20
19.573
11
41.882
21
19.813
62
0
0
LINE
8
1
10
41.882
20
19.813
11
41.41
21
20.652
62
0
0
LINE
8
1
10
41.41
20
20.652
11
41.223
21
20.881
62
0
0
LINE
8
1
10
41.223
20
20.881
11
41.006
21
21.08
62
0
0
LINE
8
1
10
41.006
20
21.08
11
40.785
21
21.231
62
0
0
LINE
8
1
10
40.785
20
21.231
11
40.546
21
21.351
62
0
0
LINE
8
1
10
40.546
20
21.351
11
40.293
21
21.439
62
0
0
LINE
8
1
10
40.293
20
21.439
11
40.03
21
21.492
62
0
0
LINE
8
1
10
40.03
20
21.492
11
39.51
21
21.51
62
0
0
LINE
8
1
10
39.51
20
21.51
11
39.51
21
22.51
62
0
0
LINE
8
1
10
39.51
20
22.51
11
37.504
21
22.51
62
0
0
LINE
8
1
10
37.504
20
22.51
11
15.004
21
45.01
62
0
0
LINE
8
1
10
15.004
20
45.01
11
-15.004
21
45.01
62
0
0
LINE
8
1
10
-15.004
20
45.01
11
-45.01
21
15.004
62
0
0
LINE
8
1
10
-45.01
20
15.004
11
-45.01
21
-15.004
62
0
0
LINE
8
1
10
-45.01
20
-15.004
11
-15.004
21
-45.01
62
0
0
LINE
8
1
10
-15.004
20
-45.01
11
15.004
21
-45.01
62
0
0
LINE
8
1
10
15.004
20
-45.01
11
37.504
21
-22.51
62
0
0
LINE
8
1
10
37.504
20
-22.51
11
39.51
21
-22.51
62
0
0
LINE
8
1
10
39.51
20
-22.51
11
39.51
21
-21.51
62
0
0
LINE
8
1
10
39.51
20
-21.51
11
40.03
21
-21.492
62
0
0
LINE
8
1
10
40.03
20
-21.492
11
40.293
21
-21.439
62
0
0
LINE
8
1
10
40.293
20
-21.439
11
40.546
21
-21.351
62
0
0
LINE
8
1
10
40.546
20
-21.351
11
40.785
21
-21.231
62
0
0
LINE
8
1
10
40.785
20
-21.231
11
41.006
21
-21.08
62
0
0
LINE
8
1
10
41.006
20
-21.08
11
41.223
21
-20.881
62
0
0
LINE
8
1
10
41.223
20
-20.881
11
41.41
21
-20.652
62
0
0
LINE
8
1
10
41.41
20
-20.652
11
41.882
21
-19.813
62
0
0
LINE
8
1
10
41.882
20
-19.813
11
42.085
21
-19.573
62
0
0
LINE
8
1
10
42.085
20
-19.573
11
42.324
21
-19.367
62
0
0
LINE
8
1
10
42.324
20
-19.367
11
42.591
21
-19.202
62
0
0
LINE
8
1
10
42.591
20
-19.202
11
42.879
21
-19.081
62
0
0
LINE
8
1
10
42.879
20
-19.081
11
43.186
21
-19.007
62
0
0
LINE
8
1
10
43.186
20
-19.007
11
43.5
21
-18.982
62
0
0
LINE
8
1
10
43.5
20
-18.982
11
43.813
21
-19.007
62
0
0
LINE
8
1
10
43.813
20
-19.007
11
44.12
21
-19.081
62
0
0
LINE
8
1
10
44.12
20
-19.081
11
44.408
21
-19.202
62
0
0
LINE
8
1
10
44.408
20
-19.202
11
44.675
21
-19.367
62
0
0
LINE
8
1
10
44.675
20
-19.367
11
44.914
21
-19.573
62
0
0
LINE
8
1
10
44.914
20
-19.573
11
45.117
21
-19.813
62
0
0
LINE
8
1
10
45.117
20
-19.813
11
45.602
21
-20.671
62
0
0
CIRCLE
8
1
10
-11.499
20
34.999
40
2.23979
62
0
0
CIRCLE
8
1
10
11.5
20
34.999
40
2.23977
62
0
0
CIRCLE
8
1
10
-22.22
20
30.705
40
1.98981
62
0
0
CIRCLE
8
1
10
22.221
20
30.705
40
1.98982
62
0
0
CIRCLE
8
1
10
-26.463
20
26.462
40
1.98967
62
0
0
CIRCLE
8
1
10
26.464
20
26.462
40
1.98963
62
0
0
CIRCLE
8
1
10
-30.706
20
22.221
40
1.98985
62
0
0
CIRCLE
8
1
10
30.706
20
22.221
40
1.98979
62
0
0
CIRCLE
8
1
10
51.356
20
18.5
40
1.58999
62
0
0
CIRCLE
8
1
10
34.999
20
11.499
40
2.23979
62
0
0
CIRCLE
8
1
10
-34.998
20
11.499
40
2.23967
62
0
0
CIRCLE
8
1
10
-34.999
20
-11.499
40
2.23979
62
0
0
CIRCLE
8
1
10
35
20
-11.499
40
2.23977
62
0
0
CIRCLE
8
1
10
51.356
20
-18.498
40
1.58993
62
0
0
CIRCLE
8
1
10
-30.706
20
-22.222
40
1.98978
62
0
0
CIRCLE
8
1
10
30.707
20
-22.222
40
1.98975
62
0
0
CIRCLE
8
1
10
-26.463
20
-26.465
40
1.9897
62
0
0
CIRCLE
8
1
10
26.464
20
-26.465
40
1.98965
62
0
0
CIRCLE
8
1
10
-22.22
20
-30.706
40
1.98988
62
0
0
CIRCLE
8
1
10
22.221
20
-30.706
40
1.98988
62
0
0
CIRCLE
8
1
10
11.499
20
-34.999
40
2.23979
62
0
0
CIRCLE
8
1
10
-11.498
20
-34.999
40
2.23967
62
0
0
ENDSEC
0
EOF
