999
DXF created from Projekt
0
SECTION
2
HEADER
9
$ACADVER
1
AC1006
9
$INSUNITS
70
4
9
$INSBASE
10
0.0
20
0.0
30
0.0
9
$EXTMIN
10
-47.01
20
-47.01
9
$EXTMAX
10
47.01
20
47.01
0
ENDSEC
0
SECTION
2
TABLES
0
TABLE
2
LTYPE
70
1
0
LTYPE
2
CONTINUOUS
70
64
3
Solid line
72
65
73
0
40
0.000000
0
ENDTAB
0
TABLE
2
LAYER
70
6
0
LAYER
2
1
70
64
62
7
6
CONTINUOUS
0
ENDTAB
0
TABLE
2
STYLE
70
0
0
ENDTAB
0
ENDSEC
0
SECTION
2
BLOCKS
0
ENDSEC
0
SECTION
2
ENTITIES
0
LINE
8
1
10
47.01
20
-15.832
11
47.01
21
15.832
62
0
0
LINE
8
1
10
47.01
20
15.832
11
15.832
21
47.01
62
0
0
LINE
8
1
10
15.832
20
47.01
11
-15.832
21
47.01
62
0
0
LINE
8
1
10
-15.832
20
47.01
11
-47.01
21
15.832
62
0
0
LINE
8
1
10
-47.01
20
15.832
11
-47.01
21
-15.832
62
0
0
LINE
8
1
10
-47.01
20
-15.832
11
-15.832
21
-47.01
62
0
0
LINE
8
1
10
-15.832
20
-47.01
11
15.832
21
-47.01
62
0
0
LINE
8
1
10
15.832
20
-47.01
11
47.01
21
-15.832
62
0
0
CIRCLE
8
1
10
0
20
40.999
40
1.58957
62
0
0
LINE
8
1
10
-11.268
20
-35.99
11
-35.99
21
-11.268
62
0
0
LINE
8
1
10
-35.99
20
-11.268
11
-35.99
21
11.268
62
0
0
LINE
8
1
10
-35.99
20
11.268
11
-11.268
21
35.99
62
0
0
LINE
8
1
10
-11.268
20
35.99
11
11.268
21
35.99
62
0
0
LINE
8
1
10
11.268
20
35.99
11
35.99
21
11.268
62
0
0
LINE
8
1
10
35.99
20
11.268
11
35.99
21
-11.268
62
0
0
LINE
8
1
10
35.99
20
-11.268
11
11.268
21
-35.99
62
0
0
LINE
8
1
10
11.268
20
-35.99
11
-11.268
21
-35.99
62
0
0
CIRCLE
8
1
10
-22.221
20
30.706
40
1.98989
62
0
0
CIRCLE
8
1
10
22.22
20
30.706
40
1.98989
62
0
0
CIRCLE
8
1
10
-26.464
20
26.465
40
1.98966
62
0
0
CIRCLE
8
1
10
26.463
20
26.465
40
1.98971
62
0
0
CIRCLE
8
1
10
-30.707
20
22.222
40
1.98976
62
0
0
CIRCLE
8
1
10
30.706
20
22.222
40
1.98979
62
0
0
CIRCLE
8
1
10
40.999
20
0
40
1.58957
62
0
0
CIRCLE
8
1
10
-40.999
20
0
40
1.58957
62
0
0
CIRCLE
8
1
10
-30.706
20
-22.221
40
1.9898
62
0
0
CIRCLE
8
1
10
30.706
20
-22.221
40
1.98986
62
0
0
CIRCLE
8
1
10
-26.464
20
-26.462
40
1.98964
62
0
0
CIRCLE
8
1
10
26.463
20
-26.462
40
1.98968
62
0
0
CIRCLE
8
1
10
-22.221
20
-30.705
40
1.98983
62
0
0
CIRCLE
8
1
10
22.22
20
-30.705
40
1.98982
62
0
0
CIRCLE
8
1
10
0
20
-40.999
40
1.58957
62
0
0
ENDSEC
0
EOF
