999
DXF created from Projekt
0
SECTION
2
HEADER
9
$ACADVER
1
AC1006
9
$INSUNITS
70
4
9
$INSBASE
10
0.0
20
0.0
30
0.0
9
$EXTMIN
10
-76.366
20
-76.371
9
$EXTMAX
10
76.366
20
76.366
0
ENDSEC
0
SECTION
2
TABLES
0
TABLE
2
LTYPE
70
1
0
LTYPE
2
CONTINUOUS
70
64
3
Solid line
72
65
73
0
40
0.000000
0
ENDTAB
0
TABLE
2
LAYER
70
6
0
LAYER
2
1
70
64
62
7
6
CONTINUOUS
0
ENDTAB
0
TABLE
2
STYLE
70
0
0
ENDTAB
0
ENDSEC
0
SECTION
2
BLOCKS
0
ENDSEC
0
SECTION
2
ENTITIES
0
LINE
8
1
10
51.347
20
-18.566
11
51.65
21
-18.942
62
0
0
LINE
8
1
10
51.65
20
-18.942
11
53.35
21
-22.51
62
0
0
LINE
8
1
10
53.35
20
-22.51
11
76.366
21
-22.51
62
0
0
LINE
8
1
10
76.366
20
-22.51
11
76.366
21
22.51
62
0
0
LINE
8
1
10
76.366
20
22.51
11
53.35
21
22.51
62
0
0
LINE
8
1
10
53.35
20
22.51
11
51.659
21
18.957
62
0
0
LINE
8
1
10
51.659
20
18.957
11
51.65
21
18.942
62
0
0
LINE
8
1
10
51.65
20
18.942
11
51.346
21
18.565
62
0
0
LINE
8
1
10
51.346
20
18.565
11
50.985
21
18.241
62
0
0
LINE
8
1
10
50.985
20
18.241
11
50.578
21
17.982
62
0
0
LINE
8
1
10
50.578
20
17.982
11
50.133
21
17.791
62
0
0
LINE
8
1
10
50.133
20
17.791
11
49.661
21
17.673
62
0
0
LINE
8
1
10
49.661
20
17.673
11
49.178
21
17.634
62
0
0
LINE
8
1
10
49.178
20
17.634
11
48.695
21
17.673
62
0
0
LINE
8
1
10
48.695
20
17.673
11
48.223
21
17.791
62
0
0
LINE
8
1
10
48.223
20
17.791
11
47.778
21
17.982
62
0
0
LINE
8
1
10
47.778
20
17.982
11
47.371
21
18.241
62
0
0
LINE
8
1
10
47.371
20
18.241
11
47.009
21
18.566
62
0
0
LINE
8
1
10
47.009
20
18.566
11
46.706
21
18.942
62
0
0
LINE
8
1
10
46.706
20
18.942
11
45.006
21
22.51
62
0
0
LINE
8
1
10
45.006
20
22.51
11
43.16
21
22.51
62
0
0
LINE
8
1
10
43.16
20
22.51
11
22.51
21
43.16
62
0
0
LINE
8
1
10
22.51
20
43.16
11
22.51
21
45.006
62
0
0
LINE
8
1
10
22.51
20
45.006
11
18.957
21
46.697
62
0
0
LINE
8
1
10
18.957
20
46.697
11
18.942
21
46.706
62
0
0
LINE
8
1
10
18.942
20
46.706
11
18.565
21
47.01
62
0
0
LINE
8
1
10
18.565
20
47.01
11
18.241
21
47.371
62
0
0
LINE
8
1
10
18.241
20
47.371
11
17.982
21
47.778
62
0
0
LINE
8
1
10
17.982
20
47.778
11
17.791
21
48.223
62
0
0
LINE
8
1
10
17.791
20
48.223
11
17.673
21
48.695
62
0
0
LINE
8
1
10
17.673
20
48.695
11
17.634
21
49.179
62
0
0
LINE
8
1
10
17.634
20
49.179
11
17.673
21
49.661
62
0
0
LINE
8
1
10
17.673
20
49.661
11
17.79
21
50.131
62
0
0
LINE
8
1
10
17.79
20
50.131
11
17.982
21
50.578
62
0
0
LINE
8
1
10
17.982
20
50.578
11
18.241
21
50.985
62
0
0
LINE
8
1
10
18.241
20
50.985
11
18.565
21
51.346
62
0
0
LINE
8
1
10
18.565
20
51.346
11
18.942
21
51.65
62
0
0
LINE
8
1
10
18.942
20
51.65
11
19.352
21
51.882
62
0
0
LINE
8
1
10
19.352
20
51.882
11
22.51
21
53.35
62
0
0
LINE
8
1
10
22.51
20
53.35
11
22.51
21
76.366
62
0
0
LINE
8
1
10
22.51
20
76.366
11
-22.51
21
76.366
62
0
0
LINE
8
1
10
-22.51
20
76.366
11
-22.51
21
53.35
62
0
0
LINE
8
1
10
-22.51
20
53.35
11
-18.957
21
51.659
62
0
0
LINE
8
1
10
-18.957
20
51.659
11
-18.942
21
51.65
62
0
0
LINE
8
1
10
-18.942
20
51.65
11
-18.565
21
51.346
62
0
0
LINE
8
1
10
-18.565
20
51.346
11
-18.241
21
50.985
62
0
0
LINE
8
1
10
-18.241
20
50.985
11
-17.982
21
50.578
62
0
0
LINE
8
1
10
-17.982
20
50.578
11
-17.79
21
50.131
62
0
0
LINE
8
1
10
-17.79
20
50.131
11
-17.673
21
49.661
62
0
0
LINE
8
1
10
-17.673
20
49.661
11
-17.634
21
49.177
62
0
0
LINE
8
1
10
-17.634
20
49.177
11
-17.673
21
48.694
62
0
0
LINE
8
1
10
-17.673
20
48.694
11
-17.791
21
48.223
62
0
0
LINE
8
1
10
-17.791
20
48.223
11
-17.982
21
47.778
62
0
0
LINE
8
1
10
-17.982
20
47.778
11
-18.241
21
47.371
62
0
0
LINE
8
1
10
-18.241
20
47.371
11
-18.566
21
47.009
62
0
0
LINE
8
1
10
-18.566
20
47.009
11
-18.942
21
46.706
62
0
0
LINE
8
1
10
-18.942
20
46.706
11
-22.51
21
45.006
62
0
0
LINE
8
1
10
-22.51
20
45.006
11
-22.51
21
43.16
62
0
0
LINE
8
1
10
-22.51
20
43.16
11
-43.16
21
22.51
62
0
0
LINE
8
1
10
-43.16
20
22.51
11
-43.656
21
22.456
62
0
0
LINE
8
1
10
-43.656
20
22.456
11
-44.14
21
22.319
62
0
0
LINE
8
1
10
-44.14
20
22.319
11
-44.594
21
22.105
62
0
0
LINE
8
1
10
-44.594
20
22.105
11
-45.006
21
21.818
62
0
0
LINE
8
1
10
-45.006
20
21.818
11
-45.326
21
21.509
62
0
0
LINE
8
1
10
-45.326
20
21.509
11
-45.598
21
21.156
62
0
0
LINE
8
1
10
-45.598
20
21.156
11
-46.706
21
18.942
62
0
0
LINE
8
1
10
-46.706
20
18.942
11
-47.01
21
18.565
62
0
0
LINE
8
1
10
-47.01
20
18.565
11
-47.371
21
18.241
62
0
0
LINE
8
1
10
-47.371
20
18.241
11
-47.778
21
17.982
62
0
0
LINE
8
1
10
-47.778
20
17.982
11
-48.223
21
17.791
62
0
0
LINE
8
1
10
-48.223
20
17.791
11
-48.695
21
17.673
62
0
0
LINE
8
1
10
-48.695
20
17.673
11
-49.178
21
17.634
62
0
0
LINE
8
1
10
-49.178
20
17.634
11
-49.661
21
17.673
62
0
0
LINE
8
1
10
-49.661
20
17.673
11
-50.133
21
17.791
62
0
0
LINE
8
1
10
-50.133
20
17.791
11
-50.578
21
17.982
62
0
0
LINE
8
1
10
-50.578
20
17.982
11
-50.985
21
18.241
62
0
0
LINE
8
1
10
-50.985
20
18.241
11
-51.347
21
18.566
62
0
0
LINE
8
1
10
-51.347
20
18.566
11
-51.651
21
18.943
62
0
0
LINE
8
1
10
-51.651
20
18.943
11
-52.758
21
21.156
62
0
0
LINE
8
1
10
-52.758
20
21.156
11
-53.03
21
21.508
62
0
0
LINE
8
1
10
-53.03
20
21.508
11
-53.35
21
21.817
62
0
0
LINE
8
1
10
-53.35
20
21.817
11
-53.688
21
22.06
62
0
0
LINE
8
1
10
-53.688
20
22.06
11
-54.056
21
22.253
62
0
0
LINE
8
1
10
-54.056
20
22.253
11
-54.448
21
22.395
62
0
0
LINE
8
1
10
-54.448
20
22.395
11
-54.856
21
22.481
62
0
0
LINE
8
1
10
-54.856
20
22.481
11
-76.366
21
22.51
62
0
0
LINE
8
1
10
-76.366
20
22.51
11
-76.366
21
-22.51
62
0
0
LINE
8
1
10
-76.366
20
-22.51
11
-54.856
21
-22.481
62
0
0
LINE
8
1
10
-54.856
20
-22.481
11
-54.448
21
-22.395
62
0
0
LINE
8
1
10
-54.448
20
-22.395
11
-54.056
21
-22.253
62
0
0
LINE
8
1
10
-54.056
20
-22.253
11
-53.688
21
-22.06
62
0
0
LINE
8
1
10
-53.688
20
-22.06
11
-53.35
21
-21.817
62
0
0
LINE
8
1
10
-53.35
20
-21.817
11
-53.03
21
-21.508
62
0
0
LINE
8
1
10
-53.03
20
-21.508
11
-52.758
21
-21.156
62
0
0
LINE
8
1
10
-52.758
20
-21.156
11
-51.651
21
-18.943
62
0
0
LINE
8
1
10
-51.651
20
-18.943
11
-51.347
21
-18.566
62
0
0
LINE
8
1
10
-51.347
20
-18.566
11
-50.985
21
-18.241
62
0
0
LINE
8
1
10
-50.985
20
-18.241
11
-50.578
21
-17.982
62
0
0
LINE
8
1
10
-50.578
20
-17.982
11
-50.133
21
-17.791
62
0
0
LINE
8
1
10
-50.133
20
-17.791
11
-49.661
21
-17.673
62
0
0
LINE
8
1
10
-49.661
20
-17.673
11
-49.178
21
-17.634
62
0
0
LINE
8
1
10
-49.178
20
-17.634
11
-48.695
21
-17.673
62
0
0
LINE
8
1
10
-48.695
20
-17.673
11
-48.223
21
-17.791
62
0
0
LINE
8
1
10
-48.223
20
-17.791
11
-47.778
21
-17.982
62
0
0
LINE
8
1
10
-47.778
20
-17.982
11
-47.371
21
-18.241
62
0
0
LINE
8
1
10
-47.371
20
-18.241
11
-47.009
21
-18.566
62
0
0
LINE
8
1
10
-47.009
20
-18.566
11
-46.705
21
-18.943
62
0
0
LINE
8
1
10
-46.705
20
-18.943
11
-45.598
21
-21.157
62
0
0
LINE
8
1
10
-45.598
20
-21.157
11
-45.326
21
-21.509
62
0
0
LINE
8
1
10
-45.326
20
-21.509
11
-45.006
21
-21.818
62
0
0
LINE
8
1
10
-45.006
20
-21.818
11
-44.594
21
-22.105
62
0
0
LINE
8
1
10
-44.594
20
-22.105
11
-44.14
21
-22.319
62
0
0
LINE
8
1
10
-44.14
20
-22.319
11
-43.656
21
-22.456
62
0
0
LINE
8
1
10
-43.656
20
-22.456
11
-43.16
21
-22.51
62
0
0
LINE
8
1
10
-43.16
20
-22.51
11
-22.51
21
-43.16
62
0
0
LINE
8
1
10
-22.51
20
-43.16
11
-22.51
21
-45.006
62
0
0
LINE
8
1
10
-22.51
20
-45.006
11
-18.957
21
-46.697
62
0
0
LINE
8
1
10
-18.957
20
-46.697
11
-18.942
21
-46.706
62
0
0
LINE
8
1
10
-18.942
20
-46.706
11
-18.565
21
-47.01
62
0
0
LINE
8
1
10
-18.565
20
-47.01
11
-18.241
21
-47.371
62
0
0
LINE
8
1
10
-18.241
20
-47.371
11
-17.982
21
-47.778
62
0
0
LINE
8
1
10
-17.982
20
-47.778
11
-17.79
21
-48.225
62
0
0
LINE
8
1
10
-17.79
20
-48.225
11
-17.673
21
-48.695
62
0
0
LINE
8
1
10
-17.673
20
-48.695
11
-17.634
21
-49.179
62
0
0
LINE
8
1
10
-17.634
20
-49.179
11
-17.673
21
-49.662
62
0
0
LINE
8
1
10
-17.673
20
-49.662
11
-17.791
21
-50.133
62
0
0
LINE
8
1
10
-17.791
20
-50.133
11
-17.982
21
-50.578
62
0
0
LINE
8
1
10
-17.982
20
-50.578
11
-18.241
21
-50.985
62
0
0
LINE
8
1
10
-18.241
20
-50.985
11
-18.566
21
-51.347
62
0
0
LINE
8
1
10
-18.566
20
-51.347
11
-18.942
21
-51.65
62
0
0
LINE
8
1
10
-18.942
20
-51.65
11
-22.51
21
-53.35
62
0
0
LINE
8
1
10
-22.51
20
-53.35
11
-22.51
21
-76.371
62
0
0
LINE
8
1
10
-22.51
20
-76.371
11
-15.465
21
-73.728
62
0
0
LINE
8
1
10
-15.465
20
-73.728
11
-15.465
21
-73.729
62
0
0
LINE
8
1
10
-15.465
20
-73.729
11
-9.84
21
-72.323
62
0
0
LINE
8
1
10
-9.84
20
-72.323
11
-4.216
21
-71.542
62
0
0
LINE
8
1
10
-4.216
20
-71.542
11
1.406
21
-71.386
62
0
0
LINE
8
1
10
1.406
20
-71.386
11
7.029
21
-71.854
62
0
0
LINE
8
1
10
7.029
20
-71.854
11
12.653
21
-72.948
62
0
0
LINE
8
1
10
12.653
20
-72.948
11
18.278
21
-74.667
62
0
0
LINE
8
1
10
18.278
20
-74.667
11
18.278
21
-74.666
62
0
0
LINE
8
1
10
18.278
20
-74.666
11
22.51
21
-76.37
62
0
0
LINE
8
1
10
22.51
20
-76.37
11
22.51
21
-53.35
62
0
0
LINE
8
1
10
22.51
20
-53.35
11
18.957
21
-51.659
62
0
0
LINE
8
1
10
18.957
20
-51.659
11
18.942
21
-51.65
62
0
0
LINE
8
1
10
18.942
20
-51.65
11
18.565
21
-51.346
62
0
0
LINE
8
1
10
18.565
20
-51.346
11
18.241
21
-50.985
62
0
0
LINE
8
1
10
18.241
20
-50.985
11
17.982
21
-50.578
62
0
0
LINE
8
1
10
17.982
20
-50.578
11
17.791
21
-50.133
62
0
0
LINE
8
1
10
17.791
20
-50.133
11
17.673
21
-49.661
62
0
0
LINE
8
1
10
17.673
20
-49.661
11
17.634
21
-49.177
62
0
0
LINE
8
1
10
17.634
20
-49.177
11
17.673
21
-48.695
62
0
0
LINE
8
1
10
17.673
20
-48.695
11
17.79
21
-48.225
62
0
0
LINE
8
1
10
17.79
20
-48.225
11
17.982
21
-47.778
62
0
0
LINE
8
1
10
17.982
20
-47.778
11
18.241
21
-47.371
62
0
0
LINE
8
1
10
18.241
20
-47.371
11
18.565
21
-47.01
62
0
0
LINE
8
1
10
18.565
20
-47.01
11
18.942
21
-46.706
62
0
0
LINE
8
1
10
18.942
20
-46.706
11
22.51
21
-45.006
62
0
0
LINE
8
1
10
22.51
20
-45.006
11
22.51
21
-43.16
62
0
0
LINE
8
1
10
22.51
20
-43.16
11
43.16
21
-22.51
62
0
0
LINE
8
1
10
43.16
20
-22.51
11
45.006
21
-22.51
62
0
0
LINE
8
1
10
45.006
20
-22.51
11
46.697
21
-18.957
62
0
0
LINE
8
1
10
46.697
20
-18.957
11
46.705
21
-18.943
62
0
0
LINE
8
1
10
46.705
20
-18.943
11
47.009
21
-18.566
62
0
0
LINE
8
1
10
47.009
20
-18.566
11
47.371
21
-18.241
62
0
0
LINE
8
1
10
47.371
20
-18.241
11
47.778
21
-17.982
62
0
0
LINE
8
1
10
47.778
20
-17.982
11
48.223
21
-17.791
62
0
0
LINE
8
1
10
48.223
20
-17.791
11
48.695
21
-17.673
62
0
0
LINE
8
1
10
48.695
20
-17.673
11
49.178
21
-17.634
62
0
0
LINE
8
1
10
49.178
20
-17.634
11
49.661
21
-17.673
62
0
0
LINE
8
1
10
49.661
20
-17.673
11
50.133
21
-17.791
62
0
0
LINE
8
1
10
50.133
20
-17.791
11
50.578
21
-17.982
62
0
0
LINE
8
1
10
50.578
20
-17.982
11
50.985
21
-18.241
62
0
0
LINE
8
1
10
50.985
20
-18.241
11
51.347
21
-18.566
62
0
0
CIRCLE
8
1
10
0
20
40.999
40
1.58957
62
0
0
CIRCLE
8
1
10
40.999
20
0
40
1.58957
62
0
0
CIRCLE
8
1
10
-40.999
20
0
40
1.58957
62
0
0
CIRCLE
8
1
10
0
20
-40.999
40
1.58957
62
0
0
ENDSEC
0
EOF
