999
DXF created from Projekt
0
SECTION
2
HEADER
9
$ACADVER
1
AC1006
9
$INSUNITS
70
4
9
$INSBASE
10
0.0
20
0.0
30
0.0
9
$EXTMIN
10
-41.493
20
-11.486
9
$EXTMAX
10
85.01
20
11.489
0
ENDSEC
0
SECTION
2
TABLES
0
TABLE
2
LTYPE
70
1
0
LTYPE
2
CONTINUOUS
70
64
3
Solid line
72
65
73
0
40
0.000000
0
ENDTAB
0
TABLE
2
LAYER
70
6
0
LAYER
2
1
70
64
62
7
6
CONTINUOUS
0
ENDTAB
0
TABLE
2
STYLE
70
0
0
ENDTAB
0
ENDSEC
0
SECTION
2
BLOCKS
0
ENDSEC
0
SECTION
2
ENTITIES
0
LINE
8
1
10
21.427
20
-11.324
11
85.01
21
-4.009
62
0
0
LINE
8
1
10
85.01
20
-4.009
11
85.01
21
4.009
62
0
0
LINE
8
1
10
85.01
20
4.009
11
18.561
21
11.489
62
0
0
LINE
8
1
10
18.561
20
11.489
11
-6.431
21
11.299
62
0
0
LINE
8
1
10
-6.431
20
11.299
11
-10.98
21
10.668
62
0
0
LINE
8
1
10
-10.98
20
10.668
11
-38.915
21
3.753
62
0
0
LINE
8
1
10
-38.915
20
3.753
11
-39.309
21
3.582
62
0
0
LINE
8
1
10
-39.309
20
3.582
11
-39.704
21
3.353
62
0
0
LINE
8
1
10
-39.704
20
3.353
11
-40.051
21
3.1
62
0
0
LINE
8
1
10
-40.051
20
3.1
11
-40.668
21
2.467
62
0
0
LINE
8
1
10
-40.668
20
2.467
11
-41.132
21
1.715
62
0
0
LINE
8
1
10
-41.132
20
1.715
11
-41.42
21
0.879
62
0
0
LINE
8
1
10
-41.42
20
0.879
11
-41.493
21
0.442
62
0
0
LINE
8
1
10
-41.493
20
0.442
11
-41.493
21
-0.442
62
0
0
LINE
8
1
10
-41.493
20
-0.442
11
-41.42
21
-0.878
62
0
0
LINE
8
1
10
-41.42
20
-0.878
11
-41.293
21
-1.317
62
0
0
LINE
8
1
10
-41.293
20
-1.317
11
-41.132
21
-1.714
62
0
0
LINE
8
1
10
-41.132
20
-1.714
11
-40.913
21
-2.116
62
0
0
LINE
8
1
10
-40.913
20
-2.116
11
-40.659
21
-2.478
62
0
0
LINE
8
1
10
-40.659
20
-2.478
11
-40.366
21
-2.811
62
0
0
LINE
8
1
10
-40.366
20
-2.811
11
-40.05
21
-3.1
62
0
0
LINE
8
1
10
-40.05
20
-3.1
11
-39.309
21
-3.582
62
0
0
LINE
8
1
10
-39.309
20
-3.582
11
-38.48
21
-3.89
62
0
0
LINE
8
1
10
-38.48
20
-3.89
11
-9.472
21
-10.925
62
0
0
LINE
8
1
10
-9.472
20
-10.925
11
-3.376
21
-11.486
62
0
0
LINE
8
1
10
-3.376
20
-11.486
11
21.427
21
-11.324
62
0
0
CIRCLE
8
1
10
0
20
5.999
40
2.01457
62
0
0
CIRCLE
8
1
10
-5.999
20
0
40
2.01457
62
0
0
CIRCLE
8
1
10
0
20
0
40
2.01429
62
0
0
CIRCLE
8
1
10
5.999
20
0
40
2.01457
62
0
0
CIRCLE
8
1
10
55.45
20
0
40
2.03909
62
0
0
LINE
8
1
10
74.91
20
-1.565
11
74.91
21
1.565
62
0
0
LINE
8
1
10
74.91
20
1.565
11
81.99
21
1.565
62
0
0
LINE
8
1
10
81.99
20
1.565
11
81.99
21
-1.565
62
0
0
LINE
8
1
10
81.99
20
-1.565
11
74.91
21
-1.565
62
0
0
LINE
8
1
10
60.91
20
-1.565
11
60.91
21
1.565
62
0
0
LINE
8
1
10
60.91
20
1.565
11
67.99
21
1.565
62
0
0
LINE
8
1
10
67.99
20
1.565
11
67.99
21
-1.565
62
0
0
LINE
8
1
10
67.99
20
-1.565
11
60.91
21
-1.565
62
0
0
LINE
8
1
10
42.91
20
-1.565
11
42.91
21
1.565
62
0
0
LINE
8
1
10
42.91
20
1.565
11
49.99
21
1.565
62
0
0
LINE
8
1
10
49.99
20
1.565
11
49.99
21
-1.565
62
0
0
LINE
8
1
10
49.99
20
-1.565
11
42.91
21
-1.565
62
0
0
CIRCLE
8
1
10
0
20
-5.999
40
2.01457
62
0
0
CIRCLE
8
1
10
0
20
5.999
40
2.71459
62
1
0
CIRCLE
8
1
10
0
20
5.999
40
2.01457
62
1
0
CIRCLE
8
1
10
-5.999
20
0
40
2.71457
62
1
0
CIRCLE
8
1
10
0
20
0
40
2.71427
62
1
0
CIRCLE
8
1
10
5.999
20
0
40
2.71457
62
1
0
CIRCLE
8
1
10
5.999
20
0
40
2.01457
62
1
0
CIRCLE
8
1
10
0
20
0
40
2.01429
62
1
0
CIRCLE
8
1
10
-5.999
20
0
40
2.01457
62
1
0
CIRCLE
8
1
10
0
20
-5.999
40
2.71459
62
1
0
CIRCLE
8
1
10
0
20
-5.999
40
2.01457
62
1
0
ENDSEC
0
EOF
