999
DXF created from Projekt
0
SECTION
2
HEADER
9
$ACADVER
1
AC1006
9
$INSUNITS
70
4
9
$INSBASE
10
0.0
20
0.0
30
0.0
9
$EXTMIN
10
-19.995
20
0.003
9
$EXTMAX
10
-0.004
20
69.995
0
ENDSEC
0
SECTION
2
TABLES
0
TABLE
2
LTYPE
70
1
0
LTYPE
2
CONTINUOUS
70
64
3
Solid line
72
65
73
0
40
0.000000
0
ENDTAB
0
TABLE
2
LAYER
70
6
0
LAYER
2
1
70
64
62
7
6
CONTINUOUS
0
ENDTAB
0
TABLE
2
STYLE
70
0
0
ENDTAB
0
ENDSEC
0
SECTION
2
BLOCKS
0
ENDSEC
0
SECTION
2
ENTITIES
0
LINE
8
1
10
-2.705
20
0.004
11
-2.412
21
0.047
62
0
0
LINE
8
1
10
-2.412
20
0.047
11
-2.126
21
0.119
62
0
0
LINE
8
1
10
-2.126
20
0.119
11
-1.847
21
0.219
62
0
0
LINE
8
1
10
-1.847
20
0.219
11
-1.328
21
0.496
62
0
0
LINE
8
1
10
-1.328
20
0.496
11
-1.083
21
0.678
62
0
0
LINE
8
1
10
-1.083
20
0.678
11
-0.871
21
0.871
62
0
0
LINE
8
1
10
-0.871
20
0.871
11
-0.497
21
1.327
62
0
0
LINE
8
1
10
-0.497
20
1.327
11
-0.341
21
1.588
62
0
0
LINE
8
1
10
-0.341
20
1.588
11
-0.219
21
1.847
62
0
0
LINE
8
1
10
-0.219
20
1.847
11
-0.119
21
2.126
62
0
0
LINE
8
1
10
-0.119
20
2.126
11
-0.047
21
2.412
62
0
0
LINE
8
1
10
-0.047
20
2.412
11
-0.004
21
2.704
62
0
0
LINE
8
1
10
-0.004
20
2.704
11
-0.004
21
67.295
62
0
0
LINE
8
1
10
-0.004
20
67.295
11
-0.047
21
67.587
62
0
0
LINE
8
1
10
-0.047
20
67.587
11
-0.119
21
67.873
62
0
0
LINE
8
1
10
-0.119
20
67.873
11
-0.219
21
68.152
62
0
0
LINE
8
1
10
-0.219
20
68.152
11
-0.496
21
68.671
62
0
0
LINE
8
1
10
-0.496
20
68.671
11
-0.678
21
68.916
62
0
0
LINE
8
1
10
-0.678
20
68.916
11
-0.871
21
69.128
62
0
0
LINE
8
1
10
-0.871
20
69.128
11
-1.327
21
69.502
62
0
0
LINE
8
1
10
-1.327
20
69.502
11
-1.588
21
69.658
62
0
0
LINE
8
1
10
-1.588
20
69.658
11
-1.847
21
69.78
62
0
0
LINE
8
1
10
-1.847
20
69.78
11
-2.126
21
69.88
62
0
0
LINE
8
1
10
-2.126
20
69.88
11
-2.412
21
69.952
62
0
0
LINE
8
1
10
-2.412
20
69.952
11
-2.704
21
69.995
62
0
0
LINE
8
1
10
-2.704
20
69.995
11
-17.295
21
69.995
62
0
0
LINE
8
1
10
-17.295
20
69.995
11
-17.587
21
69.952
62
0
0
LINE
8
1
10
-17.587
20
69.952
11
-17.873
21
69.88
62
0
0
LINE
8
1
10
-17.873
20
69.88
11
-18.152
21
69.78
62
0
0
LINE
8
1
10
-18.152
20
69.78
11
-18.671
21
69.503
62
0
0
LINE
8
1
10
-18.671
20
69.503
11
-18.916
21
69.321
62
0
0
LINE
8
1
10
-18.916
20
69.321
11
-19.128
21
69.128
62
0
0
LINE
8
1
10
-19.128
20
69.128
11
-19.502
21
68.672
62
0
0
LINE
8
1
10
-19.502
20
68.672
11
-19.658
21
68.411
62
0
0
LINE
8
1
10
-19.658
20
68.411
11
-19.78
21
68.152
62
0
0
LINE
8
1
10
-19.78
20
68.152
11
-19.88
21
67.873
62
0
0
LINE
8
1
10
-19.88
20
67.873
11
-19.952
21
67.587
62
0
0
LINE
8
1
10
-19.952
20
67.587
11
-19.995
21
67.295
62
0
0
LINE
8
1
10
-19.995
20
67.295
11
-19.995
21
2.704
62
0
0
LINE
8
1
10
-19.995
20
2.704
11
-19.952
21
2.412
62
0
0
LINE
8
1
10
-19.952
20
2.412
11
-19.88
21
2.126
62
0
0
LINE
8
1
10
-19.88
20
2.126
11
-19.78
21
1.847
62
0
0
LINE
8
1
10
-19.78
20
1.847
11
-19.503
21
1.328
62
0
0
LINE
8
1
10
-19.503
20
1.328
11
-19.321
21
1.083
62
0
0
LINE
8
1
10
-19.321
20
1.083
11
-19.128
21
0.871
62
0
0
LINE
8
1
10
-19.128
20
0.871
11
-18.672
21
0.497
62
0
0
LINE
8
1
10
-18.672
20
0.497
11
-18.411
21
0.341
62
0
0
LINE
8
1
10
-18.411
20
0.341
11
-18.152
21
0.219
62
0
0
LINE
8
1
10
-18.152
20
0.219
11
-17.873
21
0.119
62
0
0
LINE
8
1
10
-17.873
20
0.119
11
-17.587
21
0.047
62
0
0
LINE
8
1
10
-17.587
20
0.047
11
-17.295
21
0.004
62
0
0
LINE
8
1
10
-17.295
20
0.004
11
-17.289
21
0.004
62
0
0
LINE
8
1
10
-17.289
20
0.004
11
-17.288
21
0.003
62
0
0
LINE
8
1
10
-17.288
20
0.003
11
-2.705
21
0.004
62
0
0
CIRCLE
8
1
10
-15.999
20
64.999
40
2.01488
62
0
0
CIRCLE
8
1
10
-9.999
20
64.999
40
2.01488
62
0
0
CIRCLE
8
1
10
-3.999
20
64.999
40
2.01491
62
0
0
CIRCLE
8
1
10
-15.999
20
46.999
40
2.01489
62
0
0
CIRCLE
8
1
10
-9.999
20
46.999
40
2.01489
62
0
0
CIRCLE
8
1
10
-3.999
20
46.999
40
2.01493
62
0
0
CIRCLE
8
1
10
-15.999
20
22.999
40
2.01489
62
0
0
CIRCLE
8
1
10
-9.999
20
22.999
40
2.01489
62
0
0
CIRCLE
8
1
10
-3.999
20
22.999
40
2.01493
62
0
0
CIRCLE
8
1
10
-15.999
20
4.999
40
2.01489
62
0
0
CIRCLE
8
1
10
-9.999
20
4.999
40
2.01489
62
0
0
CIRCLE
8
1
10
-3.999
20
4.999
40
2.01493
62
0
0
CIRCLE
8
1
10
-3.999
20
64.999
40
2.71486
62
1
0
CIRCLE
8
1
10
-9.999
20
64.999
40
2.71486
62
1
0
CIRCLE
8
1
10
-15.999
20
64.999
40
2.71486
62
1
0
CIRCLE
8
1
10
-3.999
20
64.999
40
2.01491
62
1
0
CIRCLE
8
1
10
-9.999
20
64.999
40
2.01488
62
1
0
CIRCLE
8
1
10
-15.999
20
64.999
40
2.01488
62
1
0
CIRCLE
8
1
10
-3.999
20
46.999
40
2.71486
62
1
0
CIRCLE
8
1
10
-9.999
20
46.999
40
2.71486
62
1
0
CIRCLE
8
1
10
-15.999
20
46.999
40
2.71486
62
1
0
CIRCLE
8
1
10
-3.999
20
46.999
40
2.01493
62
1
0
CIRCLE
8
1
10
-9.999
20
46.999
40
2.01489
62
1
0
CIRCLE
8
1
10
-15.999
20
46.999
40
2.01489
62
1
0
CIRCLE
8
1
10
-3.999
20
22.999
40
2.71486
62
1
0
CIRCLE
8
1
10
-9.999
20
22.999
40
2.71486
62
1
0
CIRCLE
8
1
10
-15.999
20
22.999
40
2.71486
62
1
0
CIRCLE
8
1
10
-3.999
20
22.999
40
2.01493
62
1
0
CIRCLE
8
1
10
-9.999
20
22.999
40
2.01489
62
1
0
CIRCLE
8
1
10
-15.999
20
22.999
40
2.01489
62
1
0
CIRCLE
8
1
10
-3.999
20
4.999
40
2.71486
62
1
0
CIRCLE
8
1
10
-9.999
20
4.999
40
2.71486
62
1
0
CIRCLE
8
1
10
-15.999
20
4.999
40
2.71486
62
1
0
CIRCLE
8
1
10
-3.999
20
4.999
40
2.01493
62
1
0
CIRCLE
8
1
10
-9.999
20
4.999
40
2.01489
62
1
0
CIRCLE
8
1
10
-15.999
20
4.999
40
2.01489
62
1
0
ENDSEC
0
EOF
