999
DXF created from Projekt
0
SECTION
2
HEADER
9
$ACADVER
1
AC1006
9
$INSUNITS
70
4
9
$INSBASE
10
0.0
20
0.0
30
0.0
9
$EXTMIN
10
-22.01
20
-0.01
9
$EXTMAX
10
0.01
20
66.01
0
ENDSEC
0
SECTION
2
TABLES
0
TABLE
2
LTYPE
70
1
0
LTYPE
2
CONTINUOUS
70
64
3
Solid line
72
65
73
0
40
0.000000
0
ENDTAB
0
TABLE
2
LAYER
70
6
0
LAYER
2
1
70
64
62
7
6
CONTINUOUS
0
ENDTAB
0
TABLE
2
STYLE
70
0
0
ENDTAB
0
ENDSEC
0
SECTION
2
BLOCKS
0
ENDSEC
0
SECTION
2
ENTITIES
0
LINE
8
1
10
-2.722
20
0.002
11
-2.187
21
0.101
62
0
0
LINE
8
1
10
-2.187
20
0.101
11
-1.913
21
0.193
62
0
0
LINE
8
1
10
-1.913
20
0.193
11
-1.415
21
0.44
62
0
0
LINE
8
1
10
-1.415
20
0.44
11
-0.972
21
0.774
62
0
0
LINE
8
1
10
-0.972
20
0.774
11
-0.603
21
1.177
62
0
0
LINE
8
1
10
-0.603
20
1.177
11
-0.441
21
1.415
62
0
0
LINE
8
1
10
-0.441
20
1.415
11
-0.193
21
1.912
62
0
0
LINE
8
1
10
-0.193
20
1.912
11
-0.041
21
2.446
62
0
0
LINE
8
1
10
-0.041
20
2.446
11
0.01
21
2.999
62
0
0
LINE
8
1
10
0.01
20
2.999
11
-0.002
21
63.277
62
0
0
LINE
8
1
10
-0.002
20
63.277
11
-0.101
21
63.812
62
0
0
LINE
8
1
10
-0.101
20
63.812
11
-0.193
21
64.086
62
0
0
LINE
8
1
10
-0.193
20
64.086
11
-0.44
21
64.584
62
0
0
LINE
8
1
10
-0.44
20
64.584
11
-0.774
21
65.027
62
0
0
LINE
8
1
10
-0.774
20
65.027
11
-1.177
21
65.396
62
0
0
LINE
8
1
10
-1.177
20
65.396
11
-1.415
21
65.558
62
0
0
LINE
8
1
10
-1.415
20
65.558
11
-1.912
21
65.806
62
0
0
LINE
8
1
10
-1.912
20
65.806
11
-2.446
21
65.958
62
0
0
LINE
8
1
10
-2.446
20
65.958
11
-2.999
21
66.01
62
0
0
LINE
8
1
10
-2.999
20
66.01
11
-19.277
21
65.997
62
0
0
LINE
8
1
10
-19.277
20
65.997
11
-19.812
21
65.898
62
0
0
LINE
8
1
10
-19.812
20
65.898
11
-20.086
21
65.806
62
0
0
LINE
8
1
10
-20.086
20
65.806
11
-20.584
21
65.559
62
0
0
LINE
8
1
10
-20.584
20
65.559
11
-21.027
21
65.225
62
0
0
LINE
8
1
10
-21.027
20
65.225
11
-21.396
21
64.822
62
0
0
LINE
8
1
10
-21.396
20
64.822
11
-21.558
21
64.584
62
0
0
LINE
8
1
10
-21.558
20
64.584
11
-21.806
21
64.087
62
0
0
LINE
8
1
10
-21.806
20
64.087
11
-21.958
21
63.553
62
0
0
LINE
8
1
10
-21.958
20
63.553
11
-22.01
21
63.001
62
0
0
LINE
8
1
10
-22.01
20
63.001
11
-21.997
21
2.722
62
0
0
LINE
8
1
10
-21.997
20
2.722
11
-21.898
21
2.187
62
0
0
LINE
8
1
10
-21.898
20
2.187
11
-21.806
21
1.913
62
0
0
LINE
8
1
10
-21.806
20
1.913
11
-21.559
21
1.415
62
0
0
LINE
8
1
10
-21.559
20
1.415
11
-21.225
21
0.972
62
0
0
LINE
8
1
10
-21.225
20
0.972
11
-20.822
21
0.603
62
0
0
LINE
8
1
10
-20.822
20
0.603
11
-20.584
21
0.441
62
0
0
LINE
8
1
10
-20.584
20
0.441
11
-20.087
21
0.193
62
0
0
LINE
8
1
10
-20.087
20
0.193
11
-19.553
21
0.041
62
0
0
LINE
8
1
10
-19.553
20
0.041
11
-19.014
21
-0.009
62
0
0
LINE
8
1
10
-19.014
20
-0.009
11
-19.013
21
-0.01
62
0
0
LINE
8
1
10
-19.013
20
-0.01
11
-2.722
21
0.002
62
0
0
CIRCLE
8
1
10
-16.999
20
60.999
40
2.01477
62
0
0
CIRCLE
8
1
10
-10.999
20
60.999
40
2.01477
62
0
0
CIRCLE
8
1
10
-4.999
20
60.999
40
2.01481
62
0
0
CIRCLE
8
1
10
-16.999
20
42.999
40
2.01477
62
0
0
CIRCLE
8
1
10
-10.999
20
42.999
40
2.01477
62
0
0
CIRCLE
8
1
10
-4.999
20
42.999
40
2.01481
62
0
0
CIRCLE
8
1
10
-16.999
20
22.999
40
2.01477
62
0
0
CIRCLE
8
1
10
-10.999
20
22.999
40
2.01477
62
0
0
CIRCLE
8
1
10
-4.999
20
22.999
40
2.01481
62
0
0
CIRCLE
8
1
10
-16.999
20
4.999
40
2.01477
62
0
0
CIRCLE
8
1
10
-10.999
20
4.999
40
2.01477
62
0
0
CIRCLE
8
1
10
-4.999
20
4.999
40
2.01481
62
0
0
CIRCLE
8
1
10
-4.999
20
60.999
40
2.71493
62
1
0
CIRCLE
8
1
10
-10.999
20
60.999
40
2.71493
62
1
0
CIRCLE
8
1
10
-16.999
20
60.999
40
2.71493
62
1
0
CIRCLE
8
1
10
-4.999
20
60.999
40
2.01481
62
1
0
CIRCLE
8
1
10
-10.999
20
60.999
40
2.01477
62
1
0
CIRCLE
8
1
10
-16.999
20
60.999
40
2.01477
62
1
0
CIRCLE
8
1
10
-4.999
20
42.999
40
2.71493
62
1
0
CIRCLE
8
1
10
-10.999
20
42.999
40
2.71493
62
1
0
CIRCLE
8
1
10
-16.999
20
42.999
40
2.71493
62
1
0
CIRCLE
8
1
10
-4.999
20
42.999
40
2.01481
62
1
0
CIRCLE
8
1
10
-10.999
20
42.999
40
2.01477
62
1
0
CIRCLE
8
1
10
-16.999
20
42.999
40
2.01477
62
1
0
CIRCLE
8
1
10
-4.999
20
22.999
40
2.71493
62
1
0
CIRCLE
8
1
10
-10.999
20
22.999
40
2.71493
62
1
0
CIRCLE
8
1
10
-16.999
20
22.999
40
2.71493
62
1
0
CIRCLE
8
1
10
-4.999
20
22.999
40
2.01481
62
1
0
CIRCLE
8
1
10
-10.999
20
22.999
40
2.01477
62
1
0
CIRCLE
8
1
10
-16.999
20
22.999
40
2.01477
62
1
0
CIRCLE
8
1
10
-4.999
20
4.999
40
2.71493
62
1
0
CIRCLE
8
1
10
-10.999
20
4.999
40
2.71493
62
1
0
CIRCLE
8
1
10
-16.999
20
4.999
40
2.71493
62
1
0
CIRCLE
8
1
10
-4.999
20
4.999
40
2.01481
62
1
0
CIRCLE
8
1
10
-10.999
20
4.999
40
2.01477
62
1
0
CIRCLE
8
1
10
-16.999
20
4.999
40
2.01477
62
1
0
ENDSEC
0
EOF
