999
DXF created from Projekt
0
SECTION
2
HEADER
9
$ACADVER
1
AC1006
9
$INSUNITS
70
4
9
$INSBASE
10
0.0
20
0.0
30
0.0
9
$EXTMIN
10
-10.01
20
-0.01
9
$EXTMAX
10
0.01
20
22.01
0
ENDSEC
0
SECTION
2
TABLES
0
TABLE
2
LTYPE
70
1
0
LTYPE
2
CONTINUOUS
70
64
3
Solid line
72
65
73
0
40
0.000000
0
ENDTAB
0
TABLE
2
LAYER
70
6
0
LAYER
2
1
70
64
62
7
6
CONTINUOUS
0
ENDTAB
0
TABLE
2
STYLE
70
0
0
ENDTAB
0
ENDSEC
0
SECTION
2
BLOCKS
0
ENDSEC
0
SECTION
2
ENTITIES
0
LINE
8
1
10
-1.867
20
-0.007
11
-1.462
21
0.062
62
0
0
LINE
8
1
10
-1.462
20
0.062
11
-1.075
21
0.215
62
0
0
LINE
8
1
10
-1.075
20
0.215
11
-0.845
21
0.355
62
0
0
LINE
8
1
10
-0.845
20
0.355
11
-0.631
21
0.526
62
0
0
LINE
8
1
10
-0.631
20
0.526
11
-0.44
21
0.73
62
0
0
LINE
8
1
10
-0.44
20
0.73
11
-0.283
21
0.955
62
0
0
LINE
8
1
10
-0.283
20
0.955
11
-0.158
21
1.194
62
0
0
LINE
8
1
10
-0.158
20
1.194
11
-0.064
21
1.457
62
0
0
LINE
8
1
10
-0.064
20
1.457
11
-0.033
21
1.586
62
0
0
LINE
8
1
10
-0.033
20
1.586
11
-0.031
21
1.59
62
0
0
LINE
8
1
10
-0.031
20
1.59
11
0.006
21
1.862
62
0
0
LINE
8
1
10
0.006
20
1.862
11
0.009
21
1.995
62
0
0
LINE
8
1
10
0.009
20
1.995
11
0.01
21
1.999
62
0
0
LINE
8
1
10
0.01
20
1.999
11
0.007
21
20.132
62
0
0
LINE
8
1
10
0.007
20
20.132
11
-0.062
21
20.537
62
0
0
LINE
8
1
10
-0.062
20
20.537
11
-0.215
21
20.924
62
0
0
LINE
8
1
10
-0.215
20
20.924
11
-0.355
21
21.154
62
0
0
LINE
8
1
10
-0.355
20
21.154
11
-0.526
21
21.368
62
0
0
LINE
8
1
10
-0.526
20
21.368
11
-0.73
21
21.559
62
0
0
LINE
8
1
10
-0.73
20
21.559
11
-0.955
21
21.716
62
0
0
LINE
8
1
10
-0.955
20
21.716
11
-1.194
21
21.841
62
0
0
LINE
8
1
10
-1.194
20
21.841
11
-1.457
21
21.935
62
0
0
LINE
8
1
10
-1.457
20
21.935
11
-1.586
21
21.966
62
0
0
LINE
8
1
10
-1.586
20
21.966
11
-1.59
21
21.968
62
0
0
LINE
8
1
10
-1.59
20
21.968
11
-1.862
21
22.005
62
0
0
LINE
8
1
10
-1.862
20
22.005
11
-1.993
21
22.009
62
0
0
LINE
8
1
10
-1.993
20
22.009
11
-1.999
21
22.01
62
0
0
LINE
8
1
10
-1.999
20
22.01
11
-8.132
21
22.006
62
0
0
LINE
8
1
10
-8.132
20
22.006
11
-8.537
21
21.937
62
0
0
LINE
8
1
10
-8.537
20
21.937
11
-8.924
21
21.784
62
0
0
LINE
8
1
10
-8.924
20
21.784
11
-9.154
21
21.644
62
0
0
LINE
8
1
10
-9.154
20
21.644
11
-9.368
21
21.473
62
0
0
LINE
8
1
10
-9.368
20
21.473
11
-9.559
21
21.269
62
0
0
LINE
8
1
10
-9.559
20
21.269
11
-9.716
21
21.044
62
0
0
LINE
8
1
10
-9.716
20
21.044
11
-9.841
21
20.805
62
0
0
LINE
8
1
10
-9.841
20
20.805
11
-9.935
21
20.542
62
0
0
LINE
8
1
10
-9.935
20
20.542
11
-9.966
21
20.413
62
0
0
LINE
8
1
10
-9.966
20
20.413
11
-9.968
21
20.409
62
0
0
LINE
8
1
10
-9.968
20
20.409
11
-10.005
21
20.137
62
0
0
LINE
8
1
10
-10.005
20
20.137
11
-10.009
21
20.009
62
0
0
LINE
8
1
10
-10.009
20
20.009
11
-10.01
21
20.008
62
0
0
LINE
8
1
10
-10.01
20
20.008
11
-10.006
21
1.867
62
0
0
LINE
8
1
10
-10.006
20
1.867
11
-9.937
21
1.462
62
0
0
LINE
8
1
10
-9.937
20
1.462
11
-9.784
21
1.075
62
0
0
LINE
8
1
10
-9.784
20
1.075
11
-9.644
21
0.845
62
0
0
LINE
8
1
10
-9.644
20
0.845
11
-9.473
21
0.631
62
0
0
LINE
8
1
10
-9.473
20
0.631
11
-9.269
21
0.44
62
0
0
LINE
8
1
10
-9.269
20
0.44
11
-9.044
21
0.283
62
0
0
LINE
8
1
10
-9.044
20
0.283
11
-8.805
21
0.158
62
0
0
LINE
8
1
10
-8.805
20
0.158
11
-8.542
21
0.064
62
0
0
LINE
8
1
10
-8.542
20
0.064
11
-8.413
21
0.033
62
0
0
LINE
8
1
10
-8.413
20
0.033
11
-8.409
21
0.031
62
0
0
LINE
8
1
10
-8.409
20
0.031
11
-8.137
21
-0.006
62
0
0
LINE
8
1
10
-8.137
20
-0.006
11
-8.007
21
-0.009
62
0
0
LINE
8
1
10
-8.007
20
-0.009
11
-8.001
21
-0.01
62
0
0
LINE
8
1
10
-8.001
20
-0.01
11
-1.867
21
-0.007
62
0
0
CIRCLE
8
1
10
-4.999
20
16.999
40
2.03999
62
0
0
CIRCLE
8
1
10
-4.999
20
10.999
40
2.04003
62
0
0
CIRCLE
8
1
10
-4.999
20
4.999
40
2.03999
62
0
0
ENDSEC
0
EOF
