999
DXF created from Projekt
0
SECTION
2
HEADER
9
$ACADVER
1
AC1006
9
$INSUNITS
70
4
9
$INSBASE
10
0.0
20
0.0
30
0.0
9
$EXTMIN
10
-11.51
20
-28.861
9
$EXTMAX
10
11.51
20
64.861
0
ENDSEC
0
SECTION
2
TABLES
0
TABLE
2
LTYPE
70
1
0
LTYPE
2
CONTINUOUS
70
64
3
Solid line
72
65
73
0
40
0.000000
0
ENDTAB
0
TABLE
2
LAYER
70
6
0
LAYER
2
1
70
64
62
7
6
CONTINUOUS
0
ENDTAB
0
TABLE
2
STYLE
70
0
0
ENDTAB
0
ENDSEC
0
SECTION
2
BLOCKS
0
ENDSEC
0
SECTION
2
ENTITIES
0
LINE
8
1
10
1.637
20
-28.749
11
2.925
21
-28.488
62
0
0
LINE
8
1
10
2.925
20
-28.488
11
4.175
21
-28.082
62
0
0
LINE
8
1
10
4.175
20
-28.082
11
5.37
21
-27.536
62
0
0
LINE
8
1
10
5.37
20
-27.536
11
6.496
21
-26.857
62
0
0
LINE
8
1
10
6.496
20
-26.857
11
7.536
21
-26.055
62
0
0
LINE
8
1
10
7.536
20
-26.055
11
8.479
21
-25.139
62
0
0
LINE
8
1
10
8.479
20
-25.139
11
9.311
21
-24.122
62
0
0
LINE
8
1
10
9.311
20
-24.122
11
10.022
21
-23.016
62
0
0
LINE
8
1
10
10.022
20
-23.016
11
10.601
21
-21.837
62
0
0
LINE
8
1
10
10.601
20
-21.837
11
11.044
21
-20.599
62
0
0
LINE
8
1
10
11.044
20
-20.599
11
11.341
21
-19.319
62
0
0
LINE
8
1
10
11.341
20
-19.319
11
11.491
21
-18.014
62
0
0
LINE
8
1
10
11.491
20
-18.014
11
11.507
21
-1.6
62
0
0
LINE
8
1
10
11.507
20
-1.6
11
11.506
21
-1.594
62
0
0
LINE
8
1
10
11.506
20
-1.594
11
11.495
21
-1.475
62
0
0
LINE
8
1
10
11.495
20
-1.475
11
11.477
21
-1.355
62
0
0
LINE
8
1
10
11.477
20
-1.355
11
11.477
21
-1.352
62
0
0
LINE
8
1
10
11.477
20
-1.352
11
11.452
21
-1.239
62
0
0
LINE
8
1
10
11.452
20
-1.239
11
11.384
21
-1.018
62
0
0
LINE
8
1
10
11.384
20
-1.018
11
11.382
21
-1.014
62
0
0
LINE
8
1
10
11.382
20
-1.014
11
10.887
21
0.274
62
0
0
LINE
8
1
10
10.887
20
0.274
11
10.772
21
0.473
62
0
0
LINE
8
1
10
10.772
20
0.473
11
10.635
21
0.655
62
0
0
LINE
8
1
10
10.635
20
0.655
11
10.478
21
0.821
62
0
0
LINE
8
1
10
10.478
20
0.821
11
10.103
21
1.142
62
0
0
LINE
8
1
10
10.103
20
1.142
11
9.928
21
1.338
62
0
0
LINE
8
1
10
9.928
20
1.338
11
9.781
21
1.556
62
0
0
LINE
8
1
10
9.781
20
1.556
11
9.664
21
1.79
62
0
0
LINE
8
1
10
9.664
20
1.79
11
9.578
21
2.039
62
0
0
LINE
8
1
10
9.578
20
2.039
11
9.579
21
2.039
62
0
0
LINE
8
1
10
9.579
20
2.039
11
9.527
21
2.298
62
0
0
LINE
8
1
10
9.527
20
2.298
11
9.51
21
2.598
62
0
0
LINE
8
1
10
9.51
20
2.598
11
9.524
21
2.827
62
0
0
LINE
8
1
10
9.524
20
2.827
11
9.567
21
3.062
62
0
0
LINE
8
1
10
9.567
20
3.062
11
9.638
21
3.291
62
0
0
LINE
8
1
10
9.638
20
3.291
11
9.735
21
3.508
62
0
0
LINE
8
1
10
9.735
20
3.508
11
9.857
21
3.713
62
0
0
LINE
8
1
10
9.857
20
3.713
11
10.003
21
3.901
62
0
0
LINE
8
1
10
10.003
20
3.901
11
10.402
21
4.315
62
0
0
LINE
8
1
10
10.402
20
4.315
11
10.525
21
4.487
62
0
0
LINE
8
1
10
10.525
20
4.487
11
10.629
21
4.672
62
0
0
LINE
8
1
10
10.629
20
4.672
11
11.418
21
6.764
62
0
0
LINE
8
1
10
11.418
20
6.764
11
11.42
21
6.768
62
0
0
LINE
8
1
10
11.42
20
6.768
11
11.452
21
6.883
62
0
0
LINE
8
1
10
11.452
20
6.883
11
11.452
21
6.888
62
0
0
LINE
8
1
10
11.452
20
6.888
11
11.495
21
7.118
62
0
0
LINE
8
1
10
11.495
20
7.118
11
11.509
21
7.356
62
0
0
LINE
8
1
10
11.509
20
7.356
11
11.51
21
7.36
62
0
0
LINE
8
1
10
11.51
20
7.36
11
11.507
21
28.755
62
0
0
LINE
8
1
10
11.507
20
28.755
11
11.506
21
28.761
62
0
0
LINE
8
1
10
11.506
20
28.761
11
11.495
21
28.881
62
0
0
LINE
8
1
10
11.495
20
28.881
11
11.477
21
29.001
62
0
0
LINE
8
1
10
11.477
20
29.001
11
11.477
21
29.004
62
0
0
LINE
8
1
10
11.477
20
29.004
11
11.452
21
29.117
62
0
0
LINE
8
1
10
11.452
20
29.117
11
11.384
21
29.338
62
0
0
LINE
8
1
10
11.384
20
29.338
11
11.382
21
29.342
62
0
0
LINE
8
1
10
11.382
20
29.342
11
10.629
21
31.327
62
0
0
LINE
8
1
10
10.629
20
31.327
11
10.525
21
31.512
62
0
0
LINE
8
1
10
10.525
20
31.512
11
10.402
21
31.684
62
0
0
LINE
8
1
10
10.402
20
31.684
11
10.003
21
32.098
62
0
0
LINE
8
1
10
10.003
20
32.098
11
9.857
21
32.286
62
0
0
LINE
8
1
10
9.857
20
32.286
11
9.735
21
32.491
62
0
0
LINE
8
1
10
9.735
20
32.491
11
9.638
21
32.708
62
0
0
LINE
8
1
10
9.638
20
32.708
11
9.567
21
32.937
62
0
0
LINE
8
1
10
9.567
20
32.937
11
9.524
21
33.172
62
0
0
LINE
8
1
10
9.524
20
33.172
11
9.526
21
33.694
62
0
0
LINE
8
1
10
9.526
20
33.694
11
9.577
21
33.951
62
0
0
LINE
8
1
10
9.577
20
33.951
11
9.579
21
33.96
62
0
0
LINE
8
1
10
9.579
20
33.96
11
9.578
21
33.96
62
0
0
LINE
8
1
10
9.578
20
33.96
11
9.664
21
34.209
62
0
0
LINE
8
1
10
9.664
20
34.209
11
9.781
21
34.443
62
0
0
LINE
8
1
10
9.781
20
34.443
11
9.928
21
34.661
62
0
0
LINE
8
1
10
9.928
20
34.661
11
10.104
21
34.858
62
0
0
LINE
8
1
10
10.104
20
34.858
11
10.104
21
34.857
62
0
0
LINE
8
1
10
10.104
20
34.857
11
10.478
21
35.178
62
0
0
LINE
8
1
10
10.478
20
35.178
11
10.635
21
35.344
62
0
0
LINE
8
1
10
10.635
20
35.344
11
10.772
21
35.526
62
0
0
LINE
8
1
10
10.772
20
35.526
11
10.887
21
35.725
62
0
0
LINE
8
1
10
10.887
20
35.725
11
11.51
21
37.354
62
0
0
LINE
8
1
10
11.51
20
37.354
11
11.435
21
54.668
62
0
0
LINE
8
1
10
11.435
20
54.668
11
11.211
21
55.963
62
0
0
LINE
8
1
10
11.211
20
55.963
11
10.841
21
57.224
62
0
0
LINE
8
1
10
10.841
20
57.224
11
10.329
21
58.434
62
0
0
LINE
8
1
10
10.329
20
58.434
11
9.683
21
59.579
62
0
0
LINE
8
1
10
9.683
20
59.579
11
8.91
21
60.642
62
0
0
LINE
8
1
10
8.91
20
60.642
11
8.021
21
61.61
62
0
0
LINE
8
1
10
8.021
20
61.61
11
7.028
21
62.471
62
0
0
LINE
8
1
10
7.028
20
62.471
11
5.943
21
63.212
62
0
0
LINE
8
1
10
5.943
20
63.212
11
4.781
21
63.826
62
0
0
LINE
8
1
10
4.781
20
63.826
11
3.556
21
64.302
62
0
0
LINE
8
1
10
3.556
20
64.302
11
2.285
21
64.637
62
0
0
LINE
8
1
10
2.285
20
64.637
11
0.985
21
64.824
62
0
0
LINE
8
1
10
0.985
20
64.824
11
-0.328
21
64.861
62
0
0
LINE
8
1
10
-0.328
20
64.861
11
-1.637
21
64.749
62
0
0
LINE
8
1
10
-1.637
20
64.749
11
-2.925
21
64.488
62
0
0
LINE
8
1
10
-2.925
20
64.488
11
-4.175
21
64.082
62
0
0
LINE
8
1
10
-4.175
20
64.082
11
-5.37
21
63.536
62
0
0
LINE
8
1
10
-5.37
20
63.536
11
-6.496
21
62.857
62
0
0
LINE
8
1
10
-6.496
20
62.857
11
-7.536
21
62.055
62
0
0
LINE
8
1
10
-7.536
20
62.055
11
-8.479
21
61.139
62
0
0
LINE
8
1
10
-8.479
20
61.139
11
-9.311
21
60.122
62
0
0
LINE
8
1
10
-9.311
20
60.122
11
-10.022
21
59.016
62
0
0
LINE
8
1
10
-10.022
20
59.016
11
-10.601
21
57.837
62
0
0
LINE
8
1
10
-10.601
20
57.837
11
-11.044
21
56.599
62
0
0
LINE
8
1
10
-11.044
20
56.599
11
-11.341
21
55.319
62
0
0
LINE
8
1
10
-11.341
20
55.319
11
-11.491
21
54.014
62
0
0
LINE
8
1
10
-11.491
20
54.014
11
-11.51
21
37.354
62
0
0
LINE
8
1
10
-11.51
20
37.354
11
-10.629
21
35.028
62
0
0
LINE
8
1
10
-10.629
20
35.028
11
-10.525
21
34.844
62
0
0
LINE
8
1
10
-10.525
20
34.844
11
-10.402
21
34.672
62
0
0
LINE
8
1
10
-10.402
20
34.672
11
-10.003
21
34.258
62
0
0
LINE
8
1
10
-10.003
20
34.258
11
-9.857
21
34.069
62
0
0
LINE
8
1
10
-9.857
20
34.069
11
-9.735
21
33.865
62
0
0
LINE
8
1
10
-9.735
20
33.865
11
-9.638
21
33.647
62
0
0
LINE
8
1
10
-9.638
20
33.647
11
-9.567
21
33.418
62
0
0
LINE
8
1
10
-9.567
20
33.418
11
-9.524
21
33.183
62
0
0
LINE
8
1
10
-9.524
20
33.183
11
-9.526
21
32.661
62
0
0
LINE
8
1
10
-9.526
20
32.661
11
-9.577
21
32.403
62
0
0
LINE
8
1
10
-9.577
20
32.403
11
-9.579
21
32.395
62
0
0
LINE
8
1
10
-9.579
20
32.395
11
-9.578
21
32.395
62
0
0
LINE
8
1
10
-9.578
20
32.395
11
-9.664
21
32.147
62
0
0
LINE
8
1
10
-9.664
20
32.147
11
-9.782
21
31.911
62
0
0
LINE
8
1
10
-9.782
20
31.911
11
-9.929
21
31.694
62
0
0
LINE
8
1
10
-9.929
20
31.694
11
-10.104
21
31.497
62
0
0
LINE
8
1
10
-10.104
20
31.497
11
-10.104
21
31.498
62
0
0
LINE
8
1
10
-10.104
20
31.498
11
-10.478
21
31.178
62
0
0
LINE
8
1
10
-10.478
20
31.178
11
-10.635
21
31.011
62
0
0
LINE
8
1
10
-10.635
20
31.011
11
-10.772
21
30.829
62
0
0
LINE
8
1
10
-10.772
20
30.829
11
-10.887
21
30.632
62
0
0
LINE
8
1
10
-10.887
20
30.632
11
-11.421
21
29.227
62
0
0
LINE
8
1
10
-11.421
20
29.227
11
-11.452
21
29.115
62
0
0
LINE
8
1
10
-11.452
20
29.115
11
-11.452
21
29.111
62
0
0
LINE
8
1
10
-11.452
20
29.111
11
-11.495
21
28.881
62
0
0
LINE
8
1
10
-11.495
20
28.881
11
-11.509
21
28.643
62
0
0
LINE
8
1
10
-11.509
20
28.643
11
-11.51
21
28.639
62
0
0
LINE
8
1
10
-11.51
20
28.639
11
-11.507
21
7.244
62
0
0
LINE
8
1
10
-11.507
20
7.244
11
-11.506
21
7.238
62
0
0
LINE
8
1
10
-11.506
20
7.238
11
-11.495
21
7.118
62
0
0
LINE
8
1
10
-11.495
20
7.118
11
-11.477
21
6.999
62
0
0
LINE
8
1
10
-11.477
20
6.999
11
-11.477
21
6.996
62
0
0
LINE
8
1
10
-11.477
20
6.996
11
-11.452
21
6.882
62
0
0
LINE
8
1
10
-11.452
20
6.882
11
-11.384
21
6.661
62
0
0
LINE
8
1
10
-11.384
20
6.661
11
-11.382
21
6.657
62
0
0
LINE
8
1
10
-11.382
20
6.657
11
-10.887
21
5.368
62
0
0
LINE
8
1
10
-10.887
20
5.368
11
-10.772
21
5.17
62
0
0
LINE
8
1
10
-10.772
20
5.17
11
-10.635
21
4.988
62
0
0
LINE
8
1
10
-10.635
20
4.988
11
-10.478
21
4.821
62
0
0
LINE
8
1
10
-10.478
20
4.821
11
-10.103
21
4.501
62
0
0
LINE
8
1
10
-10.103
20
4.501
11
-9.928
21
4.304
62
0
0
LINE
8
1
10
-9.928
20
4.304
11
-9.781
21
4.086
62
0
0
LINE
8
1
10
-9.781
20
4.086
11
-9.664
21
3.852
62
0
0
LINE
8
1
10
-9.664
20
3.852
11
-9.578
21
3.604
62
0
0
LINE
8
1
10
-9.578
20
3.604
11
-9.579
21
3.604
62
0
0
LINE
8
1
10
-9.579
20
3.604
11
-9.527
21
3.345
62
0
0
LINE
8
1
10
-9.527
20
3.345
11
-9.51
21
3.044
62
0
0
LINE
8
1
10
-9.51
20
3.044
11
-9.524
21
2.815
62
0
0
LINE
8
1
10
-9.524
20
2.815
11
-9.567
21
2.58
62
0
0
LINE
8
1
10
-9.567
20
2.58
11
-9.638
21
2.352
62
0
0
LINE
8
1
10
-9.638
20
2.352
11
-9.735
21
2.134
62
0
0
LINE
8
1
10
-9.735
20
2.134
11
-9.858
21
1.929
62
0
0
LINE
8
1
10
-9.858
20
1.929
11
-10.004
21
1.74
62
0
0
LINE
8
1
10
-10.004
20
1.74
11
-10.402
21
1.327
62
0
0
LINE
8
1
10
-10.402
20
1.327
11
-10.525
21
1.155
62
0
0
LINE
8
1
10
-10.525
20
1.155
11
-10.629
21
0.971
62
0
0
LINE
8
1
10
-10.629
20
0.971
11
-11.418
21
-1.121
62
0
0
LINE
8
1
10
-11.418
20
-1.121
11
-11.42
21
-1.125
62
0
0
LINE
8
1
10
-11.42
20
-1.125
11
-11.452
21
-1.24
62
0
0
LINE
8
1
10
-11.452
20
-1.24
11
-11.452
21
-1.245
62
0
0
LINE
8
1
10
-11.452
20
-1.245
11
-11.495
21
-1.475
62
0
0
LINE
8
1
10
-11.495
20
-1.475
11
-11.509
21
-1.712
62
0
0
LINE
8
1
10
-11.509
20
-1.712
11
-11.51
21
-1.716
62
0
0
LINE
8
1
10
-11.51
20
-1.716
11
-11.435
21
-18.668
62
0
0
LINE
8
1
10
-11.435
20
-18.668
11
-11.211
21
-19.963
62
0
0
LINE
8
1
10
-11.211
20
-19.963
11
-10.841
21
-21.224
62
0
0
LINE
8
1
10
-10.841
20
-21.224
11
-10.329
21
-22.434
62
0
0
LINE
8
1
10
-10.329
20
-22.434
11
-9.683
21
-23.579
62
0
0
LINE
8
1
10
-9.683
20
-23.579
11
-8.91
21
-24.642
62
0
0
LINE
8
1
10
-8.91
20
-24.642
11
-8.021
21
-25.61
62
0
0
LINE
8
1
10
-8.021
20
-25.61
11
-7.028
21
-26.471
62
0
0
LINE
8
1
10
-7.028
20
-26.471
11
-5.943
21
-27.212
62
0
0
LINE
8
1
10
-5.943
20
-27.212
11
-4.781
21
-27.826
62
0
0
LINE
8
1
10
-4.781
20
-27.826
11
-3.556
21
-28.302
62
0
0
LINE
8
1
10
-3.556
20
-28.302
11
-2.285
21
-28.637
62
0
0
LINE
8
1
10
-2.285
20
-28.637
11
-0.985
21
-28.824
62
0
0
LINE
8
1
10
-0.985
20
-28.824
11
0.328
21
-28.861
62
0
0
LINE
8
1
10
0.328
20
-28.861
11
1.637
21
-28.749
62
0
0
CIRCLE
8
1
10
0
20
59.356
40
2.01455
62
0
0
CIRCLE
8
1
10
-5.999
20
53.356
40
2.01486
62
0
0
CIRCLE
8
1
10
0
20
53.356
40
2.01455
62
0
0
CIRCLE
8
1
10
5.999
20
53.356
40
2.01486
62
0
0
CIRCLE
8
1
10
0
20
47.356
40
2.01455
62
0
0
CIRCLE
8
1
10
5
20
22.999
40
1.48989
62
0
0
CIRCLE
8
1
10
-4.998
20
22.999
40
1.48978
62
0
0
CIRCLE
8
1
10
5
20
12.999
40
1.48989
62
0
0
CIRCLE
8
1
10
-4.998
20
12.999
40
1.48978
62
0
0
CIRCLE
8
1
10
0
20
-11.356
40
2.01455
62
0
0
CIRCLE
8
1
10
5.999
20
-17.356
40
2.01486
62
0
0
CIRCLE
8
1
10
0
20
-17.356
40
2.01455
62
0
0
CIRCLE
8
1
10
-5.999
20
-17.356
40
2.01486
62
0
0
CIRCLE
8
1
10
0
20
-23.356
40
2.01455
62
0
0
CIRCLE
8
1
10
0
20
59.356
40
2.71459
62
1
0
CIRCLE
8
1
10
0
20
59.356
40
2.01455
62
1
0
CIRCLE
8
1
10
-5.999
20
53.356
40
2.71492
62
1
0
CIRCLE
8
1
10
0
20
53.356
40
2.71459
62
1
0
CIRCLE
8
1
10
5.999
20
53.356
40
2.71491
62
1
0
CIRCLE
8
1
10
5.999
20
53.356
40
2.01486
62
1
0
CIRCLE
8
1
10
0
20
53.356
40
2.01455
62
1
0
CIRCLE
8
1
10
-5.999
20
53.356
40
2.01486
62
1
0
CIRCLE
8
1
10
0
20
47.356
40
2.71459
62
1
0
CIRCLE
8
1
10
0
20
47.356
40
2.01455
62
1
0
CIRCLE
8
1
10
0
20
-11.356
40
2.71457
62
1
0
CIRCLE
8
1
10
0
20
-11.356
40
2.01455
62
1
0
CIRCLE
8
1
10
5.999
20
-17.356
40
2.7149
62
1
0
CIRCLE
8
1
10
0
20
-17.356
40
2.71457
62
1
0
CIRCLE
8
1
10
-5.999
20
-17.356
40
2.71489
62
1
0
CIRCLE
8
1
10
-5.999
20
-17.356
40
2.01486
62
1
0
CIRCLE
8
1
10
0
20
-17.356
40
2.01455
62
1
0
CIRCLE
8
1
10
5.999
20
-17.356
40
2.01486
62
1
0
CIRCLE
8
1
10
0
20
-23.356
40
2.71457
62
1
0
CIRCLE
8
1
10
0
20
-23.356
40
2.01455
62
1
0
ENDSEC
0
EOF
