999
DXF created from Projekt
0
SECTION
2
HEADER
9
$ACADVER
1
AC1006
9
$INSUNITS
70
4
9
$INSBASE
10
0.0
20
0.0
30
0.0
9
$EXTMIN
10
-198.509
20
-135.01
9
$EXTMAX
10
198.428
20
134.995
0
ENDSEC
0
SECTION
2
TABLES
0
TABLE
2
LTYPE
70
1
0
LTYPE
2
CONTINUOUS
70
64
3
Solid line
72
65
73
0
40
0.000000
0
ENDTAB
0
TABLE
2
LAYER
70
6
0
LAYER
2
1
70
64
62
7
6
CONTINUOUS
0
ENDTAB
0
TABLE
2
STYLE
70
0
0
ENDTAB
0
ENDSEC
0
SECTION
2
BLOCKS
0
ENDSEC
0
SECTION
2
ENTITIES
0
LINE
8
1
10
-130.912
20
115.047
11
-130.598
21
115.128
62
0
0
LINE
8
1
10
-130.598
20
115.128
11
-130.081
21
115.345
62
0
0
LINE
8
1
10
-130.081
20
115.345
11
-129.59
21
115.672
62
0
0
LINE
8
1
10
-129.59
20
115.672
11
-129.173
21
116.089
62
0
0
LINE
8
1
10
-129.173
20
116.089
11
-128.844
21
116.58
62
0
0
LINE
8
1
10
-128.844
20
116.58
11
-128.718
21
116.847
62
0
0
LINE
8
1
10
-128.718
20
116.847
11
-128.547
21
117.412
62
0
0
LINE
8
1
10
-128.547
20
117.412
11
-128.503
21
117.704
62
0
0
LINE
8
1
10
-128.503
20
117.704
11
-128.502
21
117.73
62
0
0
LINE
8
1
10
-128.502
20
117.73
11
-128.501
21
117.731
62
0
0
LINE
8
1
10
-128.501
20
117.731
11
-128.503
21
132.294
62
0
0
LINE
8
1
10
-128.503
20
132.294
11
-128.547
21
132.587
62
0
0
LINE
8
1
10
-128.547
20
132.587
11
-128.718
21
133.151
62
0
0
LINE
8
1
10
-128.718
20
133.151
11
-128.844
21
133.419
62
0
0
LINE
8
1
10
-128.844
20
133.419
11
-129.172
21
133.909
62
0
0
LINE
8
1
10
-129.172
20
133.909
11
-129.589
21
134.326
62
0
0
LINE
8
1
10
-129.589
20
134.326
11
-130.08
21
134.654
62
0
0
LINE
8
1
10
-130.08
20
134.654
11
-130.347
21
134.78
62
0
0
LINE
8
1
10
-130.347
20
134.78
11
-130.912
21
134.952
62
0
0
LINE
8
1
10
-130.912
20
134.952
11
-131.204
21
134.995
62
0
0
LINE
8
1
10
-131.204
20
134.995
11
-195.794
21
134.995
62
0
0
LINE
8
1
10
-195.794
20
134.995
11
-196.086
21
134.952
62
0
0
LINE
8
1
10
-196.086
20
134.952
11
-196.4
21
134.871
62
0
0
LINE
8
1
10
-196.4
20
134.871
11
-196.917
21
134.654
62
0
0
LINE
8
1
10
-196.917
20
134.654
11
-197.408
21
134.327
62
0
0
LINE
8
1
10
-197.408
20
134.327
11
-197.825
21
133.91
62
0
0
LINE
8
1
10
-197.825
20
133.91
11
-198.154
21
133.419
62
0
0
LINE
8
1
10
-198.154
20
133.419
11
-198.28
21
133.152
62
0
0
LINE
8
1
10
-198.28
20
133.152
11
-198.451
21
132.587
62
0
0
LINE
8
1
10
-198.451
20
132.587
11
-198.495
21
132.295
62
0
0
LINE
8
1
10
-198.495
20
132.295
11
-198.495
21
117.704
62
0
0
LINE
8
1
10
-198.495
20
117.704
11
-198.451
21
117.412
62
0
0
LINE
8
1
10
-198.451
20
117.412
11
-198.28
21
116.848
62
0
0
LINE
8
1
10
-198.28
20
116.848
11
-198.154
21
116.58
62
0
0
LINE
8
1
10
-198.154
20
116.58
11
-197.826
21
116.09
62
0
0
LINE
8
1
10
-197.826
20
116.09
11
-197.409
21
115.673
62
0
0
LINE
8
1
10
-197.409
20
115.673
11
-196.918
21
115.345
62
0
0
LINE
8
1
10
-196.918
20
115.345
11
-196.651
21
115.219
62
0
0
LINE
8
1
10
-196.651
20
115.219
11
-196.086
21
115.047
62
0
0
LINE
8
1
10
-196.086
20
115.047
11
-195.794
21
115.004
62
0
0
LINE
8
1
10
-195.794
20
115.004
11
-131.204
21
115.004
62
0
0
LINE
8
1
10
-131.204
20
115.004
11
-130.912
21
115.047
62
0
0
CIRCLE
8
1
10
-133.498
20
130.999
40
2.01475
62
0
0
CIRCLE
8
1
10
-151.498
20
130.999
40
2.01475
62
0
0
CIRCLE
8
1
10
-175.498
20
130.999
40
2.01475
62
0
0
CIRCLE
8
1
10
-193.498
20
130.999
40
2.01475
62
0
0
CIRCLE
8
1
10
-133.498
20
124.999
40
2.0148
62
0
0
CIRCLE
8
1
10
-151.498
20
124.999
40
2.0148
62
0
0
CIRCLE
8
1
10
-175.498
20
124.999
40
2.0148
62
0
0
CIRCLE
8
1
10
-193.498
20
124.999
40
2.0148
62
0
0
CIRCLE
8
1
10
-133.498
20
118.999
40
2.0148
62
0
0
CIRCLE
8
1
10
-151.498
20
118.999
40
2.0148
62
0
0
CIRCLE
8
1
10
-175.498
20
118.999
40
2.0148
62
0
0
CIRCLE
8
1
10
-193.498
20
118.999
40
2.0148
62
0
0
LINE
8
1
10
-16.912
20
97.047
11
-16.598
21
97.128
62
0
0
LINE
8
1
10
-16.598
20
97.128
11
-16.081
21
97.345
62
0
0
LINE
8
1
10
-16.081
20
97.345
11
-15.59
21
97.672
62
0
0
LINE
8
1
10
-15.59
20
97.672
11
-15.173
21
98.089
62
0
0
LINE
8
1
10
-15.173
20
98.089
11
-14.844
21
98.58
62
0
0
LINE
8
1
10
-14.844
20
98.58
11
-14.718
21
98.847
62
0
0
LINE
8
1
10
-14.718
20
98.847
11
-14.547
21
99.412
62
0
0
LINE
8
1
10
-14.547
20
99.412
11
-14.503
21
99.704
62
0
0
LINE
8
1
10
-14.503
20
99.704
11
-14.502
21
99.73
62
0
0
LINE
8
1
10
-14.502
20
99.73
11
-14.501
21
99.731
62
0
0
LINE
8
1
10
-14.501
20
99.731
11
-14.503
21
114.294
62
0
0
LINE
8
1
10
-14.503
20
114.294
11
-14.547
21
114.587
62
0
0
LINE
8
1
10
-14.547
20
114.587
11
-14.718
21
115.151
62
0
0
LINE
8
1
10
-14.718
20
115.151
11
-14.844
21
115.419
62
0
0
LINE
8
1
10
-14.844
20
115.419
11
-15.172
21
115.909
62
0
0
LINE
8
1
10
-15.172
20
115.909
11
-15.589
21
116.326
62
0
0
LINE
8
1
10
-15.589
20
116.326
11
-16.08
21
116.654
62
0
0
LINE
8
1
10
-16.08
20
116.654
11
-16.347
21
116.78
62
0
0
LINE
8
1
10
-16.347
20
116.78
11
-16.912
21
116.952
62
0
0
LINE
8
1
10
-16.912
20
116.952
11
-17.204
21
116.995
62
0
0
LINE
8
1
10
-17.204
20
116.995
11
-81.794
21
116.995
62
0
0
LINE
8
1
10
-81.794
20
116.995
11
-82.086
21
116.952
62
0
0
LINE
8
1
10
-82.086
20
116.952
11
-82.4
21
116.871
62
0
0
LINE
8
1
10
-82.4
20
116.871
11
-82.917
21
116.654
62
0
0
LINE
8
1
10
-82.917
20
116.654
11
-83.408
21
116.327
62
0
0
LINE
8
1
10
-83.408
20
116.327
11
-83.825
21
115.91
62
0
0
LINE
8
1
10
-83.825
20
115.91
11
-84.154
21
115.419
62
0
0
LINE
8
1
10
-84.154
20
115.419
11
-84.28
21
115.152
62
0
0
LINE
8
1
10
-84.28
20
115.152
11
-84.451
21
114.587
62
0
0
LINE
8
1
10
-84.451
20
114.587
11
-84.495
21
114.295
62
0
0
LINE
8
1
10
-84.495
20
114.295
11
-84.495
21
99.704
62
0
0
LINE
8
1
10
-84.495
20
99.704
11
-84.451
21
99.412
62
0
0
LINE
8
1
10
-84.451
20
99.412
11
-84.28
21
98.848
62
0
0
LINE
8
1
10
-84.28
20
98.848
11
-84.154
21
98.58
62
0
0
LINE
8
1
10
-84.154
20
98.58
11
-83.826
21
98.09
62
0
0
LINE
8
1
10
-83.826
20
98.09
11
-83.409
21
97.673
62
0
0
LINE
8
1
10
-83.409
20
97.673
11
-82.918
21
97.345
62
0
0
LINE
8
1
10
-82.918
20
97.345
11
-82.651
21
97.219
62
0
0
LINE
8
1
10
-82.651
20
97.219
11
-82.086
21
97.047
62
0
0
LINE
8
1
10
-82.086
20
97.047
11
-81.794
21
97.004
62
0
0
LINE
8
1
10
-81.794
20
97.004
11
-17.204
21
97.004
62
0
0
LINE
8
1
10
-17.204
20
97.004
11
-16.912
21
97.047
62
0
0
CIRCLE
8
1
10
-19.498
20
112.999
40
2.01481
62
0
0
CIRCLE
8
1
10
-37.498
20
112.999
40
2.01481
62
0
0
CIRCLE
8
1
10
-61.498
20
112.999
40
2.0148
62
0
0
CIRCLE
8
1
10
-79.498
20
112.999
40
2.0148
62
0
0
LINE
8
1
10
-87.912
20
94.047
11
-87.598
21
94.128
62
0
0
LINE
8
1
10
-87.598
20
94.128
11
-87.081
21
94.345
62
0
0
LINE
8
1
10
-87.081
20
94.345
11
-86.59
21
94.672
62
0
0
LINE
8
1
10
-86.59
20
94.672
11
-86.173
21
95.089
62
0
0
LINE
8
1
10
-86.173
20
95.089
11
-85.844
21
95.58
62
0
0
LINE
8
1
10
-85.844
20
95.58
11
-85.718
21
95.847
62
0
0
LINE
8
1
10
-85.718
20
95.847
11
-85.547
21
96.412
62
0
0
LINE
8
1
10
-85.547
20
96.412
11
-85.503
21
96.704
62
0
0
LINE
8
1
10
-85.503
20
96.704
11
-85.502
21
96.73
62
0
0
LINE
8
1
10
-85.502
20
96.73
11
-85.501
21
96.731
62
0
0
LINE
8
1
10
-85.501
20
96.731
11
-85.503
21
111.294
62
0
0
LINE
8
1
10
-85.503
20
111.294
11
-85.547
21
111.587
62
0
0
LINE
8
1
10
-85.547
20
111.587
11
-85.718
21
112.151
62
0
0
LINE
8
1
10
-85.718
20
112.151
11
-85.844
21
112.419
62
0
0
LINE
8
1
10
-85.844
20
112.419
11
-86.172
21
112.909
62
0
0
LINE
8
1
10
-86.172
20
112.909
11
-86.589
21
113.326
62
0
0
LINE
8
1
10
-86.589
20
113.326
11
-87.08
21
113.654
62
0
0
LINE
8
1
10
-87.08
20
113.654
11
-87.347
21
113.78
62
0
0
LINE
8
1
10
-87.347
20
113.78
11
-87.912
21
113.952
62
0
0
LINE
8
1
10
-87.912
20
113.952
11
-88.204
21
113.995
62
0
0
LINE
8
1
10
-88.204
20
113.995
11
-152.794
21
113.995
62
0
0
LINE
8
1
10
-152.794
20
113.995
11
-153.086
21
113.952
62
0
0
LINE
8
1
10
-153.086
20
113.952
11
-153.4
21
113.871
62
0
0
LINE
8
1
10
-153.4
20
113.871
11
-153.917
21
113.654
62
0
0
LINE
8
1
10
-153.917
20
113.654
11
-154.408
21
113.327
62
0
0
LINE
8
1
10
-154.408
20
113.327
11
-154.825
21
112.91
62
0
0
LINE
8
1
10
-154.825
20
112.91
11
-155.154
21
112.419
62
0
0
LINE
8
1
10
-155.154
20
112.419
11
-155.28
21
112.152
62
0
0
LINE
8
1
10
-155.28
20
112.152
11
-155.451
21
111.587
62
0
0
LINE
8
1
10
-155.451
20
111.587
11
-155.495
21
111.295
62
0
0
LINE
8
1
10
-155.495
20
111.295
11
-155.495
21
96.704
62
0
0
LINE
8
1
10
-155.495
20
96.704
11
-155.451
21
96.412
62
0
0
LINE
8
1
10
-155.451
20
96.412
11
-155.28
21
95.848
62
0
0
LINE
8
1
10
-155.28
20
95.848
11
-155.154
21
95.58
62
0
0
LINE
8
1
10
-155.154
20
95.58
11
-154.826
21
95.09
62
0
0
LINE
8
1
10
-154.826
20
95.09
11
-154.409
21
94.673
62
0
0
LINE
8
1
10
-154.409
20
94.673
11
-153.918
21
94.345
62
0
0
LINE
8
1
10
-153.918
20
94.345
11
-153.651
21
94.219
62
0
0
LINE
8
1
10
-153.651
20
94.219
11
-153.086
21
94.047
62
0
0
LINE
8
1
10
-153.086
20
94.047
11
-152.794
21
94.004
62
0
0
LINE
8
1
10
-152.794
20
94.004
11
-88.204
21
94.004
62
0
0
LINE
8
1
10
-88.204
20
94.004
11
-87.912
21
94.047
62
0
0
CIRCLE
8
1
10
-90.498
20
109.999
40
2.01481
62
0
0
CIRCLE
8
1
10
-108.498
20
109.999
40
2.01481
62
0
0
CIRCLE
8
1
10
-132.498
20
109.999
40
2.0148
62
0
0
CIRCLE
8
1
10
-150.498
20
109.999
40
2.0148
62
0
0
CIRCLE
8
1
10
-19.498
20
106.999
40
2.01481
62
0
0
CIRCLE
8
1
10
-37.498
20
106.999
40
2.01481
62
0
0
CIRCLE
8
1
10
-61.498
20
106.999
40
2.0148
62
0
0
CIRCLE
8
1
10
-79.498
20
106.999
40
2.0148
62
0
0
CIRCLE
8
1
10
-90.498
20
103.999
40
2.01481
62
0
0
CIRCLE
8
1
10
-108.498
20
103.999
40
2.01481
62
0
0
CIRCLE
8
1
10
-132.498
20
103.999
40
2.0148
62
0
0
CIRCLE
8
1
10
-150.498
20
103.999
40
2.0148
62
0
0
LINE
8
1
10
-162.309
20
-27.207
11
-161.859
21
-27.102
62
0
0
LINE
8
1
10
-161.859
20
-27.102
11
-161.424
21
-26.945
62
0
0
LINE
8
1
10
-161.424
20
-26.945
11
-161.011
21
-26.74
62
0
0
LINE
8
1
10
-161.011
20
-26.74
11
-160.623
21
-26.488
62
0
0
LINE
8
1
10
-160.623
20
-26.488
11
-160.267
21
-26.193
62
0
0
LINE
8
1
10
-160.267
20
-26.193
11
-159.947
21
-25.86
62
0
0
LINE
8
1
10
-159.947
20
-25.86
11
-159.669
21
-25.491
62
0
0
LINE
8
1
10
-159.669
20
-25.491
11
-159.434
21
-25.093
62
0
0
LINE
8
1
10
-159.434
20
-25.093
11
-159.247
21
-24.67
62
0
0
LINE
8
1
10
-159.247
20
-24.67
11
-152.331
21
3.268
62
0
0
LINE
8
1
10
-152.331
20
3.268
11
-151.583
21
9.343
62
0
0
LINE
8
1
10
-151.583
20
9.343
11
-151.571
21
39.245
62
0
0
LINE
8
1
10
-151.571
20
39.245
11
-158.99
21
104.26
62
0
0
LINE
8
1
10
-158.99
20
104.26
11
-167.008
21
104.26
62
0
0
LINE
8
1
10
-167.008
20
104.26
11
-174.488
21
37.811
62
0
0
LINE
8
1
10
-174.488
20
37.811
11
-174.298
21
7.818
62
0
0
LINE
8
1
10
-174.298
20
7.818
11
-173.365
21
1.767
62
0
0
LINE
8
1
10
-173.365
20
1.767
11
-166.751
21
-24.67
62
0
0
LINE
8
1
10
-166.751
20
-24.67
11
-166.564
21
-25.093
62
0
0
LINE
8
1
10
-166.564
20
-25.093
11
-166.329
21
-25.491
62
0
0
LINE
8
1
10
-166.329
20
-25.491
11
-166.05
21
-25.859
62
0
0
LINE
8
1
10
-166.05
20
-25.859
11
-165.731
21
-26.193
62
0
0
LINE
8
1
10
-165.731
20
-26.193
11
-165.375
21
-26.488
62
0
0
LINE
8
1
10
-165.375
20
-26.488
11
-164.987
21
-26.74
62
0
0
LINE
8
1
10
-164.987
20
-26.74
11
-164.574
21
-26.945
62
0
0
LINE
8
1
10
-164.574
20
-26.945
11
-164.139
21
-27.102
62
0
0
LINE
8
1
10
-164.139
20
-27.102
11
-163.689
21
-27.207
62
0
0
LINE
8
1
10
-163.689
20
-27.207
11
-163.23
21
-27.26
62
0
0
LINE
8
1
10
-163.23
20
-27.26
11
-162.768
21
-27.26
62
0
0
LINE
8
1
10
-162.768
20
-27.26
11
-162.309
21
-27.207
62
0
0
CIRCLE
8
1
10
-19.498
20
100.999
40
2.01481
62
0
0
CIRCLE
8
1
10
-37.498
20
100.999
40
2.01481
62
0
0
CIRCLE
8
1
10
-61.498
20
100.999
40
2.0148
62
0
0
CIRCLE
8
1
10
-79.498
20
100.999
40
2.0148
62
0
0
LINE
8
1
10
-164.564
20
94.16
11
-164.564
21
101.24
62
0
0
LINE
8
1
10
-164.564
20
101.24
11
-161.434
21
101.24
62
0
0
LINE
8
1
10
-161.434
20
101.24
11
-161.434
21
94.16
62
0
0
LINE
8
1
10
-161.434
20
94.16
11
-164.564
21
94.16
62
0
0
CIRCLE
8
1
10
-90.498
20
97.999
40
2.01481
62
0
0
CIRCLE
8
1
10
-108.498
20
97.999
40
2.01481
62
0
0
CIRCLE
8
1
10
-132.498
20
97.999
40
2.0148
62
0
0
CIRCLE
8
1
10
-150.498
20
97.999
40
2.0148
62
0
0
LINE
8
1
10
127.087
20
80.047
11
127.401
21
80.128
62
0
0
LINE
8
1
10
127.401
20
80.128
11
127.918
21
80.345
62
0
0
LINE
8
1
10
127.918
20
80.345
11
128.409
21
80.672
62
0
0
LINE
8
1
10
128.409
20
80.672
11
128.826
21
81.089
62
0
0
LINE
8
1
10
128.826
20
81.089
11
129.155
21
81.58
62
0
0
LINE
8
1
10
129.155
20
81.58
11
129.281
21
81.847
62
0
0
LINE
8
1
10
129.281
20
81.847
11
129.452
21
82.412
62
0
0
LINE
8
1
10
129.452
20
82.412
11
129.496
21
82.704
62
0
0
LINE
8
1
10
129.496
20
82.704
11
129.497
21
82.73
62
0
0
LINE
8
1
10
129.497
20
82.73
11
129.498
21
82.731
62
0
0
LINE
8
1
10
129.498
20
82.731
11
129.496
21
97.294
62
0
0
LINE
8
1
10
129.496
20
97.294
11
129.452
21
97.587
62
0
0
LINE
8
1
10
129.452
20
97.587
11
129.281
21
98.151
62
0
0
LINE
8
1
10
129.281
20
98.151
11
129.155
21
98.419
62
0
0
LINE
8
1
10
129.155
20
98.419
11
128.827
21
98.909
62
0
0
LINE
8
1
10
128.827
20
98.909
11
128.41
21
99.326
62
0
0
LINE
8
1
10
128.41
20
99.326
11
127.919
21
99.654
62
0
0
LINE
8
1
10
127.919
20
99.654
11
127.652
21
99.78
62
0
0
LINE
8
1
10
127.652
20
99.78
11
127.087
21
99.952
62
0
0
LINE
8
1
10
127.087
20
99.952
11
126.795
21
99.995
62
0
0
LINE
8
1
10
126.795
20
99.995
11
62.205
21
99.995
62
0
0
LINE
8
1
10
62.205
20
99.995
11
61.913
21
99.952
62
0
0
LINE
8
1
10
61.913
20
99.952
11
61.599
21
99.871
62
0
0
LINE
8
1
10
61.599
20
99.871
11
61.082
21
99.654
62
0
0
LINE
8
1
10
61.082
20
99.654
11
60.591
21
99.327
62
0
0
LINE
8
1
10
60.591
20
99.327
11
60.174
21
98.91
62
0
0
LINE
8
1
10
60.174
20
98.91
11
59.845
21
98.419
62
0
0
LINE
8
1
10
59.845
20
98.419
11
59.719
21
98.152
62
0
0
LINE
8
1
10
59.719
20
98.152
11
59.548
21
97.587
62
0
0
LINE
8
1
10
59.548
20
97.587
11
59.504
21
97.295
62
0
0
LINE
8
1
10
59.504
20
97.295
11
59.504
21
82.704
62
0
0
LINE
8
1
10
59.504
20
82.704
11
59.548
21
82.412
62
0
0
LINE
8
1
10
59.548
20
82.412
11
59.719
21
81.848
62
0
0
LINE
8
1
10
59.719
20
81.848
11
59.845
21
81.58
62
0
0
LINE
8
1
10
59.845
20
81.58
11
60.173
21
81.09
62
0
0
LINE
8
1
10
60.173
20
81.09
11
60.59
21
80.673
62
0
0
LINE
8
1
10
60.59
20
80.673
11
61.081
21
80.345
62
0
0
LINE
8
1
10
61.081
20
80.345
11
61.348
21
80.219
62
0
0
LINE
8
1
10
61.348
20
80.219
11
61.913
21
80.047
62
0
0
LINE
8
1
10
61.913
20
80.047
11
62.205
21
80.004
62
0
0
LINE
8
1
10
62.205
20
80.004
11
126.795
21
80.004
62
0
0
LINE
8
1
10
126.795
20
80.004
11
127.087
21
80.047
62
0
0
LINE
8
1
10
56.087
20
80.047
11
56.401
21
80.128
62
0
0
LINE
8
1
10
56.401
20
80.128
11
56.918
21
80.345
62
0
0
LINE
8
1
10
56.918
20
80.345
11
57.409
21
80.672
62
0
0
LINE
8
1
10
57.409
20
80.672
11
57.826
21
81.089
62
0
0
LINE
8
1
10
57.826
20
81.089
11
58.155
21
81.58
62
0
0
LINE
8
1
10
58.155
20
81.58
11
58.281
21
81.847
62
0
0
LINE
8
1
10
58.281
20
81.847
11
58.452
21
82.412
62
0
0
LINE
8
1
10
58.452
20
82.412
11
58.496
21
82.704
62
0
0
LINE
8
1
10
58.496
20
82.704
11
58.497
21
82.73
62
0
0
LINE
8
1
10
58.497
20
82.73
11
58.498
21
82.731
62
0
0
LINE
8
1
10
58.498
20
82.731
11
58.496
21
97.294
62
0
0
LINE
8
1
10
58.496
20
97.294
11
58.452
21
97.587
62
0
0
LINE
8
1
10
58.452
20
97.587
11
58.281
21
98.151
62
0
0
LINE
8
1
10
58.281
20
98.151
11
58.155
21
98.419
62
0
0
LINE
8
1
10
58.155
20
98.419
11
57.827
21
98.909
62
0
0
LINE
8
1
10
57.827
20
98.909
11
57.41
21
99.326
62
0
0
LINE
8
1
10
57.41
20
99.326
11
56.919
21
99.654
62
0
0
LINE
8
1
10
56.919
20
99.654
11
56.652
21
99.78
62
0
0
LINE
8
1
10
56.652
20
99.78
11
56.087
21
99.952
62
0
0
LINE
8
1
10
56.087
20
99.952
11
55.795
21
99.995
62
0
0
LINE
8
1
10
55.795
20
99.995
11
-8.794
21
99.995
62
0
0
LINE
8
1
10
-8.794
20
99.995
11
-9.086
21
99.952
62
0
0
LINE
8
1
10
-9.086
20
99.952
11
-9.4
21
99.871
62
0
0
LINE
8
1
10
-9.4
20
99.871
11
-9.917
21
99.654
62
0
0
LINE
8
1
10
-9.917
20
99.654
11
-10.408
21
99.327
62
0
0
LINE
8
1
10
-10.408
20
99.327
11
-10.825
21
98.91
62
0
0
LINE
8
1
10
-10.825
20
98.91
11
-11.154
21
98.419
62
0
0
LINE
8
1
10
-11.154
20
98.419
11
-11.28
21
98.152
62
0
0
LINE
8
1
10
-11.28
20
98.152
11
-11.451
21
97.587
62
0
0
LINE
8
1
10
-11.451
20
97.587
11
-11.495
21
97.295
62
0
0
LINE
8
1
10
-11.495
20
97.295
11
-11.495
21
82.704
62
0
0
LINE
8
1
10
-11.495
20
82.704
11
-11.451
21
82.412
62
0
0
LINE
8
1
10
-11.451
20
82.412
11
-11.28
21
81.848
62
0
0
LINE
8
1
10
-11.28
20
81.848
11
-11.154
21
81.58
62
0
0
LINE
8
1
10
-11.154
20
81.58
11
-10.826
21
81.09
62
0
0
LINE
8
1
10
-10.826
20
81.09
11
-10.409
21
80.673
62
0
0
LINE
8
1
10
-10.409
20
80.673
11
-9.918
21
80.345
62
0
0
LINE
8
1
10
-9.918
20
80.345
11
-9.651
21
80.219
62
0
0
LINE
8
1
10
-9.651
20
80.219
11
-9.086
21
80.047
62
0
0
LINE
8
1
10
-9.086
20
80.047
11
-8.794
21
80.004
62
0
0
LINE
8
1
10
-8.794
20
80.004
11
55.795
21
80.004
62
0
0
LINE
8
1
10
55.795
20
80.004
11
56.087
21
80.047
62
0
0
LINE
8
1
10
140.265
20
37.008
11
140.362
21
36.791
62
0
0
LINE
8
1
10
140.362
20
36.791
11
140.433
21
36.562
62
0
0
LINE
8
1
10
140.433
20
36.562
11
140.476
21
36.327
62
0
0
LINE
8
1
10
140.476
20
36.327
11
140.49
21
36.06
62
0
0
LINE
8
1
10
140.49
20
36.06
11
140.473
21
35.797
62
0
0
LINE
8
1
10
140.473
20
35.797
11
140.42
21
35.539
62
0
0
LINE
8
1
10
140.42
20
35.539
11
140.421
21
35.539
62
0
0
LINE
8
1
10
140.421
20
35.539
11
140.337
21
35.291
62
0
0
LINE
8
1
10
140.337
20
35.291
11
140.336
21
35.291
62
0
0
LINE
8
1
10
140.336
20
35.291
11
140.217
21
35.055
62
0
0
LINE
8
1
10
140.217
20
35.055
11
140.07
21
34.837
62
0
0
LINE
8
1
10
140.07
20
34.837
11
139.895
21
34.641
62
0
0
LINE
8
1
10
139.895
20
34.641
11
139.895
21
34.642
62
0
0
LINE
8
1
10
139.895
20
34.642
11
139.521
21
34.321
62
0
0
LINE
8
1
10
139.521
20
34.321
11
139.364
21
34.155
62
0
0
LINE
8
1
10
139.364
20
34.155
11
139.228
21
33.973
62
0
0
LINE
8
1
10
139.228
20
33.973
11
139.112
21
33.775
62
0
0
LINE
8
1
10
139.112
20
33.775
11
138.49
21
32.145
62
0
0
LINE
8
1
10
138.49
20
32.145
11
138.565
21
14.831
62
0
0
LINE
8
1
10
138.565
20
14.831
11
138.789
21
13.536
62
0
0
LINE
8
1
10
138.789
20
13.536
11
139.159
21
12.275
62
0
0
LINE
8
1
10
139.159
20
12.275
11
139.671
21
11.065
62
0
0
LINE
8
1
10
139.671
20
11.065
11
140.317
21
9.92
62
0
0
LINE
8
1
10
140.317
20
9.92
11
141.089
21
8.857
62
0
0
LINE
8
1
10
141.089
20
8.857
11
141.978
21
7.889
62
0
0
LINE
8
1
10
141.978
20
7.889
11
142.972
21
7.028
62
0
0
LINE
8
1
10
142.972
20
7.028
11
144.056
21
6.287
62
0
0
LINE
8
1
10
144.056
20
6.287
11
145.219
21
5.673
62
0
0
LINE
8
1
10
145.219
20
5.673
11
146.443
21
5.197
62
0
0
LINE
8
1
10
146.443
20
5.197
11
147.714
21
4.862
62
0
0
LINE
8
1
10
147.714
20
4.862
11
149.015
21
4.675
62
0
0
LINE
8
1
10
149.015
20
4.675
11
150.328
21
4.638
62
0
0
LINE
8
1
10
150.328
20
4.638
11
151.638
21
4.75
62
0
0
LINE
8
1
10
151.638
20
4.75
11
152.926
21
5.011
62
0
0
LINE
8
1
10
152.926
20
5.011
11
154.175
21
5.417
62
0
0
LINE
8
1
10
154.175
20
5.417
11
155.371
21
5.963
62
0
0
LINE
8
1
10
155.371
20
5.963
11
156.496
21
6.642
62
0
0
LINE
8
1
10
156.496
20
6.642
11
157.537
21
7.444
62
0
0
LINE
8
1
10
157.537
20
7.444
11
158.48
21
8.36
62
0
0
LINE
8
1
10
158.48
20
8.36
11
159.312
21
9.377
62
0
0
LINE
8
1
10
159.312
20
9.377
11
160.023
21
10.483
62
0
0
LINE
8
1
10
160.023
20
10.483
11
160.602
21
11.662
62
0
0
LINE
8
1
10
160.602
20
11.662
11
161.044
21
12.9
62
0
0
LINE
8
1
10
161.044
20
12.9
11
161.342
21
14.18
62
0
0
LINE
8
1
10
161.342
20
14.18
11
161.491
21
15.485
62
0
0
LINE
8
1
10
161.491
20
15.485
11
161.51
21
32.145
62
0
0
LINE
8
1
10
161.51
20
32.145
11
160.63
21
34.471
62
0
0
LINE
8
1
10
160.63
20
34.471
11
160.525
21
34.655
62
0
0
LINE
8
1
10
160.525
20
34.655
11
160.331
21
34.912
62
0
0
LINE
8
1
10
160.331
20
34.912
11
160.004
21
35.241
62
0
0
LINE
8
1
10
160.004
20
35.241
11
159.857
21
35.43
62
0
0
LINE
8
1
10
159.857
20
35.43
11
159.735
21
35.634
62
0
0
LINE
8
1
10
159.735
20
35.634
11
159.638
21
35.852
62
0
0
LINE
8
1
10
159.638
20
35.852
11
159.567
21
36.081
62
0
0
LINE
8
1
10
159.567
20
36.081
11
159.524
21
36.316
62
0
0
LINE
8
1
10
159.524
20
36.316
11
159.51
21
36.583
62
0
0
LINE
8
1
10
159.51
20
36.583
11
159.527
21
36.845
62
0
0
LINE
8
1
10
159.527
20
36.845
11
159.58
21
37.104
62
0
0
LINE
8
1
10
159.58
20
37.104
11
159.579
21
37.104
62
0
0
LINE
8
1
10
159.579
20
37.104
11
159.665
21
37.352
62
0
0
LINE
8
1
10
159.665
20
37.352
11
159.782
21
37.586
62
0
0
LINE
8
1
10
159.782
20
37.586
11
159.929
21
37.804
62
0
0
LINE
8
1
10
159.929
20
37.804
11
160.105
21
38.002
62
0
0
LINE
8
1
10
160.105
20
38.002
11
160.105
21
38.001
62
0
0
LINE
8
1
10
160.105
20
38.001
11
160.479
21
38.321
62
0
0
LINE
8
1
10
160.479
20
38.321
11
160.636
21
38.488
62
0
0
LINE
8
1
10
160.636
20
38.488
11
160.772
21
38.67
62
0
0
LINE
8
1
10
160.772
20
38.67
11
160.888
21
38.867
62
0
0
LINE
8
1
10
160.888
20
38.867
11
161.383
21
40.157
62
0
0
LINE
8
1
10
161.383
20
40.157
11
161.453
21
40.383
62
0
0
LINE
8
1
10
161.453
20
40.383
11
161.506
21
40.739
62
0
0
LINE
8
1
10
161.506
20
40.739
11
161.507
21
62.246
62
0
0
LINE
8
1
10
161.507
20
62.246
11
161.477
21
62.501
62
0
0
LINE
8
1
10
161.477
20
62.501
11
161.421
21
62.729
62
0
0
LINE
8
1
10
161.421
20
62.729
11
160.979
21
63.923
62
0
0
LINE
8
1
10
160.979
20
63.923
11
160.888
21
64.132
62
0
0
LINE
8
1
10
160.888
20
64.132
11
160.772
21
64.329
62
0
0
LINE
8
1
10
160.772
20
64.329
11
160.636
21
64.511
62
0
0
LINE
8
1
10
160.636
20
64.511
11
160.479
21
64.678
62
0
0
LINE
8
1
10
160.479
20
64.678
11
160.104
21
64.998
62
0
0
LINE
8
1
10
160.104
20
64.998
11
159.929
21
65.195
62
0
0
LINE
8
1
10
159.929
20
65.195
11
159.782
21
65.413
62
0
0
LINE
8
1
10
159.782
20
65.413
11
159.665
21
65.647
62
0
0
LINE
8
1
10
159.665
20
65.647
11
159.579
21
65.895
62
0
0
LINE
8
1
10
159.579
20
65.895
11
159.58
21
65.895
62
0
0
LINE
8
1
10
159.58
20
65.895
11
159.527
21
66.154
62
0
0
LINE
8
1
10
159.527
20
66.154
11
159.51
21
66.447
62
0
0
LINE
8
1
10
159.51
20
66.447
11
159.524
21
66.685
62
0
0
LINE
8
1
10
159.524
20
66.685
11
159.567
21
66.918
62
0
0
LINE
8
1
10
159.567
20
66.918
11
159.638
21
67.147
62
0
0
LINE
8
1
10
159.638
20
67.147
11
159.735
21
67.365
62
0
0
LINE
8
1
10
159.735
20
67.365
11
159.857
21
67.569
62
0
0
LINE
8
1
10
159.857
20
67.569
11
160.004
21
67.758
62
0
0
LINE
8
1
10
160.004
20
67.758
11
160.402
21
68.172
62
0
0
LINE
8
1
10
160.402
20
68.172
11
160.525
21
68.344
62
0
0
LINE
8
1
10
160.525
20
68.344
11
160.63
21
68.528
62
0
0
LINE
8
1
10
160.63
20
68.528
11
161.42
21
70.626
62
0
0
LINE
8
1
10
161.42
20
70.626
11
161.477
21
70.854
62
0
0
LINE
8
1
10
161.477
20
70.854
11
161.506
21
71.095
62
0
0
LINE
8
1
10
161.506
20
71.095
11
161.491
21
87.513
62
0
0
LINE
8
1
10
161.491
20
87.513
11
161.342
21
88.818
62
0
0
LINE
8
1
10
161.342
20
88.818
11
161.044
21
90.099
62
0
0
LINE
8
1
10
161.044
20
90.099
11
160.602
21
91.337
62
0
0
LINE
8
1
10
160.602
20
91.337
11
160.023
21
92.516
62
0
0
LINE
8
1
10
160.023
20
92.516
11
159.312
21
93.622
62
0
0
LINE
8
1
10
159.312
20
93.622
11
158.481
21
94.639
62
0
0
LINE
8
1
10
158.481
20
94.639
11
157.538
21
95.554
62
0
0
LINE
8
1
10
157.538
20
95.554
11
156.497
21
96.357
62
0
0
LINE
8
1
10
156.497
20
96.357
11
155.372
21
97.036
62
0
0
LINE
8
1
10
155.372
20
97.036
11
154.176
21
97.582
62
0
0
LINE
8
1
10
154.176
20
97.582
11
152.927
21
97.988
62
0
0
LINE
8
1
10
152.927
20
97.988
11
151.639
21
98.249
62
0
0
LINE
8
1
10
151.639
20
98.249
11
150.329
21
98.361
62
0
0
LINE
8
1
10
150.329
20
98.361
11
149.015
21
98.324
62
0
0
LINE
8
1
10
149.015
20
98.324
11
147.714
21
98.137
62
0
0
LINE
8
1
10
147.714
20
98.137
11
146.443
21
97.803
62
0
0
LINE
8
1
10
146.443
20
97.803
11
145.219
21
97.326
62
0
0
LINE
8
1
10
145.219
20
97.326
11
144.056
21
96.713
62
0
0
LINE
8
1
10
144.056
20
96.713
11
142.972
21
95.971
62
0
0
LINE
8
1
10
142.972
20
95.971
11
141.978
21
95.11
62
0
0
LINE
8
1
10
141.978
20
95.11
11
141.089
21
94.143
62
0
0
LINE
8
1
10
141.089
20
94.143
11
140.318
21
93.08
62
0
0
LINE
8
1
10
140.318
20
93.08
11
139.671
21
91.935
62
0
0
LINE
8
1
10
139.671
20
91.935
11
139.16
21
90.725
62
0
0
LINE
8
1
10
139.16
20
90.725
11
138.789
21
89.464
62
0
0
LINE
8
1
10
138.789
20
89.464
11
138.565
21
88.168
62
0
0
LINE
8
1
10
138.565
20
88.168
11
138.49
21
71.217
62
0
0
LINE
8
1
10
138.49
20
71.217
11
138.505
21
70.975
62
0
0
LINE
8
1
10
138.505
20
70.975
11
138.547
21
70.74
62
0
0
LINE
8
1
10
138.547
20
70.74
11
139.021
21
69.434
62
0
0
LINE
8
1
10
139.021
20
69.434
11
139.112
21
69.224
62
0
0
LINE
8
1
10
139.112
20
69.224
11
139.228
21
69.026
62
0
0
LINE
8
1
10
139.228
20
69.026
11
139.364
21
68.844
62
0
0
LINE
8
1
10
139.364
20
68.844
11
139.521
21
68.678
62
0
0
LINE
8
1
10
139.521
20
68.678
11
139.896
21
68.357
62
0
0
LINE
8
1
10
139.896
20
68.357
11
140.071
21
68.161
62
0
0
LINE
8
1
10
140.071
20
68.161
11
140.218
21
67.943
62
0
0
LINE
8
1
10
140.218
20
67.943
11
140.335
21
67.709
62
0
0
LINE
8
1
10
140.335
20
67.709
11
140.421
21
67.46
62
0
0
LINE
8
1
10
140.421
20
67.46
11
140.42
21
67.46
62
0
0
LINE
8
1
10
140.42
20
67.46
11
140.473
21
67.201
62
0
0
LINE
8
1
10
140.473
20
67.201
11
140.49
21
66.909
62
0
0
LINE
8
1
10
140.49
20
66.909
11
140.476
21
66.67
62
0
0
LINE
8
1
10
140.476
20
66.67
11
140.433
21
66.436
62
0
0
LINE
8
1
10
140.433
20
66.436
11
140.362
21
66.208
62
0
0
LINE
8
1
10
140.362
20
66.208
11
140.265
21
65.991
62
0
0
LINE
8
1
10
140.265
20
65.991
11
140.142
21
65.785
62
0
0
LINE
8
1
10
140.142
20
65.785
11
139.995
21
65.597
62
0
0
LINE
8
1
10
139.995
20
65.597
11
139.598
21
65.184
62
0
0
LINE
8
1
10
139.598
20
65.184
11
139.475
21
65.012
62
0
0
LINE
8
1
10
139.475
20
65.012
11
139.37
21
64.827
62
0
0
LINE
8
1
10
139.37
20
64.827
11
138.58
21
62.73
62
0
0
LINE
8
1
10
138.58
20
62.73
11
138.523
21
62.502
62
0
0
LINE
8
1
10
138.523
20
62.502
11
138.494
21
62.26
62
0
0
LINE
8
1
10
138.494
20
62.26
11
138.493
21
40.753
62
0
0
LINE
8
1
10
138.493
20
40.753
11
138.523
21
40.499
62
0
0
LINE
8
1
10
138.523
20
40.499
11
138.579
21
40.27
62
0
0
LINE
8
1
10
138.579
20
40.27
11
139.37
21
38.172
62
0
0
LINE
8
1
10
139.37
20
38.172
11
139.475
21
37.987
62
0
0
LINE
8
1
10
139.475
20
37.987
11
139.747
21
37.648
62
0
0
LINE
8
1
10
139.747
20
37.648
11
139.996
21
37.4
62
0
0
LINE
8
1
10
139.996
20
37.4
11
140.143
21
37.213
62
0
0
LINE
8
1
10
140.143
20
37.213
11
140.265
21
37.008
62
0
0
LINE
8
1
10
-186.309
20
-33.207
11
-185.859
21
-33.102
62
0
0
LINE
8
1
10
-185.859
20
-33.102
11
-185.424
21
-32.945
62
0
0
LINE
8
1
10
-185.424
20
-32.945
11
-185.011
21
-32.74
62
0
0
LINE
8
1
10
-185.011
20
-32.74
11
-184.623
21
-32.488
62
0
0
LINE
8
1
10
-184.623
20
-32.488
11
-184.267
21
-32.193
62
0
0
LINE
8
1
10
-184.267
20
-32.193
11
-183.947
21
-31.86
62
0
0
LINE
8
1
10
-183.947
20
-31.86
11
-183.669
21
-31.491
62
0
0
LINE
8
1
10
-183.669
20
-31.491
11
-183.434
21
-31.093
62
0
0
LINE
8
1
10
-183.434
20
-31.093
11
-183.247
21
-30.67
62
0
0
LINE
8
1
10
-183.247
20
-30.67
11
-176.331
21
-2.731
62
0
0
LINE
8
1
10
-176.331
20
-2.731
11
-175.583
21
3.343
62
0
0
LINE
8
1
10
-175.583
20
3.343
11
-175.571
21
33.245
62
0
0
LINE
8
1
10
-175.571
20
33.245
11
-182.99
21
98.26
62
0
0
LINE
8
1
10
-182.99
20
98.26
11
-191.008
21
98.26
62
0
0
LINE
8
1
10
-191.008
20
98.26
11
-198.488
21
31.811
62
0
0
LINE
8
1
10
-198.488
20
31.811
11
-198.298
21
1.818
62
0
0
LINE
8
1
10
-198.298
20
1.818
11
-197.365
21
-4.232
62
0
0
LINE
8
1
10
-197.365
20
-4.232
11
-190.751
21
-30.67
62
0
0
LINE
8
1
10
-190.751
20
-30.67
11
-190.564
21
-31.093
62
0
0
LINE
8
1
10
-190.564
20
-31.093
11
-190.329
21
-31.491
62
0
0
LINE
8
1
10
-190.329
20
-31.491
11
-190.05
21
-31.859
62
0
0
LINE
8
1
10
-190.05
20
-31.859
11
-189.731
21
-32.193
62
0
0
LINE
8
1
10
-189.731
20
-32.193
11
-189.375
21
-32.488
62
0
0
LINE
8
1
10
-189.375
20
-32.488
11
-188.987
21
-32.74
62
0
0
LINE
8
1
10
-188.987
20
-32.74
11
-188.574
21
-32.945
62
0
0
LINE
8
1
10
-188.574
20
-32.945
11
-188.139
21
-33.102
62
0
0
LINE
8
1
10
-188.139
20
-33.102
11
-187.689
21
-33.207
62
0
0
LINE
8
1
10
-187.689
20
-33.207
11
-187.23
21
-33.26
62
0
0
LINE
8
1
10
-187.23
20
-33.26
11
-186.768
21
-33.26
62
0
0
LINE
8
1
10
-186.768
20
-33.26
11
-186.309
21
-33.207
62
0
0
CIRCLE
8
1
10
124.5
20
95.999
40
2.01481
62
0
0
CIRCLE
8
1
10
106.5
20
95.999
40
2.01481
62
0
0
CIRCLE
8
1
10
82.5
20
95.999
40
2.0148
62
0
0
CIRCLE
8
1
10
64.5
20
95.999
40
2.0148
62
0
0
CIRCLE
8
1
10
53.5
20
95.999
40
2.01481
62
0
0
CIRCLE
8
1
10
35.5
20
95.999
40
2.01481
62
0
0
CIRCLE
8
1
10
11.5
20
95.999
40
2.0148
62
0
0
CIRCLE
8
1
10
-6.498
20
95.999
40
2.01481
62
0
0
LINE
8
1
10
-14.912
20
76.047
11
-14.598
21
76.128
62
0
0
LINE
8
1
10
-14.598
20
76.128
11
-14.081
21
76.345
62
0
0
LINE
8
1
10
-14.081
20
76.345
11
-13.59
21
76.672
62
0
0
LINE
8
1
10
-13.59
20
76.672
11
-13.173
21
77.089
62
0
0
LINE
8
1
10
-13.173
20
77.089
11
-12.844
21
77.58
62
0
0
LINE
8
1
10
-12.844
20
77.58
11
-12.718
21
77.847
62
0
0
LINE
8
1
10
-12.718
20
77.847
11
-12.547
21
78.412
62
0
0
LINE
8
1
10
-12.547
20
78.412
11
-12.503
21
78.704
62
0
0
LINE
8
1
10
-12.503
20
78.704
11
-12.502
21
78.73
62
0
0
LINE
8
1
10
-12.502
20
78.73
11
-12.501
21
78.731
62
0
0
LINE
8
1
10
-12.501
20
78.731
11
-12.503
21
93.294
62
0
0
LINE
8
1
10
-12.503
20
93.294
11
-12.547
21
93.587
62
0
0
LINE
8
1
10
-12.547
20
93.587
11
-12.718
21
94.151
62
0
0
LINE
8
1
10
-12.718
20
94.151
11
-12.844
21
94.419
62
0
0
LINE
8
1
10
-12.844
20
94.419
11
-13.172
21
94.909
62
0
0
LINE
8
1
10
-13.172
20
94.909
11
-13.589
21
95.326
62
0
0
LINE
8
1
10
-13.589
20
95.326
11
-14.08
21
95.654
62
0
0
LINE
8
1
10
-14.08
20
95.654
11
-14.347
21
95.78
62
0
0
LINE
8
1
10
-14.347
20
95.78
11
-14.912
21
95.952
62
0
0
LINE
8
1
10
-14.912
20
95.952
11
-15.204
21
95.995
62
0
0
LINE
8
1
10
-15.204
20
95.995
11
-79.794
21
95.995
62
0
0
LINE
8
1
10
-79.794
20
95.995
11
-80.086
21
95.952
62
0
0
LINE
8
1
10
-80.086
20
95.952
11
-80.4
21
95.871
62
0
0
LINE
8
1
10
-80.4
20
95.871
11
-80.917
21
95.654
62
0
0
LINE
8
1
10
-80.917
20
95.654
11
-81.408
21
95.327
62
0
0
LINE
8
1
10
-81.408
20
95.327
11
-81.825
21
94.91
62
0
0
LINE
8
1
10
-81.825
20
94.91
11
-82.154
21
94.419
62
0
0
LINE
8
1
10
-82.154
20
94.419
11
-82.28
21
94.152
62
0
0
LINE
8
1
10
-82.28
20
94.152
11
-82.451
21
93.587
62
0
0
LINE
8
1
10
-82.451
20
93.587
11
-82.495
21
93.295
62
0
0
LINE
8
1
10
-82.495
20
93.295
11
-82.495
21
78.704
62
0
0
LINE
8
1
10
-82.495
20
78.704
11
-82.451
21
78.412
62
0
0
LINE
8
1
10
-82.451
20
78.412
11
-82.28
21
77.848
62
0
0
LINE
8
1
10
-82.28
20
77.848
11
-82.154
21
77.58
62
0
0
LINE
8
1
10
-82.154
20
77.58
11
-81.826
21
77.09
62
0
0
LINE
8
1
10
-81.826
20
77.09
11
-81.409
21
76.673
62
0
0
LINE
8
1
10
-81.409
20
76.673
11
-80.918
21
76.345
62
0
0
LINE
8
1
10
-80.918
20
76.345
11
-80.651
21
76.219
62
0
0
LINE
8
1
10
-80.651
20
76.219
11
-80.086
21
76.047
62
0
0
LINE
8
1
10
-80.086
20
76.047
11
-79.794
21
76.004
62
0
0
LINE
8
1
10
-79.794
20
76.004
11
-15.204
21
76.004
62
0
0
LINE
8
1
10
-15.204
20
76.004
11
-14.912
21
76.047
62
0
0
LINE
8
1
10
-188.564
20
88.16
11
-188.564
21
95.24
62
0
0
LINE
8
1
10
-188.564
20
95.24
11
-185.434
21
95.24
62
0
0
LINE
8
1
10
-185.434
20
95.24
11
-185.434
21
88.16
62
0
0
LINE
8
1
10
-185.434
20
88.16
11
-188.564
21
88.16
62
0
0
CIRCLE
8
1
10
150
20
92.856
40
2.01482
62
0
0
CIRCLE
8
1
10
-17.498
20
91.999
40
2.01481
62
0
0
CIRCLE
8
1
10
-35.498
20
91.999
40
2.01481
62
0
0
CIRCLE
8
1
10
-59.498
20
91.999
40
2.0148
62
0
0
CIRCLE
8
1
10
-77.498
20
91.999
40
2.0148
62
0
0
LINE
8
1
10
-85.912
20
73.047
11
-85.598
21
73.128
62
0
0
LINE
8
1
10
-85.598
20
73.128
11
-85.081
21
73.345
62
0
0
LINE
8
1
10
-85.081
20
73.345
11
-84.59
21
73.672
62
0
0
LINE
8
1
10
-84.59
20
73.672
11
-84.173
21
74.089
62
0
0
LINE
8
1
10
-84.173
20
74.089
11
-83.844
21
74.58
62
0
0
LINE
8
1
10
-83.844
20
74.58
11
-83.718
21
74.847
62
0
0
LINE
8
1
10
-83.718
20
74.847
11
-83.547
21
75.412
62
0
0
LINE
8
1
10
-83.547
20
75.412
11
-83.503
21
75.704
62
0
0
LINE
8
1
10
-83.503
20
75.704
11
-83.502
21
75.73
62
0
0
LINE
8
1
10
-83.502
20
75.73
11
-83.501
21
75.731
62
0
0
LINE
8
1
10
-83.501
20
75.731
11
-83.503
21
90.294
62
0
0
LINE
8
1
10
-83.503
20
90.294
11
-83.547
21
90.587
62
0
0
LINE
8
1
10
-83.547
20
90.587
11
-83.718
21
91.151
62
0
0
LINE
8
1
10
-83.718
20
91.151
11
-83.844
21
91.419
62
0
0
LINE
8
1
10
-83.844
20
91.419
11
-84.172
21
91.909
62
0
0
LINE
8
1
10
-84.172
20
91.909
11
-84.589
21
92.326
62
0
0
LINE
8
1
10
-84.589
20
92.326
11
-85.08
21
92.654
62
0
0
LINE
8
1
10
-85.08
20
92.654
11
-85.347
21
92.78
62
0
0
LINE
8
1
10
-85.347
20
92.78
11
-85.912
21
92.952
62
0
0
LINE
8
1
10
-85.912
20
92.952
11
-86.204
21
92.995
62
0
0
LINE
8
1
10
-86.204
20
92.995
11
-150.794
21
92.995
62
0
0
LINE
8
1
10
-150.794
20
92.995
11
-151.086
21
92.952
62
0
0
LINE
8
1
10
-151.086
20
92.952
11
-151.4
21
92.871
62
0
0
LINE
8
1
10
-151.4
20
92.871
11
-151.917
21
92.654
62
0
0
LINE
8
1
10
-151.917
20
92.654
11
-152.408
21
92.327
62
0
0
LINE
8
1
10
-152.408
20
92.327
11
-152.825
21
91.91
62
0
0
LINE
8
1
10
-152.825
20
91.91
11
-153.154
21
91.419
62
0
0
LINE
8
1
10
-153.154
20
91.419
11
-153.28
21
91.152
62
0
0
LINE
8
1
10
-153.28
20
91.152
11
-153.451
21
90.587
62
0
0
LINE
8
1
10
-153.451
20
90.587
11
-153.495
21
90.295
62
0
0
LINE
8
1
10
-153.495
20
90.295
11
-153.495
21
75.704
62
0
0
LINE
8
1
10
-153.495
20
75.704
11
-153.451
21
75.412
62
0
0
LINE
8
1
10
-153.451
20
75.412
11
-153.28
21
74.848
62
0
0
LINE
8
1
10
-153.28
20
74.848
11
-153.154
21
74.58
62
0
0
LINE
8
1
10
-153.154
20
74.58
11
-152.826
21
74.09
62
0
0
LINE
8
1
10
-152.826
20
74.09
11
-152.409
21
73.673
62
0
0
LINE
8
1
10
-152.409
20
73.673
11
-151.918
21
73.345
62
0
0
LINE
8
1
10
-151.918
20
73.345
11
-151.651
21
73.219
62
0
0
LINE
8
1
10
-151.651
20
73.219
11
-151.086
21
73.047
62
0
0
LINE
8
1
10
-151.086
20
73.047
11
-150.794
21
73.004
62
0
0
LINE
8
1
10
-150.794
20
73.004
11
-86.204
21
73.004
62
0
0
LINE
8
1
10
-86.204
20
73.004
11
-85.912
21
73.047
62
0
0
CIRCLE
8
1
10
124.5
20
89.999
40
2.01481
62
0
0
CIRCLE
8
1
10
106.5
20
89.999
40
2.01481
62
0
0
CIRCLE
8
1
10
82.5
20
89.999
40
2.0148
62
0
0
CIRCLE
8
1
10
64.5
20
89.999
40
2.0148
62
0
0
CIRCLE
8
1
10
53.5
20
89.999
40
2.01481
62
0
0
CIRCLE
8
1
10
35.5
20
89.999
40
2.01481
62
0
0
CIRCLE
8
1
10
11.5
20
89.999
40
2.0148
62
0
0
CIRCLE
8
1
10
-6.498
20
89.999
40
2.0148
62
0
0
CIRCLE
8
1
10
-88.498
20
88.999
40
2.01481
62
0
0
CIRCLE
8
1
10
-106.498
20
88.999
40
2.01481
62
0
0
CIRCLE
8
1
10
-130.498
20
88.999
40
2.0148
62
0
0
CIRCLE
8
1
10
-148.498
20
88.999
40
2.0148
62
0
0
LINE
8
1
10
184.736
20
57.991
11
184.639
21
58.208
62
0
0
LINE
8
1
10
184.639
20
58.208
11
184.568
21
58.437
62
0
0
LINE
8
1
10
184.568
20
58.437
11
184.525
21
58.672
62
0
0
LINE
8
1
10
184.525
20
58.672
11
184.511
21
58.939
62
0
0
LINE
8
1
10
184.511
20
58.939
11
184.528
21
59.201
62
0
0
LINE
8
1
10
184.528
20
59.201
11
184.581
21
59.46
62
0
0
LINE
8
1
10
184.581
20
59.46
11
184.58
21
59.46
62
0
0
LINE
8
1
10
184.58
20
59.46
11
184.666
21
59.709
62
0
0
LINE
8
1
10
184.666
20
59.709
11
184.783
21
59.943
62
0
0
LINE
8
1
10
184.783
20
59.943
11
184.93
21
60.161
62
0
0
LINE
8
1
10
184.93
20
60.161
11
185.106
21
60.358
62
0
0
LINE
8
1
10
185.106
20
60.358
11
185.106
21
60.357
62
0
0
LINE
8
1
10
185.106
20
60.357
11
185.48
21
60.678
62
0
0
LINE
8
1
10
185.48
20
60.678
11
185.637
21
60.844
62
0
0
LINE
8
1
10
185.637
20
60.844
11
185.773
21
61.026
62
0
0
LINE
8
1
10
185.773
20
61.026
11
185.889
21
61.224
62
0
0
LINE
8
1
10
185.889
20
61.224
11
186.511
21
62.854
62
0
0
LINE
8
1
10
186.511
20
62.854
11
186.436
21
80.168
62
0
0
LINE
8
1
10
186.436
20
80.168
11
186.212
21
81.463
62
0
0
LINE
8
1
10
186.212
20
81.463
11
185.842
21
82.724
62
0
0
LINE
8
1
10
185.842
20
82.724
11
185.33
21
83.934
62
0
0
LINE
8
1
10
185.33
20
83.934
11
184.684
21
85.079
62
0
0
LINE
8
1
10
184.684
20
85.079
11
183.912
21
86.142
62
0
0
LINE
8
1
10
183.912
20
86.142
11
183.023
21
87.11
62
0
0
LINE
8
1
10
183.023
20
87.11
11
182.029
21
87.971
62
0
0
LINE
8
1
10
182.029
20
87.971
11
180.945
21
88.712
62
0
0
LINE
8
1
10
180.945
20
88.712
11
179.782
21
89.326
62
0
0
LINE
8
1
10
179.782
20
89.326
11
178.558
21
89.802
62
0
0
LINE
8
1
10
178.558
20
89.802
11
177.287
21
90.137
62
0
0
LINE
8
1
10
177.287
20
90.137
11
175.986
21
90.324
62
0
0
LINE
8
1
10
175.986
20
90.324
11
174.673
21
90.361
62
0
0
LINE
8
1
10
174.673
20
90.361
11
173.363
21
90.249
62
0
0
LINE
8
1
10
173.363
20
90.249
11
172.075
21
89.988
62
0
0
LINE
8
1
10
172.075
20
89.988
11
170.826
21
89.582
62
0
0
LINE
8
1
10
170.826
20
89.582
11
169.63
21
89.036
62
0
0
LINE
8
1
10
169.63
20
89.036
11
168.505
21
88.357
62
0
0
LINE
8
1
10
168.505
20
88.357
11
167.464
21
87.555
62
0
0
LINE
8
1
10
167.464
20
87.555
11
166.521
21
86.639
62
0
0
LINE
8
1
10
166.521
20
86.639
11
165.689
21
85.622
62
0
0
LINE
8
1
10
165.689
20
85.622
11
164.978
21
84.516
62
0
0
LINE
8
1
10
164.978
20
84.516
11
164.399
21
83.337
62
0
0
LINE
8
1
10
164.399
20
83.337
11
163.957
21
82.099
62
0
0
LINE
8
1
10
163.957
20
82.099
11
163.659
21
80.819
62
0
0
LINE
8
1
10
163.659
20
80.819
11
163.51
21
79.514
62
0
0
LINE
8
1
10
163.51
20
79.514
11
163.491
21
62.854
62
0
0
LINE
8
1
10
163.491
20
62.854
11
164.371
21
60.528
62
0
0
LINE
8
1
10
164.371
20
60.528
11
164.476
21
60.344
62
0
0
LINE
8
1
10
164.476
20
60.344
11
164.67
21
60.087
62
0
0
LINE
8
1
10
164.67
20
60.087
11
164.997
21
59.758
62
0
0
LINE
8
1
10
164.997
20
59.758
11
165.144
21
59.569
62
0
0
LINE
8
1
10
165.144
20
59.569
11
165.266
21
59.365
62
0
0
LINE
8
1
10
165.266
20
59.365
11
165.363
21
59.147
62
0
0
LINE
8
1
10
165.363
20
59.147
11
165.434
21
58.918
62
0
0
LINE
8
1
10
165.434
20
58.918
11
165.477
21
58.683
62
0
0
LINE
8
1
10
165.477
20
58.683
11
165.491
21
58.416
62
0
0
LINE
8
1
10
165.491
20
58.416
11
165.474
21
58.153
62
0
0
LINE
8
1
10
165.474
20
58.153
11
165.421
21
57.895
62
0
0
LINE
8
1
10
165.421
20
57.895
11
165.422
21
57.895
62
0
0
LINE
8
1
10
165.422
20
57.895
11
165.336
21
57.647
62
0
0
LINE
8
1
10
165.336
20
57.647
11
165.218
21
57.411
62
0
0
LINE
8
1
10
165.218
20
57.411
11
165.071
21
57.194
62
0
0
LINE
8
1
10
165.071
20
57.194
11
164.896
21
56.997
62
0
0
LINE
8
1
10
164.896
20
56.997
11
164.896
21
56.998
62
0
0
LINE
8
1
10
164.896
20
56.998
11
164.522
21
56.678
62
0
0
LINE
8
1
10
164.522
20
56.678
11
164.365
21
56.511
62
0
0
LINE
8
1
10
164.365
20
56.511
11
164.229
21
56.329
62
0
0
LINE
8
1
10
164.229
20
56.329
11
164.113
21
56.132
62
0
0
LINE
8
1
10
164.113
20
56.132
11
163.618
21
54.842
62
0
0
LINE
8
1
10
163.618
20
54.842
11
163.548
21
54.616
62
0
0
LINE
8
1
10
163.548
20
54.616
11
163.495
21
54.26
62
0
0
LINE
8
1
10
163.495
20
54.26
11
163.494
21
32.753
62
0
0
LINE
8
1
10
163.494
20
32.753
11
163.524
21
32.499
62
0
0
LINE
8
1
10
163.524
20
32.499
11
163.58
21
32.27
62
0
0
LINE
8
1
10
163.58
20
32.27
11
164.022
21
31.076
62
0
0
LINE
8
1
10
164.022
20
31.076
11
164.113
21
30.867
62
0
0
LINE
8
1
10
164.113
20
30.867
11
164.229
21
30.67
62
0
0
LINE
8
1
10
164.229
20
30.67
11
164.365
21
30.488
62
0
0
LINE
8
1
10
164.365
20
30.488
11
164.522
21
30.321
62
0
0
LINE
8
1
10
164.522
20
30.321
11
164.897
21
30.001
62
0
0
LINE
8
1
10
164.897
20
30.001
11
165.072
21
29.804
62
0
0
LINE
8
1
10
165.072
20
29.804
11
165.219
21
29.586
62
0
0
LINE
8
1
10
165.219
20
29.586
11
165.336
21
29.352
62
0
0
LINE
8
1
10
165.336
20
29.352
11
165.422
21
29.104
62
0
0
LINE
8
1
10
165.422
20
29.104
11
165.421
21
29.104
62
0
0
LINE
8
1
10
165.421
20
29.104
11
165.474
21
28.845
62
0
0
LINE
8
1
10
165.474
20
28.845
11
165.491
21
28.552
62
0
0
LINE
8
1
10
165.491
20
28.552
11
165.477
21
28.314
62
0
0
LINE
8
1
10
165.477
20
28.314
11
165.434
21
28.08
62
0
0
LINE
8
1
10
165.434
20
28.08
11
165.363
21
27.852
62
0
0
LINE
8
1
10
165.363
20
27.852
11
165.266
21
27.634
62
0
0
LINE
8
1
10
165.266
20
27.634
11
165.143
21
27.429
62
0
0
LINE
8
1
10
165.143
20
27.429
11
164.996
21
27.24
62
0
0
LINE
8
1
10
164.996
20
27.24
11
164.599
21
26.827
62
0
0
LINE
8
1
10
164.599
20
26.827
11
164.476
21
26.655
62
0
0
LINE
8
1
10
164.476
20
26.655
11
164.371
21
26.471
62
0
0
LINE
8
1
10
164.371
20
26.471
11
163.581
21
24.373
62
0
0
LINE
8
1
10
163.581
20
24.373
11
163.524
21
24.145
62
0
0
LINE
8
1
10
163.524
20
24.145
11
163.495
21
23.904
62
0
0
LINE
8
1
10
163.495
20
23.904
11
163.51
21
7.486
62
0
0
LINE
8
1
10
163.51
20
7.486
11
163.659
21
6.181
62
0
0
LINE
8
1
10
163.659
20
6.181
11
163.957
21
4.9
62
0
0
LINE
8
1
10
163.957
20
4.9
11
164.399
21
3.662
62
0
0
LINE
8
1
10
164.399
20
3.662
11
164.978
21
2.483
62
0
0
LINE
8
1
10
164.978
20
2.483
11
165.689
21
1.377
62
0
0
LINE
8
1
10
165.689
20
1.377
11
166.52
21
0.36
62
0
0
LINE
8
1
10
166.52
20
0.36
11
167.463
21
-0.554
62
0
0
LINE
8
1
10
167.463
20
-0.554
11
168.504
21
-1.357
62
0
0
LINE
8
1
10
168.504
20
-1.357
11
169.629
21
-2.036
62
0
0
LINE
8
1
10
169.629
20
-2.036
11
170.825
21
-2.582
62
0
0
LINE
8
1
10
170.825
20
-2.582
11
172.074
21
-2.988
62
0
0
LINE
8
1
10
172.074
20
-2.988
11
173.362
21
-3.249
62
0
0
LINE
8
1
10
173.362
20
-3.249
11
174.672
21
-3.361
62
0
0
LINE
8
1
10
174.672
20
-3.361
11
175.986
21
-3.324
62
0
0
LINE
8
1
10
175.986
20
-3.324
11
177.287
21
-3.137
62
0
0
LINE
8
1
10
177.287
20
-3.137
11
178.558
21
-2.803
62
0
0
LINE
8
1
10
178.558
20
-2.803
11
179.782
21
-2.326
62
0
0
LINE
8
1
10
179.782
20
-2.326
11
180.945
21
-1.713
62
0
0
LINE
8
1
10
180.945
20
-1.713
11
182.029
21
-0.971
62
0
0
LINE
8
1
10
182.029
20
-0.971
11
183.023
21
-0.11
62
0
0
LINE
8
1
10
183.023
20
-0.11
11
183.912
21
0.856
62
0
0
LINE
8
1
10
183.912
20
0.856
11
184.683
21
1.919
62
0
0
LINE
8
1
10
184.683
20
1.919
11
185.33
21
3.064
62
0
0
LINE
8
1
10
185.33
20
3.064
11
185.841
21
4.274
62
0
0
LINE
8
1
10
185.841
20
4.274
11
186.212
21
5.535
62
0
0
LINE
8
1
10
186.212
20
5.535
11
186.436
21
6.831
62
0
0
LINE
8
1
10
186.436
20
6.831
11
186.511
21
23.782
62
0
0
LINE
8
1
10
186.511
20
23.782
11
186.496
21
24.024
62
0
0
LINE
8
1
10
186.496
20
24.024
11
186.454
21
24.259
62
0
0
LINE
8
1
10
186.454
20
24.259
11
185.98
21
25.565
62
0
0
LINE
8
1
10
185.98
20
25.565
11
185.889
21
25.775
62
0
0
LINE
8
1
10
185.889
20
25.775
11
185.773
21
25.973
62
0
0
LINE
8
1
10
185.773
20
25.973
11
185.637
21
26.155
62
0
0
LINE
8
1
10
185.637
20
26.155
11
185.48
21
26.321
62
0
0
LINE
8
1
10
185.48
20
26.321
11
185.105
21
26.642
62
0
0
LINE
8
1
10
185.105
20
26.642
11
184.93
21
26.838
62
0
0
LINE
8
1
10
184.93
20
26.838
11
184.783
21
27.056
62
0
0
LINE
8
1
10
184.783
20
27.056
11
184.666
21
27.29
62
0
0
LINE
8
1
10
184.666
20
27.29
11
184.58
21
27.539
62
0
0
LINE
8
1
10
184.58
20
27.539
11
184.581
21
27.539
62
0
0
LINE
8
1
10
184.581
20
27.539
11
184.528
21
27.798
62
0
0
LINE
8
1
10
184.528
20
27.798
11
184.511
21
28.09
62
0
0
LINE
8
1
10
184.511
20
28.09
11
184.525
21
28.329
62
0
0
LINE
8
1
10
184.525
20
28.329
11
184.568
21
28.562
62
0
0
LINE
8
1
10
184.568
20
28.562
11
184.639
21
28.791
62
0
0
LINE
8
1
10
184.639
20
28.791
11
184.736
21
29.008
62
0
0
LINE
8
1
10
184.736
20
29.008
11
184.858
21
29.213
62
0
0
LINE
8
1
10
184.858
20
29.213
11
185.005
21
29.401
62
0
0
LINE
8
1
10
185.005
20
29.401
11
185.403
21
29.815
62
0
0
LINE
8
1
10
185.403
20
29.815
11
185.526
21
29.987
62
0
0
LINE
8
1
10
185.526
20
29.987
11
185.631
21
30.172
62
0
0
LINE
8
1
10
185.631
20
30.172
11
186.421
21
32.269
62
0
0
LINE
8
1
10
186.421
20
32.269
11
186.478
21
32.498
62
0
0
LINE
8
1
10
186.478
20
32.498
11
186.507
21
32.739
62
0
0
LINE
8
1
10
186.507
20
32.739
11
186.508
21
54.246
62
0
0
LINE
8
1
10
186.508
20
54.246
11
186.478
21
54.501
62
0
0
LINE
8
1
10
186.478
20
54.501
11
186.422
21
54.729
62
0
0
LINE
8
1
10
186.422
20
54.729
11
185.631
21
56.827
62
0
0
LINE
8
1
10
185.631
20
56.827
11
185.526
21
57.012
62
0
0
LINE
8
1
10
185.526
20
57.012
11
185.254
21
57.351
62
0
0
LINE
8
1
10
185.254
20
57.351
11
185.005
21
57.599
62
0
0
LINE
8
1
10
185.005
20
57.599
11
184.858
21
57.786
62
0
0
LINE
8
1
10
184.858
20
57.786
11
184.736
21
57.991
62
0
0
CIRCLE
8
1
10
144
20
86.856
40
2.01482
62
0
0
CIRCLE
8
1
10
150
20
86.856
40
2.01482
62
0
0
CIRCLE
8
1
10
156
20
86.856
40
2.01482
62
0
0
CIRCLE
8
1
10
-17.498
20
85.999
40
2.01481
62
0
0
CIRCLE
8
1
10
-35.498
20
85.999
40
2.01481
62
0
0
CIRCLE
8
1
10
-59.498
20
85.999
40
2.0148
62
0
0
CIRCLE
8
1
10
-77.498
20
85.999
40
2.0148
62
0
0
LINE
8
1
10
-164.564
20
80.16
11
-164.564
21
87.24
62
0
0
LINE
8
1
10
-164.564
20
87.24
11
-161.434
21
87.24
62
0
0
LINE
8
1
10
-161.434
20
87.24
11
-161.434
21
80.16
62
0
0
LINE
8
1
10
-161.434
20
80.16
11
-164.564
21
80.16
62
0
0
CIRCLE
8
1
10
175.001
20
84.856
40
2.01482
62
0
0
CIRCLE
8
1
10
124.5
20
83.999
40
2.01481
62
0
0
CIRCLE
8
1
10
106.5
20
83.999
40
2.01481
62
0
0
CIRCLE
8
1
10
82.5
20
83.999
40
2.0148
62
0
0
CIRCLE
8
1
10
64.5
20
83.999
40
2.0148
62
0
0
CIRCLE
8
1
10
53.5
20
83.999
40
2.01481
62
0
0
CIRCLE
8
1
10
35.5
20
83.999
40
2.01481
62
0
0
CIRCLE
8
1
10
11.5
20
83.999
40
2.0148
62
0
0
CIRCLE
8
1
10
-6.498
20
83.999
40
2.0148
62
0
0
CIRCLE
8
1
10
-88.498
20
82.999
40
2.01481
62
0
0
CIRCLE
8
1
10
-106.498
20
82.999
40
2.01481
62
0
0
CIRCLE
8
1
10
-130.498
20
82.999
40
2.0148
62
0
0
CIRCLE
8
1
10
-148.498
20
82.999
40
2.0148
62
0
0
CIRCLE
8
1
10
150
20
80.856
40
2.01482
62
0
0
CIRCLE
8
1
10
-17.498
20
79.999
40
2.01481
62
0
0
CIRCLE
8
1
10
-35.498
20
79.999
40
2.01481
62
0
0
CIRCLE
8
1
10
-59.498
20
79.999
40
2.0148
62
0
0
CIRCLE
8
1
10
-77.498
20
79.999
40
2.0148
62
0
0
LINE
8
1
10
-188.564
20
74.16
11
-188.564
21
81.24
62
0
0
LINE
8
1
10
-188.564
20
81.24
11
-185.434
21
81.24
62
0
0
LINE
8
1
10
-185.434
20
81.24
11
-185.434
21
74.16
62
0
0
LINE
8
1
10
-185.434
20
74.16
11
-188.564
21
74.16
62
0
0
CIRCLE
8
1
10
169.001
20
78.856
40
2.01482
62
0
0
CIRCLE
8
1
10
175.001
20
78.856
40
2.01482
62
0
0
CIRCLE
8
1
10
181.001
20
78.856
40
2.01482
62
0
0
CIRCLE
8
1
10
-88.498
20
76.999
40
2.01481
62
0
0
CIRCLE
8
1
10
-106.498
20
76.999
40
2.01481
62
0
0
CIRCLE
8
1
10
-130.498
20
76.999
40
2.0148
62
0
0
CIRCLE
8
1
10
-148.498
20
76.999
40
2.0148
62
0
0
LINE
8
1
10
106.087
20
59.047
11
106.401
21
59.128
62
0
0
LINE
8
1
10
106.401
20
59.128
11
106.918
21
59.345
62
0
0
LINE
8
1
10
106.918
20
59.345
11
107.409
21
59.672
62
0
0
LINE
8
1
10
107.409
20
59.672
11
107.826
21
60.089
62
0
0
LINE
8
1
10
107.826
20
60.089
11
108.155
21
60.58
62
0
0
LINE
8
1
10
108.155
20
60.58
11
108.281
21
60.847
62
0
0
LINE
8
1
10
108.281
20
60.847
11
108.452
21
61.412
62
0
0
LINE
8
1
10
108.452
20
61.412
11
108.496
21
61.704
62
0
0
LINE
8
1
10
108.496
20
61.704
11
108.497
21
61.73
62
0
0
LINE
8
1
10
108.497
20
61.73
11
108.498
21
61.731
62
0
0
LINE
8
1
10
108.498
20
61.731
11
108.496
21
76.294
62
0
0
LINE
8
1
10
108.496
20
76.294
11
108.452
21
76.587
62
0
0
LINE
8
1
10
108.452
20
76.587
11
108.281
21
77.151
62
0
0
LINE
8
1
10
108.281
20
77.151
11
108.155
21
77.419
62
0
0
LINE
8
1
10
108.155
20
77.419
11
107.827
21
77.909
62
0
0
LINE
8
1
10
107.827
20
77.909
11
107.41
21
78.326
62
0
0
LINE
8
1
10
107.41
20
78.326
11
106.919
21
78.654
62
0
0
LINE
8
1
10
106.919
20
78.654
11
106.652
21
78.78
62
0
0
LINE
8
1
10
106.652
20
78.78
11
106.087
21
78.952
62
0
0
LINE
8
1
10
106.087
20
78.952
11
105.795
21
78.995
62
0
0
LINE
8
1
10
105.795
20
78.995
11
41.205
21
78.995
62
0
0
LINE
8
1
10
41.205
20
78.995
11
40.913
21
78.952
62
0
0
LINE
8
1
10
40.913
20
78.952
11
40.599
21
78.871
62
0
0
LINE
8
1
10
40.599
20
78.871
11
40.082
21
78.654
62
0
0
LINE
8
1
10
40.082
20
78.654
11
39.591
21
78.327
62
0
0
LINE
8
1
10
39.591
20
78.327
11
39.174
21
77.91
62
0
0
LINE
8
1
10
39.174
20
77.91
11
38.845
21
77.419
62
0
0
LINE
8
1
10
38.845
20
77.419
11
38.719
21
77.152
62
0
0
LINE
8
1
10
38.719
20
77.152
11
38.548
21
76.587
62
0
0
LINE
8
1
10
38.548
20
76.587
11
38.504
21
76.295
62
0
0
LINE
8
1
10
38.504
20
76.295
11
38.504
21
61.704
62
0
0
LINE
8
1
10
38.504
20
61.704
11
38.548
21
61.412
62
0
0
LINE
8
1
10
38.548
20
61.412
11
38.719
21
60.848
62
0
0
LINE
8
1
10
38.719
20
60.848
11
38.845
21
60.58
62
0
0
LINE
8
1
10
38.845
20
60.58
11
39.173
21
60.09
62
0
0
LINE
8
1
10
39.173
20
60.09
11
39.59
21
59.673
62
0
0
LINE
8
1
10
39.59
20
59.673
11
40.081
21
59.345
62
0
0
LINE
8
1
10
40.081
20
59.345
11
40.348
21
59.219
62
0
0
LINE
8
1
10
40.348
20
59.219
11
40.913
21
59.047
62
0
0
LINE
8
1
10
40.913
20
59.047
11
41.205
21
59.004
62
0
0
LINE
8
1
10
41.205
20
59.004
11
105.795
21
59.004
62
0
0
LINE
8
1
10
105.795
20
59.004
11
106.087
21
59.047
62
0
0
CIRCLE
8
1
10
103.5
20
74.999
40
2.01481
62
0
0
CIRCLE
8
1
10
85.5
20
74.999
40
2.01481
62
0
0
CIRCLE
8
1
10
61.5
20
74.999
40
2.0148
62
0
0
CIRCLE
8
1
10
43.5
20
74.999
40
2.0148
62
0
0
CIRCLE
8
1
10
-162.999
20
74.699
40
2.03991
62
0
0
CIRCLE
8
1
10
175.001
20
72.856
40
2.01482
62
0
0
LINE
8
1
10
-25.569
20
72.857
11
-25.758
21
73.004
62
0
0
LINE
8
1
10
-25.758
20
73.004
11
-26.171
21
73.401
62
0
0
LINE
8
1
10
-26.171
20
73.401
11
-26.343
21
73.524
62
0
0
LINE
8
1
10
-26.343
20
73.524
11
-26.527
21
73.629
62
0
0
LINE
8
1
10
-26.527
20
73.629
11
-28.625
21
74.419
62
0
0
LINE
8
1
10
-28.625
20
74.419
11
-28.853
21
74.476
62
0
0
LINE
8
1
10
-28.853
20
74.476
11
-29.094
21
74.505
62
0
0
LINE
8
1
10
-29.094
20
74.505
11
-45.512
21
74.49
62
0
0
LINE
8
1
10
-45.512
20
74.49
11
-46.817
21
74.341
62
0
0
LINE
8
1
10
-46.817
20
74.341
11
-48.098
21
74.043
62
0
0
LINE
8
1
10
-48.098
20
74.043
11
-49.336
21
73.601
62
0
0
LINE
8
1
10
-49.336
20
73.601
11
-50.515
21
73.022
62
0
0
LINE
8
1
10
-50.515
20
73.022
11
-51.621
21
72.311
62
0
0
LINE
8
1
10
-51.621
20
72.311
11
-52.638
21
71.48
62
0
0
LINE
8
1
10
-52.638
20
71.48
11
-53.553
21
70.537
62
0
0
LINE
8
1
10
-53.553
20
70.537
11
-54.356
21
69.496
62
0
0
LINE
8
1
10
-54.356
20
69.496
11
-55.035
21
68.371
62
0
0
LINE
8
1
10
-55.035
20
68.371
11
-55.581
21
67.175
62
0
0
LINE
8
1
10
-55.581
20
67.175
11
-55.987
21
65.926
62
0
0
LINE
8
1
10
-55.987
20
65.926
11
-56.248
21
64.638
62
0
0
LINE
8
1
10
-56.248
20
64.638
11
-56.36
21
63.328
62
0
0
LINE
8
1
10
-56.36
20
63.328
11
-56.323
21
62.014
62
0
0
LINE
8
1
10
-56.323
20
62.014
11
-56.136
21
60.713
62
0
0
LINE
8
1
10
-56.136
20
60.713
11
-55.802
21
59.442
62
0
0
LINE
8
1
10
-55.802
20
59.442
11
-55.325
21
58.218
62
0
0
LINE
8
1
10
-55.325
20
58.218
11
-54.712
21
57.055
62
0
0
LINE
8
1
10
-54.712
20
57.055
11
-53.97
21
55.971
62
0
0
LINE
8
1
10
-53.97
20
55.971
11
-53.109
21
54.977
62
0
0
LINE
8
1
10
-53.109
20
54.977
11
-52.142
21
54.088
62
0
0
LINE
8
1
10
-52.142
20
54.088
11
-51.079
21
53.317
62
0
0
LINE
8
1
10
-51.079
20
53.317
11
-49.934
21
52.67
62
0
0
LINE
8
1
10
-49.934
20
52.67
11
-48.724
21
52.159
62
0
0
LINE
8
1
10
-48.724
20
52.159
11
-47.463
21
51.788
62
0
0
LINE
8
1
10
-47.463
20
51.788
11
-46.167
21
51.564
62
0
0
LINE
8
1
10
-46.167
20
51.564
11
-29.216
21
51.489
62
0
0
LINE
8
1
10
-29.216
20
51.489
11
-28.974
21
51.504
62
0
0
LINE
8
1
10
-28.974
20
51.504
11
-28.739
21
51.546
62
0
0
LINE
8
1
10
-28.739
20
51.546
11
-27.433
21
52.02
62
0
0
LINE
8
1
10
-27.433
20
52.02
11
-27.223
21
52.111
62
0
0
LINE
8
1
10
-27.223
20
52.111
11
-27.025
21
52.227
62
0
0
LINE
8
1
10
-27.025
20
52.227
11
-26.843
21
52.363
62
0
0
LINE
8
1
10
-26.843
20
52.363
11
-26.677
21
52.52
62
0
0
LINE
8
1
10
-26.677
20
52.52
11
-26.357
21
52.894
62
0
0
LINE
8
1
10
-26.357
20
52.894
11
-26.161
21
53.069
62
0
0
LINE
8
1
10
-26.161
20
53.069
11
-25.942
21
53.217
62
0
0
LINE
8
1
10
-25.942
20
53.217
11
-25.708
21
53.334
62
0
0
LINE
8
1
10
-25.708
20
53.334
11
-25.459
21
53.42
62
0
0
LINE
8
1
10
-25.459
20
53.42
11
-25.459
21
53.419
62
0
0
LINE
8
1
10
-25.459
20
53.419
11
-25.2
21
53.472
62
0
0
LINE
8
1
10
-25.2
20
53.472
11
-24.909
21
53.489
62
0
0
LINE
8
1
10
-24.909
20
53.489
11
-24.671
21
53.475
62
0
0
LINE
8
1
10
-24.671
20
53.475
11
-24.436
21
53.432
62
0
0
LINE
8
1
10
-24.436
20
53.432
11
-24.207
21
53.361
62
0
0
LINE
8
1
10
-24.207
20
53.361
11
-23.99
21
53.264
62
0
0
LINE
8
1
10
-23.99
20
53.264
11
-23.784
21
53.141
62
0
0
LINE
8
1
10
-23.784
20
53.141
11
-23.596
21
52.994
62
0
0
LINE
8
1
10
-23.596
20
52.994
11
-23.183
21
52.597
62
0
0
LINE
8
1
10
-23.183
20
52.597
11
-23.011
21
52.474
62
0
0
LINE
8
1
10
-23.011
20
52.474
11
-22.826
21
52.369
62
0
0
LINE
8
1
10
-22.826
20
52.369
11
-20.729
21
51.579
62
0
0
LINE
8
1
10
-20.729
20
51.579
11
-20.501
21
51.522
62
0
0
LINE
8
1
10
-20.501
20
51.522
11
-20.259
21
51.493
62
0
0
LINE
8
1
10
-20.259
20
51.493
11
1.247
21
51.492
62
0
0
LINE
8
1
10
1.247
20
51.492
11
1.502
21
51.522
62
0
0
LINE
8
1
10
1.502
20
51.522
11
1.73
21
51.578
62
0
0
LINE
8
1
10
1.73
20
51.578
11
3.828
21
52.369
62
0
0
LINE
8
1
10
3.828
20
52.369
11
4.013
21
52.474
62
0
0
LINE
8
1
10
4.013
20
52.474
11
4.352
21
52.746
62
0
0
LINE
8
1
10
4.352
20
52.746
11
4.6
21
52.995
62
0
0
LINE
8
1
10
4.6
20
52.995
11
4.786
21
53.141
62
0
0
LINE
8
1
10
4.786
20
53.141
11
4.992
21
53.264
62
0
0
LINE
8
1
10
4.992
20
53.264
11
5.209
21
53.361
62
0
0
LINE
8
1
10
5.209
20
53.361
11
5.438
21
53.432
62
0
0
LINE
8
1
10
5.438
20
53.432
11
5.673
21
53.475
62
0
0
LINE
8
1
10
5.673
20
53.475
11
5.939
21
53.489
62
0
0
LINE
8
1
10
5.939
20
53.489
11
6.202
21
53.472
62
0
0
LINE
8
1
10
6.202
20
53.472
11
6.461
21
53.419
62
0
0
LINE
8
1
10
6.461
20
53.419
11
6.461
21
53.42
62
0
0
LINE
8
1
10
6.461
20
53.42
11
6.71
21
53.334
62
0
0
LINE
8
1
10
6.71
20
53.334
11
6.944
21
53.217
62
0
0
LINE
8
1
10
6.944
20
53.217
11
7.163
21
53.069
62
0
0
LINE
8
1
10
7.163
20
53.069
11
7.359
21
52.894
62
0
0
LINE
8
1
10
7.359
20
52.894
11
7.358
21
52.894
62
0
0
LINE
8
1
10
7.358
20
52.894
11
7.679
21
52.52
62
0
0
LINE
8
1
10
7.679
20
52.52
11
7.845
21
52.363
62
0
0
LINE
8
1
10
7.845
20
52.363
11
8.027
21
52.227
62
0
0
LINE
8
1
10
8.027
20
52.227
11
8.225
21
52.111
62
0
0
LINE
8
1
10
8.225
20
52.111
11
9.855
21
51.489
62
0
0
LINE
8
1
10
9.855
20
51.489
11
27.169
21
51.564
62
0
0
LINE
8
1
10
27.169
20
51.564
11
28.464
21
51.788
62
0
0
LINE
8
1
10
28.464
20
51.788
11
29.725
21
52.158
62
0
0
LINE
8
1
10
29.725
20
52.158
11
30.935
21
52.67
62
0
0
LINE
8
1
10
30.935
20
52.67
11
32.08
21
53.316
62
0
0
LINE
8
1
10
32.08
20
53.316
11
33.143
21
54.088
62
0
0
LINE
8
1
10
33.143
20
54.088
11
34.111
21
54.977
62
0
0
LINE
8
1
10
34.111
20
54.977
11
34.972
21
55.971
62
0
0
LINE
8
1
10
34.972
20
55.971
11
35.713
21
57.055
62
0
0
LINE
8
1
10
35.713
20
57.055
11
36.327
21
58.218
62
0
0
LINE
8
1
10
36.327
20
58.218
11
36.803
21
59.442
62
0
0
LINE
8
1
10
36.803
20
59.442
11
37.138
21
60.713
62
0
0
LINE
8
1
10
37.138
20
60.713
11
37.325
21
62.014
62
0
0
LINE
8
1
10
37.325
20
62.014
11
37.362
21
63.327
62
0
0
LINE
8
1
10
37.362
20
63.327
11
37.25
21
64.637
62
0
0
LINE
8
1
10
37.25
20
64.637
11
36.989
21
65.925
62
0
0
LINE
8
1
10
36.989
20
65.925
11
36.583
21
67.174
62
0
0
LINE
8
1
10
36.583
20
67.174
11
36.037
21
68.37
62
0
0
LINE
8
1
10
36.037
20
68.37
11
35.358
21
69.495
62
0
0
LINE
8
1
10
35.358
20
69.495
11
34.556
21
70.536
62
0
0
LINE
8
1
10
34.556
20
70.536
11
33.64
21
71.479
62
0
0
LINE
8
1
10
33.64
20
71.479
11
32.623
21
72.311
62
0
0
LINE
8
1
10
32.623
20
72.311
11
31.517
21
73.022
62
0
0
LINE
8
1
10
31.517
20
73.022
11
30.338
21
73.601
62
0
0
LINE
8
1
10
30.338
20
73.601
11
29.1
21
74.043
62
0
0
LINE
8
1
10
29.1
20
74.043
11
27.82
21
74.341
62
0
0
LINE
8
1
10
27.82
20
74.341
11
26.515
21
74.49
62
0
0
LINE
8
1
10
26.515
20
74.49
11
9.855
21
74.509
62
0
0
LINE
8
1
10
9.855
20
74.509
11
7.529
21
73.629
62
0
0
LINE
8
1
10
7.529
20
73.629
11
7.345
21
73.524
62
0
0
LINE
8
1
10
7.345
20
73.524
11
7.088
21
73.33
62
0
0
LINE
8
1
10
7.088
20
73.33
11
6.759
21
73.003
62
0
0
LINE
8
1
10
6.759
20
73.003
11
6.571
21
72.857
62
0
0
LINE
8
1
10
6.571
20
72.857
11
6.366
21
72.734
62
0
0
LINE
8
1
10
6.366
20
72.734
11
6.148
21
72.637
62
0
0
LINE
8
1
10
6.148
20
72.637
11
5.919
21
72.566
62
0
0
LINE
8
1
10
5.919
20
72.566
11
5.684
21
72.523
62
0
0
LINE
8
1
10
5.684
20
72.523
11
5.418
21
72.509
62
0
0
LINE
8
1
10
5.418
20
72.509
11
5.155
21
72.526
62
0
0
LINE
8
1
10
5.155
20
72.526
11
4.896
21
72.579
62
0
0
LINE
8
1
10
4.896
20
72.579
11
4.896
21
72.578
62
0
0
LINE
8
1
10
4.896
20
72.578
11
4.648
21
72.664
62
0
0
LINE
8
1
10
4.648
20
72.664
11
4.414
21
72.781
62
0
0
LINE
8
1
10
4.414
20
72.781
11
4.195
21
72.929
62
0
0
LINE
8
1
10
4.195
20
72.929
11
3.998
21
73.104
62
0
0
LINE
8
1
10
3.998
20
73.104
11
3.999
21
73.104
62
0
0
LINE
8
1
10
3.999
20
73.104
11
3.679
21
73.478
62
0
0
LINE
8
1
10
3.679
20
73.478
11
3.512
21
73.635
62
0
0
LINE
8
1
10
3.512
20
73.635
11
3.33
21
73.771
62
0
0
LINE
8
1
10
3.33
20
73.771
11
3.133
21
73.887
62
0
0
LINE
8
1
10
3.133
20
73.887
11
1.843
21
74.382
62
0
0
LINE
8
1
10
1.843
20
74.382
11
1.617
21
74.452
62
0
0
LINE
8
1
10
1.617
20
74.452
11
1.261
21
74.505
62
0
0
LINE
8
1
10
1.261
20
74.505
11
-20.245
21
74.506
62
0
0
LINE
8
1
10
-20.245
20
74.506
11
-20.5
21
74.476
62
0
0
LINE
8
1
10
-20.5
20
74.476
11
-20.728
21
74.42
62
0
0
LINE
8
1
10
-20.728
20
74.42
11
-21.922
21
73.978
62
0
0
LINE
8
1
10
-21.922
20
73.978
11
-22.131
21
73.887
62
0
0
LINE
8
1
10
-22.131
20
73.887
11
-22.328
21
73.771
62
0
0
LINE
8
1
10
-22.328
20
73.771
11
-22.51
21
73.635
62
0
0
LINE
8
1
10
-22.51
20
73.635
11
-22.677
21
73.478
62
0
0
LINE
8
1
10
-22.677
20
73.478
11
-22.997
21
73.103
62
0
0
LINE
8
1
10
-22.997
20
73.103
11
-23.194
21
72.928
62
0
0
LINE
8
1
10
-23.194
20
72.928
11
-23.412
21
72.781
62
0
0
LINE
8
1
10
-23.412
20
72.781
11
-23.646
21
72.664
62
0
0
LINE
8
1
10
-23.646
20
72.664
11
-23.894
21
72.578
62
0
0
LINE
8
1
10
-23.894
20
72.578
11
-23.894
21
72.579
62
0
0
LINE
8
1
10
-23.894
20
72.579
11
-24.153
21
72.526
62
0
0
LINE
8
1
10
-24.153
20
72.526
11
-24.445
21
72.509
62
0
0
LINE
8
1
10
-24.445
20
72.509
11
-24.682
21
72.523
62
0
0
LINE
8
1
10
-24.682
20
72.523
11
-24.917
21
72.566
62
0
0
LINE
8
1
10
-24.917
20
72.566
11
-25.146
21
72.637
62
0
0
LINE
8
1
10
-25.146
20
72.637
11
-25.364
21
72.734
62
0
0
LINE
8
1
10
-25.364
20
72.734
11
-25.569
21
72.857
62
0
0
LINE
8
1
10
-120.569
20
69.857
11
-120.758
21
70.004
62
0
0
LINE
8
1
10
-120.758
20
70.004
11
-121.171
21
70.401
62
0
0
LINE
8
1
10
-121.171
20
70.401
11
-121.343
21
70.524
62
0
0
LINE
8
1
10
-121.343
20
70.524
11
-121.527
21
70.629
62
0
0
LINE
8
1
10
-121.527
20
70.629
11
-123.625
21
71.419
62
0
0
LINE
8
1
10
-123.625
20
71.419
11
-123.853
21
71.476
62
0
0
LINE
8
1
10
-123.853
20
71.476
11
-124.094
21
71.505
62
0
0
LINE
8
1
10
-124.094
20
71.505
11
-140.512
21
71.49
62
0
0
LINE
8
1
10
-140.512
20
71.49
11
-141.817
21
71.341
62
0
0
LINE
8
1
10
-141.817
20
71.341
11
-143.098
21
71.043
62
0
0
LINE
8
1
10
-143.098
20
71.043
11
-144.336
21
70.601
62
0
0
LINE
8
1
10
-144.336
20
70.601
11
-145.515
21
70.022
62
0
0
LINE
8
1
10
-145.515
20
70.022
11
-146.621
21
69.311
62
0
0
LINE
8
1
10
-146.621
20
69.311
11
-147.638
21
68.48
62
0
0
LINE
8
1
10
-147.638
20
68.48
11
-148.553
21
67.537
62
0
0
LINE
8
1
10
-148.553
20
67.537
11
-149.356
21
66.496
62
0
0
LINE
8
1
10
-149.356
20
66.496
11
-150.035
21
65.371
62
0
0
LINE
8
1
10
-150.035
20
65.371
11
-150.581
21
64.175
62
0
0
LINE
8
1
10
-150.581
20
64.175
11
-150.987
21
62.926
62
0
0
LINE
8
1
10
-150.987
20
62.926
11
-151.248
21
61.638
62
0
0
LINE
8
1
10
-151.248
20
61.638
11
-151.36
21
60.328
62
0
0
LINE
8
1
10
-151.36
20
60.328
11
-151.323
21
59.014
62
0
0
LINE
8
1
10
-151.323
20
59.014
11
-151.136
21
57.713
62
0
0
LINE
8
1
10
-151.136
20
57.713
11
-150.802
21
56.442
62
0
0
LINE
8
1
10
-150.802
20
56.442
11
-150.325
21
55.218
62
0
0
LINE
8
1
10
-150.325
20
55.218
11
-149.712
21
54.055
62
0
0
LINE
8
1
10
-149.712
20
54.055
11
-148.97
21
52.971
62
0
0
LINE
8
1
10
-148.97
20
52.971
11
-148.109
21
51.977
62
0
0
LINE
8
1
10
-148.109
20
51.977
11
-147.142
21
51.088
62
0
0
LINE
8
1
10
-147.142
20
51.088
11
-146.079
21
50.317
62
0
0
LINE
8
1
10
-146.079
20
50.317
11
-144.934
21
49.67
62
0
0
LINE
8
1
10
-144.934
20
49.67
11
-143.724
21
49.159
62
0
0
LINE
8
1
10
-143.724
20
49.159
11
-142.463
21
48.788
62
0
0
LINE
8
1
10
-142.463
20
48.788
11
-141.167
21
48.564
62
0
0
LINE
8
1
10
-141.167
20
48.564
11
-124.216
21
48.489
62
0
0
LINE
8
1
10
-124.216
20
48.489
11
-123.974
21
48.504
62
0
0
LINE
8
1
10
-123.974
20
48.504
11
-123.739
21
48.546
62
0
0
LINE
8
1
10
-123.739
20
48.546
11
-122.433
21
49.02
62
0
0
LINE
8
1
10
-122.433
20
49.02
11
-122.223
21
49.111
62
0
0
LINE
8
1
10
-122.223
20
49.111
11
-122.025
21
49.227
62
0
0
LINE
8
1
10
-122.025
20
49.227
11
-121.843
21
49.363
62
0
0
LINE
8
1
10
-121.843
20
49.363
11
-121.677
21
49.52
62
0
0
LINE
8
1
10
-121.677
20
49.52
11
-121.357
21
49.894
62
0
0
LINE
8
1
10
-121.357
20
49.894
11
-121.161
21
50.069
62
0
0
LINE
8
1
10
-121.161
20
50.069
11
-120.942
21
50.217
62
0
0
LINE
8
1
10
-120.942
20
50.217
11
-120.708
21
50.334
62
0
0
LINE
8
1
10
-120.708
20
50.334
11
-120.459
21
50.42
62
0
0
LINE
8
1
10
-120.459
20
50.42
11
-120.459
21
50.419
62
0
0
LINE
8
1
10
-120.459
20
50.419
11
-120.2
21
50.472
62
0
0
LINE
8
1
10
-120.2
20
50.472
11
-119.909
21
50.489
62
0
0
LINE
8
1
10
-119.909
20
50.489
11
-119.671
21
50.475
62
0
0
LINE
8
1
10
-119.671
20
50.475
11
-119.436
21
50.432
62
0
0
LINE
8
1
10
-119.436
20
50.432
11
-119.207
21
50.361
62
0
0
LINE
8
1
10
-119.207
20
50.361
11
-118.99
21
50.264
62
0
0
LINE
8
1
10
-118.99
20
50.264
11
-118.784
21
50.141
62
0
0
LINE
8
1
10
-118.784
20
50.141
11
-118.596
21
49.994
62
0
0
LINE
8
1
10
-118.596
20
49.994
11
-118.183
21
49.597
62
0
0
LINE
8
1
10
-118.183
20
49.597
11
-118.011
21
49.474
62
0
0
LINE
8
1
10
-118.011
20
49.474
11
-117.826
21
49.369
62
0
0
LINE
8
1
10
-117.826
20
49.369
11
-115.729
21
48.579
62
0
0
LINE
8
1
10
-115.729
20
48.579
11
-115.501
21
48.522
62
0
0
LINE
8
1
10
-115.501
20
48.522
11
-115.259
21
48.493
62
0
0
LINE
8
1
10
-115.259
20
48.493
11
-93.752
21
48.492
62
0
0
LINE
8
1
10
-93.752
20
48.492
11
-93.498
21
48.522
62
0
0
LINE
8
1
10
-93.498
20
48.522
11
-93.269
21
48.578
62
0
0
LINE
8
1
10
-93.269
20
48.578
11
-91.171
21
49.369
62
0
0
LINE
8
1
10
-91.171
20
49.369
11
-90.986
21
49.474
62
0
0
LINE
8
1
10
-90.986
20
49.474
11
-90.647
21
49.746
62
0
0
LINE
8
1
10
-90.647
20
49.746
11
-90.399
21
49.995
62
0
0
LINE
8
1
10
-90.399
20
49.995
11
-90.213
21
50.141
62
0
0
LINE
8
1
10
-90.213
20
50.141
11
-90.007
21
50.264
62
0
0
LINE
8
1
10
-90.007
20
50.264
11
-89.79
21
50.361
62
0
0
LINE
8
1
10
-89.79
20
50.361
11
-89.561
21
50.432
62
0
0
LINE
8
1
10
-89.561
20
50.432
11
-89.326
21
50.475
62
0
0
LINE
8
1
10
-89.326
20
50.475
11
-89.06
21
50.489
62
0
0
LINE
8
1
10
-89.06
20
50.489
11
-88.797
21
50.472
62
0
0
LINE
8
1
10
-88.797
20
50.472
11
-88.538
21
50.419
62
0
0
LINE
8
1
10
-88.538
20
50.419
11
-88.538
21
50.42
62
0
0
LINE
8
1
10
-88.538
20
50.42
11
-88.289
21
50.334
62
0
0
LINE
8
1
10
-88.289
20
50.334
11
-88.055
21
50.217
62
0
0
LINE
8
1
10
-88.055
20
50.217
11
-87.836
21
50.069
62
0
0
LINE
8
1
10
-87.836
20
50.069
11
-87.64
21
49.894
62
0
0
LINE
8
1
10
-87.64
20
49.894
11
-87.641
21
49.894
62
0
0
LINE
8
1
10
-87.641
20
49.894
11
-87.32
21
49.52
62
0
0
LINE
8
1
10
-87.32
20
49.52
11
-87.154
21
49.363
62
0
0
LINE
8
1
10
-87.154
20
49.363
11
-86.972
21
49.227
62
0
0
LINE
8
1
10
-86.972
20
49.227
11
-86.774
21
49.111
62
0
0
LINE
8
1
10
-86.774
20
49.111
11
-85.144
21
48.489
62
0
0
LINE
8
1
10
-85.144
20
48.489
11
-67.83
21
48.564
62
0
0
LINE
8
1
10
-67.83
20
48.564
11
-66.535
21
48.788
62
0
0
LINE
8
1
10
-66.535
20
48.788
11
-65.274
21
49.158
62
0
0
LINE
8
1
10
-65.274
20
49.158
11
-64.064
21
49.67
62
0
0
LINE
8
1
10
-64.064
20
49.67
11
-62.919
21
50.316
62
0
0
LINE
8
1
10
-62.919
20
50.316
11
-61.856
21
51.088
62
0
0
LINE
8
1
10
-61.856
20
51.088
11
-60.888
21
51.977
62
0
0
LINE
8
1
10
-60.888
20
51.977
11
-60.027
21
52.971
62
0
0
LINE
8
1
10
-60.027
20
52.971
11
-59.286
21
54.055
62
0
0
LINE
8
1
10
-59.286
20
54.055
11
-58.672
21
55.218
62
0
0
LINE
8
1
10
-58.672
20
55.218
11
-58.196
21
56.442
62
0
0
LINE
8
1
10
-58.196
20
56.442
11
-57.861
21
57.713
62
0
0
LINE
8
1
10
-57.861
20
57.713
11
-57.674
21
59.014
62
0
0
LINE
8
1
10
-57.674
20
59.014
11
-57.637
21
60.327
62
0
0
LINE
8
1
10
-57.637
20
60.327
11
-57.749
21
61.637
62
0
0
LINE
8
1
10
-57.749
20
61.637
11
-58.01
21
62.925
62
0
0
LINE
8
1
10
-58.01
20
62.925
11
-58.416
21
64.174
62
0
0
LINE
8
1
10
-58.416
20
64.174
11
-58.962
21
65.37
62
0
0
LINE
8
1
10
-58.962
20
65.37
11
-59.641
21
66.495
62
0
0
LINE
8
1
10
-59.641
20
66.495
11
-60.443
21
67.536
62
0
0
LINE
8
1
10
-60.443
20
67.536
11
-61.359
21
68.479
62
0
0
LINE
8
1
10
-61.359
20
68.479
11
-62.376
21
69.311
62
0
0
LINE
8
1
10
-62.376
20
69.311
11
-63.482
21
70.022
62
0
0
LINE
8
1
10
-63.482
20
70.022
11
-64.661
21
70.601
62
0
0
LINE
8
1
10
-64.661
20
70.601
11
-65.899
21
71.043
62
0
0
LINE
8
1
10
-65.899
20
71.043
11
-67.179
21
71.341
62
0
0
LINE
8
1
10
-67.179
20
71.341
11
-68.484
21
71.49
62
0
0
LINE
8
1
10
-68.484
20
71.49
11
-85.144
21
71.509
62
0
0
LINE
8
1
10
-85.144
20
71.509
11
-87.47
21
70.629
62
0
0
LINE
8
1
10
-87.47
20
70.629
11
-87.654
21
70.524
62
0
0
LINE
8
1
10
-87.654
20
70.524
11
-87.911
21
70.33
62
0
0
LINE
8
1
10
-87.911
20
70.33
11
-88.24
21
70.003
62
0
0
LINE
8
1
10
-88.24
20
70.003
11
-88.428
21
69.857
62
0
0
LINE
8
1
10
-88.428
20
69.857
11
-88.633
21
69.734
62
0
0
LINE
8
1
10
-88.633
20
69.734
11
-88.851
21
69.637
62
0
0
LINE
8
1
10
-88.851
20
69.637
11
-89.08
21
69.566
62
0
0
LINE
8
1
10
-89.08
20
69.566
11
-89.315
21
69.523
62
0
0
LINE
8
1
10
-89.315
20
69.523
11
-89.581
21
69.509
62
0
0
LINE
8
1
10
-89.581
20
69.509
11
-89.844
21
69.526
62
0
0
LINE
8
1
10
-89.844
20
69.526
11
-90.103
21
69.579
62
0
0
LINE
8
1
10
-90.103
20
69.579
11
-90.103
21
69.578
62
0
0
LINE
8
1
10
-90.103
20
69.578
11
-90.351
21
69.664
62
0
0
LINE
8
1
10
-90.351
20
69.664
11
-90.585
21
69.781
62
0
0
LINE
8
1
10
-90.585
20
69.781
11
-90.804
21
69.929
62
0
0
LINE
8
1
10
-90.804
20
69.929
11
-91.001
21
70.104
62
0
0
LINE
8
1
10
-91.001
20
70.104
11
-91
21
70.104
62
0
0
LINE
8
1
10
-91
20
70.104
11
-91.32
21
70.478
62
0
0
LINE
8
1
10
-91.32
20
70.478
11
-91.487
21
70.635
62
0
0
LINE
8
1
10
-91.487
20
70.635
11
-91.669
21
70.771
62
0
0
LINE
8
1
10
-91.669
20
70.771
11
-91.866
21
70.887
62
0
0
LINE
8
1
10
-91.866
20
70.887
11
-93.156
21
71.382
62
0
0
LINE
8
1
10
-93.156
20
71.382
11
-93.382
21
71.452
62
0
0
LINE
8
1
10
-93.382
20
71.452
11
-93.738
21
71.505
62
0
0
LINE
8
1
10
-93.738
20
71.505
11
-115.245
21
71.506
62
0
0
LINE
8
1
10
-115.245
20
71.506
11
-115.5
21
71.476
62
0
0
LINE
8
1
10
-115.5
20
71.476
11
-115.728
21
71.42
62
0
0
LINE
8
1
10
-115.728
20
71.42
11
-116.922
21
70.978
62
0
0
LINE
8
1
10
-116.922
20
70.978
11
-117.131
21
70.887
62
0
0
LINE
8
1
10
-117.131
20
70.887
11
-117.328
21
70.771
62
0
0
LINE
8
1
10
-117.328
20
70.771
11
-117.51
21
70.635
62
0
0
LINE
8
1
10
-117.51
20
70.635
11
-117.677
21
70.478
62
0
0
LINE
8
1
10
-117.677
20
70.478
11
-117.997
21
70.103
62
0
0
LINE
8
1
10
-117.997
20
70.103
11
-118.194
21
69.928
62
0
0
LINE
8
1
10
-118.194
20
69.928
11
-118.412
21
69.781
62
0
0
LINE
8
1
10
-118.412
20
69.781
11
-118.646
21
69.664
62
0
0
LINE
8
1
10
-118.646
20
69.664
11
-118.894
21
69.578
62
0
0
LINE
8
1
10
-118.894
20
69.578
11
-118.894
21
69.579
62
0
0
LINE
8
1
10
-118.894
20
69.579
11
-119.153
21
69.526
62
0
0
LINE
8
1
10
-119.153
20
69.526
11
-119.445
21
69.509
62
0
0
LINE
8
1
10
-119.445
20
69.509
11
-119.682
21
69.523
62
0
0
LINE
8
1
10
-119.682
20
69.523
11
-119.917
21
69.566
62
0
0
LINE
8
1
10
-119.917
20
69.566
11
-120.146
21
69.637
62
0
0
LINE
8
1
10
-120.146
20
69.637
11
-120.364
21
69.734
62
0
0
LINE
8
1
10
-120.364
20
69.734
11
-120.569
21
69.857
62
0
0
CIRCLE
8
1
10
103.5
20
68.999
40
2.01481
62
0
0
CIRCLE
8
1
10
85.5
20
68.999
40
2.01481
62
0
0
CIRCLE
8
1
10
61.5
20
68.999
40
2.0148
62
0
0
CIRCLE
8
1
10
43.5
20
68.999
40
2.0148
62
0
0
CIRCLE
8
1
10
25.856
20
68.999
40
2.01485
62
0
0
CIRCLE
8
1
10
-44.855
20
68.999
40
2.01484
62
0
0
CIRCLE
8
1
10
-186.999
20
68.699
40
2.03991
62
0
0
CIRCLE
8
1
10
-14.498
20
67.999
40
1.48989
62
0
0
CIRCLE
8
1
10
-4.498
20
67.999
40
1.48989
62
0
0
LINE
8
1
10
-164.564
20
62.16
11
-164.564
21
69.24
62
0
0
LINE
8
1
10
-164.564
20
69.24
11
-161.434
21
69.24
62
0
0
LINE
8
1
10
-161.434
20
69.24
11
-161.434
21
62.16
62
0
0
LINE
8
1
10
-161.434
20
62.16
11
-164.564
21
62.16
62
0
0
CIRCLE
8
1
10
-69.142
20
65.999
40
2.01484
62
0
0
CIRCLE
8
1
10
-139.855
20
65.999
40
2.01484
62
0
0
CIRCLE
8
1
10
-109.498
20
64.999
40
1.48989
62
0
0
CIRCLE
8
1
10
-99.498
20
64.999
40
1.48989
62
0
0
CIRCLE
8
1
10
103.5
20
62.999
40
2.01476
62
0
0
CIRCLE
8
1
10
85.5
20
62.999
40
2.01476
62
0
0
CIRCLE
8
1
10
61.5
20
62.999
40
2.0148
62
0
0
CIRCLE
8
1
10
43.5
20
62.999
40
2.0148
62
0
0
CIRCLE
8
1
10
31.856
20
62.999
40
2.01485
62
0
0
CIRCLE
8
1
10
25.856
20
62.999
40
2.01485
62
0
0
CIRCLE
8
1
10
19.856
20
62.999
40
2.01485
62
0
0
CIRCLE
8
1
10
-38.855
20
62.999
40
2.01484
62
0
0
CIRCLE
8
1
10
-44.855
20
62.999
40
2.01484
62
0
0
CIRCLE
8
1
10
-50.855
20
62.999
40
2.01484
62
0
0
LINE
8
1
10
-188.564
20
56.16
11
-188.564
21
63.24
62
0
0
LINE
8
1
10
-188.564
20
63.24
11
-185.434
21
63.24
62
0
0
LINE
8
1
10
-185.434
20
63.24
11
-185.434
21
56.16
62
0
0
LINE
8
1
10
-185.434
20
56.16
11
-188.564
21
56.16
62
0
0
CIRCLE
8
1
10
-63.142
20
59.999
40
2.01484
62
0
0
CIRCLE
8
1
10
-69.142
20
59.999
40
2.01484
62
0
0
CIRCLE
8
1
10
-75.142
20
59.999
40
2.01484
62
0
0
CIRCLE
8
1
10
-133.855
20
59.999
40
2.01484
62
0
0
CIRCLE
8
1
10
-139.855
20
59.999
40
2.01484
62
0
0
CIRCLE
8
1
10
-145.855
20
59.999
40
2.01484
62
0
0
CIRCLE
8
1
10
-14.498
20
57.999
40
1.48989
62
0
0
CIRCLE
8
1
10
-4.498
20
57.999
40
1.48992
62
0
0
CIRCLE
8
1
10
25.856
20
56.999
40
2.01485
62
0
0
CIRCLE
8
1
10
-44.855
20
56.999
40
2.01484
62
0
0
CIRCLE
8
1
10
145
20
56.499
40
1.48989
62
0
0
CIRCLE
8
1
10
155
20
56.499
40
1.48989
62
0
0
LINE
8
1
10
70.43
20
55.857
11
70.241
21
56.004
62
0
0
LINE
8
1
10
70.241
20
56.004
11
69.828
21
56.401
62
0
0
LINE
8
1
10
69.828
20
56.401
11
69.656
21
56.524
62
0
0
LINE
8
1
10
69.656
20
56.524
11
69.472
21
56.629
62
0
0
LINE
8
1
10
69.472
20
56.629
11
67.374
21
57.419
62
0
0
LINE
8
1
10
67.374
20
57.419
11
67.146
21
57.476
62
0
0
LINE
8
1
10
67.146
20
57.476
11
66.905
21
57.505
62
0
0
LINE
8
1
10
66.905
20
57.505
11
50.487
21
57.49
62
0
0
LINE
8
1
10
50.487
20
57.49
11
49.182
21
57.341
62
0
0
LINE
8
1
10
49.182
20
57.341
11
47.901
21
57.043
62
0
0
LINE
8
1
10
47.901
20
57.043
11
46.663
21
56.601
62
0
0
LINE
8
1
10
46.663
20
56.601
11
45.484
21
56.022
62
0
0
LINE
8
1
10
45.484
20
56.022
11
44.378
21
55.311
62
0
0
LINE
8
1
10
44.378
20
55.311
11
43.361
21
54.48
62
0
0
LINE
8
1
10
43.361
20
54.48
11
42.446
21
53.537
62
0
0
LINE
8
1
10
42.446
20
53.537
11
41.643
21
52.496
62
0
0
LINE
8
1
10
41.643
20
52.496
11
40.964
21
51.371
62
0
0
LINE
8
1
10
40.964
20
51.371
11
40.418
21
50.175
62
0
0
LINE
8
1
10
40.418
20
50.175
11
40.012
21
48.926
62
0
0
LINE
8
1
10
40.012
20
48.926
11
39.751
21
47.638
62
0
0
LINE
8
1
10
39.751
20
47.638
11
39.639
21
46.328
62
0
0
LINE
8
1
10
39.639
20
46.328
11
39.676
21
45.014
62
0
0
LINE
8
1
10
39.676
20
45.014
11
39.863
21
43.713
62
0
0
LINE
8
1
10
39.863
20
43.713
11
40.197
21
42.442
62
0
0
LINE
8
1
10
40.197
20
42.442
11
40.674
21
41.218
62
0
0
LINE
8
1
10
40.674
20
41.218
11
41.287
21
40.055
62
0
0
LINE
8
1
10
41.287
20
40.055
11
42.029
21
38.971
62
0
0
LINE
8
1
10
42.029
20
38.971
11
42.89
21
37.977
62
0
0
LINE
8
1
10
42.89
20
37.977
11
43.857
21
37.088
62
0
0
LINE
8
1
10
43.857
20
37.088
11
44.92
21
36.317
62
0
0
LINE
8
1
10
44.92
20
36.317
11
46.065
21
35.67
62
0
0
LINE
8
1
10
46.065
20
35.67
11
47.275
21
35.159
62
0
0
LINE
8
1
10
47.275
20
35.159
11
48.536
21
34.788
62
0
0
LINE
8
1
10
48.536
20
34.788
11
49.832
21
34.564
62
0
0
LINE
8
1
10
49.832
20
34.564
11
66.783
21
34.489
62
0
0
LINE
8
1
10
66.783
20
34.489
11
67.025
21
34.504
62
0
0
LINE
8
1
10
67.025
20
34.504
11
67.26
21
34.546
62
0
0
LINE
8
1
10
67.26
20
34.546
11
68.566
21
35.02
62
0
0
LINE
8
1
10
68.566
20
35.02
11
68.776
21
35.111
62
0
0
LINE
8
1
10
68.776
20
35.111
11
68.974
21
35.227
62
0
0
LINE
8
1
10
68.974
20
35.227
11
69.156
21
35.363
62
0
0
LINE
8
1
10
69.156
20
35.363
11
69.322
21
35.52
62
0
0
LINE
8
1
10
69.322
20
35.52
11
69.642
21
35.894
62
0
0
LINE
8
1
10
69.642
20
35.894
11
69.838
21
36.069
62
0
0
LINE
8
1
10
69.838
20
36.069
11
70.057
21
36.217
62
0
0
LINE
8
1
10
70.057
20
36.217
11
70.291
21
36.334
62
0
0
LINE
8
1
10
70.291
20
36.334
11
70.54
21
36.42
62
0
0
LINE
8
1
10
70.54
20
36.42
11
70.54
21
36.419
62
0
0
LINE
8
1
10
70.54
20
36.419
11
70.799
21
36.472
62
0
0
LINE
8
1
10
70.799
20
36.472
11
71.09
21
36.489
62
0
0
LINE
8
1
10
71.09
20
36.489
11
71.328
21
36.475
62
0
0
LINE
8
1
10
71.328
20
36.475
11
71.563
21
36.432
62
0
0
LINE
8
1
10
71.563
20
36.432
11
71.792
21
36.361
62
0
0
LINE
8
1
10
71.792
20
36.361
11
72.009
21
36.264
62
0
0
LINE
8
1
10
72.009
20
36.264
11
72.215
21
36.141
62
0
0
LINE
8
1
10
72.215
20
36.141
11
72.403
21
35.994
62
0
0
LINE
8
1
10
72.403
20
35.994
11
72.816
21
35.597
62
0
0
LINE
8
1
10
72.816
20
35.597
11
72.988
21
35.474
62
0
0
LINE
8
1
10
72.988
20
35.474
11
73.173
21
35.369
62
0
0
LINE
8
1
10
73.173
20
35.369
11
75.27
21
34.579
62
0
0
LINE
8
1
10
75.27
20
34.579
11
75.498
21
34.522
62
0
0
LINE
8
1
10
75.498
20
34.522
11
75.74
21
34.493
62
0
0
LINE
8
1
10
75.74
20
34.493
11
97.247
21
34.492
62
0
0
LINE
8
1
10
97.247
20
34.492
11
97.501
21
34.522
62
0
0
LINE
8
1
10
97.501
20
34.522
11
97.73
21
34.578
62
0
0
LINE
8
1
10
97.73
20
34.578
11
99.828
21
35.369
62
0
0
LINE
8
1
10
99.828
20
35.369
11
100.013
21
35.474
62
0
0
LINE
8
1
10
100.013
20
35.474
11
100.352
21
35.746
62
0
0
LINE
8
1
10
100.352
20
35.746
11
100.6
21
35.995
62
0
0
LINE
8
1
10
100.6
20
35.995
11
100.786
21
36.141
62
0
0
LINE
8
1
10
100.786
20
36.141
11
100.992
21
36.264
62
0
0
LINE
8
1
10
100.992
20
36.264
11
101.209
21
36.361
62
0
0
LINE
8
1
10
101.209
20
36.361
11
101.438
21
36.432
62
0
0
LINE
8
1
10
101.438
20
36.432
11
101.673
21
36.475
62
0
0
LINE
8
1
10
101.673
20
36.475
11
101.939
21
36.489
62
0
0
LINE
8
1
10
101.939
20
36.489
11
102.202
21
36.472
62
0
0
LINE
8
1
10
102.202
20
36.472
11
102.461
21
36.419
62
0
0
LINE
8
1
10
102.461
20
36.419
11
102.461
21
36.42
62
0
0
LINE
8
1
10
102.461
20
36.42
11
102.71
21
36.334
62
0
0
LINE
8
1
10
102.71
20
36.334
11
102.944
21
36.217
62
0
0
LINE
8
1
10
102.944
20
36.217
11
103.163
21
36.069
62
0
0
LINE
8
1
10
103.163
20
36.069
11
103.359
21
35.894
62
0
0
LINE
8
1
10
103.359
20
35.894
11
103.358
21
35.894
62
0
0
LINE
8
1
10
103.358
20
35.894
11
103.679
21
35.52
62
0
0
LINE
8
1
10
103.679
20
35.52
11
103.845
21
35.363
62
0
0
LINE
8
1
10
103.845
20
35.363
11
104.027
21
35.227
62
0
0
LINE
8
1
10
104.027
20
35.227
11
104.225
21
35.111
62
0
0
LINE
8
1
10
104.225
20
35.111
11
105.855
21
34.489
62
0
0
LINE
8
1
10
105.855
20
34.489
11
123.169
21
34.564
62
0
0
LINE
8
1
10
123.169
20
34.564
11
124.464
21
34.788
62
0
0
LINE
8
1
10
124.464
20
34.788
11
125.725
21
35.158
62
0
0
LINE
8
1
10
125.725
20
35.158
11
126.935
21
35.67
62
0
0
LINE
8
1
10
126.935
20
35.67
11
128.079
21
36.316
62
0
0
LINE
8
1
10
128.079
20
36.316
11
129.143
21
37.088
62
0
0
LINE
8
1
10
129.143
20
37.088
11
130.111
21
37.977
62
0
0
LINE
8
1
10
130.111
20
37.977
11
130.972
21
38.971
62
0
0
LINE
8
1
10
130.972
20
38.971
11
131.713
21
40.055
62
0
0
LINE
8
1
10
131.713
20
40.055
11
132.327
21
41.218
62
0
0
LINE
8
1
10
132.327
20
41.218
11
132.803
21
42.442
62
0
0
LINE
8
1
10
132.803
20
42.442
11
133.138
21
43.713
62
0
0
LINE
8
1
10
133.138
20
43.713
11
133.325
21
45.014
62
0
0
LINE
8
1
10
133.325
20
45.014
11
133.362
21
46.327
62
0
0
LINE
8
1
10
133.362
20
46.327
11
133.25
21
47.637
62
0
0
LINE
8
1
10
133.25
20
47.637
11
132.989
21
48.925
62
0
0
LINE
8
1
10
132.989
20
48.925
11
132.583
21
50.174
62
0
0
LINE
8
1
10
132.583
20
50.174
11
132.037
21
51.37
62
0
0
LINE
8
1
10
132.037
20
51.37
11
131.358
21
52.495
62
0
0
LINE
8
1
10
131.358
20
52.495
11
130.556
21
53.536
62
0
0
LINE
8
1
10
130.556
20
53.536
11
129.64
21
54.479
62
0
0
LINE
8
1
10
129.64
20
54.479
11
128.623
21
55.311
62
0
0
LINE
8
1
10
128.623
20
55.311
11
127.517
21
56.022
62
0
0
LINE
8
1
10
127.517
20
56.022
11
126.338
21
56.601
62
0
0
LINE
8
1
10
126.338
20
56.601
11
125.1
21
57.043
62
0
0
LINE
8
1
10
125.1
20
57.043
11
123.82
21
57.341
62
0
0
LINE
8
1
10
123.82
20
57.341
11
122.515
21
57.49
62
0
0
LINE
8
1
10
122.515
20
57.49
11
105.855
21
57.509
62
0
0
LINE
8
1
10
105.855
20
57.509
11
103.529
21
56.629
62
0
0
LINE
8
1
10
103.529
20
56.629
11
103.345
21
56.524
62
0
0
LINE
8
1
10
103.345
20
56.524
11
103.088
21
56.33
62
0
0
LINE
8
1
10
103.088
20
56.33
11
102.759
21
56.003
62
0
0
LINE
8
1
10
102.759
20
56.003
11
102.571
21
55.857
62
0
0
LINE
8
1
10
102.571
20
55.857
11
102.366
21
55.734
62
0
0
LINE
8
1
10
102.366
20
55.734
11
102.148
21
55.637
62
0
0
LINE
8
1
10
102.148
20
55.637
11
101.919
21
55.566
62
0
0
LINE
8
1
10
101.919
20
55.566
11
101.684
21
55.523
62
0
0
LINE
8
1
10
101.684
20
55.523
11
101.418
21
55.509
62
0
0
LINE
8
1
10
101.418
20
55.509
11
101.155
21
55.526
62
0
0
LINE
8
1
10
101.155
20
55.526
11
100.896
21
55.579
62
0
0
LINE
8
1
10
100.896
20
55.579
11
100.896
21
55.578
62
0
0
LINE
8
1
10
100.896
20
55.578
11
100.648
21
55.664
62
0
0
LINE
8
1
10
100.648
20
55.664
11
100.414
21
55.781
62
0
0
LINE
8
1
10
100.414
20
55.781
11
100.195
21
55.929
62
0
0
LINE
8
1
10
100.195
20
55.929
11
99.998
21
56.104
62
0
0
LINE
8
1
10
99.998
20
56.104
11
99.999
21
56.104
62
0
0
LINE
8
1
10
99.999
20
56.104
11
99.679
21
56.478
62
0
0
LINE
8
1
10
99.679
20
56.478
11
99.512
21
56.635
62
0
0
LINE
8
1
10
99.512
20
56.635
11
99.33
21
56.771
62
0
0
LINE
8
1
10
99.33
20
56.771
11
99.133
21
56.887
62
0
0
LINE
8
1
10
99.133
20
56.887
11
97.843
21
57.382
62
0
0
LINE
8
1
10
97.843
20
57.382
11
97.617
21
57.452
62
0
0
LINE
8
1
10
97.617
20
57.452
11
97.261
21
57.505
62
0
0
LINE
8
1
10
97.261
20
57.505
11
75.754
21
57.506
62
0
0
LINE
8
1
10
75.754
20
57.506
11
75.499
21
57.476
62
0
0
LINE
8
1
10
75.499
20
57.476
11
75.271
21
57.42
62
0
0
LINE
8
1
10
75.271
20
57.42
11
74.077
21
56.978
62
0
0
LINE
8
1
10
74.077
20
56.978
11
73.868
21
56.887
62
0
0
LINE
8
1
10
73.868
20
56.887
11
73.671
21
56.771
62
0
0
LINE
8
1
10
73.671
20
56.771
11
73.489
21
56.635
62
0
0
LINE
8
1
10
73.489
20
56.635
11
73.322
21
56.478
62
0
0
LINE
8
1
10
73.322
20
56.478
11
73.002
21
56.103
62
0
0
LINE
8
1
10
73.002
20
56.103
11
72.805
21
55.928
62
0
0
LINE
8
1
10
72.805
20
55.928
11
72.587
21
55.781
62
0
0
LINE
8
1
10
72.587
20
55.781
11
72.353
21
55.664
62
0
0
LINE
8
1
10
72.353
20
55.664
11
72.105
21
55.578
62
0
0
LINE
8
1
10
72.105
20
55.578
11
72.105
21
55.579
62
0
0
LINE
8
1
10
72.105
20
55.579
11
71.846
21
55.526
62
0
0
LINE
8
1
10
71.846
20
55.526
11
71.554
21
55.509
62
0
0
LINE
8
1
10
71.554
20
55.509
11
71.317
21
55.523
62
0
0
LINE
8
1
10
71.317
20
55.523
11
71.082
21
55.566
62
0
0
LINE
8
1
10
71.082
20
55.566
11
70.853
21
55.637
62
0
0
LINE
8
1
10
70.853
20
55.637
11
70.635
21
55.734
62
0
0
LINE
8
1
10
70.635
20
55.734
11
70.43
21
55.857
62
0
0
CIRCLE
8
1
10
-109.498
20
54.999
40
1.48989
62
0
0
CIRCLE
8
1
10
-99.498
20
54.999
40
1.48989
62
0
0
CIRCLE
8
1
10
-69.142
20
53.999
40
2.01484
62
0
0
CIRCLE
8
1
10
-139.855
20
53.999
40
2.01484
62
0
0
CIRCLE
8
1
10
121.856
20
51.999
40
2.01485
62
0
0
CIRCLE
8
1
10
51.143
20
51.999
40
2.01482
62
0
0
CIRCLE
8
1
10
81.5
20
50.999
40
1.48989
62
0
0
CIRCLE
8
1
10
91.5
20
50.999
40
1.48989
62
0
0
LINE
8
1
10
-24.569
20
48.857
11
-24.758
21
49.004
62
0
0
LINE
8
1
10
-24.758
20
49.004
11
-25.171
21
49.401
62
0
0
LINE
8
1
10
-25.171
20
49.401
11
-25.343
21
49.524
62
0
0
LINE
8
1
10
-25.343
20
49.524
11
-25.527
21
49.629
62
0
0
LINE
8
1
10
-25.527
20
49.629
11
-27.625
21
50.419
62
0
0
LINE
8
1
10
-27.625
20
50.419
11
-27.853
21
50.476
62
0
0
LINE
8
1
10
-27.853
20
50.476
11
-28.094
21
50.505
62
0
0
LINE
8
1
10
-28.094
20
50.505
11
-44.512
21
50.49
62
0
0
LINE
8
1
10
-44.512
20
50.49
11
-45.817
21
50.341
62
0
0
LINE
8
1
10
-45.817
20
50.341
11
-47.098
21
50.043
62
0
0
LINE
8
1
10
-47.098
20
50.043
11
-48.336
21
49.601
62
0
0
LINE
8
1
10
-48.336
20
49.601
11
-49.515
21
49.022
62
0
0
LINE
8
1
10
-49.515
20
49.022
11
-50.621
21
48.311
62
0
0
LINE
8
1
10
-50.621
20
48.311
11
-51.638
21
47.48
62
0
0
LINE
8
1
10
-51.638
20
47.48
11
-52.553
21
46.537
62
0
0
LINE
8
1
10
-52.553
20
46.537
11
-53.356
21
45.496
62
0
0
LINE
8
1
10
-53.356
20
45.496
11
-54.035
21
44.371
62
0
0
LINE
8
1
10
-54.035
20
44.371
11
-54.581
21
43.175
62
0
0
LINE
8
1
10
-54.581
20
43.175
11
-54.987
21
41.926
62
0
0
LINE
8
1
10
-54.987
20
41.926
11
-55.248
21
40.638
62
0
0
LINE
8
1
10
-55.248
20
40.638
11
-55.36
21
39.328
62
0
0
LINE
8
1
10
-55.36
20
39.328
11
-55.323
21
38.014
62
0
0
LINE
8
1
10
-55.323
20
38.014
11
-55.136
21
36.713
62
0
0
LINE
8
1
10
-55.136
20
36.713
11
-54.802
21
35.442
62
0
0
LINE
8
1
10
-54.802
20
35.442
11
-54.325
21
34.218
62
0
0
LINE
8
1
10
-54.325
20
34.218
11
-53.712
21
33.055
62
0
0
LINE
8
1
10
-53.712
20
33.055
11
-52.97
21
31.971
62
0
0
LINE
8
1
10
-52.97
20
31.971
11
-52.109
21
30.977
62
0
0
LINE
8
1
10
-52.109
20
30.977
11
-51.142
21
30.088
62
0
0
LINE
8
1
10
-51.142
20
30.088
11
-50.079
21
29.317
62
0
0
LINE
8
1
10
-50.079
20
29.317
11
-48.934
21
28.67
62
0
0
LINE
8
1
10
-48.934
20
28.67
11
-47.724
21
28.159
62
0
0
LINE
8
1
10
-47.724
20
28.159
11
-46.463
21
27.788
62
0
0
LINE
8
1
10
-46.463
20
27.788
11
-45.167
21
27.564
62
0
0
LINE
8
1
10
-45.167
20
27.564
11
-28.216
21
27.489
62
0
0
LINE
8
1
10
-28.216
20
27.489
11
-27.974
21
27.504
62
0
0
LINE
8
1
10
-27.974
20
27.504
11
-27.739
21
27.546
62
0
0
LINE
8
1
10
-27.739
20
27.546
11
-26.433
21
28.02
62
0
0
LINE
8
1
10
-26.433
20
28.02
11
-26.223
21
28.111
62
0
0
LINE
8
1
10
-26.223
20
28.111
11
-26.025
21
28.227
62
0
0
LINE
8
1
10
-26.025
20
28.227
11
-25.843
21
28.363
62
0
0
LINE
8
1
10
-25.843
20
28.363
11
-25.677
21
28.52
62
0
0
LINE
8
1
10
-25.677
20
28.52
11
-25.357
21
28.894
62
0
0
LINE
8
1
10
-25.357
20
28.894
11
-25.161
21
29.069
62
0
0
LINE
8
1
10
-25.161
20
29.069
11
-24.942
21
29.217
62
0
0
LINE
8
1
10
-24.942
20
29.217
11
-24.708
21
29.334
62
0
0
LINE
8
1
10
-24.708
20
29.334
11
-24.459
21
29.42
62
0
0
LINE
8
1
10
-24.459
20
29.42
11
-24.459
21
29.419
62
0
0
LINE
8
1
10
-24.459
20
29.419
11
-24.2
21
29.472
62
0
0
LINE
8
1
10
-24.2
20
29.472
11
-23.909
21
29.489
62
0
0
LINE
8
1
10
-23.909
20
29.489
11
-23.671
21
29.475
62
0
0
LINE
8
1
10
-23.671
20
29.475
11
-23.436
21
29.432
62
0
0
LINE
8
1
10
-23.436
20
29.432
11
-23.207
21
29.361
62
0
0
LINE
8
1
10
-23.207
20
29.361
11
-22.99
21
29.264
62
0
0
LINE
8
1
10
-22.99
20
29.264
11
-22.784
21
29.141
62
0
0
LINE
8
1
10
-22.784
20
29.141
11
-22.596
21
28.994
62
0
0
LINE
8
1
10
-22.596
20
28.994
11
-22.183
21
28.597
62
0
0
LINE
8
1
10
-22.183
20
28.597
11
-22.011
21
28.474
62
0
0
LINE
8
1
10
-22.011
20
28.474
11
-21.826
21
28.369
62
0
0
LINE
8
1
10
-21.826
20
28.369
11
-19.729
21
27.579
62
0
0
LINE
8
1
10
-19.729
20
27.579
11
-19.501
21
27.522
62
0
0
LINE
8
1
10
-19.501
20
27.522
11
-19.259
21
27.493
62
0
0
LINE
8
1
10
-19.259
20
27.493
11
2.247
21
27.492
62
0
0
LINE
8
1
10
2.247
20
27.492
11
2.502
21
27.522
62
0
0
LINE
8
1
10
2.502
20
27.522
11
2.73
21
27.578
62
0
0
LINE
8
1
10
2.73
20
27.578
11
4.828
21
28.369
62
0
0
LINE
8
1
10
4.828
20
28.369
11
5.013
21
28.474
62
0
0
LINE
8
1
10
5.013
20
28.474
11
5.352
21
28.746
62
0
0
LINE
8
1
10
5.352
20
28.746
11
5.6
21
28.995
62
0
0
LINE
8
1
10
5.6
20
28.995
11
5.786
21
29.141
62
0
0
LINE
8
1
10
5.786
20
29.141
11
5.992
21
29.264
62
0
0
LINE
8
1
10
5.992
20
29.264
11
6.209
21
29.361
62
0
0
LINE
8
1
10
6.209
20
29.361
11
6.438
21
29.432
62
0
0
LINE
8
1
10
6.438
20
29.432
11
6.673
21
29.475
62
0
0
LINE
8
1
10
6.673
20
29.475
11
6.939
21
29.489
62
0
0
LINE
8
1
10
6.939
20
29.489
11
7.202
21
29.472
62
0
0
LINE
8
1
10
7.202
20
29.472
11
7.461
21
29.419
62
0
0
LINE
8
1
10
7.461
20
29.419
11
7.461
21
29.42
62
0
0
LINE
8
1
10
7.461
20
29.42
11
7.71
21
29.334
62
0
0
LINE
8
1
10
7.71
20
29.334
11
7.944
21
29.217
62
0
0
LINE
8
1
10
7.944
20
29.217
11
8.163
21
29.069
62
0
0
LINE
8
1
10
8.163
20
29.069
11
8.359
21
28.894
62
0
0
LINE
8
1
10
8.359
20
28.894
11
8.358
21
28.894
62
0
0
LINE
8
1
10
8.358
20
28.894
11
8.679
21
28.52
62
0
0
LINE
8
1
10
8.679
20
28.52
11
8.845
21
28.363
62
0
0
LINE
8
1
10
8.845
20
28.363
11
9.027
21
28.227
62
0
0
LINE
8
1
10
9.027
20
28.227
11
9.225
21
28.111
62
0
0
LINE
8
1
10
9.225
20
28.111
11
10.855
21
27.489
62
0
0
LINE
8
1
10
10.855
20
27.489
11
28.169
21
27.564
62
0
0
LINE
8
1
10
28.169
20
27.564
11
29.464
21
27.788
62
0
0
LINE
8
1
10
29.464
20
27.788
11
30.725
21
28.158
62
0
0
LINE
8
1
10
30.725
20
28.158
11
31.935
21
28.67
62
0
0
LINE
8
1
10
31.935
20
28.67
11
33.08
21
29.316
62
0
0
LINE
8
1
10
33.08
20
29.316
11
34.143
21
30.088
62
0
0
LINE
8
1
10
34.143
20
30.088
11
35.111
21
30.977
62
0
0
LINE
8
1
10
35.111
20
30.977
11
35.972
21
31.971
62
0
0
LINE
8
1
10
35.972
20
31.971
11
36.713
21
33.055
62
0
0
LINE
8
1
10
36.713
20
33.055
11
37.327
21
34.218
62
0
0
LINE
8
1
10
37.327
20
34.218
11
37.803
21
35.442
62
0
0
LINE
8
1
10
37.803
20
35.442
11
38.138
21
36.713
62
0
0
LINE
8
1
10
38.138
20
36.713
11
38.325
21
38.014
62
0
0
LINE
8
1
10
38.325
20
38.014
11
38.362
21
39.327
62
0
0
LINE
8
1
10
38.362
20
39.327
11
38.25
21
40.637
62
0
0
LINE
8
1
10
38.25
20
40.637
11
37.989
21
41.925
62
0
0
LINE
8
1
10
37.989
20
41.925
11
37.583
21
43.174
62
0
0
LINE
8
1
10
37.583
20
43.174
11
37.037
21
44.37
62
0
0
LINE
8
1
10
37.037
20
44.37
11
36.358
21
45.495
62
0
0
LINE
8
1
10
36.358
20
45.495
11
35.556
21
46.536
62
0
0
LINE
8
1
10
35.556
20
46.536
11
34.64
21
47.479
62
0
0
LINE
8
1
10
34.64
20
47.479
11
33.623
21
48.311
62
0
0
LINE
8
1
10
33.623
20
48.311
11
32.517
21
49.022
62
0
0
LINE
8
1
10
32.517
20
49.022
11
31.338
21
49.601
62
0
0
LINE
8
1
10
31.338
20
49.601
11
30.1
21
50.043
62
0
0
LINE
8
1
10
30.1
20
50.043
11
28.82
21
50.341
62
0
0
LINE
8
1
10
28.82
20
50.341
11
27.515
21
50.49
62
0
0
LINE
8
1
10
27.515
20
50.49
11
10.855
21
50.509
62
0
0
LINE
8
1
10
10.855
20
50.509
11
8.529
21
49.629
62
0
0
LINE
8
1
10
8.529
20
49.629
11
8.345
21
49.524
62
0
0
LINE
8
1
10
8.345
20
49.524
11
8.088
21
49.33
62
0
0
LINE
8
1
10
8.088
20
49.33
11
7.759
21
49.003
62
0
0
LINE
8
1
10
7.759
20
49.003
11
7.571
21
48.857
62
0
0
LINE
8
1
10
7.571
20
48.857
11
7.366
21
48.734
62
0
0
LINE
8
1
10
7.366
20
48.734
11
7.148
21
48.637
62
0
0
LINE
8
1
10
7.148
20
48.637
11
6.919
21
48.566
62
0
0
LINE
8
1
10
6.919
20
48.566
11
6.684
21
48.523
62
0
0
LINE
8
1
10
6.684
20
48.523
11
6.418
21
48.509
62
0
0
LINE
8
1
10
6.418
20
48.509
11
6.155
21
48.526
62
0
0
LINE
8
1
10
6.155
20
48.526
11
5.896
21
48.579
62
0
0
LINE
8
1
10
5.896
20
48.579
11
5.896
21
48.578
62
0
0
LINE
8
1
10
5.896
20
48.578
11
5.648
21
48.664
62
0
0
LINE
8
1
10
5.648
20
48.664
11
5.414
21
48.781
62
0
0
LINE
8
1
10
5.414
20
48.781
11
5.195
21
48.929
62
0
0
LINE
8
1
10
5.195
20
48.929
11
4.998
21
49.104
62
0
0
LINE
8
1
10
4.998
20
49.104
11
4.999
21
49.104
62
0
0
LINE
8
1
10
4.999
20
49.104
11
4.679
21
49.478
62
0
0
LINE
8
1
10
4.679
20
49.478
11
4.512
21
49.635
62
0
0
LINE
8
1
10
4.512
20
49.635
11
4.33
21
49.771
62
0
0
LINE
8
1
10
4.33
20
49.771
11
4.133
21
49.887
62
0
0
LINE
8
1
10
4.133
20
49.887
11
2.843
21
50.382
62
0
0
LINE
8
1
10
2.843
20
50.382
11
2.617
21
50.452
62
0
0
LINE
8
1
10
2.617
20
50.452
11
2.261
21
50.505
62
0
0
LINE
8
1
10
2.261
20
50.505
11
-19.245
21
50.506
62
0
0
LINE
8
1
10
-19.245
20
50.506
11
-19.5
21
50.476
62
0
0
LINE
8
1
10
-19.5
20
50.476
11
-19.728
21
50.42
62
0
0
LINE
8
1
10
-19.728
20
50.42
11
-20.922
21
49.978
62
0
0
LINE
8
1
10
-20.922
20
49.978
11
-21.131
21
49.887
62
0
0
LINE
8
1
10
-21.131
20
49.887
11
-21.328
21
49.771
62
0
0
LINE
8
1
10
-21.328
20
49.771
11
-21.51
21
49.635
62
0
0
LINE
8
1
10
-21.51
20
49.635
11
-21.677
21
49.478
62
0
0
LINE
8
1
10
-21.677
20
49.478
11
-21.997
21
49.103
62
0
0
LINE
8
1
10
-21.997
20
49.103
11
-22.194
21
48.928
62
0
0
LINE
8
1
10
-22.194
20
48.928
11
-22.412
21
48.781
62
0
0
LINE
8
1
10
-22.412
20
48.781
11
-22.646
21
48.664
62
0
0
LINE
8
1
10
-22.646
20
48.664
11
-22.894
21
48.578
62
0
0
LINE
8
1
10
-22.894
20
48.578
11
-22.894
21
48.579
62
0
0
LINE
8
1
10
-22.894
20
48.579
11
-23.153
21
48.526
62
0
0
LINE
8
1
10
-23.153
20
48.526
11
-23.445
21
48.509
62
0
0
LINE
8
1
10
-23.445
20
48.509
11
-23.682
21
48.523
62
0
0
LINE
8
1
10
-23.682
20
48.523
11
-23.917
21
48.566
62
0
0
LINE
8
1
10
-23.917
20
48.566
11
-24.146
21
48.637
62
0
0
LINE
8
1
10
-24.146
20
48.637
11
-24.364
21
48.734
62
0
0
LINE
8
1
10
-24.364
20
48.734
11
-24.569
21
48.857
62
0
0
CIRCLE
8
1
10
170
20
48.499
40
1.48992
62
0
0
CIRCLE
8
1
10
180
20
48.499
40
1.48992
62
0
0
CIRCLE
8
1
10
127.856
20
45.999
40
2.01485
62
0
0
CIRCLE
8
1
10
121.856
20
45.999
40
2.01485
62
0
0
CIRCLE
8
1
10
115.856
20
45.999
40
2.01485
62
0
0
CIRCLE
8
1
10
57.143
20
45.999
40
2.01482
62
0
0
CIRCLE
8
1
10
51.143
20
45.999
40
2.01482
62
0
0
CIRCLE
8
1
10
45.143
20
45.999
40
2.01482
62
0
0
CIRCLE
8
1
10
145
20
46.499
40
1.48989
62
0
0
CIRCLE
8
1
10
155
20
46.499
40
1.48989
62
0
0
LINE
8
1
10
-119.569
20
45.857
11
-119.758
21
46.004
62
0
0
LINE
8
1
10
-119.758
20
46.004
11
-120.171
21
46.401
62
0
0
LINE
8
1
10
-120.171
20
46.401
11
-120.343
21
46.524
62
0
0
LINE
8
1
10
-120.343
20
46.524
11
-120.527
21
46.629
62
0
0
LINE
8
1
10
-120.527
20
46.629
11
-122.625
21
47.419
62
0
0
LINE
8
1
10
-122.625
20
47.419
11
-122.853
21
47.476
62
0
0
LINE
8
1
10
-122.853
20
47.476
11
-123.094
21
47.505
62
0
0
LINE
8
1
10
-123.094
20
47.505
11
-139.512
21
47.49
62
0
0
LINE
8
1
10
-139.512
20
47.49
11
-140.817
21
47.341
62
0
0
LINE
8
1
10
-140.817
20
47.341
11
-142.098
21
47.043
62
0
0
LINE
8
1
10
-142.098
20
47.043
11
-143.336
21
46.601
62
0
0
LINE
8
1
10
-143.336
20
46.601
11
-144.515
21
46.022
62
0
0
LINE
8
1
10
-144.515
20
46.022
11
-145.621
21
45.311
62
0
0
LINE
8
1
10
-145.621
20
45.311
11
-146.638
21
44.48
62
0
0
LINE
8
1
10
-146.638
20
44.48
11
-147.553
21
43.537
62
0
0
LINE
8
1
10
-147.553
20
43.537
11
-148.356
21
42.496
62
0
0
LINE
8
1
10
-148.356
20
42.496
11
-149.035
21
41.371
62
0
0
LINE
8
1
10
-149.035
20
41.371
11
-149.581
21
40.175
62
0
0
LINE
8
1
10
-149.581
20
40.175
11
-149.987
21
38.926
62
0
0
LINE
8
1
10
-149.987
20
38.926
11
-150.248
21
37.638
62
0
0
LINE
8
1
10
-150.248
20
37.638
11
-150.36
21
36.328
62
0
0
LINE
8
1
10
-150.36
20
36.328
11
-150.323
21
35.014
62
0
0
LINE
8
1
10
-150.323
20
35.014
11
-150.136
21
33.713
62
0
0
LINE
8
1
10
-150.136
20
33.713
11
-149.802
21
32.442
62
0
0
LINE
8
1
10
-149.802
20
32.442
11
-149.325
21
31.218
62
0
0
LINE
8
1
10
-149.325
20
31.218
11
-148.712
21
30.055
62
0
0
LINE
8
1
10
-148.712
20
30.055
11
-147.97
21
28.971
62
0
0
LINE
8
1
10
-147.97
20
28.971
11
-147.109
21
27.977
62
0
0
LINE
8
1
10
-147.109
20
27.977
11
-146.142
21
27.088
62
0
0
LINE
8
1
10
-146.142
20
27.088
11
-145.079
21
26.317
62
0
0
LINE
8
1
10
-145.079
20
26.317
11
-143.934
21
25.67
62
0
0
LINE
8
1
10
-143.934
20
25.67
11
-142.724
21
25.159
62
0
0
LINE
8
1
10
-142.724
20
25.159
11
-141.463
21
24.788
62
0
0
LINE
8
1
10
-141.463
20
24.788
11
-140.167
21
24.564
62
0
0
LINE
8
1
10
-140.167
20
24.564
11
-123.216
21
24.489
62
0
0
LINE
8
1
10
-123.216
20
24.489
11
-122.974
21
24.504
62
0
0
LINE
8
1
10
-122.974
20
24.504
11
-122.739
21
24.546
62
0
0
LINE
8
1
10
-122.739
20
24.546
11
-121.433
21
25.02
62
0
0
LINE
8
1
10
-121.433
20
25.02
11
-121.223
21
25.111
62
0
0
LINE
8
1
10
-121.223
20
25.111
11
-121.025
21
25.227
62
0
0
LINE
8
1
10
-121.025
20
25.227
11
-120.843
21
25.363
62
0
0
LINE
8
1
10
-120.843
20
25.363
11
-120.677
21
25.52
62
0
0
LINE
8
1
10
-120.677
20
25.52
11
-120.357
21
25.894
62
0
0
LINE
8
1
10
-120.357
20
25.894
11
-120.161
21
26.069
62
0
0
LINE
8
1
10
-120.161
20
26.069
11
-119.942
21
26.217
62
0
0
LINE
8
1
10
-119.942
20
26.217
11
-119.708
21
26.334
62
0
0
LINE
8
1
10
-119.708
20
26.334
11
-119.459
21
26.42
62
0
0
LINE
8
1
10
-119.459
20
26.42
11
-119.459
21
26.419
62
0
0
LINE
8
1
10
-119.459
20
26.419
11
-119.2
21
26.472
62
0
0
LINE
8
1
10
-119.2
20
26.472
11
-118.909
21
26.489
62
0
0
LINE
8
1
10
-118.909
20
26.489
11
-118.671
21
26.475
62
0
0
LINE
8
1
10
-118.671
20
26.475
11
-118.436
21
26.432
62
0
0
LINE
8
1
10
-118.436
20
26.432
11
-118.207
21
26.361
62
0
0
LINE
8
1
10
-118.207
20
26.361
11
-117.99
21
26.264
62
0
0
LINE
8
1
10
-117.99
20
26.264
11
-117.784
21
26.141
62
0
0
LINE
8
1
10
-117.784
20
26.141
11
-117.596
21
25.994
62
0
0
LINE
8
1
10
-117.596
20
25.994
11
-117.183
21
25.597
62
0
0
LINE
8
1
10
-117.183
20
25.597
11
-117.011
21
25.474
62
0
0
LINE
8
1
10
-117.011
20
25.474
11
-116.826
21
25.369
62
0
0
LINE
8
1
10
-116.826
20
25.369
11
-114.729
21
24.579
62
0
0
LINE
8
1
10
-114.729
20
24.579
11
-114.501
21
24.522
62
0
0
LINE
8
1
10
-114.501
20
24.522
11
-114.259
21
24.493
62
0
0
LINE
8
1
10
-114.259
20
24.493
11
-92.752
21
24.492
62
0
0
LINE
8
1
10
-92.752
20
24.492
11
-92.498
21
24.522
62
0
0
LINE
8
1
10
-92.498
20
24.522
11
-92.269
21
24.578
62
0
0
LINE
8
1
10
-92.269
20
24.578
11
-90.171
21
25.369
62
0
0
LINE
8
1
10
-90.171
20
25.369
11
-89.986
21
25.474
62
0
0
LINE
8
1
10
-89.986
20
25.474
11
-89.647
21
25.746
62
0
0
LINE
8
1
10
-89.647
20
25.746
11
-89.399
21
25.995
62
0
0
LINE
8
1
10
-89.399
20
25.995
11
-89.213
21
26.141
62
0
0
LINE
8
1
10
-89.213
20
26.141
11
-89.007
21
26.264
62
0
0
LINE
8
1
10
-89.007
20
26.264
11
-88.79
21
26.361
62
0
0
LINE
8
1
10
-88.79
20
26.361
11
-88.561
21
26.432
62
0
0
LINE
8
1
10
-88.561
20
26.432
11
-88.326
21
26.475
62
0
0
LINE
8
1
10
-88.326
20
26.475
11
-88.06
21
26.489
62
0
0
LINE
8
1
10
-88.06
20
26.489
11
-87.797
21
26.472
62
0
0
LINE
8
1
10
-87.797
20
26.472
11
-87.538
21
26.419
62
0
0
LINE
8
1
10
-87.538
20
26.419
11
-87.538
21
26.42
62
0
0
LINE
8
1
10
-87.538
20
26.42
11
-87.289
21
26.334
62
0
0
LINE
8
1
10
-87.289
20
26.334
11
-87.055
21
26.217
62
0
0
LINE
8
1
10
-87.055
20
26.217
11
-86.836
21
26.069
62
0
0
LINE
8
1
10
-86.836
20
26.069
11
-86.64
21
25.894
62
0
0
LINE
8
1
10
-86.64
20
25.894
11
-86.641
21
25.894
62
0
0
LINE
8
1
10
-86.641
20
25.894
11
-86.32
21
25.52
62
0
0
LINE
8
1
10
-86.32
20
25.52
11
-86.154
21
25.363
62
0
0
LINE
8
1
10
-86.154
20
25.363
11
-85.972
21
25.227
62
0
0
LINE
8
1
10
-85.972
20
25.227
11
-85.774
21
25.111
62
0
0
LINE
8
1
10
-85.774
20
25.111
11
-84.144
21
24.489
62
0
0
LINE
8
1
10
-84.144
20
24.489
11
-66.83
21
24.564
62
0
0
LINE
8
1
10
-66.83
20
24.564
11
-65.535
21
24.788
62
0
0
LINE
8
1
10
-65.535
20
24.788
11
-64.274
21
25.158
62
0
0
LINE
8
1
10
-64.274
20
25.158
11
-63.064
21
25.67
62
0
0
LINE
8
1
10
-63.064
20
25.67
11
-61.919
21
26.316
62
0
0
LINE
8
1
10
-61.919
20
26.316
11
-60.856
21
27.088
62
0
0
LINE
8
1
10
-60.856
20
27.088
11
-59.888
21
27.977
62
0
0
LINE
8
1
10
-59.888
20
27.977
11
-59.027
21
28.971
62
0
0
LINE
8
1
10
-59.027
20
28.971
11
-58.286
21
30.055
62
0
0
LINE
8
1
10
-58.286
20
30.055
11
-57.672
21
31.218
62
0
0
LINE
8
1
10
-57.672
20
31.218
11
-57.196
21
32.442
62
0
0
LINE
8
1
10
-57.196
20
32.442
11
-56.861
21
33.713
62
0
0
LINE
8
1
10
-56.861
20
33.713
11
-56.674
21
35.014
62
0
0
LINE
8
1
10
-56.674
20
35.014
11
-56.637
21
36.327
62
0
0
LINE
8
1
10
-56.637
20
36.327
11
-56.749
21
37.637
62
0
0
LINE
8
1
10
-56.749
20
37.637
11
-57.01
21
38.925
62
0
0
LINE
8
1
10
-57.01
20
38.925
11
-57.416
21
40.174
62
0
0
LINE
8
1
10
-57.416
20
40.174
11
-57.962
21
41.37
62
0
0
LINE
8
1
10
-57.962
20
41.37
11
-58.641
21
42.495
62
0
0
LINE
8
1
10
-58.641
20
42.495
11
-59.443
21
43.536
62
0
0
LINE
8
1
10
-59.443
20
43.536
11
-60.359
21
44.479
62
0
0
LINE
8
1
10
-60.359
20
44.479
11
-61.376
21
45.311
62
0
0
LINE
8
1
10
-61.376
20
45.311
11
-62.482
21
46.022
62
0
0
LINE
8
1
10
-62.482
20
46.022
11
-63.661
21
46.601
62
0
0
LINE
8
1
10
-63.661
20
46.601
11
-64.899
21
47.043
62
0
0
LINE
8
1
10
-64.899
20
47.043
11
-66.179
21
47.341
62
0
0
LINE
8
1
10
-66.179
20
47.341
11
-67.484
21
47.49
62
0
0
LINE
8
1
10
-67.484
20
47.49
11
-84.144
21
47.509
62
0
0
LINE
8
1
10
-84.144
20
47.509
11
-86.47
21
46.629
62
0
0
LINE
8
1
10
-86.47
20
46.629
11
-86.654
21
46.524
62
0
0
LINE
8
1
10
-86.654
20
46.524
11
-86.911
21
46.33
62
0
0
LINE
8
1
10
-86.911
20
46.33
11
-87.24
21
46.003
62
0
0
LINE
8
1
10
-87.24
20
46.003
11
-87.428
21
45.857
62
0
0
LINE
8
1
10
-87.428
20
45.857
11
-87.633
21
45.734
62
0
0
LINE
8
1
10
-87.633
20
45.734
11
-87.851
21
45.637
62
0
0
LINE
8
1
10
-87.851
20
45.637
11
-88.08
21
45.566
62
0
0
LINE
8
1
10
-88.08
20
45.566
11
-88.315
21
45.523
62
0
0
LINE
8
1
10
-88.315
20
45.523
11
-88.581
21
45.509
62
0
0
LINE
8
1
10
-88.581
20
45.509
11
-88.844
21
45.526
62
0
0
LINE
8
1
10
-88.844
20
45.526
11
-89.103
21
45.579
62
0
0
LINE
8
1
10
-89.103
20
45.579
11
-89.103
21
45.578
62
0
0
LINE
8
1
10
-89.103
20
45.578
11
-89.351
21
45.664
62
0
0
LINE
8
1
10
-89.351
20
45.664
11
-89.585
21
45.781
62
0
0
LINE
8
1
10
-89.585
20
45.781
11
-89.804
21
45.929
62
0
0
LINE
8
1
10
-89.804
20
45.929
11
-90.001
21
46.104
62
0
0
LINE
8
1
10
-90.001
20
46.104
11
-90
21
46.104
62
0
0
LINE
8
1
10
-90
20
46.104
11
-90.32
21
46.478
62
0
0
LINE
8
1
10
-90.32
20
46.478
11
-90.487
21
46.635
62
0
0
LINE
8
1
10
-90.487
20
46.635
11
-90.669
21
46.771
62
0
0
LINE
8
1
10
-90.669
20
46.771
11
-90.866
21
46.887
62
0
0
LINE
8
1
10
-90.866
20
46.887
11
-92.156
21
47.382
62
0
0
LINE
8
1
10
-92.156
20
47.382
11
-92.382
21
47.452
62
0
0
LINE
8
1
10
-92.382
20
47.452
11
-92.738
21
47.505
62
0
0
LINE
8
1
10
-92.738
20
47.505
11
-114.245
21
47.506
62
0
0
LINE
8
1
10
-114.245
20
47.506
11
-114.5
21
47.476
62
0
0
LINE
8
1
10
-114.5
20
47.476
11
-114.728
21
47.42
62
0
0
LINE
8
1
10
-114.728
20
47.42
11
-115.922
21
46.978
62
0
0
LINE
8
1
10
-115.922
20
46.978
11
-116.131
21
46.887
62
0
0
LINE
8
1
10
-116.131
20
46.887
11
-116.328
21
46.771
62
0
0
LINE
8
1
10
-116.328
20
46.771
11
-116.51
21
46.635
62
0
0
LINE
8
1
10
-116.51
20
46.635
11
-116.677
21
46.478
62
0
0
LINE
8
1
10
-116.677
20
46.478
11
-116.997
21
46.103
62
0
0
LINE
8
1
10
-116.997
20
46.103
11
-117.194
21
45.928
62
0
0
LINE
8
1
10
-117.194
20
45.928
11
-117.412
21
45.781
62
0
0
LINE
8
1
10
-117.412
20
45.781
11
-117.646
21
45.664
62
0
0
LINE
8
1
10
-117.646
20
45.664
11
-117.894
21
45.578
62
0
0
LINE
8
1
10
-117.894
20
45.578
11
-117.894
21
45.579
62
0
0
LINE
8
1
10
-117.894
20
45.579
11
-118.153
21
45.526
62
0
0
LINE
8
1
10
-118.153
20
45.526
11
-118.445
21
45.509
62
0
0
LINE
8
1
10
-118.445
20
45.509
11
-118.682
21
45.523
62
0
0
LINE
8
1
10
-118.682
20
45.523
11
-118.917
21
45.566
62
0
0
LINE
8
1
10
-118.917
20
45.566
11
-119.146
21
45.637
62
0
0
LINE
8
1
10
-119.146
20
45.637
11
-119.364
21
45.734
62
0
0
LINE
8
1
10
-119.364
20
45.734
11
-119.569
21
45.857
62
0
0
CIRCLE
8
1
10
26.856
20
44.999
40
2.01485
62
0
0
CIRCLE
8
1
10
-43.855
20
44.999
40
2.01484
62
0
0
CIRCLE
8
1
10
-13.498
20
43.999
40
1.48989
62
0
0
CIRCLE
8
1
10
-3.498
20
43.999
40
1.48989
62
0
0
CIRCLE
8
1
10
-68.142
20
41.999
40
2.01484
62
0
0
CIRCLE
8
1
10
-138.855
20
41.999
40
2.01484
62
0
0
CIRCLE
8
1
10
-108.498
20
40.999
40
1.48989
62
0
0
CIRCLE
8
1
10
-98.498
20
40.999
40
1.48989
62
0
0
CIRCLE
8
1
10
81.5
20
40.999
40
1.48989
62
0
0
CIRCLE
8
1
10
91.5
20
40.999
40
1.48989
62
0
0
CIRCLE
8
1
10
121.856
20
39.999
40
2.01485
62
0
0
CIRCLE
8
1
10
51.143
20
39.999
40
2.01482
62
0
0
CIRCLE
8
1
10
32.856
20
38.999
40
2.01485
62
0
0
CIRCLE
8
1
10
26.856
20
38.999
40
2.01485
62
0
0
CIRCLE
8
1
10
20.856
20
38.999
40
2.01485
62
0
0
CIRCLE
8
1
10
-37.855
20
38.999
40
2.01484
62
0
0
CIRCLE
8
1
10
-43.855
20
38.999
40
2.01484
62
0
0
CIRCLE
8
1
10
-49.855
20
38.999
40
2.01484
62
0
0
CIRCLE
8
1
10
170
20
38.499
40
1.48992
62
0
0
CIRCLE
8
1
10
180
20
38.499
40
1.48992
62
0
0
CIRCLE
8
1
10
-62.142
20
35.999
40
2.01484
62
0
0
CIRCLE
8
1
10
-68.142
20
35.999
40
2.01484
62
0
0
CIRCLE
8
1
10
-74.142
20
35.999
40
2.01484
62
0
0
CIRCLE
8
1
10
-132.855
20
35.999
40
2.01484
62
0
0
CIRCLE
8
1
10
-138.855
20
35.999
40
2.01484
62
0
0
CIRCLE
8
1
10
-144.855
20
35.999
40
2.01484
62
0
0
CIRCLE
8
1
10
-13.498
20
33.999
40
1.48989
62
0
0
CIRCLE
8
1
10
-3.498
20
33.999
40
1.48992
62
0
0
CIRCLE
8
1
10
26.856
20
32.999
40
2.01485
62
0
0
CIRCLE
8
1
10
-43.855
20
32.999
40
2.01484
62
0
0
LINE
8
1
10
65.43
20
31.857
11
65.241
21
32.004
62
0
0
LINE
8
1
10
65.241
20
32.004
11
64.828
21
32.401
62
0
0
LINE
8
1
10
64.828
20
32.401
11
64.656
21
32.524
62
0
0
LINE
8
1
10
64.656
20
32.524
11
64.472
21
32.629
62
0
0
LINE
8
1
10
64.472
20
32.629
11
62.374
21
33.419
62
0
0
LINE
8
1
10
62.374
20
33.419
11
62.146
21
33.476
62
0
0
LINE
8
1
10
62.146
20
33.476
11
61.905
21
33.505
62
0
0
LINE
8
1
10
61.905
20
33.505
11
45.487
21
33.49
62
0
0
LINE
8
1
10
45.487
20
33.49
11
44.182
21
33.341
62
0
0
LINE
8
1
10
44.182
20
33.341
11
42.901
21
33.043
62
0
0
LINE
8
1
10
42.901
20
33.043
11
41.663
21
32.601
62
0
0
LINE
8
1
10
41.663
20
32.601
11
40.484
21
32.022
62
0
0
LINE
8
1
10
40.484
20
32.022
11
39.378
21
31.311
62
0
0
LINE
8
1
10
39.378
20
31.311
11
38.361
21
30.48
62
0
0
LINE
8
1
10
38.361
20
30.48
11
37.446
21
29.537
62
0
0
LINE
8
1
10
37.446
20
29.537
11
36.643
21
28.496
62
0
0
LINE
8
1
10
36.643
20
28.496
11
35.964
21
27.371
62
0
0
LINE
8
1
10
35.964
20
27.371
11
35.418
21
26.175
62
0
0
LINE
8
1
10
35.418
20
26.175
11
35.012
21
24.926
62
0
0
LINE
8
1
10
35.012
20
24.926
11
34.751
21
23.638
62
0
0
LINE
8
1
10
34.751
20
23.638
11
34.639
21
22.328
62
0
0
LINE
8
1
10
34.639
20
22.328
11
34.676
21
21.014
62
0
0
LINE
8
1
10
34.676
20
21.014
11
34.863
21
19.713
62
0
0
LINE
8
1
10
34.863
20
19.713
11
35.197
21
18.442
62
0
0
LINE
8
1
10
35.197
20
18.442
11
35.674
21
17.218
62
0
0
LINE
8
1
10
35.674
20
17.218
11
36.287
21
16.055
62
0
0
LINE
8
1
10
36.287
20
16.055
11
37.029
21
14.971
62
0
0
LINE
8
1
10
37.029
20
14.971
11
37.89
21
13.977
62
0
0
LINE
8
1
10
37.89
20
13.977
11
38.857
21
13.088
62
0
0
LINE
8
1
10
38.857
20
13.088
11
39.92
21
12.317
62
0
0
LINE
8
1
10
39.92
20
12.317
11
41.065
21
11.67
62
0
0
LINE
8
1
10
41.065
20
11.67
11
42.275
21
11.159
62
0
0
LINE
8
1
10
42.275
20
11.159
11
43.536
21
10.788
62
0
0
LINE
8
1
10
43.536
20
10.788
11
44.832
21
10.564
62
0
0
LINE
8
1
10
44.832
20
10.564
11
61.783
21
10.489
62
0
0
LINE
8
1
10
61.783
20
10.489
11
62.025
21
10.504
62
0
0
LINE
8
1
10
62.025
20
10.504
11
62.26
21
10.546
62
0
0
LINE
8
1
10
62.26
20
10.546
11
63.566
21
11.02
62
0
0
LINE
8
1
10
63.566
20
11.02
11
63.776
21
11.111
62
0
0
LINE
8
1
10
63.776
20
11.111
11
63.974
21
11.227
62
0
0
LINE
8
1
10
63.974
20
11.227
11
64.156
21
11.363
62
0
0
LINE
8
1
10
64.156
20
11.363
11
64.322
21
11.52
62
0
0
LINE
8
1
10
64.322
20
11.52
11
64.642
21
11.894
62
0
0
LINE
8
1
10
64.642
20
11.894
11
64.838
21
12.069
62
0
0
LINE
8
1
10
64.838
20
12.069
11
65.057
21
12.217
62
0
0
LINE
8
1
10
65.057
20
12.217
11
65.291
21
12.334
62
0
0
LINE
8
1
10
65.291
20
12.334
11
65.54
21
12.42
62
0
0
LINE
8
1
10
65.54
20
12.42
11
65.54
21
12.419
62
0
0
LINE
8
1
10
65.54
20
12.419
11
65.799
21
12.472
62
0
0
LINE
8
1
10
65.799
20
12.472
11
66.09
21
12.489
62
0
0
LINE
8
1
10
66.09
20
12.489
11
66.328
21
12.475
62
0
0
LINE
8
1
10
66.328
20
12.475
11
66.563
21
12.432
62
0
0
LINE
8
1
10
66.563
20
12.432
11
66.792
21
12.361
62
0
0
LINE
8
1
10
66.792
20
12.361
11
67.009
21
12.264
62
0
0
LINE
8
1
10
67.009
20
12.264
11
67.215
21
12.141
62
0
0
LINE
8
1
10
67.215
20
12.141
11
67.403
21
11.994
62
0
0
LINE
8
1
10
67.403
20
11.994
11
67.816
21
11.597
62
0
0
LINE
8
1
10
67.816
20
11.597
11
67.988
21
11.474
62
0
0
LINE
8
1
10
67.988
20
11.474
11
68.173
21
11.369
62
0
0
LINE
8
1
10
68.173
20
11.369
11
70.27
21
10.579
62
0
0
LINE
8
1
10
70.27
20
10.579
11
70.498
21
10.522
62
0
0
LINE
8
1
10
70.498
20
10.522
11
70.74
21
10.493
62
0
0
LINE
8
1
10
70.74
20
10.493
11
92.247
21
10.492
62
0
0
LINE
8
1
10
92.247
20
10.492
11
92.501
21
10.522
62
0
0
LINE
8
1
10
92.501
20
10.522
11
92.73
21
10.578
62
0
0
LINE
8
1
10
92.73
20
10.578
11
94.828
21
11.369
62
0
0
LINE
8
1
10
94.828
20
11.369
11
95.013
21
11.474
62
0
0
LINE
8
1
10
95.013
20
11.474
11
95.352
21
11.746
62
0
0
LINE
8
1
10
95.352
20
11.746
11
95.6
21
11.995
62
0
0
LINE
8
1
10
95.6
20
11.995
11
95.786
21
12.141
62
0
0
LINE
8
1
10
95.786
20
12.141
11
95.992
21
12.264
62
0
0
LINE
8
1
10
95.992
20
12.264
11
96.209
21
12.361
62
0
0
LINE
8
1
10
96.209
20
12.361
11
96.438
21
12.432
62
0
0
LINE
8
1
10
96.438
20
12.432
11
96.673
21
12.475
62
0
0
LINE
8
1
10
96.673
20
12.475
11
96.939
21
12.489
62
0
0
LINE
8
1
10
96.939
20
12.489
11
97.202
21
12.472
62
0
0
LINE
8
1
10
97.202
20
12.472
11
97.461
21
12.419
62
0
0
LINE
8
1
10
97.461
20
12.419
11
97.461
21
12.42
62
0
0
LINE
8
1
10
97.461
20
12.42
11
97.71
21
12.334
62
0
0
LINE
8
1
10
97.71
20
12.334
11
97.944
21
12.217
62
0
0
LINE
8
1
10
97.944
20
12.217
11
98.163
21
12.069
62
0
0
LINE
8
1
10
98.163
20
12.069
11
98.359
21
11.894
62
0
0
LINE
8
1
10
98.359
20
11.894
11
98.358
21
11.894
62
0
0
LINE
8
1
10
98.358
20
11.894
11
98.679
21
11.52
62
0
0
LINE
8
1
10
98.679
20
11.52
11
98.845
21
11.363
62
0
0
LINE
8
1
10
98.845
20
11.363
11
99.027
21
11.227
62
0
0
LINE
8
1
10
99.027
20
11.227
11
99.225
21
11.111
62
0
0
LINE
8
1
10
99.225
20
11.111
11
100.855
21
10.489
62
0
0
LINE
8
1
10
100.855
20
10.489
11
118.169
21
10.564
62
0
0
LINE
8
1
10
118.169
20
10.564
11
119.464
21
10.788
62
0
0
LINE
8
1
10
119.464
20
10.788
11
120.725
21
11.158
62
0
0
LINE
8
1
10
120.725
20
11.158
11
121.935
21
11.67
62
0
0
LINE
8
1
10
121.935
20
11.67
11
123.08
21
12.316
62
0
0
LINE
8
1
10
123.08
20
12.316
11
124.143
21
13.088
62
0
0
LINE
8
1
10
124.143
20
13.088
11
125.111
21
13.977
62
0
0
LINE
8
1
10
125.111
20
13.977
11
125.972
21
14.971
62
0
0
LINE
8
1
10
125.972
20
14.971
11
126.713
21
16.055
62
0
0
LINE
8
1
10
126.713
20
16.055
11
127.327
21
17.218
62
0
0
LINE
8
1
10
127.327
20
17.218
11
127.803
21
18.442
62
0
0
LINE
8
1
10
127.803
20
18.442
11
128.138
21
19.713
62
0
0
LINE
8
1
10
128.138
20
19.713
11
128.325
21
21.014
62
0
0
LINE
8
1
10
128.325
20
21.014
11
128.362
21
22.327
62
0
0
LINE
8
1
10
128.362
20
22.327
11
128.25
21
23.637
62
0
0
LINE
8
1
10
128.25
20
23.637
11
127.989
21
24.925
62
0
0
LINE
8
1
10
127.989
20
24.925
11
127.583
21
26.174
62
0
0
LINE
8
1
10
127.583
20
26.174
11
127.037
21
27.37
62
0
0
LINE
8
1
10
127.037
20
27.37
11
126.358
21
28.495
62
0
0
LINE
8
1
10
126.358
20
28.495
11
125.556
21
29.536
62
0
0
LINE
8
1
10
125.556
20
29.536
11
124.64
21
30.479
62
0
0
LINE
8
1
10
124.64
20
30.479
11
123.623
21
31.311
62
0
0
LINE
8
1
10
123.623
20
31.311
11
122.517
21
32.022
62
0
0
LINE
8
1
10
122.517
20
32.022
11
121.338
21
32.601
62
0
0
LINE
8
1
10
121.338
20
32.601
11
120.1
21
33.043
62
0
0
LINE
8
1
10
120.1
20
33.043
11
118.82
21
33.341
62
0
0
LINE
8
1
10
118.82
20
33.341
11
117.515
21
33.49
62
0
0
LINE
8
1
10
117.515
20
33.49
11
100.855
21
33.509
62
0
0
LINE
8
1
10
100.855
20
33.509
11
98.529
21
32.629
62
0
0
LINE
8
1
10
98.529
20
32.629
11
98.345
21
32.524
62
0
0
LINE
8
1
10
98.345
20
32.524
11
98.088
21
32.33
62
0
0
LINE
8
1
10
98.088
20
32.33
11
97.759
21
32.003
62
0
0
LINE
8
1
10
97.759
20
32.003
11
97.571
21
31.857
62
0
0
LINE
8
1
10
97.571
20
31.857
11
97.366
21
31.734
62
0
0
LINE
8
1
10
97.366
20
31.734
11
97.148
21
31.637
62
0
0
LINE
8
1
10
97.148
20
31.637
11
96.919
21
31.566
62
0
0
LINE
8
1
10
96.919
20
31.566
11
96.684
21
31.523
62
0
0
LINE
8
1
10
96.684
20
31.523
11
96.418
21
31.509
62
0
0
LINE
8
1
10
96.418
20
31.509
11
96.155
21
31.526
62
0
0
LINE
8
1
10
96.155
20
31.526
11
95.896
21
31.579
62
0
0
LINE
8
1
10
95.896
20
31.579
11
95.896
21
31.578
62
0
0
LINE
8
1
10
95.896
20
31.578
11
95.648
21
31.664
62
0
0
LINE
8
1
10
95.648
20
31.664
11
95.414
21
31.781
62
0
0
LINE
8
1
10
95.414
20
31.781
11
95.195
21
31.929
62
0
0
LINE
8
1
10
95.195
20
31.929
11
94.998
21
32.104
62
0
0
LINE
8
1
10
94.998
20
32.104
11
94.999
21
32.104
62
0
0
LINE
8
1
10
94.999
20
32.104
11
94.679
21
32.478
62
0
0
LINE
8
1
10
94.679
20
32.478
11
94.512
21
32.635
62
0
0
LINE
8
1
10
94.512
20
32.635
11
94.33
21
32.771
62
0
0
LINE
8
1
10
94.33
20
32.771
11
94.133
21
32.887
62
0
0
LINE
8
1
10
94.133
20
32.887
11
92.843
21
33.382
62
0
0
LINE
8
1
10
92.843
20
33.382
11
92.617
21
33.452
62
0
0
LINE
8
1
10
92.617
20
33.452
11
92.261
21
33.505
62
0
0
LINE
8
1
10
92.261
20
33.505
11
70.754
21
33.506
62
0
0
LINE
8
1
10
70.754
20
33.506
11
70.499
21
33.476
62
0
0
LINE
8
1
10
70.499
20
33.476
11
70.271
21
33.42
62
0
0
LINE
8
1
10
70.271
20
33.42
11
69.077
21
32.978
62
0
0
LINE
8
1
10
69.077
20
32.978
11
68.868
21
32.887
62
0
0
LINE
8
1
10
68.868
20
32.887
11
68.671
21
32.771
62
0
0
LINE
8
1
10
68.671
20
32.771
11
68.489
21
32.635
62
0
0
LINE
8
1
10
68.489
20
32.635
11
68.322
21
32.478
62
0
0
LINE
8
1
10
68.322
20
32.478
11
68.002
21
32.103
62
0
0
LINE
8
1
10
68.002
20
32.103
11
67.805
21
31.928
62
0
0
LINE
8
1
10
67.805
20
31.928
11
67.587
21
31.781
62
0
0
LINE
8
1
10
67.587
20
31.781
11
67.353
21
31.664
62
0
0
LINE
8
1
10
67.353
20
31.664
11
67.105
21
31.578
62
0
0
LINE
8
1
10
67.105
20
31.578
11
67.105
21
31.579
62
0
0
LINE
8
1
10
67.105
20
31.579
11
66.846
21
31.526
62
0
0
LINE
8
1
10
66.846
20
31.526
11
66.554
21
31.509
62
0
0
LINE
8
1
10
66.554
20
31.509
11
66.317
21
31.523
62
0
0
LINE
8
1
10
66.317
20
31.523
11
66.082
21
31.566
62
0
0
LINE
8
1
10
66.082
20
31.566
11
65.853
21
31.637
62
0
0
LINE
8
1
10
65.853
20
31.637
11
65.635
21
31.734
62
0
0
LINE
8
1
10
65.635
20
31.734
11
65.43
21
31.857
62
0
0
CIRCLE
8
1
10
-108.498
20
30.999
40
1.48989
62
0
0
CIRCLE
8
1
10
-98.498
20
30.999
40
1.48989
62
0
0
CIRCLE
8
1
10
-68.142
20
29.999
40
2.01484
62
0
0
CIRCLE
8
1
10
-138.855
20
29.999
40
2.01484
62
0
0
CIRCLE
8
1
10
116.856
20
27.999
40
2.01485
62
0
0
CIRCLE
8
1
10
46.143
20
27.999
40
2.01482
62
0
0
CIRCLE
8
1
10
76.5
20
26.999
40
1.48989
62
0
0
CIRCLE
8
1
10
86.5
20
26.999
40
1.48989
62
0
0
CIRCLE
8
1
10
150
20
22.142
40
2.0148
62
0
0
CIRCLE
8
1
10
122.856
20
21.999
40
2.01485
62
0
0
CIRCLE
8
1
10
116.856
20
21.999
40
2.01485
62
0
0
CIRCLE
8
1
10
110.856
20
21.999
40
2.01485
62
0
0
CIRCLE
8
1
10
52.143
20
21.999
40
2.01482
62
0
0
CIRCLE
8
1
10
46.143
20
21.999
40
2.01482
62
0
0
CIRCLE
8
1
10
40.143
20
21.999
40
2.01482
62
0
0
LINE
8
1
10
34.26
20
6.991
11
34.26
21
15.009
62
0
0
LINE
8
1
10
34.26
20
15.009
11
-32.187
21
22.489
62
0
0
LINE
8
1
10
-32.187
20
22.489
11
-62.18
21
22.299
62
0
0
LINE
8
1
10
-62.18
20
22.299
11
-68.231
21
21.366
62
0
0
LINE
8
1
10
-68.231
20
21.366
11
-94.669
21
14.752
62
0
0
LINE
8
1
10
-94.669
20
14.752
11
-95.092
21
14.565
62
0
0
LINE
8
1
10
-95.092
20
14.565
11
-95.49
21
14.33
62
0
0
LINE
8
1
10
-95.49
20
14.33
11
-95.859
21
14.052
62
0
0
LINE
8
1
10
-95.859
20
14.052
11
-96.192
21
13.732
62
0
0
LINE
8
1
10
-96.192
20
13.732
11
-96.487
21
13.376
62
0
0
LINE
8
1
10
-96.487
20
13.376
11
-96.739
21
12.988
62
0
0
LINE
8
1
10
-96.739
20
12.988
11
-96.944
21
12.575
62
0
0
LINE
8
1
10
-96.944
20
12.575
11
-97.101
21
12.14
62
0
0
LINE
8
1
10
-97.101
20
12.14
11
-97.206
21
11.69
62
0
0
LINE
8
1
10
-97.206
20
11.69
11
-97.259
21
11.231
62
0
0
LINE
8
1
10
-97.259
20
11.231
11
-97.259
21
10.769
62
0
0
LINE
8
1
10
-97.259
20
10.769
11
-97.206
21
10.31
62
0
0
LINE
8
1
10
-97.206
20
10.31
11
-97.101
21
9.86
62
0
0
LINE
8
1
10
-97.101
20
9.86
11
-96.944
21
9.425
62
0
0
LINE
8
1
10
-96.944
20
9.425
11
-96.739
21
9.012
62
0
0
LINE
8
1
10
-96.739
20
9.012
11
-96.487
21
8.624
62
0
0
LINE
8
1
10
-96.487
20
8.624
11
-96.192
21
8.268
62
0
0
LINE
8
1
10
-96.192
20
8.268
11
-95.859
21
7.948
62
0
0
LINE
8
1
10
-95.859
20
7.948
11
-95.49
21
7.67
62
0
0
LINE
8
1
10
-95.49
20
7.67
11
-95.092
21
7.435
62
0
0
LINE
8
1
10
-95.092
20
7.435
11
-94.669
21
7.248
62
0
0
LINE
8
1
10
-94.669
20
7.248
11
-66.73
21
0.332
62
0
0
LINE
8
1
10
-66.73
20
0.332
11
-60.655
21
-0.415
62
0
0
LINE
8
1
10
-60.655
20
-0.415
11
-30.753
21
-0.427
62
0
0
LINE
8
1
10
-30.753
20
-0.427
11
34.26
21
6.991
62
0
0
CIRCLE
8
1
10
-162.999
20
20.249
40
2.01464
62
0
0
CIRCLE
8
1
10
-55.748
20
17
40
2.01469
62
0
0
CIRCLE
8
1
10
76.5
20
16.999
40
1.48989
62
0
0
CIRCLE
8
1
10
86.5
20
16.999
40
1.48989
62
0
0
LINE
8
1
10
-70.651
20
-76.566
11
-70.347
21
-76.943
62
0
0
LINE
8
1
10
-70.347
20
-76.943
11
-69.24
21
-79.156
62
0
0
LINE
8
1
10
-69.24
20
-79.156
11
-68.968
21
-79.508
62
0
0
LINE
8
1
10
-68.968
20
-79.508
11
-68.648
21
-79.817
62
0
0
LINE
8
1
10
-68.648
20
-79.817
11
-68.31
21
-80.06
62
0
0
LINE
8
1
10
-68.31
20
-80.06
11
-67.942
21
-80.253
62
0
0
LINE
8
1
10
-67.942
20
-80.253
11
-67.55
21
-80.395
62
0
0
LINE
8
1
10
-67.55
20
-80.395
11
-67.142
21
-80.481
62
0
0
LINE
8
1
10
-67.142
20
-80.481
11
-45.632
21
-80.509
62
0
0
LINE
8
1
10
-45.632
20
-80.509
11
-45.632
21
-35.489
62
0
0
LINE
8
1
10
-45.632
20
-35.489
11
-67.142
21
-35.518
62
0
0
LINE
8
1
10
-67.142
20
-35.518
11
-67.55
21
-35.604
62
0
0
LINE
8
1
10
-67.55
20
-35.604
11
-67.942
21
-35.746
62
0
0
LINE
8
1
10
-67.942
20
-35.746
11
-68.31
21
-35.939
62
0
0
LINE
8
1
10
-68.31
20
-35.939
11
-68.648
21
-36.182
62
0
0
LINE
8
1
10
-68.648
20
-36.182
11
-68.968
21
-36.491
62
0
0
LINE
8
1
10
-68.968
20
-36.491
11
-69.24
21
-36.843
62
0
0
LINE
8
1
10
-69.24
20
-36.843
11
-70.348
21
-39.057
62
0
0
LINE
8
1
10
-70.348
20
-39.057
11
-70.652
21
-39.434
62
0
0
LINE
8
1
10
-70.652
20
-39.434
11
-71.013
21
-39.758
62
0
0
LINE
8
1
10
-71.013
20
-39.758
11
-71.42
21
-40.017
62
0
0
LINE
8
1
10
-71.42
20
-40.017
11
-71.865
21
-40.208
62
0
0
LINE
8
1
10
-71.865
20
-40.208
11
-72.337
21
-40.326
62
0
0
LINE
8
1
10
-72.337
20
-40.326
11
-72.82
21
-40.365
62
0
0
LINE
8
1
10
-72.82
20
-40.365
11
-73.303
21
-40.326
62
0
0
LINE
8
1
10
-73.303
20
-40.326
11
-73.775
21
-40.208
62
0
0
LINE
8
1
10
-73.775
20
-40.208
11
-74.22
21
-40.017
62
0
0
LINE
8
1
10
-74.22
20
-40.017
11
-74.627
21
-39.758
62
0
0
LINE
8
1
10
-74.627
20
-39.758
11
-74.989
21
-39.433
62
0
0
LINE
8
1
10
-74.989
20
-39.433
11
-75.293
21
-39.056
62
0
0
LINE
8
1
10
-75.293
20
-39.056
11
-76.401
21
-36.842
62
0
0
LINE
8
1
10
-76.401
20
-36.842
11
-76.672
21
-36.49
62
0
0
LINE
8
1
10
-76.672
20
-36.49
11
-76.993
21
-36.181
62
0
0
LINE
8
1
10
-76.993
20
-36.181
11
-77.404
21
-35.894
62
0
0
LINE
8
1
10
-77.404
20
-35.894
11
-77.858
21
-35.68
62
0
0
LINE
8
1
10
-77.858
20
-35.68
11
-78.342
21
-35.543
62
0
0
LINE
8
1
10
-78.342
20
-35.543
11
-78.838
21
-35.489
62
0
0
LINE
8
1
10
-78.838
20
-35.489
11
-99.489
21
-14.839
62
0
0
LINE
8
1
10
-99.489
20
-14.839
11
-99.489
21
-12.993
62
0
0
LINE
8
1
10
-99.489
20
-12.993
11
-103.055
21
-11.294
62
0
0
LINE
8
1
10
-103.055
20
-11.294
11
-103.433
21
-10.989
62
0
0
LINE
8
1
10
-103.433
20
-10.989
11
-103.757
21
-10.628
62
0
0
LINE
8
1
10
-103.757
20
-10.628
11
-104.016
21
-10.221
62
0
0
LINE
8
1
10
-104.016
20
-10.221
11
-104.207
21
-9.776
62
0
0
LINE
8
1
10
-104.207
20
-9.776
11
-104.325
21
-9.304
62
0
0
LINE
8
1
10
-104.325
20
-9.304
11
-104.364
21
-8.82
62
0
0
LINE
8
1
10
-104.364
20
-8.82
11
-104.325
21
-8.338
62
0
0
LINE
8
1
10
-104.325
20
-8.338
11
-104.208
21
-7.868
62
0
0
LINE
8
1
10
-104.208
20
-7.868
11
-104.016
21
-7.421
62
0
0
LINE
8
1
10
-104.016
20
-7.421
11
-103.757
21
-7.014
62
0
0
LINE
8
1
10
-103.757
20
-7.014
11
-103.433
21
-6.653
62
0
0
LINE
8
1
10
-103.433
20
-6.653
11
-103.056
21
-6.349
62
0
0
LINE
8
1
10
-103.056
20
-6.349
11
-99.489
21
-4.649
62
0
0
LINE
8
1
10
-99.489
20
-4.649
11
-99.489
21
18.371
62
0
0
LINE
8
1
10
-99.489
20
18.371
11
-106.533
21
15.728
62
0
0
LINE
8
1
10
-106.533
20
15.728
11
-106.533
21
15.729
62
0
0
LINE
8
1
10
-106.533
20
15.729
11
-112.158
21
14.323
62
0
0
LINE
8
1
10
-112.158
20
14.323
11
-117.782
21
13.542
62
0
0
LINE
8
1
10
-117.782
20
13.542
11
-123.405
21
13.386
62
0
0
LINE
8
1
10
-123.405
20
13.386
11
-129.028
21
13.854
62
0
0
LINE
8
1
10
-129.028
20
13.854
11
-134.652
21
14.948
62
0
0
LINE
8
1
10
-134.652
20
14.948
11
-140.277
21
16.667
62
0
0
LINE
8
1
10
-140.277
20
16.667
11
-140.277
21
16.666
62
0
0
LINE
8
1
10
-140.277
20
16.666
11
-144.509
21
18.37
62
0
0
LINE
8
1
10
-144.509
20
18.37
11
-144.509
21
-4.649
62
0
0
LINE
8
1
10
-144.509
20
-4.649
11
-140.942
21
-6.348
62
0
0
LINE
8
1
10
-140.942
20
-6.348
11
-140.564
21
-6.653
62
0
0
LINE
8
1
10
-140.564
20
-6.653
11
-140.24
21
-7.014
62
0
0
LINE
8
1
10
-140.24
20
-7.014
11
-139.981
21
-7.421
62
0
0
LINE
8
1
10
-139.981
20
-7.421
11
-139.789
21
-7.868
62
0
0
LINE
8
1
10
-139.789
20
-7.868
11
-139.672
21
-8.338
62
0
0
LINE
8
1
10
-139.672
20
-8.338
11
-139.633
21
-8.822
62
0
0
LINE
8
1
10
-139.633
20
-8.822
11
-139.672
21
-9.305
62
0
0
LINE
8
1
10
-139.672
20
-9.305
11
-139.79
21
-9.776
62
0
0
LINE
8
1
10
-139.79
20
-9.776
11
-139.981
21
-10.221
62
0
0
LINE
8
1
10
-139.981
20
-10.221
11
-140.24
21
-10.628
62
0
0
LINE
8
1
10
-140.24
20
-10.628
11
-140.565
21
-10.99
62
0
0
LINE
8
1
10
-140.565
20
-10.99
11
-140.941
21
-11.293
62
0
0
LINE
8
1
10
-140.941
20
-11.293
11
-144.509
21
-12.994
62
0
0
LINE
8
1
10
-144.509
20
-12.994
11
-144.509
21
-14.839
62
0
0
LINE
8
1
10
-144.509
20
-14.839
11
-165.159
21
-35.49
62
0
0
LINE
8
1
10
-165.159
20
-35.49
11
-167.005
21
-35.49
62
0
0
LINE
8
1
10
-167.005
20
-35.49
11
-168.704
21
-39.056
62
0
0
LINE
8
1
10
-168.704
20
-39.056
11
-169.009
21
-39.434
62
0
0
LINE
8
1
10
-169.009
20
-39.434
11
-169.37
21
-39.758
62
0
0
LINE
8
1
10
-169.37
20
-39.758
11
-169.777
21
-40.017
62
0
0
LINE
8
1
10
-169.777
20
-40.017
11
-170.222
21
-40.208
62
0
0
LINE
8
1
10
-170.222
20
-40.208
11
-170.694
21
-40.326
62
0
0
LINE
8
1
10
-170.694
20
-40.326
11
-171.177
21
-40.365
62
0
0
LINE
8
1
10
-171.177
20
-40.365
11
-171.66
21
-40.326
62
0
0
LINE
8
1
10
-171.66
20
-40.326
11
-172.132
21
-40.208
62
0
0
LINE
8
1
10
-172.132
20
-40.208
11
-172.577
21
-40.017
62
0
0
LINE
8
1
10
-172.577
20
-40.017
11
-172.984
21
-39.758
62
0
0
LINE
8
1
10
-172.984
20
-39.758
11
-173.346
21
-39.433
62
0
0
LINE
8
1
10
-173.346
20
-39.433
11
-173.649
21
-39.057
62
0
0
LINE
8
1
10
-173.649
20
-39.057
11
-175.349
21
-35.49
62
0
0
LINE
8
1
10
-175.349
20
-35.49
11
-198.365
21
-35.49
62
0
0
LINE
8
1
10
-198.365
20
-35.49
11
-198.365
21
-80.51
62
0
0
LINE
8
1
10
-198.365
20
-80.51
11
-175.349
21
-80.51
62
0
0
LINE
8
1
10
-175.349
20
-80.51
11
-173.65
21
-76.943
62
0
0
LINE
8
1
10
-173.65
20
-76.943
11
-173.346
21
-76.566
62
0
0
LINE
8
1
10
-173.346
20
-76.566
11
-172.984
21
-76.241
62
0
0
LINE
8
1
10
-172.984
20
-76.241
11
-172.577
21
-75.982
62
0
0
LINE
8
1
10
-172.577
20
-75.982
11
-172.132
21
-75.791
62
0
0
LINE
8
1
10
-172.132
20
-75.791
11
-171.66
21
-75.673
62
0
0
LINE
8
1
10
-171.66
20
-75.673
11
-171.177
21
-75.634
62
0
0
LINE
8
1
10
-171.177
20
-75.634
11
-170.694
21
-75.673
62
0
0
LINE
8
1
10
-170.694
20
-75.673
11
-170.222
21
-75.791
62
0
0
LINE
8
1
10
-170.222
20
-75.791
11
-169.777
21
-75.982
62
0
0
LINE
8
1
10
-169.777
20
-75.982
11
-169.37
21
-76.241
62
0
0
LINE
8
1
10
-169.37
20
-76.241
11
-169.008
21
-76.566
62
0
0
LINE
8
1
10
-169.008
20
-76.566
11
-168.705
21
-76.942
62
0
0
LINE
8
1
10
-168.705
20
-76.942
11
-167.004
21
-80.51
62
0
0
LINE
8
1
10
-167.004
20
-80.51
11
-165.159
21
-80.51
62
0
0
LINE
8
1
10
-165.159
20
-80.51
11
-144.508
21
-101.16
62
0
0
LINE
8
1
10
-144.508
20
-101.16
11
-144.508
21
-103.006
62
0
0
LINE
8
1
10
-144.508
20
-103.006
11
-140.942
21
-104.705
62
0
0
LINE
8
1
10
-140.942
20
-104.705
11
-140.564
21
-105.01
62
0
0
LINE
8
1
10
-140.564
20
-105.01
11
-140.24
21
-105.371
62
0
0
LINE
8
1
10
-140.24
20
-105.371
11
-139.981
21
-105.778
62
0
0
LINE
8
1
10
-139.981
20
-105.778
11
-139.789
21
-106.225
62
0
0
LINE
8
1
10
-139.789
20
-106.225
11
-139.672
21
-106.695
62
0
0
LINE
8
1
10
-139.672
20
-106.695
11
-139.633
21
-107.179
62
0
0
LINE
8
1
10
-139.633
20
-107.179
11
-139.672
21
-107.662
62
0
0
LINE
8
1
10
-139.672
20
-107.662
11
-139.79
21
-108.133
62
0
0
LINE
8
1
10
-139.79
20
-108.133
11
-139.981
21
-108.578
62
0
0
LINE
8
1
10
-139.981
20
-108.578
11
-140.24
21
-108.985
62
0
0
LINE
8
1
10
-140.24
20
-108.985
11
-140.565
21
-109.347
62
0
0
LINE
8
1
10
-140.565
20
-109.347
11
-140.941
21
-109.65
62
0
0
LINE
8
1
10
-140.941
20
-109.65
11
-141.32
21
-109.865
62
0
0
LINE
8
1
10
-141.32
20
-109.865
11
-141.321
21
-109.865
62
0
0
LINE
8
1
10
-141.321
20
-109.865
11
-144.508
21
-111.35
62
0
0
LINE
8
1
10
-144.508
20
-111.35
11
-144.508
21
-134.366
62
0
0
LINE
8
1
10
-144.508
20
-134.366
11
-99.488
21
-134.366
62
0
0
LINE
8
1
10
-99.488
20
-134.366
11
-99.488
21
-111.35
62
0
0
LINE
8
1
10
-99.488
20
-111.35
11
-103.055
21
-109.651
62
0
0
LINE
8
1
10
-103.055
20
-109.651
11
-103.433
21
-109.346
62
0
0
LINE
8
1
10
-103.433
20
-109.346
11
-103.757
21
-108.985
62
0
0
LINE
8
1
10
-103.757
20
-108.985
11
-104.016
21
-108.578
62
0
0
LINE
8
1
10
-104.016
20
-108.578
11
-104.207
21
-108.133
62
0
0
LINE
8
1
10
-104.207
20
-108.133
11
-104.325
21
-107.661
62
0
0
LINE
8
1
10
-104.325
20
-107.661
11
-104.364
21
-107.177
62
0
0
LINE
8
1
10
-104.364
20
-107.177
11
-104.325
21
-106.695
62
0
0
LINE
8
1
10
-104.325
20
-106.695
11
-104.208
21
-106.225
62
0
0
LINE
8
1
10
-104.208
20
-106.225
11
-104.016
21
-105.778
62
0
0
LINE
8
1
10
-104.016
20
-105.778
11
-103.757
21
-105.371
62
0
0
LINE
8
1
10
-103.757
20
-105.371
11
-103.433
21
-105.01
62
0
0
LINE
8
1
10
-103.433
20
-105.01
11
-103.056
21
-104.706
62
0
0
LINE
8
1
10
-103.056
20
-104.706
11
-99.488
21
-103.006
62
0
0
LINE
8
1
10
-99.488
20
-103.006
11
-99.488
21
-101.16
62
0
0
LINE
8
1
10
-99.488
20
-101.16
11
-78.838
21
-80.51
62
0
0
LINE
8
1
10
-78.838
20
-80.51
11
-78.342
21
-80.456
62
0
0
LINE
8
1
10
-78.342
20
-80.456
11
-77.858
21
-80.319
62
0
0
LINE
8
1
10
-77.858
20
-80.319
11
-77.404
21
-80.105
62
0
0
LINE
8
1
10
-77.404
20
-80.105
11
-76.993
21
-79.818
62
0
0
LINE
8
1
10
-76.993
20
-79.818
11
-76.672
21
-79.509
62
0
0
LINE
8
1
10
-76.672
20
-79.509
11
-76.4
21
-79.157
62
0
0
LINE
8
1
10
-76.4
20
-79.157
11
-75.293
21
-76.943
62
0
0
LINE
8
1
10
-75.293
20
-76.943
11
-74.989
21
-76.566
62
0
0
LINE
8
1
10
-74.989
20
-76.566
11
-74.627
21
-76.241
62
0
0
LINE
8
1
10
-74.627
20
-76.241
11
-74.22
21
-75.982
62
0
0
LINE
8
1
10
-74.22
20
-75.982
11
-73.775
21
-75.791
62
0
0
LINE
8
1
10
-73.775
20
-75.791
11
-73.303
21
-75.673
62
0
0
LINE
8
1
10
-73.303
20
-75.673
11
-72.82
21
-75.634
62
0
0
LINE
8
1
10
-72.82
20
-75.634
11
-72.337
21
-75.673
62
0
0
LINE
8
1
10
-72.337
20
-75.673
11
-71.865
21
-75.791
62
0
0
LINE
8
1
10
-71.865
20
-75.791
11
-71.42
21
-75.982
62
0
0
LINE
8
1
10
-71.42
20
-75.982
11
-71.013
21
-76.241
62
0
0
LINE
8
1
10
-71.013
20
-76.241
11
-70.651
21
-76.566
62
0
0
CIRCLE
8
1
10
143.999
20
16.142
40
2.01478
62
0
0
CIRCLE
8
1
10
149.999
20
16.142
40
2.01478
62
0
0
CIRCLE
8
1
10
155.999
20
16.142
40
2.01478
62
0
0
CIRCLE
8
1
10
116.856
20
15.999
40
2.01485
62
0
0
CIRCLE
8
1
10
46.143
20
15.999
40
2.01482
62
0
0
CIRCLE
8
1
10
-156.999
20
14.249
40
2.01464
62
0
0
CIRCLE
8
1
10
-162.999
20
14.249
40
2.01464
62
0
0
CIRCLE
8
1
10
-168.999
20
14.249
40
2.01467
62
0
0
CIRCLE
8
1
10
-186.999
20
14.249
40
2.01464
62
0
0
CIRCLE
8
1
10
175.001
20
14.142
40
2.0148
62
0
0
CIRCLE
8
1
10
4.7
20
11
40
2.03985
62
0
0
CIRCLE
8
1
10
-61.748
20
11
40
2.01469
62
0
0
CIRCLE
8
1
10
-55.748
20
11
40
2.01469
62
0
0
CIRCLE
8
1
10
-49.748
20
11
40
2.01469
62
0
0
LINE
8
1
10
24.16
20
9.435
11
24.16
21
12.565
62
0
0
LINE
8
1
10
24.16
20
12.565
11
31.24
21
12.565
62
0
0
LINE
8
1
10
31.24
20
12.565
11
31.24
21
9.435
62
0
0
LINE
8
1
10
31.24
20
9.435
11
24.16
21
9.435
62
0
0
LINE
8
1
10
10.161
20
9.435
11
10.161
21
12.565
62
0
0
LINE
8
1
10
10.161
20
12.565
11
17.24
21
12.565
62
0
0
LINE
8
1
10
17.24
20
12.565
11
17.24
21
9.435
62
0
0
LINE
8
1
10
17.24
20
9.435
11
10.161
21
9.435
62
0
0
LINE
8
1
10
-7.838
20
9.435
11
-7.838
21
12.565
62
0
0
LINE
8
1
10
-7.838
20
12.565
11
-0.759
21
12.565
62
0
0
LINE
8
1
10
-0.759
20
12.565
11
-0.759
21
9.435
62
0
0
LINE
8
1
10
-0.759
20
9.435
11
-7.838
21
9.435
62
0
0
CIRCLE
8
1
10
150
20
10.142
40
2.0148
62
0
0
CIRCLE
8
1
10
-162.999
20
8.249
40
2.01467
62
0
0
CIRCLE
8
1
10
-180.999
20
8.249
40
2.01464
62
0
0
CIRCLE
8
1
10
-186.999
20
8.249
40
2.01467
62
0
0
CIRCLE
8
1
10
-192.999
20
8.249
40
2.01467
62
0
0
CIRCLE
8
1
10
169.001
20
8.142
40
2.0148
62
0
0
CIRCLE
8
1
10
175.001
20
8.142
40
2.0148
62
0
0
CIRCLE
8
1
10
181.001
20
8.142
40
2.0148
62
0
0
LINE
8
1
10
117.682
20
-13.299
11
123.733
21
-12.366
62
0
0
LINE
8
1
10
123.733
20
-12.366
11
150.171
21
-5.752
62
0
0
LINE
8
1
10
150.171
20
-5.752
11
150.594
21
-5.565
62
0
0
LINE
8
1
10
150.594
20
-5.565
11
150.992
21
-5.33
62
0
0
LINE
8
1
10
150.992
20
-5.33
11
151.361
21
-5.052
62
0
0
LINE
8
1
10
151.361
20
-5.052
11
151.694
21
-4.732
62
0
0
LINE
8
1
10
151.694
20
-4.732
11
151.989
21
-4.376
62
0
0
LINE
8
1
10
151.989
20
-4.376
11
152.241
21
-3.988
62
0
0
LINE
8
1
10
152.241
20
-3.988
11
152.446
21
-3.575
62
0
0
LINE
8
1
10
152.446
20
-3.575
11
152.603
21
-3.14
62
0
0
LINE
8
1
10
152.603
20
-3.14
11
152.708
21
-2.69
62
0
0
LINE
8
1
10
152.708
20
-2.69
11
152.761
21
-2.231
62
0
0
LINE
8
1
10
152.761
20
-2.231
11
152.761
21
-1.769
62
0
0
LINE
8
1
10
152.761
20
-1.769
11
152.708
21
-1.31
62
0
0
LINE
8
1
10
152.708
20
-1.31
11
152.603
21
-0.86
62
0
0
LINE
8
1
10
152.603
20
-0.86
11
152.446
21
-0.425
62
0
0
LINE
8
1
10
152.446
20
-0.425
11
152.241
21
-0.012
62
0
0
LINE
8
1
10
152.241
20
-0.012
11
151.989
21
0.375
62
0
0
LINE
8
1
10
151.989
20
0.375
11
151.694
21
0.731
62
0
0
LINE
8
1
10
151.694
20
0.731
11
151.361
21
1.051
62
0
0
LINE
8
1
10
151.361
20
1.051
11
150.992
21
1.329
62
0
0
LINE
8
1
10
150.992
20
1.329
11
150.594
21
1.564
62
0
0
LINE
8
1
10
150.594
20
1.564
11
150.171
21
1.751
62
0
0
LINE
8
1
10
150.171
20
1.751
11
122.232
21
8.667
62
0
0
LINE
8
1
10
122.232
20
8.667
11
116.157
21
9.415
62
0
0
LINE
8
1
10
116.157
20
9.415
11
86.255
21
9.427
62
0
0
LINE
8
1
10
86.255
20
9.427
11
21.24
21
2.008
62
0
0
LINE
8
1
10
21.24
20
2.008
11
21.24
21
-6.009
62
0
0
LINE
8
1
10
21.24
20
-6.009
11
87.689
21
-13.489
62
0
0
LINE
8
1
10
87.689
20
-13.489
11
117.682
21
-13.299
62
0
0
CIRCLE
8
1
10
-55.748
20
5
40
2.01469
62
0
0
CIRCLE
8
1
10
111.25
20
3.998
40
2.01473
62
0
0
CIRCLE
8
1
10
-186.999
20
2.249
40
2.01467
62
0
0
CIRCLE
8
1
10
175.001
20
2.142
40
2.0148
62
0
0
CIRCLE
8
1
10
50.8
20
-2
40
2.03976
62
0
0
CIRCLE
8
1
10
105.25
20
-2
40
2.01468
62
0
0
CIRCLE
8
1
10
111.25
20
-2
40
2.01468
62
0
0
CIRCLE
8
1
10
117.25
20
-2
40
2.01468
62
0
0
LINE
8
1
10
56.26
20
-3.565
11
56.26
21
-0.435
62
0
0
LINE
8
1
10
56.26
20
-0.435
11
63.341
21
-0.435
62
0
0
LINE
8
1
10
63.341
20
-0.435
11
63.341
21
-3.565
62
0
0
LINE
8
1
10
63.341
20
-3.565
11
56.26
21
-3.565
62
0
0
LINE
8
1
10
38.26
20
-3.565
11
38.26
21
-0.435
62
0
0
LINE
8
1
10
38.26
20
-0.435
11
45.341
21
-0.435
62
0
0
LINE
8
1
10
45.341
20
-0.435
11
45.341
21
-3.565
62
0
0
LINE
8
1
10
45.341
20
-3.565
11
38.26
21
-3.565
62
0
0
LINE
8
1
10
24.26
20
-3.565
11
24.26
21
-0.435
62
0
0
LINE
8
1
10
24.26
20
-0.435
11
31.34
21
-0.435
62
0
0
LINE
8
1
10
31.34
20
-0.435
11
31.34
21
-3.565
62
0
0
LINE
8
1
10
31.34
20
-3.565
11
24.26
21
-3.565
62
0
0
LINE
8
1
10
37.26
20
-18.008
11
37.26
21
-9.99
62
0
0
LINE
8
1
10
37.26
20
-9.99
11
-29.187
21
-2.51
62
0
0
LINE
8
1
10
-29.187
20
-2.51
11
-59.18
21
-2.7
62
0
0
LINE
8
1
10
-59.18
20
-2.7
11
-65.231
21
-3.633
62
0
0
LINE
8
1
10
-65.231
20
-3.633
11
-91.669
21
-10.247
62
0
0
LINE
8
1
10
-91.669
20
-10.247
11
-92.092
21
-10.434
62
0
0
LINE
8
1
10
-92.092
20
-10.434
11
-92.49
21
-10.669
62
0
0
LINE
8
1
10
-92.49
20
-10.669
11
-92.859
21
-10.947
62
0
0
LINE
8
1
10
-92.859
20
-10.947
11
-93.192
21
-11.267
62
0
0
LINE
8
1
10
-93.192
20
-11.267
11
-93.487
21
-11.623
62
0
0
LINE
8
1
10
-93.487
20
-11.623
11
-93.739
21
-12.011
62
0
0
LINE
8
1
10
-93.739
20
-12.011
11
-93.944
21
-12.424
62
0
0
LINE
8
1
10
-93.944
20
-12.424
11
-94.101
21
-12.859
62
0
0
LINE
8
1
10
-94.101
20
-12.859
11
-94.206
21
-13.309
62
0
0
LINE
8
1
10
-94.206
20
-13.309
11
-94.259
21
-13.768
62
0
0
LINE
8
1
10
-94.259
20
-13.768
11
-94.259
21
-14.23
62
0
0
LINE
8
1
10
-94.259
20
-14.23
11
-94.206
21
-14.689
62
0
0
LINE
8
1
10
-94.206
20
-14.689
11
-94.101
21
-15.139
62
0
0
LINE
8
1
10
-94.101
20
-15.139
11
-93.944
21
-15.574
62
0
0
LINE
8
1
10
-93.944
20
-15.574
11
-93.739
21
-15.987
62
0
0
LINE
8
1
10
-93.739
20
-15.987
11
-93.487
21
-16.375
62
0
0
LINE
8
1
10
-93.487
20
-16.375
11
-93.192
21
-16.731
62
0
0
LINE
8
1
10
-93.192
20
-16.731
11
-92.859
21
-17.051
62
0
0
LINE
8
1
10
-92.859
20
-17.051
11
-92.49
21
-17.329
62
0
0
LINE
8
1
10
-92.49
20
-17.329
11
-92.092
21
-17.564
62
0
0
LINE
8
1
10
-92.092
20
-17.564
11
-91.669
21
-17.751
62
0
0
LINE
8
1
10
-91.669
20
-17.751
11
-63.73
21
-24.667
62
0
0
LINE
8
1
10
-63.73
20
-24.667
11
-57.655
21
-25.415
62
0
0
LINE
8
1
10
-57.655
20
-25.415
11
-27.753
21
-25.427
62
0
0
LINE
8
1
10
-27.753
20
-25.427
11
37.26
21
-18.008
62
0
0
LINE
8
1
10
187.69
20
-134.207
11
188.14
21
-134.102
62
0
0
LINE
8
1
10
188.14
20
-134.102
11
188.575
21
-133.945
62
0
0
LINE
8
1
10
188.575
20
-133.945
11
188.988
21
-133.74
62
0
0
LINE
8
1
10
188.988
20
-133.74
11
189.376
21
-133.488
62
0
0
LINE
8
1
10
189.376
20
-133.488
11
189.732
21
-133.193
62
0
0
LINE
8
1
10
189.732
20
-133.193
11
190.052
21
-132.86
62
0
0
LINE
8
1
10
190.052
20
-132.86
11
190.33
21
-132.491
62
0
0
LINE
8
1
10
190.33
20
-132.491
11
190.565
21
-132.093
62
0
0
LINE
8
1
10
190.565
20
-132.093
11
190.752
21
-131.67
62
0
0
LINE
8
1
10
190.752
20
-131.67
11
197.668
21
-103.731
62
0
0
LINE
8
1
10
197.668
20
-103.731
11
198.416
21
-97.656
62
0
0
LINE
8
1
10
198.416
20
-97.656
11
198.428
21
-67.754
62
0
0
LINE
8
1
10
198.428
20
-67.754
11
191.009
21
-2.739
62
0
0
LINE
8
1
10
191.009
20
-2.739
11
182.991
21
-2.74
62
0
0
LINE
8
1
10
182.991
20
-2.74
11
175.511
21
-69.188
62
0
0
LINE
8
1
10
175.511
20
-69.188
11
175.701
21
-99.181
62
0
0
LINE
8
1
10
175.701
20
-99.181
11
176.634
21
-105.232
62
0
0
LINE
8
1
10
176.634
20
-105.232
11
183.248
21
-131.67
62
0
0
LINE
8
1
10
183.248
20
-131.67
11
183.435
21
-132.093
62
0
0
LINE
8
1
10
183.435
20
-132.093
11
183.67
21
-132.491
62
0
0
LINE
8
1
10
183.67
20
-132.491
11
183.949
21
-132.859
62
0
0
LINE
8
1
10
183.949
20
-132.859
11
184.268
21
-133.193
62
0
0
LINE
8
1
10
184.268
20
-133.193
11
184.624
21
-133.488
62
0
0
LINE
8
1
10
184.624
20
-133.488
11
185.012
21
-133.74
62
0
0
LINE
8
1
10
185.012
20
-133.74
11
185.425
21
-133.945
62
0
0
LINE
8
1
10
185.425
20
-133.945
11
185.86
21
-134.102
62
0
0
LINE
8
1
10
185.86
20
-134.102
11
186.31
21
-134.207
62
0
0
LINE
8
1
10
186.31
20
-134.207
11
186.769
21
-134.26
62
0
0
LINE
8
1
10
186.769
20
-134.26
11
187.231
21
-134.26
62
0
0
LINE
8
1
10
187.231
20
-134.26
11
187.69
21
-134.207
62
0
0
LINE
8
1
10
163.69
20
-134.207
11
164.14
21
-134.102
62
0
0
LINE
8
1
10
164.14
20
-134.102
11
164.575
21
-133.945
62
0
0
LINE
8
1
10
164.575
20
-133.945
11
164.988
21
-133.74
62
0
0
LINE
8
1
10
164.988
20
-133.74
11
165.376
21
-133.488
62
0
0
LINE
8
1
10
165.376
20
-133.488
11
165.732
21
-133.193
62
0
0
LINE
8
1
10
165.732
20
-133.193
11
166.052
21
-132.86
62
0
0
LINE
8
1
10
166.052
20
-132.86
11
166.33
21
-132.491
62
0
0
LINE
8
1
10
166.33
20
-132.491
11
166.565
21
-132.093
62
0
0
LINE
8
1
10
166.565
20
-132.093
11
166.752
21
-131.67
62
0
0
LINE
8
1
10
166.752
20
-131.67
11
173.668
21
-103.731
62
0
0
LINE
8
1
10
173.668
20
-103.731
11
174.416
21
-97.656
62
0
0
LINE
8
1
10
174.416
20
-97.656
11
174.428
21
-67.754
62
0
0
LINE
8
1
10
174.428
20
-67.754
11
167.009
21
-2.739
62
0
0
LINE
8
1
10
167.009
20
-2.739
11
158.991
21
-2.74
62
0
0
LINE
8
1
10
158.991
20
-2.74
11
151.511
21
-69.188
62
0
0
LINE
8
1
10
151.511
20
-69.188
11
151.701
21
-99.181
62
0
0
LINE
8
1
10
151.701
20
-99.181
11
152.634
21
-105.232
62
0
0
LINE
8
1
10
152.634
20
-105.232
11
159.248
21
-131.67
62
0
0
LINE
8
1
10
159.248
20
-131.67
11
159.435
21
-132.093
62
0
0
LINE
8
1
10
159.435
20
-132.093
11
159.67
21
-132.491
62
0
0
LINE
8
1
10
159.67
20
-132.491
11
159.949
21
-132.859
62
0
0
LINE
8
1
10
159.949
20
-132.859
11
160.268
21
-133.193
62
0
0
LINE
8
1
10
160.268
20
-133.193
11
160.624
21
-133.488
62
0
0
LINE
8
1
10
160.624
20
-133.488
11
161.012
21
-133.74
62
0
0
LINE
8
1
10
161.012
20
-133.74
11
161.425
21
-133.945
62
0
0
LINE
8
1
10
161.425
20
-133.945
11
161.86
21
-134.102
62
0
0
LINE
8
1
10
161.86
20
-134.102
11
162.31
21
-134.207
62
0
0
LINE
8
1
10
162.31
20
-134.207
11
162.769
21
-134.26
62
0
0
LINE
8
1
10
162.769
20
-134.26
11
163.231
21
-134.26
62
0
0
LINE
8
1
10
163.231
20
-134.26
11
163.69
21
-134.207
62
0
0
LINE
8
1
10
185.435
20
-12.84
11
185.435
21
-5.76
62
0
0
LINE
8
1
10
185.435
20
-5.76
11
188.565
21
-5.76
62
0
0
LINE
8
1
10
188.565
20
-5.76
11
188.565
21
-12.84
62
0
0
LINE
8
1
10
188.565
20
-12.84
11
185.435
21
-12.84
62
0
0
LINE
8
1
10
161.435
20
-12.84
11
161.435
21
-5.76
62
0
0
LINE
8
1
10
161.435
20
-5.76
11
164.565
21
-5.76
62
0
0
LINE
8
1
10
164.565
20
-5.76
11
164.565
21
-12.84
62
0
0
LINE
8
1
10
164.565
20
-12.84
11
161.435
21
-12.84
62
0
0
CIRCLE
8
1
10
-52.748
20
-7.998
40
2.01469
62
0
0
CIRCLE
8
1
10
111.25
20
-8
40
2.01473
62
0
0
CIRCLE
8
1
10
7.7
20
-13.998
40
2.03991
62
0
0
CIRCLE
8
1
10
-58.748
20
-13.998
40
2.01469
62
0
0
CIRCLE
8
1
10
-52.748
20
-13.998
40
2.01469
62
0
0
CIRCLE
8
1
10
-46.748
20
-13.998
40
2.01469
62
0
0
LINE
8
1
10
27.16
20
-15.564
11
27.16
21
-12.434
62
0
0
LINE
8
1
10
27.16
20
-12.434
11
34.24
21
-12.434
62
0
0
LINE
8
1
10
34.24
20
-12.434
11
34.24
21
-15.564
62
0
0
LINE
8
1
10
34.24
20
-15.564
11
27.16
21
-15.564
62
0
0
LINE
8
1
10
13.161
20
-15.564
11
13.161
21
-12.434
62
0
0
LINE
8
1
10
13.161
20
-12.434
11
20.24
21
-12.434
62
0
0
LINE
8
1
10
20.24
20
-12.434
11
20.24
21
-15.564
62
0
0
LINE
8
1
10
20.24
20
-15.564
11
13.161
21
-15.564
62
0
0
LINE
8
1
10
-4.838
20
-15.564
11
-4.838
21
-12.434
62
0
0
LINE
8
1
10
-4.838
20
-12.434
11
2.24
21
-12.434
62
0
0
LINE
8
1
10
2.24
20
-12.434
11
2.24
21
-15.564
62
0
0
LINE
8
1
10
2.24
20
-15.564
11
-4.838
21
-15.564
62
0
0
CIRCLE
8
1
10
-121.998
20
-16.999
40
1.58977
62
0
0
CIRCLE
8
1
10
-52.748
20
-19.998
40
2.01469
62
0
0
LINE
8
1
10
185.435
20
-26.84
11
185.435
21
-19.76
62
0
0
LINE
8
1
10
185.435
20
-19.76
11
188.565
21
-19.76
62
0
0
LINE
8
1
10
188.565
20
-19.76
11
188.565
21
-26.84
62
0
0
LINE
8
1
10
188.565
20
-26.84
11
185.435
21
-26.84
62
0
0
LINE
8
1
10
161.435
20
-26.84
11
161.435
21
-19.76
62
0
0
LINE
8
1
10
161.435
20
-19.76
11
164.565
21
-19.76
62
0
0
LINE
8
1
10
164.565
20
-19.76
11
164.565
21
-26.84
62
0
0
LINE
8
1
10
164.565
20
-26.84
11
161.435
21
-26.84
62
0
0
LINE
8
1
10
61.682
20
-44.299
11
67.733
21
-43.366
62
0
0
LINE
8
1
10
67.733
20
-43.366
11
94.171
21
-36.752
62
0
0
LINE
8
1
10
94.171
20
-36.752
11
94.594
21
-36.565
62
0
0
LINE
8
1
10
94.594
20
-36.565
11
94.992
21
-36.33
62
0
0
LINE
8
1
10
94.992
20
-36.33
11
95.361
21
-36.052
62
0
0
LINE
8
1
10
95.361
20
-36.052
11
95.694
21
-35.732
62
0
0
LINE
8
1
10
95.694
20
-35.732
11
95.989
21
-35.376
62
0
0
LINE
8
1
10
95.989
20
-35.376
11
96.241
21
-34.988
62
0
0
LINE
8
1
10
96.241
20
-34.988
11
96.446
21
-34.575
62
0
0
LINE
8
1
10
96.446
20
-34.575
11
96.603
21
-34.14
62
0
0
LINE
8
1
10
96.603
20
-34.14
11
96.708
21
-33.69
62
0
0
LINE
8
1
10
96.708
20
-33.69
11
96.761
21
-33.231
62
0
0
LINE
8
1
10
96.761
20
-33.231
11
96.761
21
-32.769
62
0
0
LINE
8
1
10
96.761
20
-32.769
11
96.708
21
-32.31
62
0
0
LINE
8
1
10
96.708
20
-32.31
11
96.603
21
-31.86
62
0
0
LINE
8
1
10
96.603
20
-31.86
11
96.446
21
-31.425
62
0
0
LINE
8
1
10
96.446
20
-31.425
11
96.241
21
-31.012
62
0
0
LINE
8
1
10
96.241
20
-31.012
11
95.989
21
-30.624
62
0
0
LINE
8
1
10
95.989
20
-30.624
11
95.694
21
-30.268
62
0
0
LINE
8
1
10
95.694
20
-30.268
11
95.361
21
-29.948
62
0
0
LINE
8
1
10
95.361
20
-29.948
11
94.992
21
-29.67
62
0
0
LINE
8
1
10
94.992
20
-29.67
11
94.594
21
-29.435
62
0
0
LINE
8
1
10
94.594
20
-29.435
11
94.171
21
-29.248
62
0
0
LINE
8
1
10
94.171
20
-29.248
11
66.232
21
-22.332
62
0
0
LINE
8
1
10
66.232
20
-22.332
11
60.157
21
-21.584
62
0
0
LINE
8
1
10
60.157
20
-21.584
11
30.255
21
-21.572
62
0
0
LINE
8
1
10
30.255
20
-21.572
11
-34.759
21
-28.991
62
0
0
LINE
8
1
10
-34.759
20
-28.991
11
-34.759
21
-37.009
62
0
0
LINE
8
1
10
-34.759
20
-37.009
11
31.689
21
-44.489
62
0
0
LINE
8
1
10
31.689
20
-44.489
11
61.682
21
-44.299
62
0
0
CIRCLE
8
1
10
55.25
20
-27
40
2.01473
62
0
0
CIRCLE
8
1
10
162.999
20
-32.299
40
2.03976
62
0
0
CIRCLE
8
1
10
186.999
20
-32.299
40
2.03976
62
0
0
CIRCLE
8
1
10
-5.198
20
-33
40
2.03992
62
0
0
CIRCLE
8
1
10
49.25
20
-33
40
2.01473
62
0
0
CIRCLE
8
1
10
55.25
20
-32.999
40
2.01472
62
0
0
CIRCLE
8
1
10
61.25
20
-32.999
40
2.01472
62
0
0
LINE
8
1
10
0.261
20
-34.565
11
0.26
21
-31.435
62
0
0
LINE
8
1
10
0.26
20
-31.435
11
7.34
21
-31.435
62
0
0
LINE
8
1
10
7.34
20
-31.435
11
7.34
21
-34.262
62
0
0
LINE
8
1
10
7.34
20
-34.262
11
7.341
21
-34.263
62
0
0
LINE
8
1
10
7.341
20
-34.263
11
7.341
21
-34.565
62
0
0
LINE
8
1
10
7.341
20
-34.565
11
0.261
21
-34.565
62
0
0
LINE
8
1
10
-17.739
20
-34.565
11
-17.739
21
-31.435
62
0
0
LINE
8
1
10
-17.739
20
-31.435
11
-10.659
21
-31.435
62
0
0
LINE
8
1
10
-10.659
20
-31.435
11
-10.659
21
-34.565
62
0
0
LINE
8
1
10
-10.659
20
-34.565
11
-17.739
21
-34.565
62
0
0
LINE
8
1
10
-31.739
20
-34.565
11
-31.739
21
-31.435
62
0
0
LINE
8
1
10
-31.739
20
-31.435
11
-24.659
21
-31.435
62
0
0
LINE
8
1
10
-24.659
20
-31.435
11
-24.659
21
-34.565
62
0
0
LINE
8
1
10
-24.659
20
-34.565
11
-31.739
21
-34.565
62
0
0
CIRCLE
8
1
10
55.25
20
-38.999
40
2.01472
62
0
0
LINE
8
1
10
185.435
20
-44.839
11
185.435
21
-37.76
62
0
0
LINE
8
1
10
185.435
20
-37.76
11
188.565
21
-37.76
62
0
0
LINE
8
1
10
188.565
20
-37.76
11
188.565
21
-44.839
62
0
0
LINE
8
1
10
188.565
20
-44.839
11
185.435
21
-44.839
62
0
0
LINE
8
1
10
161.435
20
-44.839
11
161.435
21
-37.76
62
0
0
LINE
8
1
10
161.435
20
-37.76
11
164.565
21
-37.76
62
0
0
LINE
8
1
10
164.565
20
-37.76
11
164.565
21
-44.839
62
0
0
LINE
8
1
10
164.565
20
-44.839
11
161.435
21
-44.839
62
0
0
LINE
8
1
10
150.011
20
-103.332
11
150.01
21
-71.668
62
0
0
LINE
8
1
10
150.01
20
-71.668
11
118.833
21
-40.49
62
0
0
LINE
8
1
10
118.833
20
-40.49
11
87.168
21
-40.49
62
0
0
LINE
8
1
10
87.168
20
-40.49
11
55.99
21
-71.668
62
0
0
LINE
8
1
10
55.99
20
-71.668
11
55.991
21
-103.332
62
0
0
LINE
8
1
10
55.991
20
-103.332
11
87.168
21
-134.51
62
0
0
LINE
8
1
10
87.168
20
-134.51
11
118.833
21
-134.51
62
0
0
LINE
8
1
10
118.833
20
-134.51
11
150.011
21
-103.332
62
0
0
LINE
8
1
10
46.425
20
-110.17
11
46.63
21
-110.413
62
0
0
LINE
8
1
10
46.63
20
-110.413
11
46.87
21
-110.62
62
0
0
LINE
8
1
10
46.87
20
-110.62
11
47.14
21
-110.787
62
0
0
LINE
8
1
10
47.14
20
-110.787
11
47.433
21
-110.91
62
0
0
LINE
8
1
10
47.433
20
-110.91
11
47.742
21
-110.984
62
0
0
LINE
8
1
10
47.742
20
-110.984
11
55.189
21
-111.01
62
0
0
LINE
8
1
10
55.189
20
-111.01
11
55.189
21
-67.989
62
0
0
LINE
8
1
10
55.189
20
-67.989
11
47.743
21
-68.014
62
0
0
LINE
8
1
10
47.743
20
-68.014
11
47.433
21
-68.088
62
0
0
LINE
8
1
10
47.433
20
-68.088
11
47.14
21
-68.211
62
0
0
LINE
8
1
10
47.14
20
-68.211
11
46.87
21
-68.378
62
0
0
LINE
8
1
10
46.87
20
-68.378
11
46.63
21
-68.585
62
0
0
LINE
8
1
10
46.63
20
-68.585
11
46.425
21
-68.828
62
0
0
LINE
8
1
10
46.425
20
-68.828
11
46.278
21
-69.072
62
0
0
LINE
8
1
10
46.278
20
-69.072
11
45.939
21
-69.687
62
0
0
LINE
8
1
10
45.939
20
-69.687
11
45.737
21
-69.925
62
0
0
LINE
8
1
10
45.737
20
-69.925
11
45.498
21
-70.132
62
0
0
LINE
8
1
10
45.498
20
-70.132
11
45.231
21
-70.297
62
0
0
LINE
8
1
10
45.231
20
-70.297
11
44.943
21
-70.418
62
0
0
LINE
8
1
10
44.943
20
-70.418
11
44.636
21
-70.492
62
0
0
LINE
8
1
10
44.636
20
-70.492
11
44.323
21
-70.517
62
0
0
LINE
8
1
10
44.323
20
-70.517
11
44.009
21
-70.492
62
0
0
LINE
8
1
10
44.009
20
-70.492
11
43.702
21
-70.418
62
0
0
LINE
8
1
10
43.702
20
-70.418
11
43.414
21
-70.297
62
0
0
LINE
8
1
10
43.414
20
-70.297
11
43.147
21
-70.132
62
0
0
LINE
8
1
10
43.147
20
-70.132
11
42.908
21
-69.925
62
0
0
LINE
8
1
10
42.908
20
-69.925
11
42.705
21
-69.686
62
0
0
LINE
8
1
10
42.705
20
-69.686
11
42.233
21
-68.846
62
0
0
LINE
8
1
10
42.233
20
-68.846
11
42.046
21
-68.618
62
0
0
LINE
8
1
10
42.046
20
-68.618
11
41.829
21
-68.419
62
0
0
LINE
8
1
10
41.829
20
-68.419
11
41.608
21
-68.267
62
0
0
LINE
8
1
10
41.608
20
-68.267
11
41.369
21
-68.148
62
0
0
LINE
8
1
10
41.369
20
-68.148
11
41.116
21
-68.06
62
0
0
LINE
8
1
10
41.116
20
-68.06
11
40.853
21
-68.007
62
0
0
LINE
8
1
10
40.853
20
-68.007
11
40.333
21
-67.989
62
0
0
LINE
8
1
10
40.333
20
-67.989
11
40.333
21
-66.989
62
0
0
LINE
8
1
10
40.333
20
-66.989
11
38.327
21
-66.989
62
0
0
LINE
8
1
10
38.327
20
-66.989
11
15.826
21
-44.489
62
0
0
LINE
8
1
10
15.826
20
-44.489
11
-14.181
21
-44.489
62
0
0
LINE
8
1
10
-14.181
20
-44.489
11
-44.186
21
-74.495
62
0
0
LINE
8
1
10
-44.186
20
-74.495
11
-44.186
21
-104.503
62
0
0
LINE
8
1
10
-44.186
20
-104.503
11
-14.181
21
-134.509
62
0
0
LINE
8
1
10
-14.181
20
-134.509
11
15.826
21
-134.509
62
0
0
LINE
8
1
10
15.826
20
-134.509
11
38.327
21
-112.009
62
0
0
LINE
8
1
10
38.327
20
-112.009
11
40.333
21
-112.009
62
0
0
LINE
8
1
10
40.333
20
-112.009
11
40.333
21
-111.009
62
0
0
LINE
8
1
10
40.333
20
-111.009
11
40.853
21
-110.991
62
0
0
LINE
8
1
10
40.853
20
-110.991
11
41.116
21
-110.938
62
0
0
LINE
8
1
10
41.116
20
-110.938
11
41.369
21
-110.85
62
0
0
LINE
8
1
10
41.369
20
-110.85
11
41.608
21
-110.731
62
0
0
LINE
8
1
10
41.608
20
-110.731
11
41.829
21
-110.579
62
0
0
LINE
8
1
10
41.829
20
-110.579
11
42.046
21
-110.38
62
0
0
LINE
8
1
10
42.046
20
-110.38
11
42.233
21
-110.152
62
0
0
LINE
8
1
10
42.233
20
-110.152
11
42.705
21
-109.312
62
0
0
LINE
8
1
10
42.705
20
-109.312
11
42.908
21
-109.073
62
0
0
LINE
8
1
10
42.908
20
-109.073
11
43.147
21
-108.866
62
0
0
LINE
8
1
10
43.147
20
-108.866
11
43.414
21
-108.701
62
0
0
LINE
8
1
10
43.414
20
-108.701
11
43.702
21
-108.58
62
0
0
LINE
8
1
10
43.702
20
-108.58
11
44.009
21
-108.506
62
0
0
LINE
8
1
10
44.009
20
-108.506
11
44.323
21
-108.481
62
0
0
LINE
8
1
10
44.323
20
-108.481
11
44.636
21
-108.506
62
0
0
LINE
8
1
10
44.636
20
-108.506
11
44.943
21
-108.58
62
0
0
LINE
8
1
10
44.943
20
-108.58
11
45.231
21
-108.701
62
0
0
LINE
8
1
10
45.231
20
-108.701
11
45.498
21
-108.866
62
0
0
LINE
8
1
10
45.498
20
-108.866
11
45.737
21
-109.073
62
0
0
LINE
8
1
10
45.737
20
-109.073
11
45.94
21
-109.312
62
0
0
LINE
8
1
10
45.94
20
-109.312
11
46.425
21
-110.17
62
0
0
CIRCLE
8
1
10
103
20
-46.5
40
1.58993
62
0
0
LINE
8
1
10
91.732
20
-123.49
11
67.01
21
-98.768
62
0
0
LINE
8
1
10
67.01
20
-98.768
11
67.01
21
-76.232
62
0
0
LINE
8
1
10
67.01
20
-76.232
11
91.732
21
-51.51
62
0
0
LINE
8
1
10
91.732
20
-51.51
11
114.269
21
-51.51
62
0
0
LINE
8
1
10
114.269
20
-51.51
11
138.99
21
-76.232
62
0
0
LINE
8
1
10
138.99
20
-76.232
11
138.991
21
-98.768
62
0
0
LINE
8
1
10
138.991
20
-98.768
11
114.269
21
-123.49
62
0
0
LINE
8
1
10
114.269
20
-123.49
11
91.732
21
-123.49
62
0
0
CIRCLE
8
1
10
-10.676
20
-54.499
40
2.24001
62
0
0
CIRCLE
8
1
10
12.322
20
-54.498
40
2.23989
62
0
0
CIRCLE
8
1
10
80.778
20
-56.792
40
1.99005
62
0
0
CIRCLE
8
1
10
125.222
20
-56.792
40
1.99004
62
0
0
CIRCLE
8
1
10
-80.998
20
-57.999
40
1.58977
62
0
0
CIRCLE
8
1
10
-162.998
20
-57.999
40
1.58972
62
0
0
CIRCLE
8
1
10
-21.398
20
-58.791
40
1.99004
62
0
0
CIRCLE
8
1
10
23.044
20
-58.791
40
1.99004
62
0
0
LINE
8
1
10
114.51
20
-86.51
11
117.51
21
-86.51
62
0
0
LINE
8
1
10
117.51
20
-86.51
11
117.51
21
-79.49
62
0
0
LINE
8
1
10
117.51
20
-79.49
11
114.51
21
-79.49
62
0
0
LINE
8
1
10
114.51
20
-79.49
11
114.51
21
-72.51
62
0
0
LINE
8
1
10
114.51
20
-72.51
11
117.51
21
-72.51
62
0
0
LINE
8
1
10
117.51
20
-72.51
11
117.51
21
-65.49
62
0
0
LINE
8
1
10
117.51
20
-65.49
11
114.51
21
-65.49
62
0
0
LINE
8
1
10
114.51
20
-65.49
11
114.51
21
-62.494
62
0
0
LINE
8
1
10
114.51
20
-62.494
11
110.754
21
-60.959
62
0
0
LINE
8
1
10
110.754
20
-60.959
11
107.003
21
-59.865
62
0
0
LINE
8
1
10
107.003
20
-59.865
11
103.252
21
-59.208
62
0
0
LINE
8
1
10
103.252
20
-59.208
11
99.97
21
-58.993
62
0
0
LINE
8
1
10
99.97
20
-58.993
11
96.313
21
-59.148
62
0
0
LINE
8
1
10
96.313
20
-59.148
11
93.031
21
-59.64
62
0
0
LINE
8
1
10
93.031
20
-59.64
11
89.654
21
-60.497
62
0
0
LINE
8
1
10
89.654
20
-60.497
11
85.903
21
-61.865
62
0
0
LINE
8
1
10
85.903
20
-61.865
11
84.49
21
-62.493
62
0
0
LINE
8
1
10
84.49
20
-62.493
11
84.49
21
-65.49
62
0
0
LINE
8
1
10
84.49
20
-65.49
11
81.49
21
-65.49
62
0
0
LINE
8
1
10
81.49
20
-65.49
11
81.49
21
-72.51
62
0
0
LINE
8
1
10
81.49
20
-72.51
11
84.49
21
-72.51
62
0
0
LINE
8
1
10
84.49
20
-72.51
11
84.49
21
-79.49
62
0
0
LINE
8
1
10
84.49
20
-79.49
11
81.49
21
-79.49
62
0
0
LINE
8
1
10
81.49
20
-79.49
11
81.49
21
-86.51
62
0
0
LINE
8
1
10
81.49
20
-86.51
11
84.49
21
-86.51
62
0
0
LINE
8
1
10
84.49
20
-86.51
11
84.49
21
-88.01
62
0
0
LINE
8
1
10
84.49
20
-88.01
11
114.51
21
-88.01
62
0
0
LINE
8
1
10
114.51
20
-88.01
11
114.51
21
-86.51
62
0
0
CIRCLE
8
1
10
76.536
20
-61.035
40
1.98999
62
0
0
CIRCLE
8
1
10
129.465
20
-61.035
40
1.99
62
0
0
CIRCLE
8
1
10
-25.64
20
-63.034
40
1.98999
62
0
0
CIRCLE
8
1
10
27.287
20
-63.034
40
1.98997
62
0
0
CIRCLE
8
1
10
72.293
20
-65.278
40
1.98998
62
0
0
CIRCLE
8
1
10
133.707
20
-65.278
40
1.98999
62
0
0
CIRCLE
8
1
10
-29.883
20
-67.277
40
1.99001
62
0
0
CIRCLE
8
1
10
31.529
20
-67.277
40
1.98999
62
0
0
CIRCLE
8
1
10
52.179
20
-70.999
40
1.58994
62
0
0
CIRCLE
8
1
10
-34.176
20
-77.998
40
2.23985
62
0
0
CIRCLE
8
1
10
35.822
20
-77.999
40
2.23999
62
0
0
CIRCLE
8
1
10
186.999
20
-86.749
40
2.01472
62
0
0
CIRCLE
8
1
10
162.999
20
-86.749
40
2.01472
62
0
0
CIRCLE
8
1
10
62
20
-87.5
40
1.5899
62
0
0
CIRCLE
8
1
10
144
20
-87.5
40
1.58987
62
0
0
LINE
8
1
10
107.157
20
-118.802
11
110.44
21
-118.261
62
0
0
LINE
8
1
10
110.44
20
-118.261
11
114.285
21
-117.201
62
0
0
LINE
8
1
10
114.285
20
-117.201
11
118.036
21
-115.724
62
0
0
LINE
8
1
10
118.036
20
-115.724
11
118.511
21
-115.506
62
0
0
LINE
8
1
10
118.511
20
-115.506
11
118.511
21
-112.51
62
0
0
LINE
8
1
10
118.511
20
-112.51
11
121.511
21
-112.51
62
0
0
LINE
8
1
10
121.511
20
-112.51
11
121.511
21
-105.49
62
0
0
LINE
8
1
10
121.511
20
-105.49
11
118.511
21
-105.49
62
0
0
LINE
8
1
10
118.511
20
-105.49
11
118.511
21
-98.51
62
0
0
LINE
8
1
10
118.511
20
-98.51
11
121.511
21
-98.51
62
0
0
LINE
8
1
10
121.511
20
-98.51
11
121.511
21
-91.49
62
0
0
LINE
8
1
10
121.511
20
-91.49
11
118.511
21
-91.49
62
0
0
LINE
8
1
10
118.511
20
-91.49
11
118.511
21
-89.99
62
0
0
LINE
8
1
10
118.511
20
-89.99
11
88.491
21
-89.99
62
0
0
LINE
8
1
10
88.491
20
-89.99
11
88.491
21
-91.49
62
0
0
LINE
8
1
10
88.491
20
-91.49
11
85.491
21
-91.49
62
0
0
LINE
8
1
10
85.491
20
-91.49
11
85.491
21
-98.51
62
0
0
LINE
8
1
10
85.491
20
-98.51
11
88.491
21
-98.51
62
0
0
LINE
8
1
10
88.491
20
-98.51
11
88.491
21
-105.49
62
0
0
LINE
8
1
10
88.491
20
-105.49
11
85.491
21
-105.49
62
0
0
LINE
8
1
10
85.491
20
-105.49
11
85.491
21
-112.51
62
0
0
LINE
8
1
10
85.491
20
-112.51
11
88.491
21
-112.51
62
0
0
LINE
8
1
10
88.491
20
-112.51
11
88.491
21
-115.506
62
0
0
LINE
8
1
10
88.491
20
-115.506
11
92.247
21
-117.04
62
0
0
LINE
8
1
10
92.247
20
-117.04
11
95.998
21
-118.135
62
0
0
LINE
8
1
10
95.998
20
-118.135
11
99.749
21
-118.791
62
0
0
LINE
8
1
10
99.749
20
-118.791
11
103.501
21
-119.01
62
0
0
LINE
8
1
10
103.501
20
-119.01
11
107.157
21
-118.802
62
0
0
CIRCLE
8
1
10
192.999
20
-92.749
40
2.01472
62
0
0
CIRCLE
8
1
10
186.999
20
-92.749
40
2.01472
62
0
0
CIRCLE
8
1
10
180.999
20
-92.749
40
2.01472
62
0
0
CIRCLE
8
1
10
168.999
20
-92.749
40
2.01472
62
0
0
CIRCLE
8
1
10
162.999
20
-92.749
40
2.01472
62
0
0
CIRCLE
8
1
10
156.999
20
-92.749
40
2.01472
62
0
0
LINE
8
1
10
-165.489
20
-132.51
11
-162.489
21
-132.51
62
0
0
LINE
8
1
10
-162.489
20
-132.51
11
-162.489
21
-125.49
62
0
0
LINE
8
1
10
-162.489
20
-125.49
11
-165.489
21
-125.49
62
0
0
LINE
8
1
10
-165.489
20
-125.49
11
-165.489
21
-118.51
62
0
0
LINE
8
1
10
-165.489
20
-118.51
11
-162.489
21
-118.51
62
0
0
LINE
8
1
10
-162.489
20
-118.51
11
-162.489
21
-111.49
62
0
0
LINE
8
1
10
-162.489
20
-111.49
11
-165.489
21
-111.49
62
0
0
LINE
8
1
10
-165.489
20
-111.49
11
-165.489
21
-108.494
62
0
0
LINE
8
1
10
-165.489
20
-108.494
11
-169.245
21
-106.959
62
0
0
LINE
8
1
10
-169.245
20
-106.959
11
-172.996
21
-105.865
62
0
0
LINE
8
1
10
-172.996
20
-105.865
11
-176.747
21
-105.208
62
0
0
LINE
8
1
10
-176.747
20
-105.208
11
-179.769
21
-105.01
62
0
0
LINE
8
1
10
-179.769
20
-105.01
11
-165.488
21
-105.01
62
0
0
LINE
8
1
10
-165.488
20
-105.01
11
-165.488
21
-103.01
62
0
0
LINE
8
1
10
-165.488
20
-103.01
11
-162.488
21
-103.01
62
0
0
LINE
8
1
10
-162.488
20
-103.01
11
-162.488
21
-95.99
62
0
0
LINE
8
1
10
-162.488
20
-95.99
11
-165.488
21
-95.99
62
0
0
LINE
8
1
10
-165.488
20
-95.99
11
-165.488
21
-90.986
62
0
0
LINE
8
1
10
-165.488
20
-90.986
11
-170.657
21
-92.413
62
0
0
LINE
8
1
10
-170.657
20
-92.413
11
-175.344
21
-93.194
62
0
0
LINE
8
1
10
-175.344
20
-93.194
11
-180.03
21
-93.487
62
0
0
LINE
8
1
10
-180.03
20
-93.487
11
-184.716
21
-93.292
62
0
0
LINE
8
1
10
-184.716
20
-93.292
11
-189.308
21
-92.627
62
0
0
LINE
8
1
10
-189.308
20
-92.627
11
-194.558
21
-91.292
62
0
0
LINE
8
1
10
-194.558
20
-91.292
11
-195.399
21
-91.021
62
0
0
LINE
8
1
10
-195.399
20
-91.021
11
-195.508
21
-90.986
62
0
0
LINE
8
1
10
-195.508
20
-90.986
11
-195.508
21
-95.99
62
0
0
LINE
8
1
10
-195.508
20
-95.99
11
-198.508
21
-95.99
62
0
0
LINE
8
1
10
-198.508
20
-95.99
11
-198.508
21
-103.01
62
0
0
LINE
8
1
10
-198.508
20
-103.01
11
-195.508
21
-103.01
62
0
0
LINE
8
1
10
-195.508
20
-103.01
11
-195.508
21
-105.01
62
0
0
LINE
8
1
10
-195.508
20
-105.01
11
-180.418
21
-105.01
62
0
0
LINE
8
1
10
-180.418
20
-105.01
11
-183.781
21
-105.157
62
0
0
LINE
8
1
10
-183.781
20
-105.157
11
-187.063
21
-105.659
62
0
0
LINE
8
1
10
-187.063
20
-105.659
11
-190.72
21
-106.614
62
0
0
LINE
8
1
10
-190.72
20
-106.614
11
-194.471
21
-108.026
62
0
0
LINE
8
1
10
-194.471
20
-108.026
11
-195.509
21
-108.493
62
0
0
LINE
8
1
10
-195.509
20
-108.493
11
-195.509
21
-111.49
62
0
0
LINE
8
1
10
-195.509
20
-111.49
11
-198.509
21
-111.49
62
0
0
LINE
8
1
10
-198.509
20
-111.49
11
-198.509
21
-118.51
62
0
0
LINE
8
1
10
-198.509
20
-118.51
11
-195.509
21
-118.51
62
0
0
LINE
8
1
10
-195.509
20
-118.51
11
-195.509
21
-125.49
62
0
0
LINE
8
1
10
-195.509
20
-125.49
11
-198.509
21
-125.49
62
0
0
LINE
8
1
10
-198.509
20
-125.49
11
-198.509
21
-132.51
62
0
0
LINE
8
1
10
-198.509
20
-132.51
11
-195.509
21
-132.51
62
0
0
LINE
8
1
10
-195.509
20
-132.51
11
-195.509
21
-134.01
62
0
0
LINE
8
1
10
-195.509
20
-134.01
11
-165.489
21
-134.01
62
0
0
LINE
8
1
10
-165.489
20
-134.01
11
-165.489
21
-132.51
62
0
0
CIRCLE
8
1
10
186.999
20
-98.749
40
2.01472
62
0
0
CIRCLE
8
1
10
162.999
20
-98.749
40
2.01472
62
0
0
CIRCLE
8
1
10
-121.998
20
-98.999
40
1.58977
62
0
0
LINE
8
1
10
-51.989
20
-131.51
11
-46.985
21
-131.51
62
0
0
LINE
8
1
10
-46.985
20
-131.51
11
-48.412
21
-126.341
62
0
0
LINE
8
1
10
-48.412
20
-126.341
11
-49.193
21
-121.654
62
0
0
LINE
8
1
10
-49.193
20
-121.654
11
-49.486
21
-116.968
62
0
0
LINE
8
1
10
-49.486
20
-116.968
11
-49.291
21
-112.281
62
0
0
LINE
8
1
10
-49.291
20
-112.281
11
-48.626
21
-107.69
62
0
0
LINE
8
1
10
-48.626
20
-107.69
11
-47.291
21
-102.44
62
0
0
LINE
8
1
10
-47.291
20
-102.44
11
-47.02
21
-101.599
62
0
0
LINE
8
1
10
-47.02
20
-101.599
11
-46.985
21
-101.49
62
0
0
LINE
8
1
10
-46.985
20
-101.49
11
-51.989
21
-101.49
62
0
0
LINE
8
1
10
-51.989
20
-101.49
11
-51.989
21
-98.49
62
0
0
LINE
8
1
10
-51.989
20
-98.49
11
-59.009
21
-98.49
62
0
0
LINE
8
1
10
-59.009
20
-98.49
11
-59.009
21
-101.49
62
0
0
LINE
8
1
10
-59.009
20
-101.49
11
-61.009
21
-101.49
62
0
0
LINE
8
1
10
-61.009
20
-101.49
11
-61.009
21
-131.51
62
0
0
LINE
8
1
10
-61.009
20
-131.51
11
-59.009
21
-131.51
62
0
0
LINE
8
1
10
-59.009
20
-131.51
11
-59.008
21
-134.51
62
0
0
LINE
8
1
10
-59.008
20
-134.51
11
-51.988
21
-134.51
62
0
0
LINE
8
1
10
-51.988
20
-134.51
11
-51.989
21
-131.51
62
0
0
LINE
8
1
10
-152.988
20
-131.51
11
-147.984
21
-131.51
62
0
0
LINE
8
1
10
-147.984
20
-131.51
11
-149.412
21
-126.341
62
0
0
LINE
8
1
10
-149.412
20
-126.341
11
-150.193
21
-121.654
62
0
0
LINE
8
1
10
-150.193
20
-121.654
11
-150.486
21
-116.968
62
0
0
LINE
8
1
10
-150.486
20
-116.968
11
-150.291
21
-112.281
62
0
0
LINE
8
1
10
-150.291
20
-112.281
11
-149.626
21
-107.69
62
0
0
LINE
8
1
10
-149.626
20
-107.69
11
-148.291
21
-102.44
62
0
0
LINE
8
1
10
-148.291
20
-102.44
11
-148.02
21
-101.599
62
0
0
LINE
8
1
10
-148.02
20
-101.599
11
-147.985
21
-101.49
62
0
0
LINE
8
1
10
-147.985
20
-101.49
11
-152.989
21
-101.49
62
0
0
LINE
8
1
10
-152.989
20
-101.49
11
-152.989
21
-98.49
62
0
0
LINE
8
1
10
-152.989
20
-98.49
11
-160.009
21
-98.49
62
0
0
LINE
8
1
10
-160.009
20
-98.49
11
-160.009
21
-101.49
62
0
0
LINE
8
1
10
-160.009
20
-101.49
11
-162.009
21
-101.49
62
0
0
LINE
8
1
10
-162.009
20
-101.49
11
-162.008
21
-131.51
62
0
0
LINE
8
1
10
-162.008
20
-131.51
11
-160.008
21
-131.51
62
0
0
LINE
8
1
10
-160.008
20
-131.51
11
-160.008
21
-134.51
62
0
0
LINE
8
1
10
-160.008
20
-134.51
11
-152.988
21
-134.51
62
0
0
LINE
8
1
10
-152.988
20
-134.51
11
-152.988
21
-131.51
62
0
0
CIRCLE
8
1
10
-34.176
20
-100.999
40
2.23999
62
0
0
CIRCLE
8
1
10
35.822
20
-100.998
40
2.23995
62
0
0
LINE
8
1
10
-64.489
20
-132.51
11
-61.489
21
-132.51
62
0
0
LINE
8
1
10
-61.489
20
-132.51
11
-61.489
21
-125.49
62
0
0
LINE
8
1
10
-61.489
20
-125.49
11
-64.489
21
-125.49
62
0
0
LINE
8
1
10
-64.489
20
-125.49
11
-64.489
21
-118.51
62
0
0
LINE
8
1
10
-64.489
20
-118.51
11
-61.489
21
-118.51
62
0
0
LINE
8
1
10
-61.489
20
-118.51
11
-61.489
21
-111.49
62
0
0
LINE
8
1
10
-61.489
20
-111.49
11
-64.489
21
-111.49
62
0
0
LINE
8
1
10
-64.489
20
-111.49
11
-64.489
21
-108.494
62
0
0
LINE
8
1
10
-64.489
20
-108.494
11
-68.245
21
-106.959
62
0
0
LINE
8
1
10
-68.245
20
-106.959
11
-71.996
21
-105.865
62
0
0
LINE
8
1
10
-71.996
20
-105.865
11
-75.747
21
-105.208
62
0
0
LINE
8
1
10
-75.747
20
-105.208
11
-79.029
21
-104.993
62
0
0
LINE
8
1
10
-79.029
20
-104.993
11
-82.686
21
-105.148
62
0
0
LINE
8
1
10
-82.686
20
-105.148
11
-85.968
21
-105.64
62
0
0
LINE
8
1
10
-85.968
20
-105.64
11
-89.345
21
-106.497
62
0
0
LINE
8
1
10
-89.345
20
-106.497
11
-93.096
21
-107.865
62
0
0
LINE
8
1
10
-93.096
20
-107.865
11
-94.509
21
-108.493
62
0
0
LINE
8
1
10
-94.509
20
-108.493
11
-94.509
21
-111.49
62
0
0
LINE
8
1
10
-94.509
20
-111.49
11
-97.509
21
-111.49
62
0
0
LINE
8
1
10
-97.509
20
-111.49
11
-97.509
21
-118.51
62
0
0
LINE
8
1
10
-97.509
20
-118.51
11
-94.509
21
-118.51
62
0
0
LINE
8
1
10
-94.509
20
-118.51
11
-94.509
21
-125.49
62
0
0
LINE
8
1
10
-94.509
20
-125.49
11
-97.509
21
-125.49
62
0
0
LINE
8
1
10
-97.509
20
-125.49
11
-97.509
21
-132.51
62
0
0
LINE
8
1
10
-97.509
20
-132.51
11
-94.509
21
-132.51
62
0
0
LINE
8
1
10
-94.509
20
-132.51
11
-94.509
21
-134.01
62
0
0
LINE
8
1
10
-94.509
20
-134.01
11
-64.489
21
-134.01
62
0
0
LINE
8
1
10
-64.489
20
-134.01
11
-64.489
21
-132.51
62
0
0
CIRCLE
8
1
10
52.179
20
-107.999
40
1.58994
62
0
0
CIRCLE
8
1
10
72.293
20
-109.721
40
1.98998
62
0
0
CIRCLE
8
1
10
133.707
20
-109.721
40
1.99
62
0
0
CIRCLE
8
1
10
-29.883
20
-111.72
40
1.99001
62
0
0
CIRCLE
8
1
10
31.529
20
-111.72
40
1.98999
62
0
0
CIRCLE
8
1
10
76.536
20
-113.964
40
1.99
62
0
0
CIRCLE
8
1
10
129.465
20
-113.964
40
1.98998
62
0
0
CIRCLE
8
1
10
-25.64
20
-115.963
40
1.98999
62
0
0
CIRCLE
8
1
10
27.287
20
-115.963
40
1.98997
62
0
0
CIRCLE
8
1
10
80.778
20
-118.207
40
1.99004
62
0
0
CIRCLE
8
1
10
125.222
20
-118.207
40
1.99004
62
0
0
CIRCLE
8
1
10
-21.398
20
-120.206
40
1.99004
62
0
0
CIRCLE
8
1
10
23.044
20
-120.206
40
1.99004
62
0
0
LINE
8
1
10
63.511
20
-133.01
11
66.511
21
-133.01
62
0
0
LINE
8
1
10
66.511
20
-133.01
11
66.511
21
-125.99
62
0
0
LINE
8
1
10
66.511
20
-125.99
11
63.511
21
-125.99
62
0
0
LINE
8
1
10
63.511
20
-125.99
11
63.511
21
-120.986
62
0
0
LINE
8
1
10
63.511
20
-120.986
11
58.342
21
-122.413
62
0
0
LINE
8
1
10
58.342
20
-122.413
11
53.655
21
-123.194
62
0
0
LINE
8
1
10
53.655
20
-123.194
11
48.969
21
-123.487
62
0
0
LINE
8
1
10
48.969
20
-123.487
11
44.283
21
-123.292
62
0
0
LINE
8
1
10
44.283
20
-123.292
11
39.691
21
-122.627
62
0
0
LINE
8
1
10
39.691
20
-122.627
11
34.441
21
-121.292
62
0
0
LINE
8
1
10
34.441
20
-121.292
11
33.6
21
-121.021
62
0
0
LINE
8
1
10
33.6
20
-121.021
11
33.491
21
-120.986
62
0
0
LINE
8
1
10
33.491
20
-120.986
11
33.491
21
-125.99
62
0
0
LINE
8
1
10
33.491
20
-125.99
11
30.491
21
-125.99
62
0
0
LINE
8
1
10
30.491
20
-125.99
11
30.491
21
-133.01
62
0
0
LINE
8
1
10
30.491
20
-133.01
11
33.491
21
-133.01
62
0
0
LINE
8
1
10
33.491
20
-133.01
11
33.491
21
-135.01
62
0
0
LINE
8
1
10
33.491
20
-135.01
11
63.511
21
-135.01
62
0
0
LINE
8
1
10
63.511
20
-135.01
11
63.511
21
-133.01
62
0
0
CIRCLE
8
1
10
-10.676
20
-124.498
40
2.23985
62
0
0
CIRCLE
8
1
10
12.322
20
-124.499
40
2.24001
62
0
0
CIRCLE
8
1
10
103
20
-128.5
40
1.58993
62
0
0
CIRCLE
8
1
10
-133.499
20
130.999
40
2.71488
62
1
0
CIRCLE
8
1
10
-151.499
20
130.999
40
2.71488
62
1
0
CIRCLE
8
1
10
-175.499
20
130.999
40
2.71488
62
1
0
CIRCLE
8
1
10
-193.499
20
130.999
40
2.71488
62
1
0
CIRCLE
8
1
10
-193.498
20
130.999
40
2.01475
62
1
0
CIRCLE
8
1
10
-175.498
20
130.999
40
2.01475
62
1
0
CIRCLE
8
1
10
-151.498
20
130.999
40
2.01475
62
1
0
CIRCLE
8
1
10
-133.498
20
130.999
40
2.01475
62
1
0
CIRCLE
8
1
10
-133.499
20
124.999
40
2.71492
62
1
0
CIRCLE
8
1
10
-151.499
20
124.999
40
2.71492
62
1
0
CIRCLE
8
1
10
-175.499
20
124.999
40
2.71492
62
1
0
CIRCLE
8
1
10
-193.499
20
124.999
40
2.71492
62
1
0
CIRCLE
8
1
10
-193.498
20
124.999
40
2.0148
62
1
0
CIRCLE
8
1
10
-175.498
20
124.999
40
2.0148
62
1
0
CIRCLE
8
1
10
-151.498
20
124.999
40
2.0148
62
1
0
CIRCLE
8
1
10
-133.498
20
124.999
40
2.0148
62
1
0
CIRCLE
8
1
10
-133.499
20
118.999
40
2.71492
62
1
0
CIRCLE
8
1
10
-151.499
20
118.999
40
2.71492
62
1
0
CIRCLE
8
1
10
-175.499
20
118.999
40
2.71492
62
1
0
CIRCLE
8
1
10
-193.499
20
118.999
40
2.71492
62
1
0
CIRCLE
8
1
10
-193.498
20
118.999
40
2.0148
62
1
0
CIRCLE
8
1
10
-175.498
20
118.999
40
2.0148
62
1
0
CIRCLE
8
1
10
-151.498
20
118.999
40
2.0148
62
1
0
CIRCLE
8
1
10
-133.498
20
118.999
40
2.0148
62
1
0
CIRCLE
8
1
10
-19.499
20
112.999
40
2.71491
62
1
0
CIRCLE
8
1
10
-37.499
20
112.999
40
2.71491
62
1
0
CIRCLE
8
1
10
-61.499
20
112.999
40
2.71491
62
1
0
CIRCLE
8
1
10
-79.499
20
112.999
40
2.71491
62
1
0
CIRCLE
8
1
10
-79.498
20
112.999
40
2.0148
62
1
0
CIRCLE
8
1
10
-61.498
20
112.999
40
2.0148
62
1
0
CIRCLE
8
1
10
-37.498
20
112.999
40
2.01481
62
1
0
CIRCLE
8
1
10
-19.498
20
112.999
40
2.01481
62
1
0
CIRCLE
8
1
10
-90.499
20
109.999
40
2.71491
62
1
0
CIRCLE
8
1
10
-108.499
20
109.999
40
2.71491
62
1
0
CIRCLE
8
1
10
-132.499
20
109.999
40
2.71491
62
1
0
CIRCLE
8
1
10
-150.499
20
109.999
40
2.71491
62
1
0
CIRCLE
8
1
10
-150.498
20
109.999
40
2.0148
62
1
0
CIRCLE
8
1
10
-132.498
20
109.999
40
2.0148
62
1
0
CIRCLE
8
1
10
-108.498
20
109.999
40
2.01481
62
1
0
CIRCLE
8
1
10
-90.498
20
109.999
40
2.01481
62
1
0
CIRCLE
8
1
10
-19.499
20
106.999
40
2.71491
62
1
0
CIRCLE
8
1
10
-37.499
20
106.999
40
2.71491
62
1
0
CIRCLE
8
1
10
-61.499
20
106.999
40
2.71491
62
1
0
CIRCLE
8
1
10
-79.499
20
106.999
40
2.71491
62
1
0
CIRCLE
8
1
10
-79.498
20
106.999
40
2.0148
62
1
0
CIRCLE
8
1
10
-61.498
20
106.999
40
2.0148
62
1
0
CIRCLE
8
1
10
-37.498
20
106.999
40
2.01481
62
1
0
CIRCLE
8
1
10
-19.498
20
106.999
40
2.01481
62
1
0
CIRCLE
8
1
10
-90.499
20
103.999
40
2.71491
62
1
0
CIRCLE
8
1
10
-108.499
20
103.999
40
2.71491
62
1
0
CIRCLE
8
1
10
-132.499
20
103.999
40
2.71491
62
1
0
CIRCLE
8
1
10
-150.499
20
103.999
40
2.71491
62
1
0
CIRCLE
8
1
10
-150.498
20
103.999
40
2.0148
62
1
0
CIRCLE
8
1
10
-132.498
20
103.999
40
2.0148
62
1
0
CIRCLE
8
1
10
-108.498
20
103.999
40
2.01481
62
1
0
CIRCLE
8
1
10
-90.498
20
103.999
40
2.01481
62
1
0
CIRCLE
8
1
10
-19.499
20
100.999
40
2.71491
62
1
0
CIRCLE
8
1
10
-37.499
20
100.999
40
2.71491
62
1
0
CIRCLE
8
1
10
-61.499
20
100.999
40
2.71491
62
1
0
CIRCLE
8
1
10
-79.499
20
100.999
40
2.71491
62
1
0
CIRCLE
8
1
10
-79.498
20
100.999
40
2.0148
62
1
0
CIRCLE
8
1
10
-61.498
20
100.999
40
2.0148
62
1
0
CIRCLE
8
1
10
-37.498
20
100.999
40
2.01481
62
1
0
CIRCLE
8
1
10
-19.498
20
100.999
40
2.01481
62
1
0
CIRCLE
8
1
10
-90.499
20
97.999
40
2.71492
62
1
0
CIRCLE
8
1
10
-108.499
20
97.999
40
2.71492
62
1
0
CIRCLE
8
1
10
-132.499
20
97.999
40
2.71492
62
1
0
CIRCLE
8
1
10
-150.499
20
97.999
40
2.71492
62
1
0
CIRCLE
8
1
10
-150.498
20
97.999
40
2.0148
62
1
0
CIRCLE
8
1
10
-132.498
20
97.999
40
2.0148
62
1
0
CIRCLE
8
1
10
-108.498
20
97.999
40
2.01481
62
1
0
CIRCLE
8
1
10
-90.498
20
97.999
40
2.01481
62
1
0
CIRCLE
8
1
10
124.499
20
95.999
40
2.71492
62
1
0
CIRCLE
8
1
10
106.499
20
95.999
40
2.71492
62
1
0
CIRCLE
8
1
10
82.499
20
95.999
40
2.71492
62
1
0
CIRCLE
8
1
10
64.499
20
95.999
40
2.71492
62
1
0
CIRCLE
8
1
10
53.499
20
95.999
40
2.71492
62
1
0
CIRCLE
8
1
10
35.499
20
95.999
40
2.71492
62
1
0
CIRCLE
8
1
10
11.499
20
95.999
40
2.71492
62
1
0
CIRCLE
8
1
10
-6.499
20
95.999
40
2.71492
62
1
0
CIRCLE
8
1
10
-6.498
20
95.999
40
2.01481
62
1
0
CIRCLE
8
1
10
11.5
20
95.999
40
2.0148
62
1
0
CIRCLE
8
1
10
35.5
20
95.999
40
2.01481
62
1
0
CIRCLE
8
1
10
53.5
20
95.999
40
2.01481
62
1
0
CIRCLE
8
1
10
64.5
20
95.999
40
2.0148
62
1
0
CIRCLE
8
1
10
82.5
20
95.999
40
2.0148
62
1
0
CIRCLE
8
1
10
106.5
20
95.999
40
2.01481
62
1
0
CIRCLE
8
1
10
124.5
20
95.999
40
2.01481
62
1
0
CIRCLE
8
1
10
150
20
92.855
40
2.71485
62
1
0
CIRCLE
8
1
10
150
20
92.856
40
2.01482
62
1
0
CIRCLE
8
1
10
-17.499
20
91.999
40
2.71491
62
1
0
CIRCLE
8
1
10
-35.499
20
91.999
40
2.71491
62
1
0
CIRCLE
8
1
10
-59.499
20
91.999
40
2.71491
62
1
0
CIRCLE
8
1
10
-77.499
20
91.999
40
2.71491
62
1
0
CIRCLE
8
1
10
-77.498
20
91.999
40
2.0148
62
1
0
CIRCLE
8
1
10
-59.498
20
91.999
40
2.0148
62
1
0
CIRCLE
8
1
10
-35.498
20
91.999
40
2.01481
62
1
0
CIRCLE
8
1
10
-17.498
20
91.999
40
2.01481
62
1
0
CIRCLE
8
1
10
124.499
20
89.999
40
2.71492
62
1
0
CIRCLE
8
1
10
106.499
20
89.999
40
2.71492
62
1
0
CIRCLE
8
1
10
82.499
20
89.999
40
2.71492
62
1
0
CIRCLE
8
1
10
64.499
20
89.999
40
2.71492
62
1
0
CIRCLE
8
1
10
53.499
20
89.999
40
2.71492
62
1
0
CIRCLE
8
1
10
35.499
20
89.999
40
2.71492
62
1
0
CIRCLE
8
1
10
11.499
20
89.999
40
2.71492
62
1
0
CIRCLE
8
1
10
-6.499
20
89.999
40
2.71492
62
1
0
CIRCLE
8
1
10
-6.498
20
89.999
40
2.0148
62
1
0
CIRCLE
8
1
10
11.5
20
89.999
40
2.0148
62
1
0
CIRCLE
8
1
10
35.5
20
89.999
40
2.01481
62
1
0
CIRCLE
8
1
10
53.5
20
89.999
40
2.01481
62
1
0
CIRCLE
8
1
10
64.5
20
89.999
40
2.0148
62
1
0
CIRCLE
8
1
10
82.5
20
89.999
40
2.0148
62
1
0
CIRCLE
8
1
10
106.5
20
89.999
40
2.01481
62
1
0
CIRCLE
8
1
10
124.5
20
89.999
40
2.01481
62
1
0
CIRCLE
8
1
10
-88.499
20
88.999
40
2.71491
62
1
0
CIRCLE
8
1
10
-106.499
20
88.999
40
2.71491
62
1
0
CIRCLE
8
1
10
-130.499
20
88.999
40
2.71491
62
1
0
CIRCLE
8
1
10
-148.499
20
88.999
40
2.71491
62
1
0
CIRCLE
8
1
10
-148.498
20
88.999
40
2.0148
62
1
0
CIRCLE
8
1
10
-130.498
20
88.999
40
2.0148
62
1
0
CIRCLE
8
1
10
-106.498
20
88.999
40
2.01481
62
1
0
CIRCLE
8
1
10
-88.498
20
88.999
40
2.01481
62
1
0
CIRCLE
8
1
10
144
20
86.855
40
2.71488
62
1
0
CIRCLE
8
1
10
150
20
86.855
40
2.71485
62
1
0
CIRCLE
8
1
10
156
20
86.856
40
2.71484
62
1
0
CIRCLE
8
1
10
156
20
86.856
40
2.01482
62
1
0
CIRCLE
8
1
10
150
20
86.856
40
2.01482
62
1
0
CIRCLE
8
1
10
144
20
86.856
40
2.01482
62
1
0
CIRCLE
8
1
10
-17.499
20
85.999
40
2.71491
62
1
0
CIRCLE
8
1
10
-35.499
20
85.999
40
2.71491
62
1
0
CIRCLE
8
1
10
-59.499
20
85.999
40
2.71491
62
1
0
CIRCLE
8
1
10
-77.499
20
85.999
40
2.71491
62
1
0
CIRCLE
8
1
10
-77.498
20
85.999
40
2.0148
62
1
0
CIRCLE
8
1
10
-59.498
20
85.999
40
2.0148
62
1
0
CIRCLE
8
1
10
-35.498
20
85.999
40
2.01481
62
1
0
CIRCLE
8
1
10
-17.498
20
85.999
40
2.01481
62
1
0
CIRCLE
8
1
10
175
20
84.855
40
2.71486
62
1
0
CIRCLE
8
1
10
175.001
20
84.856
40
2.01482
62
1
0
CIRCLE
8
1
10
124.499
20
83.999
40
2.71492
62
1
0
CIRCLE
8
1
10
106.499
20
83.999
40
2.71492
62
1
0
CIRCLE
8
1
10
82.499
20
83.999
40
2.71492
62
1
0
CIRCLE
8
1
10
64.499
20
83.999
40
2.71492
62
1
0
CIRCLE
8
1
10
53.499
20
83.999
40
2.71492
62
1
0
CIRCLE
8
1
10
35.499
20
83.999
40
2.71492
62
1
0
CIRCLE
8
1
10
11.499
20
83.999
40
2.71492
62
1
0
CIRCLE
8
1
10
-6.499
20
83.999
40
2.71492
62
1
0
CIRCLE
8
1
10
-6.498
20
83.999
40
2.0148
62
1
0
CIRCLE
8
1
10
11.5
20
83.999
40
2.0148
62
1
0
CIRCLE
8
1
10
35.5
20
83.999
40
2.01481
62
1
0
CIRCLE
8
1
10
53.5
20
83.999
40
2.01481
62
1
0
CIRCLE
8
1
10
64.5
20
83.999
40
2.0148
62
1
0
CIRCLE
8
1
10
82.5
20
83.999
40
2.0148
62
1
0
CIRCLE
8
1
10
106.5
20
83.999
40
2.01481
62
1
0
CIRCLE
8
1
10
124.5
20
83.999
40
2.01481
62
1
0
CIRCLE
8
1
10
-88.499
20
82.999
40
2.71491
62
1
0
CIRCLE
8
1
10
-106.499
20
82.999
40
2.71491
62
1
0
CIRCLE
8
1
10
-130.499
20
82.999
40
2.71491
62
1
0
CIRCLE
8
1
10
-148.499
20
82.999
40
2.71491
62
1
0
CIRCLE
8
1
10
-148.498
20
82.999
40
2.0148
62
1
0
CIRCLE
8
1
10
-130.498
20
82.999
40
2.0148
62
1
0
CIRCLE
8
1
10
-106.498
20
82.999
40
2.01481
62
1
0
CIRCLE
8
1
10
-88.498
20
82.999
40
2.01481
62
1
0
CIRCLE
8
1
10
150
20
80.855
40
2.71485
62
1
0
CIRCLE
8
1
10
150
20
80.856
40
2.01482
62
1
0
CIRCLE
8
1
10
-17.499
20
79.999
40
2.71491
62
1
0
CIRCLE
8
1
10
-35.499
20
79.999
40
2.71491
62
1
0
CIRCLE
8
1
10
-59.499
20
79.999
40
2.71491
62
1
0
CIRCLE
8
1
10
-77.499
20
79.999
40
2.71491
62
1
0
CIRCLE
8
1
10
-77.498
20
79.999
40
2.0148
62
1
0
CIRCLE
8
1
10
-59.498
20
79.999
40
2.0148
62
1
0
CIRCLE
8
1
10
-35.498
20
79.999
40
2.01481
62
1
0
CIRCLE
8
1
10
-17.498
20
79.999
40
2.01481
62
1
0
CIRCLE
8
1
10
169.001
20
78.856
40
2.71485
62
1
0
CIRCLE
8
1
10
175
20
78.855
40
2.71487
62
1
0
CIRCLE
8
1
10
181.001
20
78.855
40
2.71489
62
1
0
CIRCLE
8
1
10
181.001
20
78.856
40
2.01482
62
1
0
CIRCLE
8
1
10
175.001
20
78.856
40
2.01482
62
1
0
CIRCLE
8
1
10
169.001
20
78.856
40
2.01482
62
1
0
CIRCLE
8
1
10
-88.499
20
76.999
40
2.71492
62
1
0
CIRCLE
8
1
10
-106.499
20
76.999
40
2.71492
62
1
0
CIRCLE
8
1
10
-130.499
20
76.999
40
2.71492
62
1
0
CIRCLE
8
1
10
-148.499
20
76.999
40
2.71492
62
1
0
CIRCLE
8
1
10
-148.498
20
76.999
40
2.0148
62
1
0
CIRCLE
8
1
10
-130.498
20
76.999
40
2.0148
62
1
0
CIRCLE
8
1
10
-106.498
20
76.999
40
2.01481
62
1
0
CIRCLE
8
1
10
-88.498
20
76.999
40
2.01481
62
1
0
CIRCLE
8
1
10
103.499
20
74.999
40
2.71492
62
1
0
CIRCLE
8
1
10
85.499
20
74.999
40
2.71492
62
1
0
CIRCLE
8
1
10
61.499
20
74.999
40
2.71492
62
1
0
CIRCLE
8
1
10
43.499
20
74.999
40
2.71492
62
1
0
CIRCLE
8
1
10
43.5
20
74.999
40
2.0148
62
1
0
CIRCLE
8
1
10
61.5
20
74.999
40
2.0148
62
1
0
CIRCLE
8
1
10
85.5
20
74.999
40
2.01481
62
1
0
CIRCLE
8
1
10
103.5
20
74.999
40
2.01481
62
1
0
CIRCLE
8
1
10
175
20
72.855
40
2.71487
62
1
0
CIRCLE
8
1
10
175.001
20
72.856
40
2.01482
62
1
0
CIRCLE
8
1
10
103.499
20
68.999
40
2.71489
62
1
0
CIRCLE
8
1
10
85.499
20
68.999
40
2.71489
62
1
0
CIRCLE
8
1
10
61.499
20
68.999
40
2.71489
62
1
0
CIRCLE
8
1
10
43.499
20
68.999
40
2.71489
62
1
0
CIRCLE
8
1
10
25.856
20
68.999
40
2.71488
62
1
0
CIRCLE
8
1
10
-44.855
20
68.999
40
2.71487
62
1
0
CIRCLE
8
1
10
43.5
20
68.999
40
2.0148
62
1
0
CIRCLE
8
1
10
61.5
20
68.999
40
2.0148
62
1
0
CIRCLE
8
1
10
85.5
20
68.999
40
2.01481
62
1
0
CIRCLE
8
1
10
103.5
20
68.999
40
2.01481
62
1
0
CIRCLE
8
1
10
-44.855
20
68.999
40
2.01484
62
1
0
CIRCLE
8
1
10
25.856
20
68.999
40
2.01485
62
1
0
CIRCLE
8
1
10
-69.142
20
65.999
40
2.71488
62
1
0
CIRCLE
8
1
10
-139.854
20
65.999
40
2.71488
62
1
0
CIRCLE
8
1
10
-139.855
20
65.999
40
2.01484
62
1
0
CIRCLE
8
1
10
-69.142
20
65.999
40
2.01484
62
1
0
CIRCLE
8
1
10
103.499
20
62.999
40
2.71489
62
1
0
CIRCLE
8
1
10
85.499
20
62.999
40
2.7149
62
1
0
CIRCLE
8
1
10
61.499
20
62.999
40
2.7149
62
1
0
CIRCLE
8
1
10
43.499
20
62.999
40
2.7149
62
1
0
CIRCLE
8
1
10
31.856
20
62.999
40
2.71489
62
1
0
CIRCLE
8
1
10
25.856
20
62.999
40
2.71489
62
1
0
CIRCLE
8
1
10
19.856
20
62.999
40
2.71489
62
1
0
CIRCLE
8
1
10
-38.854
20
62.999
40
2.71488
62
1
0
CIRCLE
8
1
10
-44.854
20
62.999
40
2.71488
62
1
0
CIRCLE
8
1
10
-50.854
20
62.999
40
2.71488
62
1
0
CIRCLE
8
1
10
43.5
20
62.999
40
2.0148
62
1
0
CIRCLE
8
1
10
61.5
20
62.999
40
2.0148
62
1
0
CIRCLE
8
1
10
85.5
20
62.999
40
2.01476
62
1
0
CIRCLE
8
1
10
103.5
20
62.999
40
2.01476
62
1
0
CIRCLE
8
1
10
-50.855
20
62.999
40
2.01484
62
1
0
CIRCLE
8
1
10
-44.855
20
62.999
40
2.01484
62
1
0
CIRCLE
8
1
10
-38.855
20
62.999
40
2.01484
62
1
0
CIRCLE
8
1
10
19.856
20
62.999
40
2.01485
62
1
0
CIRCLE
8
1
10
25.856
20
62.999
40
2.01485
62
1
0
CIRCLE
8
1
10
31.856
20
62.999
40
2.01485
62
1
0
CIRCLE
8
1
10
-63.142
20
59.999
40
2.71487
62
1
0
CIRCLE
8
1
10
-69.142
20
59.999
40
2.71487
62
1
0
CIRCLE
8
1
10
-75.142
20
59.999
40
2.71487
62
1
0
CIRCLE
8
1
10
-133.854
20
59.999
40
2.71488
62
1
0
CIRCLE
8
1
10
-139.854
20
59.999
40
2.71488
62
1
0
CIRCLE
8
1
10
-145.854
20
59.999
40
2.71488
62
1
0
CIRCLE
8
1
10
-145.855
20
59.999
40
2.01484
62
1
0
CIRCLE
8
1
10
-139.855
20
59.999
40
2.01484
62
1
0
CIRCLE
8
1
10
-133.855
20
59.999
40
2.01484
62
1
0
CIRCLE
8
1
10
-75.142
20
59.999
40
2.01484
62
1
0
CIRCLE
8
1
10
-69.142
20
59.999
40
2.01484
62
1
0
CIRCLE
8
1
10
-63.142
20
59.999
40
2.01484
62
1
0
CIRCLE
8
1
10
25.856
20
56.999
40
2.71491
62
1
0
CIRCLE
8
1
10
-44.854
20
56.998
40
2.71492
62
1
0
CIRCLE
8
1
10
-44.855
20
56.999
40
2.01484
62
1
0
CIRCLE
8
1
10
25.856
20
56.999
40
2.01485
62
1
0
CIRCLE
8
1
10
-69.142
20
53.999
40
2.71489
62
1
0
CIRCLE
8
1
10
-139.854
20
53.998
40
2.71492
62
1
0
CIRCLE
8
1
10
-139.855
20
53.999
40
2.01484
62
1
0
CIRCLE
8
1
10
-69.142
20
53.999
40
2.01484
62
1
0
CIRCLE
8
1
10
121.856
20
51.999
40
2.71488
62
1
0
CIRCLE
8
1
10
51.144
20
51.999
40
2.71487
62
1
0
CIRCLE
8
1
10
51.143
20
51.999
40
2.01482
62
1
0
CIRCLE
8
1
10
121.856
20
51.999
40
2.01485
62
1
0
CIRCLE
8
1
10
127.856
20
45.999
40
2.71488
62
1
0
CIRCLE
8
1
10
121.856
20
45.999
40
2.71488
62
1
0
CIRCLE
8
1
10
115.856
20
45.999
40
2.71488
62
1
0
CIRCLE
8
1
10
57.144
20
45.999
40
2.71487
62
1
0
CIRCLE
8
1
10
51.144
20
45.999
40
2.71487
62
1
0
CIRCLE
8
1
10
45.144
20
45.999
40
2.71487
62
1
0
CIRCLE
8
1
10
45.143
20
45.999
40
2.01482
62
1
0
CIRCLE
8
1
10
51.143
20
45.999
40
2.01482
62
1
0
CIRCLE
8
1
10
57.143
20
45.999
40
2.01482
62
1
0
CIRCLE
8
1
10
115.856
20
45.999
40
2.01485
62
1
0
CIRCLE
8
1
10
121.856
20
45.999
40
2.01485
62
1
0
CIRCLE
8
1
10
127.856
20
45.999
40
2.01485
62
1
0
CIRCLE
8
1
10
26.856
20
44.999
40
2.71488
62
1
0
CIRCLE
8
1
10
-43.854
20
44.998
40
2.71488
62
1
0
CIRCLE
8
1
10
-43.855
20
44.999
40
2.01484
62
1
0
CIRCLE
8
1
10
26.856
20
44.999
40
2.01485
62
1
0
CIRCLE
8
1
10
-68.142
20
41.999
40
2.71488
62
1
0
CIRCLE
8
1
10
-138.854
20
41.999
40
2.71488
62
1
0
CIRCLE
8
1
10
-138.855
20
41.999
40
2.01484
62
1
0
CIRCLE
8
1
10
-68.142
20
41.999
40
2.01484
62
1
0
CIRCLE
8
1
10
121.856
20
39.999
40
2.71491
62
1
0
CIRCLE
8
1
10
51.144
20
39.999
40
2.71489
62
1
0
CIRCLE
8
1
10
51.143
20
39.999
40
2.01482
62
1
0
CIRCLE
8
1
10
121.856
20
39.999
40
2.01485
62
1
0
CIRCLE
8
1
10
32.856
20
38.999
40
2.71489
62
1
0
CIRCLE
8
1
10
26.856
20
38.999
40
2.71489
62
1
0
CIRCLE
8
1
10
20.856
20
38.999
40
2.71489
62
1
0
CIRCLE
8
1
10
-37.854
20
38.999
40
2.71489
62
1
0
CIRCLE
8
1
10
-43.854
20
38.999
40
2.71489
62
1
0
CIRCLE
8
1
10
-49.854
20
38.999
40
2.71489
62
1
0
CIRCLE
8
1
10
-49.855
20
38.999
40
2.01484
62
1
0
CIRCLE
8
1
10
-43.855
20
38.999
40
2.01484
62
1
0
CIRCLE
8
1
10
-37.855
20
38.999
40
2.01484
62
1
0
CIRCLE
8
1
10
20.856
20
38.999
40
2.01485
62
1
0
CIRCLE
8
1
10
26.856
20
38.999
40
2.01485
62
1
0
CIRCLE
8
1
10
32.856
20
38.999
40
2.01485
62
1
0
CIRCLE
8
1
10
-62.142
20
35.999
40
2.71487
62
1
0
CIRCLE
8
1
10
-68.142
20
35.999
40
2.71487
62
1
0
CIRCLE
8
1
10
-74.142
20
35.999
40
2.71487
62
1
0
CIRCLE
8
1
10
-132.854
20
35.999
40
2.71488
62
1
0
CIRCLE
8
1
10
-138.854
20
35.999
40
2.71488
62
1
0
CIRCLE
8
1
10
-144.854
20
35.999
40
2.71488
62
1
0
CIRCLE
8
1
10
-144.855
20
35.999
40
2.01484
62
1
0
CIRCLE
8
1
10
-138.855
20
35.999
40
2.01484
62
1
0
CIRCLE
8
1
10
-132.855
20
35.999
40
2.01484
62
1
0
CIRCLE
8
1
10
-74.142
20
35.999
40
2.01484
62
1
0
CIRCLE
8
1
10
-68.142
20
35.999
40
2.01484
62
1
0
CIRCLE
8
1
10
-62.142
20
35.999
40
2.01484
62
1
0
CIRCLE
8
1
10
26.856
20
32.999
40
2.71491
62
1
0
CIRCLE
8
1
10
-43.854
20
32.998
40
2.71492
62
1
0
CIRCLE
8
1
10
-43.855
20
32.999
40
2.01484
62
1
0
CIRCLE
8
1
10
26.856
20
32.999
40
2.01485
62
1
0
CIRCLE
8
1
10
-68.142
20
29.999
40
2.71489
62
1
0
CIRCLE
8
1
10
-138.854
20
29.998
40
2.71492
62
1
0
CIRCLE
8
1
10
-138.855
20
29.999
40
2.01484
62
1
0
CIRCLE
8
1
10
-68.142
20
29.999
40
2.01484
62
1
0
CIRCLE
8
1
10
116.856
20
27.998
40
2.71487
62
1
0
CIRCLE
8
1
10
46.144
20
27.998
40
2.71487
62
1
0
CIRCLE
8
1
10
46.143
20
27.999
40
2.01482
62
1
0
CIRCLE
8
1
10
116.856
20
27.999
40
2.01485
62
1
0
CIRCLE
8
1
10
149.999
20
22.143
40
2.71483
62
1
0
CIRCLE
8
1
10
122.856
20
21.999
40
2.71488
62
1
0
CIRCLE
8
1
10
116.856
20
21.999
40
2.71488
62
1
0
CIRCLE
8
1
10
110.856
20
21.999
40
2.71488
62
1
0
CIRCLE
8
1
10
52.144
20
21.999
40
2.71488
62
1
0
CIRCLE
8
1
10
46.144
20
21.999
40
2.71488
62
1
0
CIRCLE
8
1
10
40.144
20
21.999
40
2.71488
62
1
0
CIRCLE
8
1
10
150
20
22.142
40
2.0148
62
1
0
CIRCLE
8
1
10
40.143
20
21.999
40
2.01482
62
1
0
CIRCLE
8
1
10
46.143
20
21.999
40
2.01482
62
1
0
CIRCLE
8
1
10
52.143
20
21.999
40
2.01482
62
1
0
CIRCLE
8
1
10
110.856
20
21.999
40
2.01485
62
1
0
CIRCLE
8
1
10
116.856
20
21.999
40
2.01485
62
1
0
CIRCLE
8
1
10
122.856
20
21.999
40
2.01485
62
1
0
CIRCLE
8
1
10
-162.998
20
20.249
40
2.7149
62
1
0
CIRCLE
8
1
10
-162.999
20
20.249
40
2.01464
62
1
0
CIRCLE
8
1
10
-55.748
20
17
40
2.71491
62
1
0
CIRCLE
8
1
10
-55.748
20
17
40
2.01469
62
1
0
CIRCLE
8
1
10
155.999
20
16.142
40
2.71485
62
1
0
CIRCLE
8
1
10
149.999
20
16.143
40
2.71483
62
1
0
CIRCLE
8
1
10
143.999
20
16.143
40
2.71486
62
1
0
CIRCLE
8
1
10
116.856
20
15.999
40
2.71491
62
1
0
CIRCLE
8
1
10
46.144
20
15.998
40
2.7149
62
1
0
CIRCLE
8
1
10
155.999
20
16.142
40
2.01478
62
1
0
CIRCLE
8
1
10
149.999
20
16.142
40
2.01478
62
1
0
CIRCLE
8
1
10
143.999
20
16.142
40
2.01478
62
1
0
CIRCLE
8
1
10
46.143
20
15.999
40
2.01482
62
1
0
CIRCLE
8
1
10
116.856
20
15.999
40
2.01485
62
1
0
CIRCLE
8
1
10
-156.999
20
14.249
40
2.71484
62
1
0
CIRCLE
8
1
10
-162.998
20
14.249
40
2.71488
62
1
0
CIRCLE
8
1
10
-168.999
20
14.249
40
2.71484
62
1
0
CIRCLE
8
1
10
-186.998
20
14.249
40
2.71488
62
1
0
CIRCLE
8
1
10
175
20
14.143
40
2.71486
62
1
0
CIRCLE
8
1
10
-186.999
20
14.249
40
2.01464
62
1
0
CIRCLE
8
1
10
-168.999
20
14.249
40
2.01467
62
1
0
CIRCLE
8
1
10
-162.999
20
14.249
40
2.01464
62
1
0
CIRCLE
8
1
10
-156.999
20
14.249
40
2.01464
62
1
0
CIRCLE
8
1
10
175.001
20
14.142
40
2.0148
62
1
0
CIRCLE
8
1
10
-61.748
20
10.999
40
2.71495
62
1
0
CIRCLE
8
1
10
-55.748
20
10.999
40
2.71495
62
1
0
CIRCLE
8
1
10
-49.748
20
10.999
40
2.71495
62
1
0
CIRCLE
8
1
10
-49.748
20
11
40
2.01469
62
1
0
CIRCLE
8
1
10
-55.748
20
11
40
2.01469
62
1
0
CIRCLE
8
1
10
-61.748
20
11
40
2.01469
62
1
0
CIRCLE
8
1
10
149.999
20
10.143
40
2.71483
62
1
0
CIRCLE
8
1
10
150
20
10.142
40
2.0148
62
1
0
CIRCLE
8
1
10
-162.998
20
8.249
40
2.71492
62
1
0
CIRCLE
8
1
10
-180.999
20
8.249
40
2.71489
62
1
0
CIRCLE
8
1
10
-186.998
20
8.249
40
2.71492
62
1
0
CIRCLE
8
1
10
-192.999
20
8.249
40
2.71491
62
1
0
CIRCLE
8
1
10
181
20
8.143
40
2.71486
62
1
0
CIRCLE
8
1
10
175
20
8.143
40
2.71486
62
1
0
CIRCLE
8
1
10
169
20
8.142
40
2.71485
62
1
0
CIRCLE
8
1
10
-192.999
20
8.249
40
2.01467
62
1
0
CIRCLE
8
1
10
-186.999
20
8.249
40
2.01467
62
1
0
CIRCLE
8
1
10
-180.999
20
8.249
40
2.01464
62
1
0
CIRCLE
8
1
10
-162.999
20
8.249
40
2.01467
62
1
0
CIRCLE
8
1
10
181.001
20
8.142
40
2.0148
62
1
0
CIRCLE
8
1
10
175.001
20
8.142
40
2.0148
62
1
0
CIRCLE
8
1
10
169.001
20
8.142
40
2.0148
62
1
0
CIRCLE
8
1
10
-55.748
20
4.999
40
2.71478
62
1
0
CIRCLE
8
1
10
-55.748
20
5
40
2.01469
62
1
0
CIRCLE
8
1
10
111.25
20
3.998
40
2.71482
62
1
0
CIRCLE
8
1
10
111.25
20
3.998
40
2.01473
62
1
0
CIRCLE
8
1
10
-186.998
20
2.249
40
2.71474
62
1
0
CIRCLE
8
1
10
175
20
2.143
40
2.71467
62
1
0
CIRCLE
8
1
10
-186.999
20
2.249
40
2.01467
62
1
0
CIRCLE
8
1
10
175.001
20
2.142
40
2.0148
62
1
0
CIRCLE
8
1
10
105.25
20
-2
40
2.71463
62
1
0
CIRCLE
8
1
10
111.25
20
-2
40
2.71463
62
1
0
CIRCLE
8
1
10
117.25
20
-2
40
2.71463
62
1
0
CIRCLE
8
1
10
117.25
20
-2
40
2.01468
62
1
0
CIRCLE
8
1
10
111.25
20
-2
40
2.01468
62
1
0
CIRCLE
8
1
10
105.25
20
-2
40
2.01468
62
1
0
CIRCLE
8
1
10
-52.748
20
-7.999
40
2.71489
62
1
0
CIRCLE
8
1
10
111.25
20
-8
40
2.71481
62
1
0
CIRCLE
8
1
10
-52.748
20
-7.998
40
2.01469
62
1
0
CIRCLE
8
1
10
111.25
20
-8
40
2.01473
62
1
0
CIRCLE
8
1
10
-58.748
20
-13.999
40
2.71494
62
1
0
CIRCLE
8
1
10
-52.748
20
-13.999
40
2.71494
62
1
0
CIRCLE
8
1
10
-46.748
20
-13.999
40
2.71494
62
1
0
CIRCLE
8
1
10
-46.748
20
-13.998
40
2.01469
62
1
0
CIRCLE
8
1
10
-52.748
20
-13.998
40
2.01469
62
1
0
CIRCLE
8
1
10
-58.748
20
-13.998
40
2.01469
62
1
0
CIRCLE
8
1
10
-52.748
20
-19.999
40
2.71478
62
1
0
CIRCLE
8
1
10
-52.748
20
-19.998
40
2.01469
62
1
0
CIRCLE
8
1
10
55.25
20
-27
40
2.71482
62
1
0
CIRCLE
8
1
10
55.25
20
-27
40
2.01473
62
1
0
CIRCLE
8
1
10
49.25
20
-32.999
40
2.71485
62
1
0
CIRCLE
8
1
10
55.25
20
-32.999
40
2.71485
62
1
0
CIRCLE
8
1
10
61.25
20
-32.999
40
2.71485
62
1
0
CIRCLE
8
1
10
61.25
20
-32.999
40
2.01472
62
1
0
CIRCLE
8
1
10
55.25
20
-32.999
40
2.01472
62
1
0
CIRCLE
8
1
10
49.25
20
-33
40
2.01473
62
1
0
CIRCLE
8
1
10
55.25
20
-39
40
2.71482
62
1
0
CIRCLE
8
1
10
55.25
20
-38.999
40
2.01472
62
1
0
CIRCLE
8
1
10
187
20
-86.749
40
2.71495
62
1
0
CIRCLE
8
1
10
163
20
-86.749
40
2.71495
62
1
0
CIRCLE
8
1
10
162.999
20
-86.749
40
2.01472
62
1
0
CIRCLE
8
1
10
186.999
20
-86.749
40
2.01472
62
1
0
CIRCLE
8
1
10
192.999
20
-92.749
40
2.71477
62
1
0
CIRCLE
8
1
10
187
20
-92.749
40
2.71495
62
1
0
CIRCLE
8
1
10
180.999
20
-92.749
40
2.71491
62
1
0
CIRCLE
8
1
10
168.999
20
-92.749
40
2.71477
62
1
0
CIRCLE
8
1
10
163
20
-92.749
40
2.71495
62
1
0
CIRCLE
8
1
10
156.999
20
-92.749
40
2.71491
62
1
0
CIRCLE
8
1
10
156.999
20
-92.749
40
2.01472
62
1
0
CIRCLE
8
1
10
162.999
20
-92.749
40
2.01472
62
1
0
CIRCLE
8
1
10
168.999
20
-92.749
40
2.01472
62
1
0
CIRCLE
8
1
10
180.999
20
-92.749
40
2.01472
62
1
0
CIRCLE
8
1
10
186.999
20
-92.749
40
2.01472
62
1
0
CIRCLE
8
1
10
192.999
20
-92.749
40
2.01472
62
1
0
CIRCLE
8
1
10
187
20
-98.749
40
2.71495
62
1
0
CIRCLE
8
1
10
163
20
-98.749
40
2.71495
62
1
0
CIRCLE
8
1
10
162.999
20
-98.749
40
2.01472
62
1
0
CIRCLE
8
1
10
186.999
20
-98.749
40
2.01472
62
1
0
ENDSEC
0
EOF
