999
DXF created from Projekt
0
SECTION
2
HEADER
9
$ACADVER
1
AC1006
9
$INSUNITS
70
4
9
$INSBASE
10
0.0
20
0.0
30
0.0
9
$EXTMIN
10
-148.01
20
-174.508
9
$EXTMAX
10
147.995
20
174.51
0
ENDSEC
0
SECTION
2
TABLES
0
TABLE
2
LTYPE
70
1
0
LTYPE
2
CONTINUOUS
70
64
3
Solid line
72
65
73
0
40
0.000000
0
ENDTAB
0
TABLE
2
LAYER
70
6
0
LAYER
2
1
70
64
62
7
6
CONTINUOUS
0
ENDTAB
0
TABLE
2
STYLE
70
0
0
ENDTAB
0
ENDSEC
0
SECTION
2
BLOCKS
0
ENDSEC
0
SECTION
2
ENTITIES
0
LINE
8
1
10
-53.99
20
111.668
11
-53.99
21
143.332
62
0
0
LINE
8
1
10
-53.99
20
143.332
11
-85.167
21
174.51
62
0
0
LINE
8
1
10
-85.167
20
174.51
11
-116.832
21
174.51
62
0
0
LINE
8
1
10
-116.832
20
174.51
11
-148.01
21
143.332
62
0
0
LINE
8
1
10
-148.01
20
143.332
11
-148.01
21
111.668
62
0
0
LINE
8
1
10
-148.01
20
111.668
11
-116.832
21
80.49
62
0
0
LINE
8
1
10
-116.832
20
80.49
11
-85.167
21
80.49
62
0
0
LINE
8
1
10
-85.167
20
80.49
11
-53.99
21
111.668
62
0
0
LINE
8
1
10
12.878
20
47.834
11
13.317
21
47.96
62
0
0
LINE
8
1
10
13.317
20
47.96
11
13.714
21
48.122
62
0
0
LINE
8
1
10
13.714
20
48.122
11
14.115
21
48.34
62
0
0
LINE
8
1
10
14.115
20
48.34
11
14.478
21
48.595
62
0
0
LINE
8
1
10
14.478
20
48.595
11
14.81
21
48.887
62
0
0
LINE
8
1
10
14.81
20
48.887
11
15.1
21
49.204
62
0
0
LINE
8
1
10
15.1
20
49.204
11
15.361
21
49.561
62
0
0
LINE
8
1
10
15.361
20
49.561
11
15.582
21
49.945
62
0
0
LINE
8
1
10
15.582
20
49.945
11
15.89
21
50.773
62
0
0
LINE
8
1
10
15.89
20
50.773
11
22.924
21
79.782
62
0
0
LINE
8
1
10
22.924
20
79.782
11
23.486
21
85.877
62
0
0
LINE
8
1
10
23.486
20
85.877
11
23.324
21
110.681
62
0
0
LINE
8
1
10
23.324
20
110.681
11
16.008
21
174.264
62
0
0
LINE
8
1
10
16.008
20
174.264
11
7.99
21
174.264
62
0
0
LINE
8
1
10
7.99
20
174.264
11
0.51
21
107.816
62
0
0
LINE
8
1
10
0.51
20
107.816
11
0.7
21
82.822
62
0
0
LINE
8
1
10
0.7
20
82.822
11
1.331
21
78.273
62
0
0
LINE
8
1
10
1.331
20
78.273
11
8.245
21
50.338
62
0
0
LINE
8
1
10
8.245
20
50.338
11
8.416
21
49.944
62
0
0
LINE
8
1
10
8.416
20
49.944
11
8.637
21
49.561
62
0
0
LINE
8
1
10
8.637
20
49.561
11
8.898
21
49.203
62
0
0
LINE
8
1
10
8.898
20
49.203
11
9.531
21
48.586
62
0
0
LINE
8
1
10
9.531
20
48.586
11
10.283
21
48.122
62
0
0
LINE
8
1
10
10.283
20
48.122
11
11.119
21
47.834
62
0
0
LINE
8
1
10
11.119
20
47.834
11
11.557
21
47.761
62
0
0
LINE
8
1
10
11.557
20
47.761
11
12.441
21
47.761
62
0
0
LINE
8
1
10
12.441
20
47.761
11
12.878
21
47.834
62
0
0
LINE
8
1
10
-11.121
20
47.834
11
-10.682
21
47.96
62
0
0
LINE
8
1
10
-10.682
20
47.96
11
-10.285
21
48.122
62
0
0
LINE
8
1
10
-10.285
20
48.122
11
-9.884
21
48.34
62
0
0
LINE
8
1
10
-9.884
20
48.34
11
-9.521
21
48.595
62
0
0
LINE
8
1
10
-9.521
20
48.595
11
-9.189
21
48.887
62
0
0
LINE
8
1
10
-9.189
20
48.887
11
-8.899
21
49.204
62
0
0
LINE
8
1
10
-8.899
20
49.204
11
-8.638
21
49.561
62
0
0
LINE
8
1
10
-8.638
20
49.561
11
-8.417
21
49.945
62
0
0
LINE
8
1
10
-8.417
20
49.945
11
-8.109
21
50.773
62
0
0
LINE
8
1
10
-8.109
20
50.773
11
-1.075
21
79.782
62
0
0
LINE
8
1
10
-1.075
20
79.782
11
-0.513
21
85.877
62
0
0
LINE
8
1
10
-0.513
20
85.877
11
-0.675
21
110.681
62
0
0
LINE
8
1
10
-0.675
20
110.681
11
-7.991
21
174.264
62
0
0
LINE
8
1
10
-7.991
20
174.264
11
-16.009
21
174.264
62
0
0
LINE
8
1
10
-16.009
20
174.264
11
-23.489
21
107.816
62
0
0
LINE
8
1
10
-23.489
20
107.816
11
-23.299
21
82.822
62
0
0
LINE
8
1
10
-23.299
20
82.822
11
-22.668
21
78.273
62
0
0
LINE
8
1
10
-22.668
20
78.273
11
-15.754
21
50.338
62
0
0
LINE
8
1
10
-15.754
20
50.338
11
-15.583
21
49.944
62
0
0
LINE
8
1
10
-15.583
20
49.944
11
-15.362
21
49.561
62
0
0
LINE
8
1
10
-15.362
20
49.561
11
-15.101
21
49.203
62
0
0
LINE
8
1
10
-15.101
20
49.203
11
-14.468
21
48.586
62
0
0
LINE
8
1
10
-14.468
20
48.586
11
-13.716
21
48.122
62
0
0
LINE
8
1
10
-13.716
20
48.122
11
-12.88
21
47.834
62
0
0
LINE
8
1
10
-12.88
20
47.834
11
-12.442
21
47.761
62
0
0
LINE
8
1
10
-12.442
20
47.761
11
-11.558
21
47.761
62
0
0
LINE
8
1
10
-11.558
20
47.761
11
-11.121
21
47.834
62
0
0
LINE
8
1
10
136.087
20
154.048
11
136.374
21
154.12
62
0
0
LINE
8
1
10
136.374
20
154.12
11
136.652
21
154.22
62
0
0
LINE
8
1
10
136.652
20
154.22
11
137.172
21
154.497
62
0
0
LINE
8
1
10
137.172
20
154.497
11
137.416
21
154.679
62
0
0
LINE
8
1
10
137.416
20
154.679
11
137.628
21
154.872
62
0
0
LINE
8
1
10
137.628
20
154.872
11
138.002
21
155.328
62
0
0
LINE
8
1
10
138.002
20
155.328
11
138.159
21
155.589
62
0
0
LINE
8
1
10
138.159
20
155.589
11
138.281
21
155.848
62
0
0
LINE
8
1
10
138.281
20
155.848
11
138.381
21
156.127
62
0
0
LINE
8
1
10
138.381
20
156.127
11
138.452
21
156.413
62
0
0
LINE
8
1
10
138.452
20
156.413
11
138.496
21
156.705
62
0
0
LINE
8
1
10
138.496
20
156.705
11
138.496
21
171.296
62
0
0
LINE
8
1
10
138.496
20
171.296
11
138.452
21
171.588
62
0
0
LINE
8
1
10
138.452
20
171.588
11
138.381
21
171.874
62
0
0
LINE
8
1
10
138.381
20
171.874
11
138.281
21
172.153
62
0
0
LINE
8
1
10
138.281
20
172.153
11
138.003
21
172.672
62
0
0
LINE
8
1
10
138.003
20
172.672
11
137.821
21
172.917
62
0
0
LINE
8
1
10
137.821
20
172.917
11
137.628
21
173.129
62
0
0
LINE
8
1
10
137.628
20
173.129
11
137.173
21
173.503
62
0
0
LINE
8
1
10
137.173
20
173.503
11
136.911
21
173.659
62
0
0
LINE
8
1
10
136.911
20
173.659
11
136.652
21
173.781
62
0
0
LINE
8
1
10
136.652
20
173.781
11
136.374
21
173.881
62
0
0
LINE
8
1
10
136.374
20
173.881
11
136.087
21
173.953
62
0
0
LINE
8
1
10
136.087
20
173.953
11
135.795
21
173.996
62
0
0
LINE
8
1
10
135.795
20
173.996
11
71.205
21
173.996
62
0
0
LINE
8
1
10
71.205
20
173.996
11
70.913
21
173.953
62
0
0
LINE
8
1
10
70.913
20
173.953
11
70.626
21
173.881
62
0
0
LINE
8
1
10
70.626
20
173.881
11
70.348
21
173.781
62
0
0
LINE
8
1
10
70.348
20
173.781
11
69.828
21
173.504
62
0
0
LINE
8
1
10
69.828
20
173.504
11
69.584
21
173.322
62
0
0
LINE
8
1
10
69.584
20
173.322
11
69.372
21
173.129
62
0
0
LINE
8
1
10
69.372
20
173.129
11
68.998
21
172.673
62
0
0
LINE
8
1
10
68.998
20
172.673
11
68.841
21
172.412
62
0
0
LINE
8
1
10
68.841
20
172.412
11
68.719
21
172.153
62
0
0
LINE
8
1
10
68.719
20
172.153
11
68.619
21
171.874
62
0
0
LINE
8
1
10
68.619
20
171.874
11
68.548
21
171.588
62
0
0
LINE
8
1
10
68.548
20
171.588
11
68.504
21
171.296
62
0
0
LINE
8
1
10
68.504
20
171.296
11
68.504
21
171.29
62
0
0
LINE
8
1
10
68.504
20
171.29
11
68.503
21
171.289
62
0
0
LINE
8
1
10
68.503
20
171.289
11
68.504
21
156.706
62
0
0
LINE
8
1
10
68.504
20
156.706
11
68.548
21
156.413
62
0
0
LINE
8
1
10
68.548
20
156.413
11
68.619
21
156.127
62
0
0
LINE
8
1
10
68.619
20
156.127
11
68.719
21
155.848
62
0
0
LINE
8
1
10
68.719
20
155.848
11
68.997
21
155.329
62
0
0
LINE
8
1
10
68.997
20
155.329
11
69.179
21
155.084
62
0
0
LINE
8
1
10
69.179
20
155.084
11
69.372
21
154.872
62
0
0
LINE
8
1
10
69.372
20
154.872
11
69.827
21
154.498
62
0
0
LINE
8
1
10
69.827
20
154.498
11
70.089
21
154.342
62
0
0
LINE
8
1
10
70.089
20
154.342
11
70.348
21
154.22
62
0
0
LINE
8
1
10
70.348
20
154.22
11
70.626
21
154.12
62
0
0
LINE
8
1
10
70.626
20
154.12
11
70.913
21
154.048
62
0
0
LINE
8
1
10
70.913
20
154.048
11
71.205
21
154.005
62
0
0
LINE
8
1
10
71.205
20
154.005
11
135.795
21
154.005
62
0
0
LINE
8
1
10
135.795
20
154.005
11
136.087
21
154.048
62
0
0
CIRCLE
8
1
10
73.5
20
170
40
2.01487
62
0
0
CIRCLE
8
1
10
91.5
20
170
40
2.01487
62
0
0
CIRCLE
8
1
10
115.5
20
170
40
2.01486
62
0
0
CIRCLE
8
1
10
133.5
20
170
40
2.01487
62
0
0
LINE
8
1
10
10.434
20
164.164
11
10.434
21
171.244
62
0
0
LINE
8
1
10
10.434
20
171.244
11
13.564
21
171.244
62
0
0
LINE
8
1
10
13.564
20
171.244
11
13.564
21
164.164
62
0
0
LINE
8
1
10
13.564
20
164.164
11
10.434
21
164.164
62
0
0
LINE
8
1
10
-13.565
20
164.164
11
-13.565
21
171.244
62
0
0
LINE
8
1
10
-13.565
20
171.244
11
-10.435
21
171.244
62
0
0
LINE
8
1
10
-10.435
20
171.244
11
-10.435
21
164.164
62
0
0
LINE
8
1
10
-10.435
20
164.164
11
-13.565
21
164.164
62
0
0
CIRCLE
8
1
10
-100.999
20
168.499
40
1.59007
62
0
0
LINE
8
1
10
41.587
20
96.548
11
41.873
21
96.619
62
0
0
LINE
8
1
10
41.873
20
96.619
11
42.152
21
96.719
62
0
0
LINE
8
1
10
42.152
20
96.719
11
42.671
21
96.997
62
0
0
LINE
8
1
10
42.671
20
96.997
11
42.916
21
97.179
62
0
0
LINE
8
1
10
42.916
20
97.179
11
43.128
21
97.372
62
0
0
LINE
8
1
10
43.128
20
97.372
11
43.502
21
97.827
62
0
0
LINE
8
1
10
43.502
20
97.827
11
43.658
21
98.089
62
0
0
LINE
8
1
10
43.658
20
98.089
11
43.78
21
98.348
62
0
0
LINE
8
1
10
43.78
20
98.348
11
43.88
21
98.626
62
0
0
LINE
8
1
10
43.88
20
98.626
11
43.952
21
98.913
62
0
0
LINE
8
1
10
43.952
20
98.913
11
43.995
21
99.205
62
0
0
LINE
8
1
10
43.995
20
99.205
11
43.995
21
163.795
62
0
0
LINE
8
1
10
43.995
20
163.795
11
43.952
21
164.087
62
0
0
LINE
8
1
10
43.952
20
164.087
11
43.88
21
164.374
62
0
0
LINE
8
1
10
43.88
20
164.374
11
43.78
21
164.652
62
0
0
LINE
8
1
10
43.78
20
164.652
11
43.503
21
165.172
62
0
0
LINE
8
1
10
43.503
20
165.172
11
43.321
21
165.416
62
0
0
LINE
8
1
10
43.321
20
165.416
11
43.128
21
165.628
62
0
0
LINE
8
1
10
43.128
20
165.628
11
42.672
21
166.002
62
0
0
LINE
8
1
10
42.672
20
166.002
11
42.411
21
166.159
62
0
0
LINE
8
1
10
42.411
20
166.159
11
42.152
21
166.281
62
0
0
LINE
8
1
10
42.152
20
166.281
11
41.873
21
166.381
62
0
0
LINE
8
1
10
41.873
20
166.381
11
41.587
21
166.452
62
0
0
LINE
8
1
10
41.587
20
166.452
11
41.295
21
166.496
62
0
0
LINE
8
1
10
41.295
20
166.496
11
41.289
21
166.496
62
0
0
LINE
8
1
10
41.289
20
166.496
11
41.288
21
166.497
62
0
0
LINE
8
1
10
41.288
20
166.497
11
26.705
21
166.496
62
0
0
LINE
8
1
10
26.705
20
166.496
11
26.412
21
166.452
62
0
0
LINE
8
1
10
26.412
20
166.452
11
26.126
21
166.381
62
0
0
LINE
8
1
10
26.126
20
166.381
11
25.847
21
166.281
62
0
0
LINE
8
1
10
25.847
20
166.281
11
25.328
21
166.003
62
0
0
LINE
8
1
10
25.328
20
166.003
11
25.083
21
165.821
62
0
0
LINE
8
1
10
25.083
20
165.821
11
24.871
21
165.628
62
0
0
LINE
8
1
10
24.871
20
165.628
11
24.497
21
165.173
62
0
0
LINE
8
1
10
24.497
20
165.173
11
24.341
21
164.911
62
0
0
LINE
8
1
10
24.341
20
164.911
11
24.219
21
164.652
62
0
0
LINE
8
1
10
24.219
20
164.652
11
24.119
21
164.374
62
0
0
LINE
8
1
10
24.119
20
164.374
11
24.047
21
164.087
62
0
0
LINE
8
1
10
24.047
20
164.087
11
24.004
21
163.795
62
0
0
LINE
8
1
10
24.004
20
163.795
11
24.004
21
99.205
62
0
0
LINE
8
1
10
24.004
20
99.205
11
24.047
21
98.913
62
0
0
LINE
8
1
10
24.047
20
98.913
11
24.119
21
98.626
62
0
0
LINE
8
1
10
24.119
20
98.626
11
24.219
21
98.348
62
0
0
LINE
8
1
10
24.219
20
98.348
11
24.496
21
97.828
62
0
0
LINE
8
1
10
24.496
20
97.828
11
24.678
21
97.584
62
0
0
LINE
8
1
10
24.678
20
97.584
11
24.871
21
97.372
62
0
0
LINE
8
1
10
24.871
20
97.372
11
25.327
21
96.998
62
0
0
LINE
8
1
10
25.327
20
96.998
11
25.588
21
96.841
62
0
0
LINE
8
1
10
25.588
20
96.841
11
25.847
21
96.719
62
0
0
LINE
8
1
10
25.847
20
96.719
11
26.126
21
96.619
62
0
0
LINE
8
1
10
26.126
20
96.619
11
26.412
21
96.548
62
0
0
LINE
8
1
10
26.412
20
96.548
11
26.704
21
96.504
62
0
0
LINE
8
1
10
26.704
20
96.504
11
41.295
21
96.504
62
0
0
LINE
8
1
10
41.295
20
96.504
11
41.587
21
96.548
62
0
0
CIRCLE
8
1
10
73.5
20
164
40
2.01487
62
0
0
CIRCLE
8
1
10
91.5
20
164
40
2.01487
62
0
0
CIRCLE
8
1
10
115.5
20
164
40
2.01486
62
0
0
CIRCLE
8
1
10
133.5
20
164
40
2.01487
62
0
0
CIRCLE
8
1
10
27.999
20
161.499
40
2.01483
62
0
0
CIRCLE
8
1
10
33.999
20
161.499
40
2.01483
62
0
0
CIRCLE
8
1
10
39.999
20
161.499
40
2.01483
62
0
0
LINE
8
1
10
-112.268
20
91.51
11
-136.99
21
116.232
62
0
0
LINE
8
1
10
-136.99
20
116.232
11
-136.99
21
138.768
62
0
0
LINE
8
1
10
-136.99
20
138.768
11
-112.268
21
163.49
62
0
0
LINE
8
1
10
-112.268
20
163.49
11
-89.731
21
163.49
62
0
0
LINE
8
1
10
-89.731
20
163.49
11
-65.01
21
138.768
62
0
0
LINE
8
1
10
-65.01
20
138.768
11
-65.01
21
116.232
62
0
0
LINE
8
1
10
-65.01
20
116.232
11
-89.731
21
91.51
62
0
0
LINE
8
1
10
-89.731
20
91.51
11
-112.268
21
91.51
62
0
0
CIRCLE
8
1
10
-123.22
20
158.207
40
1.98983
62
0
0
CIRCLE
8
1
10
-78.777
20
158.207
40
1.98985
62
0
0
CIRCLE
8
1
10
73.5
20
158
40
2.01487
62
0
0
CIRCLE
8
1
10
91.5
20
158
40
2.01487
62
0
0
CIRCLE
8
1
10
115.5
20
158
40
2.01486
62
0
0
CIRCLE
8
1
10
133.5
20
158
40
2.01487
62
0
0
LINE
8
1
10
10.434
20
150.164
11
10.434
21
157.244
62
0
0
LINE
8
1
10
10.434
20
157.244
11
13.564
21
157.244
62
0
0
LINE
8
1
10
13.564
20
157.244
11
13.564
21
150.164
62
0
0
LINE
8
1
10
13.564
20
150.164
11
10.434
21
150.164
62
0
0
LINE
8
1
10
-13.565
20
150.164
11
-13.565
21
157.244
62
0
0
LINE
8
1
10
-13.565
20
157.244
11
-10.435
21
157.244
62
0
0
LINE
8
1
10
-10.435
20
157.244
11
-10.435
21
150.164
62
0
0
LINE
8
1
10
-10.435
20
150.164
11
-13.565
21
150.164
62
0
0
CIRCLE
8
1
10
-127.463
20
153.964
40
1.9898
62
0
0
CIRCLE
8
1
10
-74.534
20
153.964
40
1.9898
62
0
0
LINE
8
1
10
61.637
20
61.751
11
62.925
21
62.012
62
0
0
LINE
8
1
10
62.925
20
62.012
11
64.174
21
62.418
62
0
0
LINE
8
1
10
64.174
20
62.418
11
65.37
21
62.964
62
0
0
LINE
8
1
10
65.37
20
62.964
11
66.495
21
63.643
62
0
0
LINE
8
1
10
66.495
20
63.643
11
67.536
21
64.445
62
0
0
LINE
8
1
10
67.536
20
64.445
11
68.479
21
65.361
62
0
0
LINE
8
1
10
68.479
20
65.361
11
69.311
21
66.378
62
0
0
LINE
8
1
10
69.311
20
66.378
11
70.022
21
67.484
62
0
0
LINE
8
1
10
70.022
20
67.484
11
70.601
21
68.663
62
0
0
LINE
8
1
10
70.601
20
68.663
11
71.043
21
69.901
62
0
0
LINE
8
1
10
71.043
20
69.901
11
71.341
21
71.181
62
0
0
LINE
8
1
10
71.341
20
71.181
11
71.49
21
72.486
62
0
0
LINE
8
1
10
71.49
20
72.486
11
71.509
21
89.146
62
0
0
LINE
8
1
10
71.509
20
89.146
11
70.629
21
91.472
62
0
0
LINE
8
1
10
70.629
20
91.472
11
70.525
21
91.656
62
0
0
LINE
8
1
10
70.525
20
91.656
11
70.401
21
91.828
62
0
0
LINE
8
1
10
70.401
20
91.828
11
70.003
21
92.242
62
0
0
LINE
8
1
10
70.003
20
92.242
11
69.856
21
92.431
62
0
0
LINE
8
1
10
69.856
20
92.431
11
69.734
21
92.635
62
0
0
LINE
8
1
10
69.734
20
92.635
11
69.637
21
92.853
62
0
0
LINE
8
1
10
69.637
20
92.853
11
69.566
21
93.082
62
0
0
LINE
8
1
10
69.566
20
93.082
11
69.523
21
93.317
62
0
0
LINE
8
1
10
69.523
20
93.317
11
69.525
21
93.839
62
0
0
LINE
8
1
10
69.525
20
93.839
11
69.577
21
94.096
62
0
0
LINE
8
1
10
69.577
20
94.096
11
69.579
21
94.105
62
0
0
LINE
8
1
10
69.579
20
94.105
11
69.578
21
94.105
62
0
0
LINE
8
1
10
69.578
20
94.105
11
69.664
21
94.353
62
0
0
LINE
8
1
10
69.664
20
94.353
11
69.781
21
94.587
62
0
0
LINE
8
1
10
69.781
20
94.587
11
69.928
21
94.805
62
0
0
LINE
8
1
10
69.928
20
94.805
11
70.104
21
95.003
62
0
0
LINE
8
1
10
70.104
20
95.003
11
70.104
21
95.002
62
0
0
LINE
8
1
10
70.104
20
95.002
11
70.478
21
95.322
62
0
0
LINE
8
1
10
70.478
20
95.322
11
70.635
21
95.489
62
0
0
LINE
8
1
10
70.635
20
95.489
11
70.771
21
95.671
62
0
0
LINE
8
1
10
70.771
20
95.671
11
70.887
21
95.868
62
0
0
LINE
8
1
10
70.887
20
95.868
11
71.42
21
97.273
62
0
0
LINE
8
1
10
71.42
20
97.273
11
71.452
21
97.385
62
0
0
LINE
8
1
10
71.452
20
97.385
11
71.452
21
97.389
62
0
0
LINE
8
1
10
71.452
20
97.389
11
71.494
21
97.619
62
0
0
LINE
8
1
10
71.494
20
97.619
11
71.508
21
97.857
62
0
0
LINE
8
1
10
71.508
20
97.857
11
71.509
21
97.861
62
0
0
LINE
8
1
10
71.509
20
97.861
11
71.506
21
119.256
62
0
0
LINE
8
1
10
71.506
20
119.256
11
71.505
21
119.262
62
0
0
LINE
8
1
10
71.505
20
119.262
11
71.494
21
119.382
62
0
0
LINE
8
1
10
71.494
20
119.382
11
71.476
21
119.501
62
0
0
LINE
8
1
10
71.476
20
119.501
11
71.476
21
119.504
62
0
0
LINE
8
1
10
71.476
20
119.504
11
71.452
21
119.618
62
0
0
LINE
8
1
10
71.452
20
119.618
11
71.384
21
119.839
62
0
0
LINE
8
1
10
71.384
20
119.839
11
71.382
21
119.843
62
0
0
LINE
8
1
10
71.382
20
119.843
11
70.887
21
121.132
62
0
0
LINE
8
1
10
70.887
20
121.132
11
70.771
21
121.33
62
0
0
LINE
8
1
10
70.771
20
121.33
11
70.635
21
121.512
62
0
0
LINE
8
1
10
70.635
20
121.512
11
70.478
21
121.679
62
0
0
LINE
8
1
10
70.478
20
121.679
11
70.103
21
121.999
62
0
0
LINE
8
1
10
70.103
20
121.999
11
69.928
21
122.196
62
0
0
LINE
8
1
10
69.928
20
122.196
11
69.781
21
122.414
62
0
0
LINE
8
1
10
69.781
20
122.414
11
69.664
21
122.648
62
0
0
LINE
8
1
10
69.664
20
122.648
11
69.578
21
122.896
62
0
0
LINE
8
1
10
69.578
20
122.896
11
69.579
21
122.896
62
0
0
LINE
8
1
10
69.579
20
122.896
11
69.526
21
123.155
62
0
0
LINE
8
1
10
69.526
20
123.155
11
69.509
21
123.456
62
0
0
LINE
8
1
10
69.509
20
123.456
11
69.523
21
123.684
62
0
0
LINE
8
1
10
69.523
20
123.684
11
69.566
21
123.919
62
0
0
LINE
8
1
10
69.566
20
123.919
11
69.637
21
124.148
62
0
0
LINE
8
1
10
69.637
20
124.148
11
69.734
21
124.366
62
0
0
LINE
8
1
10
69.734
20
124.366
11
69.856
21
124.57
62
0
0
LINE
8
1
10
69.856
20
124.57
11
70.003
21
124.759
62
0
0
LINE
8
1
10
70.003
20
124.759
11
70.401
21
125.173
62
0
0
LINE
8
1
10
70.401
20
125.173
11
70.525
21
125.345
62
0
0
LINE
8
1
10
70.525
20
125.345
11
70.629
21
125.529
62
0
0
LINE
8
1
10
70.629
20
125.529
11
71.417
21
127.622
62
0
0
LINE
8
1
10
71.417
20
127.622
11
71.419
21
127.626
62
0
0
LINE
8
1
10
71.419
20
127.626
11
71.452
21
127.741
62
0
0
LINE
8
1
10
71.452
20
127.741
11
71.452
21
127.746
62
0
0
LINE
8
1
10
71.452
20
127.746
11
71.494
21
127.976
62
0
0
LINE
8
1
10
71.494
20
127.976
11
71.508
21
128.213
62
0
0
LINE
8
1
10
71.508
20
128.213
11
71.509
21
128.217
62
0
0
LINE
8
1
10
71.509
20
128.217
11
71.434
21
145.169
62
0
0
LINE
8
1
10
71.434
20
145.169
11
71.21
21
146.464
62
0
0
LINE
8
1
10
71.21
20
146.464
11
70.84
21
147.725
62
0
0
LINE
8
1
10
70.84
20
147.725
11
70.328
21
148.935
62
0
0
LINE
8
1
10
70.328
20
148.935
11
69.682
21
150.08
62
0
0
LINE
8
1
10
69.682
20
150.08
11
68.91
21
151.143
62
0
0
LINE
8
1
10
68.91
20
151.143
11
68.021
21
152.111
62
0
0
LINE
8
1
10
68.021
20
152.111
11
67.027
21
152.972
62
0
0
LINE
8
1
10
67.027
20
152.972
11
65.943
21
153.713
62
0
0
LINE
8
1
10
65.943
20
153.713
11
64.78
21
154.327
62
0
0
LINE
8
1
10
64.78
20
154.327
11
63.556
21
154.803
62
0
0
LINE
8
1
10
63.556
20
154.803
11
62.285
21
155.138
62
0
0
LINE
8
1
10
62.285
20
155.138
11
60.984
21
155.325
62
0
0
LINE
8
1
10
60.984
20
155.325
11
59.671
21
155.362
62
0
0
LINE
8
1
10
59.671
20
155.362
11
58.361
21
155.25
62
0
0
LINE
8
1
10
58.361
20
155.25
11
57.073
21
154.989
62
0
0
LINE
8
1
10
57.073
20
154.989
11
55.824
21
154.583
62
0
0
LINE
8
1
10
55.824
20
154.583
11
54.628
21
154.037
62
0
0
LINE
8
1
10
54.628
20
154.037
11
53.503
21
153.358
62
0
0
LINE
8
1
10
53.503
20
153.358
11
52.462
21
152.556
62
0
0
LINE
8
1
10
52.462
20
152.556
11
51.519
21
151.64
62
0
0
LINE
8
1
10
51.519
20
151.64
11
50.687
21
150.623
62
0
0
LINE
8
1
10
50.687
20
150.623
11
49.976
21
149.517
62
0
0
LINE
8
1
10
49.976
20
149.517
11
49.397
21
148.338
62
0
0
LINE
8
1
10
49.397
20
148.338
11
48.955
21
147.1
62
0
0
LINE
8
1
10
48.955
20
147.1
11
48.657
21
145.82
62
0
0
LINE
8
1
10
48.657
20
145.82
11
48.508
21
144.515
62
0
0
LINE
8
1
10
48.508
20
144.515
11
48.492
21
128.101
62
0
0
LINE
8
1
10
48.492
20
128.101
11
48.493
21
128.095
62
0
0
LINE
8
1
10
48.493
20
128.095
11
48.504
21
127.976
62
0
0
LINE
8
1
10
48.504
20
127.976
11
48.522
21
127.856
62
0
0
LINE
8
1
10
48.522
20
127.856
11
48.522
21
127.853
62
0
0
LINE
8
1
10
48.522
20
127.853
11
48.546
21
127.74
62
0
0
LINE
8
1
10
48.546
20
127.74
11
48.614
21
127.519
62
0
0
LINE
8
1
10
48.614
20
127.519
11
48.616
21
127.515
62
0
0
LINE
8
1
10
48.616
20
127.515
11
49.02
21
126.434
62
0
0
LINE
8
1
10
49.02
20
126.434
11
49.226
21
126.028
62
0
0
LINE
8
1
10
49.226
20
126.028
11
49.363
21
125.845
62
0
0
LINE
8
1
10
49.363
20
125.845
11
49.52
21
125.679
62
0
0
LINE
8
1
10
49.52
20
125.679
11
49.895
21
125.358
62
0
0
LINE
8
1
10
49.895
20
125.358
11
50.07
21
125.162
62
0
0
LINE
8
1
10
50.07
20
125.162
11
50.217
21
124.944
62
0
0
LINE
8
1
10
50.217
20
124.944
11
50.334
21
124.71
62
0
0
LINE
8
1
10
50.334
20
124.71
11
50.42
21
124.461
62
0
0
LINE
8
1
10
50.42
20
124.461
11
50.419
21
124.461
62
0
0
LINE
8
1
10
50.419
20
124.461
11
50.472
21
124.202
62
0
0
LINE
8
1
10
50.472
20
124.202
11
50.489
21
123.902
62
0
0
LINE
8
1
10
50.489
20
123.902
11
50.475
21
123.672
62
0
0
LINE
8
1
10
50.475
20
123.672
11
50.432
21
123.437
62
0
0
LINE
8
1
10
50.432
20
123.437
11
50.361
21
123.209
62
0
0
LINE
8
1
10
50.361
20
123.209
11
50.264
21
122.992
62
0
0
LINE
8
1
10
50.264
20
122.992
11
50.141
21
122.786
62
0
0
LINE
8
1
10
50.141
20
122.786
11
49.994
21
122.598
62
0
0
LINE
8
1
10
49.994
20
122.598
11
49.597
21
122.185
62
0
0
LINE
8
1
10
49.597
20
122.185
11
49.473
21
122.013
62
0
0
LINE
8
1
10
49.473
20
122.013
11
49.369
21
121.828
62
0
0
LINE
8
1
10
49.369
20
121.828
11
48.581
21
119.736
62
0
0
LINE
8
1
10
48.581
20
119.736
11
48.579
21
119.732
62
0
0
LINE
8
1
10
48.579
20
119.732
11
48.546
21
119.617
62
0
0
LINE
8
1
10
48.546
20
119.617
11
48.546
21
119.612
62
0
0
LINE
8
1
10
48.546
20
119.612
11
48.504
21
119.382
62
0
0
LINE
8
1
10
48.504
20
119.382
11
48.49
21
119.144
62
0
0
LINE
8
1
10
48.49
20
119.144
11
48.489
21
119.14
62
0
0
LINE
8
1
10
48.489
20
119.14
11
48.492
21
97.745
62
0
0
LINE
8
1
10
48.492
20
97.745
11
48.493
21
97.739
62
0
0
LINE
8
1
10
48.493
20
97.739
11
48.504
21
97.619
62
0
0
LINE
8
1
10
48.504
20
97.619
11
48.522
21
97.499
62
0
0
LINE
8
1
10
48.522
20
97.499
11
48.522
21
97.496
62
0
0
LINE
8
1
10
48.522
20
97.496
11
48.546
21
97.383
62
0
0
LINE
8
1
10
48.546
20
97.383
11
48.614
21
97.162
62
0
0
LINE
8
1
10
48.614
20
97.162
11
48.616
21
97.158
62
0
0
LINE
8
1
10
48.616
20
97.158
11
49.369
21
95.173
62
0
0
LINE
8
1
10
49.369
20
95.173
11
49.473
21
94.988
62
0
0
LINE
8
1
10
49.473
20
94.988
11
49.597
21
94.816
62
0
0
LINE
8
1
10
49.597
20
94.816
11
49.995
21
94.402
62
0
0
LINE
8
1
10
49.995
20
94.402
11
50.142
21
94.214
62
0
0
LINE
8
1
10
50.142
20
94.214
11
50.264
21
94.009
62
0
0
LINE
8
1
10
50.264
20
94.009
11
50.361
21
93.792
62
0
0
LINE
8
1
10
50.361
20
93.792
11
50.432
21
93.563
62
0
0
LINE
8
1
10
50.432
20
93.563
11
50.475
21
93.328
62
0
0
LINE
8
1
10
50.475
20
93.328
11
50.473
21
92.806
62
0
0
LINE
8
1
10
50.473
20
92.806
11
50.421
21
92.548
62
0
0
LINE
8
1
10
50.421
20
92.548
11
50.419
21
92.54
62
0
0
LINE
8
1
10
50.419
20
92.54
11
50.42
21
92.54
62
0
0
LINE
8
1
10
50.42
20
92.54
11
50.334
21
92.291
62
0
0
LINE
8
1
10
50.334
20
92.291
11
50.216
21
92.055
62
0
0
LINE
8
1
10
50.216
20
92.055
11
50.069
21
91.838
62
0
0
LINE
8
1
10
50.069
20
91.838
11
49.894
21
91.642
62
0
0
LINE
8
1
10
49.894
20
91.642
11
49.894
21
91.643
62
0
0
LINE
8
1
10
49.894
20
91.643
11
49.52
21
91.322
62
0
0
LINE
8
1
10
49.52
20
91.322
11
49.363
21
91.156
62
0
0
LINE
8
1
10
49.363
20
91.156
11
49.227
21
90.974
62
0
0
LINE
8
1
10
49.227
20
90.974
11
49.108
21
90.77
62
0
0
LINE
8
1
10
49.108
20
90.77
11
48.489
21
89.146
62
0
0
LINE
8
1
10
48.489
20
89.146
11
48.564
21
71.832
62
0
0
LINE
8
1
10
48.564
20
71.832
11
48.788
21
70.537
62
0
0
LINE
8
1
10
48.788
20
70.537
11
49.158
21
69.276
62
0
0
LINE
8
1
10
49.158
20
69.276
11
49.67
21
68.066
62
0
0
LINE
8
1
10
49.67
20
68.066
11
50.316
21
66.921
62
0
0
LINE
8
1
10
50.316
20
66.921
11
51.088
21
65.858
62
0
0
LINE
8
1
10
51.088
20
65.858
11
51.977
21
64.89
62
0
0
LINE
8
1
10
51.977
20
64.89
11
52.971
21
64.029
62
0
0
LINE
8
1
10
52.971
20
64.029
11
54.055
21
63.288
62
0
0
LINE
8
1
10
54.055
20
63.288
11
55.218
21
62.674
62
0
0
LINE
8
1
10
55.218
20
62.674
11
56.442
21
62.198
62
0
0
LINE
8
1
10
56.442
20
62.198
11
57.713
21
61.863
62
0
0
LINE
8
1
10
57.713
20
61.863
11
59.014
21
61.676
62
0
0
LINE
8
1
10
59.014
20
61.676
11
60.327
21
61.639
62
0
0
LINE
8
1
10
60.327
20
61.639
11
61.637
21
61.751
62
0
0
LINE
8
1
10
85.637
20
58.751
11
86.925
21
59.012
62
0
0
LINE
8
1
10
86.925
20
59.012
11
88.174
21
59.418
62
0
0
LINE
8
1
10
88.174
20
59.418
11
89.37
21
59.964
62
0
0
LINE
8
1
10
89.37
20
59.964
11
90.495
21
60.643
62
0
0
LINE
8
1
10
90.495
20
60.643
11
91.536
21
61.445
62
0
0
LINE
8
1
10
91.536
20
61.445
11
92.479
21
62.361
62
0
0
LINE
8
1
10
92.479
20
62.361
11
93.311
21
63.378
62
0
0
LINE
8
1
10
93.311
20
63.378
11
94.022
21
64.484
62
0
0
LINE
8
1
10
94.022
20
64.484
11
94.601
21
65.663
62
0
0
LINE
8
1
10
94.601
20
65.663
11
95.043
21
66.901
62
0
0
LINE
8
1
10
95.043
20
66.901
11
95.341
21
68.181
62
0
0
LINE
8
1
10
95.341
20
68.181
11
95.49
21
69.486
62
0
0
LINE
8
1
10
95.49
20
69.486
11
95.509
21
86.146
62
0
0
LINE
8
1
10
95.509
20
86.146
11
94.629
21
88.472
62
0
0
LINE
8
1
10
94.629
20
88.472
11
94.525
21
88.656
62
0
0
LINE
8
1
10
94.525
20
88.656
11
94.401
21
88.828
62
0
0
LINE
8
1
10
94.401
20
88.828
11
94.003
21
89.242
62
0
0
LINE
8
1
10
94.003
20
89.242
11
93.856
21
89.431
62
0
0
LINE
8
1
10
93.856
20
89.431
11
93.734
21
89.635
62
0
0
LINE
8
1
10
93.734
20
89.635
11
93.637
21
89.853
62
0
0
LINE
8
1
10
93.637
20
89.853
11
93.566
21
90.082
62
0
0
LINE
8
1
10
93.566
20
90.082
11
93.523
21
90.317
62
0
0
LINE
8
1
10
93.523
20
90.317
11
93.525
21
90.839
62
0
0
LINE
8
1
10
93.525
20
90.839
11
93.577
21
91.096
62
0
0
LINE
8
1
10
93.577
20
91.096
11
93.579
21
91.105
62
0
0
LINE
8
1
10
93.579
20
91.105
11
93.578
21
91.105
62
0
0
LINE
8
1
10
93.578
20
91.105
11
93.664
21
91.353
62
0
0
LINE
8
1
10
93.664
20
91.353
11
93.781
21
91.587
62
0
0
LINE
8
1
10
93.781
20
91.587
11
93.928
21
91.805
62
0
0
LINE
8
1
10
93.928
20
91.805
11
94.104
21
92.003
62
0
0
LINE
8
1
10
94.104
20
92.003
11
94.104
21
92.002
62
0
0
LINE
8
1
10
94.104
20
92.002
11
94.478
21
92.322
62
0
0
LINE
8
1
10
94.478
20
92.322
11
94.635
21
92.489
62
0
0
LINE
8
1
10
94.635
20
92.489
11
94.771
21
92.671
62
0
0
LINE
8
1
10
94.771
20
92.671
11
94.887
21
92.868
62
0
0
LINE
8
1
10
94.887
20
92.868
11
95.42
21
94.273
62
0
0
LINE
8
1
10
95.42
20
94.273
11
95.452
21
94.385
62
0
0
LINE
8
1
10
95.452
20
94.385
11
95.452
21
94.389
62
0
0
LINE
8
1
10
95.452
20
94.389
11
95.494
21
94.619
62
0
0
LINE
8
1
10
95.494
20
94.619
11
95.508
21
94.857
62
0
0
LINE
8
1
10
95.508
20
94.857
11
95.509
21
94.861
62
0
0
LINE
8
1
10
95.509
20
94.861
11
95.506
21
116.256
62
0
0
LINE
8
1
10
95.506
20
116.256
11
95.505
21
116.262
62
0
0
LINE
8
1
10
95.505
20
116.262
11
95.494
21
116.382
62
0
0
LINE
8
1
10
95.494
20
116.382
11
95.476
21
116.501
62
0
0
LINE
8
1
10
95.476
20
116.501
11
95.476
21
116.504
62
0
0
LINE
8
1
10
95.476
20
116.504
11
95.452
21
116.618
62
0
0
LINE
8
1
10
95.452
20
116.618
11
95.384
21
116.839
62
0
0
LINE
8
1
10
95.384
20
116.839
11
95.382
21
116.843
62
0
0
LINE
8
1
10
95.382
20
116.843
11
94.887
21
118.132
62
0
0
LINE
8
1
10
94.887
20
118.132
11
94.771
21
118.33
62
0
0
LINE
8
1
10
94.771
20
118.33
11
94.635
21
118.512
62
0
0
LINE
8
1
10
94.635
20
118.512
11
94.478
21
118.679
62
0
0
LINE
8
1
10
94.478
20
118.679
11
94.103
21
118.999
62
0
0
LINE
8
1
10
94.103
20
118.999
11
93.928
21
119.196
62
0
0
LINE
8
1
10
93.928
20
119.196
11
93.781
21
119.414
62
0
0
LINE
8
1
10
93.781
20
119.414
11
93.664
21
119.648
62
0
0
LINE
8
1
10
93.664
20
119.648
11
93.578
21
119.896
62
0
0
LINE
8
1
10
93.578
20
119.896
11
93.579
21
119.896
62
0
0
LINE
8
1
10
93.579
20
119.896
11
93.526
21
120.155
62
0
0
LINE
8
1
10
93.526
20
120.155
11
93.509
21
120.456
62
0
0
LINE
8
1
10
93.509
20
120.456
11
93.523
21
120.684
62
0
0
LINE
8
1
10
93.523
20
120.684
11
93.566
21
120.919
62
0
0
LINE
8
1
10
93.566
20
120.919
11
93.637
21
121.148
62
0
0
LINE
8
1
10
93.637
20
121.148
11
93.734
21
121.366
62
0
0
LINE
8
1
10
93.734
20
121.366
11
93.856
21
121.57
62
0
0
LINE
8
1
10
93.856
20
121.57
11
94.003
21
121.759
62
0
0
LINE
8
1
10
94.003
20
121.759
11
94.401
21
122.173
62
0
0
LINE
8
1
10
94.401
20
122.173
11
94.525
21
122.345
62
0
0
LINE
8
1
10
94.525
20
122.345
11
94.629
21
122.529
62
0
0
LINE
8
1
10
94.629
20
122.529
11
95.417
21
124.622
62
0
0
LINE
8
1
10
95.417
20
124.622
11
95.419
21
124.626
62
0
0
LINE
8
1
10
95.419
20
124.626
11
95.452
21
124.741
62
0
0
LINE
8
1
10
95.452
20
124.741
11
95.452
21
124.746
62
0
0
LINE
8
1
10
95.452
20
124.746
11
95.494
21
124.976
62
0
0
LINE
8
1
10
95.494
20
124.976
11
95.508
21
125.213
62
0
0
LINE
8
1
10
95.508
20
125.213
11
95.509
21
125.217
62
0
0
LINE
8
1
10
95.509
20
125.217
11
95.434
21
142.169
62
0
0
LINE
8
1
10
95.434
20
142.169
11
95.21
21
143.464
62
0
0
LINE
8
1
10
95.21
20
143.464
11
94.84
21
144.725
62
0
0
LINE
8
1
10
94.84
20
144.725
11
94.328
21
145.935
62
0
0
LINE
8
1
10
94.328
20
145.935
11
93.682
21
147.08
62
0
0
LINE
8
1
10
93.682
20
147.08
11
92.91
21
148.143
62
0
0
LINE
8
1
10
92.91
20
148.143
11
92.021
21
149.111
62
0
0
LINE
8
1
10
92.021
20
149.111
11
91.027
21
149.972
62
0
0
LINE
8
1
10
91.027
20
149.972
11
89.943
21
150.713
62
0
0
LINE
8
1
10
89.943
20
150.713
11
88.78
21
151.327
62
0
0
LINE
8
1
10
88.78
20
151.327
11
87.556
21
151.803
62
0
0
LINE
8
1
10
87.556
20
151.803
11
86.285
21
152.138
62
0
0
LINE
8
1
10
86.285
20
152.138
11
84.984
21
152.325
62
0
0
LINE
8
1
10
84.984
20
152.325
11
83.671
21
152.362
62
0
0
LINE
8
1
10
83.671
20
152.362
11
82.361
21
152.25
62
0
0
LINE
8
1
10
82.361
20
152.25
11
81.073
21
151.989
62
0
0
LINE
8
1
10
81.073
20
151.989
11
79.824
21
151.583
62
0
0
LINE
8
1
10
79.824
20
151.583
11
78.628
21
151.037
62
0
0
LINE
8
1
10
78.628
20
151.037
11
77.503
21
150.358
62
0
0
LINE
8
1
10
77.503
20
150.358
11
76.462
21
149.556
62
0
0
LINE
8
1
10
76.462
20
149.556
11
75.519
21
148.64
62
0
0
LINE
8
1
10
75.519
20
148.64
11
74.687
21
147.623
62
0
0
LINE
8
1
10
74.687
20
147.623
11
73.976
21
146.517
62
0
0
LINE
8
1
10
73.976
20
146.517
11
73.397
21
145.338
62
0
0
LINE
8
1
10
73.397
20
145.338
11
72.955
21
144.1
62
0
0
LINE
8
1
10
72.955
20
144.1
11
72.657
21
142.82
62
0
0
LINE
8
1
10
72.657
20
142.82
11
72.508
21
141.515
62
0
0
LINE
8
1
10
72.508
20
141.515
11
72.492
21
125.101
62
0
0
LINE
8
1
10
72.492
20
125.101
11
72.493
21
125.095
62
0
0
LINE
8
1
10
72.493
20
125.095
11
72.504
21
124.976
62
0
0
LINE
8
1
10
72.504
20
124.976
11
72.522
21
124.856
62
0
0
LINE
8
1
10
72.522
20
124.856
11
72.522
21
124.853
62
0
0
LINE
8
1
10
72.522
20
124.853
11
72.546
21
124.74
62
0
0
LINE
8
1
10
72.546
20
124.74
11
72.614
21
124.519
62
0
0
LINE
8
1
10
72.614
20
124.519
11
72.616
21
124.515
62
0
0
LINE
8
1
10
72.616
20
124.515
11
73.02
21
123.434
62
0
0
LINE
8
1
10
73.02
20
123.434
11
73.226
21
123.028
62
0
0
LINE
8
1
10
73.226
20
123.028
11
73.363
21
122.845
62
0
0
LINE
8
1
10
73.363
20
122.845
11
73.52
21
122.679
62
0
0
LINE
8
1
10
73.52
20
122.679
11
73.895
21
122.358
62
0
0
LINE
8
1
10
73.895
20
122.358
11
74.07
21
122.162
62
0
0
LINE
8
1
10
74.07
20
122.162
11
74.217
21
121.944
62
0
0
LINE
8
1
10
74.217
20
121.944
11
74.334
21
121.71
62
0
0
LINE
8
1
10
74.334
20
121.71
11
74.42
21
121.461
62
0
0
LINE
8
1
10
74.42
20
121.461
11
74.419
21
121.461
62
0
0
LINE
8
1
10
74.419
20
121.461
11
74.472
21
121.202
62
0
0
LINE
8
1
10
74.472
20
121.202
11
74.489
21
120.902
62
0
0
LINE
8
1
10
74.489
20
120.902
11
74.475
21
120.672
62
0
0
LINE
8
1
10
74.475
20
120.672
11
74.432
21
120.437
62
0
0
LINE
8
1
10
74.432
20
120.437
11
74.361
21
120.209
62
0
0
LINE
8
1
10
74.361
20
120.209
11
74.264
21
119.992
62
0
0
LINE
8
1
10
74.264
20
119.992
11
74.141
21
119.786
62
0
0
LINE
8
1
10
74.141
20
119.786
11
73.994
21
119.598
62
0
0
LINE
8
1
10
73.994
20
119.598
11
73.597
21
119.185
62
0
0
LINE
8
1
10
73.597
20
119.185
11
73.473
21
119.013
62
0
0
LINE
8
1
10
73.473
20
119.013
11
73.369
21
118.828
62
0
0
LINE
8
1
10
73.369
20
118.828
11
72.581
21
116.736
62
0
0
LINE
8
1
10
72.581
20
116.736
11
72.579
21
116.732
62
0
0
LINE
8
1
10
72.579
20
116.732
11
72.546
21
116.617
62
0
0
LINE
8
1
10
72.546
20
116.617
11
72.546
21
116.612
62
0
0
LINE
8
1
10
72.546
20
116.612
11
72.504
21
116.382
62
0
0
LINE
8
1
10
72.504
20
116.382
11
72.49
21
116.144
62
0
0
LINE
8
1
10
72.49
20
116.144
11
72.489
21
116.14
62
0
0
LINE
8
1
10
72.489
20
116.14
11
72.492
21
94.745
62
0
0
LINE
8
1
10
72.492
20
94.745
11
72.493
21
94.739
62
0
0
LINE
8
1
10
72.493
20
94.739
11
72.504
21
94.619
62
0
0
LINE
8
1
10
72.504
20
94.619
11
72.522
21
94.499
62
0
0
LINE
8
1
10
72.522
20
94.499
11
72.522
21
94.496
62
0
0
LINE
8
1
10
72.522
20
94.496
11
72.546
21
94.383
62
0
0
LINE
8
1
10
72.546
20
94.383
11
72.614
21
94.162
62
0
0
LINE
8
1
10
72.614
20
94.162
11
72.616
21
94.158
62
0
0
LINE
8
1
10
72.616
20
94.158
11
73.369
21
92.173
62
0
0
LINE
8
1
10
73.369
20
92.173
11
73.473
21
91.988
62
0
0
LINE
8
1
10
73.473
20
91.988
11
73.597
21
91.816
62
0
0
LINE
8
1
10
73.597
20
91.816
11
73.995
21
91.402
62
0
0
LINE
8
1
10
73.995
20
91.402
11
74.142
21
91.214
62
0
0
LINE
8
1
10
74.142
20
91.214
11
74.264
21
91.009
62
0
0
LINE
8
1
10
74.264
20
91.009
11
74.361
21
90.792
62
0
0
LINE
8
1
10
74.361
20
90.792
11
74.432
21
90.563
62
0
0
LINE
8
1
10
74.432
20
90.563
11
74.475
21
90.328
62
0
0
LINE
8
1
10
74.475
20
90.328
11
74.473
21
89.806
62
0
0
LINE
8
1
10
74.473
20
89.806
11
74.421
21
89.548
62
0
0
LINE
8
1
10
74.421
20
89.548
11
74.419
21
89.54
62
0
0
LINE
8
1
10
74.419
20
89.54
11
74.42
21
89.54
62
0
0
LINE
8
1
10
74.42
20
89.54
11
74.334
21
89.291
62
0
0
LINE
8
1
10
74.334
20
89.291
11
74.216
21
89.055
62
0
0
LINE
8
1
10
74.216
20
89.055
11
74.069
21
88.838
62
0
0
LINE
8
1
10
74.069
20
88.838
11
73.894
21
88.642
62
0
0
LINE
8
1
10
73.894
20
88.642
11
73.894
21
88.643
62
0
0
LINE
8
1
10
73.894
20
88.643
11
73.52
21
88.322
62
0
0
LINE
8
1
10
73.52
20
88.322
11
73.363
21
88.156
62
0
0
LINE
8
1
10
73.363
20
88.156
11
73.227
21
87.974
62
0
0
LINE
8
1
10
73.227
20
87.974
11
73.108
21
87.77
62
0
0
LINE
8
1
10
73.108
20
87.77
11
72.489
21
86.146
62
0
0
LINE
8
1
10
72.489
20
86.146
11
72.564
21
68.832
62
0
0
LINE
8
1
10
72.564
20
68.832
11
72.788
21
67.537
62
0
0
LINE
8
1
10
72.788
20
67.537
11
73.158
21
66.276
62
0
0
LINE
8
1
10
73.158
20
66.276
11
73.67
21
65.066
62
0
0
LINE
8
1
10
73.67
20
65.066
11
74.316
21
63.921
62
0
0
LINE
8
1
10
74.316
20
63.921
11
75.088
21
62.858
62
0
0
LINE
8
1
10
75.088
20
62.858
11
75.977
21
61.89
62
0
0
LINE
8
1
10
75.977
20
61.89
11
76.971
21
61.029
62
0
0
LINE
8
1
10
76.971
20
61.029
11
78.055
21
60.288
62
0
0
LINE
8
1
10
78.055
20
60.288
11
79.218
21
59.674
62
0
0
LINE
8
1
10
79.218
20
59.674
11
80.442
21
59.198
62
0
0
LINE
8
1
10
80.442
20
59.198
11
81.713
21
58.863
62
0
0
LINE
8
1
10
81.713
20
58.863
11
83.014
21
58.676
62
0
0
LINE
8
1
10
83.014
20
58.676
11
84.327
21
58.639
62
0
0
LINE
8
1
10
84.327
20
58.639
11
85.637
21
58.751
62
0
0
CIRCLE
8
1
10
59.999
20
149.857
40
2.0149
62
0
0
CIRCLE
8
1
10
-131.706
20
149.72
40
1.98973
62
0
0
CIRCLE
8
1
10
-70.291
20
149.72
40
1.98972
62
0
0
CIRCLE
8
1
10
83.999
20
146.857
40
2.0149
62
0
0
CIRCLE
8
1
10
-12
20
144.705
40
2.03982
62
0
0
CIRCLE
8
1
10
11.998
20
144.705
40
2.03982
62
0
0
CIRCLE
8
1
10
53.999
20
143.857
40
2.01491
62
0
0
CIRCLE
8
1
10
59.999
20
143.857
40
2.0149
62
0
0
CIRCLE
8
1
10
65.999
20
143.857
40
2.01489
62
0
0
CIRCLE
8
1
10
27.999
20
143.499
40
2.01483
62
0
0
CIRCLE
8
1
10
33.999
20
143.499
40
2.01483
62
0
0
CIRCLE
8
1
10
39.999
20
143.499
40
2.01483
62
0
0
LINE
8
1
10
-118.49
20
111.49
11
-111.51
21
111.49
62
0
0
LINE
8
1
10
-111.51
20
111.49
11
-111.51
21
108.49
62
0
0
LINE
8
1
10
-111.51
20
108.49
11
-104.49
21
108.49
62
0
0
LINE
8
1
10
-104.49
20
108.49
11
-104.49
21
111.49
62
0
0
LINE
8
1
10
-104.49
20
111.49
11
-102.99
21
111.49
62
0
0
LINE
8
1
10
-102.99
20
111.49
11
-102.99
21
141.51
62
0
0
LINE
8
1
10
-102.99
20
141.51
11
-104.49
21
141.51
62
0
0
LINE
8
1
10
-104.49
20
141.51
11
-104.49
21
144.51
62
0
0
LINE
8
1
10
-104.49
20
144.51
11
-111.51
21
144.51
62
0
0
LINE
8
1
10
-111.51
20
144.51
11
-111.51
21
141.51
62
0
0
LINE
8
1
10
-111.51
20
141.51
11
-118.49
21
141.51
62
0
0
LINE
8
1
10
-118.49
20
141.51
11
-118.49
21
144.51
62
0
0
LINE
8
1
10
-118.49
20
144.51
11
-125.51
21
144.51
62
0
0
LINE
8
1
10
-125.51
20
144.51
11
-125.51
21
141.51
62
0
0
LINE
8
1
10
-125.51
20
141.51
11
-128.506
21
141.51
62
0
0
LINE
8
1
10
-128.506
20
141.51
11
-130.2
21
137.285
62
0
0
LINE
8
1
10
-130.2
20
137.285
11
-131.24
21
133.534
62
0
0
LINE
8
1
10
-131.24
20
133.534
11
-131.791
21
130.252
62
0
0
LINE
8
1
10
-131.791
20
130.252
11
-132.006
21
126.97
62
0
0
LINE
8
1
10
-132.006
20
126.97
11
-131.927
21
124.188
62
0
0
LINE
8
1
10
-131.927
20
124.188
11
-131.347
21
119.967
62
0
0
LINE
8
1
10
-131.347
20
119.967
11
-130.355
21
116.184
62
0
0
LINE
8
1
10
-130.355
20
116.184
11
-128.739
21
111.997
62
0
0
LINE
8
1
10
-128.739
20
111.997
11
-128.506
21
111.49
62
0
0
LINE
8
1
10
-128.506
20
111.49
11
-125.51
21
111.49
62
0
0
LINE
8
1
10
-125.51
20
111.49
11
-125.51
21
108.49
62
0
0
LINE
8
1
10
-125.51
20
108.49
11
-118.49
21
108.49
62
0
0
LINE
8
1
10
-118.49
20
108.49
11
-118.49
21
111.49
62
0
0
CIRCLE
8
1
10
77.999
20
140.857
40
2.01491
62
0
0
CIRCLE
8
1
10
83.999
20
140.857
40
2.0149
62
0
0
CIRCLE
8
1
10
89.999
20
140.857
40
2.01489
62
0
0
LINE
8
1
10
-92.49
20
109.491
11
-85.51
21
109.491
62
0
0
LINE
8
1
10
-85.51
20
109.491
11
-85.51
21
106.491
62
0
0
LINE
8
1
10
-85.51
20
106.491
11
-78.49
21
106.491
62
0
0
LINE
8
1
10
-78.49
20
106.491
11
-78.49
21
109.491
62
0
0
LINE
8
1
10
-78.49
20
109.491
11
-75.494
21
109.491
62
0
0
LINE
8
1
10
-75.494
20
109.491
11
-73.799
21
113.716
62
0
0
LINE
8
1
10
-73.799
20
113.716
11
-72.759
21
117.467
62
0
0
LINE
8
1
10
-72.759
20
117.467
11
-72.208
21
120.749
62
0
0
LINE
8
1
10
-72.208
20
120.749
11
-71.993
21
124.031
62
0
0
LINE
8
1
10
-71.993
20
124.031
11
-72.157
21
127.783
62
0
0
LINE
8
1
10
-72.157
20
127.783
11
-72.652
21
131.033
62
0
0
LINE
8
1
10
-72.652
20
131.033
11
-73.644
21
134.816
62
0
0
LINE
8
1
10
-73.644
20
134.816
11
-75.26
21
139.004
62
0
0
LINE
8
1
10
-75.26
20
139.004
11
-75.494
21
139.511
62
0
0
LINE
8
1
10
-75.494
20
139.511
11
-78.49
21
139.511
62
0
0
LINE
8
1
10
-78.49
20
139.511
11
-78.49
21
142.511
62
0
0
LINE
8
1
10
-78.49
20
142.511
11
-85.51
21
142.511
62
0
0
LINE
8
1
10
-85.51
20
142.511
11
-85.51
21
139.511
62
0
0
LINE
8
1
10
-85.51
20
139.511
11
-92.49
21
139.511
62
0
0
LINE
8
1
10
-92.49
20
139.511
11
-92.49
21
142.511
62
0
0
LINE
8
1
10
-92.49
20
142.511
11
-99.51
21
142.511
62
0
0
LINE
8
1
10
-99.51
20
142.511
11
-99.51
21
139.511
62
0
0
LINE
8
1
10
-99.51
20
139.511
11
-101.01
21
139.511
62
0
0
LINE
8
1
10
-101.01
20
139.511
11
-101.01
21
109.491
62
0
0
LINE
8
1
10
-101.01
20
109.491
11
-99.51
21
109.491
62
0
0
LINE
8
1
10
-99.51
20
109.491
11
-99.51
21
106.491
62
0
0
LINE
8
1
10
-99.51
20
106.491
11
-92.49
21
106.491
62
0
0
LINE
8
1
10
-92.49
20
106.491
11
-92.49
21
109.491
62
0
0
CIRCLE
8
1
10
59.999
20
137.857
40
2.0149
62
0
0
LINE
8
1
10
10.434
20
132.164
11
10.434
21
139.244
62
0
0
LINE
8
1
10
10.434
20
139.244
11
13.564
21
139.244
62
0
0
LINE
8
1
10
13.564
20
139.244
11
13.564
21
132.164
62
0
0
LINE
8
1
10
13.564
20
132.164
11
10.434
21
132.164
62
0
0
LINE
8
1
10
-13.565
20
132.164
11
-13.565
21
139.244
62
0
0
LINE
8
1
10
-13.565
20
139.244
11
-10.435
21
139.244
62
0
0
LINE
8
1
10
-10.435
20
139.244
11
-10.435
21
132.164
62
0
0
LINE
8
1
10
-10.435
20
132.164
11
-13.565
21
132.164
62
0
0
CIRCLE
8
1
10
83.999
20
134.857
40
2.0149
62
0
0
CIRCLE
8
1
10
-59.999
20
127.499
40
1.59004
62
0
0
CIRCLE
8
1
10
-141.999
20
127.499
40
1.59004
62
0
0
CIRCLE
8
1
10
27.999
20
119.499
40
2.01487
62
0
0
CIRCLE
8
1
10
33.999
20
119.499
40
2.01487
62
0
0
CIRCLE
8
1
10
39.999
20
119.499
40
2.01487
62
0
0
CIRCLE
8
1
10
64.998
20
113.5
40
1.49014
62
0
0
CIRCLE
8
1
10
54.998
20
113.5
40
1.49015
62
0
0
CIRCLE
8
1
10
88.998
20
110.5
40
1.49014
62
0
0
CIRCLE
8
1
10
78.998
20
110.5
40
1.49015
62
0
0
CIRCLE
8
1
10
-131.706
20
105.278
40
1.98982
62
0
0
CIRCLE
8
1
10
-70.292
20
105.278
40
1.98981
62
0
0
LINE
8
1
10
-44.121
20
-20.165
11
-43.682
21
-20.039
62
0
0
LINE
8
1
10
-43.682
20
-20.039
11
-43.285
21
-19.877
62
0
0
LINE
8
1
10
-43.285
20
-19.877
11
-42.884
21
-19.659
62
0
0
LINE
8
1
10
-42.884
20
-19.659
11
-42.521
21
-19.404
62
0
0
LINE
8
1
10
-42.521
20
-19.404
11
-42.189
21
-19.112
62
0
0
LINE
8
1
10
-42.189
20
-19.112
11
-41.899
21
-18.795
62
0
0
LINE
8
1
10
-41.899
20
-18.795
11
-41.638
21
-18.438
62
0
0
LINE
8
1
10
-41.638
20
-18.438
11
-41.417
21
-18.054
62
0
0
LINE
8
1
10
-41.417
20
-18.054
11
-41.109
21
-17.226
62
0
0
LINE
8
1
10
-41.109
20
-17.226
11
-34.075
21
11.782
62
0
0
LINE
8
1
10
-34.075
20
11.782
11
-33.513
21
17.877
62
0
0
LINE
8
1
10
-33.513
20
17.877
11
-33.675
21
42.681
62
0
0
LINE
8
1
10
-33.675
20
42.681
11
-40.991
21
106.264
62
0
0
LINE
8
1
10
-40.991
20
106.264
11
-49.009
21
106.264
62
0
0
LINE
8
1
10
-49.009
20
106.264
11
-56.489
21
39.816
62
0
0
LINE
8
1
10
-56.489
20
39.816
11
-56.299
21
14.822
62
0
0
LINE
8
1
10
-56.299
20
14.822
11
-55.668
21
10.273
62
0
0
LINE
8
1
10
-55.668
20
10.273
11
-48.754
21
-17.661
62
0
0
LINE
8
1
10
-48.754
20
-17.661
11
-48.583
21
-18.055
62
0
0
LINE
8
1
10
-48.583
20
-18.055
11
-48.362
21
-18.438
62
0
0
LINE
8
1
10
-48.362
20
-18.438
11
-48.101
21
-18.796
62
0
0
LINE
8
1
10
-48.101
20
-18.796
11
-47.468
21
-19.413
62
0
0
LINE
8
1
10
-47.468
20
-19.413
11
-46.716
21
-19.877
62
0
0
LINE
8
1
10
-46.716
20
-19.877
11
-45.88
21
-20.165
62
0
0
LINE
8
1
10
-45.88
20
-20.165
11
-45.442
21
-20.238
62
0
0
LINE
8
1
10
-45.442
20
-20.238
11
-44.558
21
-20.238
62
0
0
LINE
8
1
10
-44.558
20
-20.238
11
-44.121
21
-20.165
62
0
0
CIRCLE
8
1
10
64.998
20
103.5
40
1.49014
62
0
0
CIRCLE
8
1
10
54.998
20
103.5
40
1.49015
62
0
0
CIRCLE
8
1
10
27.999
20
101.499
40
2.01487
62
0
0
CIRCLE
8
1
10
33.999
20
101.499
40
2.01487
62
0
0
CIRCLE
8
1
10
39.999
20
101.499
40
2.01487
62
0
0
LINE
8
1
10
-46.565
20
96.164
11
-46.565
21
103.244
62
0
0
LINE
8
1
10
-46.565
20
103.244
11
-43.435
21
103.244
62
0
0
LINE
8
1
10
-43.435
20
103.244
11
-43.435
21
96.164
62
0
0
LINE
8
1
10
-43.435
20
96.164
11
-46.565
21
96.164
62
0
0
CIRCLE
8
1
10
-127.463
20
101.034
40
1.98974
62
0
0
CIRCLE
8
1
10
-74.534
20
101.034
40
1.98974
62
0
0
LINE
8
1
10
113.587
20
32.548
11
113.873
21
32.619
62
0
0
LINE
8
1
10
113.873
20
32.619
11
114.152
21
32.719
62
0
0
LINE
8
1
10
114.152
20
32.719
11
114.671
21
32.997
62
0
0
LINE
8
1
10
114.671
20
32.997
11
114.916
21
33.179
62
0
0
LINE
8
1
10
114.916
20
33.179
11
115.128
21
33.372
62
0
0
LINE
8
1
10
115.128
20
33.372
11
115.502
21
33.827
62
0
0
LINE
8
1
10
115.502
20
33.827
11
115.658
21
34.089
62
0
0
LINE
8
1
10
115.658
20
34.089
11
115.78
21
34.348
62
0
0
LINE
8
1
10
115.78
20
34.348
11
115.88
21
34.626
62
0
0
LINE
8
1
10
115.88
20
34.626
11
115.952
21
34.913
62
0
0
LINE
8
1
10
115.952
20
34.913
11
115.995
21
35.205
62
0
0
LINE
8
1
10
115.995
20
35.205
11
115.995
21
99.795
62
0
0
LINE
8
1
10
115.995
20
99.795
11
115.952
21
100.087
62
0
0
LINE
8
1
10
115.952
20
100.087
11
115.88
21
100.374
62
0
0
LINE
8
1
10
115.88
20
100.374
11
115.78
21
100.652
62
0
0
LINE
8
1
10
115.78
20
100.652
11
115.503
21
101.172
62
0
0
LINE
8
1
10
115.503
20
101.172
11
115.321
21
101.416
62
0
0
LINE
8
1
10
115.321
20
101.416
11
115.128
21
101.628
62
0
0
LINE
8
1
10
115.128
20
101.628
11
114.672
21
102.002
62
0
0
LINE
8
1
10
114.672
20
102.002
11
114.411
21
102.159
62
0
0
LINE
8
1
10
114.411
20
102.159
11
114.152
21
102.281
62
0
0
LINE
8
1
10
114.152
20
102.281
11
113.873
21
102.381
62
0
0
LINE
8
1
10
113.873
20
102.381
11
113.587
21
102.452
62
0
0
LINE
8
1
10
113.587
20
102.452
11
113.295
21
102.496
62
0
0
LINE
8
1
10
113.295
20
102.496
11
113.289
21
102.496
62
0
0
LINE
8
1
10
113.289
20
102.496
11
113.288
21
102.497
62
0
0
LINE
8
1
10
113.288
20
102.497
11
98.705
21
102.496
62
0
0
LINE
8
1
10
98.705
20
102.496
11
98.412
21
102.452
62
0
0
LINE
8
1
10
98.412
20
102.452
11
98.126
21
102.381
62
0
0
LINE
8
1
10
98.126
20
102.381
11
97.847
21
102.281
62
0
0
LINE
8
1
10
97.847
20
102.281
11
97.328
21
102.003
62
0
0
LINE
8
1
10
97.328
20
102.003
11
97.083
21
101.821
62
0
0
LINE
8
1
10
97.083
20
101.821
11
96.871
21
101.628
62
0
0
LINE
8
1
10
96.871
20
101.628
11
96.497
21
101.173
62
0
0
LINE
8
1
10
96.497
20
101.173
11
96.341
21
100.911
62
0
0
LINE
8
1
10
96.341
20
100.911
11
96.219
21
100.652
62
0
0
LINE
8
1
10
96.219
20
100.652
11
96.119
21
100.374
62
0
0
LINE
8
1
10
96.119
20
100.374
11
96.047
21
100.087
62
0
0
LINE
8
1
10
96.047
20
100.087
11
96.004
21
99.795
62
0
0
LINE
8
1
10
96.004
20
99.795
11
96.004
21
35.205
62
0
0
LINE
8
1
10
96.004
20
35.205
11
96.047
21
34.913
62
0
0
LINE
8
1
10
96.047
20
34.913
11
96.119
21
34.626
62
0
0
LINE
8
1
10
96.119
20
34.626
11
96.219
21
34.348
62
0
0
LINE
8
1
10
96.219
20
34.348
11
96.496
21
33.828
62
0
0
LINE
8
1
10
96.496
20
33.828
11
96.678
21
33.584
62
0
0
LINE
8
1
10
96.678
20
33.584
11
96.871
21
33.372
62
0
0
LINE
8
1
10
96.871
20
33.372
11
97.327
21
32.998
62
0
0
LINE
8
1
10
97.327
20
32.998
11
97.588
21
32.841
62
0
0
LINE
8
1
10
97.588
20
32.841
11
97.847
21
32.719
62
0
0
LINE
8
1
10
97.847
20
32.719
11
98.126
21
32.619
62
0
0
LINE
8
1
10
98.126
20
32.619
11
98.412
21
32.548
62
0
0
LINE
8
1
10
98.412
20
32.548
11
98.704
21
32.504
62
0
0
LINE
8
1
10
98.704
20
32.504
11
113.295
21
32.504
62
0
0
LINE
8
1
10
113.295
20
32.504
11
113.587
21
32.548
62
0
0
CIRCLE
8
1
10
88.998
20
100.5
40
1.49014
62
0
0
CIRCLE
8
1
10
78.998
20
100.5
40
1.49015
62
0
0
CIRCLE
8
1
10
99.999
20
97.499
40
2.01483
62
0
0
CIRCLE
8
1
10
105.999
20
97.499
40
2.01483
62
0
0
CIRCLE
8
1
10
111.999
20
97.499
40
2.01483
62
0
0
CIRCLE
8
1
10
-123.22
20
96.791
40
1.98974
62
0
0
CIRCLE
8
1
10
-78.777
20
96.791
40
1.98977
62
0
0
CIRCLE
8
1
10
-12
20
95.254
40
2.0147
62
0
0
CIRCLE
8
1
10
11.998
20
95.254
40
2.0147
62
0
0
LINE
8
1
10
37.637
20
1.751
11
38.925
21
2.012
62
0
0
LINE
8
1
10
38.925
20
2.012
11
40.174
21
2.418
62
0
0
LINE
8
1
10
40.174
20
2.418
11
41.37
21
2.964
62
0
0
LINE
8
1
10
41.37
20
2.964
11
42.495
21
3.643
62
0
0
LINE
8
1
10
42.495
20
3.643
11
43.536
21
4.445
62
0
0
LINE
8
1
10
43.536
20
4.445
11
44.479
21
5.361
62
0
0
LINE
8
1
10
44.479
20
5.361
11
45.311
21
6.378
62
0
0
LINE
8
1
10
45.311
20
6.378
11
46.022
21
7.484
62
0
0
LINE
8
1
10
46.022
20
7.484
11
46.601
21
8.663
62
0
0
LINE
8
1
10
46.601
20
8.663
11
47.043
21
9.901
62
0
0
LINE
8
1
10
47.043
20
9.901
11
47.341
21
11.181
62
0
0
LINE
8
1
10
47.341
20
11.181
11
47.49
21
12.486
62
0
0
LINE
8
1
10
47.49
20
12.486
11
47.509
21
29.146
62
0
0
LINE
8
1
10
47.509
20
29.146
11
46.629
21
31.472
62
0
0
LINE
8
1
10
46.629
20
31.472
11
46.525
21
31.656
62
0
0
LINE
8
1
10
46.525
20
31.656
11
46.401
21
31.828
62
0
0
LINE
8
1
10
46.401
20
31.828
11
46.003
21
32.242
62
0
0
LINE
8
1
10
46.003
20
32.242
11
45.856
21
32.431
62
0
0
LINE
8
1
10
45.856
20
32.431
11
45.734
21
32.635
62
0
0
LINE
8
1
10
45.734
20
32.635
11
45.637
21
32.853
62
0
0
LINE
8
1
10
45.637
20
32.853
11
45.566
21
33.082
62
0
0
LINE
8
1
10
45.566
20
33.082
11
45.523
21
33.317
62
0
0
LINE
8
1
10
45.523
20
33.317
11
45.525
21
33.839
62
0
0
LINE
8
1
10
45.525
20
33.839
11
45.577
21
34.096
62
0
0
LINE
8
1
10
45.577
20
34.096
11
45.579
21
34.105
62
0
0
LINE
8
1
10
45.579
20
34.105
11
45.578
21
34.105
62
0
0
LINE
8
1
10
45.578
20
34.105
11
45.664
21
34.353
62
0
0
LINE
8
1
10
45.664
20
34.353
11
45.781
21
34.587
62
0
0
LINE
8
1
10
45.781
20
34.587
11
45.928
21
34.805
62
0
0
LINE
8
1
10
45.928
20
34.805
11
46.104
21
35.003
62
0
0
LINE
8
1
10
46.104
20
35.003
11
46.104
21
35.002
62
0
0
LINE
8
1
10
46.104
20
35.002
11
46.478
21
35.322
62
0
0
LINE
8
1
10
46.478
20
35.322
11
46.635
21
35.489
62
0
0
LINE
8
1
10
46.635
20
35.489
11
46.771
21
35.671
62
0
0
LINE
8
1
10
46.771
20
35.671
11
46.887
21
35.868
62
0
0
LINE
8
1
10
46.887
20
35.868
11
47.42
21
37.273
62
0
0
LINE
8
1
10
47.42
20
37.273
11
47.452
21
37.385
62
0
0
LINE
8
1
10
47.452
20
37.385
11
47.452
21
37.389
62
0
0
LINE
8
1
10
47.452
20
37.389
11
47.494
21
37.619
62
0
0
LINE
8
1
10
47.494
20
37.619
11
47.508
21
37.857
62
0
0
LINE
8
1
10
47.508
20
37.857
11
47.509
21
37.861
62
0
0
LINE
8
1
10
47.509
20
37.861
11
47.506
21
59.256
62
0
0
LINE
8
1
10
47.506
20
59.256
11
47.505
21
59.262
62
0
0
LINE
8
1
10
47.505
20
59.262
11
47.494
21
59.382
62
0
0
LINE
8
1
10
47.494
20
59.382
11
47.476
21
59.501
62
0
0
LINE
8
1
10
47.476
20
59.501
11
47.476
21
59.504
62
0
0
LINE
8
1
10
47.476
20
59.504
11
47.452
21
59.618
62
0
0
LINE
8
1
10
47.452
20
59.618
11
47.384
21
59.839
62
0
0
LINE
8
1
10
47.384
20
59.839
11
47.382
21
59.843
62
0
0
LINE
8
1
10
47.382
20
59.843
11
46.887
21
61.132
62
0
0
LINE
8
1
10
46.887
20
61.132
11
46.771
21
61.33
62
0
0
LINE
8
1
10
46.771
20
61.33
11
46.635
21
61.512
62
0
0
LINE
8
1
10
46.635
20
61.512
11
46.478
21
61.679
62
0
0
LINE
8
1
10
46.478
20
61.679
11
46.103
21
61.999
62
0
0
LINE
8
1
10
46.103
20
61.999
11
45.928
21
62.196
62
0
0
LINE
8
1
10
45.928
20
62.196
11
45.781
21
62.414
62
0
0
LINE
8
1
10
45.781
20
62.414
11
45.664
21
62.648
62
0
0
LINE
8
1
10
45.664
20
62.648
11
45.578
21
62.896
62
0
0
LINE
8
1
10
45.578
20
62.896
11
45.579
21
62.896
62
0
0
LINE
8
1
10
45.579
20
62.896
11
45.526
21
63.155
62
0
0
LINE
8
1
10
45.526
20
63.155
11
45.509
21
63.456
62
0
0
LINE
8
1
10
45.509
20
63.456
11
45.523
21
63.684
62
0
0
LINE
8
1
10
45.523
20
63.684
11
45.566
21
63.919
62
0
0
LINE
8
1
10
45.566
20
63.919
11
45.637
21
64.148
62
0
0
LINE
8
1
10
45.637
20
64.148
11
45.734
21
64.366
62
0
0
LINE
8
1
10
45.734
20
64.366
11
45.856
21
64.57
62
0
0
LINE
8
1
10
45.856
20
64.57
11
46.003
21
64.759
62
0
0
LINE
8
1
10
46.003
20
64.759
11
46.401
21
65.173
62
0
0
LINE
8
1
10
46.401
20
65.173
11
46.525
21
65.345
62
0
0
LINE
8
1
10
46.525
20
65.345
11
46.629
21
65.529
62
0
0
LINE
8
1
10
46.629
20
65.529
11
47.417
21
67.622
62
0
0
LINE
8
1
10
47.417
20
67.622
11
47.419
21
67.626
62
0
0
LINE
8
1
10
47.419
20
67.626
11
47.452
21
67.741
62
0
0
LINE
8
1
10
47.452
20
67.741
11
47.452
21
67.746
62
0
0
LINE
8
1
10
47.452
20
67.746
11
47.494
21
67.976
62
0
0
LINE
8
1
10
47.494
20
67.976
11
47.508
21
68.213
62
0
0
LINE
8
1
10
47.508
20
68.213
11
47.509
21
68.217
62
0
0
LINE
8
1
10
47.509
20
68.217
11
47.434
21
85.169
62
0
0
LINE
8
1
10
47.434
20
85.169
11
47.21
21
86.464
62
0
0
LINE
8
1
10
47.21
20
86.464
11
46.84
21
87.725
62
0
0
LINE
8
1
10
46.84
20
87.725
11
46.328
21
88.935
62
0
0
LINE
8
1
10
46.328
20
88.935
11
45.682
21
90.08
62
0
0
LINE
8
1
10
45.682
20
90.08
11
44.91
21
91.143
62
0
0
LINE
8
1
10
44.91
20
91.143
11
44.021
21
92.111
62
0
0
LINE
8
1
10
44.021
20
92.111
11
43.027
21
92.972
62
0
0
LINE
8
1
10
43.027
20
92.972
11
41.943
21
93.713
62
0
0
LINE
8
1
10
41.943
20
93.713
11
40.78
21
94.327
62
0
0
LINE
8
1
10
40.78
20
94.327
11
39.556
21
94.803
62
0
0
LINE
8
1
10
39.556
20
94.803
11
38.285
21
95.138
62
0
0
LINE
8
1
10
38.285
20
95.138
11
36.984
21
95.325
62
0
0
LINE
8
1
10
36.984
20
95.325
11
35.671
21
95.362
62
0
0
LINE
8
1
10
35.671
20
95.362
11
34.361
21
95.25
62
0
0
LINE
8
1
10
34.361
20
95.25
11
33.073
21
94.989
62
0
0
LINE
8
1
10
33.073
20
94.989
11
31.824
21
94.583
62
0
0
LINE
8
1
10
31.824
20
94.583
11
30.628
21
94.037
62
0
0
LINE
8
1
10
30.628
20
94.037
11
29.503
21
93.358
62
0
0
LINE
8
1
10
29.503
20
93.358
11
28.462
21
92.556
62
0
0
LINE
8
1
10
28.462
20
92.556
11
27.519
21
91.64
62
0
0
LINE
8
1
10
27.519
20
91.64
11
26.687
21
90.623
62
0
0
LINE
8
1
10
26.687
20
90.623
11
25.976
21
89.517
62
0
0
LINE
8
1
10
25.976
20
89.517
11
25.397
21
88.338
62
0
0
LINE
8
1
10
25.397
20
88.338
11
24.955
21
87.1
62
0
0
LINE
8
1
10
24.955
20
87.1
11
24.657
21
85.82
62
0
0
LINE
8
1
10
24.657
20
85.82
11
24.508
21
84.515
62
0
0
LINE
8
1
10
24.508
20
84.515
11
24.492
21
68.101
62
0
0
LINE
8
1
10
24.492
20
68.101
11
24.493
21
68.095
62
0
0
LINE
8
1
10
24.493
20
68.095
11
24.504
21
67.976
62
0
0
LINE
8
1
10
24.504
20
67.976
11
24.522
21
67.856
62
0
0
LINE
8
1
10
24.522
20
67.856
11
24.522
21
67.853
62
0
0
LINE
8
1
10
24.522
20
67.853
11
24.546
21
67.74
62
0
0
LINE
8
1
10
24.546
20
67.74
11
24.614
21
67.519
62
0
0
LINE
8
1
10
24.614
20
67.519
11
24.616
21
67.515
62
0
0
LINE
8
1
10
24.616
20
67.515
11
25.02
21
66.434
62
0
0
LINE
8
1
10
25.02
20
66.434
11
25.226
21
66.028
62
0
0
LINE
8
1
10
25.226
20
66.028
11
25.363
21
65.845
62
0
0
LINE
8
1
10
25.363
20
65.845
11
25.52
21
65.679
62
0
0
LINE
8
1
10
25.52
20
65.679
11
25.895
21
65.358
62
0
0
LINE
8
1
10
25.895
20
65.358
11
26.07
21
65.162
62
0
0
LINE
8
1
10
26.07
20
65.162
11
26.217
21
64.944
62
0
0
LINE
8
1
10
26.217
20
64.944
11
26.334
21
64.71
62
0
0
LINE
8
1
10
26.334
20
64.71
11
26.42
21
64.461
62
0
0
LINE
8
1
10
26.42
20
64.461
11
26.419
21
64.461
62
0
0
LINE
8
1
10
26.419
20
64.461
11
26.472
21
64.202
62
0
0
LINE
8
1
10
26.472
20
64.202
11
26.489
21
63.902
62
0
0
LINE
8
1
10
26.489
20
63.902
11
26.475
21
63.672
62
0
0
LINE
8
1
10
26.475
20
63.672
11
26.432
21
63.437
62
0
0
LINE
8
1
10
26.432
20
63.437
11
26.361
21
63.209
62
0
0
LINE
8
1
10
26.361
20
63.209
11
26.264
21
62.992
62
0
0
LINE
8
1
10
26.264
20
62.992
11
26.141
21
62.786
62
0
0
LINE
8
1
10
26.141
20
62.786
11
25.994
21
62.598
62
0
0
LINE
8
1
10
25.994
20
62.598
11
25.597
21
62.185
62
0
0
LINE
8
1
10
25.597
20
62.185
11
25.473
21
62.013
62
0
0
LINE
8
1
10
25.473
20
62.013
11
25.369
21
61.828
62
0
0
LINE
8
1
10
25.369
20
61.828
11
24.581
21
59.736
62
0
0
LINE
8
1
10
24.581
20
59.736
11
24.579
21
59.732
62
0
0
LINE
8
1
10
24.579
20
59.732
11
24.546
21
59.617
62
0
0
LINE
8
1
10
24.546
20
59.617
11
24.546
21
59.612
62
0
0
LINE
8
1
10
24.546
20
59.612
11
24.504
21
59.382
62
0
0
LINE
8
1
10
24.504
20
59.382
11
24.49
21
59.144
62
0
0
LINE
8
1
10
24.49
20
59.144
11
24.489
21
59.14
62
0
0
LINE
8
1
10
24.489
20
59.14
11
24.492
21
37.745
62
0
0
LINE
8
1
10
24.492
20
37.745
11
24.493
21
37.739
62
0
0
LINE
8
1
10
24.493
20
37.739
11
24.504
21
37.619
62
0
0
LINE
8
1
10
24.504
20
37.619
11
24.522
21
37.499
62
0
0
LINE
8
1
10
24.522
20
37.499
11
24.522
21
37.496
62
0
0
LINE
8
1
10
24.522
20
37.496
11
24.546
21
37.383
62
0
0
LINE
8
1
10
24.546
20
37.383
11
24.614
21
37.162
62
0
0
LINE
8
1
10
24.614
20
37.162
11
24.616
21
37.158
62
0
0
LINE
8
1
10
24.616
20
37.158
11
25.369
21
35.173
62
0
0
LINE
8
1
10
25.369
20
35.173
11
25.473
21
34.988
62
0
0
LINE
8
1
10
25.473
20
34.988
11
25.597
21
34.816
62
0
0
LINE
8
1
10
25.597
20
34.816
11
25.995
21
34.402
62
0
0
LINE
8
1
10
25.995
20
34.402
11
26.142
21
34.214
62
0
0
LINE
8
1
10
26.142
20
34.214
11
26.264
21
34.009
62
0
0
LINE
8
1
10
26.264
20
34.009
11
26.361
21
33.792
62
0
0
LINE
8
1
10
26.361
20
33.792
11
26.432
21
33.563
62
0
0
LINE
8
1
10
26.432
20
33.563
11
26.475
21
33.328
62
0
0
LINE
8
1
10
26.475
20
33.328
11
26.473
21
32.806
62
0
0
LINE
8
1
10
26.473
20
32.806
11
26.421
21
32.548
62
0
0
LINE
8
1
10
26.421
20
32.548
11
26.419
21
32.54
62
0
0
LINE
8
1
10
26.419
20
32.54
11
26.42
21
32.54
62
0
0
LINE
8
1
10
26.42
20
32.54
11
26.334
21
32.291
62
0
0
LINE
8
1
10
26.334
20
32.291
11
26.216
21
32.055
62
0
0
LINE
8
1
10
26.216
20
32.055
11
26.069
21
31.838
62
0
0
LINE
8
1
10
26.069
20
31.838
11
25.894
21
31.642
62
0
0
LINE
8
1
10
25.894
20
31.642
11
25.894
21
31.643
62
0
0
LINE
8
1
10
25.894
20
31.643
11
25.52
21
31.322
62
0
0
LINE
8
1
10
25.52
20
31.322
11
25.363
21
31.156
62
0
0
LINE
8
1
10
25.363
20
31.156
11
25.227
21
30.974
62
0
0
LINE
8
1
10
25.227
20
30.974
11
25.108
21
30.77
62
0
0
LINE
8
1
10
25.108
20
30.77
11
24.489
21
29.146
62
0
0
LINE
8
1
10
24.489
20
29.146
11
24.564
21
11.832
62
0
0
LINE
8
1
10
24.564
20
11.832
11
24.788
21
10.537
62
0
0
LINE
8
1
10
24.788
20
10.537
11
25.158
21
9.276
62
0
0
LINE
8
1
10
25.158
20
9.276
11
25.67
21
8.066
62
0
0
LINE
8
1
10
25.67
20
8.066
11
26.316
21
6.921
62
0
0
LINE
8
1
10
26.316
20
6.921
11
27.088
21
5.858
62
0
0
LINE
8
1
10
27.088
20
5.858
11
27.977
21
4.89
62
0
0
LINE
8
1
10
27.977
20
4.89
11
28.971
21
4.029
62
0
0
LINE
8
1
10
28.971
20
4.029
11
30.055
21
3.288
62
0
0
LINE
8
1
10
30.055
20
3.288
11
31.218
21
2.674
62
0
0
LINE
8
1
10
31.218
20
2.674
11
32.442
21
2.198
62
0
0
LINE
8
1
10
32.442
20
2.198
11
33.713
21
1.863
62
0
0
LINE
8
1
10
33.713
20
1.863
11
35.014
21
1.676
62
0
0
LINE
8
1
10
35.014
20
1.676
11
36.327
21
1.639
62
0
0
LINE
8
1
10
36.327
20
1.639
11
37.637
21
1.751
62
0
0
CIRCLE
8
1
10
35.999
20
89.857
40
2.0149
62
0
0
CIRCLE
8
1
10
-18
20
89.254
40
2.0147
62
0
0
CIRCLE
8
1
10
-12
20
89.254
40
2.0147
62
0
0
CIRCLE
8
1
10
-6
20
89.254
40
2.0147
62
0
0
CIRCLE
8
1
10
5.998
20
89.254
40
2.0147
62
0
0
CIRCLE
8
1
10
11.998
20
89.254
40
2.0147
62
0
0
CIRCLE
8
1
10
17.998
20
89.254
40
2.0147
62
0
0
LINE
8
1
10
-46.565
20
82.164
11
-46.565
21
89.244
62
0
0
LINE
8
1
10
-46.565
20
89.244
11
-43.435
21
89.244
62
0
0
LINE
8
1
10
-43.435
20
89.244
11
-43.435
21
82.164
62
0
0
LINE
8
1
10
-43.435
20
82.164
11
-46.565
21
82.164
62
0
0
LINE
8
1
10
-138.99
20
55.49
11
-133.986
21
55.49
62
0
0
LINE
8
1
10
-133.986
20
55.49
11
-135.413
21
60.659
62
0
0
LINE
8
1
10
-135.413
20
60.659
11
-136.194
21
65.346
62
0
0
LINE
8
1
10
-136.194
20
65.346
11
-136.487
21
70.032
62
0
0
LINE
8
1
10
-136.487
20
70.032
11
-136.292
21
74.719
62
0
0
LINE
8
1
10
-136.292
20
74.719
11
-135.615
21
79.372
62
0
0
LINE
8
1
10
-135.615
20
79.372
11
-134.154
21
84.997
62
0
0
LINE
8
1
10
-134.154
20
84.997
11
-134.155
21
84.997
62
0
0
LINE
8
1
10
-134.155
20
84.997
11
-134.003
21
85.462
62
0
0
LINE
8
1
10
-134.003
20
85.462
11
-134.001
21
85.464
62
0
0
LINE
8
1
10
-134.001
20
85.464
11
-133.986
21
85.51
62
0
0
LINE
8
1
10
-133.986
20
85.51
11
-138.99
21
85.51
62
0
0
LINE
8
1
10
-138.99
20
85.51
11
-138.99
21
88.51
62
0
0
LINE
8
1
10
-138.99
20
88.51
11
-146.01
21
88.51
62
0
0
LINE
8
1
10
-146.01
20
88.51
11
-146.01
21
85.51
62
0
0
LINE
8
1
10
-146.01
20
85.51
11
-148.01
21
85.51
62
0
0
LINE
8
1
10
-148.01
20
85.51
11
-148.01
21
55.49
62
0
0
LINE
8
1
10
-148.01
20
55.49
11
-146.01
21
55.49
62
0
0
LINE
8
1
10
-146.01
20
55.49
11
-146.01
21
52.49
62
0
0
LINE
8
1
10
-146.01
20
52.49
11
-138.99
21
52.49
62
0
0
LINE
8
1
10
-138.99
20
52.49
11
-138.99
21
55.49
62
0
0
CIRCLE
8
1
10
-100.999
20
86.499
40
1.59007
62
0
0
CIRCLE
8
1
10
29.999
20
83.857
40
2.01491
62
0
0
CIRCLE
8
1
10
35.999
20
83.857
40
2.0149
62
0
0
CIRCLE
8
1
10
41.999
20
83.857
40
2.01489
62
0
0
CIRCLE
8
1
10
-12
20
83.254
40
2.0147
62
0
0
CIRCLE
8
1
10
11.998
20
83.254
40
2.0147
62
0
0
CIRCLE
8
1
10
99.999
20
79.499
40
2.01487
62
0
0
CIRCLE
8
1
10
105.999
20
79.499
40
2.01487
62
0
0
CIRCLE
8
1
10
111.999
20
79.499
40
2.01487
62
0
0
CIRCLE
8
1
10
59.998
20
79.143
40
2.01483
62
0
0
CIRCLE
8
1
10
35.999
20
77.857
40
2.0149
62
0
0
LINE
8
1
10
-57.49
20
9.819
11
-57.49
21
39.827
62
0
0
LINE
8
1
10
-57.49
20
39.827
11
-79.99
21
62.327
62
0
0
LINE
8
1
10
-79.99
20
62.327
11
-79.99
21
64.332
62
0
0
LINE
8
1
10
-79.99
20
64.332
11
-80.99
21
64.332
62
0
0
LINE
8
1
10
-80.99
20
64.332
11
-81.008
21
64.853
62
0
0
LINE
8
1
10
-81.008
20
64.853
11
-81.061
21
65.116
62
0
0
LINE
8
1
10
-81.061
20
65.116
11
-81.149
21
65.369
62
0
0
LINE
8
1
10
-81.149
20
65.369
11
-81.268
21
65.608
62
0
0
LINE
8
1
10
-81.268
20
65.608
11
-81.42
21
65.828
62
0
0
LINE
8
1
10
-81.42
20
65.828
11
-81.619
21
66.046
62
0
0
LINE
8
1
10
-81.619
20
66.046
11
-81.847
21
66.233
62
0
0
LINE
8
1
10
-81.847
20
66.233
11
-82.687
21
66.705
62
0
0
LINE
8
1
10
-82.687
20
66.705
11
-82.926
21
66.908
62
0
0
LINE
8
1
10
-82.926
20
66.908
11
-83.133
21
67.147
62
0
0
LINE
8
1
10
-83.133
20
67.147
11
-83.298
21
67.414
62
0
0
LINE
8
1
10
-83.298
20
67.414
11
-83.419
21
67.702
62
0
0
LINE
8
1
10
-83.419
20
67.702
11
-83.493
21
68.009
62
0
0
LINE
8
1
10
-83.493
20
68.009
11
-83.518
21
68.323
62
0
0
LINE
8
1
10
-83.518
20
68.323
11
-83.493
21
68.636
62
0
0
LINE
8
1
10
-83.493
20
68.636
11
-83.419
21
68.943
62
0
0
LINE
8
1
10
-83.419
20
68.943
11
-83.298
21
69.231
62
0
0
LINE
8
1
10
-83.298
20
69.231
11
-83.133
21
69.498
62
0
0
LINE
8
1
10
-83.133
20
69.498
11
-82.926
21
69.737
62
0
0
LINE
8
1
10
-82.926
20
69.737
11
-82.688
21
69.939
62
0
0
LINE
8
1
10
-82.688
20
69.939
11
-81.829
21
70.425
62
0
0
LINE
8
1
10
-81.829
20
70.425
11
-81.586
21
70.63
62
0
0
LINE
8
1
10
-81.586
20
70.63
11
-81.379
21
70.871
62
0
0
LINE
8
1
10
-81.379
20
70.871
11
-81.208
21
71.15
62
0
0
LINE
8
1
10
-81.208
20
71.15
11
-81.089
21
71.433
62
0
0
LINE
8
1
10
-81.089
20
71.433
11
-81.015
21
71.742
62
0
0
LINE
8
1
10
-81.015
20
71.742
11
-80.989
21
79.189
62
0
0
LINE
8
1
10
-80.989
20
79.189
11
-124.01
21
79.189
62
0
0
LINE
8
1
10
-124.01
20
79.189
11
-123.985
21
71.743
62
0
0
LINE
8
1
10
-123.985
20
71.743
11
-123.911
21
71.433
62
0
0
LINE
8
1
10
-123.911
20
71.433
11
-123.783
21
71.131
62
0
0
LINE
8
1
10
-123.783
20
71.131
11
-123.615
21
70.862
62
0
0
LINE
8
1
10
-123.615
20
70.862
11
-123.414
21
70.63
62
0
0
LINE
8
1
10
-123.414
20
70.63
11
-123.171
21
70.425
62
0
0
LINE
8
1
10
-123.171
20
70.425
11
-122.909
21
70.267
62
0
0
LINE
8
1
10
-122.909
20
70.267
11
-122.312
21
69.939
62
0
0
LINE
8
1
10
-122.312
20
69.939
11
-122.074
21
69.737
62
0
0
LINE
8
1
10
-122.074
20
69.737
11
-121.867
21
69.498
62
0
0
LINE
8
1
10
-121.867
20
69.498
11
-121.702
21
69.231
62
0
0
LINE
8
1
10
-121.702
20
69.231
11
-121.581
21
68.943
62
0
0
LINE
8
1
10
-121.581
20
68.943
11
-121.507
21
68.636
62
0
0
LINE
8
1
10
-121.507
20
68.636
11
-121.482
21
68.321
62
0
0
LINE
8
1
10
-121.482
20
68.321
11
-121.507
21
68.008
62
0
0
LINE
8
1
10
-121.507
20
68.008
11
-121.581
21
67.702
62
0
0
LINE
8
1
10
-121.581
20
67.702
11
-121.702
21
67.414
62
0
0
LINE
8
1
10
-121.702
20
67.414
11
-121.867
21
67.147
62
0
0
LINE
8
1
10
-121.867
20
67.147
11
-122.074
21
66.908
62
0
0
LINE
8
1
10
-122.074
20
66.908
11
-122.312
21
66.706
62
0
0
LINE
8
1
10
-122.312
20
66.706
11
-123.153
21
66.233
62
0
0
LINE
8
1
10
-123.153
20
66.233
11
-123.381
21
66.046
62
0
0
LINE
8
1
10
-123.381
20
66.046
11
-123.58
21
65.828
62
0
0
LINE
8
1
10
-123.58
20
65.828
11
-123.732
21
65.608
62
0
0
LINE
8
1
10
-123.732
20
65.608
11
-123.851
21
65.369
62
0
0
LINE
8
1
10
-123.851
20
65.369
11
-123.939
21
65.116
62
0
0
LINE
8
1
10
-123.939
20
65.116
11
-123.992
21
64.853
62
0
0
LINE
8
1
10
-123.992
20
64.853
11
-124.01
21
64.332
62
0
0
LINE
8
1
10
-124.01
20
64.332
11
-125.01
21
64.332
62
0
0
LINE
8
1
10
-125.01
20
64.332
11
-125.01
21
62.326
62
0
0
LINE
8
1
10
-125.01
20
62.326
11
-147.51
21
39.826
62
0
0
LINE
8
1
10
-147.51
20
39.826
11
-147.51
21
9.818
62
0
0
LINE
8
1
10
-147.51
20
9.818
11
-117.504
21
-20.187
62
0
0
LINE
8
1
10
-117.504
20
-20.187
11
-87.496
21
-20.187
62
0
0
LINE
8
1
10
-87.496
20
-20.187
11
-57.49
21
9.819
62
0
0
CIRCLE
8
1
10
-45
20
76.705
40
2.03982
62
0
0
CIRCLE
8
1
10
83.998
20
76.143
40
2.01483
62
0
0
CIRCLE
8
1
10
-84.001
20
76.179
40
1.59012
62
0
0
CIRCLE
8
1
10
-121.001
20
76.179
40
1.59012
62
0
0
CIRCLE
8
1
10
65.998
20
73.143
40
2.01482
62
0
0
CIRCLE
8
1
10
59.998
20
73.143
40
2.01483
62
0
0
CIRCLE
8
1
10
53.998
20
73.143
40
2.01484
62
0
0
CIRCLE
8
1
10
89.998
20
70.143
40
2.01482
62
0
0
CIRCLE
8
1
10
83.998
20
70.143
40
2.01483
62
0
0
CIRCLE
8
1
10
77.998
20
70.143
40
2.01484
62
0
0
LINE
8
1
10
-46.565
20
64.164
11
-46.565
21
71.244
62
0
0
LINE
8
1
10
-46.565
20
71.244
11
-43.435
21
71.244
62
0
0
LINE
8
1
10
-43.435
20
71.244
11
-43.435
21
64.164
62
0
0
LINE
8
1
10
-43.435
20
64.164
11
-46.565
21
64.164
62
0
0
CIRCLE
8
1
10
59.998
20
67.143
40
2.01483
62
0
0
CIRCLE
8
1
10
83.998
20
64.143
40
2.01483
62
0
0
CIRCLE
8
1
10
-91
20
59.823
40
2.2398
62
0
0
CIRCLE
8
1
10
-113.999
20
59.822
40
2.2398
62
0
0
LINE
8
1
10
61.637
20
-33.248
11
62.925
21
-32.987
62
0
0
LINE
8
1
10
62.925
20
-32.987
11
64.174
21
-32.581
62
0
0
LINE
8
1
10
64.174
20
-32.581
11
65.37
21
-32.035
62
0
0
LINE
8
1
10
65.37
20
-32.035
11
66.495
21
-31.356
62
0
0
LINE
8
1
10
66.495
20
-31.356
11
67.536
21
-30.554
62
0
0
LINE
8
1
10
67.536
20
-30.554
11
68.479
21
-29.638
62
0
0
LINE
8
1
10
68.479
20
-29.638
11
69.311
21
-28.621
62
0
0
LINE
8
1
10
69.311
20
-28.621
11
70.022
21
-27.515
62
0
0
LINE
8
1
10
70.022
20
-27.515
11
70.601
21
-26.336
62
0
0
LINE
8
1
10
70.601
20
-26.336
11
71.043
21
-25.098
62
0
0
LINE
8
1
10
71.043
20
-25.098
11
71.341
21
-23.818
62
0
0
LINE
8
1
10
71.341
20
-23.818
11
71.49
21
-22.513
62
0
0
LINE
8
1
10
71.49
20
-22.513
11
71.509
21
-5.853
62
0
0
LINE
8
1
10
71.509
20
-5.853
11
70.629
21
-3.527
62
0
0
LINE
8
1
10
70.629
20
-3.527
11
70.525
21
-3.343
62
0
0
LINE
8
1
10
70.525
20
-3.343
11
70.401
21
-3.171
62
0
0
LINE
8
1
10
70.401
20
-3.171
11
70.003
21
-2.757
62
0
0
LINE
8
1
10
70.003
20
-2.757
11
69.856
21
-2.568
62
0
0
LINE
8
1
10
69.856
20
-2.568
11
69.734
21
-2.364
62
0
0
LINE
8
1
10
69.734
20
-2.364
11
69.637
21
-2.146
62
0
0
LINE
8
1
10
69.637
20
-2.146
11
69.566
21
-1.917
62
0
0
LINE
8
1
10
69.566
20
-1.917
11
69.523
21
-1.682
62
0
0
LINE
8
1
10
69.523
20
-1.682
11
69.525
21
-1.16
62
0
0
LINE
8
1
10
69.525
20
-1.16
11
69.577
21
-0.903
62
0
0
LINE
8
1
10
69.577
20
-0.903
11
69.579
21
-0.894
62
0
0
LINE
8
1
10
69.579
20
-0.894
11
69.578
21
-0.894
62
0
0
LINE
8
1
10
69.578
20
-0.894
11
69.664
21
-0.646
62
0
0
LINE
8
1
10
69.664
20
-0.646
11
69.781
21
-0.412
62
0
0
LINE
8
1
10
69.781
20
-0.412
11
69.928
21
-0.194
62
0
0
LINE
8
1
10
69.928
20
-0.194
11
70.104
21
0.003
62
0
0
LINE
8
1
10
70.104
20
0.003
11
70.104
21
0.002
62
0
0
LINE
8
1
10
70.104
20
0.002
11
70.478
21
0.322
62
0
0
LINE
8
1
10
70.478
20
0.322
11
70.635
21
0.489
62
0
0
LINE
8
1
10
70.635
20
0.489
11
70.771
21
0.671
62
0
0
LINE
8
1
10
70.771
20
0.671
11
70.887
21
0.868
62
0
0
LINE
8
1
10
70.887
20
0.868
11
71.42
21
2.273
62
0
0
LINE
8
1
10
71.42
20
2.273
11
71.452
21
2.385
62
0
0
LINE
8
1
10
71.452
20
2.385
11
71.452
21
2.389
62
0
0
LINE
8
1
10
71.452
20
2.389
11
71.494
21
2.619
62
0
0
LINE
8
1
10
71.494
20
2.619
11
71.508
21
2.857
62
0
0
LINE
8
1
10
71.508
20
2.857
11
71.509
21
2.861
62
0
0
LINE
8
1
10
71.509
20
2.861
11
71.506
21
24.256
62
0
0
LINE
8
1
10
71.506
20
24.256
11
71.505
21
24.262
62
0
0
LINE
8
1
10
71.505
20
24.262
11
71.494
21
24.382
62
0
0
LINE
8
1
10
71.494
20
24.382
11
71.476
21
24.502
62
0
0
LINE
8
1
10
71.476
20
24.502
11
71.476
21
24.505
62
0
0
LINE
8
1
10
71.476
20
24.505
11
71.452
21
24.618
62
0
0
LINE
8
1
10
71.452
20
24.618
11
71.384
21
24.839
62
0
0
LINE
8
1
10
71.384
20
24.839
11
71.382
21
24.843
62
0
0
LINE
8
1
10
71.382
20
24.843
11
70.887
21
26.132
62
0
0
LINE
8
1
10
70.887
20
26.132
11
70.771
21
26.33
62
0
0
LINE
8
1
10
70.771
20
26.33
11
70.635
21
26.512
62
0
0
LINE
8
1
10
70.635
20
26.512
11
70.478
21
26.679
62
0
0
LINE
8
1
10
70.478
20
26.679
11
70.103
21
26.999
62
0
0
LINE
8
1
10
70.103
20
26.999
11
69.928
21
27.196
62
0
0
LINE
8
1
10
69.928
20
27.196
11
69.781
21
27.414
62
0
0
LINE
8
1
10
69.781
20
27.414
11
69.664
21
27.648
62
0
0
LINE
8
1
10
69.664
20
27.648
11
69.578
21
27.896
62
0
0
LINE
8
1
10
69.578
20
27.896
11
69.579
21
27.896
62
0
0
LINE
8
1
10
69.579
20
27.896
11
69.526
21
28.155
62
0
0
LINE
8
1
10
69.526
20
28.155
11
69.509
21
28.456
62
0
0
LINE
8
1
10
69.509
20
28.456
11
69.523
21
28.684
62
0
0
LINE
8
1
10
69.523
20
28.684
11
69.566
21
28.919
62
0
0
LINE
8
1
10
69.566
20
28.919
11
69.637
21
29.148
62
0
0
LINE
8
1
10
69.637
20
29.148
11
69.734
21
29.366
62
0
0
LINE
8
1
10
69.734
20
29.366
11
69.856
21
29.57
62
0
0
LINE
8
1
10
69.856
20
29.57
11
70.003
21
29.759
62
0
0
LINE
8
1
10
70.003
20
29.759
11
70.401
21
30.173
62
0
0
LINE
8
1
10
70.401
20
30.173
11
70.525
21
30.345
62
0
0
LINE
8
1
10
70.525
20
30.345
11
70.629
21
30.529
62
0
0
LINE
8
1
10
70.629
20
30.529
11
71.417
21
32.622
62
0
0
LINE
8
1
10
71.417
20
32.622
11
71.419
21
32.626
62
0
0
LINE
8
1
10
71.419
20
32.626
11
71.452
21
32.741
62
0
0
LINE
8
1
10
71.452
20
32.741
11
71.452
21
32.746
62
0
0
LINE
8
1
10
71.452
20
32.746
11
71.494
21
32.976
62
0
0
LINE
8
1
10
71.494
20
32.976
11
71.508
21
33.213
62
0
0
LINE
8
1
10
71.508
20
33.213
11
71.509
21
33.217
62
0
0
LINE
8
1
10
71.509
20
33.217
11
71.434
21
50.169
62
0
0
LINE
8
1
10
71.434
20
50.169
11
71.21
21
51.464
62
0
0
LINE
8
1
10
71.21
20
51.464
11
70.84
21
52.725
62
0
0
LINE
8
1
10
70.84
20
52.725
11
70.328
21
53.935
62
0
0
LINE
8
1
10
70.328
20
53.935
11
69.682
21
55.08
62
0
0
LINE
8
1
10
69.682
20
55.08
11
68.91
21
56.143
62
0
0
LINE
8
1
10
68.91
20
56.143
11
68.021
21
57.111
62
0
0
LINE
8
1
10
68.021
20
57.111
11
67.027
21
57.972
62
0
0
LINE
8
1
10
67.027
20
57.972
11
65.943
21
58.713
62
0
0
LINE
8
1
10
65.943
20
58.713
11
64.78
21
59.327
62
0
0
LINE
8
1
10
64.78
20
59.327
11
63.556
21
59.803
62
0
0
LINE
8
1
10
63.556
20
59.803
11
62.285
21
60.138
62
0
0
LINE
8
1
10
62.285
20
60.138
11
60.984
21
60.325
62
0
0
LINE
8
1
10
60.984
20
60.325
11
59.671
21
60.362
62
0
0
LINE
8
1
10
59.671
20
60.362
11
58.361
21
60.25
62
0
0
LINE
8
1
10
58.361
20
60.25
11
57.073
21
59.989
62
0
0
LINE
8
1
10
57.073
20
59.989
11
55.824
21
59.583
62
0
0
LINE
8
1
10
55.824
20
59.583
11
54.628
21
59.037
62
0
0
LINE
8
1
10
54.628
20
59.037
11
53.503
21
58.358
62
0
0
LINE
8
1
10
53.503
20
58.358
11
52.462
21
57.556
62
0
0
LINE
8
1
10
52.462
20
57.556
11
51.519
21
56.64
62
0
0
LINE
8
1
10
51.519
20
56.64
11
50.687
21
55.623
62
0
0
LINE
8
1
10
50.687
20
55.623
11
49.976
21
54.517
62
0
0
LINE
8
1
10
49.976
20
54.517
11
49.397
21
53.338
62
0
0
LINE
8
1
10
49.397
20
53.338
11
48.955
21
52.1
62
0
0
LINE
8
1
10
48.955
20
52.1
11
48.657
21
50.82
62
0
0
LINE
8
1
10
48.657
20
50.82
11
48.508
21
49.515
62
0
0
LINE
8
1
10
48.508
20
49.515
11
48.492
21
33.101
62
0
0
LINE
8
1
10
48.492
20
33.101
11
48.493
21
33.095
62
0
0
LINE
8
1
10
48.493
20
33.095
11
48.504
21
32.976
62
0
0
LINE
8
1
10
48.504
20
32.976
11
48.522
21
32.856
62
0
0
LINE
8
1
10
48.522
20
32.856
11
48.522
21
32.853
62
0
0
LINE
8
1
10
48.522
20
32.853
11
48.546
21
32.74
62
0
0
LINE
8
1
10
48.546
20
32.74
11
48.614
21
32.519
62
0
0
LINE
8
1
10
48.614
20
32.519
11
48.616
21
32.515
62
0
0
LINE
8
1
10
48.616
20
32.515
11
49.02
21
31.434
62
0
0
LINE
8
1
10
49.02
20
31.434
11
49.226
21
31.028
62
0
0
LINE
8
1
10
49.226
20
31.028
11
49.363
21
30.845
62
0
0
LINE
8
1
10
49.363
20
30.845
11
49.52
21
30.679
62
0
0
LINE
8
1
10
49.52
20
30.679
11
49.895
21
30.358
62
0
0
LINE
8
1
10
49.895
20
30.358
11
50.07
21
30.162
62
0
0
LINE
8
1
10
50.07
20
30.162
11
50.217
21
29.944
62
0
0
LINE
8
1
10
50.217
20
29.944
11
50.334
21
29.71
62
0
0
LINE
8
1
10
50.334
20
29.71
11
50.42
21
29.461
62
0
0
LINE
8
1
10
50.42
20
29.461
11
50.419
21
29.461
62
0
0
LINE
8
1
10
50.419
20
29.461
11
50.472
21
29.202
62
0
0
LINE
8
1
10
50.472
20
29.202
11
50.489
21
28.902
62
0
0
LINE
8
1
10
50.489
20
28.902
11
50.475
21
28.672
62
0
0
LINE
8
1
10
50.475
20
28.672
11
50.432
21
28.437
62
0
0
LINE
8
1
10
50.432
20
28.437
11
50.361
21
28.209
62
0
0
LINE
8
1
10
50.361
20
28.209
11
50.264
21
27.992
62
0
0
LINE
8
1
10
50.264
20
27.992
11
50.141
21
27.786
62
0
0
LINE
8
1
10
50.141
20
27.786
11
49.994
21
27.598
62
0
0
LINE
8
1
10
49.994
20
27.598
11
49.597
21
27.185
62
0
0
LINE
8
1
10
49.597
20
27.185
11
49.473
21
27.013
62
0
0
LINE
8
1
10
49.473
20
27.013
11
49.369
21
26.828
62
0
0
LINE
8
1
10
49.369
20
26.828
11
48.581
21
24.736
62
0
0
LINE
8
1
10
48.581
20
24.736
11
48.579
21
24.732
62
0
0
LINE
8
1
10
48.579
20
24.732
11
48.546
21
24.617
62
0
0
LINE
8
1
10
48.546
20
24.617
11
48.546
21
24.612
62
0
0
LINE
8
1
10
48.546
20
24.612
11
48.504
21
24.382
62
0
0
LINE
8
1
10
48.504
20
24.382
11
48.49
21
24.144
62
0
0
LINE
8
1
10
48.49
20
24.144
11
48.489
21
24.14
62
0
0
LINE
8
1
10
48.489
20
24.14
11
48.492
21
2.745
62
0
0
LINE
8
1
10
48.492
20
2.745
11
48.493
21
2.739
62
0
0
LINE
8
1
10
48.493
20
2.739
11
48.504
21
2.619
62
0
0
LINE
8
1
10
48.504
20
2.619
11
48.522
21
2.499
62
0
0
LINE
8
1
10
48.522
20
2.499
11
48.522
21
2.496
62
0
0
LINE
8
1
10
48.522
20
2.496
11
48.546
21
2.383
62
0
0
LINE
8
1
10
48.546
20
2.383
11
48.614
21
2.162
62
0
0
LINE
8
1
10
48.614
20
2.162
11
48.616
21
2.158
62
0
0
LINE
8
1
10
48.616
20
2.158
11
49.369
21
0.173
62
0
0
LINE
8
1
10
49.369
20
0.173
11
49.473
21
-0.011
62
0
0
LINE
8
1
10
49.473
20
-0.011
11
49.597
21
-0.183
62
0
0
LINE
8
1
10
49.597
20
-0.183
11
49.995
21
-0.597
62
0
0
LINE
8
1
10
49.995
20
-0.597
11
50.142
21
-0.785
62
0
0
LINE
8
1
10
50.142
20
-0.785
11
50.264
21
-0.99
62
0
0
LINE
8
1
10
50.264
20
-0.99
11
50.361
21
-1.207
62
0
0
LINE
8
1
10
50.361
20
-1.207
11
50.432
21
-1.436
62
0
0
LINE
8
1
10
50.432
20
-1.436
11
50.475
21
-1.671
62
0
0
LINE
8
1
10
50.475
20
-1.671
11
50.473
21
-2.193
62
0
0
LINE
8
1
10
50.473
20
-2.193
11
50.421
21
-2.451
62
0
0
LINE
8
1
10
50.421
20
-2.451
11
50.419
21
-2.459
62
0
0
LINE
8
1
10
50.419
20
-2.459
11
50.42
21
-2.459
62
0
0
LINE
8
1
10
50.42
20
-2.459
11
50.334
21
-2.708
62
0
0
LINE
8
1
10
50.334
20
-2.708
11
50.216
21
-2.944
62
0
0
LINE
8
1
10
50.216
20
-2.944
11
50.069
21
-3.161
62
0
0
LINE
8
1
10
50.069
20
-3.161
11
49.894
21
-3.357
62
0
0
LINE
8
1
10
49.894
20
-3.357
11
49.894
21
-3.356
62
0
0
LINE
8
1
10
49.894
20
-3.356
11
49.52
21
-3.677
62
0
0
LINE
8
1
10
49.52
20
-3.677
11
49.363
21
-3.843
62
0
0
LINE
8
1
10
49.363
20
-3.843
11
49.227
21
-4.025
62
0
0
LINE
8
1
10
49.227
20
-4.025
11
49.108
21
-4.229
62
0
0
LINE
8
1
10
49.108
20
-4.229
11
48.489
21
-5.853
62
0
0
LINE
8
1
10
48.489
20
-5.853
11
48.564
21
-23.167
62
0
0
LINE
8
1
10
48.564
20
-23.167
11
48.788
21
-24.462
62
0
0
LINE
8
1
10
48.788
20
-24.462
11
49.158
21
-25.723
62
0
0
LINE
8
1
10
49.158
20
-25.723
11
49.67
21
-26.933
62
0
0
LINE
8
1
10
49.67
20
-26.933
11
50.316
21
-28.078
62
0
0
LINE
8
1
10
50.316
20
-28.078
11
51.088
21
-29.141
62
0
0
LINE
8
1
10
51.088
20
-29.141
11
51.977
21
-30.109
62
0
0
LINE
8
1
10
51.977
20
-30.109
11
52.971
21
-30.97
62
0
0
LINE
8
1
10
52.971
20
-30.97
11
54.055
21
-31.711
62
0
0
LINE
8
1
10
54.055
20
-31.711
11
55.218
21
-32.325
62
0
0
LINE
8
1
10
55.218
20
-32.325
11
56.442
21
-32.801
62
0
0
LINE
8
1
10
56.442
20
-32.801
11
57.713
21
-33.136
62
0
0
LINE
8
1
10
57.713
20
-33.136
11
59.014
21
-33.323
62
0
0
LINE
8
1
10
59.014
20
-33.323
11
60.327
21
-33.36
62
0
0
LINE
8
1
10
60.327
20
-33.36
11
61.637
21
-33.248
62
0
0
CIRCLE
8
1
10
99.999
20
55.499
40
2.01487
62
0
0
CIRCLE
8
1
10
105.999
20
55.499
40
2.01487
62
0
0
CIRCLE
8
1
10
111.999
20
55.499
40
2.01487
62
0
0
CIRCLE
8
1
10
-124.72
20
55.53
40
1.9897
62
0
0
CIRCLE
8
1
10
-80.278
20
55.529
40
1.98975
62
0
0
LINE
8
1
10
85.637
20
-36.248
11
86.925
21
-35.987
62
0
0
LINE
8
1
10
86.925
20
-35.987
11
88.174
21
-35.581
62
0
0
LINE
8
1
10
88.174
20
-35.581
11
89.37
21
-35.035
62
0
0
LINE
8
1
10
89.37
20
-35.035
11
90.495
21
-34.356
62
0
0
LINE
8
1
10
90.495
20
-34.356
11
91.536
21
-33.554
62
0
0
LINE
8
1
10
91.536
20
-33.554
11
92.479
21
-32.638
62
0
0
LINE
8
1
10
92.479
20
-32.638
11
93.311
21
-31.621
62
0
0
LINE
8
1
10
93.311
20
-31.621
11
94.022
21
-30.515
62
0
0
LINE
8
1
10
94.022
20
-30.515
11
94.601
21
-29.336
62
0
0
LINE
8
1
10
94.601
20
-29.336
11
95.043
21
-28.098
62
0
0
LINE
8
1
10
95.043
20
-28.098
11
95.341
21
-26.818
62
0
0
LINE
8
1
10
95.341
20
-26.818
11
95.49
21
-25.513
62
0
0
LINE
8
1
10
95.49
20
-25.513
11
95.509
21
-8.853
62
0
0
LINE
8
1
10
95.509
20
-8.853
11
94.629
21
-6.527
62
0
0
LINE
8
1
10
94.629
20
-6.527
11
94.525
21
-6.343
62
0
0
LINE
8
1
10
94.525
20
-6.343
11
94.401
21
-6.171
62
0
0
LINE
8
1
10
94.401
20
-6.171
11
94.003
21
-5.757
62
0
0
LINE
8
1
10
94.003
20
-5.757
11
93.856
21
-5.568
62
0
0
LINE
8
1
10
93.856
20
-5.568
11
93.734
21
-5.364
62
0
0
LINE
8
1
10
93.734
20
-5.364
11
93.637
21
-5.146
62
0
0
LINE
8
1
10
93.637
20
-5.146
11
93.566
21
-4.917
62
0
0
LINE
8
1
10
93.566
20
-4.917
11
93.523
21
-4.682
62
0
0
LINE
8
1
10
93.523
20
-4.682
11
93.525
21
-4.16
62
0
0
LINE
8
1
10
93.525
20
-4.16
11
93.577
21
-3.903
62
0
0
LINE
8
1
10
93.577
20
-3.903
11
93.579
21
-3.894
62
0
0
LINE
8
1
10
93.579
20
-3.894
11
93.578
21
-3.894
62
0
0
LINE
8
1
10
93.578
20
-3.894
11
93.664
21
-3.646
62
0
0
LINE
8
1
10
93.664
20
-3.646
11
93.781
21
-3.412
62
0
0
LINE
8
1
10
93.781
20
-3.412
11
93.928
21
-3.194
62
0
0
LINE
8
1
10
93.928
20
-3.194
11
94.104
21
-2.996
62
0
0
LINE
8
1
10
94.104
20
-2.996
11
94.104
21
-2.997
62
0
0
LINE
8
1
10
94.104
20
-2.997
11
94.478
21
-2.677
62
0
0
LINE
8
1
10
94.478
20
-2.677
11
94.635
21
-2.51
62
0
0
LINE
8
1
10
94.635
20
-2.51
11
94.771
21
-2.328
62
0
0
LINE
8
1
10
94.771
20
-2.328
11
94.887
21
-2.131
62
0
0
LINE
8
1
10
94.887
20
-2.131
11
95.42
21
-0.726
62
0
0
LINE
8
1
10
95.42
20
-0.726
11
95.452
21
-0.614
62
0
0
LINE
8
1
10
95.452
20
-0.614
11
95.452
21
-0.61
62
0
0
LINE
8
1
10
95.452
20
-0.61
11
95.494
21
-0.38
62
0
0
LINE
8
1
10
95.494
20
-0.38
11
95.508
21
-0.142
62
0
0
LINE
8
1
10
95.508
20
-0.142
11
95.509
21
-0.138
62
0
0
LINE
8
1
10
95.509
20
-0.138
11
95.506
21
21.256
62
0
0
LINE
8
1
10
95.506
20
21.256
11
95.505
21
21.262
62
0
0
LINE
8
1
10
95.505
20
21.262
11
95.494
21
21.382
62
0
0
LINE
8
1
10
95.494
20
21.382
11
95.476
21
21.502
62
0
0
LINE
8
1
10
95.476
20
21.502
11
95.476
21
21.505
62
0
0
LINE
8
1
10
95.476
20
21.505
11
95.452
21
21.618
62
0
0
LINE
8
1
10
95.452
20
21.618
11
95.384
21
21.839
62
0
0
LINE
8
1
10
95.384
20
21.839
11
95.382
21
21.843
62
0
0
LINE
8
1
10
95.382
20
21.843
11
94.887
21
23.132
62
0
0
LINE
8
1
10
94.887
20
23.132
11
94.771
21
23.33
62
0
0
LINE
8
1
10
94.771
20
23.33
11
94.635
21
23.512
62
0
0
LINE
8
1
10
94.635
20
23.512
11
94.478
21
23.679
62
0
0
LINE
8
1
10
94.478
20
23.679
11
94.103
21
23.999
62
0
0
LINE
8
1
10
94.103
20
23.999
11
93.928
21
24.196
62
0
0
LINE
8
1
10
93.928
20
24.196
11
93.781
21
24.414
62
0
0
LINE
8
1
10
93.781
20
24.414
11
93.664
21
24.648
62
0
0
LINE
8
1
10
93.664
20
24.648
11
93.578
21
24.896
62
0
0
LINE
8
1
10
93.578
20
24.896
11
93.579
21
24.896
62
0
0
LINE
8
1
10
93.579
20
24.896
11
93.526
21
25.155
62
0
0
LINE
8
1
10
93.526
20
25.155
11
93.509
21
25.456
62
0
0
LINE
8
1
10
93.509
20
25.456
11
93.523
21
25.684
62
0
0
LINE
8
1
10
93.523
20
25.684
11
93.566
21
25.919
62
0
0
LINE
8
1
10
93.566
20
25.919
11
93.637
21
26.148
62
0
0
LINE
8
1
10
93.637
20
26.148
11
93.734
21
26.366
62
0
0
LINE
8
1
10
93.734
20
26.366
11
93.856
21
26.57
62
0
0
LINE
8
1
10
93.856
20
26.57
11
94.003
21
26.759
62
0
0
LINE
8
1
10
94.003
20
26.759
11
94.401
21
27.173
62
0
0
LINE
8
1
10
94.401
20
27.173
11
94.525
21
27.345
62
0
0
LINE
8
1
10
94.525
20
27.345
11
94.629
21
27.529
62
0
0
LINE
8
1
10
94.629
20
27.529
11
95.417
21
29.622
62
0
0
LINE
8
1
10
95.417
20
29.622
11
95.419
21
29.626
62
0
0
LINE
8
1
10
95.419
20
29.626
11
95.452
21
29.741
62
0
0
LINE
8
1
10
95.452
20
29.741
11
95.452
21
29.746
62
0
0
LINE
8
1
10
95.452
20
29.746
11
95.494
21
29.976
62
0
0
LINE
8
1
10
95.494
20
29.976
11
95.508
21
30.213
62
0
0
LINE
8
1
10
95.508
20
30.213
11
95.509
21
30.217
62
0
0
LINE
8
1
10
95.509
20
30.217
11
95.434
21
47.169
62
0
0
LINE
8
1
10
95.434
20
47.169
11
95.21
21
48.464
62
0
0
LINE
8
1
10
95.21
20
48.464
11
94.84
21
49.725
62
0
0
LINE
8
1
10
94.84
20
49.725
11
94.328
21
50.935
62
0
0
LINE
8
1
10
94.328
20
50.935
11
93.682
21
52.08
62
0
0
LINE
8
1
10
93.682
20
52.08
11
92.91
21
53.143
62
0
0
LINE
8
1
10
92.91
20
53.143
11
92.021
21
54.111
62
0
0
LINE
8
1
10
92.021
20
54.111
11
91.027
21
54.972
62
0
0
LINE
8
1
10
91.027
20
54.972
11
89.943
21
55.713
62
0
0
LINE
8
1
10
89.943
20
55.713
11
88.78
21
56.327
62
0
0
LINE
8
1
10
88.78
20
56.327
11
87.556
21
56.803
62
0
0
LINE
8
1
10
87.556
20
56.803
11
86.285
21
57.138
62
0
0
LINE
8
1
10
86.285
20
57.138
11
84.984
21
57.325
62
0
0
LINE
8
1
10
84.984
20
57.325
11
83.671
21
57.362
62
0
0
LINE
8
1
10
83.671
20
57.362
11
82.361
21
57.25
62
0
0
LINE
8
1
10
82.361
20
57.25
11
81.073
21
56.989
62
0
0
LINE
8
1
10
81.073
20
56.989
11
79.824
21
56.583
62
0
0
LINE
8
1
10
79.824
20
56.583
11
78.628
21
56.037
62
0
0
LINE
8
1
10
78.628
20
56.037
11
77.503
21
55.358
62
0
0
LINE
8
1
10
77.503
20
55.358
11
76.462
21
54.556
62
0
0
LINE
8
1
10
76.462
20
54.556
11
75.519
21
53.64
62
0
0
LINE
8
1
10
75.519
20
53.64
11
74.687
21
52.623
62
0
0
LINE
8
1
10
74.687
20
52.623
11
73.976
21
51.517
62
0
0
LINE
8
1
10
73.976
20
51.517
11
73.397
21
50.338
62
0
0
LINE
8
1
10
73.397
20
50.338
11
72.955
21
49.1
62
0
0
LINE
8
1
10
72.955
20
49.1
11
72.657
21
47.82
62
0
0
LINE
8
1
10
72.657
20
47.82
11
72.508
21
46.515
62
0
0
LINE
8
1
10
72.508
20
46.515
11
72.492
21
30.101
62
0
0
LINE
8
1
10
72.492
20
30.101
11
72.493
21
30.095
62
0
0
LINE
8
1
10
72.493
20
30.095
11
72.504
21
29.976
62
0
0
LINE
8
1
10
72.504
20
29.976
11
72.522
21
29.856
62
0
0
LINE
8
1
10
72.522
20
29.856
11
72.522
21
29.853
62
0
0
LINE
8
1
10
72.522
20
29.853
11
72.546
21
29.74
62
0
0
LINE
8
1
10
72.546
20
29.74
11
72.614
21
29.519
62
0
0
LINE
8
1
10
72.614
20
29.519
11
72.616
21
29.515
62
0
0
LINE
8
1
10
72.616
20
29.515
11
73.02
21
28.434
62
0
0
LINE
8
1
10
73.02
20
28.434
11
73.226
21
28.028
62
0
0
LINE
8
1
10
73.226
20
28.028
11
73.363
21
27.845
62
0
0
LINE
8
1
10
73.363
20
27.845
11
73.52
21
27.679
62
0
0
LINE
8
1
10
73.52
20
27.679
11
73.895
21
27.358
62
0
0
LINE
8
1
10
73.895
20
27.358
11
74.07
21
27.162
62
0
0
LINE
8
1
10
74.07
20
27.162
11
74.217
21
26.944
62
0
0
LINE
8
1
10
74.217
20
26.944
11
74.334
21
26.71
62
0
0
LINE
8
1
10
74.334
20
26.71
11
74.42
21
26.461
62
0
0
LINE
8
1
10
74.42
20
26.461
11
74.419
21
26.461
62
0
0
LINE
8
1
10
74.419
20
26.461
11
74.472
21
26.202
62
0
0
LINE
8
1
10
74.472
20
26.202
11
74.489
21
25.902
62
0
0
LINE
8
1
10
74.489
20
25.902
11
74.475
21
25.672
62
0
0
LINE
8
1
10
74.475
20
25.672
11
74.432
21
25.437
62
0
0
LINE
8
1
10
74.432
20
25.437
11
74.361
21
25.209
62
0
0
LINE
8
1
10
74.361
20
25.209
11
74.264
21
24.992
62
0
0
LINE
8
1
10
74.264
20
24.992
11
74.141
21
24.786
62
0
0
LINE
8
1
10
74.141
20
24.786
11
73.994
21
24.598
62
0
0
LINE
8
1
10
73.994
20
24.598
11
73.597
21
24.185
62
0
0
LINE
8
1
10
73.597
20
24.185
11
73.473
21
24.013
62
0
0
LINE
8
1
10
73.473
20
24.013
11
73.369
21
23.828
62
0
0
LINE
8
1
10
73.369
20
23.828
11
72.581
21
21.736
62
0
0
LINE
8
1
10
72.581
20
21.736
11
72.579
21
21.732
62
0
0
LINE
8
1
10
72.579
20
21.732
11
72.546
21
21.617
62
0
0
LINE
8
1
10
72.546
20
21.617
11
72.546
21
21.612
62
0
0
LINE
8
1
10
72.546
20
21.612
11
72.504
21
21.382
62
0
0
LINE
8
1
10
72.504
20
21.382
11
72.49
21
21.144
62
0
0
LINE
8
1
10
72.49
20
21.144
11
72.489
21
21.14
62
0
0
LINE
8
1
10
72.489
20
21.14
11
72.492
21
-0.254
62
0
0
LINE
8
1
10
72.492
20
-0.254
11
72.493
21
-0.26
62
0
0
LINE
8
1
10
72.493
20
-0.26
11
72.504
21
-0.38
62
0
0
LINE
8
1
10
72.504
20
-0.38
11
72.522
21
-0.5
62
0
0
LINE
8
1
10
72.522
20
-0.5
11
72.522
21
-0.503
62
0
0
LINE
8
1
10
72.522
20
-0.503
11
72.546
21
-0.616
62
0
0
LINE
8
1
10
72.546
20
-0.616
11
72.614
21
-0.837
62
0
0
LINE
8
1
10
72.614
20
-0.837
11
72.616
21
-0.841
62
0
0
LINE
8
1
10
72.616
20
-0.841
11
73.369
21
-2.826
62
0
0
LINE
8
1
10
73.369
20
-2.826
11
73.473
21
-3.011
62
0
0
LINE
8
1
10
73.473
20
-3.011
11
73.597
21
-3.183
62
0
0
LINE
8
1
10
73.597
20
-3.183
11
73.995
21
-3.597
62
0
0
LINE
8
1
10
73.995
20
-3.597
11
74.142
21
-3.785
62
0
0
LINE
8
1
10
74.142
20
-3.785
11
74.264
21
-3.99
62
0
0
LINE
8
1
10
74.264
20
-3.99
11
74.361
21
-4.207
62
0
0
LINE
8
1
10
74.361
20
-4.207
11
74.432
21
-4.436
62
0
0
LINE
8
1
10
74.432
20
-4.436
11
74.475
21
-4.671
62
0
0
LINE
8
1
10
74.475
20
-4.671
11
74.473
21
-5.193
62
0
0
LINE
8
1
10
74.473
20
-5.193
11
74.421
21
-5.451
62
0
0
LINE
8
1
10
74.421
20
-5.451
11
74.419
21
-5.459
62
0
0
LINE
8
1
10
74.419
20
-5.459
11
74.42
21
-5.459
62
0
0
LINE
8
1
10
74.42
20
-5.459
11
74.334
21
-5.708
62
0
0
LINE
8
1
10
74.334
20
-5.708
11
74.216
21
-5.944
62
0
0
LINE
8
1
10
74.216
20
-5.944
11
74.069
21
-6.161
62
0
0
LINE
8
1
10
74.069
20
-6.161
11
73.894
21
-6.357
62
0
0
LINE
8
1
10
73.894
20
-6.357
11
73.894
21
-6.356
62
0
0
LINE
8
1
10
73.894
20
-6.356
11
73.52
21
-6.677
62
0
0
LINE
8
1
10
73.52
20
-6.677
11
73.363
21
-6.843
62
0
0
LINE
8
1
10
73.363
20
-6.843
11
73.227
21
-7.025
62
0
0
LINE
8
1
10
73.227
20
-7.025
11
73.108
21
-7.229
62
0
0
LINE
8
1
10
73.108
20
-7.229
11
72.489
21
-8.853
62
0
0
LINE
8
1
10
72.489
20
-8.853
11
72.564
21
-26.167
62
0
0
LINE
8
1
10
72.564
20
-26.167
11
72.788
21
-27.462
62
0
0
LINE
8
1
10
72.788
20
-27.462
11
73.158
21
-28.723
62
0
0
LINE
8
1
10
73.158
20
-28.723
11
73.67
21
-29.933
62
0
0
LINE
8
1
10
73.67
20
-29.933
11
74.316
21
-31.078
62
0
0
LINE
8
1
10
74.316
20
-31.078
11
75.088
21
-32.141
62
0
0
LINE
8
1
10
75.088
20
-32.141
11
75.977
21
-33.109
62
0
0
LINE
8
1
10
75.977
20
-33.109
11
76.971
21
-33.97
62
0
0
LINE
8
1
10
76.971
20
-33.97
11
78.055
21
-34.711
62
0
0
LINE
8
1
10
78.055
20
-34.711
11
79.218
21
-35.325
62
0
0
LINE
8
1
10
79.218
20
-35.325
11
80.442
21
-35.801
62
0
0
LINE
8
1
10
80.442
20
-35.801
11
81.713
21
-36.136
62
0
0
LINE
8
1
10
81.713
20
-36.136
11
83.014
21
-36.323
62
0
0
LINE
8
1
10
83.014
20
-36.323
11
84.327
21
-36.36
62
0
0
LINE
8
1
10
84.327
20
-36.36
11
85.637
21
-36.248
62
0
0
CIRCLE
8
1
10
59.999
20
54.857
40
2.0149
62
0
0
CIRCLE
8
1
10
40.998
20
53.5
40
1.49014
62
0
0
CIRCLE
8
1
10
30.998
20
53.5
40
1.49015
62
0
0
CIRCLE
8
1
10
83.999
20
51.857
40
2.0149
62
0
0
CIRCLE
8
1
10
-128.964
20
51.287
40
1.98977
62
0
0
CIRCLE
8
1
10
-76.034
20
51.287
40
1.9897
62
0
0
LINE
8
1
10
1.878
20
-73.165
11
2.317
21
-73.039
62
0
0
LINE
8
1
10
2.317
20
-73.039
11
2.714
21
-72.877
62
0
0
LINE
8
1
10
2.714
20
-72.877
11
3.115
21
-72.659
62
0
0
LINE
8
1
10
3.115
20
-72.659
11
3.478
21
-72.404
62
0
0
LINE
8
1
10
3.478
20
-72.404
11
3.81
21
-72.112
62
0
0
LINE
8
1
10
3.81
20
-72.112
11
4.1
21
-71.795
62
0
0
LINE
8
1
10
4.1
20
-71.795
11
4.361
21
-71.438
62
0
0
LINE
8
1
10
4.361
20
-71.438
11
4.582
21
-71.054
62
0
0
LINE
8
1
10
4.582
20
-71.054
11
4.89
21
-70.226
62
0
0
LINE
8
1
10
4.89
20
-70.226
11
11.924
21
-41.217
62
0
0
LINE
8
1
10
11.924
20
-41.217
11
12.486
21
-35.122
62
0
0
LINE
8
1
10
12.486
20
-35.122
11
12.324
21
-10.318
62
0
0
LINE
8
1
10
12.324
20
-10.318
11
5.008
21
53.264
62
0
0
LINE
8
1
10
5.008
20
53.264
11
-3.009
21
53.264
62
0
0
LINE
8
1
10
-3.009
20
53.264
11
-10.489
21
-13.183
62
0
0
LINE
8
1
10
-10.489
20
-13.183
11
-10.299
21
-38.177
62
0
0
LINE
8
1
10
-10.299
20
-38.177
11
-9.668
21
-42.726
62
0
0
LINE
8
1
10
-9.668
20
-42.726
11
-2.754
21
-70.661
62
0
0
LINE
8
1
10
-2.754
20
-70.661
11
-2.583
21
-71.055
62
0
0
LINE
8
1
10
-2.583
20
-71.055
11
-2.362
21
-71.438
62
0
0
LINE
8
1
10
-2.362
20
-71.438
11
-2.101
21
-71.796
62
0
0
LINE
8
1
10
-2.101
20
-71.796
11
-1.468
21
-72.413
62
0
0
LINE
8
1
10
-1.468
20
-72.413
11
-0.716
21
-72.877
62
0
0
LINE
8
1
10
-0.716
20
-72.877
11
0.119
21
-73.165
62
0
0
LINE
8
1
10
0.119
20
-73.165
11
0.557
21
-73.238
62
0
0
LINE
8
1
10
0.557
20
-73.238
11
1.441
21
-73.238
62
0
0
LINE
8
1
10
1.441
20
-73.238
11
1.878
21
-73.165
62
0
0
LINE
8
1
10
-22.121
20
-73.165
11
-21.682
21
-73.039
62
0
0
LINE
8
1
10
-21.682
20
-73.039
11
-21.285
21
-72.877
62
0
0
LINE
8
1
10
-21.285
20
-72.877
11
-20.884
21
-72.659
62
0
0
LINE
8
1
10
-20.884
20
-72.659
11
-20.521
21
-72.404
62
0
0
LINE
8
1
10
-20.521
20
-72.404
11
-20.189
21
-72.112
62
0
0
LINE
8
1
10
-20.189
20
-72.112
11
-19.899
21
-71.795
62
0
0
LINE
8
1
10
-19.899
20
-71.795
11
-19.638
21
-71.438
62
0
0
LINE
8
1
10
-19.638
20
-71.438
11
-19.417
21
-71.054
62
0
0
LINE
8
1
10
-19.417
20
-71.054
11
-19.109
21
-70.226
62
0
0
LINE
8
1
10
-19.109
20
-70.226
11
-12.075
21
-41.217
62
0
0
LINE
8
1
10
-12.075
20
-41.217
11
-11.513
21
-35.122
62
0
0
LINE
8
1
10
-11.513
20
-35.122
11
-11.675
21
-10.318
62
0
0
LINE
8
1
10
-11.675
20
-10.318
11
-18.991
21
53.264
62
0
0
LINE
8
1
10
-18.991
20
53.264
11
-27.009
21
53.264
62
0
0
LINE
8
1
10
-27.009
20
53.264
11
-34.489
21
-13.183
62
0
0
LINE
8
1
10
-34.489
20
-13.183
11
-34.299
21
-38.177
62
0
0
LINE
8
1
10
-34.299
20
-38.177
11
-33.668
21
-42.726
62
0
0
LINE
8
1
10
-33.668
20
-42.726
11
-26.754
21
-70.661
62
0
0
LINE
8
1
10
-26.754
20
-70.661
11
-26.583
21
-71.055
62
0
0
LINE
8
1
10
-26.583
20
-71.055
11
-26.362
21
-71.438
62
0
0
LINE
8
1
10
-26.362
20
-71.438
11
-26.101
21
-71.796
62
0
0
LINE
8
1
10
-26.101
20
-71.796
11
-25.468
21
-72.413
62
0
0
LINE
8
1
10
-25.468
20
-72.413
11
-24.716
21
-72.877
62
0
0
LINE
8
1
10
-24.716
20
-72.877
11
-23.88
21
-73.165
62
0
0
LINE
8
1
10
-23.88
20
-73.165
11
-23.442
21
-73.238
62
0
0
LINE
8
1
10
-23.442
20
-73.238
11
-22.558
21
-73.238
62
0
0
LINE
8
1
10
-22.558
20
-73.238
11
-22.121
21
-73.165
62
0
0
CIRCLE
8
1
10
53.999
20
48.857
40
2.01491
62
0
0
CIRCLE
8
1
10
59.999
20
48.857
40
2.0149
62
0
0
CIRCLE
8
1
10
65.999
20
48.857
40
2.01489
62
0
0
LINE
8
1
10
-0.565
20
43.164
11
-0.565
21
50.244
62
0
0
LINE
8
1
10
-0.565
20
50.244
11
2.564
21
50.244
62
0
0
LINE
8
1
10
2.564
20
50.244
11
2.564
21
43.164
62
0
0
LINE
8
1
10
2.564
20
43.164
11
-0.565
21
43.164
62
0
0
LINE
8
1
10
-24.565
20
43.164
11
-24.565
21
50.244
62
0
0
LINE
8
1
10
-24.565
20
50.244
11
-21.435
21
50.244
62
0
0
LINE
8
1
10
-21.435
20
50.244
11
-21.435
21
43.164
62
0
0
LINE
8
1
10
-21.435
20
43.164
11
-24.565
21
43.164
62
0
0
CIRCLE
8
1
10
-133.207
20
47.044
40
1.98983
62
0
0
CIRCLE
8
1
10
-71.791
20
47.044
40
1.98977
62
0
0
CIRCLE
8
1
10
77.999
20
45.857
40
2.01491
62
0
0
CIRCLE
8
1
10
83.999
20
45.857
40
2.0149
62
0
0
CIRCLE
8
1
10
89.999
20
45.857
40
2.01489
62
0
0
CIRCLE
8
1
10
40.998
20
43.5
40
1.49014
62
0
0
CIRCLE
8
1
10
30.998
20
43.5
40
1.49015
62
0
0
CIRCLE
8
1
10
59.999
20
42.857
40
2.0149
62
0
0
CIRCLE
8
1
10
83.999
20
39.857
40
2.0149
62
0
0
CIRCLE
8
1
10
99.999
20
37.499
40
2.01487
62
0
0
CIRCLE
8
1
10
105.999
20
37.499
40
2.01487
62
0
0
CIRCLE
8
1
10
111.999
20
37.499
40
2.01487
62
0
0
CIRCLE
8
1
10
-137.5
20
36.323
40
2.23975
62
0
0
CIRCLE
8
1
10
-67.499
20
36.322
40
2.2398
62
0
0
LINE
8
1
10
134.587
20
-32.451
11
134.873
21
-32.38
62
0
0
LINE
8
1
10
134.873
20
-32.38
11
135.152
21
-32.28
62
0
0
LINE
8
1
10
135.152
20
-32.28
11
135.671
21
-32.002
62
0
0
LINE
8
1
10
135.671
20
-32.002
11
135.916
21
-31.82
62
0
0
LINE
8
1
10
135.916
20
-31.82
11
136.128
21
-31.627
62
0
0
LINE
8
1
10
136.128
20
-31.627
11
136.502
21
-31.172
62
0
0
LINE
8
1
10
136.502
20
-31.172
11
136.658
21
-30.91
62
0
0
LINE
8
1
10
136.658
20
-30.91
11
136.78
21
-30.651
62
0
0
LINE
8
1
10
136.78
20
-30.651
11
136.88
21
-30.373
62
0
0
LINE
8
1
10
136.88
20
-30.373
11
136.952
21
-30.086
62
0
0
LINE
8
1
10
136.952
20
-30.086
11
136.995
21
-29.794
62
0
0
LINE
8
1
10
136.995
20
-29.794
11
136.995
21
34.795
62
0
0
LINE
8
1
10
136.995
20
34.795
11
136.952
21
35.087
62
0
0
LINE
8
1
10
136.952
20
35.087
11
136.88
21
35.374
62
0
0
LINE
8
1
10
136.88
20
35.374
11
136.78
21
35.652
62
0
0
LINE
8
1
10
136.78
20
35.652
11
136.503
21
36.172
62
0
0
LINE
8
1
10
136.503
20
36.172
11
136.321
21
36.416
62
0
0
LINE
8
1
10
136.321
20
36.416
11
136.128
21
36.628
62
0
0
LINE
8
1
10
136.128
20
36.628
11
135.672
21
37.002
62
0
0
LINE
8
1
10
135.672
20
37.002
11
135.411
21
37.159
62
0
0
LINE
8
1
10
135.411
20
37.159
11
135.152
21
37.281
62
0
0
LINE
8
1
10
135.152
20
37.281
11
134.873
21
37.381
62
0
0
LINE
8
1
10
134.873
20
37.381
11
134.587
21
37.452
62
0
0
LINE
8
1
10
134.587
20
37.452
11
134.295
21
37.496
62
0
0
LINE
8
1
10
134.295
20
37.496
11
134.289
21
37.496
62
0
0
LINE
8
1
10
134.289
20
37.496
11
134.288
21
37.497
62
0
0
LINE
8
1
10
134.288
20
37.497
11
119.705
21
37.496
62
0
0
LINE
8
1
10
119.705
20
37.496
11
119.412
21
37.452
62
0
0
LINE
8
1
10
119.412
20
37.452
11
119.126
21
37.381
62
0
0
LINE
8
1
10
119.126
20
37.381
11
118.847
21
37.281
62
0
0
LINE
8
1
10
118.847
20
37.281
11
118.328
21
37.003
62
0
0
LINE
8
1
10
118.328
20
37.003
11
118.083
21
36.821
62
0
0
LINE
8
1
10
118.083
20
36.821
11
117.871
21
36.628
62
0
0
LINE
8
1
10
117.871
20
36.628
11
117.497
21
36.173
62
0
0
LINE
8
1
10
117.497
20
36.173
11
117.341
21
35.911
62
0
0
LINE
8
1
10
117.341
20
35.911
11
117.219
21
35.652
62
0
0
LINE
8
1
10
117.219
20
35.652
11
117.119
21
35.374
62
0
0
LINE
8
1
10
117.119
20
35.374
11
117.047
21
35.087
62
0
0
LINE
8
1
10
117.047
20
35.087
11
117.004
21
34.795
62
0
0
LINE
8
1
10
117.004
20
34.795
11
117.004
21
-29.794
62
0
0
LINE
8
1
10
117.004
20
-29.794
11
117.047
21
-30.086
62
0
0
LINE
8
1
10
117.047
20
-30.086
11
117.119
21
-30.373
62
0
0
LINE
8
1
10
117.119
20
-30.373
11
117.219
21
-30.651
62
0
0
LINE
8
1
10
117.219
20
-30.651
11
117.496
21
-31.171
62
0
0
LINE
8
1
10
117.496
20
-31.171
11
117.678
21
-31.415
62
0
0
LINE
8
1
10
117.678
20
-31.415
11
117.871
21
-31.627
62
0
0
LINE
8
1
10
117.871
20
-31.627
11
118.327
21
-32.001
62
0
0
LINE
8
1
10
118.327
20
-32.001
11
118.588
21
-32.158
62
0
0
LINE
8
1
10
118.588
20
-32.158
11
118.847
21
-32.28
62
0
0
LINE
8
1
10
118.847
20
-32.28
11
119.126
21
-32.38
62
0
0
LINE
8
1
10
119.126
20
-32.38
11
119.412
21
-32.451
62
0
0
LINE
8
1
10
119.412
20
-32.451
11
119.704
21
-32.495
62
0
0
LINE
8
1
10
119.704
20
-32.495
11
134.295
21
-32.495
62
0
0
LINE
8
1
10
134.295
20
-32.495
11
134.587
21
-32.451
62
0
0
LINE
8
1
10
-0.565
20
29.164
11
-0.565
21
36.244
62
0
0
LINE
8
1
10
-0.565
20
36.244
11
2.564
21
36.244
62
0
0
LINE
8
1
10
2.564
20
36.244
11
2.564
21
29.164
62
0
0
LINE
8
1
10
2.564
20
29.164
11
-0.565
21
29.164
62
0
0
LINE
8
1
10
-24.565
20
29.164
11
-24.565
21
36.244
62
0
0
LINE
8
1
10
-24.565
20
36.244
11
-21.435
21
36.244
62
0
0
LINE
8
1
10
-21.435
20
36.244
11
-21.435
21
29.164
62
0
0
LINE
8
1
10
-21.435
20
29.164
11
-24.565
21
29.164
62
0
0
CIRCLE
8
1
10
120.999
20
32.499
40
2.01483
62
0
0
CIRCLE
8
1
10
126.999
20
32.499
40
2.01483
62
0
0
CIRCLE
8
1
10
132.999
20
32.499
40
2.01483
62
0
0
LINE
8
1
10
113.587
20
-38.451
11
113.873
21
-38.38
62
0
0
LINE
8
1
10
113.873
20
-38.38
11
114.152
21
-38.28
62
0
0
LINE
8
1
10
114.152
20
-38.28
11
114.671
21
-38.002
62
0
0
LINE
8
1
10
114.671
20
-38.002
11
114.916
21
-37.82
62
0
0
LINE
8
1
10
114.916
20
-37.82
11
115.128
21
-37.627
62
0
0
LINE
8
1
10
115.128
20
-37.627
11
115.502
21
-37.172
62
0
0
LINE
8
1
10
115.502
20
-37.172
11
115.658
21
-36.91
62
0
0
LINE
8
1
10
115.658
20
-36.91
11
115.78
21
-36.651
62
0
0
LINE
8
1
10
115.78
20
-36.651
11
115.88
21
-36.373
62
0
0
LINE
8
1
10
115.88
20
-36.373
11
115.952
21
-36.086
62
0
0
LINE
8
1
10
115.952
20
-36.086
11
115.995
21
-35.794
62
0
0
LINE
8
1
10
115.995
20
-35.794
11
115.995
21
28.795
62
0
0
LINE
8
1
10
115.995
20
28.795
11
115.952
21
29.087
62
0
0
LINE
8
1
10
115.952
20
29.087
11
115.88
21
29.374
62
0
0
LINE
8
1
10
115.88
20
29.374
11
115.78
21
29.652
62
0
0
LINE
8
1
10
115.78
20
29.652
11
115.503
21
30.172
62
0
0
LINE
8
1
10
115.503
20
30.172
11
115.321
21
30.416
62
0
0
LINE
8
1
10
115.321
20
30.416
11
115.128
21
30.628
62
0
0
LINE
8
1
10
115.128
20
30.628
11
114.672
21
31.002
62
0
0
LINE
8
1
10
114.672
20
31.002
11
114.411
21
31.159
62
0
0
LINE
8
1
10
114.411
20
31.159
11
114.152
21
31.281
62
0
0
LINE
8
1
10
114.152
20
31.281
11
113.873
21
31.381
62
0
0
LINE
8
1
10
113.873
20
31.381
11
113.587
21
31.452
62
0
0
LINE
8
1
10
113.587
20
31.452
11
113.295
21
31.496
62
0
0
LINE
8
1
10
113.295
20
31.496
11
113.289
21
31.496
62
0
0
LINE
8
1
10
113.289
20
31.496
11
113.288
21
31.497
62
0
0
LINE
8
1
10
113.288
20
31.497
11
98.705
21
31.496
62
0
0
LINE
8
1
10
98.705
20
31.496
11
98.412
21
31.452
62
0
0
LINE
8
1
10
98.412
20
31.452
11
98.126
21
31.381
62
0
0
LINE
8
1
10
98.126
20
31.381
11
97.847
21
31.281
62
0
0
LINE
8
1
10
97.847
20
31.281
11
97.328
21
31.003
62
0
0
LINE
8
1
10
97.328
20
31.003
11
97.083
21
30.821
62
0
0
LINE
8
1
10
97.083
20
30.821
11
96.871
21
30.628
62
0
0
LINE
8
1
10
96.871
20
30.628
11
96.497
21
30.173
62
0
0
LINE
8
1
10
96.497
20
30.173
11
96.341
21
29.911
62
0
0
LINE
8
1
10
96.341
20
29.911
11
96.219
21
29.652
62
0
0
LINE
8
1
10
96.219
20
29.652
11
96.119
21
29.374
62
0
0
LINE
8
1
10
96.119
20
29.374
11
96.047
21
29.087
62
0
0
LINE
8
1
10
96.047
20
29.087
11
96.004
21
28.795
62
0
0
LINE
8
1
10
96.004
20
28.795
11
96.004
21
-35.794
62
0
0
LINE
8
1
10
96.004
20
-35.794
11
96.047
21
-36.086
62
0
0
LINE
8
1
10
96.047
20
-36.086
11
96.119
21
-36.373
62
0
0
LINE
8
1
10
96.119
20
-36.373
11
96.219
21
-36.651
62
0
0
LINE
8
1
10
96.219
20
-36.651
11
96.496
21
-37.171
62
0
0
LINE
8
1
10
96.496
20
-37.171
11
96.678
21
-37.415
62
0
0
LINE
8
1
10
96.678
20
-37.415
11
96.871
21
-37.627
62
0
0
LINE
8
1
10
96.871
20
-37.627
11
97.327
21
-38.001
62
0
0
LINE
8
1
10
97.327
20
-38.001
11
97.588
21
-38.158
62
0
0
LINE
8
1
10
97.588
20
-38.158
11
97.847
21
-38.28
62
0
0
LINE
8
1
10
97.847
20
-38.28
11
98.126
21
-38.38
62
0
0
LINE
8
1
10
98.126
20
-38.38
11
98.412
21
-38.451
62
0
0
LINE
8
1
10
98.412
20
-38.451
11
98.704
21
-38.495
62
0
0
LINE
8
1
10
98.704
20
-38.495
11
113.295
21
-38.495
62
0
0
LINE
8
1
10
113.295
20
-38.495
11
113.587
21
-38.451
62
0
0
CIRCLE
8
1
10
-45
20
27.254
40
2.0147
62
0
0
CIRCLE
8
1
10
99.999
20
26.499
40
2.01483
62
0
0
CIRCLE
8
1
10
105.999
20
26.499
40
2.01483
62
0
0
CIRCLE
8
1
10
111.999
20
26.499
40
2.01483
62
0
0
CIRCLE
8
1
10
-23
20
23.705
40
2.03982
62
0
0
CIRCLE
8
1
10
0.999
20
23.705
40
2.03956
62
0
0
CIRCLE
8
1
10
-51
20
21.254
40
2.0147
62
0
0
CIRCLE
8
1
10
-45
20
21.254
40
2.0147
62
0
0
CIRCLE
8
1
10
-39
20
21.254
40
2.0147
62
0
0
CIRCLE
8
1
10
35.998
20
19.143
40
2.01483
62
0
0
CIRCLE
8
1
10
64.998
20
18.5
40
1.49014
62
0
0
CIRCLE
8
1
10
54.998
20
18.5
40
1.49015
62
0
0
LINE
8
1
10
-0.565
20
11.164
11
-0.565
21
18.244
62
0
0
LINE
8
1
10
-0.565
20
18.244
11
2.564
21
18.244
62
0
0
LINE
8
1
10
2.564
20
18.244
11
2.564
21
11.164
62
0
0
LINE
8
1
10
2.564
20
11.164
11
-0.565
21
11.164
62
0
0
LINE
8
1
10
-24.565
20
11.164
11
-24.565
21
18.244
62
0
0
LINE
8
1
10
-24.565
20
18.244
11
-21.435
21
18.244
62
0
0
LINE
8
1
10
-21.435
20
18.244
11
-21.435
21
11.164
62
0
0
LINE
8
1
10
-21.435
20
11.164
11
-24.565
21
11.164
62
0
0
CIRCLE
8
1
10
-45
20
15.254
40
2.0147
62
0
0
CIRCLE
8
1
10
88.998
20
15.5
40
1.49014
62
0
0
CIRCLE
8
1
10
78.998
20
15.5
40
1.49015
62
0
0
CIRCLE
8
1
10
120.999
20
14.499
40
2.01487
62
0
0
CIRCLE
8
1
10
126.999
20
14.499
40
2.01483
62
0
0
CIRCLE
8
1
10
132.999
20
14.499
40
2.01483
62
0
0
CIRCLE
8
1
10
-67.5
20
13.323
40
2.2398
62
0
0
CIRCLE
8
1
10
-137.499
20
13.322
40
2.2398
62
0
0
CIRCLE
8
1
10
41.998
20
13.143
40
2.01482
62
0
0
CIRCLE
8
1
10
35.998
20
13.143
40
2.01483
62
0
0
CIRCLE
8
1
10
29.998
20
13.143
40
2.01484
62
0
0
CIRCLE
8
1
10
99.999
20
8.499
40
2.01487
62
0
0
CIRCLE
8
1
10
105.999
20
8.499
40
2.01487
62
0
0
CIRCLE
8
1
10
111.999
20
8.499
40
2.01487
62
0
0
CIRCLE
8
1
10
64.998
20
8.5
40
1.49014
62
0
0
CIRCLE
8
1
10
54.998
20
8.5
40
1.49015
62
0
0
CIRCLE
8
1
10
35.998
20
7.143
40
2.01483
62
0
0
CIRCLE
8
1
10
88.998
20
5.5
40
1.49014
62
0
0
CIRCLE
8
1
10
78.998
20
5.5
40
1.49015
62
0
0
CIRCLE
8
1
10
-133.207
20
2.601
40
1.9898
62
0
0
CIRCLE
8
1
10
-71.791
20
2.601
40
1.98974
62
0
0
LINE
8
1
10
23.878
20
-124.165
11
24.317
21
-124.039
62
0
0
LINE
8
1
10
24.317
20
-124.039
11
24.714
21
-123.877
62
0
0
LINE
8
1
10
24.714
20
-123.877
11
25.115
21
-123.659
62
0
0
LINE
8
1
10
25.115
20
-123.659
11
25.478
21
-123.404
62
0
0
LINE
8
1
10
25.478
20
-123.404
11
25.81
21
-123.112
62
0
0
LINE
8
1
10
25.81
20
-123.112
11
26.1
21
-122.795
62
0
0
LINE
8
1
10
26.1
20
-122.795
11
26.361
21
-122.438
62
0
0
LINE
8
1
10
26.361
20
-122.438
11
26.582
21
-122.054
62
0
0
LINE
8
1
10
26.582
20
-122.054
11
26.89
21
-121.226
62
0
0
LINE
8
1
10
26.89
20
-121.226
11
33.924
21
-92.217
62
0
0
LINE
8
1
10
33.924
20
-92.217
11
34.486
21
-86.122
62
0
0
LINE
8
1
10
34.486
20
-86.122
11
34.324
21
-61.318
62
0
0
LINE
8
1
10
34.324
20
-61.318
11
27.008
21
2.264
62
0
0
LINE
8
1
10
27.008
20
2.264
11
18.99
21
2.264
62
0
0
LINE
8
1
10
18.99
20
2.264
11
11.51
21
-64.183
62
0
0
LINE
8
1
10
11.51
20
-64.183
11
11.7
21
-89.177
62
0
0
LINE
8
1
10
11.7
20
-89.177
11
12.331
21
-93.726
62
0
0
LINE
8
1
10
12.331
20
-93.726
11
19.245
21
-121.661
62
0
0
LINE
8
1
10
19.245
20
-121.661
11
19.416
21
-122.055
62
0
0
LINE
8
1
10
19.416
20
-122.055
11
19.637
21
-122.438
62
0
0
LINE
8
1
10
19.637
20
-122.438
11
19.898
21
-122.796
62
0
0
LINE
8
1
10
19.898
20
-122.796
11
20.531
21
-123.413
62
0
0
LINE
8
1
10
20.531
20
-123.413
11
21.283
21
-123.877
62
0
0
LINE
8
1
10
21.283
20
-123.877
11
22.119
21
-124.165
62
0
0
LINE
8
1
10
22.119
20
-124.165
11
22.557
21
-124.238
62
0
0
LINE
8
1
10
22.557
20
-124.238
11
23.441
21
-124.238
62
0
0
LINE
8
1
10
23.441
20
-124.238
11
23.878
21
-124.165
62
0
0
CIRCLE
8
1
10
-128.964
20
-1.641
40
1.98959
62
0
0
CIRCLE
8
1
10
-76.034
20
-1.64
40
1.98956
62
0
0
LINE
8
1
10
21.434
20
-7.835
11
21.434
21
-0.755
62
0
0
LINE
8
1
10
21.434
20
-0.755
11
24.564
21
-0.755
62
0
0
LINE
8
1
10
24.564
20
-0.755
11
24.564
21
-7.835
62
0
0
LINE
8
1
10
24.564
20
-7.835
11
21.434
21
-7.835
62
0
0
CIRCLE
8
1
10
-124.72
20
-5.883
40
1.98973
62
0
0
CIRCLE
8
1
10
-80.278
20
-5.883
40
1.98981
62
0
0
CIRCLE
8
1
10
120.999
20
-9.499
40
2.01486
62
0
0
CIRCLE
8
1
10
126.999
20
-9.499
40
2.01482
62
0
0
CIRCLE
8
1
10
132.999
20
-9.499
40
2.01482
62
0
0
CIRCLE
8
1
10
-114
20
-10.175
40
2.2397
62
0
0
CIRCLE
8
1
10
-90.999
20
-10.176
40
2.2398
62
0
0
CIRCLE
8
1
10
99.999
20
-15.499
40
2.01486
62
0
0
CIRCLE
8
1
10
105.999
20
-15.499
40
2.01486
62
0
0
CIRCLE
8
1
10
111.999
20
-15.499
40
2.01486
62
0
0
CIRCLE
8
1
10
59.998
20
-15.855
40
2.0149
62
0
0
LINE
8
1
10
21.434
20
-21.835
11
21.434
21
-14.755
62
0
0
LINE
8
1
10
21.434
20
-14.755
11
24.564
21
-14.755
62
0
0
LINE
8
1
10
24.564
20
-14.755
11
24.564
21
-21.835
62
0
0
LINE
8
1
10
24.564
20
-21.835
11
21.434
21
-21.835
62
0
0
CIRCLE
8
1
10
83.998
20
-18.855
40
2.0149
62
0
0
CIRCLE
8
1
10
65.998
20
-21.855
40
2.01488
62
0
0
CIRCLE
8
1
10
59.998
20
-21.855
40
2.0149
62
0
0
CIRCLE
8
1
10
53.998
20
-21.855
40
2.01491
62
0
0
LINE
8
1
10
-19.652
20
-116.565
11
-19.349
21
-116.941
62
0
0
LINE
8
1
10
-19.349
20
-116.941
11
-17.649
21
-120.509
62
0
0
LINE
8
1
10
-17.649
20
-120.509
11
5.371
21
-120.508
62
0
0
LINE
8
1
10
5.371
20
-120.508
11
2.728
21
-113.464
62
0
0
LINE
8
1
10
2.728
20
-113.464
11
2.729
21
-113.464
62
0
0
LINE
8
1
10
2.729
20
-113.464
11
1.323
21
-107.839
62
0
0
LINE
8
1
10
1.323
20
-107.839
11
0.542
21
-102.215
62
0
0
LINE
8
1
10
0.542
20
-102.215
11
0.386
21
-96.591
62
0
0
LINE
8
1
10
0.386
20
-96.591
11
0.854
21
-90.967
62
0
0
LINE
8
1
10
0.854
20
-90.967
11
1.948
21
-85.345
62
0
0
LINE
8
1
10
1.948
20
-85.345
11
3.667
21
-79.72
62
0
0
LINE
8
1
10
3.667
20
-79.72
11
3.666
21
-79.72
62
0
0
LINE
8
1
10
3.666
20
-79.72
11
5.37
21
-75.488
62
0
0
LINE
8
1
10
5.37
20
-75.488
11
-17.649
21
-75.489
62
0
0
LINE
8
1
10
-17.649
20
-75.489
11
-19.34
21
-79.041
62
0
0
LINE
8
1
10
-19.34
20
-79.041
11
-19.349
21
-79.056
62
0
0
LINE
8
1
10
-19.349
20
-79.056
11
-19.653
21
-79.433
62
0
0
LINE
8
1
10
-19.653
20
-79.433
11
-20.014
21
-79.757
62
0
0
LINE
8
1
10
-20.014
20
-79.757
11
-20.421
21
-80.016
62
0
0
LINE
8
1
10
-20.421
20
-80.016
11
-20.866
21
-80.207
62
0
0
LINE
8
1
10
-20.866
20
-80.207
11
-21.338
21
-80.325
62
0
0
LINE
8
1
10
-21.338
20
-80.325
11
-21.821
21
-80.364
62
0
0
LINE
8
1
10
-21.821
20
-80.364
11
-22.304
21
-80.325
62
0
0
LINE
8
1
10
-22.304
20
-80.325
11
-22.776
21
-80.207
62
0
0
LINE
8
1
10
-22.776
20
-80.207
11
-23.221
21
-80.016
62
0
0
LINE
8
1
10
-23.221
20
-80.016
11
-23.628
21
-79.757
62
0
0
LINE
8
1
10
-23.628
20
-79.757
11
-23.99
21
-79.432
62
0
0
LINE
8
1
10
-23.99
20
-79.432
11
-24.293
21
-79.056
62
0
0
LINE
8
1
10
-24.293
20
-79.056
11
-25.994
21
-75.489
62
0
0
LINE
8
1
10
-25.994
20
-75.489
11
-27.839
21
-75.489
62
0
0
LINE
8
1
10
-27.839
20
-75.489
11
-48.49
21
-54.838
62
0
0
LINE
8
1
10
-48.49
20
-54.838
11
-48.49
21
-52.993
62
0
0
LINE
8
1
10
-48.49
20
-52.993
11
-52.042
21
-51.301
62
0
0
LINE
8
1
10
-52.042
20
-51.301
11
-52.057
21
-51.292
62
0
0
LINE
8
1
10
-52.057
20
-51.292
11
-52.434
21
-50.988
62
0
0
LINE
8
1
10
-52.434
20
-50.988
11
-52.758
21
-50.627
62
0
0
LINE
8
1
10
-52.758
20
-50.627
11
-53.017
21
-50.22
62
0
0
LINE
8
1
10
-53.017
20
-50.22
11
-53.208
21
-49.775
62
0
0
LINE
8
1
10
-53.208
20
-49.775
11
-53.326
21
-49.303
62
0
0
LINE
8
1
10
-53.326
20
-49.303
11
-53.365
21
-48.819
62
0
0
LINE
8
1
10
-53.365
20
-48.819
11
-53.326
21
-48.337
62
0
0
LINE
8
1
10
-53.326
20
-48.337
11
-53.209
21
-47.867
62
0
0
LINE
8
1
10
-53.209
20
-47.867
11
-53.017
21
-47.42
62
0
0
LINE
8
1
10
-53.017
20
-47.42
11
-52.758
21
-47.013
62
0
0
LINE
8
1
10
-52.758
20
-47.013
11
-52.434
21
-46.652
62
0
0
LINE
8
1
10
-52.434
20
-46.652
11
-52.057
21
-46.348
62
0
0
LINE
8
1
10
-52.057
20
-46.348
11
-48.49
21
-44.648
62
0
0
LINE
8
1
10
-48.49
20
-44.648
11
-48.49
21
-21.632
62
0
0
LINE
8
1
10
-48.49
20
-21.632
11
-93.51
21
-21.632
62
0
0
LINE
8
1
10
-93.51
20
-21.632
11
-93.51
21
-44.648
62
0
0
LINE
8
1
10
-93.51
20
-44.648
11
-89.943
21
-46.347
62
0
0
LINE
8
1
10
-89.943
20
-46.347
11
-89.565
21
-46.652
62
0
0
LINE
8
1
10
-89.565
20
-46.652
11
-89.241
21
-47.013
62
0
0
LINE
8
1
10
-89.241
20
-47.013
11
-88.982
21
-47.42
62
0
0
LINE
8
1
10
-88.982
20
-47.42
11
-88.79
21
-47.867
62
0
0
LINE
8
1
10
-88.79
20
-47.867
11
-88.673
21
-48.337
62
0
0
LINE
8
1
10
-88.673
20
-48.337
11
-88.634
21
-48.821
62
0
0
LINE
8
1
10
-88.634
20
-48.821
11
-88.673
21
-49.304
62
0
0
LINE
8
1
10
-88.673
20
-49.304
11
-88.791
21
-49.775
62
0
0
LINE
8
1
10
-88.791
20
-49.775
11
-88.982
21
-50.22
62
0
0
LINE
8
1
10
-88.982
20
-50.22
11
-89.241
21
-50.627
62
0
0
LINE
8
1
10
-89.241
20
-50.627
11
-89.566
21
-50.989
62
0
0
LINE
8
1
10
-89.566
20
-50.989
11
-89.942
21
-51.292
62
0
0
LINE
8
1
10
-89.942
20
-51.292
11
-93.51
21
-52.993
62
0
0
LINE
8
1
10
-93.51
20
-52.993
11
-93.51
21
-54.838
62
0
0
LINE
8
1
10
-93.51
20
-54.838
11
-114.16
21
-75.489
62
0
0
LINE
8
1
10
-114.16
20
-75.489
11
-116.006
21
-75.489
62
0
0
LINE
8
1
10
-116.006
20
-75.489
11
-117.705
21
-79.055
62
0
0
LINE
8
1
10
-117.705
20
-79.055
11
-118.01
21
-79.433
62
0
0
LINE
8
1
10
-118.01
20
-79.433
11
-118.371
21
-79.757
62
0
0
LINE
8
1
10
-118.371
20
-79.757
11
-118.778
21
-80.016
62
0
0
LINE
8
1
10
-118.778
20
-80.016
11
-119.223
21
-80.207
62
0
0
LINE
8
1
10
-119.223
20
-80.207
11
-119.695
21
-80.325
62
0
0
LINE
8
1
10
-119.695
20
-80.325
11
-120.178
21
-80.364
62
0
0
LINE
8
1
10
-120.178
20
-80.364
11
-120.661
21
-80.325
62
0
0
LINE
8
1
10
-120.661
20
-80.325
11
-121.133
21
-80.207
62
0
0
LINE
8
1
10
-121.133
20
-80.207
11
-121.578
21
-80.016
62
0
0
LINE
8
1
10
-121.578
20
-80.016
11
-121.985
21
-79.757
62
0
0
LINE
8
1
10
-121.985
20
-79.757
11
-122.347
21
-79.432
62
0
0
LINE
8
1
10
-122.347
20
-79.432
11
-122.651
21
-79.055
62
0
0
LINE
8
1
10
-122.651
20
-79.055
11
-122.881
21
-78.649
62
0
0
LINE
8
1
10
-122.881
20
-78.649
11
-122.881
21
-78.648
62
0
0
LINE
8
1
10
-122.881
20
-78.648
11
-124.35
21
-75.489
62
0
0
LINE
8
1
10
-124.35
20
-75.489
11
-147.366
21
-75.489
62
0
0
LINE
8
1
10
-147.366
20
-75.489
11
-147.366
21
-120.509
62
0
0
LINE
8
1
10
-147.366
20
-120.509
11
-124.35
21
-120.509
62
0
0
LINE
8
1
10
-124.35
20
-120.509
11
-122.651
21
-116.942
62
0
0
LINE
8
1
10
-122.651
20
-116.942
11
-122.347
21
-116.565
62
0
0
LINE
8
1
10
-122.347
20
-116.565
11
-121.985
21
-116.24
62
0
0
LINE
8
1
10
-121.985
20
-116.24
11
-121.578
21
-115.981
62
0
0
LINE
8
1
10
-121.578
20
-115.981
11
-121.133
21
-115.79
62
0
0
LINE
8
1
10
-121.133
20
-115.79
11
-120.661
21
-115.672
62
0
0
LINE
8
1
10
-120.661
20
-115.672
11
-120.178
21
-115.633
62
0
0
LINE
8
1
10
-120.178
20
-115.633
11
-119.695
21
-115.672
62
0
0
LINE
8
1
10
-119.695
20
-115.672
11
-119.223
21
-115.79
62
0
0
LINE
8
1
10
-119.223
20
-115.79
11
-118.778
21
-115.981
62
0
0
LINE
8
1
10
-118.778
20
-115.981
11
-118.371
21
-116.24
62
0
0
LINE
8
1
10
-118.371
20
-116.24
11
-118.009
21
-116.565
62
0
0
LINE
8
1
10
-118.009
20
-116.565
11
-117.706
21
-116.941
62
0
0
LINE
8
1
10
-117.706
20
-116.941
11
-116.006
21
-120.509
62
0
0
LINE
8
1
10
-116.006
20
-120.509
11
-114.16
21
-120.509
62
0
0
LINE
8
1
10
-114.16
20
-120.509
11
-93.51
21
-141.159
62
0
0
LINE
8
1
10
-93.51
20
-141.159
11
-93.456
21
-141.655
62
0
0
LINE
8
1
10
-93.456
20
-141.655
11
-93.319
21
-142.139
62
0
0
LINE
8
1
10
-93.319
20
-142.139
11
-93.105
21
-142.593
62
0
0
LINE
8
1
10
-93.105
20
-142.593
11
-92.818
21
-143.005
62
0
0
LINE
8
1
10
-92.818
20
-143.005
11
-92.509
21
-143.325
62
0
0
LINE
8
1
10
-92.509
20
-143.325
11
-92.157
21
-143.597
62
0
0
LINE
8
1
10
-92.157
20
-143.597
11
-89.942
21
-144.705
62
0
0
LINE
8
1
10
-89.942
20
-144.705
11
-89.565
21
-145.009
62
0
0
LINE
8
1
10
-89.565
20
-145.009
11
-89.241
21
-145.37
62
0
0
LINE
8
1
10
-89.241
20
-145.37
11
-88.982
21
-145.777
62
0
0
LINE
8
1
10
-88.982
20
-145.777
11
-88.79
21
-146.224
62
0
0
LINE
8
1
10
-88.79
20
-146.224
11
-88.673
21
-146.694
62
0
0
LINE
8
1
10
-88.673
20
-146.694
11
-88.634
21
-147.178
62
0
0
LINE
8
1
10
-88.634
20
-147.178
11
-88.673
21
-147.661
62
0
0
LINE
8
1
10
-88.673
20
-147.661
11
-88.791
21
-148.132
62
0
0
LINE
8
1
10
-88.791
20
-148.132
11
-88.982
21
-148.577
62
0
0
LINE
8
1
10
-88.982
20
-148.577
11
-89.241
21
-148.984
62
0
0
LINE
8
1
10
-89.241
20
-148.984
11
-89.566
21
-149.346
62
0
0
LINE
8
1
10
-89.566
20
-149.346
11
-89.942
21
-149.649
62
0
0
LINE
8
1
10
-89.942
20
-149.649
11
-92.156
21
-150.757
62
0
0
LINE
8
1
10
-92.156
20
-150.757
11
-92.508
21
-151.029
62
0
0
LINE
8
1
10
-92.508
20
-151.029
11
-92.817
21
-151.349
62
0
0
LINE
8
1
10
-92.817
20
-151.349
11
-93.06
21
-151.687
62
0
0
LINE
8
1
10
-93.06
20
-151.687
11
-93.253
21
-152.055
62
0
0
LINE
8
1
10
-93.253
20
-152.055
11
-93.395
21
-152.447
62
0
0
LINE
8
1
10
-93.395
20
-152.447
11
-93.481
21
-152.855
62
0
0
LINE
8
1
10
-93.481
20
-152.855
11
-93.51
21
-174.365
62
0
0
LINE
8
1
10
-93.51
20
-174.365
11
-48.489
21
-174.365
62
0
0
LINE
8
1
10
-48.489
20
-174.365
11
-48.518
21
-152.855
62
0
0
LINE
8
1
10
-48.518
20
-152.855
11
-48.604
21
-152.447
62
0
0
LINE
8
1
10
-48.604
20
-152.447
11
-48.746
21
-152.055
62
0
0
LINE
8
1
10
-48.746
20
-152.055
11
-48.939
21
-151.687
62
0
0
LINE
8
1
10
-48.939
20
-151.687
11
-49.182
21
-151.349
62
0
0
LINE
8
1
10
-49.182
20
-151.349
11
-49.491
21
-151.029
62
0
0
LINE
8
1
10
-49.491
20
-151.029
11
-49.843
21
-150.757
62
0
0
LINE
8
1
10
-49.843
20
-150.757
11
-52.057
21
-149.649
62
0
0
LINE
8
1
10
-52.057
20
-149.649
11
-52.434
21
-149.345
62
0
0
LINE
8
1
10
-52.434
20
-149.345
11
-52.758
21
-148.984
62
0
0
LINE
8
1
10
-52.758
20
-148.984
11
-53.017
21
-148.577
62
0
0
LINE
8
1
10
-53.017
20
-148.577
11
-53.208
21
-148.132
62
0
0
LINE
8
1
10
-53.208
20
-148.132
11
-53.326
21
-147.66
62
0
0
LINE
8
1
10
-53.326
20
-147.66
11
-53.365
21
-147.176
62
0
0
LINE
8
1
10
-53.365
20
-147.176
11
-53.326
21
-146.694
62
0
0
LINE
8
1
10
-53.326
20
-146.694
11
-53.209
21
-146.224
62
0
0
LINE
8
1
10
-53.209
20
-146.224
11
-53.017
21
-145.777
62
0
0
LINE
8
1
10
-53.017
20
-145.777
11
-52.758
21
-145.37
62
0
0
LINE
8
1
10
-52.758
20
-145.37
11
-52.434
21
-145.009
62
0
0
LINE
8
1
10
-52.434
20
-145.009
11
-52.057
21
-144.705
62
0
0
LINE
8
1
10
-52.057
20
-144.705
11
-49.842
21
-143.597
62
0
0
LINE
8
1
10
-49.842
20
-143.597
11
-49.49
21
-143.325
62
0
0
LINE
8
1
10
-49.49
20
-143.325
11
-49.181
21
-143.004
62
0
0
LINE
8
1
10
-49.181
20
-143.004
11
-48.894
21
-142.593
62
0
0
LINE
8
1
10
-48.894
20
-142.593
11
-48.68
21
-142.139
62
0
0
LINE
8
1
10
-48.68
20
-142.139
11
-48.543
21
-141.655
62
0
0
LINE
8
1
10
-48.543
20
-141.655
11
-48.49
21
-141.159
62
0
0
LINE
8
1
10
-48.49
20
-141.159
11
-27.839
21
-120.509
62
0
0
LINE
8
1
10
-27.839
20
-120.509
11
-25.993
21
-120.509
62
0
0
LINE
8
1
10
-25.993
20
-120.509
11
-24.302
21
-116.956
62
0
0
LINE
8
1
10
-24.302
20
-116.956
11
-24.294
21
-116.942
62
0
0
LINE
8
1
10
-24.294
20
-116.942
11
-23.99
21
-116.565
62
0
0
LINE
8
1
10
-23.99
20
-116.565
11
-23.628
21
-116.24
62
0
0
LINE
8
1
10
-23.628
20
-116.24
11
-23.221
21
-115.981
62
0
0
LINE
8
1
10
-23.221
20
-115.981
11
-22.776
21
-115.79
62
0
0
LINE
8
1
10
-22.776
20
-115.79
11
-22.304
21
-115.672
62
0
0
LINE
8
1
10
-22.304
20
-115.672
11
-21.821
21
-115.633
62
0
0
LINE
8
1
10
-21.821
20
-115.633
11
-21.338
21
-115.672
62
0
0
LINE
8
1
10
-21.338
20
-115.672
11
-20.866
21
-115.79
62
0
0
LINE
8
1
10
-20.866
20
-115.79
11
-20.421
21
-115.981
62
0
0
LINE
8
1
10
-20.421
20
-115.981
11
-20.014
21
-116.24
62
0
0
LINE
8
1
10
-20.014
20
-116.24
11
-19.652
21
-116.565
62
0
0
LINE
8
1
10
-114.489
20
-34.009
11
-111.489
21
-34.009
62
0
0
LINE
8
1
10
-111.489
20
-34.009
11
-111.489
21
-26.989
62
0
0
LINE
8
1
10
-111.489
20
-26.989
11
-114.489
21
-26.989
62
0
0
LINE
8
1
10
-114.489
20
-26.989
11
-114.489
21
-21.985
62
0
0
LINE
8
1
10
-114.489
20
-21.985
11
-119.658
21
-23.412
62
0
0
LINE
8
1
10
-119.658
20
-23.412
11
-124.345
21
-24.193
62
0
0
LINE
8
1
10
-124.345
20
-24.193
11
-129.031
21
-24.486
62
0
0
LINE
8
1
10
-129.031
20
-24.486
11
-133.717
21
-24.291
62
0
0
LINE
8
1
10
-133.717
20
-24.291
11
-138.371
21
-23.614
62
0
0
LINE
8
1
10
-138.371
20
-23.614
11
-143.996
21
-22.153
62
0
0
LINE
8
1
10
-143.996
20
-22.153
11
-143.996
21
-22.154
62
0
0
LINE
8
1
10
-143.996
20
-22.154
11
-144.461
21
-22.002
62
0
0
LINE
8
1
10
-144.461
20
-22.002
11
-144.463
21
-22
62
0
0
LINE
8
1
10
-144.463
20
-22
11
-144.509
21
-21.985
62
0
0
LINE
8
1
10
-144.509
20
-21.985
11
-144.509
21
-26.989
62
0
0
LINE
8
1
10
-144.509
20
-26.989
11
-147.509
21
-26.989
62
0
0
LINE
8
1
10
-147.509
20
-26.989
11
-147.509
21
-34.009
62
0
0
LINE
8
1
10
-147.509
20
-34.009
11
-144.509
21
-34.009
62
0
0
LINE
8
1
10
-144.509
20
-34.009
11
-144.509
21
-36.009
62
0
0
LINE
8
1
10
-144.509
20
-36.009
11
-114.489
21
-36.009
62
0
0
LINE
8
1
10
-114.489
20
-36.009
11
-114.489
21
-34.009
62
0
0
LINE
8
1
10
-101.99
20
-55.509
11
-96.986
21
-55.509
62
0
0
LINE
8
1
10
-96.986
20
-55.509
11
-98.413
21
-50.34
62
0
0
LINE
8
1
10
-98.413
20
-50.34
11
-99.194
21
-45.653
62
0
0
LINE
8
1
10
-99.194
20
-45.653
11
-99.487
21
-40.967
62
0
0
LINE
8
1
10
-99.487
20
-40.967
11
-99.292
21
-36.28
62
0
0
LINE
8
1
10
-99.292
20
-36.28
11
-98.615
21
-31.627
62
0
0
LINE
8
1
10
-98.615
20
-31.627
11
-97.154
21
-26.002
62
0
0
LINE
8
1
10
-97.154
20
-26.002
11
-97.155
21
-26.002
62
0
0
LINE
8
1
10
-97.155
20
-26.002
11
-97.003
21
-25.537
62
0
0
LINE
8
1
10
-97.003
20
-25.537
11
-97.001
21
-25.535
62
0
0
LINE
8
1
10
-97.001
20
-25.535
11
-96.986
21
-25.489
62
0
0
LINE
8
1
10
-96.986
20
-25.489
11
-101.99
21
-25.489
62
0
0
LINE
8
1
10
-101.99
20
-25.489
11
-101.99
21
-22.489
62
0
0
LINE
8
1
10
-101.99
20
-22.489
11
-109.01
21
-22.489
62
0
0
LINE
8
1
10
-109.01
20
-22.489
11
-109.01
21
-25.489
62
0
0
LINE
8
1
10
-109.01
20
-25.489
11
-111.01
21
-25.489
62
0
0
LINE
8
1
10
-111.01
20
-25.489
11
-111.01
21
-55.509
62
0
0
LINE
8
1
10
-111.01
20
-55.509
11
-109.01
21
-55.509
62
0
0
LINE
8
1
10
-109.01
20
-55.509
11
-109.01
21
-58.509
62
0
0
LINE
8
1
10
-109.01
20
-58.509
11
-101.99
21
-58.509
62
0
0
LINE
8
1
10
-101.99
20
-58.509
11
-101.99
21
-55.509
62
0
0
CIRCLE
8
1
10
89.998
20
-24.855
40
2.01488
62
0
0
CIRCLE
8
1
10
83.998
20
-24.855
40
2.0149
62
0
0
CIRCLE
8
1
10
77.998
20
-24.855
40
2.01491
62
0
0
CIRCLE
8
1
10
-23
20
-25.744
40
2.01475
62
0
0
CIRCLE
8
1
10
0.999
20
-25.744
40
2.01449
62
0
0
CIRCLE
8
1
10
22.998
20
-27.293
40
2.03977
62
0
0
CIRCLE
8
1
10
120.999
20
-27.499
40
2.01486
62
0
0
CIRCLE
8
1
10
126.999
20
-27.499
40
2.01486
62
0
0
CIRCLE
8
1
10
132.999
20
-27.499
40
2.01486
62
0
0
CIRCLE
8
1
10
59.998
20
-27.855
40
2.0149
62
0
0
CIRCLE
8
1
10
83.998
20
-30.855
40
2.0149
62
0
0
CIRCLE
8
1
10
-29
20
-31.744
40
2.01475
62
0
0
CIRCLE
8
1
10
-23
20
-31.744
40
2.01475
62
0
0
CIRCLE
8
1
10
-17
20
-31.744
40
2.01475
62
0
0
CIRCLE
8
1
10
-5
20
-31.744
40
2.01475
62
0
0
CIRCLE
8
1
10
0.999
20
-31.744
40
2.01449
62
0
0
CIRCLE
8
1
10
6.998
20
-31.744
40
2.01474
62
0
0
CIRCLE
8
1
10
99.999
20
-33.499
40
2.01486
62
0
0
CIRCLE
8
1
10
105.999
20
-33.499
40
2.01486
62
0
0
CIRCLE
8
1
10
111.999
20
-33.499
40
2.01486
62
0
0
LINE
8
1
10
48.637
20
-126.248
11
49.925
21
-125.987
62
0
0
LINE
8
1
10
49.925
20
-125.987
11
51.174
21
-125.581
62
0
0
LINE
8
1
10
51.174
20
-125.581
11
52.37
21
-125.035
62
0
0
LINE
8
1
10
52.37
20
-125.035
11
53.495
21
-124.356
62
0
0
LINE
8
1
10
53.495
20
-124.356
11
54.536
21
-123.554
62
0
0
LINE
8
1
10
54.536
20
-123.554
11
55.479
21
-122.638
62
0
0
LINE
8
1
10
55.479
20
-122.638
11
56.311
21
-121.621
62
0
0
LINE
8
1
10
56.311
20
-121.621
11
57.022
21
-120.515
62
0
0
LINE
8
1
10
57.022
20
-120.515
11
57.601
21
-119.336
62
0
0
LINE
8
1
10
57.601
20
-119.336
11
58.043
21
-118.098
62
0
0
LINE
8
1
10
58.043
20
-118.098
11
58.341
21
-116.818
62
0
0
LINE
8
1
10
58.341
20
-116.818
11
58.49
21
-115.513
62
0
0
LINE
8
1
10
58.49
20
-115.513
11
58.509
21
-98.853
62
0
0
LINE
8
1
10
58.509
20
-98.853
11
57.629
21
-96.527
62
0
0
LINE
8
1
10
57.629
20
-96.527
11
57.525
21
-96.343
62
0
0
LINE
8
1
10
57.525
20
-96.343
11
57.401
21
-96.171
62
0
0
LINE
8
1
10
57.401
20
-96.171
11
57.003
21
-95.757
62
0
0
LINE
8
1
10
57.003
20
-95.757
11
56.856
21
-95.568
62
0
0
LINE
8
1
10
56.856
20
-95.568
11
56.734
21
-95.364
62
0
0
LINE
8
1
10
56.734
20
-95.364
11
56.637
21
-95.146
62
0
0
LINE
8
1
10
56.637
20
-95.146
11
56.566
21
-94.917
62
0
0
LINE
8
1
10
56.566
20
-94.917
11
56.523
21
-94.682
62
0
0
LINE
8
1
10
56.523
20
-94.682
11
56.525
21
-94.16
62
0
0
LINE
8
1
10
56.525
20
-94.16
11
56.577
21
-93.903
62
0
0
LINE
8
1
10
56.577
20
-93.903
11
56.579
21
-93.894
62
0
0
LINE
8
1
10
56.579
20
-93.894
11
56.578
21
-93.894
62
0
0
LINE
8
1
10
56.578
20
-93.894
11
56.664
21
-93.646
62
0
0
LINE
8
1
10
56.664
20
-93.646
11
56.781
21
-93.412
62
0
0
LINE
8
1
10
56.781
20
-93.412
11
56.928
21
-93.194
62
0
0
LINE
8
1
10
56.928
20
-93.194
11
57.104
21
-92.996
62
0
0
LINE
8
1
10
57.104
20
-92.996
11
57.104
21
-92.997
62
0
0
LINE
8
1
10
57.104
20
-92.997
11
57.478
21
-92.677
62
0
0
LINE
8
1
10
57.478
20
-92.677
11
57.635
21
-92.51
62
0
0
LINE
8
1
10
57.635
20
-92.51
11
57.771
21
-92.328
62
0
0
LINE
8
1
10
57.771
20
-92.328
11
57.887
21
-92.131
62
0
0
LINE
8
1
10
57.887
20
-92.131
11
58.42
21
-90.726
62
0
0
LINE
8
1
10
58.42
20
-90.726
11
58.452
21
-90.614
62
0
0
LINE
8
1
10
58.452
20
-90.614
11
58.452
21
-90.61
62
0
0
LINE
8
1
10
58.452
20
-90.61
11
58.494
21
-90.38
62
0
0
LINE
8
1
10
58.494
20
-90.38
11
58.508
21
-90.142
62
0
0
LINE
8
1
10
58.508
20
-90.142
11
58.509
21
-90.138
62
0
0
LINE
8
1
10
58.509
20
-90.138
11
58.506
21
-68.743
62
0
0
LINE
8
1
10
58.506
20
-68.743
11
58.505
21
-68.737
62
0
0
LINE
8
1
10
58.505
20
-68.737
11
58.494
21
-68.617
62
0
0
LINE
8
1
10
58.494
20
-68.617
11
58.476
21
-68.498
62
0
0
LINE
8
1
10
58.476
20
-68.498
11
58.476
21
-68.495
62
0
0
LINE
8
1
10
58.476
20
-68.495
11
58.452
21
-68.381
62
0
0
LINE
8
1
10
58.452
20
-68.381
11
58.384
21
-68.16
62
0
0
LINE
8
1
10
58.384
20
-68.16
11
58.382
21
-68.156
62
0
0
LINE
8
1
10
58.382
20
-68.156
11
57.887
21
-66.867
62
0
0
LINE
8
1
10
57.887
20
-66.867
11
57.771
21
-66.669
62
0
0
LINE
8
1
10
57.771
20
-66.669
11
57.635
21
-66.487
62
0
0
LINE
8
1
10
57.635
20
-66.487
11
57.478
21
-66.32
62
0
0
LINE
8
1
10
57.478
20
-66.32
11
57.103
21
-66
62
0
0
LINE
8
1
10
57.103
20
-66
11
56.928
21
-65.803
62
0
0
LINE
8
1
10
56.928
20
-65.803
11
56.781
21
-65.585
62
0
0
LINE
8
1
10
56.781
20
-65.585
11
56.664
21
-65.351
62
0
0
LINE
8
1
10
56.664
20
-65.351
11
56.578
21
-65.103
62
0
0
LINE
8
1
10
56.578
20
-65.103
11
56.579
21
-65.103
62
0
0
LINE
8
1
10
56.579
20
-65.103
11
56.526
21
-64.844
62
0
0
LINE
8
1
10
56.526
20
-64.844
11
56.509
21
-64.543
62
0
0
LINE
8
1
10
56.509
20
-64.543
11
56.523
21
-64.315
62
0
0
LINE
8
1
10
56.523
20
-64.315
11
56.566
21
-64.08
62
0
0
LINE
8
1
10
56.566
20
-64.08
11
56.637
21
-63.851
62
0
0
LINE
8
1
10
56.637
20
-63.851
11
56.734
21
-63.633
62
0
0
LINE
8
1
10
56.734
20
-63.633
11
56.856
21
-63.429
62
0
0
LINE
8
1
10
56.856
20
-63.429
11
57.003
21
-63.24
62
0
0
LINE
8
1
10
57.003
20
-63.24
11
57.401
21
-62.826
62
0
0
LINE
8
1
10
57.401
20
-62.826
11
57.525
21
-62.654
62
0
0
LINE
8
1
10
57.525
20
-62.654
11
57.629
21
-62.47
62
0
0
LINE
8
1
10
57.629
20
-62.47
11
58.417
21
-60.377
62
0
0
LINE
8
1
10
58.417
20
-60.377
11
58.419
21
-60.373
62
0
0
LINE
8
1
10
58.419
20
-60.373
11
58.452
21
-60.258
62
0
0
LINE
8
1
10
58.452
20
-60.258
11
58.452
21
-60.253
62
0
0
LINE
8
1
10
58.452
20
-60.253
11
58.494
21
-60.023
62
0
0
LINE
8
1
10
58.494
20
-60.023
11
58.508
21
-59.786
62
0
0
LINE
8
1
10
58.508
20
-59.786
11
58.509
21
-59.782
62
0
0
LINE
8
1
10
58.509
20
-59.782
11
58.434
21
-42.83
62
0
0
LINE
8
1
10
58.434
20
-42.83
11
58.21
21
-41.535
62
0
0
LINE
8
1
10
58.21
20
-41.535
11
57.84
21
-40.274
62
0
0
LINE
8
1
10
57.84
20
-40.274
11
57.328
21
-39.064
62
0
0
LINE
8
1
10
57.328
20
-39.064
11
56.682
21
-37.919
62
0
0
LINE
8
1
10
56.682
20
-37.919
11
55.91
21
-36.856
62
0
0
LINE
8
1
10
55.91
20
-36.856
11
55.021
21
-35.888
62
0
0
LINE
8
1
10
55.021
20
-35.888
11
54.027
21
-35.027
62
0
0
LINE
8
1
10
54.027
20
-35.027
11
52.943
21
-34.286
62
0
0
LINE
8
1
10
52.943
20
-34.286
11
51.78
21
-33.672
62
0
0
LINE
8
1
10
51.78
20
-33.672
11
50.556
21
-33.196
62
0
0
LINE
8
1
10
50.556
20
-33.196
11
49.285
21
-32.861
62
0
0
LINE
8
1
10
49.285
20
-32.861
11
47.984
21
-32.674
62
0
0
LINE
8
1
10
47.984
20
-32.674
11
46.671
21
-32.637
62
0
0
LINE
8
1
10
46.671
20
-32.637
11
45.361
21
-32.749
62
0
0
LINE
8
1
10
45.361
20
-32.749
11
44.073
21
-33.01
62
0
0
LINE
8
1
10
44.073
20
-33.01
11
42.824
21
-33.416
62
0
0
LINE
8
1
10
42.824
20
-33.416
11
41.628
21
-33.962
62
0
0
LINE
8
1
10
41.628
20
-33.962
11
40.503
21
-34.641
62
0
0
LINE
8
1
10
40.503
20
-34.641
11
39.462
21
-35.443
62
0
0
LINE
8
1
10
39.462
20
-35.443
11
38.519
21
-36.359
62
0
0
LINE
8
1
10
38.519
20
-36.359
11
37.687
21
-37.376
62
0
0
LINE
8
1
10
37.687
20
-37.376
11
36.976
21
-38.482
62
0
0
LINE
8
1
10
36.976
20
-38.482
11
36.397
21
-39.661
62
0
0
LINE
8
1
10
36.397
20
-39.661
11
35.955
21
-40.899
62
0
0
LINE
8
1
10
35.955
20
-40.899
11
35.657
21
-42.179
62
0
0
LINE
8
1
10
35.657
20
-42.179
11
35.508
21
-43.484
62
0
0
LINE
8
1
10
35.508
20
-43.484
11
35.492
21
-59.898
62
0
0
LINE
8
1
10
35.492
20
-59.898
11
35.493
21
-59.904
62
0
0
LINE
8
1
10
35.493
20
-59.904
11
35.504
21
-60.023
62
0
0
LINE
8
1
10
35.504
20
-60.023
11
35.522
21
-60.143
62
0
0
LINE
8
1
10
35.522
20
-60.143
11
35.522
21
-60.146
62
0
0
LINE
8
1
10
35.522
20
-60.146
11
35.546
21
-60.259
62
0
0
LINE
8
1
10
35.546
20
-60.259
11
35.614
21
-60.48
62
0
0
LINE
8
1
10
35.614
20
-60.48
11
35.616
21
-60.484
62
0
0
LINE
8
1
10
35.616
20
-60.484
11
36.02
21
-61.565
62
0
0
LINE
8
1
10
36.02
20
-61.565
11
36.226
21
-61.971
62
0
0
LINE
8
1
10
36.226
20
-61.971
11
36.363
21
-62.154
62
0
0
LINE
8
1
10
36.363
20
-62.154
11
36.52
21
-62.32
62
0
0
LINE
8
1
10
36.52
20
-62.32
11
36.895
21
-62.641
62
0
0
LINE
8
1
10
36.895
20
-62.641
11
37.07
21
-62.837
62
0
0
LINE
8
1
10
37.07
20
-62.837
11
37.217
21
-63.055
62
0
0
LINE
8
1
10
37.217
20
-63.055
11
37.334
21
-63.289
62
0
0
LINE
8
1
10
37.334
20
-63.289
11
37.42
21
-63.538
62
0
0
LINE
8
1
10
37.42
20
-63.538
11
37.419
21
-63.538
62
0
0
LINE
8
1
10
37.419
20
-63.538
11
37.472
21
-63.797
62
0
0
LINE
8
1
10
37.472
20
-63.797
11
37.489
21
-64.097
62
0
0
LINE
8
1
10
37.489
20
-64.097
11
37.475
21
-64.327
62
0
0
LINE
8
1
10
37.475
20
-64.327
11
37.432
21
-64.562
62
0
0
LINE
8
1
10
37.432
20
-64.562
11
37.361
21
-64.79
62
0
0
LINE
8
1
10
37.361
20
-64.79
11
37.264
21
-65.007
62
0
0
LINE
8
1
10
37.264
20
-65.007
11
37.141
21
-65.213
62
0
0
LINE
8
1
10
37.141
20
-65.213
11
36.994
21
-65.401
62
0
0
LINE
8
1
10
36.994
20
-65.401
11
36.597
21
-65.814
62
0
0
LINE
8
1
10
36.597
20
-65.814
11
36.473
21
-65.986
62
0
0
LINE
8
1
10
36.473
20
-65.986
11
36.369
21
-66.171
62
0
0
LINE
8
1
10
36.369
20
-66.171
11
35.581
21
-68.263
62
0
0
LINE
8
1
10
35.581
20
-68.263
11
35.579
21
-68.267
62
0
0
LINE
8
1
10
35.579
20
-68.267
11
35.546
21
-68.382
62
0
0
LINE
8
1
10
35.546
20
-68.382
11
35.546
21
-68.387
62
0
0
LINE
8
1
10
35.546
20
-68.387
11
35.504
21
-68.617
62
0
0
LINE
8
1
10
35.504
20
-68.617
11
35.49
21
-68.855
62
0
0
LINE
8
1
10
35.49
20
-68.855
11
35.489
21
-68.859
62
0
0
LINE
8
1
10
35.489
20
-68.859
11
35.492
21
-90.254
62
0
0
LINE
8
1
10
35.492
20
-90.254
11
35.493
21
-90.26
62
0
0
LINE
8
1
10
35.493
20
-90.26
11
35.504
21
-90.38
62
0
0
LINE
8
1
10
35.504
20
-90.38
11
35.522
21
-90.5
62
0
0
LINE
8
1
10
35.522
20
-90.5
11
35.522
21
-90.503
62
0
0
LINE
8
1
10
35.522
20
-90.503
11
35.546
21
-90.616
62
0
0
LINE
8
1
10
35.546
20
-90.616
11
35.614
21
-90.837
62
0
0
LINE
8
1
10
35.614
20
-90.837
11
35.616
21
-90.841
62
0
0
LINE
8
1
10
35.616
20
-90.841
11
36.369
21
-92.826
62
0
0
LINE
8
1
10
36.369
20
-92.826
11
36.473
21
-93.011
62
0
0
LINE
8
1
10
36.473
20
-93.011
11
36.597
21
-93.183
62
0
0
LINE
8
1
10
36.597
20
-93.183
11
36.995
21
-93.597
62
0
0
LINE
8
1
10
36.995
20
-93.597
11
37.142
21
-93.785
62
0
0
LINE
8
1
10
37.142
20
-93.785
11
37.264
21
-93.99
62
0
0
LINE
8
1
10
37.264
20
-93.99
11
37.361
21
-94.207
62
0
0
LINE
8
1
10
37.361
20
-94.207
11
37.432
21
-94.436
62
0
0
LINE
8
1
10
37.432
20
-94.436
11
37.475
21
-94.671
62
0
0
LINE
8
1
10
37.475
20
-94.671
11
37.473
21
-95.193
62
0
0
LINE
8
1
10
37.473
20
-95.193
11
37.421
21
-95.451
62
0
0
LINE
8
1
10
37.421
20
-95.451
11
37.419
21
-95.459
62
0
0
LINE
8
1
10
37.419
20
-95.459
11
37.42
21
-95.459
62
0
0
LINE
8
1
10
37.42
20
-95.459
11
37.334
21
-95.708
62
0
0
LINE
8
1
10
37.334
20
-95.708
11
37.216
21
-95.944
62
0
0
LINE
8
1
10
37.216
20
-95.944
11
37.069
21
-96.161
62
0
0
LINE
8
1
10
37.069
20
-96.161
11
36.894
21
-96.357
62
0
0
LINE
8
1
10
36.894
20
-96.357
11
36.894
21
-96.356
62
0
0
LINE
8
1
10
36.894
20
-96.356
11
36.52
21
-96.677
62
0
0
LINE
8
1
10
36.52
20
-96.677
11
36.363
21
-96.843
62
0
0
LINE
8
1
10
36.363
20
-96.843
11
36.227
21
-97.025
62
0
0
LINE
8
1
10
36.227
20
-97.025
11
36.108
21
-97.229
62
0
0
LINE
8
1
10
36.108
20
-97.229
11
35.489
21
-98.853
62
0
0
LINE
8
1
10
35.489
20
-98.853
11
35.564
21
-116.167
62
0
0
LINE
8
1
10
35.564
20
-116.167
11
35.788
21
-117.462
62
0
0
LINE
8
1
10
35.788
20
-117.462
11
36.158
21
-118.723
62
0
0
LINE
8
1
10
36.158
20
-118.723
11
36.67
21
-119.933
62
0
0
LINE
8
1
10
36.67
20
-119.933
11
37.316
21
-121.078
62
0
0
LINE
8
1
10
37.316
20
-121.078
11
38.088
21
-122.141
62
0
0
LINE
8
1
10
38.088
20
-122.141
11
38.977
21
-123.109
62
0
0
LINE
8
1
10
38.977
20
-123.109
11
39.971
21
-123.97
62
0
0
LINE
8
1
10
39.971
20
-123.97
11
41.055
21
-124.711
62
0
0
LINE
8
1
10
41.055
20
-124.711
11
42.218
21
-125.325
62
0
0
LINE
8
1
10
42.218
20
-125.325
11
43.442
21
-125.801
62
0
0
LINE
8
1
10
43.442
20
-125.801
11
44.713
21
-126.136
62
0
0
LINE
8
1
10
44.713
20
-126.136
11
46.014
21
-126.323
62
0
0
LINE
8
1
10
46.014
20
-126.323
11
47.327
21
-126.36
62
0
0
LINE
8
1
10
47.327
20
-126.36
11
48.637
21
-126.248
62
0
0
LINE
8
1
10
21.434
20
-39.835
11
21.434
21
-32.755
62
0
0
LINE
8
1
10
21.434
20
-32.755
11
24.564
21
-32.755
62
0
0
LINE
8
1
10
24.564
20
-32.755
11
24.564
21
-39.835
62
0
0
LINE
8
1
10
24.564
20
-39.835
11
21.434
21
-39.835
62
0
0
LINE
8
1
10
134.587
20
-103.451
11
134.873
21
-103.38
62
0
0
LINE
8
1
10
134.873
20
-103.38
11
135.152
21
-103.28
62
0
0
LINE
8
1
10
135.152
20
-103.28
11
135.671
21
-103.002
62
0
0
LINE
8
1
10
135.671
20
-103.002
11
135.916
21
-102.82
62
0
0
LINE
8
1
10
135.916
20
-102.82
11
136.128
21
-102.627
62
0
0
LINE
8
1
10
136.128
20
-102.627
11
136.502
21
-102.172
62
0
0
LINE
8
1
10
136.502
20
-102.172
11
136.658
21
-101.91
62
0
0
LINE
8
1
10
136.658
20
-101.91
11
136.78
21
-101.651
62
0
0
LINE
8
1
10
136.78
20
-101.651
11
136.88
21
-101.373
62
0
0
LINE
8
1
10
136.88
20
-101.373
11
136.952
21
-101.086
62
0
0
LINE
8
1
10
136.952
20
-101.086
11
136.995
21
-100.794
62
0
0
LINE
8
1
10
136.995
20
-100.794
11
136.995
21
-36.204
62
0
0
LINE
8
1
10
136.995
20
-36.204
11
136.952
21
-35.912
62
0
0
LINE
8
1
10
136.952
20
-35.912
11
136.88
21
-35.625
62
0
0
LINE
8
1
10
136.88
20
-35.625
11
136.78
21
-35.347
62
0
0
LINE
8
1
10
136.78
20
-35.347
11
136.503
21
-34.827
62
0
0
LINE
8
1
10
136.503
20
-34.827
11
136.321
21
-34.583
62
0
0
LINE
8
1
10
136.321
20
-34.583
11
136.128
21
-34.371
62
0
0
LINE
8
1
10
136.128
20
-34.371
11
135.672
21
-33.997
62
0
0
LINE
8
1
10
135.672
20
-33.997
11
135.411
21
-33.84
62
0
0
LINE
8
1
10
135.411
20
-33.84
11
135.152
21
-33.718
62
0
0
LINE
8
1
10
135.152
20
-33.718
11
134.873
21
-33.618
62
0
0
LINE
8
1
10
134.873
20
-33.618
11
134.587
21
-33.547
62
0
0
LINE
8
1
10
134.587
20
-33.547
11
134.295
21
-33.503
62
0
0
LINE
8
1
10
134.295
20
-33.503
11
134.289
21
-33.503
62
0
0
LINE
8
1
10
134.289
20
-33.503
11
134.288
21
-33.502
62
0
0
LINE
8
1
10
134.288
20
-33.502
11
119.705
21
-33.503
62
0
0
LINE
8
1
10
119.705
20
-33.503
11
119.412
21
-33.547
62
0
0
LINE
8
1
10
119.412
20
-33.547
11
119.126
21
-33.618
62
0
0
LINE
8
1
10
119.126
20
-33.618
11
118.847
21
-33.718
62
0
0
LINE
8
1
10
118.847
20
-33.718
11
118.328
21
-33.996
62
0
0
LINE
8
1
10
118.328
20
-33.996
11
118.083
21
-34.178
62
0
0
LINE
8
1
10
118.083
20
-34.178
11
117.871
21
-34.371
62
0
0
LINE
8
1
10
117.871
20
-34.371
11
117.497
21
-34.826
62
0
0
LINE
8
1
10
117.497
20
-34.826
11
117.341
21
-35.088
62
0
0
LINE
8
1
10
117.341
20
-35.088
11
117.219
21
-35.347
62
0
0
LINE
8
1
10
117.219
20
-35.347
11
117.119
21
-35.625
62
0
0
LINE
8
1
10
117.119
20
-35.625
11
117.047
21
-35.912
62
0
0
LINE
8
1
10
117.047
20
-35.912
11
117.004
21
-36.204
62
0
0
LINE
8
1
10
117.004
20
-36.204
11
117.004
21
-100.794
62
0
0
LINE
8
1
10
117.004
20
-100.794
11
117.047
21
-101.086
62
0
0
LINE
8
1
10
117.047
20
-101.086
11
117.119
21
-101.373
62
0
0
LINE
8
1
10
117.119
20
-101.373
11
117.219
21
-101.651
62
0
0
LINE
8
1
10
117.219
20
-101.651
11
117.496
21
-102.171
62
0
0
LINE
8
1
10
117.496
20
-102.171
11
117.678
21
-102.415
62
0
0
LINE
8
1
10
117.678
20
-102.415
11
117.871
21
-102.627
62
0
0
LINE
8
1
10
117.871
20
-102.627
11
118.327
21
-103.001
62
0
0
LINE
8
1
10
118.327
20
-103.001
11
118.588
21
-103.158
62
0
0
LINE
8
1
10
118.588
20
-103.158
11
118.847
21
-103.28
62
0
0
LINE
8
1
10
118.847
20
-103.28
11
119.126
21
-103.38
62
0
0
LINE
8
1
10
119.126
20
-103.38
11
119.412
21
-103.451
62
0
0
LINE
8
1
10
119.412
20
-103.451
11
119.704
21
-103.495
62
0
0
LINE
8
1
10
119.704
20
-103.495
11
134.295
21
-103.495
62
0
0
LINE
8
1
10
134.295
20
-103.495
11
134.587
21
-103.451
62
0
0
LINE
8
1
10
72.637
20
-129.248
11
73.925
21
-128.987
62
0
0
LINE
8
1
10
73.925
20
-128.987
11
75.174
21
-128.581
62
0
0
LINE
8
1
10
75.174
20
-128.581
11
76.37
21
-128.035
62
0
0
LINE
8
1
10
76.37
20
-128.035
11
77.495
21
-127.356
62
0
0
LINE
8
1
10
77.495
20
-127.356
11
78.536
21
-126.554
62
0
0
LINE
8
1
10
78.536
20
-126.554
11
79.479
21
-125.638
62
0
0
LINE
8
1
10
79.479
20
-125.638
11
80.311
21
-124.621
62
0
0
LINE
8
1
10
80.311
20
-124.621
11
81.022
21
-123.515
62
0
0
LINE
8
1
10
81.022
20
-123.515
11
81.601
21
-122.336
62
0
0
LINE
8
1
10
81.601
20
-122.336
11
82.043
21
-121.098
62
0
0
LINE
8
1
10
82.043
20
-121.098
11
82.341
21
-119.818
62
0
0
LINE
8
1
10
82.341
20
-119.818
11
82.49
21
-118.513
62
0
0
LINE
8
1
10
82.49
20
-118.513
11
82.509
21
-101.853
62
0
0
LINE
8
1
10
82.509
20
-101.853
11
81.629
21
-99.527
62
0
0
LINE
8
1
10
81.629
20
-99.527
11
81.525
21
-99.343
62
0
0
LINE
8
1
10
81.525
20
-99.343
11
81.401
21
-99.171
62
0
0
LINE
8
1
10
81.401
20
-99.171
11
81.003
21
-98.757
62
0
0
LINE
8
1
10
81.003
20
-98.757
11
80.856
21
-98.568
62
0
0
LINE
8
1
10
80.856
20
-98.568
11
80.734
21
-98.364
62
0
0
LINE
8
1
10
80.734
20
-98.364
11
80.637
21
-98.146
62
0
0
LINE
8
1
10
80.637
20
-98.146
11
80.566
21
-97.917
62
0
0
LINE
8
1
10
80.566
20
-97.917
11
80.523
21
-97.682
62
0
0
LINE
8
1
10
80.523
20
-97.682
11
80.525
21
-97.16
62
0
0
LINE
8
1
10
80.525
20
-97.16
11
80.577
21
-96.903
62
0
0
LINE
8
1
10
80.577
20
-96.903
11
80.579
21
-96.894
62
0
0
LINE
8
1
10
80.579
20
-96.894
11
80.578
21
-96.894
62
0
0
LINE
8
1
10
80.578
20
-96.894
11
80.664
21
-96.646
62
0
0
LINE
8
1
10
80.664
20
-96.646
11
80.781
21
-96.412
62
0
0
LINE
8
1
10
80.781
20
-96.412
11
80.928
21
-96.194
62
0
0
LINE
8
1
10
80.928
20
-96.194
11
81.104
21
-95.996
62
0
0
LINE
8
1
10
81.104
20
-95.996
11
81.104
21
-95.997
62
0
0
LINE
8
1
10
81.104
20
-95.997
11
81.478
21
-95.677
62
0
0
LINE
8
1
10
81.478
20
-95.677
11
81.635
21
-95.51
62
0
0
LINE
8
1
10
81.635
20
-95.51
11
81.771
21
-95.328
62
0
0
LINE
8
1
10
81.771
20
-95.328
11
81.887
21
-95.131
62
0
0
LINE
8
1
10
81.887
20
-95.131
11
82.42
21
-93.726
62
0
0
LINE
8
1
10
82.42
20
-93.726
11
82.452
21
-93.614
62
0
0
LINE
8
1
10
82.452
20
-93.614
11
82.452
21
-93.61
62
0
0
LINE
8
1
10
82.452
20
-93.61
11
82.494
21
-93.38
62
0
0
LINE
8
1
10
82.494
20
-93.38
11
82.508
21
-93.142
62
0
0
LINE
8
1
10
82.508
20
-93.142
11
82.509
21
-93.138
62
0
0
LINE
8
1
10
82.509
20
-93.138
11
82.506
21
-71.743
62
0
0
LINE
8
1
10
82.506
20
-71.743
11
82.505
21
-71.737
62
0
0
LINE
8
1
10
82.505
20
-71.737
11
82.494
21
-71.617
62
0
0
LINE
8
1
10
82.494
20
-71.617
11
82.476
21
-71.498
62
0
0
LINE
8
1
10
82.476
20
-71.498
11
82.476
21
-71.495
62
0
0
LINE
8
1
10
82.476
20
-71.495
11
82.452
21
-71.381
62
0
0
LINE
8
1
10
82.452
20
-71.381
11
82.384
21
-71.16
62
0
0
LINE
8
1
10
82.384
20
-71.16
11
82.382
21
-71.156
62
0
0
LINE
8
1
10
82.382
20
-71.156
11
81.887
21
-69.867
62
0
0
LINE
8
1
10
81.887
20
-69.867
11
81.771
21
-69.669
62
0
0
LINE
8
1
10
81.771
20
-69.669
11
81.635
21
-69.487
62
0
0
LINE
8
1
10
81.635
20
-69.487
11
81.478
21
-69.32
62
0
0
LINE
8
1
10
81.478
20
-69.32
11
81.103
21
-69
62
0
0
LINE
8
1
10
81.103
20
-69
11
80.928
21
-68.803
62
0
0
LINE
8
1
10
80.928
20
-68.803
11
80.781
21
-68.585
62
0
0
LINE
8
1
10
80.781
20
-68.585
11
80.664
21
-68.351
62
0
0
LINE
8
1
10
80.664
20
-68.351
11
80.578
21
-68.103
62
0
0
LINE
8
1
10
80.578
20
-68.103
11
80.579
21
-68.103
62
0
0
LINE
8
1
10
80.579
20
-68.103
11
80.526
21
-67.844
62
0
0
LINE
8
1
10
80.526
20
-67.844
11
80.509
21
-67.543
62
0
0
LINE
8
1
10
80.509
20
-67.543
11
80.523
21
-67.315
62
0
0
LINE
8
1
10
80.523
20
-67.315
11
80.566
21
-67.08
62
0
0
LINE
8
1
10
80.566
20
-67.08
11
80.637
21
-66.851
62
0
0
LINE
8
1
10
80.637
20
-66.851
11
80.734
21
-66.633
62
0
0
LINE
8
1
10
80.734
20
-66.633
11
80.856
21
-66.429
62
0
0
LINE
8
1
10
80.856
20
-66.429
11
81.003
21
-66.24
62
0
0
LINE
8
1
10
81.003
20
-66.24
11
81.401
21
-65.826
62
0
0
LINE
8
1
10
81.401
20
-65.826
11
81.525
21
-65.654
62
0
0
LINE
8
1
10
81.525
20
-65.654
11
81.629
21
-65.47
62
0
0
LINE
8
1
10
81.629
20
-65.47
11
82.417
21
-63.377
62
0
0
LINE
8
1
10
82.417
20
-63.377
11
82.419
21
-63.373
62
0
0
LINE
8
1
10
82.419
20
-63.373
11
82.452
21
-63.258
62
0
0
LINE
8
1
10
82.452
20
-63.258
11
82.452
21
-63.253
62
0
0
LINE
8
1
10
82.452
20
-63.253
11
82.494
21
-63.023
62
0
0
LINE
8
1
10
82.494
20
-63.023
11
82.508
21
-62.786
62
0
0
LINE
8
1
10
82.508
20
-62.786
11
82.509
21
-62.782
62
0
0
LINE
8
1
10
82.509
20
-62.782
11
82.434
21
-45.83
62
0
0
LINE
8
1
10
82.434
20
-45.83
11
82.21
21
-44.535
62
0
0
LINE
8
1
10
82.21
20
-44.535
11
81.84
21
-43.274
62
0
0
LINE
8
1
10
81.84
20
-43.274
11
81.328
21
-42.064
62
0
0
LINE
8
1
10
81.328
20
-42.064
11
80.682
21
-40.919
62
0
0
LINE
8
1
10
80.682
20
-40.919
11
79.91
21
-39.856
62
0
0
LINE
8
1
10
79.91
20
-39.856
11
79.021
21
-38.888
62
0
0
LINE
8
1
10
79.021
20
-38.888
11
78.027
21
-38.027
62
0
0
LINE
8
1
10
78.027
20
-38.027
11
76.943
21
-37.286
62
0
0
LINE
8
1
10
76.943
20
-37.286
11
75.78
21
-36.672
62
0
0
LINE
8
1
10
75.78
20
-36.672
11
74.556
21
-36.196
62
0
0
LINE
8
1
10
74.556
20
-36.196
11
73.285
21
-35.861
62
0
0
LINE
8
1
10
73.285
20
-35.861
11
71.984
21
-35.674
62
0
0
LINE
8
1
10
71.984
20
-35.674
11
70.671
21
-35.637
62
0
0
LINE
8
1
10
70.671
20
-35.637
11
69.361
21
-35.749
62
0
0
LINE
8
1
10
69.361
20
-35.749
11
68.073
21
-36.01
62
0
0
LINE
8
1
10
68.073
20
-36.01
11
66.824
21
-36.416
62
0
0
LINE
8
1
10
66.824
20
-36.416
11
65.628
21
-36.962
62
0
0
LINE
8
1
10
65.628
20
-36.962
11
64.503
21
-37.641
62
0
0
LINE
8
1
10
64.503
20
-37.641
11
63.462
21
-38.443
62
0
0
LINE
8
1
10
63.462
20
-38.443
11
62.519
21
-39.359
62
0
0
LINE
8
1
10
62.519
20
-39.359
11
61.687
21
-40.376
62
0
0
LINE
8
1
10
61.687
20
-40.376
11
60.976
21
-41.482
62
0
0
LINE
8
1
10
60.976
20
-41.482
11
60.397
21
-42.661
62
0
0
LINE
8
1
10
60.397
20
-42.661
11
59.955
21
-43.899
62
0
0
LINE
8
1
10
59.955
20
-43.899
11
59.657
21
-45.179
62
0
0
LINE
8
1
10
59.657
20
-45.179
11
59.508
21
-46.484
62
0
0
LINE
8
1
10
59.508
20
-46.484
11
59.492
21
-62.898
62
0
0
LINE
8
1
10
59.492
20
-62.898
11
59.493
21
-62.904
62
0
0
LINE
8
1
10
59.493
20
-62.904
11
59.504
21
-63.023
62
0
0
LINE
8
1
10
59.504
20
-63.023
11
59.522
21
-63.143
62
0
0
LINE
8
1
10
59.522
20
-63.143
11
59.522
21
-63.146
62
0
0
LINE
8
1
10
59.522
20
-63.146
11
59.546
21
-63.259
62
0
0
LINE
8
1
10
59.546
20
-63.259
11
59.614
21
-63.48
62
0
0
LINE
8
1
10
59.614
20
-63.48
11
59.616
21
-63.484
62
0
0
LINE
8
1
10
59.616
20
-63.484
11
60.02
21
-64.565
62
0
0
LINE
8
1
10
60.02
20
-64.565
11
60.226
21
-64.971
62
0
0
LINE
8
1
10
60.226
20
-64.971
11
60.363
21
-65.154
62
0
0
LINE
8
1
10
60.363
20
-65.154
11
60.52
21
-65.32
62
0
0
LINE
8
1
10
60.52
20
-65.32
11
60.895
21
-65.641
62
0
0
LINE
8
1
10
60.895
20
-65.641
11
61.07
21
-65.837
62
0
0
LINE
8
1
10
61.07
20
-65.837
11
61.217
21
-66.055
62
0
0
LINE
8
1
10
61.217
20
-66.055
11
61.334
21
-66.289
62
0
0
LINE
8
1
10
61.334
20
-66.289
11
61.42
21
-66.538
62
0
0
LINE
8
1
10
61.42
20
-66.538
11
61.419
21
-66.538
62
0
0
LINE
8
1
10
61.419
20
-66.538
11
61.472
21
-66.797
62
0
0
LINE
8
1
10
61.472
20
-66.797
11
61.489
21
-67.097
62
0
0
LINE
8
1
10
61.489
20
-67.097
11
61.475
21
-67.327
62
0
0
LINE
8
1
10
61.475
20
-67.327
11
61.432
21
-67.562
62
0
0
LINE
8
1
10
61.432
20
-67.562
11
61.361
21
-67.79
62
0
0
LINE
8
1
10
61.361
20
-67.79
11
61.264
21
-68.007
62
0
0
LINE
8
1
10
61.264
20
-68.007
11
61.141
21
-68.213
62
0
0
LINE
8
1
10
61.141
20
-68.213
11
60.994
21
-68.401
62
0
0
LINE
8
1
10
60.994
20
-68.401
11
60.597
21
-68.814
62
0
0
LINE
8
1
10
60.597
20
-68.814
11
60.473
21
-68.986
62
0
0
LINE
8
1
10
60.473
20
-68.986
11
60.369
21
-69.171
62
0
0
LINE
8
1
10
60.369
20
-69.171
11
59.581
21
-71.263
62
0
0
LINE
8
1
10
59.581
20
-71.263
11
59.579
21
-71.267
62
0
0
LINE
8
1
10
59.579
20
-71.267
11
59.546
21
-71.382
62
0
0
LINE
8
1
10
59.546
20
-71.382
11
59.546
21
-71.387
62
0
0
LINE
8
1
10
59.546
20
-71.387
11
59.504
21
-71.617
62
0
0
LINE
8
1
10
59.504
20
-71.617
11
59.49
21
-71.855
62
0
0
LINE
8
1
10
59.49
20
-71.855
11
59.489
21
-71.859
62
0
0
LINE
8
1
10
59.489
20
-71.859
11
59.492
21
-93.254
62
0
0
LINE
8
1
10
59.492
20
-93.254
11
59.493
21
-93.26
62
0
0
LINE
8
1
10
59.493
20
-93.26
11
59.504
21
-93.38
62
0
0
LINE
8
1
10
59.504
20
-93.38
11
59.522
21
-93.5
62
0
0
LINE
8
1
10
59.522
20
-93.5
11
59.522
21
-93.503
62
0
0
LINE
8
1
10
59.522
20
-93.503
11
59.546
21
-93.616
62
0
0
LINE
8
1
10
59.546
20
-93.616
11
59.614
21
-93.837
62
0
0
LINE
8
1
10
59.614
20
-93.837
11
59.616
21
-93.841
62
0
0
LINE
8
1
10
59.616
20
-93.841
11
60.369
21
-95.826
62
0
0
LINE
8
1
10
60.369
20
-95.826
11
60.473
21
-96.011
62
0
0
LINE
8
1
10
60.473
20
-96.011
11
60.597
21
-96.183
62
0
0
LINE
8
1
10
60.597
20
-96.183
11
60.995
21
-96.597
62
0
0
LINE
8
1
10
60.995
20
-96.597
11
61.142
21
-96.785
62
0
0
LINE
8
1
10
61.142
20
-96.785
11
61.264
21
-96.99
62
0
0
LINE
8
1
10
61.264
20
-96.99
11
61.361
21
-97.207
62
0
0
LINE
8
1
10
61.361
20
-97.207
11
61.432
21
-97.436
62
0
0
LINE
8
1
10
61.432
20
-97.436
11
61.475
21
-97.671
62
0
0
LINE
8
1
10
61.475
20
-97.671
11
61.473
21
-98.193
62
0
0
LINE
8
1
10
61.473
20
-98.193
11
61.421
21
-98.451
62
0
0
LINE
8
1
10
61.421
20
-98.451
11
61.419
21
-98.459
62
0
0
LINE
8
1
10
61.419
20
-98.459
11
61.42
21
-98.459
62
0
0
LINE
8
1
10
61.42
20
-98.459
11
61.334
21
-98.708
62
0
0
LINE
8
1
10
61.334
20
-98.708
11
61.216
21
-98.944
62
0
0
LINE
8
1
10
61.216
20
-98.944
11
61.069
21
-99.161
62
0
0
LINE
8
1
10
61.069
20
-99.161
11
60.894
21
-99.357
62
0
0
LINE
8
1
10
60.894
20
-99.357
11
60.894
21
-99.356
62
0
0
LINE
8
1
10
60.894
20
-99.356
11
60.52
21
-99.677
62
0
0
LINE
8
1
10
60.52
20
-99.677
11
60.363
21
-99.843
62
0
0
LINE
8
1
10
60.363
20
-99.843
11
60.227
21
-100.025
62
0
0
LINE
8
1
10
60.227
20
-100.025
11
60.108
21
-100.229
62
0
0
LINE
8
1
10
60.108
20
-100.229
11
59.489
21
-101.853
62
0
0
LINE
8
1
10
59.489
20
-101.853
11
59.564
21
-119.167
62
0
0
LINE
8
1
10
59.564
20
-119.167
11
59.788
21
-120.462
62
0
0
LINE
8
1
10
59.788
20
-120.462
11
60.158
21
-121.723
62
0
0
LINE
8
1
10
60.158
20
-121.723
11
60.67
21
-122.933
62
0
0
LINE
8
1
10
60.67
20
-122.933
11
61.316
21
-124.078
62
0
0
LINE
8
1
10
61.316
20
-124.078
11
62.088
21
-125.141
62
0
0
LINE
8
1
10
62.088
20
-125.141
11
62.977
21
-126.109
62
0
0
LINE
8
1
10
62.977
20
-126.109
11
63.971
21
-126.97
62
0
0
LINE
8
1
10
63.971
20
-126.97
11
65.055
21
-127.711
62
0
0
LINE
8
1
10
65.055
20
-127.711
11
66.218
21
-128.325
62
0
0
LINE
8
1
10
66.218
20
-128.325
11
67.442
21
-128.801
62
0
0
LINE
8
1
10
67.442
20
-128.801
11
68.713
21
-129.136
62
0
0
LINE
8
1
10
68.713
20
-129.136
11
70.014
21
-129.323
62
0
0
LINE
8
1
10
70.014
20
-129.323
11
71.327
21
-129.36
62
0
0
LINE
8
1
10
71.327
20
-129.36
11
72.637
21
-129.248
62
0
0
CIRCLE
8
1
10
-23
20
-37.744
40
2.01475
62
0
0
CIRCLE
8
1
10
0.999
20
-37.744
40
2.01449
62
0
0
CIRCLE
8
1
10
46.999
20
-38.141
40
2.01484
62
0
0
CIRCLE
8
1
10
120.999
20
-38.499
40
2.01483
62
0
0
CIRCLE
8
1
10
126.999
20
-38.499
40
2.01483
62
0
0
CIRCLE
8
1
10
132.999
20
-38.499
40
2.01483
62
0
0
LINE
8
1
10
-138.49
20
-70.508
11
-131.51
21
-70.508
62
0
0
LINE
8
1
10
-131.51
20
-70.508
11
-131.51
21
-73.508
62
0
0
LINE
8
1
10
-131.51
20
-73.508
11
-124.49
21
-73.508
62
0
0
LINE
8
1
10
-124.49
20
-73.508
11
-124.49
21
-70.508
62
0
0
LINE
8
1
10
-124.49
20
-70.508
11
-121.494
21
-70.508
62
0
0
LINE
8
1
10
-121.494
20
-70.508
11
-119.799
21
-66.283
62
0
0
LINE
8
1
10
-119.799
20
-66.283
11
-118.759
21
-62.532
62
0
0
LINE
8
1
10
-118.759
20
-62.532
11
-118.208
21
-59.25
62
0
0
LINE
8
1
10
-118.208
20
-59.25
11
-117.993
21
-55.968
62
0
0
LINE
8
1
10
-117.993
20
-55.968
11
-118.157
21
-52.216
62
0
0
LINE
8
1
10
-118.157
20
-52.216
11
-118.652
21
-48.966
62
0
0
LINE
8
1
10
-118.652
20
-48.966
11
-119.644
21
-45.183
62
0
0
LINE
8
1
10
-119.644
20
-45.183
11
-121.26
21
-40.995
62
0
0
LINE
8
1
10
-121.26
20
-40.995
11
-121.494
21
-40.488
62
0
0
LINE
8
1
10
-121.494
20
-40.488
11
-124.49
21
-40.488
62
0
0
LINE
8
1
10
-124.49
20
-40.488
11
-124.49
21
-37.488
62
0
0
LINE
8
1
10
-124.49
20
-37.488
11
-131.51
21
-37.488
62
0
0
LINE
8
1
10
-131.51
20
-37.488
11
-131.51
21
-40.488
62
0
0
LINE
8
1
10
-131.51
20
-40.488
11
-138.49
21
-40.488
62
0
0
LINE
8
1
10
-138.49
20
-40.488
11
-138.49
21
-37.488
62
0
0
LINE
8
1
10
-138.49
20
-37.488
11
-145.51
21
-37.488
62
0
0
LINE
8
1
10
-145.51
20
-37.488
11
-145.51
21
-40.488
62
0
0
LINE
8
1
10
-145.51
20
-40.488
11
-147.01
21
-40.488
62
0
0
LINE
8
1
10
-147.01
20
-40.488
11
-147.01
21
-70.508
62
0
0
LINE
8
1
10
-147.01
20
-70.508
11
-145.51
21
-70.508
62
0
0
LINE
8
1
10
-145.51
20
-70.508
11
-145.51
21
-73.508
62
0
0
LINE
8
1
10
-145.51
20
-73.508
11
-138.49
21
-73.508
62
0
0
LINE
8
1
10
-138.49
20
-73.508
11
-138.49
21
-70.508
62
0
0
CIRCLE
8
1
10
70.999
20
-41.141
40
2.01484
62
0
0
LINE
8
1
10
96.637
20
-133.248
11
97.925
21
-132.987
62
0
0
LINE
8
1
10
97.925
20
-132.987
11
99.174
21
-132.581
62
0
0
LINE
8
1
10
99.174
20
-132.581
11
100.37
21
-132.035
62
0
0
LINE
8
1
10
100.37
20
-132.035
11
101.495
21
-131.356
62
0
0
LINE
8
1
10
101.495
20
-131.356
11
102.536
21
-130.554
62
0
0
LINE
8
1
10
102.536
20
-130.554
11
103.479
21
-129.638
62
0
0
LINE
8
1
10
103.479
20
-129.638
11
104.311
21
-128.621
62
0
0
LINE
8
1
10
104.311
20
-128.621
11
105.022
21
-127.515
62
0
0
LINE
8
1
10
105.022
20
-127.515
11
105.601
21
-126.336
62
0
0
LINE
8
1
10
105.601
20
-126.336
11
106.043
21
-125.098
62
0
0
LINE
8
1
10
106.043
20
-125.098
11
106.341
21
-123.818
62
0
0
LINE
8
1
10
106.341
20
-123.818
11
106.49
21
-122.513
62
0
0
LINE
8
1
10
106.49
20
-122.513
11
106.509
21
-105.853
62
0
0
LINE
8
1
10
106.509
20
-105.853
11
105.629
21
-103.527
62
0
0
LINE
8
1
10
105.629
20
-103.527
11
105.525
21
-103.343
62
0
0
LINE
8
1
10
105.525
20
-103.343
11
105.401
21
-103.171
62
0
0
LINE
8
1
10
105.401
20
-103.171
11
105.003
21
-102.757
62
0
0
LINE
8
1
10
105.003
20
-102.757
11
104.856
21
-102.568
62
0
0
LINE
8
1
10
104.856
20
-102.568
11
104.734
21
-102.364
62
0
0
LINE
8
1
10
104.734
20
-102.364
11
104.637
21
-102.146
62
0
0
LINE
8
1
10
104.637
20
-102.146
11
104.566
21
-101.917
62
0
0
LINE
8
1
10
104.566
20
-101.917
11
104.523
21
-101.682
62
0
0
LINE
8
1
10
104.523
20
-101.682
11
104.525
21
-101.16
62
0
0
LINE
8
1
10
104.525
20
-101.16
11
104.577
21
-100.903
62
0
0
LINE
8
1
10
104.577
20
-100.903
11
104.579
21
-100.894
62
0
0
LINE
8
1
10
104.579
20
-100.894
11
104.578
21
-100.894
62
0
0
LINE
8
1
10
104.578
20
-100.894
11
104.664
21
-100.646
62
0
0
LINE
8
1
10
104.664
20
-100.646
11
104.781
21
-100.412
62
0
0
LINE
8
1
10
104.781
20
-100.412
11
104.928
21
-100.194
62
0
0
LINE
8
1
10
104.928
20
-100.194
11
105.104
21
-99.996
62
0
0
LINE
8
1
10
105.104
20
-99.996
11
105.104
21
-99.997
62
0
0
LINE
8
1
10
105.104
20
-99.997
11
105.478
21
-99.677
62
0
0
LINE
8
1
10
105.478
20
-99.677
11
105.635
21
-99.51
62
0
0
LINE
8
1
10
105.635
20
-99.51
11
105.771
21
-99.328
62
0
0
LINE
8
1
10
105.771
20
-99.328
11
105.887
21
-99.131
62
0
0
LINE
8
1
10
105.887
20
-99.131
11
106.42
21
-97.726
62
0
0
LINE
8
1
10
106.42
20
-97.726
11
106.452
21
-97.614
62
0
0
LINE
8
1
10
106.452
20
-97.614
11
106.452
21
-97.61
62
0
0
LINE
8
1
10
106.452
20
-97.61
11
106.494
21
-97.38
62
0
0
LINE
8
1
10
106.494
20
-97.38
11
106.508
21
-97.142
62
0
0
LINE
8
1
10
106.508
20
-97.142
11
106.509
21
-97.138
62
0
0
LINE
8
1
10
106.509
20
-97.138
11
106.506
21
-75.743
62
0
0
LINE
8
1
10
106.506
20
-75.743
11
106.505
21
-75.737
62
0
0
LINE
8
1
10
106.505
20
-75.737
11
106.494
21
-75.617
62
0
0
LINE
8
1
10
106.494
20
-75.617
11
106.476
21
-75.498
62
0
0
LINE
8
1
10
106.476
20
-75.498
11
106.476
21
-75.495
62
0
0
LINE
8
1
10
106.476
20
-75.495
11
106.452
21
-75.381
62
0
0
LINE
8
1
10
106.452
20
-75.381
11
106.384
21
-75.16
62
0
0
LINE
8
1
10
106.384
20
-75.16
11
106.382
21
-75.156
62
0
0
LINE
8
1
10
106.382
20
-75.156
11
105.887
21
-73.867
62
0
0
LINE
8
1
10
105.887
20
-73.867
11
105.771
21
-73.669
62
0
0
LINE
8
1
10
105.771
20
-73.669
11
105.635
21
-73.487
62
0
0
LINE
8
1
10
105.635
20
-73.487
11
105.478
21
-73.32
62
0
0
LINE
8
1
10
105.478
20
-73.32
11
105.103
21
-73
62
0
0
LINE
8
1
10
105.103
20
-73
11
104.928
21
-72.803
62
0
0
LINE
8
1
10
104.928
20
-72.803
11
104.781
21
-72.585
62
0
0
LINE
8
1
10
104.781
20
-72.585
11
104.664
21
-72.351
62
0
0
LINE
8
1
10
104.664
20
-72.351
11
104.578
21
-72.103
62
0
0
LINE
8
1
10
104.578
20
-72.103
11
104.579
21
-72.103
62
0
0
LINE
8
1
10
104.579
20
-72.103
11
104.526
21
-71.844
62
0
0
LINE
8
1
10
104.526
20
-71.844
11
104.509
21
-71.543
62
0
0
LINE
8
1
10
104.509
20
-71.543
11
104.523
21
-71.315
62
0
0
LINE
8
1
10
104.523
20
-71.315
11
104.566
21
-71.08
62
0
0
LINE
8
1
10
104.566
20
-71.08
11
104.637
21
-70.851
62
0
0
LINE
8
1
10
104.637
20
-70.851
11
104.734
21
-70.633
62
0
0
LINE
8
1
10
104.734
20
-70.633
11
104.856
21
-70.429
62
0
0
LINE
8
1
10
104.856
20
-70.429
11
105.003
21
-70.24
62
0
0
LINE
8
1
10
105.003
20
-70.24
11
105.401
21
-69.826
62
0
0
LINE
8
1
10
105.401
20
-69.826
11
105.525
21
-69.654
62
0
0
LINE
8
1
10
105.525
20
-69.654
11
105.629
21
-69.47
62
0
0
LINE
8
1
10
105.629
20
-69.47
11
106.417
21
-67.377
62
0
0
LINE
8
1
10
106.417
20
-67.377
11
106.419
21
-67.373
62
0
0
LINE
8
1
10
106.419
20
-67.373
11
106.452
21
-67.258
62
0
0
LINE
8
1
10
106.452
20
-67.258
11
106.452
21
-67.253
62
0
0
LINE
8
1
10
106.452
20
-67.253
11
106.494
21
-67.023
62
0
0
LINE
8
1
10
106.494
20
-67.023
11
106.508
21
-66.786
62
0
0
LINE
8
1
10
106.508
20
-66.786
11
106.509
21
-66.782
62
0
0
LINE
8
1
10
106.509
20
-66.782
11
106.434
21
-49.83
62
0
0
LINE
8
1
10
106.434
20
-49.83
11
106.21
21
-48.535
62
0
0
LINE
8
1
10
106.21
20
-48.535
11
105.84
21
-47.274
62
0
0
LINE
8
1
10
105.84
20
-47.274
11
105.328
21
-46.064
62
0
0
LINE
8
1
10
105.328
20
-46.064
11
104.682
21
-44.919
62
0
0
LINE
8
1
10
104.682
20
-44.919
11
103.91
21
-43.856
62
0
0
LINE
8
1
10
103.91
20
-43.856
11
103.021
21
-42.888
62
0
0
LINE
8
1
10
103.021
20
-42.888
11
102.027
21
-42.027
62
0
0
LINE
8
1
10
102.027
20
-42.027
11
100.943
21
-41.286
62
0
0
LINE
8
1
10
100.943
20
-41.286
11
99.78
21
-40.672
62
0
0
LINE
8
1
10
99.78
20
-40.672
11
98.556
21
-40.196
62
0
0
LINE
8
1
10
98.556
20
-40.196
11
97.285
21
-39.861
62
0
0
LINE
8
1
10
97.285
20
-39.861
11
95.984
21
-39.674
62
0
0
LINE
8
1
10
95.984
20
-39.674
11
94.671
21
-39.637
62
0
0
LINE
8
1
10
94.671
20
-39.637
11
93.361
21
-39.749
62
0
0
LINE
8
1
10
93.361
20
-39.749
11
92.073
21
-40.01
62
0
0
LINE
8
1
10
92.073
20
-40.01
11
90.824
21
-40.416
62
0
0
LINE
8
1
10
90.824
20
-40.416
11
89.628
21
-40.962
62
0
0
LINE
8
1
10
89.628
20
-40.962
11
88.503
21
-41.641
62
0
0
LINE
8
1
10
88.503
20
-41.641
11
87.462
21
-42.443
62
0
0
LINE
8
1
10
87.462
20
-42.443
11
86.519
21
-43.359
62
0
0
LINE
8
1
10
86.519
20
-43.359
11
85.687
21
-44.376
62
0
0
LINE
8
1
10
85.687
20
-44.376
11
84.976
21
-45.482
62
0
0
LINE
8
1
10
84.976
20
-45.482
11
84.397
21
-46.661
62
0
0
LINE
8
1
10
84.397
20
-46.661
11
83.955
21
-47.899
62
0
0
LINE
8
1
10
83.955
20
-47.899
11
83.657
21
-49.179
62
0
0
LINE
8
1
10
83.657
20
-49.179
11
83.508
21
-50.484
62
0
0
LINE
8
1
10
83.508
20
-50.484
11
83.492
21
-66.898
62
0
0
LINE
8
1
10
83.492
20
-66.898
11
83.493
21
-66.904
62
0
0
LINE
8
1
10
83.493
20
-66.904
11
83.504
21
-67.023
62
0
0
LINE
8
1
10
83.504
20
-67.023
11
83.522
21
-67.143
62
0
0
LINE
8
1
10
83.522
20
-67.143
11
83.522
21
-67.146
62
0
0
LINE
8
1
10
83.522
20
-67.146
11
83.546
21
-67.259
62
0
0
LINE
8
1
10
83.546
20
-67.259
11
83.614
21
-67.48
62
0
0
LINE
8
1
10
83.614
20
-67.48
11
83.616
21
-67.484
62
0
0
LINE
8
1
10
83.616
20
-67.484
11
84.02
21
-68.565
62
0
0
LINE
8
1
10
84.02
20
-68.565
11
84.226
21
-68.971
62
0
0
LINE
8
1
10
84.226
20
-68.971
11
84.363
21
-69.154
62
0
0
LINE
8
1
10
84.363
20
-69.154
11
84.52
21
-69.32
62
0
0
LINE
8
1
10
84.52
20
-69.32
11
84.895
21
-69.641
62
0
0
LINE
8
1
10
84.895
20
-69.641
11
85.07
21
-69.837
62
0
0
LINE
8
1
10
85.07
20
-69.837
11
85.217
21
-70.055
62
0
0
LINE
8
1
10
85.217
20
-70.055
11
85.334
21
-70.289
62
0
0
LINE
8
1
10
85.334
20
-70.289
11
85.42
21
-70.538
62
0
0
LINE
8
1
10
85.42
20
-70.538
11
85.419
21
-70.538
62
0
0
LINE
8
1
10
85.419
20
-70.538
11
85.472
21
-70.797
62
0
0
LINE
8
1
10
85.472
20
-70.797
11
85.489
21
-71.097
62
0
0
LINE
8
1
10
85.489
20
-71.097
11
85.475
21
-71.327
62
0
0
LINE
8
1
10
85.475
20
-71.327
11
85.432
21
-71.562
62
0
0
LINE
8
1
10
85.432
20
-71.562
11
85.361
21
-71.79
62
0
0
LINE
8
1
10
85.361
20
-71.79
11
85.264
21
-72.007
62
0
0
LINE
8
1
10
85.264
20
-72.007
11
85.141
21
-72.213
62
0
0
LINE
8
1
10
85.141
20
-72.213
11
84.994
21
-72.401
62
0
0
LINE
8
1
10
84.994
20
-72.401
11
84.597
21
-72.814
62
0
0
LINE
8
1
10
84.597
20
-72.814
11
84.473
21
-72.986
62
0
0
LINE
8
1
10
84.473
20
-72.986
11
84.369
21
-73.171
62
0
0
LINE
8
1
10
84.369
20
-73.171
11
83.581
21
-75.263
62
0
0
LINE
8
1
10
83.581
20
-75.263
11
83.579
21
-75.267
62
0
0
LINE
8
1
10
83.579
20
-75.267
11
83.546
21
-75.382
62
0
0
LINE
8
1
10
83.546
20
-75.382
11
83.546
21
-75.387
62
0
0
LINE
8
1
10
83.546
20
-75.387
11
83.504
21
-75.617
62
0
0
LINE
8
1
10
83.504
20
-75.617
11
83.49
21
-75.855
62
0
0
LINE
8
1
10
83.49
20
-75.855
11
83.489
21
-75.859
62
0
0
LINE
8
1
10
83.489
20
-75.859
11
83.492
21
-97.254
62
0
0
LINE
8
1
10
83.492
20
-97.254
11
83.493
21
-97.26
62
0
0
LINE
8
1
10
83.493
20
-97.26
11
83.504
21
-97.38
62
0
0
LINE
8
1
10
83.504
20
-97.38
11
83.522
21
-97.5
62
0
0
LINE
8
1
10
83.522
20
-97.5
11
83.522
21
-97.503
62
0
0
LINE
8
1
10
83.522
20
-97.503
11
83.546
21
-97.616
62
0
0
LINE
8
1
10
83.546
20
-97.616
11
83.614
21
-97.837
62
0
0
LINE
8
1
10
83.614
20
-97.837
11
83.616
21
-97.841
62
0
0
LINE
8
1
10
83.616
20
-97.841
11
84.369
21
-99.826
62
0
0
LINE
8
1
10
84.369
20
-99.826
11
84.473
21
-100.011
62
0
0
LINE
8
1
10
84.473
20
-100.011
11
84.597
21
-100.183
62
0
0
LINE
8
1
10
84.597
20
-100.183
11
84.995
21
-100.597
62
0
0
LINE
8
1
10
84.995
20
-100.597
11
85.142
21
-100.785
62
0
0
LINE
8
1
10
85.142
20
-100.785
11
85.264
21
-100.99
62
0
0
LINE
8
1
10
85.264
20
-100.99
11
85.361
21
-101.207
62
0
0
LINE
8
1
10
85.361
20
-101.207
11
85.432
21
-101.436
62
0
0
LINE
8
1
10
85.432
20
-101.436
11
85.475
21
-101.671
62
0
0
LINE
8
1
10
85.475
20
-101.671
11
85.473
21
-102.193
62
0
0
LINE
8
1
10
85.473
20
-102.193
11
85.421
21
-102.451
62
0
0
LINE
8
1
10
85.421
20
-102.451
11
85.419
21
-102.459
62
0
0
LINE
8
1
10
85.419
20
-102.459
11
85.42
21
-102.459
62
0
0
LINE
8
1
10
85.42
20
-102.459
11
85.334
21
-102.708
62
0
0
LINE
8
1
10
85.334
20
-102.708
11
85.216
21
-102.944
62
0
0
LINE
8
1
10
85.216
20
-102.944
11
85.069
21
-103.161
62
0
0
LINE
8
1
10
85.069
20
-103.161
11
84.894
21
-103.357
62
0
0
LINE
8
1
10
84.894
20
-103.357
11
84.894
21
-103.356
62
0
0
LINE
8
1
10
84.894
20
-103.356
11
84.52
21
-103.677
62
0
0
LINE
8
1
10
84.52
20
-103.677
11
84.363
21
-103.843
62
0
0
LINE
8
1
10
84.363
20
-103.843
11
84.227
21
-104.025
62
0
0
LINE
8
1
10
84.227
20
-104.025
11
84.108
21
-104.229
62
0
0
LINE
8
1
10
84.108
20
-104.229
11
83.489
21
-105.853
62
0
0
LINE
8
1
10
83.489
20
-105.853
11
83.564
21
-123.167
62
0
0
LINE
8
1
10
83.564
20
-123.167
11
83.788
21
-124.462
62
0
0
LINE
8
1
10
83.788
20
-124.462
11
84.158
21
-125.723
62
0
0
LINE
8
1
10
84.158
20
-125.723
11
84.67
21
-126.933
62
0
0
LINE
8
1
10
84.67
20
-126.933
11
85.316
21
-128.077
62
0
0
LINE
8
1
10
85.316
20
-128.077
11
86.088
21
-129.141
62
0
0
LINE
8
1
10
86.088
20
-129.141
11
86.977
21
-130.109
62
0
0
LINE
8
1
10
86.977
20
-130.109
11
87.971
21
-130.97
62
0
0
LINE
8
1
10
87.971
20
-130.97
11
89.055
21
-131.711
62
0
0
LINE
8
1
10
89.055
20
-131.711
11
90.218
21
-132.325
62
0
0
LINE
8
1
10
90.218
20
-132.325
11
91.442
21
-132.801
62
0
0
LINE
8
1
10
91.442
20
-132.801
11
92.713
21
-133.136
62
0
0
LINE
8
1
10
92.713
20
-133.136
11
94.014
21
-133.323
62
0
0
LINE
8
1
10
94.014
20
-133.323
11
95.327
21
-133.36
62
0
0
LINE
8
1
10
95.327
20
-133.36
11
96.637
21
-133.248
62
0
0
CIRCLE
8
1
10
40.999
20
-44.141
40
2.01485
62
0
0
CIRCLE
8
1
10
46.999
20
-44.141
40
2.01484
62
0
0
CIRCLE
8
1
10
52.999
20
-44.141
40
2.01482
62
0
0
CIRCLE
8
1
10
94.999
20
-45.141
40
2.01484
62
0
0
CIRCLE
8
1
10
64.999
20
-47.141
40
2.01485
62
0
0
CIRCLE
8
1
10
70.999
20
-47.141
40
2.01484
62
0
0
CIRCLE
8
1
10
76.999
20
-47.141
40
2.01482
62
0
0
CIRCLE
8
1
10
46.999
20
-50.141
40
2.01484
62
0
0
CIRCLE
8
1
10
88.999
20
-51.141
40
2.01485
62
0
0
CIRCLE
8
1
10
94.999
20
-51.141
40
2.01484
62
0
0
CIRCLE
8
1
10
100.999
20
-51.141
40
2.01482
62
0
0
CIRCLE
8
1
10
70.999
20
-53.141
40
2.01484
62
0
0
CIRCLE
8
1
10
120.999
20
-56.499
40
2.01486
62
0
0
CIRCLE
8
1
10
126.999
20
-56.499
40
2.01483
62
0
0
CIRCLE
8
1
10
132.999
20
-56.499
40
2.01483
62
0
0
CIRCLE
8
1
10
94.999
20
-57.141
40
2.01484
62
0
0
CIRCLE
8
1
10
-70.999
20
-56.998
40
1.58987
62
0
0
CIRCLE
8
1
10
51.998
20
-74.498
40
1.49014
62
0
0
CIRCLE
8
1
10
41.998
20
-74.498
40
1.49015
62
0
0
CIRCLE
8
1
10
22.998
20
-76.744
40
2.01474
62
0
0
CIRCLE
8
1
10
75.998
20
-77.498
40
1.49014
62
0
0
CIRCLE
8
1
10
65.998
20
-77.498
40
1.49015
62
0
0
CIRCLE
8
1
10
120.999
20
-80.499
40
2.01486
62
0
0
CIRCLE
8
1
10
126.999
20
-80.499
40
2.01482
62
0
0
CIRCLE
8
1
10
132.999
20
-80.499
40
2.01482
62
0
0
CIRCLE
8
1
10
99.998
20
-81.498
40
1.49014
62
0
0
CIRCLE
8
1
10
89.998
20
-81.498
40
1.49015
62
0
0
CIRCLE
8
1
10
16.998
20
-82.744
40
2.01474
62
0
0
CIRCLE
8
1
10
22.998
20
-82.744
40
2.01474
62
0
0
CIRCLE
8
1
10
28.998
20
-82.744
40
2.01474
62
0
0
CIRCLE
8
1
10
51.998
20
-84.498
40
1.49014
62
0
0
CIRCLE
8
1
10
41.998
20
-84.498
40
1.49015
62
0
0
CIRCLE
8
1
10
75.998
20
-87.498
40
1.49014
62
0
0
CIRCLE
8
1
10
65.998
20
-87.498
40
1.49015
62
0
0
CIRCLE
8
1
10
22.998
20
-88.744
40
2.01474
62
0
0
CIRCLE
8
1
10
99.998
20
-91.498
40
1.49014
62
0
0
CIRCLE
8
1
10
89.998
20
-91.498
40
1.49015
62
0
0
CIRCLE
8
1
10
-29.999
20
-97.998
40
1.58987
62
0
0
CIRCLE
8
1
10
-111.999
20
-97.998
40
1.58993
62
0
0
CIRCLE
8
1
10
120.999
20
-98.499
40
2.01486
62
0
0
CIRCLE
8
1
10
126.999
20
-98.499
40
2.01486
62
0
0
CIRCLE
8
1
10
132.999
20
-98.499
40
2.01486
62
0
0
LINE
8
1
10
145.587
20
-174.451
11
145.873
21
-174.38
62
0
0
LINE
8
1
10
145.873
20
-174.38
11
146.152
21
-174.28
62
0
0
LINE
8
1
10
146.152
20
-174.28
11
146.671
21
-174.002
62
0
0
LINE
8
1
10
146.671
20
-174.002
11
146.916
21
-173.82
62
0
0
LINE
8
1
10
146.916
20
-173.82
11
147.128
21
-173.627
62
0
0
LINE
8
1
10
147.128
20
-173.627
11
147.502
21
-173.172
62
0
0
LINE
8
1
10
147.502
20
-173.172
11
147.658
21
-172.91
62
0
0
LINE
8
1
10
147.658
20
-172.91
11
147.78
21
-172.651
62
0
0
LINE
8
1
10
147.78
20
-172.651
11
147.88
21
-172.373
62
0
0
LINE
8
1
10
147.88
20
-172.373
11
147.952
21
-172.086
62
0
0
LINE
8
1
10
147.952
20
-172.086
11
147.995
21
-171.794
62
0
0
LINE
8
1
10
147.995
20
-171.794
11
147.995
21
-107.204
62
0
0
LINE
8
1
10
147.995
20
-107.204
11
147.952
21
-106.912
62
0
0
LINE
8
1
10
147.952
20
-106.912
11
147.88
21
-106.625
62
0
0
LINE
8
1
10
147.88
20
-106.625
11
147.78
21
-106.347
62
0
0
LINE
8
1
10
147.78
20
-106.347
11
147.503
21
-105.827
62
0
0
LINE
8
1
10
147.503
20
-105.827
11
147.321
21
-105.583
62
0
0
LINE
8
1
10
147.321
20
-105.583
11
147.128
21
-105.371
62
0
0
LINE
8
1
10
147.128
20
-105.371
11
146.672
21
-104.997
62
0
0
LINE
8
1
10
146.672
20
-104.997
11
146.411
21
-104.84
62
0
0
LINE
8
1
10
146.411
20
-104.84
11
146.152
21
-104.718
62
0
0
LINE
8
1
10
146.152
20
-104.718
11
145.873
21
-104.618
62
0
0
LINE
8
1
10
145.873
20
-104.618
11
145.587
21
-104.547
62
0
0
LINE
8
1
10
145.587
20
-104.547
11
145.295
21
-104.503
62
0
0
LINE
8
1
10
145.295
20
-104.503
11
145.289
21
-104.503
62
0
0
LINE
8
1
10
145.289
20
-104.503
11
145.288
21
-104.502
62
0
0
LINE
8
1
10
145.288
20
-104.502
11
130.705
21
-104.503
62
0
0
LINE
8
1
10
130.705
20
-104.503
11
130.412
21
-104.547
62
0
0
LINE
8
1
10
130.412
20
-104.547
11
130.126
21
-104.618
62
0
0
LINE
8
1
10
130.126
20
-104.618
11
129.847
21
-104.718
62
0
0
LINE
8
1
10
129.847
20
-104.718
11
129.328
21
-104.996
62
0
0
LINE
8
1
10
129.328
20
-104.996
11
129.083
21
-105.178
62
0
0
LINE
8
1
10
129.083
20
-105.178
11
128.871
21
-105.371
62
0
0
LINE
8
1
10
128.871
20
-105.371
11
128.497
21
-105.826
62
0
0
LINE
8
1
10
128.497
20
-105.826
11
128.341
21
-106.088
62
0
0
LINE
8
1
10
128.341
20
-106.088
11
128.219
21
-106.347
62
0
0
LINE
8
1
10
128.219
20
-106.347
11
128.119
21
-106.625
62
0
0
LINE
8
1
10
128.119
20
-106.625
11
128.047
21
-106.912
62
0
0
LINE
8
1
10
128.047
20
-106.912
11
128.004
21
-107.204
62
0
0
LINE
8
1
10
128.004
20
-107.204
11
128.004
21
-171.794
62
0
0
LINE
8
1
10
128.004
20
-171.794
11
128.047
21
-172.086
62
0
0
LINE
8
1
10
128.047
20
-172.086
11
128.119
21
-172.373
62
0
0
LINE
8
1
10
128.119
20
-172.373
11
128.219
21
-172.651
62
0
0
LINE
8
1
10
128.219
20
-172.651
11
128.496
21
-173.171
62
0
0
LINE
8
1
10
128.496
20
-173.171
11
128.678
21
-173.415
62
0
0
LINE
8
1
10
128.678
20
-173.415
11
128.871
21
-173.627
62
0
0
LINE
8
1
10
128.871
20
-173.627
11
129.327
21
-174.001
62
0
0
LINE
8
1
10
129.327
20
-174.001
11
129.588
21
-174.158
62
0
0
LINE
8
1
10
129.588
20
-174.158
11
129.847
21
-174.28
62
0
0
LINE
8
1
10
129.847
20
-174.28
11
130.126
21
-174.38
62
0
0
LINE
8
1
10
130.126
20
-174.38
11
130.412
21
-174.451
62
0
0
LINE
8
1
10
130.412
20
-174.451
11
130.704
21
-174.495
62
0
0
LINE
8
1
10
130.704
20
-174.495
11
145.295
21
-174.495
62
0
0
LINE
8
1
10
145.295
20
-174.495
11
145.587
21
-174.451
62
0
0
LINE
8
1
10
124.587
20
-174.451
11
124.873
21
-174.38
62
0
0
LINE
8
1
10
124.873
20
-174.38
11
125.152
21
-174.28
62
0
0
LINE
8
1
10
125.152
20
-174.28
11
125.671
21
-174.002
62
0
0
LINE
8
1
10
125.671
20
-174.002
11
125.916
21
-173.82
62
0
0
LINE
8
1
10
125.916
20
-173.82
11
126.128
21
-173.627
62
0
0
LINE
8
1
10
126.128
20
-173.627
11
126.502
21
-173.172
62
0
0
LINE
8
1
10
126.502
20
-173.172
11
126.658
21
-172.91
62
0
0
LINE
8
1
10
126.658
20
-172.91
11
126.78
21
-172.651
62
0
0
LINE
8
1
10
126.78
20
-172.651
11
126.88
21
-172.373
62
0
0
LINE
8
1
10
126.88
20
-172.373
11
126.952
21
-172.086
62
0
0
LINE
8
1
10
126.952
20
-172.086
11
126.995
21
-171.794
62
0
0
LINE
8
1
10
126.995
20
-171.794
11
126.995
21
-107.204
62
0
0
LINE
8
1
10
126.995
20
-107.204
11
126.952
21
-106.912
62
0
0
LINE
8
1
10
126.952
20
-106.912
11
126.88
21
-106.625
62
0
0
LINE
8
1
10
126.88
20
-106.625
11
126.78
21
-106.347
62
0
0
LINE
8
1
10
126.78
20
-106.347
11
126.503
21
-105.827
62
0
0
LINE
8
1
10
126.503
20
-105.827
11
126.321
21
-105.583
62
0
0
LINE
8
1
10
126.321
20
-105.583
11
126.128
21
-105.371
62
0
0
LINE
8
1
10
126.128
20
-105.371
11
125.672
21
-104.997
62
0
0
LINE
8
1
10
125.672
20
-104.997
11
125.411
21
-104.84
62
0
0
LINE
8
1
10
125.411
20
-104.84
11
125.152
21
-104.718
62
0
0
LINE
8
1
10
125.152
20
-104.718
11
124.873
21
-104.618
62
0
0
LINE
8
1
10
124.873
20
-104.618
11
124.587
21
-104.547
62
0
0
LINE
8
1
10
124.587
20
-104.547
11
124.295
21
-104.503
62
0
0
LINE
8
1
10
124.295
20
-104.503
11
124.289
21
-104.503
62
0
0
LINE
8
1
10
124.289
20
-104.503
11
124.288
21
-104.502
62
0
0
LINE
8
1
10
124.288
20
-104.502
11
109.705
21
-104.503
62
0
0
LINE
8
1
10
109.705
20
-104.503
11
109.412
21
-104.547
62
0
0
LINE
8
1
10
109.412
20
-104.547
11
109.126
21
-104.618
62
0
0
LINE
8
1
10
109.126
20
-104.618
11
108.847
21
-104.718
62
0
0
LINE
8
1
10
108.847
20
-104.718
11
108.328
21
-104.996
62
0
0
LINE
8
1
10
108.328
20
-104.996
11
108.083
21
-105.178
62
0
0
LINE
8
1
10
108.083
20
-105.178
11
107.871
21
-105.371
62
0
0
LINE
8
1
10
107.871
20
-105.371
11
107.497
21
-105.826
62
0
0
LINE
8
1
10
107.497
20
-105.826
11
107.341
21
-106.088
62
0
0
LINE
8
1
10
107.341
20
-106.088
11
107.219
21
-106.347
62
0
0
LINE
8
1
10
107.219
20
-106.347
11
107.119
21
-106.625
62
0
0
LINE
8
1
10
107.119
20
-106.625
11
107.047
21
-106.912
62
0
0
LINE
8
1
10
107.047
20
-106.912
11
107.004
21
-107.204
62
0
0
LINE
8
1
10
107.004
20
-107.204
11
107.004
21
-171.794
62
0
0
LINE
8
1
10
107.004
20
-171.794
11
107.047
21
-172.086
62
0
0
LINE
8
1
10
107.047
20
-172.086
11
107.119
21
-172.373
62
0
0
LINE
8
1
10
107.119
20
-172.373
11
107.219
21
-172.651
62
0
0
LINE
8
1
10
107.219
20
-172.651
11
107.496
21
-173.171
62
0
0
LINE
8
1
10
107.496
20
-173.171
11
107.678
21
-173.415
62
0
0
LINE
8
1
10
107.678
20
-173.415
11
107.871
21
-173.627
62
0
0
LINE
8
1
10
107.871
20
-173.627
11
108.327
21
-174.001
62
0
0
LINE
8
1
10
108.327
20
-174.001
11
108.588
21
-174.158
62
0
0
LINE
8
1
10
108.588
20
-174.158
11
108.847
21
-174.28
62
0
0
LINE
8
1
10
108.847
20
-174.28
11
109.126
21
-174.38
62
0
0
LINE
8
1
10
109.126
20
-174.38
11
109.412
21
-174.451
62
0
0
LINE
8
1
10
109.412
20
-174.451
11
109.704
21
-174.495
62
0
0
LINE
8
1
10
109.704
20
-174.495
11
124.295
21
-174.495
62
0
0
LINE
8
1
10
124.295
20
-174.495
11
124.587
21
-174.451
62
0
0
CIRCLE
8
1
10
46.998
20
-108.855
40
2.0149
62
0
0
CIRCLE
8
1
10
110.999
20
-109.499
40
2.01483
62
0
0
CIRCLE
8
1
10
116.999
20
-109.499
40
2.01483
62
0
0
CIRCLE
8
1
10
122.999
20
-109.499
40
2.01483
62
0
0
CIRCLE
8
1
10
131.999
20
-109.499
40
2.01483
62
0
0
CIRCLE
8
1
10
137.999
20
-109.499
40
2.01483
62
0
0
CIRCLE
8
1
10
143.999
20
-109.499
40
2.01483
62
0
0
CIRCLE
8
1
10
70.998
20
-111.855
40
2.0149
62
0
0
CIRCLE
8
1
10
52.998
20
-114.855
40
2.01488
62
0
0
CIRCLE
8
1
10
46.998
20
-114.855
40
2.0149
62
0
0
CIRCLE
8
1
10
40.998
20
-114.855
40
2.01491
62
0
0
CIRCLE
8
1
10
94.998
20
-115.855
40
2.0149
62
0
0
CIRCLE
8
1
10
76.998
20
-117.855
40
2.01488
62
0
0
CIRCLE
8
1
10
70.998
20
-117.855
40
2.0149
62
0
0
CIRCLE
8
1
10
64.998
20
-117.855
40
2.01491
62
0
0
CIRCLE
8
1
10
46.998
20
-120.855
40
2.0149
62
0
0
CIRCLE
8
1
10
100.998
20
-121.855
40
2.01488
62
0
0
CIRCLE
8
1
10
94.998
20
-121.855
40
2.0149
62
0
0
CIRCLE
8
1
10
88.998
20
-121.855
40
2.01491
62
0
0
CIRCLE
8
1
10
70.998
20
-123.855
40
2.0149
62
0
0
CIRCLE
8
1
10
110.999
20
-127.499
40
2.01486
62
0
0
CIRCLE
8
1
10
116.999
20
-127.499
40
2.01486
62
0
0
CIRCLE
8
1
10
122.999
20
-127.499
40
2.01486
62
0
0
CIRCLE
8
1
10
131.999
20
-127.499
40
2.01483
62
0
0
CIRCLE
8
1
10
137.999
20
-127.499
40
2.01483
62
0
0
CIRCLE
8
1
10
143.999
20
-127.499
40
2.01483
62
0
0
CIRCLE
8
1
10
94.998
20
-127.855
40
2.0149
62
0
0
LINE
8
1
10
23.68
20
-149.323
11
87.263
21
-142.007
62
0
0
LINE
8
1
10
87.263
20
-142.007
11
87.263
21
-133.989
62
0
0
LINE
8
1
10
87.263
20
-133.989
11
20.815
21
-126.509
62
0
0
LINE
8
1
10
20.815
20
-126.509
11
-4.178
21
-126.699
62
0
0
LINE
8
1
10
-4.178
20
-126.699
11
-8.727
21
-127.33
62
0
0
LINE
8
1
10
-8.727
20
-127.33
11
-36.662
21
-134.244
62
0
0
LINE
8
1
10
-36.662
20
-134.244
11
-37.056
21
-134.415
62
0
0
LINE
8
1
10
-37.056
20
-134.415
11
-37.439
21
-134.636
62
0
0
LINE
8
1
10
-37.439
20
-134.636
11
-37.797
21
-134.897
62
0
0
LINE
8
1
10
-37.797
20
-134.897
11
-38.414
21
-135.53
62
0
0
LINE
8
1
10
-38.414
20
-135.53
11
-38.878
21
-136.282
62
0
0
LINE
8
1
10
-38.878
20
-136.282
11
-39.166
21
-137.118
62
0
0
LINE
8
1
10
-39.166
20
-137.118
11
-39.239
21
-137.556
62
0
0
LINE
8
1
10
-39.239
20
-137.556
11
-39.239
21
-138.44
62
0
0
LINE
8
1
10
-39.239
20
-138.44
11
-39.166
21
-138.877
62
0
0
LINE
8
1
10
-39.166
20
-138.877
11
-39.04
21
-139.316
62
0
0
LINE
8
1
10
-39.04
20
-139.316
11
-38.878
21
-139.713
62
0
0
LINE
8
1
10
-38.878
20
-139.713
11
-38.66
21
-140.114
62
0
0
LINE
8
1
10
-38.66
20
-140.114
11
-38.405
21
-140.477
62
0
0
LINE
8
1
10
-38.405
20
-140.477
11
-38.113
21
-140.809
62
0
0
LINE
8
1
10
-38.113
20
-140.809
11
-37.796
21
-141.099
62
0
0
LINE
8
1
10
-37.796
20
-141.099
11
-37.439
21
-141.36
62
0
0
LINE
8
1
10
-37.439
20
-141.36
11
-37.055
21
-141.581
62
0
0
LINE
8
1
10
-37.055
20
-141.581
11
-36.227
21
-141.889
62
0
0
LINE
8
1
10
-36.227
20
-141.889
11
-7.218
21
-148.923
62
0
0
LINE
8
1
10
-7.218
20
-148.923
11
-1.123
21
-149.485
62
0
0
LINE
8
1
10
-1.123
20
-149.485
11
23.68
21
-149.323
62
0
0
CIRCLE
8
1
10
2.253
20
-131.997
40
2.0147
62
0
0
CIRCLE
8
1
10
57.704
20
-137.997
40
2.03981
62
0
0
CIRCLE
8
1
10
-3.745
20
-137.997
40
2.01475
62
0
0
CIRCLE
8
1
10
2.253
20
-137.997
40
2.0147
62
0
0
CIRCLE
8
1
10
8.253
20
-137.997
40
2.0147
62
0
0
LINE
8
1
10
77.163
20
-139.563
11
77.163
21
-136.433
62
0
0
LINE
8
1
10
77.163
20
-136.433
11
84.243
21
-136.433
62
0
0
LINE
8
1
10
84.243
20
-136.433
11
84.243
21
-139.563
62
0
0
LINE
8
1
10
84.243
20
-139.563
11
77.163
21
-139.563
62
0
0
LINE
8
1
10
63.163
20
-139.563
11
63.163
21
-136.433
62
0
0
LINE
8
1
10
63.163
20
-136.433
11
70.243
21
-136.433
62
0
0
LINE
8
1
10
70.243
20
-136.433
11
70.243
21
-139.563
62
0
0
LINE
8
1
10
70.243
20
-139.563
11
63.163
21
-139.563
62
0
0
LINE
8
1
10
45.163
20
-139.563
11
45.163
21
-136.433
62
0
0
LINE
8
1
10
45.163
20
-136.433
11
52.243
21
-136.433
62
0
0
LINE
8
1
10
52.243
20
-136.433
11
52.243
21
-139.563
62
0
0
LINE
8
1
10
52.243
20
-139.563
11
45.163
21
-139.563
62
0
0
CIRCLE
8
1
10
-70.999
20
-138.998
40
1.58987
62
0
0
LINE
8
1
10
-105.99
20
-171.508
11
-103.99
21
-171.508
62
0
0
LINE
8
1
10
-103.99
20
-171.508
11
-103.99
21
-141.488
62
0
0
LINE
8
1
10
-103.99
20
-141.488
11
-105.99
21
-141.488
62
0
0
LINE
8
1
10
-105.99
20
-141.488
11
-105.99
21
-138.488
62
0
0
LINE
8
1
10
-105.99
20
-138.488
11
-113.01
21
-138.488
62
0
0
LINE
8
1
10
-113.01
20
-138.488
11
-113.01
21
-141.488
62
0
0
LINE
8
1
10
-113.01
20
-141.488
11
-118.014
21
-141.488
62
0
0
LINE
8
1
10
-118.014
20
-141.488
11
-116.586
21
-146.657
62
0
0
LINE
8
1
10
-116.586
20
-146.657
11
-115.805
21
-151.344
62
0
0
LINE
8
1
10
-115.805
20
-151.344
11
-115.512
21
-156.03
62
0
0
LINE
8
1
10
-115.512
20
-156.03
11
-115.707
21
-160.717
62
0
0
LINE
8
1
10
-115.707
20
-160.717
11
-116.384
21
-165.371
62
0
0
LINE
8
1
10
-116.384
20
-165.371
11
-117.845
21
-170.995
62
0
0
LINE
8
1
10
-117.845
20
-170.995
11
-117.844
21
-170.995
62
0
0
LINE
8
1
10
-117.844
20
-170.995
11
-117.997
21
-171.46
62
0
0
LINE
8
1
10
-117.997
20
-171.46
11
-117.999
21
-171.462
62
0
0
LINE
8
1
10
-117.999
20
-171.462
11
-118.014
21
-171.508
62
0
0
LINE
8
1
10
-118.014
20
-171.508
11
-113.01
21
-171.508
62
0
0
LINE
8
1
10
-113.01
20
-171.508
11
-113.01
21
-174.508
62
0
0
LINE
8
1
10
-113.01
20
-174.508
11
-105.99
21
-174.508
62
0
0
LINE
8
1
10
-105.99
20
-174.508
11
-105.99
21
-171.508
62
0
0
LINE
8
1
10
-138.49
20
-171.508
11
-131.51
21
-171.508
62
0
0
LINE
8
1
10
-131.51
20
-171.508
11
-131.51
21
-174.508
62
0
0
LINE
8
1
10
-131.51
20
-174.508
11
-124.49
21
-174.508
62
0
0
LINE
8
1
10
-124.49
20
-174.508
11
-124.49
21
-171.508
62
0
0
LINE
8
1
10
-124.49
20
-171.508
11
-121.494
21
-171.508
62
0
0
LINE
8
1
10
-121.494
20
-171.508
11
-119.799
21
-167.283
62
0
0
LINE
8
1
10
-119.799
20
-167.283
11
-118.759
21
-163.532
62
0
0
LINE
8
1
10
-118.759
20
-163.532
11
-118.208
21
-160.25
62
0
0
LINE
8
1
10
-118.208
20
-160.25
11
-117.993
21
-156.968
62
0
0
LINE
8
1
10
-117.993
20
-156.968
11
-118.157
21
-153.216
62
0
0
LINE
8
1
10
-118.157
20
-153.216
11
-118.652
21
-149.966
62
0
0
LINE
8
1
10
-118.652
20
-149.966
11
-119.644
21
-146.183
62
0
0
LINE
8
1
10
-119.644
20
-146.183
11
-121.26
21
-141.995
62
0
0
LINE
8
1
10
-121.26
20
-141.995
11
-121.494
21
-141.488
62
0
0
LINE
8
1
10
-121.494
20
-141.488
11
-124.49
21
-141.488
62
0
0
LINE
8
1
10
-124.49
20
-141.488
11
-124.49
21
-138.488
62
0
0
LINE
8
1
10
-124.49
20
-138.488
11
-131.51
21
-138.488
62
0
0
LINE
8
1
10
-131.51
20
-138.488
11
-131.51
21
-141.488
62
0
0
LINE
8
1
10
-131.51
20
-141.488
11
-138.49
21
-141.488
62
0
0
LINE
8
1
10
-138.49
20
-141.488
11
-138.49
21
-138.488
62
0
0
LINE
8
1
10
-138.49
20
-138.488
11
-145.51
21
-138.488
62
0
0
LINE
8
1
10
-145.51
20
-138.488
11
-145.51
21
-141.488
62
0
0
LINE
8
1
10
-145.51
20
-141.488
11
-147.01
21
-141.488
62
0
0
LINE
8
1
10
-147.01
20
-141.488
11
-147.01
21
-171.508
62
0
0
LINE
8
1
10
-147.01
20
-171.508
11
-145.51
21
-171.508
62
0
0
LINE
8
1
10
-145.51
20
-171.508
11
-145.51
21
-174.508
62
0
0
LINE
8
1
10
-145.51
20
-174.508
11
-138.49
21
-174.508
62
0
0
LINE
8
1
10
-138.49
20
-174.508
11
-138.49
21
-171.508
62
0
0
CIRCLE
8
1
10
2.253
20
-143.997
40
2.0147
62
0
0
CIRCLE
8
1
10
110.999
20
-151.499
40
2.01486
62
0
0
CIRCLE
8
1
10
116.999
20
-151.499
40
2.01486
62
0
0
CIRCLE
8
1
10
122.999
20
-151.499
40
2.01486
62
0
0
CIRCLE
8
1
10
131.999
20
-151.499
40
2.01482
62
0
0
CIRCLE
8
1
10
137.999
20
-151.499
40
2.01482
62
0
0
CIRCLE
8
1
10
143.999
20
-151.499
40
2.01482
62
0
0
LINE
8
1
10
16.68
20
-174.323
11
80.263
21
-167.007
62
0
0
LINE
8
1
10
80.263
20
-167.007
11
80.263
21
-158.989
62
0
0
LINE
8
1
10
80.263
20
-158.989
11
13.815
21
-151.509
62
0
0
LINE
8
1
10
13.815
20
-151.509
11
-11.178
21
-151.699
62
0
0
LINE
8
1
10
-11.178
20
-151.699
11
-15.727
21
-152.33
62
0
0
LINE
8
1
10
-15.727
20
-152.33
11
-43.662
21
-159.244
62
0
0
LINE
8
1
10
-43.662
20
-159.244
11
-44.056
21
-159.415
62
0
0
LINE
8
1
10
-44.056
20
-159.415
11
-44.439
21
-159.636
62
0
0
LINE
8
1
10
-44.439
20
-159.636
11
-44.797
21
-159.897
62
0
0
LINE
8
1
10
-44.797
20
-159.897
11
-45.414
21
-160.53
62
0
0
LINE
8
1
10
-45.414
20
-160.53
11
-45.878
21
-161.282
62
0
0
LINE
8
1
10
-45.878
20
-161.282
11
-46.166
21
-162.118
62
0
0
LINE
8
1
10
-46.166
20
-162.118
11
-46.239
21
-162.556
62
0
0
LINE
8
1
10
-46.239
20
-162.556
11
-46.239
21
-163.44
62
0
0
LINE
8
1
10
-46.239
20
-163.44
11
-46.166
21
-163.877
62
0
0
LINE
8
1
10
-46.166
20
-163.877
11
-46.04
21
-164.316
62
0
0
LINE
8
1
10
-46.04
20
-164.316
11
-45.878
21
-164.713
62
0
0
LINE
8
1
10
-45.878
20
-164.713
11
-45.66
21
-165.114
62
0
0
LINE
8
1
10
-45.66
20
-165.114
11
-45.405
21
-165.477
62
0
0
LINE
8
1
10
-45.405
20
-165.477
11
-45.113
21
-165.809
62
0
0
LINE
8
1
10
-45.113
20
-165.809
11
-44.796
21
-166.099
62
0
0
LINE
8
1
10
-44.796
20
-166.099
11
-44.439
21
-166.36
62
0
0
LINE
8
1
10
-44.439
20
-166.36
11
-44.055
21
-166.581
62
0
0
LINE
8
1
10
-44.055
20
-166.581
11
-43.227
21
-166.889
62
0
0
LINE
8
1
10
-43.227
20
-166.889
11
-14.218
21
-173.923
62
0
0
LINE
8
1
10
-14.218
20
-173.923
11
-8.123
21
-174.485
62
0
0
LINE
8
1
10
-8.123
20
-174.485
11
16.68
21
-174.323
62
0
0
CIRCLE
8
1
10
-4.745
20
-156.997
40
2.01475
62
0
0
CIRCLE
8
1
10
50.704
20
-162.997
40
2.03981
62
0
0
CIRCLE
8
1
10
-10.745
20
-162.997
40
2.01475
62
0
0
CIRCLE
8
1
10
-4.745
20
-162.997
40
2.01475
62
0
0
CIRCLE
8
1
10
1.253
20
-162.997
40
2.01442
62
0
0
LINE
8
1
10
70.163
20
-164.563
11
70.163
21
-161.433
62
0
0
LINE
8
1
10
70.163
20
-161.433
11
77.243
21
-161.433
62
0
0
LINE
8
1
10
77.243
20
-161.433
11
77.243
21
-164.563
62
0
0
LINE
8
1
10
77.243
20
-164.563
11
70.163
21
-164.563
62
0
0
LINE
8
1
10
56.163
20
-164.563
11
56.163
21
-161.433
62
0
0
LINE
8
1
10
56.163
20
-161.433
11
63.243
21
-161.433
62
0
0
LINE
8
1
10
63.243
20
-161.433
11
63.243
21
-164.563
62
0
0
LINE
8
1
10
63.243
20
-164.563
11
56.163
21
-164.563
62
0
0
LINE
8
1
10
38.163
20
-164.563
11
38.163
21
-161.433
62
0
0
LINE
8
1
10
38.163
20
-161.433
11
45.243
21
-161.433
62
0
0
LINE
8
1
10
45.243
20
-161.433
11
45.243
21
-164.563
62
0
0
LINE
8
1
10
45.243
20
-164.563
11
38.163
21
-164.563
62
0
0
CIRCLE
8
1
10
-4.745
20
-168.997
40
2.01475
62
0
0
CIRCLE
8
1
10
110.999
20
-169.499
40
2.01486
62
0
0
CIRCLE
8
1
10
116.999
20
-169.499
40
2.01486
62
0
0
CIRCLE
8
1
10
122.999
20
-169.499
40
2.01486
62
0
0
CIRCLE
8
1
10
131.999
20
-169.499
40
2.01486
62
0
0
CIRCLE
8
1
10
137.999
20
-169.499
40
2.01486
62
0
0
CIRCLE
8
1
10
143.999
20
-169.499
40
2.01486
62
0
0
CIRCLE
8
1
10
73.499
20
170
40
2.71478
62
1
0
CIRCLE
8
1
10
91.499
20
170
40
2.71478
62
1
0
CIRCLE
8
1
10
115.499
20
170
40
2.71478
62
1
0
CIRCLE
8
1
10
133.499
20
170
40
2.71478
62
1
0
CIRCLE
8
1
10
133.5
20
170
40
2.01487
62
1
0
CIRCLE
8
1
10
115.5
20
170
40
2.01486
62
1
0
CIRCLE
8
1
10
91.5
20
170
40
2.01487
62
1
0
CIRCLE
8
1
10
73.5
20
170
40
2.01487
62
1
0
CIRCLE
8
1
10
73.499
20
164
40
2.71478
62
1
0
CIRCLE
8
1
10
91.499
20
164
40
2.71478
62
1
0
CIRCLE
8
1
10
115.499
20
164
40
2.71478
62
1
0
CIRCLE
8
1
10
133.499
20
164
40
2.71478
62
1
0
CIRCLE
8
1
10
133.5
20
164
40
2.01487
62
1
0
CIRCLE
8
1
10
115.5
20
164
40
2.01486
62
1
0
CIRCLE
8
1
10
91.5
20
164
40
2.01487
62
1
0
CIRCLE
8
1
10
73.5
20
164
40
2.01487
62
1
0
CIRCLE
8
1
10
39.999
20
161.499
40
2.71484
62
1
0
CIRCLE
8
1
10
33.999
20
161.499
40
2.71484
62
1
0
CIRCLE
8
1
10
27.999
20
161.499
40
2.71484
62
1
0
CIRCLE
8
1
10
39.999
20
161.499
40
2.01483
62
1
0
CIRCLE
8
1
10
33.999
20
161.499
40
2.01483
62
1
0
CIRCLE
8
1
10
27.999
20
161.499
40
2.01483
62
1
0
CIRCLE
8
1
10
73.499
20
158
40
2.71478
62
1
0
CIRCLE
8
1
10
91.499
20
158
40
2.71478
62
1
0
CIRCLE
8
1
10
115.499
20
158
40
2.71478
62
1
0
CIRCLE
8
1
10
133.499
20
158
40
2.71478
62
1
0
CIRCLE
8
1
10
133.5
20
158
40
2.01487
62
1
0
CIRCLE
8
1
10
115.5
20
158
40
2.01486
62
1
0
CIRCLE
8
1
10
91.5
20
158
40
2.01487
62
1
0
CIRCLE
8
1
10
73.5
20
158
40
2.01487
62
1
0
CIRCLE
8
1
10
59.999
20
149.857
40
2.71479
62
1
0
CIRCLE
8
1
10
59.999
20
149.857
40
2.0149
62
1
0
CIRCLE
8
1
10
83.999
20
146.857
40
2.71479
62
1
0
CIRCLE
8
1
10
83.999
20
146.857
40
2.0149
62
1
0
CIRCLE
8
1
10
53.999
20
143.857
40
2.71475
62
1
0
CIRCLE
8
1
10
59.999
20
143.857
40
2.71479
62
1
0
CIRCLE
8
1
10
65.999
20
143.857
40
2.71484
62
1
0
CIRCLE
8
1
10
39.999
20
143.499
40
2.71476
62
1
0
CIRCLE
8
1
10
33.999
20
143.499
40
2.71484
62
1
0
CIRCLE
8
1
10
27.999
20
143.499
40
2.71485
62
1
0
CIRCLE
8
1
10
65.999
20
143.857
40
2.01489
62
1
0
CIRCLE
8
1
10
59.999
20
143.857
40
2.0149
62
1
0
CIRCLE
8
1
10
53.999
20
143.857
40
2.01491
62
1
0
CIRCLE
8
1
10
39.999
20
143.499
40
2.01483
62
1
0
CIRCLE
8
1
10
33.999
20
143.499
40
2.01483
62
1
0
CIRCLE
8
1
10
27.999
20
143.499
40
2.01483
62
1
0
CIRCLE
8
1
10
77.999
20
140.856
40
2.71475
62
1
0
CIRCLE
8
1
10
83.999
20
140.857
40
2.71478
62
1
0
CIRCLE
8
1
10
89.999
20
140.857
40
2.71483
62
1
0
CIRCLE
8
1
10
89.999
20
140.857
40
2.01489
62
1
0
CIRCLE
8
1
10
83.999
20
140.857
40
2.0149
62
1
0
CIRCLE
8
1
10
77.999
20
140.857
40
2.01491
62
1
0
CIRCLE
8
1
10
59.999
20
137.857
40
2.71479
62
1
0
CIRCLE
8
1
10
59.999
20
137.857
40
2.0149
62
1
0
CIRCLE
8
1
10
83.999
20
134.857
40
2.71479
62
1
0
CIRCLE
8
1
10
83.999
20
134.857
40
2.0149
62
1
0
CIRCLE
8
1
10
39.999
20
119.499
40
2.71477
62
1
0
CIRCLE
8
1
10
33.999
20
119.499
40
2.71477
62
1
0
CIRCLE
8
1
10
27.999
20
119.499
40
2.71477
62
1
0
CIRCLE
8
1
10
39.999
20
119.499
40
2.01487
62
1
0
CIRCLE
8
1
10
33.999
20
119.499
40
2.01487
62
1
0
CIRCLE
8
1
10
27.999
20
119.499
40
2.01487
62
1
0
CIRCLE
8
1
10
39.999
20
101.499
40
2.71477
62
1
0
CIRCLE
8
1
10
33.999
20
101.499
40
2.71477
62
1
0
CIRCLE
8
1
10
27.999
20
101.499
40
2.71477
62
1
0
CIRCLE
8
1
10
39.999
20
101.499
40
2.01487
62
1
0
CIRCLE
8
1
10
33.999
20
101.499
40
2.01487
62
1
0
CIRCLE
8
1
10
27.999
20
101.499
40
2.01487
62
1
0
CIRCLE
8
1
10
111.999
20
97.499
40
2.71477
62
1
0
CIRCLE
8
1
10
105.999
20
97.499
40
2.71477
62
1
0
CIRCLE
8
1
10
99.999
20
97.499
40
2.71476
62
1
0
CIRCLE
8
1
10
111.999
20
97.499
40
2.01483
62
1
0
CIRCLE
8
1
10
105.999
20
97.499
40
2.01483
62
1
0
CIRCLE
8
1
10
99.999
20
97.499
40
2.01483
62
1
0
CIRCLE
8
1
10
11.998
20
95.254
40
2.71485
62
1
0
CIRCLE
8
1
10
-12
20
95.254
40
2.71489
62
1
0
CIRCLE
8
1
10
11.998
20
95.254
40
2.0147
62
1
0
CIRCLE
8
1
10
-12
20
95.254
40
2.0147
62
1
0
CIRCLE
8
1
10
35.999
20
89.857
40
2.71479
62
1
0
CIRCLE
8
1
10
17.998
20
89.253
40
2.71489
62
1
0
CIRCLE
8
1
10
11.998
20
89.253
40
2.71489
62
1
0
CIRCLE
8
1
10
5.998
20
89.253
40
2.71489
62
1
0
CIRCLE
8
1
10
-6
20
89.253
40
2.71489
62
1
0
CIRCLE
8
1
10
-12
20
89.253
40
2.71489
62
1
0
CIRCLE
8
1
10
-18
20
89.253
40
2.71489
62
1
0
CIRCLE
8
1
10
35.999
20
89.857
40
2.0149
62
1
0
CIRCLE
8
1
10
17.998
20
89.254
40
2.0147
62
1
0
CIRCLE
8
1
10
11.998
20
89.254
40
2.0147
62
1
0
CIRCLE
8
1
10
5.998
20
89.254
40
2.0147
62
1
0
CIRCLE
8
1
10
-6
20
89.254
40
2.0147
62
1
0
CIRCLE
8
1
10
-12
20
89.254
40
2.0147
62
1
0
CIRCLE
8
1
10
-18
20
89.254
40
2.0147
62
1
0
CIRCLE
8
1
10
29.999
20
83.857
40
2.71475
62
1
0
CIRCLE
8
1
10
35.999
20
83.857
40
2.71479
62
1
0
CIRCLE
8
1
10
41.999
20
83.857
40
2.71484
62
1
0
CIRCLE
8
1
10
11.998
20
83.253
40
2.71489
62
1
0
CIRCLE
8
1
10
-12
20
83.253
40
2.71489
62
1
0
CIRCLE
8
1
10
41.999
20
83.857
40
2.01489
62
1
0
CIRCLE
8
1
10
35.999
20
83.857
40
2.0149
62
1
0
CIRCLE
8
1
10
29.999
20
83.857
40
2.01491
62
1
0
CIRCLE
8
1
10
11.998
20
83.254
40
2.0147
62
1
0
CIRCLE
8
1
10
-12
20
83.254
40
2.0147
62
1
0
CIRCLE
8
1
10
111.999
20
79.499
40
2.71477
62
1
0
CIRCLE
8
1
10
105.999
20
79.499
40
2.71477
62
1
0
CIRCLE
8
1
10
99.999
20
79.499
40
2.71477
62
1
0
CIRCLE
8
1
10
59.999
20
79.143
40
2.71477
62
1
0
CIRCLE
8
1
10
111.999
20
79.499
40
2.01487
62
1
0
CIRCLE
8
1
10
105.999
20
79.499
40
2.01487
62
1
0
CIRCLE
8
1
10
99.999
20
79.499
40
2.01487
62
1
0
CIRCLE
8
1
10
59.998
20
79.143
40
2.01483
62
1
0
CIRCLE
8
1
10
35.999
20
77.857
40
2.71479
62
1
0
CIRCLE
8
1
10
35.999
20
77.857
40
2.0149
62
1
0
CIRCLE
8
1
10
83.999
20
76.143
40
2.71477
62
1
0
CIRCLE
8
1
10
83.998
20
76.143
40
2.01483
62
1
0
CIRCLE
8
1
10
65.998
20
73.143
40
2.7148
62
1
0
CIRCLE
8
1
10
59.999
20
73.143
40
2.71477
62
1
0
CIRCLE
8
1
10
53.998
20
73.143
40
2.71474
62
1
0
CIRCLE
8
1
10
53.998
20
73.143
40
2.01484
62
1
0
CIRCLE
8
1
10
59.998
20
73.143
40
2.01483
62
1
0
CIRCLE
8
1
10
65.998
20
73.143
40
2.01482
62
1
0
CIRCLE
8
1
10
89.998
20
70.143
40
2.7148
62
1
0
CIRCLE
8
1
10
83.999
20
70.143
40
2.71477
62
1
0
CIRCLE
8
1
10
77.998
20
70.143
40
2.71474
62
1
0
CIRCLE
8
1
10
77.998
20
70.143
40
2.01484
62
1
0
CIRCLE
8
1
10
83.998
20
70.143
40
2.01483
62
1
0
CIRCLE
8
1
10
89.998
20
70.143
40
2.01482
62
1
0
CIRCLE
8
1
10
59.999
20
67.143
40
2.71477
62
1
0
CIRCLE
8
1
10
59.998
20
67.143
40
2.01483
62
1
0
CIRCLE
8
1
10
83.999
20
64.143
40
2.71477
62
1
0
CIRCLE
8
1
10
83.998
20
64.143
40
2.01483
62
1
0
CIRCLE
8
1
10
111.999
20
55.499
40
2.71477
62
1
0
CIRCLE
8
1
10
105.999
20
55.499
40
2.71477
62
1
0
CIRCLE
8
1
10
99.999
20
55.499
40
2.71477
62
1
0
CIRCLE
8
1
10
59.999
20
54.857
40
2.71479
62
1
0
CIRCLE
8
1
10
111.999
20
55.499
40
2.01487
62
1
0
CIRCLE
8
1
10
105.999
20
55.499
40
2.01487
62
1
0
CIRCLE
8
1
10
99.999
20
55.499
40
2.01487
62
1
0
CIRCLE
8
1
10
59.999
20
54.857
40
2.0149
62
1
0
CIRCLE
8
1
10
83.999
20
51.857
40
2.71479
62
1
0
CIRCLE
8
1
10
83.999
20
51.857
40
2.0149
62
1
0
CIRCLE
8
1
10
53.999
20
48.857
40
2.71475
62
1
0
CIRCLE
8
1
10
59.999
20
48.857
40
2.71479
62
1
0
CIRCLE
8
1
10
65.999
20
48.857
40
2.71484
62
1
0
CIRCLE
8
1
10
65.999
20
48.857
40
2.01489
62
1
0
CIRCLE
8
1
10
59.999
20
48.857
40
2.0149
62
1
0
CIRCLE
8
1
10
53.999
20
48.857
40
2.01491
62
1
0
CIRCLE
8
1
10
77.999
20
45.857
40
2.71475
62
1
0
CIRCLE
8
1
10
83.999
20
45.857
40
2.71479
62
1
0
CIRCLE
8
1
10
89.999
20
45.857
40
2.71484
62
1
0
CIRCLE
8
1
10
89.999
20
45.857
40
2.01489
62
1
0
CIRCLE
8
1
10
83.999
20
45.857
40
2.0149
62
1
0
CIRCLE
8
1
10
77.999
20
45.857
40
2.01491
62
1
0
CIRCLE
8
1
10
59.999
20
42.857
40
2.7148
62
1
0
CIRCLE
8
1
10
59.999
20
42.857
40
2.0149
62
1
0
CIRCLE
8
1
10
83.999
20
39.857
40
2.71479
62
1
0
CIRCLE
8
1
10
83.999
20
39.857
40
2.0149
62
1
0
CIRCLE
8
1
10
111.999
20
37.499
40
2.71475
62
1
0
CIRCLE
8
1
10
105.999
20
37.499
40
2.71475
62
1
0
CIRCLE
8
1
10
99.999
20
37.499
40
2.71475
62
1
0
CIRCLE
8
1
10
111.999
20
37.499
40
2.01487
62
1
0
CIRCLE
8
1
10
105.999
20
37.499
40
2.01487
62
1
0
CIRCLE
8
1
10
99.999
20
37.499
40
2.01487
62
1
0
CIRCLE
8
1
10
132.999
20
32.499
40
2.71476
62
1
0
CIRCLE
8
1
10
126.999
20
32.499
40
2.71476
62
1
0
CIRCLE
8
1
10
120.999
20
32.499
40
2.71476
62
1
0
CIRCLE
8
1
10
132.999
20
32.499
40
2.01483
62
1
0
CIRCLE
8
1
10
126.999
20
32.499
40
2.01483
62
1
0
CIRCLE
8
1
10
120.999
20
32.499
40
2.01483
62
1
0
CIRCLE
8
1
10
-45
20
27.253
40
2.71489
62
1
0
CIRCLE
8
1
10
-45
20
27.254
40
2.0147
62
1
0
CIRCLE
8
1
10
111.999
20
26.499
40
2.71477
62
1
0
CIRCLE
8
1
10
105.999
20
26.499
40
2.71477
62
1
0
CIRCLE
8
1
10
99.999
20
26.499
40
2.71476
62
1
0
CIRCLE
8
1
10
111.999
20
26.499
40
2.01483
62
1
0
CIRCLE
8
1
10
105.999
20
26.499
40
2.01483
62
1
0
CIRCLE
8
1
10
99.999
20
26.499
40
2.01483
62
1
0
CIRCLE
8
1
10
-39
20
21.253
40
2.71489
62
1
0
CIRCLE
8
1
10
-45
20
21.253
40
2.71489
62
1
0
CIRCLE
8
1
10
-51
20
21.253
40
2.71489
62
1
0
CIRCLE
8
1
10
-39
20
21.254
40
2.0147
62
1
0
CIRCLE
8
1
10
-45
20
21.254
40
2.0147
62
1
0
CIRCLE
8
1
10
-51
20
21.254
40
2.0147
62
1
0
CIRCLE
8
1
10
35.999
20
19.143
40
2.71477
62
1
0
CIRCLE
8
1
10
35.998
20
19.143
40
2.01483
62
1
0
CIRCLE
8
1
10
-45
20
15.253
40
2.7149
62
1
0
CIRCLE
8
1
10
-45
20
15.254
40
2.0147
62
1
0
CIRCLE
8
1
10
132.999
20
14.499
40
2.71474
62
1
0
CIRCLE
8
1
10
126.999
20
14.499
40
2.71476
62
1
0
CIRCLE
8
1
10
120.999
20
14.499
40
2.71477
62
1
0
CIRCLE
8
1
10
132.999
20
14.499
40
2.01483
62
1
0
CIRCLE
8
1
10
126.999
20
14.499
40
2.01483
62
1
0
CIRCLE
8
1
10
120.999
20
14.499
40
2.01487
62
1
0
CIRCLE
8
1
10
41.998
20
13.143
40
2.7148
62
1
0
CIRCLE
8
1
10
35.999
20
13.143
40
2.71477
62
1
0
CIRCLE
8
1
10
29.998
20
13.143
40
2.71474
62
1
0
CIRCLE
8
1
10
29.998
20
13.143
40
2.01484
62
1
0
CIRCLE
8
1
10
35.998
20
13.143
40
2.01483
62
1
0
CIRCLE
8
1
10
41.998
20
13.143
40
2.01482
62
1
0
CIRCLE
8
1
10
111.999
20
8.499
40
2.71477
62
1
0
CIRCLE
8
1
10
105.999
20
8.499
40
2.71477
62
1
0
CIRCLE
8
1
10
99.999
20
8.499
40
2.71477
62
1
0
CIRCLE
8
1
10
111.999
20
8.499
40
2.01487
62
1
0
CIRCLE
8
1
10
105.999
20
8.499
40
2.01487
62
1
0
CIRCLE
8
1
10
99.999
20
8.499
40
2.01487
62
1
0
CIRCLE
8
1
10
35.999
20
7.143
40
2.71477
62
1
0
CIRCLE
8
1
10
35.998
20
7.143
40
2.01483
62
1
0
CIRCLE
8
1
10
132.999
20
-9.499
40
2.71475
62
1
0
CIRCLE
8
1
10
126.999
20
-9.499
40
2.71477
62
1
0
CIRCLE
8
1
10
120.999
20
-9.499
40
2.71478
62
1
0
CIRCLE
8
1
10
132.999
20
-9.499
40
2.01482
62
1
0
CIRCLE
8
1
10
126.999
20
-9.499
40
2.01482
62
1
0
CIRCLE
8
1
10
120.999
20
-9.499
40
2.01486
62
1
0
CIRCLE
8
1
10
111.999
20
-15.499
40
2.71478
62
1
0
CIRCLE
8
1
10
105.999
20
-15.499
40
2.71478
62
1
0
CIRCLE
8
1
10
99.999
20
-15.499
40
2.71478
62
1
0
CIRCLE
8
1
10
59.999
20
-15.855
40
2.71479
62
1
0
CIRCLE
8
1
10
111.999
20
-15.499
40
2.01486
62
1
0
CIRCLE
8
1
10
105.999
20
-15.499
40
2.01486
62
1
0
CIRCLE
8
1
10
99.999
20
-15.499
40
2.01486
62
1
0
CIRCLE
8
1
10
59.998
20
-15.855
40
2.0149
62
1
0
CIRCLE
8
1
10
83.999
20
-18.855
40
2.71478
62
1
0
CIRCLE
8
1
10
83.998
20
-18.855
40
2.0149
62
1
0
CIRCLE
8
1
10
65.998
20
-21.855
40
2.71482
62
1
0
CIRCLE
8
1
10
59.999
20
-21.855
40
2.71478
62
1
0
CIRCLE
8
1
10
53.998
20
-21.855
40
2.71475
62
1
0
CIRCLE
8
1
10
53.998
20
-21.855
40
2.01491
62
1
0
CIRCLE
8
1
10
59.998
20
-21.855
40
2.0149
62
1
0
CIRCLE
8
1
10
65.998
20
-21.855
40
2.01488
62
1
0
CIRCLE
8
1
10
89.998
20
-24.855
40
2.71482
62
1
0
CIRCLE
8
1
10
83.999
20
-24.855
40
2.71478
62
1
0
CIRCLE
8
1
10
77.998
20
-24.855
40
2.71475
62
1
0
CIRCLE
8
1
10
77.998
20
-24.855
40
2.01491
62
1
0
CIRCLE
8
1
10
83.998
20
-24.855
40
2.0149
62
1
0
CIRCLE
8
1
10
89.998
20
-24.855
40
2.01488
62
1
0
CIRCLE
8
1
10
0.999
20
-25.745
40
2.71459
62
1
0
CIRCLE
8
1
10
-23
20
-25.745
40
2.71489
62
1
0
CIRCLE
8
1
10
0.999
20
-25.744
40
2.01449
62
1
0
CIRCLE
8
1
10
-23
20
-25.744
40
2.01475
62
1
0
CIRCLE
8
1
10
132.999
20
-27.499
40
2.71475
62
1
0
CIRCLE
8
1
10
126.999
20
-27.499
40
2.71475
62
1
0
CIRCLE
8
1
10
120.999
20
-27.499
40
2.71475
62
1
0
CIRCLE
8
1
10
59.999
20
-27.855
40
2.71479
62
1
0
CIRCLE
8
1
10
132.999
20
-27.499
40
2.01486
62
1
0
CIRCLE
8
1
10
126.999
20
-27.499
40
2.01486
62
1
0
CIRCLE
8
1
10
120.999
20
-27.499
40
2.01486
62
1
0
CIRCLE
8
1
10
59.998
20
-27.855
40
2.0149
62
1
0
CIRCLE
8
1
10
83.999
20
-30.855
40
2.71478
62
1
0
CIRCLE
8
1
10
83.998
20
-30.855
40
2.0149
62
1
0
CIRCLE
8
1
10
6.998
20
-31.745
40
2.71489
62
1
0
CIRCLE
8
1
10
0.999
20
-31.745
40
2.71459
62
1
0
CIRCLE
8
1
10
-5
20
-31.745
40
2.71489
62
1
0
CIRCLE
8
1
10
-17
20
-31.745
40
2.71489
62
1
0
CIRCLE
8
1
10
-23
20
-31.745
40
2.71489
62
1
0
CIRCLE
8
1
10
-29
20
-31.745
40
2.71489
62
1
0
CIRCLE
8
1
10
6.998
20
-31.744
40
2.01474
62
1
0
CIRCLE
8
1
10
0.999
20
-31.744
40
2.01449
62
1
0
CIRCLE
8
1
10
-5
20
-31.744
40
2.01475
62
1
0
CIRCLE
8
1
10
-17
20
-31.744
40
2.01475
62
1
0
CIRCLE
8
1
10
-23
20
-31.744
40
2.01475
62
1
0
CIRCLE
8
1
10
-29
20
-31.744
40
2.01475
62
1
0
CIRCLE
8
1
10
111.999
20
-33.499
40
2.71475
62
1
0
CIRCLE
8
1
10
105.999
20
-33.499
40
2.71475
62
1
0
CIRCLE
8
1
10
99.999
20
-33.499
40
2.71475
62
1
0
CIRCLE
8
1
10
111.999
20
-33.499
40
2.01486
62
1
0
CIRCLE
8
1
10
105.999
20
-33.499
40
2.01486
62
1
0
CIRCLE
8
1
10
99.999
20
-33.499
40
2.01486
62
1
0
CIRCLE
8
1
10
0.999
20
-37.745
40
2.71459
62
1
0
CIRCLE
8
1
10
-23
20
-37.745
40
2.71489
62
1
0
CIRCLE
8
1
10
46.999
20
-38.141
40
2.71478
62
1
0
CIRCLE
8
1
10
0.999
20
-37.744
40
2.01449
62
1
0
CIRCLE
8
1
10
-23
20
-37.744
40
2.01475
62
1
0
CIRCLE
8
1
10
132.999
20
-38.499
40
2.71476
62
1
0
CIRCLE
8
1
10
126.999
20
-38.499
40
2.71476
62
1
0
CIRCLE
8
1
10
120.999
20
-38.499
40
2.71476
62
1
0
CIRCLE
8
1
10
46.999
20
-38.141
40
2.01484
62
1
0
CIRCLE
8
1
10
132.999
20
-38.499
40
2.01483
62
1
0
CIRCLE
8
1
10
126.999
20
-38.499
40
2.01483
62
1
0
CIRCLE
8
1
10
120.999
20
-38.499
40
2.01483
62
1
0
CIRCLE
8
1
10
70.999
20
-41.141
40
2.71477
62
1
0
CIRCLE
8
1
10
70.999
20
-41.141
40
2.01484
62
1
0
CIRCLE
8
1
10
40.999
20
-44.141
40
2.71475
62
1
0
CIRCLE
8
1
10
46.999
20
-44.141
40
2.71478
62
1
0
CIRCLE
8
1
10
52.999
20
-44.141
40
2.71482
62
1
0
CIRCLE
8
1
10
52.999
20
-44.141
40
2.01482
62
1
0
CIRCLE
8
1
10
46.999
20
-44.141
40
2.01484
62
1
0
CIRCLE
8
1
10
40.999
20
-44.141
40
2.01485
62
1
0
CIRCLE
8
1
10
94.999
20
-45.141
40
2.71478
62
1
0
CIRCLE
8
1
10
94.999
20
-45.141
40
2.01484
62
1
0
CIRCLE
8
1
10
64.999
20
-47.142
40
2.71474
62
1
0
CIRCLE
8
1
10
70.999
20
-47.141
40
2.71477
62
1
0
CIRCLE
8
1
10
76.999
20
-47.141
40
2.71481
62
1
0
CIRCLE
8
1
10
76.999
20
-47.141
40
2.01482
62
1
0
CIRCLE
8
1
10
70.999
20
-47.141
40
2.01484
62
1
0
CIRCLE
8
1
10
64.999
20
-47.141
40
2.01485
62
1
0
CIRCLE
8
1
10
46.999
20
-50.141
40
2.71478
62
1
0
CIRCLE
8
1
10
46.999
20
-50.141
40
2.01484
62
1
0
CIRCLE
8
1
10
88.999
20
-51.141
40
2.71475
62
1
0
CIRCLE
8
1
10
94.999
20
-51.141
40
2.71478
62
1
0
CIRCLE
8
1
10
100.999
20
-51.141
40
2.71482
62
1
0
CIRCLE
8
1
10
100.999
20
-51.141
40
2.01482
62
1
0
CIRCLE
8
1
10
94.999
20
-51.141
40
2.01484
62
1
0
CIRCLE
8
1
10
88.999
20
-51.141
40
2.01485
62
1
0
CIRCLE
8
1
10
70.999
20
-53.141
40
2.71478
62
1
0
CIRCLE
8
1
10
70.999
20
-53.141
40
2.01484
62
1
0
CIRCLE
8
1
10
132.999
20
-56.499
40
2.71474
62
1
0
CIRCLE
8
1
10
126.999
20
-56.499
40
2.71476
62
1
0
CIRCLE
8
1
10
120.999
20
-56.499
40
2.71478
62
1
0
CIRCLE
8
1
10
94.999
20
-57.141
40
2.71478
62
1
0
CIRCLE
8
1
10
132.999
20
-56.499
40
2.01483
62
1
0
CIRCLE
8
1
10
126.999
20
-56.499
40
2.01483
62
1
0
CIRCLE
8
1
10
120.999
20
-56.499
40
2.01486
62
1
0
CIRCLE
8
1
10
94.999
20
-57.141
40
2.01484
62
1
0
CIRCLE
8
1
10
22.998
20
-76.745
40
2.71489
62
1
0
CIRCLE
8
1
10
22.998
20
-76.744
40
2.01474
62
1
0
CIRCLE
8
1
10
132.999
20
-80.499
40
2.71474
62
1
0
CIRCLE
8
1
10
126.999
20
-80.499
40
2.71477
62
1
0
CIRCLE
8
1
10
120.999
20
-80.499
40
2.71477
62
1
0
CIRCLE
8
1
10
132.999
20
-80.499
40
2.01482
62
1
0
CIRCLE
8
1
10
126.999
20
-80.499
40
2.01482
62
1
0
CIRCLE
8
1
10
120.999
20
-80.499
40
2.01486
62
1
0
CIRCLE
8
1
10
28.998
20
-82.744
40
2.71491
62
1
0
CIRCLE
8
1
10
22.998
20
-82.744
40
2.71491
62
1
0
CIRCLE
8
1
10
16.998
20
-82.744
40
2.71491
62
1
0
CIRCLE
8
1
10
28.998
20
-82.744
40
2.01474
62
1
0
CIRCLE
8
1
10
22.998
20
-82.744
40
2.01474
62
1
0
CIRCLE
8
1
10
16.998
20
-82.744
40
2.01474
62
1
0
CIRCLE
8
1
10
22.998
20
-88.745
40
2.71489
62
1
0
CIRCLE
8
1
10
22.998
20
-88.744
40
2.01474
62
1
0
CIRCLE
8
1
10
132.999
20
-98.499
40
2.71476
62
1
0
CIRCLE
8
1
10
126.999
20
-98.499
40
2.71476
62
1
0
CIRCLE
8
1
10
120.999
20
-98.499
40
2.71476
62
1
0
CIRCLE
8
1
10
132.999
20
-98.499
40
2.01486
62
1
0
CIRCLE
8
1
10
126.999
20
-98.499
40
2.01486
62
1
0
CIRCLE
8
1
10
120.999
20
-98.499
40
2.01486
62
1
0
CIRCLE
8
1
10
46.999
20
-108.855
40
2.71478
62
1
0
CIRCLE
8
1
10
143.999
20
-109.499
40
2.71476
62
1
0
CIRCLE
8
1
10
137.999
20
-109.499
40
2.71476
62
1
0
CIRCLE
8
1
10
131.999
20
-109.499
40
2.71476
62
1
0
CIRCLE
8
1
10
122.999
20
-109.499
40
2.71477
62
1
0
CIRCLE
8
1
10
116.999
20
-109.499
40
2.71477
62
1
0
CIRCLE
8
1
10
110.999
20
-109.499
40
2.71476
62
1
0
CIRCLE
8
1
10
46.998
20
-108.855
40
2.0149
62
1
0
CIRCLE
8
1
10
143.999
20
-109.499
40
2.01483
62
1
0
CIRCLE
8
1
10
137.999
20
-109.499
40
2.01483
62
1
0
CIRCLE
8
1
10
131.999
20
-109.499
40
2.01483
62
1
0
CIRCLE
8
1
10
122.999
20
-109.499
40
2.01483
62
1
0
CIRCLE
8
1
10
116.999
20
-109.499
40
2.01483
62
1
0
CIRCLE
8
1
10
110.999
20
-109.499
40
2.01483
62
1
0
CIRCLE
8
1
10
70.999
20
-111.855
40
2.71478
62
1
0
CIRCLE
8
1
10
70.998
20
-111.855
40
2.0149
62
1
0
CIRCLE
8
1
10
52.998
20
-114.855
40
2.71482
62
1
0
CIRCLE
8
1
10
46.999
20
-114.855
40
2.71478
62
1
0
CIRCLE
8
1
10
40.998
20
-114.855
40
2.71475
62
1
0
CIRCLE
8
1
10
40.998
20
-114.855
40
2.01491
62
1
0
CIRCLE
8
1
10
46.998
20
-114.855
40
2.0149
62
1
0
CIRCLE
8
1
10
52.998
20
-114.855
40
2.01488
62
1
0
CIRCLE
8
1
10
94.999
20
-115.855
40
2.71478
62
1
0
CIRCLE
8
1
10
94.998
20
-115.855
40
2.0149
62
1
0
CIRCLE
8
1
10
76.998
20
-117.855
40
2.71482
62
1
0
CIRCLE
8
1
10
70.999
20
-117.855
40
2.71478
62
1
0
CIRCLE
8
1
10
64.998
20
-117.855
40
2.71475
62
1
0
CIRCLE
8
1
10
64.998
20
-117.855
40
2.01491
62
1
0
CIRCLE
8
1
10
70.998
20
-117.855
40
2.0149
62
1
0
CIRCLE
8
1
10
76.998
20
-117.855
40
2.01488
62
1
0
CIRCLE
8
1
10
46.999
20
-120.855
40
2.71478
62
1
0
CIRCLE
8
1
10
46.998
20
-120.855
40
2.0149
62
1
0
CIRCLE
8
1
10
100.998
20
-121.855
40
2.71482
62
1
0
CIRCLE
8
1
10
94.999
20
-121.855
40
2.71478
62
1
0
CIRCLE
8
1
10
88.998
20
-121.855
40
2.71475
62
1
0
CIRCLE
8
1
10
88.998
20
-121.855
40
2.01491
62
1
0
CIRCLE
8
1
10
94.998
20
-121.855
40
2.0149
62
1
0
CIRCLE
8
1
10
100.998
20
-121.855
40
2.01488
62
1
0
CIRCLE
8
1
10
70.999
20
-123.855
40
2.71478
62
1
0
CIRCLE
8
1
10
70.998
20
-123.855
40
2.0149
62
1
0
CIRCLE
8
1
10
143.999
20
-127.499
40
2.71473
62
1
0
CIRCLE
8
1
10
137.999
20
-127.499
40
2.71473
62
1
0
CIRCLE
8
1
10
131.999
20
-127.499
40
2.71473
62
1
0
CIRCLE
8
1
10
122.999
20
-127.499
40
2.71477
62
1
0
CIRCLE
8
1
10
116.999
20
-127.499
40
2.71477
62
1
0
CIRCLE
8
1
10
110.999
20
-127.499
40
2.71477
62
1
0
CIRCLE
8
1
10
94.999
20
-127.855
40
2.71479
62
1
0
CIRCLE
8
1
10
143.999
20
-127.499
40
2.01483
62
1
0
CIRCLE
8
1
10
137.999
20
-127.499
40
2.01483
62
1
0
CIRCLE
8
1
10
131.999
20
-127.499
40
2.01483
62
1
0
CIRCLE
8
1
10
122.999
20
-127.499
40
2.01486
62
1
0
CIRCLE
8
1
10
116.999
20
-127.499
40
2.01486
62
1
0
CIRCLE
8
1
10
110.999
20
-127.499
40
2.01486
62
1
0
CIRCLE
8
1
10
94.998
20
-127.855
40
2.0149
62
1
0
CIRCLE
8
1
10
2.253
20
-131.998
40
2.71471
62
1
0
CIRCLE
8
1
10
2.253
20
-131.997
40
2.0147
62
1
0
CIRCLE
8
1
10
-3.746
20
-137.998
40
2.71489
62
1
0
CIRCLE
8
1
10
2.253
20
-137.998
40
2.71471
62
1
0
CIRCLE
8
1
10
8.253
20
-137.998
40
2.71489
62
1
0
CIRCLE
8
1
10
8.253
20
-137.997
40
2.0147
62
1
0
CIRCLE
8
1
10
2.253
20
-137.997
40
2.0147
62
1
0
CIRCLE
8
1
10
-3.745
20
-137.997
40
2.01475
62
1
0
CIRCLE
8
1
10
2.253
20
-143.998
40
2.71469
62
1
0
CIRCLE
8
1
10
2.253
20
-143.997
40
2.0147
62
1
0
CIRCLE
8
1
10
143.999
20
-151.499
40
2.71475
62
1
0
CIRCLE
8
1
10
137.999
20
-151.499
40
2.71475
62
1
0
CIRCLE
8
1
10
131.999
20
-151.499
40
2.71474
62
1
0
CIRCLE
8
1
10
122.999
20
-151.499
40
2.71478
62
1
0
CIRCLE
8
1
10
116.999
20
-151.499
40
2.71478
62
1
0
CIRCLE
8
1
10
110.999
20
-151.499
40
2.71478
62
1
0
CIRCLE
8
1
10
143.999
20
-151.499
40
2.01482
62
1
0
CIRCLE
8
1
10
137.999
20
-151.499
40
2.01482
62
1
0
CIRCLE
8
1
10
131.999
20
-151.499
40
2.01482
62
1
0
CIRCLE
8
1
10
122.999
20
-151.499
40
2.01486
62
1
0
CIRCLE
8
1
10
116.999
20
-151.499
40
2.01486
62
1
0
CIRCLE
8
1
10
110.999
20
-151.499
40
2.01486
62
1
0
CIRCLE
8
1
10
-4.746
20
-156.998
40
2.71489
62
1
0
CIRCLE
8
1
10
-4.745
20
-156.997
40
2.01475
62
1
0
CIRCLE
8
1
10
-10.746
20
-162.998
40
2.71489
62
1
0
CIRCLE
8
1
10
-4.746
20
-162.998
40
2.71489
62
1
0
CIRCLE
8
1
10
1.253
20
-162.998
40
2.7146
62
1
0
CIRCLE
8
1
10
1.253
20
-162.997
40
2.01442
62
1
0
CIRCLE
8
1
10
-4.745
20
-162.997
40
2.01475
62
1
0
CIRCLE
8
1
10
-10.745
20
-162.997
40
2.01475
62
1
0
CIRCLE
8
1
10
-4.746
20
-168.998
40
2.71489
62
1
0
CIRCLE
8
1
10
143.999
20
-169.499
40
2.71476
62
1
0
CIRCLE
8
1
10
137.999
20
-169.499
40
2.71476
62
1
0
CIRCLE
8
1
10
131.999
20
-169.499
40
2.71476
62
1
0
CIRCLE
8
1
10
122.999
20
-169.499
40
2.71476
62
1
0
CIRCLE
8
1
10
116.999
20
-169.499
40
2.71476
62
1
0
CIRCLE
8
1
10
110.999
20
-169.499
40
2.71476
62
1
0
CIRCLE
8
1
10
-4.745
20
-168.997
40
2.01475
62
1
0
CIRCLE
8
1
10
143.999
20
-169.499
40
2.01486
62
1
0
CIRCLE
8
1
10
137.999
20
-169.499
40
2.01486
62
1
0
CIRCLE
8
1
10
131.999
20
-169.499
40
2.01486
62
1
0
CIRCLE
8
1
10
122.999
20
-169.499
40
2.01486
62
1
0
CIRCLE
8
1
10
116.999
20
-169.499
40
2.01486
62
1
0
CIRCLE
8
1
10
110.999
20
-169.499
40
2.01486
62
1
0
ENDSEC
0
EOF
