999
DXF created from Projekt
0
SECTION
2
HEADER
9
$ACADVER
1
AC1006
9
$INSUNITS
70
4
9
$INSBASE
10
0.0
20
0.0
30
0.0
9
$EXTMIN
10
-214.437
20
-113.51
9
$EXTMAX
10
214.439
20
113.51
0
ENDSEC
0
SECTION
2
TABLES
0
TABLE
2
LTYPE
70
1
0
LTYPE
2
CONTINUOUS
70
64
3
Solid line
72
65
73
0
40
0.000000
0
ENDTAB
0
TABLE
2
LAYER
70
6
0
LAYER
2
1
70
64
62
7
6
CONTINUOUS
0
ENDTAB
0
TABLE
2
STYLE
70
0
0
ENDTAB
0
ENDSEC
0
SECTION
2
BLOCKS
0
ENDSEC
0
SECTION
2
ENTITIES
0
LINE
8
1
10
74.85
20
93.502
11
75.385
21
93.601
62
0
0
LINE
8
1
10
75.385
20
93.601
11
75.659
21
93.693
62
0
0
LINE
8
1
10
75.659
20
93.693
11
76.157
21
93.94
62
0
0
LINE
8
1
10
76.157
20
93.94
11
76.6
21
94.274
62
0
0
LINE
8
1
10
76.6
20
94.274
11
76.969
21
94.677
62
0
0
LINE
8
1
10
76.969
20
94.677
11
77.131
21
94.915
62
0
0
LINE
8
1
10
77.131
20
94.915
11
77.379
21
95.412
62
0
0
LINE
8
1
10
77.379
20
95.412
11
77.531
21
95.946
62
0
0
LINE
8
1
10
77.531
20
95.946
11
77.582
21
96.499
62
0
0
LINE
8
1
10
77.582
20
96.499
11
77.57
21
110.777
62
0
0
LINE
8
1
10
77.57
20
110.777
11
77.471
21
111.312
62
0
0
LINE
8
1
10
77.471
20
111.312
11
77.379
21
111.586
62
0
0
LINE
8
1
10
77.379
20
111.586
11
77.132
21
112.084
62
0
0
LINE
8
1
10
77.132
20
112.084
11
76.798
21
112.527
62
0
0
LINE
8
1
10
76.798
20
112.527
11
76.395
21
112.896
62
0
0
LINE
8
1
10
76.395
20
112.896
11
76.157
21
113.058
62
0
0
LINE
8
1
10
76.157
20
113.058
11
75.66
21
113.306
62
0
0
LINE
8
1
10
75.66
20
113.306
11
75.126
21
113.458
62
0
0
LINE
8
1
10
75.126
20
113.458
11
74.573
21
113.51
62
0
0
LINE
8
1
10
74.573
20
113.51
11
14.295
21
113.497
62
0
0
LINE
8
1
10
14.295
20
113.497
11
13.76
21
113.398
62
0
0
LINE
8
1
10
13.76
20
113.398
11
13.486
21
113.306
62
0
0
LINE
8
1
10
13.486
20
113.306
11
12.988
21
113.059
62
0
0
LINE
8
1
10
12.988
20
113.059
11
12.545
21
112.725
62
0
0
LINE
8
1
10
12.545
20
112.725
11
12.176
21
112.322
62
0
0
LINE
8
1
10
12.176
20
112.322
11
12.014
21
112.084
62
0
0
LINE
8
1
10
12.014
20
112.084
11
11.766
21
111.587
62
0
0
LINE
8
1
10
11.766
20
111.587
11
11.614
21
111.053
62
0
0
LINE
8
1
10
11.614
20
111.053
11
11.563
21
110.514
62
0
0
LINE
8
1
10
11.563
20
110.514
11
11.562
21
110.513
62
0
0
LINE
8
1
10
11.562
20
110.513
11
11.575
21
96.222
62
0
0
LINE
8
1
10
11.575
20
96.222
11
11.674
21
95.687
62
0
0
LINE
8
1
10
11.674
20
95.687
11
11.766
21
95.413
62
0
0
LINE
8
1
10
11.766
20
95.413
11
12.013
21
94.915
62
0
0
LINE
8
1
10
12.013
20
94.915
11
12.347
21
94.472
62
0
0
LINE
8
1
10
12.347
20
94.472
11
12.75
21
94.103
62
0
0
LINE
8
1
10
12.75
20
94.103
11
12.988
21
93.941
62
0
0
LINE
8
1
10
12.988
20
93.941
11
13.485
21
93.693
62
0
0
LINE
8
1
10
13.485
20
93.693
11
14.019
21
93.541
62
0
0
LINE
8
1
10
14.019
20
93.541
11
14.571
21
93.49
62
0
0
LINE
8
1
10
14.571
20
93.49
11
74.85
21
93.502
62
0
0
LINE
8
1
10
7.85
20
93.502
11
8.385
21
93.601
62
0
0
LINE
8
1
10
8.385
20
93.601
11
8.659
21
93.693
62
0
0
LINE
8
1
10
8.659
20
93.693
11
9.157
21
93.94
62
0
0
LINE
8
1
10
9.157
20
93.94
11
9.6
21
94.274
62
0
0
LINE
8
1
10
9.6
20
94.274
11
9.969
21
94.677
62
0
0
LINE
8
1
10
9.969
20
94.677
11
10.131
21
94.915
62
0
0
LINE
8
1
10
10.131
20
94.915
11
10.379
21
95.412
62
0
0
LINE
8
1
10
10.379
20
95.412
11
10.531
21
95.946
62
0
0
LINE
8
1
10
10.531
20
95.946
11
10.582
21
96.499
62
0
0
LINE
8
1
10
10.582
20
96.499
11
10.57
21
110.777
62
0
0
LINE
8
1
10
10.57
20
110.777
11
10.471
21
111.312
62
0
0
LINE
8
1
10
10.471
20
111.312
11
10.379
21
111.586
62
0
0
LINE
8
1
10
10.379
20
111.586
11
10.132
21
112.084
62
0
0
LINE
8
1
10
10.132
20
112.084
11
9.798
21
112.527
62
0
0
LINE
8
1
10
9.798
20
112.527
11
9.395
21
112.896
62
0
0
LINE
8
1
10
9.395
20
112.896
11
9.157
21
113.058
62
0
0
LINE
8
1
10
9.157
20
113.058
11
8.66
21
113.306
62
0
0
LINE
8
1
10
8.66
20
113.306
11
8.126
21
113.458
62
0
0
LINE
8
1
10
8.126
20
113.458
11
7.573
21
113.51
62
0
0
LINE
8
1
10
7.573
20
113.51
11
-52.704
21
113.497
62
0
0
LINE
8
1
10
-52.704
20
113.497
11
-53.239
21
113.398
62
0
0
LINE
8
1
10
-53.239
20
113.398
11
-53.513
21
113.306
62
0
0
LINE
8
1
10
-53.513
20
113.306
11
-54.011
21
113.059
62
0
0
LINE
8
1
10
-54.011
20
113.059
11
-54.454
21
112.725
62
0
0
LINE
8
1
10
-54.454
20
112.725
11
-54.823
21
112.322
62
0
0
LINE
8
1
10
-54.823
20
112.322
11
-54.985
21
112.084
62
0
0
LINE
8
1
10
-54.985
20
112.084
11
-55.233
21
111.587
62
0
0
LINE
8
1
10
-55.233
20
111.587
11
-55.385
21
111.053
62
0
0
LINE
8
1
10
-55.385
20
111.053
11
-55.436
21
110.514
62
0
0
LINE
8
1
10
-55.436
20
110.514
11
-55.437
21
110.513
62
0
0
LINE
8
1
10
-55.437
20
110.513
11
-55.424
21
96.222
62
0
0
LINE
8
1
10
-55.424
20
96.222
11
-55.325
21
95.687
62
0
0
LINE
8
1
10
-55.325
20
95.687
11
-55.233
21
95.413
62
0
0
LINE
8
1
10
-55.233
20
95.413
11
-54.986
21
94.915
62
0
0
LINE
8
1
10
-54.986
20
94.915
11
-54.652
21
94.472
62
0
0
LINE
8
1
10
-54.652
20
94.472
11
-54.249
21
94.103
62
0
0
LINE
8
1
10
-54.249
20
94.103
11
-54.011
21
93.941
62
0
0
LINE
8
1
10
-54.011
20
93.941
11
-53.514
21
93.693
62
0
0
LINE
8
1
10
-53.514
20
93.693
11
-52.98
21
93.541
62
0
0
LINE
8
1
10
-52.98
20
93.541
11
-52.427
21
93.49
62
0
0
LINE
8
1
10
-52.427
20
93.49
11
7.85
21
93.502
62
0
0
CIRCLE
8
1
10
-50.426
20
109.499
40
1.88986
62
0
0
CIRCLE
8
1
10
-32.426
20
109.499
40
1.88986
62
0
0
CIRCLE
8
1
10
-12.426
20
109.499
40
1.88986
62
0
0
CIRCLE
8
1
10
5.572
20
109.499
40
1.88986
62
0
0
CIRCLE
8
1
10
16.572
20
109.499
40
1.88986
62
0
0
CIRCLE
8
1
10
34.572
20
109.499
40
1.88986
62
0
0
CIRCLE
8
1
10
54.572
20
109.499
40
1.88986
62
0
0
CIRCLE
8
1
10
72.572
20
109.499
40
1.88986
62
0
0
LINE
8
1
10
166.85
20
87.502
11
167.385
21
87.601
62
0
0
LINE
8
1
10
167.385
20
87.601
11
167.659
21
87.693
62
0
0
LINE
8
1
10
167.659
20
87.693
11
168.157
21
87.94
62
0
0
LINE
8
1
10
168.157
20
87.94
11
168.6
21
88.274
62
0
0
LINE
8
1
10
168.6
20
88.274
11
168.969
21
88.677
62
0
0
LINE
8
1
10
168.969
20
88.677
11
169.131
21
88.915
62
0
0
LINE
8
1
10
169.131
20
88.915
11
169.379
21
89.412
62
0
0
LINE
8
1
10
169.379
20
89.412
11
169.531
21
89.946
62
0
0
LINE
8
1
10
169.531
20
89.946
11
169.582
21
90.499
62
0
0
LINE
8
1
10
169.582
20
90.499
11
169.57
21
104.777
62
0
0
LINE
8
1
10
169.57
20
104.777
11
169.471
21
105.312
62
0
0
LINE
8
1
10
169.471
20
105.312
11
169.379
21
105.586
62
0
0
LINE
8
1
10
169.379
20
105.586
11
169.132
21
106.084
62
0
0
LINE
8
1
10
169.132
20
106.084
11
168.798
21
106.527
62
0
0
LINE
8
1
10
168.798
20
106.527
11
168.395
21
106.896
62
0
0
LINE
8
1
10
168.395
20
106.896
11
168.157
21
107.058
62
0
0
LINE
8
1
10
168.157
20
107.058
11
167.66
21
107.306
62
0
0
LINE
8
1
10
167.66
20
107.306
11
167.126
21
107.458
62
0
0
LINE
8
1
10
167.126
20
107.458
11
166.573
21
107.51
62
0
0
LINE
8
1
10
166.573
20
107.51
11
106.295
21
107.497
62
0
0
LINE
8
1
10
106.295
20
107.497
11
105.76
21
107.398
62
0
0
LINE
8
1
10
105.76
20
107.398
11
105.486
21
107.306
62
0
0
LINE
8
1
10
105.486
20
107.306
11
104.988
21
107.059
62
0
0
LINE
8
1
10
104.988
20
107.059
11
104.545
21
106.725
62
0
0
LINE
8
1
10
104.545
20
106.725
11
104.176
21
106.322
62
0
0
LINE
8
1
10
104.176
20
106.322
11
104.014
21
106.084
62
0
0
LINE
8
1
10
104.014
20
106.084
11
103.766
21
105.587
62
0
0
LINE
8
1
10
103.766
20
105.587
11
103.614
21
105.053
62
0
0
LINE
8
1
10
103.614
20
105.053
11
103.563
21
104.514
62
0
0
LINE
8
1
10
103.563
20
104.514
11
103.562
21
104.513
62
0
0
LINE
8
1
10
103.562
20
104.513
11
103.575
21
90.222
62
0
0
LINE
8
1
10
103.575
20
90.222
11
103.674
21
89.687
62
0
0
LINE
8
1
10
103.674
20
89.687
11
103.766
21
89.413
62
0
0
LINE
8
1
10
103.766
20
89.413
11
104.013
21
88.915
62
0
0
LINE
8
1
10
104.013
20
88.915
11
104.347
21
88.472
62
0
0
LINE
8
1
10
104.347
20
88.472
11
104.75
21
88.103
62
0
0
LINE
8
1
10
104.75
20
88.103
11
104.988
21
87.941
62
0
0
LINE
8
1
10
104.988
20
87.941
11
105.485
21
87.693
62
0
0
LINE
8
1
10
105.485
20
87.693
11
106.019
21
87.541
62
0
0
LINE
8
1
10
106.019
20
87.541
11
106.571
21
87.49
62
0
0
LINE
8
1
10
106.571
20
87.49
11
166.85
21
87.502
62
0
0
LINE
8
1
10
-158.142
20
106.958
11
-158.365
21
106.996
62
0
0
LINE
8
1
10
-158.365
20
106.996
11
-179.263
21
107.009
62
0
0
LINE
8
1
10
-179.263
20
107.009
11
-179.489
21
106.996
62
0
0
LINE
8
1
10
-179.489
20
106.996
11
-179.712
21
106.958
62
0
0
LINE
8
1
10
-179.712
20
106.958
11
-179.936
21
106.892
62
0
0
LINE
8
1
10
-179.936
20
106.892
11
-180.291
21
106.727
62
0
0
LINE
8
1
10
-180.291
20
106.727
11
-181.905
21
105.535
62
0
0
LINE
8
1
10
-181.905
20
105.535
11
-182.094
21
105.374
62
0
0
LINE
8
1
10
-182.094
20
105.374
11
-182.262
21
105.192
62
0
0
LINE
8
1
10
-182.262
20
105.192
11
-182.405
21
104.99
62
0
0
LINE
8
1
10
-182.405
20
104.99
11
-182.524
21
104.772
62
0
0
LINE
8
1
10
-182.524
20
104.772
11
-182.615
21
104.541
62
0
0
LINE
8
1
10
-182.615
20
104.541
11
-182.633
21
104.482
62
0
0
LINE
8
1
10
-182.633
20
104.482
11
-182.649
21
104.422
62
0
0
LINE
8
1
10
-182.649
20
104.422
11
-182.736
21
104.118
62
0
0
LINE
8
1
10
-182.736
20
104.118
11
-182.838
21
103.885
62
0
0
LINE
8
1
10
-182.838
20
103.885
11
-182.97
21
103.665
62
0
0
LINE
8
1
10
-182.97
20
103.665
11
-183.129
21
103.465
62
0
0
LINE
8
1
10
-183.129
20
103.465
11
-183.311
21
103.287
62
0
0
LINE
8
1
10
-183.311
20
103.287
11
-183.515
21
103.135
62
0
0
LINE
8
1
10
-183.515
20
103.135
11
-183.736
21
103.009
62
0
0
LINE
8
1
10
-183.736
20
103.009
11
-183.995
21
103.026
62
0
0
LINE
8
1
10
-183.995
20
103.026
11
-184.252
21
103.078
62
0
0
LINE
8
1
10
-184.252
20
103.078
11
-184.501
21
103.163
62
0
0
LINE
8
1
10
-184.501
20
103.163
11
-184.734
21
103.279
62
0
0
LINE
8
1
10
-184.734
20
103.279
11
-184.952
21
103.426
62
0
0
LINE
8
1
10
-184.952
20
103.426
11
-185.148
21
103.6
62
0
0
LINE
8
1
10
-185.148
20
103.6
11
-185.319
21
103.797
62
0
0
LINE
8
1
10
-185.319
20
103.797
11
-185.463
21
104.016
62
0
0
LINE
8
1
10
-185.463
20
104.016
11
-185.578
21
104.252
62
0
0
LINE
8
1
10
-185.578
20
104.252
11
-185.745
21
104.757
62
0
0
LINE
8
1
10
-185.745
20
104.757
11
-185.864
21
105.002
62
0
0
LINE
8
1
10
-185.864
20
105.002
11
-186.016
21
105.227
62
0
0
LINE
8
1
10
-186.016
20
105.227
11
-186.197
21
105.43
62
0
0
LINE
8
1
10
-186.197
20
105.43
11
-187.745
21
106.61
62
0
0
LINE
8
1
10
-187.745
20
106.61
11
-187.914
21
106.723
62
0
0
LINE
8
1
10
-187.914
20
106.723
11
-188.086
21
106.814
62
0
0
LINE
8
1
10
-188.086
20
106.814
11
-188.093
21
106.818
62
0
0
LINE
8
1
10
-188.093
20
106.818
11
-188.498
21
106.958
62
0
0
LINE
8
1
10
-188.498
20
106.958
11
-188.722
21
106.996
62
0
0
LINE
8
1
10
-188.722
20
106.996
11
-204.866
21
106.992
62
0
0
LINE
8
1
10
-204.866
20
106.992
11
-205.49
21
106.936
62
0
0
LINE
8
1
10
-205.49
20
106.936
11
-206.679
21
106.718
62
0
0
LINE
8
1
10
-206.679
20
106.718
11
-207.833
21
106.358
62
0
0
LINE
8
1
10
-207.833
20
106.358
11
-208.935
21
105.863
62
0
0
LINE
8
1
10
-208.935
20
105.863
11
-209.969
21
105.237
62
0
0
LINE
8
1
10
-209.969
20
105.237
11
-210.921
21
104.492
62
0
0
LINE
8
1
10
-210.921
20
104.492
11
-211.776
21
103.637
62
0
0
LINE
8
1
10
-211.776
20
103.637
11
-212.521
21
102.686
62
0
0
LINE
8
1
10
-212.521
20
102.686
11
-213.147
21
101.651
62
0
0
LINE
8
1
10
-213.147
20
101.651
11
-213.643
21
100.549
62
0
0
LINE
8
1
10
-213.643
20
100.549
11
-214.003
21
99.395
62
0
0
LINE
8
1
10
-214.003
20
99.395
11
-214.221
21
98.205
62
0
0
LINE
8
1
10
-214.221
20
98.205
11
-214.294
21
96.999
62
0
0
LINE
8
1
10
-214.294
20
96.999
11
-214.221
21
95.793
62
0
0
LINE
8
1
10
-214.221
20
95.793
11
-214.003
21
94.604
62
0
0
LINE
8
1
10
-214.003
20
94.604
11
-213.643
21
93.45
62
0
0
LINE
8
1
10
-213.643
20
93.45
11
-213.147
21
92.348
62
0
0
LINE
8
1
10
-213.147
20
92.348
11
-212.521
21
91.313
62
0
0
LINE
8
1
10
-212.521
20
91.313
11
-211.777
21
90.362
62
0
0
LINE
8
1
10
-211.777
20
90.362
11
-210.922
21
89.507
62
0
0
LINE
8
1
10
-210.922
20
89.507
11
-209.97
21
88.761
62
0
0
LINE
8
1
10
-209.97
20
88.761
11
-208.936
21
88.135
62
0
0
LINE
8
1
10
-208.936
20
88.135
11
-207.834
21
87.64
62
0
0
LINE
8
1
10
-207.834
20
87.64
11
-206.68
21
87.28
62
0
0
LINE
8
1
10
-206.68
20
87.28
11
-205.49
21
87.062
62
0
0
LINE
8
1
10
-205.49
20
87.062
11
-188.948
21
86.989
62
0
0
LINE
8
1
10
-188.948
20
86.989
11
-188.722
21
87.002
62
0
0
LINE
8
1
10
-188.722
20
87.002
11
-188.498
21
87.04
62
0
0
LINE
8
1
10
-188.498
20
87.04
11
-188.275
21
87.106
62
0
0
LINE
8
1
10
-188.275
20
87.106
11
-187.92
21
87.271
62
0
0
LINE
8
1
10
-187.92
20
87.271
11
-186.306
21
88.463
62
0
0
LINE
8
1
10
-186.306
20
88.463
11
-186.117
21
88.624
62
0
0
LINE
8
1
10
-186.117
20
88.624
11
-185.949
21
88.806
62
0
0
LINE
8
1
10
-185.949
20
88.806
11
-185.805
21
89.008
62
0
0
LINE
8
1
10
-185.805
20
89.008
11
-185.686
21
89.226
62
0
0
LINE
8
1
10
-185.686
20
89.226
11
-185.595
21
89.457
62
0
0
LINE
8
1
10
-185.595
20
89.457
11
-185.577
21
89.516
62
0
0
LINE
8
1
10
-185.577
20
89.516
11
-185.561
21
89.576
62
0
0
LINE
8
1
10
-185.561
20
89.576
11
-185.561
21
89.577
62
0
0
LINE
8
1
10
-185.561
20
89.577
11
-185.475
21
89.881
62
0
0
LINE
8
1
10
-185.475
20
89.881
11
-185.373
21
90.113
62
0
0
LINE
8
1
10
-185.373
20
90.113
11
-185.241
21
90.332
62
0
0
LINE
8
1
10
-185.241
20
90.332
11
-185.083
21
90.532
62
0
0
LINE
8
1
10
-185.083
20
90.532
11
-184.9
21
90.71
62
0
0
LINE
8
1
10
-184.9
20
90.71
11
-184.696
21
90.863
62
0
0
LINE
8
1
10
-184.696
20
90.863
11
-184.475
21
90.989
62
0
0
LINE
8
1
10
-184.475
20
90.989
11
-184.216
21
90.972
62
0
0
LINE
8
1
10
-184.216
20
90.972
11
-183.959
21
90.92
62
0
0
LINE
8
1
10
-183.959
20
90.92
11
-183.71
21
90.835
62
0
0
LINE
8
1
10
-183.71
20
90.835
11
-183.477
21
90.719
62
0
0
LINE
8
1
10
-183.477
20
90.719
11
-183.258
21
90.572
62
0
0
LINE
8
1
10
-183.258
20
90.572
11
-183.062
21
90.398
62
0
0
LINE
8
1
10
-183.062
20
90.398
11
-182.892
21
90.201
62
0
0
LINE
8
1
10
-182.892
20
90.201
11
-182.748
21
89.982
62
0
0
LINE
8
1
10
-182.748
20
89.982
11
-182.633
21
89.746
62
0
0
LINE
8
1
10
-182.633
20
89.746
11
-182.465
21
89.241
62
0
0
LINE
8
1
10
-182.465
20
89.241
11
-182.346
21
88.996
62
0
0
LINE
8
1
10
-182.346
20
88.996
11
-182.195
21
88.771
62
0
0
LINE
8
1
10
-182.195
20
88.771
11
-182.014
21
88.568
62
0
0
LINE
8
1
10
-182.014
20
88.568
11
-180.465
21
87.388
62
0
0
LINE
8
1
10
-180.465
20
87.388
11
-180.297
21
87.275
62
0
0
LINE
8
1
10
-180.297
20
87.275
11
-180.125
21
87.184
62
0
0
LINE
8
1
10
-180.125
20
87.184
11
-180.118
21
87.18
62
0
0
LINE
8
1
10
-180.118
20
87.18
11
-179.712
21
87.04
62
0
0
LINE
8
1
10
-179.712
20
87.04
11
-179.489
21
87.002
62
0
0
LINE
8
1
10
-179.489
20
87.002
11
-158.591
21
86.989
62
0
0
LINE
8
1
10
-158.591
20
86.989
11
-158.365
21
87.002
62
0
0
LINE
8
1
10
-158.365
20
87.002
11
-158.142
21
87.04
62
0
0
LINE
8
1
10
-158.142
20
87.04
11
-157.918
21
87.106
62
0
0
LINE
8
1
10
-157.918
20
87.106
11
-157.563
21
87.271
62
0
0
LINE
8
1
10
-157.563
20
87.271
11
-156.046
21
88.391
62
0
0
LINE
8
1
10
-156.046
20
88.391
11
-155.84
21
88.568
62
0
0
LINE
8
1
10
-155.84
20
88.568
11
-155.659
21
88.771
62
0
0
LINE
8
1
10
-155.659
20
88.771
11
-155.508
21
88.996
62
0
0
LINE
8
1
10
-155.508
20
88.996
11
-155.389
21
89.24
62
0
0
LINE
8
1
10
-155.389
20
89.24
11
-155.218
21
89.753
62
0
0
LINE
8
1
10
-155.218
20
89.753
11
-155.103
21
89.988
62
0
0
LINE
8
1
10
-155.103
20
89.988
11
-154.962
21
90.201
62
0
0
LINE
8
1
10
-154.962
20
90.201
11
-154.792
21
90.398
62
0
0
LINE
8
1
10
-154.792
20
90.398
11
-154.596
21
90.572
62
0
0
LINE
8
1
10
-154.596
20
90.572
11
-154.377
21
90.719
62
0
0
LINE
8
1
10
-154.377
20
90.719
11
-154.144
21
90.835
62
0
0
LINE
8
1
10
-154.144
20
90.835
11
-153.895
21
90.92
62
0
0
LINE
8
1
10
-153.895
20
90.92
11
-153.638
21
90.972
62
0
0
LINE
8
1
10
-153.638
20
90.972
11
-153.379
21
90.989
62
0
0
LINE
8
1
10
-153.379
20
90.989
11
-153.158
21
90.863
62
0
0
LINE
8
1
10
-153.158
20
90.863
11
-152.954
21
90.71
62
0
0
LINE
8
1
10
-152.954
20
90.71
11
-152.771
21
90.532
62
0
0
LINE
8
1
10
-152.771
20
90.532
11
-152.613
21
90.332
62
0
0
LINE
8
1
10
-152.613
20
90.332
11
-152.481
21
90.113
62
0
0
LINE
8
1
10
-152.481
20
90.113
11
-152.379
21
89.88
62
0
0
LINE
8
1
10
-152.379
20
89.88
11
-152.307
21
89.634
62
0
0
LINE
8
1
10
-152.307
20
89.634
11
-152.293
21
89.575
62
0
0
LINE
8
1
10
-152.293
20
89.575
11
-152.277
21
89.515
62
0
0
LINE
8
1
10
-152.277
20
89.515
11
-152.168
21
89.226
62
0
0
LINE
8
1
10
-152.168
20
89.226
11
-152.049
21
89.008
62
0
0
LINE
8
1
10
-152.049
20
89.008
11
-151.905
21
88.806
62
0
0
LINE
8
1
10
-151.905
20
88.806
11
-151.737
21
88.624
62
0
0
LINE
8
1
10
-151.737
20
88.624
11
-149.574
21
86.989
62
0
0
LINE
8
1
10
-149.574
20
86.989
11
-132.364
21
87.062
62
0
0
LINE
8
1
10
-132.364
20
87.062
11
-131.175
21
87.28
62
0
0
LINE
8
1
10
-131.175
20
87.28
11
-130.021
21
87.64
62
0
0
LINE
8
1
10
-130.021
20
87.64
11
-128.919
21
88.135
62
0
0
LINE
8
1
10
-128.919
20
88.135
11
-127.885
21
88.761
62
0
0
LINE
8
1
10
-127.885
20
88.761
11
-126.933
21
89.506
62
0
0
LINE
8
1
10
-126.933
20
89.506
11
-126.078
21
90.361
62
0
0
LINE
8
1
10
-126.078
20
90.361
11
-125.333
21
91.312
62
0
0
LINE
8
1
10
-125.333
20
91.312
11
-124.707
21
92.347
62
0
0
LINE
8
1
10
-124.707
20
92.347
11
-124.211
21
93.449
62
0
0
LINE
8
1
10
-124.211
20
93.449
11
-123.851
21
94.603
62
0
0
LINE
8
1
10
-123.851
20
94.603
11
-123.633
21
95.793
62
0
0
LINE
8
1
10
-123.633
20
95.793
11
-123.56
21
96.999
62
0
0
LINE
8
1
10
-123.56
20
96.999
11
-123.633
21
98.205
62
0
0
LINE
8
1
10
-123.633
20
98.205
11
-123.851
21
99.394
62
0
0
LINE
8
1
10
-123.851
20
99.394
11
-124.211
21
100.548
62
0
0
LINE
8
1
10
-124.211
20
100.548
11
-124.707
21
101.65
62
0
0
LINE
8
1
10
-124.707
20
101.65
11
-125.333
21
102.685
62
0
0
LINE
8
1
10
-125.333
20
102.685
11
-126.077
21
103.636
62
0
0
LINE
8
1
10
-126.077
20
103.636
11
-126.932
21
104.491
62
0
0
LINE
8
1
10
-126.932
20
104.491
11
-127.884
21
105.237
62
0
0
LINE
8
1
10
-127.884
20
105.237
11
-128.918
21
105.863
62
0
0
LINE
8
1
10
-128.918
20
105.863
11
-130.02
21
106.358
62
0
0
LINE
8
1
10
-130.02
20
106.358
11
-131.174
21
106.718
62
0
0
LINE
8
1
10
-131.174
20
106.718
11
-132.363
21
106.936
62
0
0
LINE
8
1
10
-132.363
20
106.936
11
-149.573
21
107.009
62
0
0
LINE
8
1
10
-149.573
20
107.009
11
-151.657
21
105.43
62
0
0
LINE
8
1
10
-151.657
20
105.43
11
-151.838
21
105.227
62
0
0
LINE
8
1
10
-151.838
20
105.227
11
-151.99
21
105.002
62
0
0
LINE
8
1
10
-151.99
20
105.002
11
-152.109
21
104.758
62
0
0
LINE
8
1
10
-152.109
20
104.758
11
-152.279
21
104.244
62
0
0
LINE
8
1
10
-152.279
20
104.244
11
-152.395
21
104.008
62
0
0
LINE
8
1
10
-152.395
20
104.008
11
-152.535
21
103.797
62
0
0
LINE
8
1
10
-152.535
20
103.797
11
-152.708
21
103.598
62
0
0
LINE
8
1
10
-152.708
20
103.598
11
-152.903
21
103.425
62
0
0
LINE
8
1
10
-152.903
20
103.425
11
-153.12
21
103.279
62
0
0
LINE
8
1
10
-153.12
20
103.279
11
-153.353
21
103.163
62
0
0
LINE
8
1
10
-153.353
20
103.163
11
-153.602
21
103.078
62
0
0
LINE
8
1
10
-153.602
20
103.078
11
-153.859
21
103.026
62
0
0
LINE
8
1
10
-153.859
20
103.026
11
-154.118
21
103.009
62
0
0
LINE
8
1
10
-154.118
20
103.009
11
-154.339
21
103.135
62
0
0
LINE
8
1
10
-154.339
20
103.135
11
-154.544
21
103.288
62
0
0
LINE
8
1
10
-154.544
20
103.288
11
-154.726
21
103.466
62
0
0
LINE
8
1
10
-154.726
20
103.466
11
-154.885
21
103.666
62
0
0
LINE
8
1
10
-154.885
20
103.666
11
-155.016
21
103.885
62
0
0
LINE
8
1
10
-155.016
20
103.885
11
-155.118
21
104.118
62
0
0
LINE
8
1
10
-155.118
20
104.118
11
-155.19
21
104.364
62
0
0
LINE
8
1
10
-155.19
20
104.364
11
-155.205
21
104.424
62
0
0
LINE
8
1
10
-155.205
20
104.424
11
-155.221
21
104.483
62
0
0
LINE
8
1
10
-155.221
20
104.483
11
-155.326
21
104.764
62
0
0
LINE
8
1
10
-155.326
20
104.764
11
-155.448
21
104.99
62
0
0
LINE
8
1
10
-155.448
20
104.99
11
-155.592
21
105.192
62
0
0
LINE
8
1
10
-155.592
20
105.192
11
-155.76
21
105.374
62
0
0
LINE
8
1
10
-155.76
20
105.374
11
-157.389
21
106.61
62
0
0
LINE
8
1
10
-157.389
20
106.61
11
-157.557
21
106.723
62
0
0
LINE
8
1
10
-157.557
20
106.723
11
-157.729
21
106.814
62
0
0
LINE
8
1
10
-157.729
20
106.814
11
-157.736
21
106.818
62
0
0
LINE
8
1
10
-157.736
20
106.818
11
-158.142
21
106.958
62
0
0
LINE
8
1
10
-59.149
20
86.502
11
-58.614
21
86.601
62
0
0
LINE
8
1
10
-58.614
20
86.601
11
-58.34
21
86.693
62
0
0
LINE
8
1
10
-58.34
20
86.693
11
-57.842
21
86.94
62
0
0
LINE
8
1
10
-57.842
20
86.94
11
-57.399
21
87.274
62
0
0
LINE
8
1
10
-57.399
20
87.274
11
-57.03
21
87.677
62
0
0
LINE
8
1
10
-57.03
20
87.677
11
-56.868
21
87.915
62
0
0
LINE
8
1
10
-56.868
20
87.915
11
-56.62
21
88.412
62
0
0
LINE
8
1
10
-56.62
20
88.412
11
-56.468
21
88.946
62
0
0
LINE
8
1
10
-56.468
20
88.946
11
-56.416
21
89.499
62
0
0
LINE
8
1
10
-56.416
20
89.499
11
-56.429
21
103.777
62
0
0
LINE
8
1
10
-56.429
20
103.777
11
-56.528
21
104.312
62
0
0
LINE
8
1
10
-56.528
20
104.312
11
-56.62
21
104.586
62
0
0
LINE
8
1
10
-56.62
20
104.586
11
-56.867
21
105.084
62
0
0
LINE
8
1
10
-56.867
20
105.084
11
-57.201
21
105.527
62
0
0
LINE
8
1
10
-57.201
20
105.527
11
-57.604
21
105.896
62
0
0
LINE
8
1
10
-57.604
20
105.896
11
-57.842
21
106.058
62
0
0
LINE
8
1
10
-57.842
20
106.058
11
-58.339
21
106.306
62
0
0
LINE
8
1
10
-58.339
20
106.306
11
-58.873
21
106.458
62
0
0
LINE
8
1
10
-58.873
20
106.458
11
-59.426
21
106.51
62
0
0
LINE
8
1
10
-59.426
20
106.51
11
-119.704
21
106.497
62
0
0
LINE
8
1
10
-119.704
20
106.497
11
-120.239
21
106.398
62
0
0
LINE
8
1
10
-120.239
20
106.398
11
-120.513
21
106.306
62
0
0
LINE
8
1
10
-120.513
20
106.306
11
-121.011
21
106.059
62
0
0
LINE
8
1
10
-121.011
20
106.059
11
-121.454
21
105.725
62
0
0
LINE
8
1
10
-121.454
20
105.725
11
-121.823
21
105.322
62
0
0
LINE
8
1
10
-121.823
20
105.322
11
-121.985
21
105.084
62
0
0
LINE
8
1
10
-121.985
20
105.084
11
-122.233
21
104.587
62
0
0
LINE
8
1
10
-122.233
20
104.587
11
-122.385
21
104.053
62
0
0
LINE
8
1
10
-122.385
20
104.053
11
-122.436
21
103.514
62
0
0
LINE
8
1
10
-122.436
20
103.514
11
-122.437
21
103.513
62
0
0
LINE
8
1
10
-122.437
20
103.513
11
-122.424
21
89.222
62
0
0
LINE
8
1
10
-122.424
20
89.222
11
-122.325
21
88.687
62
0
0
LINE
8
1
10
-122.325
20
88.687
11
-122.233
21
88.413
62
0
0
LINE
8
1
10
-122.233
20
88.413
11
-121.986
21
87.915
62
0
0
LINE
8
1
10
-121.986
20
87.915
11
-121.652
21
87.472
62
0
0
LINE
8
1
10
-121.652
20
87.472
11
-121.249
21
87.103
62
0
0
LINE
8
1
10
-121.249
20
87.103
11
-121.011
21
86.941
62
0
0
LINE
8
1
10
-121.011
20
86.941
11
-120.514
21
86.693
62
0
0
LINE
8
1
10
-120.514
20
86.693
11
-119.98
21
86.541
62
0
0
LINE
8
1
10
-119.98
20
86.541
11
-119.428
21
86.49
62
0
0
LINE
8
1
10
-119.428
20
86.49
11
-59.149
21
86.502
62
0
0
CIRCLE
8
1
10
-50.426
20
103.499
40
1.88986
62
0
0
CIRCLE
8
1
10
-32.426
20
103.499
40
1.88986
62
0
0
CIRCLE
8
1
10
-12.426
20
103.499
40
1.88986
62
0
0
CIRCLE
8
1
10
5.572
20
103.499
40
1.88986
62
0
0
CIRCLE
8
1
10
16.572
20
103.499
40
1.88986
62
0
0
CIRCLE
8
1
10
34.572
20
103.499
40
1.88986
62
0
0
CIRCLE
8
1
10
54.572
20
103.499
40
1.88986
62
0
0
CIRCLE
8
1
10
72.572
20
103.499
40
1.88986
62
0
0
CIRCLE
8
1
10
108.572
20
103.499
40
1.88986
62
0
0
CIRCLE
8
1
10
126.572
20
103.499
40
1.88986
62
0
0
CIRCLE
8
1
10
146.572
20
103.499
40
1.88986
62
0
0
CIRCLE
8
1
10
164.572
20
103.499
40
1.88986
62
0
0
CIRCLE
8
1
10
-204.284
20
102.999
40
1.89001
62
0
0
CIRCLE
8
1
10
-133.569
20
102.998
40
1.88988
62
0
0
CIRCLE
8
1
10
-117.426
20
102.499
40
1.88986
62
0
0
CIRCLE
8
1
10
-99.426
20
102.499
40
1.88986
62
0
0
CIRCLE
8
1
10
-79.426
20
102.499
40
1.88986
62
0
0
CIRCLE
8
1
10
-61.426
20
102.499
40
1.88986
62
0
0
CIRCLE
8
1
10
-163.927
20
101.998
40
1.49046
62
0
0
CIRCLE
8
1
10
-173.927
20
101.998
40
1.49046
62
0
0
CIRCLE
8
1
10
-50.426
20
97.499
40
1.88986
62
0
0
CIRCLE
8
1
10
-32.426
20
97.499
40
1.88986
62
0
0
CIRCLE
8
1
10
-12.426
20
97.499
40
1.88986
62
0
0
CIRCLE
8
1
10
5.572
20
97.499
40
1.88986
62
0
0
CIRCLE
8
1
10
16.572
20
97.499
40
1.88986
62
0
0
CIRCLE
8
1
10
34.572
20
97.499
40
1.88986
62
0
0
CIRCLE
8
1
10
54.572
20
97.499
40
1.88986
62
0
0
CIRCLE
8
1
10
72.572
20
97.499
40
1.88986
62
0
0
CIRCLE
8
1
10
108.572
20
97.499
40
1.88986
62
0
0
CIRCLE
8
1
10
126.572
20
97.499
40
1.88986
62
0
0
CIRCLE
8
1
10
146.572
20
97.499
40
1.88986
62
0
0
CIRCLE
8
1
10
164.572
20
97.499
40
1.88986
62
0
0
CIRCLE
8
1
10
-210.284
20
96.998
40
1.89004
62
0
0
CIRCLE
8
1
10
-204.284
20
96.998
40
1.89004
62
0
0
CIRCLE
8
1
10
-198.284
20
96.998
40
1.89004
62
0
0
CIRCLE
8
1
10
-139.569
20
96.998
40
1.88988
62
0
0
CIRCLE
8
1
10
-133.569
20
96.998
40
1.88988
62
0
0
CIRCLE
8
1
10
-127.569
20
96.998
40
1.88988
62
0
0
CIRCLE
8
1
10
-117.426
20
96.499
40
1.88986
62
0
0
CIRCLE
8
1
10
-99.426
20
96.499
40
1.88986
62
0
0
CIRCLE
8
1
10
-79.426
20
96.499
40
1.88986
62
0
0
CIRCLE
8
1
10
-61.426
20
96.499
40
1.88986
62
0
0
CIRCLE
8
1
10
-163.927
20
91.998
40
1.49047
62
0
0
CIRCLE
8
1
10
-173.927
20
91.998
40
1.49047
62
0
0
CIRCLE
8
1
10
108.572
20
91.499
40
1.88986
62
0
0
CIRCLE
8
1
10
126.572
20
91.499
40
1.88986
62
0
0
CIRCLE
8
1
10
146.572
20
91.499
40
1.88986
62
0
0
CIRCLE
8
1
10
164.572
20
91.499
40
1.88986
62
0
0
CIRCLE
8
1
10
-204.284
20
90.998
40
1.89004
62
0
0
CIRCLE
8
1
10
-133.569
20
90.999
40
1.88997
62
0
0
LINE
8
1
10
99.85
20
72.502
11
100.385
21
72.601
62
0
0
LINE
8
1
10
100.385
20
72.601
11
100.659
21
72.693
62
0
0
LINE
8
1
10
100.659
20
72.693
11
101.157
21
72.94
62
0
0
LINE
8
1
10
101.157
20
72.94
11
101.6
21
73.274
62
0
0
LINE
8
1
10
101.6
20
73.274
11
101.969
21
73.677
62
0
0
LINE
8
1
10
101.969
20
73.677
11
102.131
21
73.915
62
0
0
LINE
8
1
10
102.131
20
73.915
11
102.379
21
74.412
62
0
0
LINE
8
1
10
102.379
20
74.412
11
102.531
21
74.946
62
0
0
LINE
8
1
10
102.531
20
74.946
11
102.582
21
75.499
62
0
0
LINE
8
1
10
102.582
20
75.499
11
102.57
21
89.777
62
0
0
LINE
8
1
10
102.57
20
89.777
11
102.471
21
90.312
62
0
0
LINE
8
1
10
102.471
20
90.312
11
102.379
21
90.586
62
0
0
LINE
8
1
10
102.379
20
90.586
11
102.132
21
91.084
62
0
0
LINE
8
1
10
102.132
20
91.084
11
101.798
21
91.527
62
0
0
LINE
8
1
10
101.798
20
91.527
11
101.395
21
91.896
62
0
0
LINE
8
1
10
101.395
20
91.896
11
101.157
21
92.058
62
0
0
LINE
8
1
10
101.157
20
92.058
11
100.66
21
92.306
62
0
0
LINE
8
1
10
100.66
20
92.306
11
100.126
21
92.458
62
0
0
LINE
8
1
10
100.126
20
92.458
11
99.573
21
92.51
62
0
0
LINE
8
1
10
99.573
20
92.51
11
39.295
21
92.497
62
0
0
LINE
8
1
10
39.295
20
92.497
11
38.76
21
92.398
62
0
0
LINE
8
1
10
38.76
20
92.398
11
38.486
21
92.306
62
0
0
LINE
8
1
10
38.486
20
92.306
11
37.988
21
92.059
62
0
0
LINE
8
1
10
37.988
20
92.059
11
37.545
21
91.725
62
0
0
LINE
8
1
10
37.545
20
91.725
11
37.176
21
91.322
62
0
0
LINE
8
1
10
37.176
20
91.322
11
37.014
21
91.084
62
0
0
LINE
8
1
10
37.014
20
91.084
11
36.766
21
90.587
62
0
0
LINE
8
1
10
36.766
20
90.587
11
36.614
21
90.053
62
0
0
LINE
8
1
10
36.614
20
90.053
11
36.563
21
89.514
62
0
0
LINE
8
1
10
36.563
20
89.514
11
36.562
21
89.513
62
0
0
LINE
8
1
10
36.562
20
89.513
11
36.575
21
75.222
62
0
0
LINE
8
1
10
36.575
20
75.222
11
36.674
21
74.687
62
0
0
LINE
8
1
10
36.674
20
74.687
11
36.766
21
74.413
62
0
0
LINE
8
1
10
36.766
20
74.413
11
37.013
21
73.915
62
0
0
LINE
8
1
10
37.013
20
73.915
11
37.347
21
73.472
62
0
0
LINE
8
1
10
37.347
20
73.472
11
37.75
21
73.103
62
0
0
LINE
8
1
10
37.75
20
73.103
11
37.988
21
72.941
62
0
0
LINE
8
1
10
37.988
20
72.941
11
38.485
21
72.693
62
0
0
LINE
8
1
10
38.485
20
72.693
11
39.019
21
72.541
62
0
0
LINE
8
1
10
39.019
20
72.541
11
39.572
21
72.49
62
0
0
LINE
8
1
10
39.572
20
72.49
11
99.85
21
72.502
62
0
0
LINE
8
1
10
32.85
20
72.502
11
33.385
21
72.601
62
0
0
LINE
8
1
10
33.385
20
72.601
11
33.659
21
72.693
62
0
0
LINE
8
1
10
33.659
20
72.693
11
34.157
21
72.94
62
0
0
LINE
8
1
10
34.157
20
72.94
11
34.6
21
73.274
62
0
0
LINE
8
1
10
34.6
20
73.274
11
34.969
21
73.677
62
0
0
LINE
8
1
10
34.969
20
73.677
11
35.131
21
73.915
62
0
0
LINE
8
1
10
35.131
20
73.915
11
35.379
21
74.412
62
0
0
LINE
8
1
10
35.379
20
74.412
11
35.531
21
74.946
62
0
0
LINE
8
1
10
35.531
20
74.946
11
35.583
21
75.499
62
0
0
LINE
8
1
10
35.583
20
75.499
11
35.57
21
89.777
62
0
0
LINE
8
1
10
35.57
20
89.777
11
35.471
21
90.312
62
0
0
LINE
8
1
10
35.471
20
90.312
11
35.379
21
90.586
62
0
0
LINE
8
1
10
35.379
20
90.586
11
35.132
21
91.084
62
0
0
LINE
8
1
10
35.132
20
91.084
11
34.798
21
91.527
62
0
0
LINE
8
1
10
34.798
20
91.527
11
34.395
21
91.896
62
0
0
LINE
8
1
10
34.395
20
91.896
11
34.157
21
92.058
62
0
0
LINE
8
1
10
34.157
20
92.058
11
33.66
21
92.306
62
0
0
LINE
8
1
10
33.66
20
92.306
11
33.126
21
92.458
62
0
0
LINE
8
1
10
33.126
20
92.458
11
32.573
21
92.51
62
0
0
LINE
8
1
10
32.573
20
92.51
11
-27.704
21
92.497
62
0
0
LINE
8
1
10
-27.704
20
92.497
11
-28.239
21
92.398
62
0
0
LINE
8
1
10
-28.239
20
92.398
11
-28.513
21
92.306
62
0
0
LINE
8
1
10
-28.513
20
92.306
11
-29.011
21
92.059
62
0
0
LINE
8
1
10
-29.011
20
92.059
11
-29.454
21
91.725
62
0
0
LINE
8
1
10
-29.454
20
91.725
11
-29.823
21
91.322
62
0
0
LINE
8
1
10
-29.823
20
91.322
11
-29.985
21
91.084
62
0
0
LINE
8
1
10
-29.985
20
91.084
11
-30.233
21
90.587
62
0
0
LINE
8
1
10
-30.233
20
90.587
11
-30.385
21
90.053
62
0
0
LINE
8
1
10
-30.385
20
90.053
11
-30.436
21
89.514
62
0
0
LINE
8
1
10
-30.436
20
89.514
11
-30.437
21
89.513
62
0
0
LINE
8
1
10
-30.437
20
89.513
11
-30.424
21
75.222
62
0
0
LINE
8
1
10
-30.424
20
75.222
11
-30.325
21
74.687
62
0
0
LINE
8
1
10
-30.325
20
74.687
11
-30.233
21
74.413
62
0
0
LINE
8
1
10
-30.233
20
74.413
11
-29.986
21
73.915
62
0
0
LINE
8
1
10
-29.986
20
73.915
11
-29.652
21
73.472
62
0
0
LINE
8
1
10
-29.652
20
73.472
11
-29.249
21
73.103
62
0
0
LINE
8
1
10
-29.249
20
73.103
11
-29.011
21
72.941
62
0
0
LINE
8
1
10
-29.011
20
72.941
11
-28.514
21
72.693
62
0
0
LINE
8
1
10
-28.514
20
72.693
11
-27.98
21
72.541
62
0
0
LINE
8
1
10
-27.98
20
72.541
11
-27.428
21
72.49
62
0
0
LINE
8
1
10
-27.428
20
72.49
11
32.85
21
72.502
62
0
0
CIRCLE
8
1
10
-117.426
20
90.499
40
1.88986
62
0
0
CIRCLE
8
1
10
-99.426
20
90.499
40
1.88986
62
0
0
CIRCLE
8
1
10
-79.426
20
90.499
40
1.88986
62
0
0
CIRCLE
8
1
10
-61.426
20
90.499
40
1.88986
62
0
0
CIRCLE
8
1
10
-25.426
20
88.499
40
1.88986
62
0
0
CIRCLE
8
1
10
-7.426
20
88.499
40
1.88986
62
0
0
CIRCLE
8
1
10
12.572
20
88.499
40
1.88986
62
0
0
CIRCLE
8
1
10
30.572
20
88.499
40
1.88986
62
0
0
CIRCLE
8
1
10
41.572
20
88.499
40
1.88986
62
0
0
CIRCLE
8
1
10
59.572
20
88.499
40
1.88986
62
0
0
CIRCLE
8
1
10
79.572
20
88.499
40
1.88986
62
0
0
CIRCLE
8
1
10
97.572
20
88.499
40
1.88986
62
0
0
LINE
8
1
10
168.85
20
66.502
11
169.385
21
66.601
62
0
0
LINE
8
1
10
169.385
20
66.601
11
169.659
21
66.693
62
0
0
LINE
8
1
10
169.659
20
66.693
11
170.157
21
66.94
62
0
0
LINE
8
1
10
170.157
20
66.94
11
170.6
21
67.274
62
0
0
LINE
8
1
10
170.6
20
67.274
11
170.969
21
67.677
62
0
0
LINE
8
1
10
170.969
20
67.677
11
171.131
21
67.915
62
0
0
LINE
8
1
10
171.131
20
67.915
11
171.379
21
68.412
62
0
0
LINE
8
1
10
171.379
20
68.412
11
171.531
21
68.946
62
0
0
LINE
8
1
10
171.531
20
68.946
11
171.582
21
69.499
62
0
0
LINE
8
1
10
171.582
20
69.499
11
171.57
21
83.777
62
0
0
LINE
8
1
10
171.57
20
83.777
11
171.471
21
84.312
62
0
0
LINE
8
1
10
171.471
20
84.312
11
171.379
21
84.586
62
0
0
LINE
8
1
10
171.379
20
84.586
11
171.132
21
85.084
62
0
0
LINE
8
1
10
171.132
20
85.084
11
170.798
21
85.527
62
0
0
LINE
8
1
10
170.798
20
85.527
11
170.395
21
85.896
62
0
0
LINE
8
1
10
170.395
20
85.896
11
170.157
21
86.058
62
0
0
LINE
8
1
10
170.157
20
86.058
11
169.66
21
86.306
62
0
0
LINE
8
1
10
169.66
20
86.306
11
169.126
21
86.458
62
0
0
LINE
8
1
10
169.126
20
86.458
11
168.573
21
86.51
62
0
0
LINE
8
1
10
168.573
20
86.51
11
108.295
21
86.497
62
0
0
LINE
8
1
10
108.295
20
86.497
11
107.76
21
86.398
62
0
0
LINE
8
1
10
107.76
20
86.398
11
107.486
21
86.306
62
0
0
LINE
8
1
10
107.486
20
86.306
11
106.988
21
86.059
62
0
0
LINE
8
1
10
106.988
20
86.059
11
106.545
21
85.725
62
0
0
LINE
8
1
10
106.545
20
85.725
11
106.176
21
85.322
62
0
0
LINE
8
1
10
106.176
20
85.322
11
106.014
21
85.084
62
0
0
LINE
8
1
10
106.014
20
85.084
11
105.766
21
84.587
62
0
0
LINE
8
1
10
105.766
20
84.587
11
105.614
21
84.053
62
0
0
LINE
8
1
10
105.614
20
84.053
11
105.563
21
83.514
62
0
0
LINE
8
1
10
105.563
20
83.514
11
105.562
21
83.513
62
0
0
LINE
8
1
10
105.562
20
83.513
11
105.575
21
69.222
62
0
0
LINE
8
1
10
105.575
20
69.222
11
105.674
21
68.687
62
0
0
LINE
8
1
10
105.674
20
68.687
11
105.766
21
68.413
62
0
0
LINE
8
1
10
105.766
20
68.413
11
106.013
21
67.915
62
0
0
LINE
8
1
10
106.013
20
67.915
11
106.347
21
67.472
62
0
0
LINE
8
1
10
106.347
20
67.472
11
106.75
21
67.103
62
0
0
LINE
8
1
10
106.75
20
67.103
11
106.988
21
66.941
62
0
0
LINE
8
1
10
106.988
20
66.941
11
107.485
21
66.693
62
0
0
LINE
8
1
10
107.485
20
66.693
11
108.019
21
66.541
62
0
0
LINE
8
1
10
108.019
20
66.541
11
108.571
21
66.49
62
0
0
LINE
8
1
10
108.571
20
66.49
11
168.85
21
66.502
62
0
0
LINE
8
1
10
-66.142
20
85.958
11
-66.365
21
85.996
62
0
0
LINE
8
1
10
-66.365
20
85.996
11
-87.263
21
86.009
62
0
0
LINE
8
1
10
-87.263
20
86.009
11
-87.489
21
85.996
62
0
0
LINE
8
1
10
-87.489
20
85.996
11
-87.712
21
85.958
62
0
0
LINE
8
1
10
-87.712
20
85.958
11
-87.936
21
85.892
62
0
0
LINE
8
1
10
-87.936
20
85.892
11
-88.291
21
85.727
62
0
0
LINE
8
1
10
-88.291
20
85.727
11
-89.905
21
84.535
62
0
0
LINE
8
1
10
-89.905
20
84.535
11
-90.094
21
84.374
62
0
0
LINE
8
1
10
-90.094
20
84.374
11
-90.262
21
84.192
62
0
0
LINE
8
1
10
-90.262
20
84.192
11
-90.405
21
83.99
62
0
0
LINE
8
1
10
-90.405
20
83.99
11
-90.524
21
83.772
62
0
0
LINE
8
1
10
-90.524
20
83.772
11
-90.615
21
83.541
62
0
0
LINE
8
1
10
-90.615
20
83.541
11
-90.633
21
83.482
62
0
0
LINE
8
1
10
-90.633
20
83.482
11
-90.649
21
83.422
62
0
0
LINE
8
1
10
-90.649
20
83.422
11
-90.736
21
83.118
62
0
0
LINE
8
1
10
-90.736
20
83.118
11
-90.838
21
82.885
62
0
0
LINE
8
1
10
-90.838
20
82.885
11
-90.97
21
82.665
62
0
0
LINE
8
1
10
-90.97
20
82.665
11
-91.129
21
82.465
62
0
0
LINE
8
1
10
-91.129
20
82.465
11
-91.311
21
82.287
62
0
0
LINE
8
1
10
-91.311
20
82.287
11
-91.515
21
82.135
62
0
0
LINE
8
1
10
-91.515
20
82.135
11
-91.736
21
82.009
62
0
0
LINE
8
1
10
-91.736
20
82.009
11
-91.995
21
82.026
62
0
0
LINE
8
1
10
-91.995
20
82.026
11
-92.252
21
82.078
62
0
0
LINE
8
1
10
-92.252
20
82.078
11
-92.501
21
82.163
62
0
0
LINE
8
1
10
-92.501
20
82.163
11
-92.734
21
82.279
62
0
0
LINE
8
1
10
-92.734
20
82.279
11
-92.952
21
82.426
62
0
0
LINE
8
1
10
-92.952
20
82.426
11
-93.148
21
82.6
62
0
0
LINE
8
1
10
-93.148
20
82.6
11
-93.319
21
82.797
62
0
0
LINE
8
1
10
-93.319
20
82.797
11
-93.463
21
83.016
62
0
0
LINE
8
1
10
-93.463
20
83.016
11
-93.578
21
83.252
62
0
0
LINE
8
1
10
-93.578
20
83.252
11
-93.745
21
83.757
62
0
0
LINE
8
1
10
-93.745
20
83.757
11
-93.864
21
84.002
62
0
0
LINE
8
1
10
-93.864
20
84.002
11
-94.016
21
84.227
62
0
0
LINE
8
1
10
-94.016
20
84.227
11
-94.197
21
84.43
62
0
0
LINE
8
1
10
-94.197
20
84.43
11
-95.745
21
85.61
62
0
0
LINE
8
1
10
-95.745
20
85.61
11
-95.914
21
85.723
62
0
0
LINE
8
1
10
-95.914
20
85.723
11
-96.086
21
85.814
62
0
0
LINE
8
1
10
-96.086
20
85.814
11
-96.093
21
85.818
62
0
0
LINE
8
1
10
-96.093
20
85.818
11
-96.498
21
85.958
62
0
0
LINE
8
1
10
-96.498
20
85.958
11
-96.722
21
85.996
62
0
0
LINE
8
1
10
-96.722
20
85.996
11
-112.866
21
85.992
62
0
0
LINE
8
1
10
-112.866
20
85.992
11
-113.49
21
85.936
62
0
0
LINE
8
1
10
-113.49
20
85.936
11
-114.679
21
85.718
62
0
0
LINE
8
1
10
-114.679
20
85.718
11
-115.833
21
85.358
62
0
0
LINE
8
1
10
-115.833
20
85.358
11
-116.935
21
84.863
62
0
0
LINE
8
1
10
-116.935
20
84.863
11
-117.969
21
84.237
62
0
0
LINE
8
1
10
-117.969
20
84.237
11
-118.921
21
83.492
62
0
0
LINE
8
1
10
-118.921
20
83.492
11
-119.776
21
82.637
62
0
0
LINE
8
1
10
-119.776
20
82.637
11
-120.521
21
81.686
62
0
0
LINE
8
1
10
-120.521
20
81.686
11
-121.147
21
80.651
62
0
0
LINE
8
1
10
-121.147
20
80.651
11
-121.643
21
79.549
62
0
0
LINE
8
1
10
-121.643
20
79.549
11
-122.003
21
78.395
62
0
0
LINE
8
1
10
-122.003
20
78.395
11
-122.221
21
77.205
62
0
0
LINE
8
1
10
-122.221
20
77.205
11
-122.294
21
75.999
62
0
0
LINE
8
1
10
-122.294
20
75.999
11
-122.221
21
74.793
62
0
0
LINE
8
1
10
-122.221
20
74.793
11
-122.003
21
73.604
62
0
0
LINE
8
1
10
-122.003
20
73.604
11
-121.643
21
72.45
62
0
0
LINE
8
1
10
-121.643
20
72.45
11
-121.147
21
71.348
62
0
0
LINE
8
1
10
-121.147
20
71.348
11
-120.521
21
70.313
62
0
0
LINE
8
1
10
-120.521
20
70.313
11
-119.777
21
69.362
62
0
0
LINE
8
1
10
-119.777
20
69.362
11
-118.922
21
68.507
62
0
0
LINE
8
1
10
-118.922
20
68.507
11
-117.97
21
67.761
62
0
0
LINE
8
1
10
-117.97
20
67.761
11
-116.936
21
67.135
62
0
0
LINE
8
1
10
-116.936
20
67.135
11
-115.834
21
66.64
62
0
0
LINE
8
1
10
-115.834
20
66.64
11
-114.68
21
66.28
62
0
0
LINE
8
1
10
-114.68
20
66.28
11
-113.49
21
66.062
62
0
0
LINE
8
1
10
-113.49
20
66.062
11
-96.948
21
65.989
62
0
0
LINE
8
1
10
-96.948
20
65.989
11
-96.722
21
66.002
62
0
0
LINE
8
1
10
-96.722
20
66.002
11
-96.498
21
66.04
62
0
0
LINE
8
1
10
-96.498
20
66.04
11
-96.275
21
66.106
62
0
0
LINE
8
1
10
-96.275
20
66.106
11
-95.92
21
66.271
62
0
0
LINE
8
1
10
-95.92
20
66.271
11
-94.306
21
67.463
62
0
0
LINE
8
1
10
-94.306
20
67.463
11
-94.117
21
67.624
62
0
0
LINE
8
1
10
-94.117
20
67.624
11
-93.949
21
67.806
62
0
0
LINE
8
1
10
-93.949
20
67.806
11
-93.805
21
68.008
62
0
0
LINE
8
1
10
-93.805
20
68.008
11
-93.686
21
68.226
62
0
0
LINE
8
1
10
-93.686
20
68.226
11
-93.595
21
68.457
62
0
0
LINE
8
1
10
-93.595
20
68.457
11
-93.577
21
68.516
62
0
0
LINE
8
1
10
-93.577
20
68.516
11
-93.561
21
68.576
62
0
0
LINE
8
1
10
-93.561
20
68.576
11
-93.561
21
68.577
62
0
0
LINE
8
1
10
-93.561
20
68.577
11
-93.475
21
68.881
62
0
0
LINE
8
1
10
-93.475
20
68.881
11
-93.373
21
69.113
62
0
0
LINE
8
1
10
-93.373
20
69.113
11
-93.241
21
69.332
62
0
0
LINE
8
1
10
-93.241
20
69.332
11
-93.083
21
69.532
62
0
0
LINE
8
1
10
-93.083
20
69.532
11
-92.9
21
69.71
62
0
0
LINE
8
1
10
-92.9
20
69.71
11
-92.696
21
69.863
62
0
0
LINE
8
1
10
-92.696
20
69.863
11
-92.475
21
69.989
62
0
0
LINE
8
1
10
-92.475
20
69.989
11
-92.216
21
69.972
62
0
0
LINE
8
1
10
-92.216
20
69.972
11
-91.959
21
69.92
62
0
0
LINE
8
1
10
-91.959
20
69.92
11
-91.71
21
69.835
62
0
0
LINE
8
1
10
-91.71
20
69.835
11
-91.477
21
69.719
62
0
0
LINE
8
1
10
-91.477
20
69.719
11
-91.258
21
69.572
62
0
0
LINE
8
1
10
-91.258
20
69.572
11
-91.062
21
69.398
62
0
0
LINE
8
1
10
-91.062
20
69.398
11
-90.892
21
69.201
62
0
0
LINE
8
1
10
-90.892
20
69.201
11
-90.748
21
68.982
62
0
0
LINE
8
1
10
-90.748
20
68.982
11
-90.633
21
68.746
62
0
0
LINE
8
1
10
-90.633
20
68.746
11
-90.465
21
68.241
62
0
0
LINE
8
1
10
-90.465
20
68.241
11
-90.346
21
67.996
62
0
0
LINE
8
1
10
-90.346
20
67.996
11
-90.195
21
67.771
62
0
0
LINE
8
1
10
-90.195
20
67.771
11
-90.014
21
67.568
62
0
0
LINE
8
1
10
-90.014
20
67.568
11
-88.465
21
66.388
62
0
0
LINE
8
1
10
-88.465
20
66.388
11
-88.297
21
66.275
62
0
0
LINE
8
1
10
-88.297
20
66.275
11
-88.125
21
66.184
62
0
0
LINE
8
1
10
-88.125
20
66.184
11
-88.118
21
66.18
62
0
0
LINE
8
1
10
-88.118
20
66.18
11
-87.712
21
66.04
62
0
0
LINE
8
1
10
-87.712
20
66.04
11
-87.489
21
66.002
62
0
0
LINE
8
1
10
-87.489
20
66.002
11
-66.591
21
65.989
62
0
0
LINE
8
1
10
-66.591
20
65.989
11
-66.365
21
66.002
62
0
0
LINE
8
1
10
-66.365
20
66.002
11
-66.142
21
66.04
62
0
0
LINE
8
1
10
-66.142
20
66.04
11
-65.918
21
66.106
62
0
0
LINE
8
1
10
-65.918
20
66.106
11
-65.563
21
66.271
62
0
0
LINE
8
1
10
-65.563
20
66.271
11
-64.046
21
67.391
62
0
0
LINE
8
1
10
-64.046
20
67.391
11
-63.84
21
67.568
62
0
0
LINE
8
1
10
-63.84
20
67.568
11
-63.659
21
67.771
62
0
0
LINE
8
1
10
-63.659
20
67.771
11
-63.508
21
67.996
62
0
0
LINE
8
1
10
-63.508
20
67.996
11
-63.389
21
68.24
62
0
0
LINE
8
1
10
-63.389
20
68.24
11
-63.218
21
68.753
62
0
0
LINE
8
1
10
-63.218
20
68.753
11
-63.103
21
68.988
62
0
0
LINE
8
1
10
-63.103
20
68.988
11
-62.962
21
69.201
62
0
0
LINE
8
1
10
-62.962
20
69.201
11
-62.792
21
69.398
62
0
0
LINE
8
1
10
-62.792
20
69.398
11
-62.596
21
69.572
62
0
0
LINE
8
1
10
-62.596
20
69.572
11
-62.377
21
69.719
62
0
0
LINE
8
1
10
-62.377
20
69.719
11
-62.144
21
69.835
62
0
0
LINE
8
1
10
-62.144
20
69.835
11
-61.895
21
69.92
62
0
0
LINE
8
1
10
-61.895
20
69.92
11
-61.638
21
69.972
62
0
0
LINE
8
1
10
-61.638
20
69.972
11
-61.379
21
69.989
62
0
0
LINE
8
1
10
-61.379
20
69.989
11
-61.158
21
69.863
62
0
0
LINE
8
1
10
-61.158
20
69.863
11
-60.954
21
69.71
62
0
0
LINE
8
1
10
-60.954
20
69.71
11
-60.771
21
69.532
62
0
0
LINE
8
1
10
-60.771
20
69.532
11
-60.613
21
69.332
62
0
0
LINE
8
1
10
-60.613
20
69.332
11
-60.481
21
69.113
62
0
0
LINE
8
1
10
-60.481
20
69.113
11
-60.379
21
68.88
62
0
0
LINE
8
1
10
-60.379
20
68.88
11
-60.307
21
68.634
62
0
0
LINE
8
1
10
-60.307
20
68.634
11
-60.293
21
68.575
62
0
0
LINE
8
1
10
-60.293
20
68.575
11
-60.277
21
68.515
62
0
0
LINE
8
1
10
-60.277
20
68.515
11
-60.168
21
68.226
62
0
0
LINE
8
1
10
-60.168
20
68.226
11
-60.049
21
68.008
62
0
0
LINE
8
1
10
-60.049
20
68.008
11
-59.905
21
67.806
62
0
0
LINE
8
1
10
-59.905
20
67.806
11
-59.737
21
67.624
62
0
0
LINE
8
1
10
-59.737
20
67.624
11
-57.574
21
65.989
62
0
0
LINE
8
1
10
-57.574
20
65.989
11
-40.364
21
66.062
62
0
0
LINE
8
1
10
-40.364
20
66.062
11
-39.175
21
66.28
62
0
0
LINE
8
1
10
-39.175
20
66.28
11
-38.021
21
66.64
62
0
0
LINE
8
1
10
-38.021
20
66.64
11
-36.919
21
67.135
62
0
0
LINE
8
1
10
-36.919
20
67.135
11
-35.885
21
67.761
62
0
0
LINE
8
1
10
-35.885
20
67.761
11
-34.933
21
68.506
62
0
0
LINE
8
1
10
-34.933
20
68.506
11
-34.078
21
69.361
62
0
0
LINE
8
1
10
-34.078
20
69.361
11
-33.333
21
70.312
62
0
0
LINE
8
1
10
-33.333
20
70.312
11
-32.707
21
71.347
62
0
0
LINE
8
1
10
-32.707
20
71.347
11
-32.211
21
72.449
62
0
0
LINE
8
1
10
-32.211
20
72.449
11
-31.851
21
73.603
62
0
0
LINE
8
1
10
-31.851
20
73.603
11
-31.633
21
74.793
62
0
0
LINE
8
1
10
-31.633
20
74.793
11
-31.56
21
75.999
62
0
0
LINE
8
1
10
-31.56
20
75.999
11
-31.633
21
77.205
62
0
0
LINE
8
1
10
-31.633
20
77.205
11
-31.851
21
78.394
62
0
0
LINE
8
1
10
-31.851
20
78.394
11
-32.211
21
79.548
62
0
0
LINE
8
1
10
-32.211
20
79.548
11
-32.707
21
80.65
62
0
0
LINE
8
1
10
-32.707
20
80.65
11
-33.333
21
81.685
62
0
0
LINE
8
1
10
-33.333
20
81.685
11
-34.077
21
82.636
62
0
0
LINE
8
1
10
-34.077
20
82.636
11
-34.932
21
83.491
62
0
0
LINE
8
1
10
-34.932
20
83.491
11
-35.884
21
84.237
62
0
0
LINE
8
1
10
-35.884
20
84.237
11
-36.918
21
84.863
62
0
0
LINE
8
1
10
-36.918
20
84.863
11
-38.02
21
85.358
62
0
0
LINE
8
1
10
-38.02
20
85.358
11
-39.174
21
85.718
62
0
0
LINE
8
1
10
-39.174
20
85.718
11
-40.363
21
85.936
62
0
0
LINE
8
1
10
-40.363
20
85.936
11
-57.573
21
86.009
62
0
0
LINE
8
1
10
-57.573
20
86.009
11
-59.657
21
84.43
62
0
0
LINE
8
1
10
-59.657
20
84.43
11
-59.838
21
84.227
62
0
0
LINE
8
1
10
-59.838
20
84.227
11
-59.99
21
84.002
62
0
0
LINE
8
1
10
-59.99
20
84.002
11
-60.109
21
83.758
62
0
0
LINE
8
1
10
-60.109
20
83.758
11
-60.279
21
83.244
62
0
0
LINE
8
1
10
-60.279
20
83.244
11
-60.395
21
83.008
62
0
0
LINE
8
1
10
-60.395
20
83.008
11
-60.535
21
82.797
62
0
0
LINE
8
1
10
-60.535
20
82.797
11
-60.708
21
82.598
62
0
0
LINE
8
1
10
-60.708
20
82.598
11
-60.903
21
82.425
62
0
0
LINE
8
1
10
-60.903
20
82.425
11
-61.12
21
82.279
62
0
0
LINE
8
1
10
-61.12
20
82.279
11
-61.353
21
82.163
62
0
0
LINE
8
1
10
-61.353
20
82.163
11
-61.602
21
82.078
62
0
0
LINE
8
1
10
-61.602
20
82.078
11
-61.859
21
82.026
62
0
0
LINE
8
1
10
-61.859
20
82.026
11
-62.118
21
82.009
62
0
0
LINE
8
1
10
-62.118
20
82.009
11
-62.339
21
82.135
62
0
0
LINE
8
1
10
-62.339
20
82.135
11
-62.544
21
82.288
62
0
0
LINE
8
1
10
-62.544
20
82.288
11
-62.726
21
82.466
62
0
0
LINE
8
1
10
-62.726
20
82.466
11
-62.885
21
82.666
62
0
0
LINE
8
1
10
-62.885
20
82.666
11
-63.016
21
82.885
62
0
0
LINE
8
1
10
-63.016
20
82.885
11
-63.118
21
83.118
62
0
0
LINE
8
1
10
-63.118
20
83.118
11
-63.19
21
83.364
62
0
0
LINE
8
1
10
-63.19
20
83.364
11
-63.205
21
83.424
62
0
0
LINE
8
1
10
-63.205
20
83.424
11
-63.221
21
83.483
62
0
0
LINE
8
1
10
-63.221
20
83.483
11
-63.326
21
83.764
62
0
0
LINE
8
1
10
-63.326
20
83.764
11
-63.448
21
83.99
62
0
0
LINE
8
1
10
-63.448
20
83.99
11
-63.592
21
84.192
62
0
0
LINE
8
1
10
-63.592
20
84.192
11
-63.76
21
84.374
62
0
0
LINE
8
1
10
-63.76
20
84.374
11
-65.389
21
85.61
62
0
0
LINE
8
1
10
-65.389
20
85.61
11
-65.557
21
85.723
62
0
0
LINE
8
1
10
-65.557
20
85.723
11
-65.729
21
85.814
62
0
0
LINE
8
1
10
-65.729
20
85.814
11
-65.736
21
85.818
62
0
0
LINE
8
1
10
-65.736
20
85.818
11
-66.142
21
85.958
62
0
0
LINE
8
1
10
-158.142
20
85.958
11
-158.365
21
85.996
62
0
0
LINE
8
1
10
-158.365
20
85.996
11
-179.263
21
86.009
62
0
0
LINE
8
1
10
-179.263
20
86.009
11
-179.489
21
85.996
62
0
0
LINE
8
1
10
-179.489
20
85.996
11
-179.712
21
85.958
62
0
0
LINE
8
1
10
-179.712
20
85.958
11
-179.936
21
85.892
62
0
0
LINE
8
1
10
-179.936
20
85.892
11
-180.291
21
85.727
62
0
0
LINE
8
1
10
-180.291
20
85.727
11
-181.905
21
84.535
62
0
0
LINE
8
1
10
-181.905
20
84.535
11
-182.094
21
84.374
62
0
0
LINE
8
1
10
-182.094
20
84.374
11
-182.262
21
84.192
62
0
0
LINE
8
1
10
-182.262
20
84.192
11
-182.405
21
83.99
62
0
0
LINE
8
1
10
-182.405
20
83.99
11
-182.524
21
83.772
62
0
0
LINE
8
1
10
-182.524
20
83.772
11
-182.615
21
83.541
62
0
0
LINE
8
1
10
-182.615
20
83.541
11
-182.633
21
83.482
62
0
0
LINE
8
1
10
-182.633
20
83.482
11
-182.649
21
83.422
62
0
0
LINE
8
1
10
-182.649
20
83.422
11
-182.736
21
83.118
62
0
0
LINE
8
1
10
-182.736
20
83.118
11
-182.838
21
82.885
62
0
0
LINE
8
1
10
-182.838
20
82.885
11
-182.97
21
82.665
62
0
0
LINE
8
1
10
-182.97
20
82.665
11
-183.129
21
82.465
62
0
0
LINE
8
1
10
-183.129
20
82.465
11
-183.311
21
82.287
62
0
0
LINE
8
1
10
-183.311
20
82.287
11
-183.515
21
82.135
62
0
0
LINE
8
1
10
-183.515
20
82.135
11
-183.736
21
82.009
62
0
0
LINE
8
1
10
-183.736
20
82.009
11
-183.995
21
82.026
62
0
0
LINE
8
1
10
-183.995
20
82.026
11
-184.252
21
82.078
62
0
0
LINE
8
1
10
-184.252
20
82.078
11
-184.501
21
82.163
62
0
0
LINE
8
1
10
-184.501
20
82.163
11
-184.734
21
82.279
62
0
0
LINE
8
1
10
-184.734
20
82.279
11
-184.952
21
82.426
62
0
0
LINE
8
1
10
-184.952
20
82.426
11
-185.148
21
82.6
62
0
0
LINE
8
1
10
-185.148
20
82.6
11
-185.319
21
82.797
62
0
0
LINE
8
1
10
-185.319
20
82.797
11
-185.463
21
83.016
62
0
0
LINE
8
1
10
-185.463
20
83.016
11
-185.578
21
83.252
62
0
0
LINE
8
1
10
-185.578
20
83.252
11
-185.745
21
83.757
62
0
0
LINE
8
1
10
-185.745
20
83.757
11
-185.864
21
84.002
62
0
0
LINE
8
1
10
-185.864
20
84.002
11
-186.016
21
84.227
62
0
0
LINE
8
1
10
-186.016
20
84.227
11
-186.197
21
84.43
62
0
0
LINE
8
1
10
-186.197
20
84.43
11
-187.745
21
85.61
62
0
0
LINE
8
1
10
-187.745
20
85.61
11
-187.914
21
85.723
62
0
0
LINE
8
1
10
-187.914
20
85.723
11
-188.086
21
85.814
62
0
0
LINE
8
1
10
-188.086
20
85.814
11
-188.093
21
85.818
62
0
0
LINE
8
1
10
-188.093
20
85.818
11
-188.498
21
85.958
62
0
0
LINE
8
1
10
-188.498
20
85.958
11
-188.722
21
85.996
62
0
0
LINE
8
1
10
-188.722
20
85.996
11
-204.866
21
85.992
62
0
0
LINE
8
1
10
-204.866
20
85.992
11
-205.49
21
85.936
62
0
0
LINE
8
1
10
-205.49
20
85.936
11
-206.679
21
85.718
62
0
0
LINE
8
1
10
-206.679
20
85.718
11
-207.833
21
85.358
62
0
0
LINE
8
1
10
-207.833
20
85.358
11
-208.935
21
84.863
62
0
0
LINE
8
1
10
-208.935
20
84.863
11
-209.969
21
84.237
62
0
0
LINE
8
1
10
-209.969
20
84.237
11
-210.921
21
83.492
62
0
0
LINE
8
1
10
-210.921
20
83.492
11
-211.776
21
82.637
62
0
0
LINE
8
1
10
-211.776
20
82.637
11
-212.521
21
81.686
62
0
0
LINE
8
1
10
-212.521
20
81.686
11
-213.147
21
80.651
62
0
0
LINE
8
1
10
-213.147
20
80.651
11
-213.643
21
79.549
62
0
0
LINE
8
1
10
-213.643
20
79.549
11
-214.003
21
78.395
62
0
0
LINE
8
1
10
-214.003
20
78.395
11
-214.221
21
77.205
62
0
0
LINE
8
1
10
-214.221
20
77.205
11
-214.294
21
75.999
62
0
0
LINE
8
1
10
-214.294
20
75.999
11
-214.221
21
74.793
62
0
0
LINE
8
1
10
-214.221
20
74.793
11
-214.003
21
73.604
62
0
0
LINE
8
1
10
-214.003
20
73.604
11
-213.643
21
72.45
62
0
0
LINE
8
1
10
-213.643
20
72.45
11
-213.147
21
71.348
62
0
0
LINE
8
1
10
-213.147
20
71.348
11
-212.521
21
70.313
62
0
0
LINE
8
1
10
-212.521
20
70.313
11
-211.777
21
69.362
62
0
0
LINE
8
1
10
-211.777
20
69.362
11
-210.922
21
68.507
62
0
0
LINE
8
1
10
-210.922
20
68.507
11
-209.97
21
67.761
62
0
0
LINE
8
1
10
-209.97
20
67.761
11
-208.936
21
67.135
62
0
0
LINE
8
1
10
-208.936
20
67.135
11
-207.834
21
66.64
62
0
0
LINE
8
1
10
-207.834
20
66.64
11
-206.68
21
66.28
62
0
0
LINE
8
1
10
-206.68
20
66.28
11
-205.49
21
66.062
62
0
0
LINE
8
1
10
-205.49
20
66.062
11
-188.948
21
65.989
62
0
0
LINE
8
1
10
-188.948
20
65.989
11
-188.722
21
66.002
62
0
0
LINE
8
1
10
-188.722
20
66.002
11
-188.498
21
66.04
62
0
0
LINE
8
1
10
-188.498
20
66.04
11
-188.275
21
66.106
62
0
0
LINE
8
1
10
-188.275
20
66.106
11
-187.92
21
66.271
62
0
0
LINE
8
1
10
-187.92
20
66.271
11
-186.306
21
67.463
62
0
0
LINE
8
1
10
-186.306
20
67.463
11
-186.117
21
67.624
62
0
0
LINE
8
1
10
-186.117
20
67.624
11
-185.949
21
67.806
62
0
0
LINE
8
1
10
-185.949
20
67.806
11
-185.805
21
68.008
62
0
0
LINE
8
1
10
-185.805
20
68.008
11
-185.686
21
68.226
62
0
0
LINE
8
1
10
-185.686
20
68.226
11
-185.595
21
68.457
62
0
0
LINE
8
1
10
-185.595
20
68.457
11
-185.577
21
68.516
62
0
0
LINE
8
1
10
-185.577
20
68.516
11
-185.561
21
68.576
62
0
0
LINE
8
1
10
-185.561
20
68.576
11
-185.561
21
68.577
62
0
0
LINE
8
1
10
-185.561
20
68.577
11
-185.475
21
68.881
62
0
0
LINE
8
1
10
-185.475
20
68.881
11
-185.373
21
69.113
62
0
0
LINE
8
1
10
-185.373
20
69.113
11
-185.241
21
69.332
62
0
0
LINE
8
1
10
-185.241
20
69.332
11
-185.083
21
69.532
62
0
0
LINE
8
1
10
-185.083
20
69.532
11
-184.9
21
69.71
62
0
0
LINE
8
1
10
-184.9
20
69.71
11
-184.696
21
69.863
62
0
0
LINE
8
1
10
-184.696
20
69.863
11
-184.475
21
69.989
62
0
0
LINE
8
1
10
-184.475
20
69.989
11
-184.216
21
69.972
62
0
0
LINE
8
1
10
-184.216
20
69.972
11
-183.959
21
69.92
62
0
0
LINE
8
1
10
-183.959
20
69.92
11
-183.71
21
69.835
62
0
0
LINE
8
1
10
-183.71
20
69.835
11
-183.477
21
69.719
62
0
0
LINE
8
1
10
-183.477
20
69.719
11
-183.258
21
69.572
62
0
0
LINE
8
1
10
-183.258
20
69.572
11
-183.062
21
69.398
62
0
0
LINE
8
1
10
-183.062
20
69.398
11
-182.892
21
69.201
62
0
0
LINE
8
1
10
-182.892
20
69.201
11
-182.748
21
68.982
62
0
0
LINE
8
1
10
-182.748
20
68.982
11
-182.633
21
68.746
62
0
0
LINE
8
1
10
-182.633
20
68.746
11
-182.465
21
68.241
62
0
0
LINE
8
1
10
-182.465
20
68.241
11
-182.346
21
67.996
62
0
0
LINE
8
1
10
-182.346
20
67.996
11
-182.195
21
67.771
62
0
0
LINE
8
1
10
-182.195
20
67.771
11
-182.014
21
67.568
62
0
0
LINE
8
1
10
-182.014
20
67.568
11
-180.465
21
66.388
62
0
0
LINE
8
1
10
-180.465
20
66.388
11
-180.297
21
66.275
62
0
0
LINE
8
1
10
-180.297
20
66.275
11
-180.125
21
66.184
62
0
0
LINE
8
1
10
-180.125
20
66.184
11
-180.118
21
66.18
62
0
0
LINE
8
1
10
-180.118
20
66.18
11
-179.712
21
66.04
62
0
0
LINE
8
1
10
-179.712
20
66.04
11
-179.489
21
66.002
62
0
0
LINE
8
1
10
-179.489
20
66.002
11
-158.591
21
65.989
62
0
0
LINE
8
1
10
-158.591
20
65.989
11
-158.365
21
66.002
62
0
0
LINE
8
1
10
-158.365
20
66.002
11
-158.142
21
66.04
62
0
0
LINE
8
1
10
-158.142
20
66.04
11
-157.918
21
66.106
62
0
0
LINE
8
1
10
-157.918
20
66.106
11
-157.563
21
66.271
62
0
0
LINE
8
1
10
-157.563
20
66.271
11
-156.046
21
67.391
62
0
0
LINE
8
1
10
-156.046
20
67.391
11
-155.84
21
67.568
62
0
0
LINE
8
1
10
-155.84
20
67.568
11
-155.659
21
67.771
62
0
0
LINE
8
1
10
-155.659
20
67.771
11
-155.508
21
67.996
62
0
0
LINE
8
1
10
-155.508
20
67.996
11
-155.389
21
68.24
62
0
0
LINE
8
1
10
-155.389
20
68.24
11
-155.218
21
68.753
62
0
0
LINE
8
1
10
-155.218
20
68.753
11
-155.103
21
68.988
62
0
0
LINE
8
1
10
-155.103
20
68.988
11
-154.962
21
69.201
62
0
0
LINE
8
1
10
-154.962
20
69.201
11
-154.792
21
69.398
62
0
0
LINE
8
1
10
-154.792
20
69.398
11
-154.596
21
69.572
62
0
0
LINE
8
1
10
-154.596
20
69.572
11
-154.377
21
69.719
62
0
0
LINE
8
1
10
-154.377
20
69.719
11
-154.144
21
69.835
62
0
0
LINE
8
1
10
-154.144
20
69.835
11
-153.895
21
69.92
62
0
0
LINE
8
1
10
-153.895
20
69.92
11
-153.638
21
69.972
62
0
0
LINE
8
1
10
-153.638
20
69.972
11
-153.379
21
69.989
62
0
0
LINE
8
1
10
-153.379
20
69.989
11
-153.158
21
69.863
62
0
0
LINE
8
1
10
-153.158
20
69.863
11
-152.954
21
69.71
62
0
0
LINE
8
1
10
-152.954
20
69.71
11
-152.771
21
69.532
62
0
0
LINE
8
1
10
-152.771
20
69.532
11
-152.613
21
69.332
62
0
0
LINE
8
1
10
-152.613
20
69.332
11
-152.481
21
69.113
62
0
0
LINE
8
1
10
-152.481
20
69.113
11
-152.379
21
68.88
62
0
0
LINE
8
1
10
-152.379
20
68.88
11
-152.307
21
68.634
62
0
0
LINE
8
1
10
-152.307
20
68.634
11
-152.293
21
68.575
62
0
0
LINE
8
1
10
-152.293
20
68.575
11
-152.277
21
68.515
62
0
0
LINE
8
1
10
-152.277
20
68.515
11
-152.168
21
68.226
62
0
0
LINE
8
1
10
-152.168
20
68.226
11
-152.049
21
68.008
62
0
0
LINE
8
1
10
-152.049
20
68.008
11
-151.905
21
67.806
62
0
0
LINE
8
1
10
-151.905
20
67.806
11
-151.737
21
67.624
62
0
0
LINE
8
1
10
-151.737
20
67.624
11
-149.574
21
65.989
62
0
0
LINE
8
1
10
-149.574
20
65.989
11
-132.364
21
66.062
62
0
0
LINE
8
1
10
-132.364
20
66.062
11
-131.175
21
66.28
62
0
0
LINE
8
1
10
-131.175
20
66.28
11
-130.021
21
66.64
62
0
0
LINE
8
1
10
-130.021
20
66.64
11
-128.919
21
67.135
62
0
0
LINE
8
1
10
-128.919
20
67.135
11
-127.885
21
67.761
62
0
0
LINE
8
1
10
-127.885
20
67.761
11
-126.933
21
68.506
62
0
0
LINE
8
1
10
-126.933
20
68.506
11
-126.078
21
69.361
62
0
0
LINE
8
1
10
-126.078
20
69.361
11
-125.333
21
70.312
62
0
0
LINE
8
1
10
-125.333
20
70.312
11
-124.707
21
71.347
62
0
0
LINE
8
1
10
-124.707
20
71.347
11
-124.211
21
72.449
62
0
0
LINE
8
1
10
-124.211
20
72.449
11
-123.851
21
73.603
62
0
0
LINE
8
1
10
-123.851
20
73.603
11
-123.633
21
74.793
62
0
0
LINE
8
1
10
-123.633
20
74.793
11
-123.56
21
75.999
62
0
0
LINE
8
1
10
-123.56
20
75.999
11
-123.633
21
77.205
62
0
0
LINE
8
1
10
-123.633
20
77.205
11
-123.851
21
78.394
62
0
0
LINE
8
1
10
-123.851
20
78.394
11
-124.211
21
79.548
62
0
0
LINE
8
1
10
-124.211
20
79.548
11
-124.707
21
80.65
62
0
0
LINE
8
1
10
-124.707
20
80.65
11
-125.333
21
81.685
62
0
0
LINE
8
1
10
-125.333
20
81.685
11
-126.077
21
82.636
62
0
0
LINE
8
1
10
-126.077
20
82.636
11
-126.932
21
83.491
62
0
0
LINE
8
1
10
-126.932
20
83.491
11
-127.884
21
84.237
62
0
0
LINE
8
1
10
-127.884
20
84.237
11
-128.918
21
84.863
62
0
0
LINE
8
1
10
-128.918
20
84.863
11
-130.02
21
85.358
62
0
0
LINE
8
1
10
-130.02
20
85.358
11
-131.174
21
85.718
62
0
0
LINE
8
1
10
-131.174
20
85.718
11
-132.363
21
85.936
62
0
0
LINE
8
1
10
-132.363
20
85.936
11
-149.573
21
86.009
62
0
0
LINE
8
1
10
-149.573
20
86.009
11
-151.657
21
84.43
62
0
0
LINE
8
1
10
-151.657
20
84.43
11
-151.838
21
84.227
62
0
0
LINE
8
1
10
-151.838
20
84.227
11
-151.99
21
84.002
62
0
0
LINE
8
1
10
-151.99
20
84.002
11
-152.109
21
83.758
62
0
0
LINE
8
1
10
-152.109
20
83.758
11
-152.279
21
83.244
62
0
0
LINE
8
1
10
-152.279
20
83.244
11
-152.395
21
83.008
62
0
0
LINE
8
1
10
-152.395
20
83.008
11
-152.535
21
82.797
62
0
0
LINE
8
1
10
-152.535
20
82.797
11
-152.708
21
82.598
62
0
0
LINE
8
1
10
-152.708
20
82.598
11
-152.903
21
82.425
62
0
0
LINE
8
1
10
-152.903
20
82.425
11
-153.12
21
82.279
62
0
0
LINE
8
1
10
-153.12
20
82.279
11
-153.353
21
82.163
62
0
0
LINE
8
1
10
-153.353
20
82.163
11
-153.602
21
82.078
62
0
0
LINE
8
1
10
-153.602
20
82.078
11
-153.859
21
82.026
62
0
0
LINE
8
1
10
-153.859
20
82.026
11
-154.118
21
82.009
62
0
0
LINE
8
1
10
-154.118
20
82.009
11
-154.339
21
82.135
62
0
0
LINE
8
1
10
-154.339
20
82.135
11
-154.544
21
82.288
62
0
0
LINE
8
1
10
-154.544
20
82.288
11
-154.726
21
82.466
62
0
0
LINE
8
1
10
-154.726
20
82.466
11
-154.885
21
82.666
62
0
0
LINE
8
1
10
-154.885
20
82.666
11
-155.016
21
82.885
62
0
0
LINE
8
1
10
-155.016
20
82.885
11
-155.118
21
83.118
62
0
0
LINE
8
1
10
-155.118
20
83.118
11
-155.19
21
83.364
62
0
0
LINE
8
1
10
-155.19
20
83.364
11
-155.205
21
83.424
62
0
0
LINE
8
1
10
-155.205
20
83.424
11
-155.221
21
83.483
62
0
0
LINE
8
1
10
-155.221
20
83.483
11
-155.326
21
83.764
62
0
0
LINE
8
1
10
-155.326
20
83.764
11
-155.448
21
83.99
62
0
0
LINE
8
1
10
-155.448
20
83.99
11
-155.592
21
84.192
62
0
0
LINE
8
1
10
-155.592
20
84.192
11
-155.76
21
84.374
62
0
0
LINE
8
1
10
-155.76
20
84.374
11
-157.389
21
85.61
62
0
0
LINE
8
1
10
-157.389
20
85.61
11
-157.557
21
85.723
62
0
0
LINE
8
1
10
-157.557
20
85.723
11
-157.729
21
85.814
62
0
0
LINE
8
1
10
-157.729
20
85.814
11
-157.736
21
85.818
62
0
0
LINE
8
1
10
-157.736
20
85.818
11
-158.142
21
85.958
62
0
0
CIRCLE
8
1
10
-25.426
20
82.499
40
1.88986
62
0
0
CIRCLE
8
1
10
-7.426
20
82.499
40
1.88986
62
0
0
CIRCLE
8
1
10
12.572
20
82.499
40
1.88986
62
0
0
CIRCLE
8
1
10
30.572
20
82.499
40
1.88986
62
0
0
CIRCLE
8
1
10
41.572
20
82.499
40
1.88986
62
0
0
CIRCLE
8
1
10
59.572
20
82.499
40
1.88986
62
0
0
CIRCLE
8
1
10
79.572
20
82.499
40
1.88986
62
0
0
CIRCLE
8
1
10
97.572
20
82.499
40
1.88986
62
0
0
CIRCLE
8
1
10
110.572
20
82.499
40
1.88986
62
0
0
CIRCLE
8
1
10
128.572
20
82.499
40
1.88986
62
0
0
CIRCLE
8
1
10
148.572
20
82.499
40
1.88986
62
0
0
CIRCLE
8
1
10
166.572
20
82.499
40
1.88986
62
0
0
CIRCLE
8
1
10
-204.284
20
81.999
40
1.89001
62
0
0
CIRCLE
8
1
10
-112.284
20
81.999
40
1.89001
62
0
0
CIRCLE
8
1
10
-133.569
20
81.998
40
1.88988
62
0
0
CIRCLE
8
1
10
-41.569
20
81.998
40
1.88985
62
0
0
CIRCLE
8
1
10
-71.927
20
80.998
40
1.49046
62
0
0
CIRCLE
8
1
10
-81.927
20
80.998
40
1.49046
62
0
0
CIRCLE
8
1
10
-163.927
20
80.998
40
1.49046
62
0
0
CIRCLE
8
1
10
-173.927
20
80.998
40
1.49046
62
0
0
CIRCLE
8
1
10
-25.426
20
76.499
40
1.88986
62
0
0
CIRCLE
8
1
10
-7.426
20
76.499
40
1.88986
62
0
0
CIRCLE
8
1
10
12.572
20
76.499
40
1.88986
62
0
0
CIRCLE
8
1
10
30.572
20
76.499
40
1.88986
62
0
0
CIRCLE
8
1
10
41.572
20
76.499
40
1.88986
62
0
0
CIRCLE
8
1
10
59.572
20
76.499
40
1.88986
62
0
0
CIRCLE
8
1
10
79.572
20
76.499
40
1.88986
62
0
0
CIRCLE
8
1
10
97.572
20
76.499
40
1.88986
62
0
0
CIRCLE
8
1
10
110.572
20
76.499
40
1.88986
62
0
0
CIRCLE
8
1
10
128.572
20
76.499
40
1.88986
62
0
0
CIRCLE
8
1
10
148.572
20
76.499
40
1.88986
62
0
0
CIRCLE
8
1
10
166.572
20
76.499
40
1.88986
62
0
0
CIRCLE
8
1
10
-210.284
20
75.998
40
1.89004
62
0
0
CIRCLE
8
1
10
-204.284
20
75.998
40
1.89004
62
0
0
CIRCLE
8
1
10
-198.284
20
75.998
40
1.89004
62
0
0
CIRCLE
8
1
10
-118.284
20
75.998
40
1.89004
62
0
0
CIRCLE
8
1
10
-112.284
20
75.998
40
1.89004
62
0
0
CIRCLE
8
1
10
-106.284
20
75.998
40
1.89004
62
0
0
CIRCLE
8
1
10
-139.569
20
75.998
40
1.88988
62
0
0
CIRCLE
8
1
10
-133.569
20
75.998
40
1.88988
62
0
0
CIRCLE
8
1
10
-127.569
20
75.998
40
1.88988
62
0
0
CIRCLE
8
1
10
-47.569
20
75.998
40
1.88985
62
0
0
CIRCLE
8
1
10
-41.569
20
75.998
40
1.88985
62
0
0
CIRCLE
8
1
10
-35.569
20
75.998
40
1.88985
62
0
0
CIRCLE
8
1
10
-71.927
20
70.998
40
1.49047
62
0
0
CIRCLE
8
1
10
-81.927
20
70.998
40
1.49047
62
0
0
CIRCLE
8
1
10
-163.927
20
70.998
40
1.49047
62
0
0
CIRCLE
8
1
10
-173.927
20
70.998
40
1.49047
62
0
0
CIRCLE
8
1
10
110.572
20
70.499
40
1.88986
62
0
0
CIRCLE
8
1
10
128.572
20
70.499
40
1.88986
62
0
0
CIRCLE
8
1
10
148.572
20
70.499
40
1.88986
62
0
0
CIRCLE
8
1
10
166.572
20
70.499
40
1.88986
62
0
0
LINE
8
1
10
69.857
20
71.958
11
69.634
21
71.996
62
0
0
LINE
8
1
10
69.634
20
71.996
11
48.736
21
72.009
62
0
0
LINE
8
1
10
48.736
20
72.009
11
48.51
21
71.996
62
0
0
LINE
8
1
10
48.51
20
71.996
11
48.287
21
71.958
62
0
0
LINE
8
1
10
48.287
20
71.958
11
48.063
21
71.892
62
0
0
LINE
8
1
10
48.063
20
71.892
11
47.708
21
71.727
62
0
0
LINE
8
1
10
47.708
20
71.727
11
46.094
21
70.535
62
0
0
LINE
8
1
10
46.094
20
70.535
11
45.905
21
70.374
62
0
0
LINE
8
1
10
45.905
20
70.374
11
45.737
21
70.192
62
0
0
LINE
8
1
10
45.737
20
70.192
11
45.594
21
69.99
62
0
0
LINE
8
1
10
45.594
20
69.99
11
45.475
21
69.772
62
0
0
LINE
8
1
10
45.475
20
69.772
11
45.384
21
69.541
62
0
0
LINE
8
1
10
45.384
20
69.541
11
45.366
21
69.482
62
0
0
LINE
8
1
10
45.366
20
69.482
11
45.35
21
69.422
62
0
0
LINE
8
1
10
45.35
20
69.422
11
45.263
21
69.118
62
0
0
LINE
8
1
10
45.263
20
69.118
11
45.161
21
68.885
62
0
0
LINE
8
1
10
45.161
20
68.885
11
45.029
21
68.665
62
0
0
LINE
8
1
10
45.029
20
68.665
11
44.87
21
68.465
62
0
0
LINE
8
1
10
44.87
20
68.465
11
44.688
21
68.287
62
0
0
LINE
8
1
10
44.688
20
68.287
11
44.484
21
68.135
62
0
0
LINE
8
1
10
44.484
20
68.135
11
44.263
21
68.009
62
0
0
LINE
8
1
10
44.263
20
68.009
11
44.004
21
68.026
62
0
0
LINE
8
1
10
44.004
20
68.026
11
43.747
21
68.078
62
0
0
LINE
8
1
10
43.747
20
68.078
11
43.498
21
68.163
62
0
0
LINE
8
1
10
43.498
20
68.163
11
43.265
21
68.279
62
0
0
LINE
8
1
10
43.265
20
68.279
11
43.047
21
68.426
62
0
0
LINE
8
1
10
43.047
20
68.426
11
42.851
21
68.6
62
0
0
LINE
8
1
10
42.851
20
68.6
11
42.68
21
68.797
62
0
0
LINE
8
1
10
42.68
20
68.797
11
42.536
21
69.016
62
0
0
LINE
8
1
10
42.536
20
69.016
11
42.421
21
69.252
62
0
0
LINE
8
1
10
42.421
20
69.252
11
42.254
21
69.757
62
0
0
LINE
8
1
10
42.254
20
69.757
11
42.135
21
70.002
62
0
0
LINE
8
1
10
42.135
20
70.002
11
41.983
21
70.227
62
0
0
LINE
8
1
10
41.983
20
70.227
11
41.802
21
70.43
62
0
0
LINE
8
1
10
41.802
20
70.43
11
40.254
21
71.61
62
0
0
LINE
8
1
10
40.254
20
71.61
11
40.085
21
71.723
62
0
0
LINE
8
1
10
40.085
20
71.723
11
39.913
21
71.814
62
0
0
LINE
8
1
10
39.913
20
71.814
11
39.906
21
71.818
62
0
0
LINE
8
1
10
39.906
20
71.818
11
39.501
21
71.958
62
0
0
LINE
8
1
10
39.501
20
71.958
11
39.277
21
71.996
62
0
0
LINE
8
1
10
39.277
20
71.996
11
23.133
21
71.992
62
0
0
LINE
8
1
10
23.133
20
71.992
11
22.509
21
71.936
62
0
0
LINE
8
1
10
22.509
20
71.936
11
21.32
21
71.718
62
0
0
LINE
8
1
10
21.32
20
71.718
11
20.166
21
71.358
62
0
0
LINE
8
1
10
20.166
20
71.358
11
19.064
21
70.863
62
0
0
LINE
8
1
10
19.064
20
70.863
11
18.03
21
70.237
62
0
0
LINE
8
1
10
18.03
20
70.237
11
17.078
21
69.492
62
0
0
LINE
8
1
10
17.078
20
69.492
11
16.223
21
68.637
62
0
0
LINE
8
1
10
16.223
20
68.637
11
15.478
21
67.686
62
0
0
LINE
8
1
10
15.478
20
67.686
11
14.852
21
66.651
62
0
0
LINE
8
1
10
14.852
20
66.651
11
14.356
21
65.549
62
0
0
LINE
8
1
10
14.356
20
65.549
11
13.996
21
64.395
62
0
0
LINE
8
1
10
13.996
20
64.395
11
13.778
21
63.205
62
0
0
LINE
8
1
10
13.778
20
63.205
11
13.705
21
61.999
62
0
0
LINE
8
1
10
13.705
20
61.999
11
13.778
21
60.793
62
0
0
LINE
8
1
10
13.778
20
60.793
11
13.996
21
59.604
62
0
0
LINE
8
1
10
13.996
20
59.604
11
14.356
21
58.45
62
0
0
LINE
8
1
10
14.356
20
58.45
11
14.852
21
57.348
62
0
0
LINE
8
1
10
14.852
20
57.348
11
15.478
21
56.313
62
0
0
LINE
8
1
10
15.478
20
56.313
11
16.222
21
55.362
62
0
0
LINE
8
1
10
16.222
20
55.362
11
17.077
21
54.507
62
0
0
LINE
8
1
10
17.077
20
54.507
11
18.029
21
53.761
62
0
0
LINE
8
1
10
18.029
20
53.761
11
19.063
21
53.135
62
0
0
LINE
8
1
10
19.063
20
53.135
11
20.165
21
52.64
62
0
0
LINE
8
1
10
20.165
20
52.64
11
21.319
21
52.28
62
0
0
LINE
8
1
10
21.319
20
52.28
11
22.509
21
52.062
62
0
0
LINE
8
1
10
22.509
20
52.062
11
39.051
21
51.989
62
0
0
LINE
8
1
10
39.051
20
51.989
11
39.277
21
52.002
62
0
0
LINE
8
1
10
39.277
20
52.002
11
39.501
21
52.04
62
0
0
LINE
8
1
10
39.501
20
52.04
11
39.724
21
52.106
62
0
0
LINE
8
1
10
39.724
20
52.106
11
40.079
21
52.271
62
0
0
LINE
8
1
10
40.079
20
52.271
11
41.693
21
53.463
62
0
0
LINE
8
1
10
41.693
20
53.463
11
41.882
21
53.624
62
0
0
LINE
8
1
10
41.882
20
53.624
11
42.05
21
53.806
62
0
0
LINE
8
1
10
42.05
20
53.806
11
42.194
21
54.008
62
0
0
LINE
8
1
10
42.194
20
54.008
11
42.313
21
54.226
62
0
0
LINE
8
1
10
42.313
20
54.226
11
42.404
21
54.457
62
0
0
LINE
8
1
10
42.404
20
54.457
11
42.422
21
54.516
62
0
0
LINE
8
1
10
42.422
20
54.516
11
42.438
21
54.576
62
0
0
LINE
8
1
10
42.438
20
54.576
11
42.438
21
54.577
62
0
0
LINE
8
1
10
42.438
20
54.577
11
42.524
21
54.881
62
0
0
LINE
8
1
10
42.524
20
54.881
11
42.626
21
55.113
62
0
0
LINE
8
1
10
42.626
20
55.113
11
42.758
21
55.332
62
0
0
LINE
8
1
10
42.758
20
55.332
11
42.916
21
55.532
62
0
0
LINE
8
1
10
42.916
20
55.532
11
43.099
21
55.71
62
0
0
LINE
8
1
10
43.099
20
55.71
11
43.303
21
55.863
62
0
0
LINE
8
1
10
43.303
20
55.863
11
43.524
21
55.989
62
0
0
LINE
8
1
10
43.524
20
55.989
11
43.783
21
55.972
62
0
0
LINE
8
1
10
43.783
20
55.972
11
44.04
21
55.92
62
0
0
LINE
8
1
10
44.04
20
55.92
11
44.289
21
55.835
62
0
0
LINE
8
1
10
44.289
20
55.835
11
44.522
21
55.719
62
0
0
LINE
8
1
10
44.522
20
55.719
11
44.741
21
55.572
62
0
0
LINE
8
1
10
44.741
20
55.572
11
44.937
21
55.398
62
0
0
LINE
8
1
10
44.937
20
55.398
11
45.107
21
55.201
62
0
0
LINE
8
1
10
45.107
20
55.201
11
45.251
21
54.982
62
0
0
LINE
8
1
10
45.251
20
54.982
11
45.366
21
54.746
62
0
0
LINE
8
1
10
45.366
20
54.746
11
45.534
21
54.241
62
0
0
LINE
8
1
10
45.534
20
54.241
11
45.653
21
53.996
62
0
0
LINE
8
1
10
45.653
20
53.996
11
45.804
21
53.771
62
0
0
LINE
8
1
10
45.804
20
53.771
11
45.985
21
53.568
62
0
0
LINE
8
1
10
45.985
20
53.568
11
47.534
21
52.388
62
0
0
LINE
8
1
10
47.534
20
52.388
11
47.702
21
52.275
62
0
0
LINE
8
1
10
47.702
20
52.275
11
47.874
21
52.184
62
0
0
LINE
8
1
10
47.874
20
52.184
11
47.881
21
52.18
62
0
0
LINE
8
1
10
47.881
20
52.18
11
48.287
21
52.04
62
0
0
LINE
8
1
10
48.287
20
52.04
11
48.51
21
52.002
62
0
0
LINE
8
1
10
48.51
20
52.002
11
69.408
21
51.989
62
0
0
LINE
8
1
10
69.408
20
51.989
11
69.634
21
52.002
62
0
0
LINE
8
1
10
69.634
20
52.002
11
69.857
21
52.04
62
0
0
LINE
8
1
10
69.857
20
52.04
11
70.081
21
52.106
62
0
0
LINE
8
1
10
70.081
20
52.106
11
70.436
21
52.271
62
0
0
LINE
8
1
10
70.436
20
52.271
11
71.953
21
53.391
62
0
0
LINE
8
1
10
71.953
20
53.391
11
72.159
21
53.568
62
0
0
LINE
8
1
10
72.159
20
53.568
11
72.34
21
53.771
62
0
0
LINE
8
1
10
72.34
20
53.771
11
72.491
21
53.996
62
0
0
LINE
8
1
10
72.491
20
53.996
11
72.61
21
54.24
62
0
0
LINE
8
1
10
72.61
20
54.24
11
72.781
21
54.753
62
0
0
LINE
8
1
10
72.781
20
54.753
11
72.896
21
54.988
62
0
0
LINE
8
1
10
72.896
20
54.988
11
73.037
21
55.201
62
0
0
LINE
8
1
10
73.037
20
55.201
11
73.207
21
55.398
62
0
0
LINE
8
1
10
73.207
20
55.398
11
73.403
21
55.572
62
0
0
LINE
8
1
10
73.403
20
55.572
11
73.622
21
55.719
62
0
0
LINE
8
1
10
73.622
20
55.719
11
73.855
21
55.835
62
0
0
LINE
8
1
10
73.855
20
55.835
11
74.104
21
55.92
62
0
0
LINE
8
1
10
74.104
20
55.92
11
74.361
21
55.972
62
0
0
LINE
8
1
10
74.361
20
55.972
11
74.62
21
55.989
62
0
0
LINE
8
1
10
74.62
20
55.989
11
74.841
21
55.863
62
0
0
LINE
8
1
10
74.841
20
55.863
11
75.045
21
55.71
62
0
0
LINE
8
1
10
75.045
20
55.71
11
75.228
21
55.532
62
0
0
LINE
8
1
10
75.228
20
55.532
11
75.386
21
55.332
62
0
0
LINE
8
1
10
75.386
20
55.332
11
75.518
21
55.113
62
0
0
LINE
8
1
10
75.518
20
55.113
11
75.62
21
54.88
62
0
0
LINE
8
1
10
75.62
20
54.88
11
75.692
21
54.634
62
0
0
LINE
8
1
10
75.692
20
54.634
11
75.706
21
54.575
62
0
0
LINE
8
1
10
75.706
20
54.575
11
75.722
21
54.515
62
0
0
LINE
8
1
10
75.722
20
54.515
11
75.831
21
54.226
62
0
0
LINE
8
1
10
75.831
20
54.226
11
75.95
21
54.008
62
0
0
LINE
8
1
10
75.95
20
54.008
11
76.094
21
53.806
62
0
0
LINE
8
1
10
76.094
20
53.806
11
76.262
21
53.624
62
0
0
LINE
8
1
10
76.262
20
53.624
11
78.425
21
51.989
62
0
0
LINE
8
1
10
78.425
20
51.989
11
95.635
21
52.062
62
0
0
LINE
8
1
10
95.635
20
52.062
11
96.824
21
52.28
62
0
0
LINE
8
1
10
96.824
20
52.28
11
97.978
21
52.64
62
0
0
LINE
8
1
10
97.978
20
52.64
11
99.08
21
53.135
62
0
0
LINE
8
1
10
99.08
20
53.135
11
100.114
21
53.761
62
0
0
LINE
8
1
10
100.114
20
53.761
11
101.066
21
54.506
62
0
0
LINE
8
1
10
101.066
20
54.506
11
101.921
21
55.361
62
0
0
LINE
8
1
10
101.921
20
55.361
11
102.666
21
56.312
62
0
0
LINE
8
1
10
102.666
20
56.312
11
103.292
21
57.347
62
0
0
LINE
8
1
10
103.292
20
57.347
11
103.788
21
58.449
62
0
0
LINE
8
1
10
103.788
20
58.449
11
104.148
21
59.603
62
0
0
LINE
8
1
10
104.148
20
59.603
11
104.366
21
60.793
62
0
0
LINE
8
1
10
104.366
20
60.793
11
104.439
21
61.999
62
0
0
LINE
8
1
10
104.439
20
61.999
11
104.366
21
63.205
62
0
0
LINE
8
1
10
104.366
20
63.205
11
104.148
21
64.394
62
0
0
LINE
8
1
10
104.148
20
64.394
11
103.788
21
65.548
62
0
0
LINE
8
1
10
103.788
20
65.548
11
103.292
21
66.65
62
0
0
LINE
8
1
10
103.292
20
66.65
11
102.666
21
67.685
62
0
0
LINE
8
1
10
102.666
20
67.685
11
101.922
21
68.636
62
0
0
LINE
8
1
10
101.922
20
68.636
11
101.067
21
69.491
62
0
0
LINE
8
1
10
101.067
20
69.491
11
100.115
21
70.237
62
0
0
LINE
8
1
10
100.115
20
70.237
11
99.081
21
70.863
62
0
0
LINE
8
1
10
99.081
20
70.863
11
97.979
21
71.358
62
0
0
LINE
8
1
10
97.979
20
71.358
11
96.825
21
71.718
62
0
0
LINE
8
1
10
96.825
20
71.718
11
95.636
21
71.936
62
0
0
LINE
8
1
10
95.636
20
71.936
11
78.426
21
72.009
62
0
0
LINE
8
1
10
78.426
20
72.009
11
76.342
21
70.43
62
0
0
LINE
8
1
10
76.342
20
70.43
11
76.161
21
70.227
62
0
0
LINE
8
1
10
76.161
20
70.227
11
76.009
21
70.002
62
0
0
LINE
8
1
10
76.009
20
70.002
11
75.89
21
69.758
62
0
0
LINE
8
1
10
75.89
20
69.758
11
75.72
21
69.244
62
0
0
LINE
8
1
10
75.72
20
69.244
11
75.604
21
69.008
62
0
0
LINE
8
1
10
75.604
20
69.008
11
75.464
21
68.797
62
0
0
LINE
8
1
10
75.464
20
68.797
11
75.291
21
68.598
62
0
0
LINE
8
1
10
75.291
20
68.598
11
75.096
21
68.425
62
0
0
LINE
8
1
10
75.096
20
68.425
11
74.879
21
68.279
62
0
0
LINE
8
1
10
74.879
20
68.279
11
74.646
21
68.163
62
0
0
LINE
8
1
10
74.646
20
68.163
11
74.397
21
68.078
62
0
0
LINE
8
1
10
74.397
20
68.078
11
74.14
21
68.026
62
0
0
LINE
8
1
10
74.14
20
68.026
11
73.881
21
68.009
62
0
0
LINE
8
1
10
73.881
20
68.009
11
73.66
21
68.135
62
0
0
LINE
8
1
10
73.66
20
68.135
11
73.455
21
68.288
62
0
0
LINE
8
1
10
73.455
20
68.288
11
73.273
21
68.466
62
0
0
LINE
8
1
10
73.273
20
68.466
11
73.114
21
68.666
62
0
0
LINE
8
1
10
73.114
20
68.666
11
72.983
21
68.885
62
0
0
LINE
8
1
10
72.983
20
68.885
11
72.881
21
69.118
62
0
0
LINE
8
1
10
72.881
20
69.118
11
72.809
21
69.364
62
0
0
LINE
8
1
10
72.809
20
69.364
11
72.794
21
69.424
62
0
0
LINE
8
1
10
72.794
20
69.424
11
72.778
21
69.483
62
0
0
LINE
8
1
10
72.778
20
69.483
11
72.673
21
69.764
62
0
0
LINE
8
1
10
72.673
20
69.764
11
72.551
21
69.99
62
0
0
LINE
8
1
10
72.551
20
69.99
11
72.407
21
70.192
62
0
0
LINE
8
1
10
72.407
20
70.192
11
72.239
21
70.374
62
0
0
LINE
8
1
10
72.239
20
70.374
11
70.61
21
71.61
62
0
0
LINE
8
1
10
70.61
20
71.61
11
70.442
21
71.723
62
0
0
LINE
8
1
10
70.442
20
71.723
11
70.27
21
71.814
62
0
0
LINE
8
1
10
70.27
20
71.814
11
70.263
21
71.818
62
0
0
LINE
8
1
10
70.263
20
71.818
11
69.857
21
71.958
62
0
0
CIRCLE
8
1
10
-204.284
20
69.998
40
1.89004
62
0
0
CIRCLE
8
1
10
-112.284
20
69.998
40
1.89004
62
0
0
CIRCLE
8
1
10
-133.569
20
69.999
40
1.88997
62
0
0
CIRCLE
8
1
10
-41.569
20
69.999
40
1.88994
62
0
0
CIRCLE
8
1
10
23.714
20
67.999
40
1.88989
62
0
0
CIRCLE
8
1
10
94.429
20
67.998
40
1.88997
62
0
0
CIRCLE
8
1
10
64.071
20
66.998
40
1.49046
62
0
0
CIRCLE
8
1
10
54.071
20
66.998
40
1.49046
62
0
0
LINE
8
1
10
166.857
20
65.958
11
166.634
21
65.996
62
0
0
LINE
8
1
10
166.634
20
65.996
11
145.736
21
66.009
62
0
0
LINE
8
1
10
145.736
20
66.009
11
145.51
21
65.996
62
0
0
LINE
8
1
10
145.51
20
65.996
11
145.287
21
65.958
62
0
0
LINE
8
1
10
145.287
20
65.958
11
145.063
21
65.892
62
0
0
LINE
8
1
10
145.063
20
65.892
11
144.708
21
65.727
62
0
0
LINE
8
1
10
144.708
20
65.727
11
143.094
21
64.535
62
0
0
LINE
8
1
10
143.094
20
64.535
11
142.905
21
64.374
62
0
0
LINE
8
1
10
142.905
20
64.374
11
142.737
21
64.192
62
0
0
LINE
8
1
10
142.737
20
64.192
11
142.594
21
63.99
62
0
0
LINE
8
1
10
142.594
20
63.99
11
142.475
21
63.772
62
0
0
LINE
8
1
10
142.475
20
63.772
11
142.384
21
63.541
62
0
0
LINE
8
1
10
142.384
20
63.541
11
142.366
21
63.482
62
0
0
LINE
8
1
10
142.366
20
63.482
11
142.35
21
63.422
62
0
0
LINE
8
1
10
142.35
20
63.422
11
142.263
21
63.118
62
0
0
LINE
8
1
10
142.263
20
63.118
11
142.161
21
62.885
62
0
0
LINE
8
1
10
142.161
20
62.885
11
142.029
21
62.665
62
0
0
LINE
8
1
10
142.029
20
62.665
11
141.87
21
62.465
62
0
0
LINE
8
1
10
141.87
20
62.465
11
141.688
21
62.287
62
0
0
LINE
8
1
10
141.688
20
62.287
11
141.484
21
62.135
62
0
0
LINE
8
1
10
141.484
20
62.135
11
141.263
21
62.009
62
0
0
LINE
8
1
10
141.263
20
62.009
11
141.004
21
62.026
62
0
0
LINE
8
1
10
141.004
20
62.026
11
140.747
21
62.078
62
0
0
LINE
8
1
10
140.747
20
62.078
11
140.498
21
62.163
62
0
0
LINE
8
1
10
140.498
20
62.163
11
140.265
21
62.279
62
0
0
LINE
8
1
10
140.265
20
62.279
11
140.047
21
62.426
62
0
0
LINE
8
1
10
140.047
20
62.426
11
139.851
21
62.6
62
0
0
LINE
8
1
10
139.851
20
62.6
11
139.68
21
62.797
62
0
0
LINE
8
1
10
139.68
20
62.797
11
139.536
21
63.016
62
0
0
LINE
8
1
10
139.536
20
63.016
11
139.421
21
63.252
62
0
0
LINE
8
1
10
139.421
20
63.252
11
139.254
21
63.757
62
0
0
LINE
8
1
10
139.254
20
63.757
11
139.135
21
64.002
62
0
0
LINE
8
1
10
139.135
20
64.002
11
138.983
21
64.227
62
0
0
LINE
8
1
10
138.983
20
64.227
11
138.802
21
64.43
62
0
0
LINE
8
1
10
138.802
20
64.43
11
137.254
21
65.61
62
0
0
LINE
8
1
10
137.254
20
65.61
11
137.085
21
65.723
62
0
0
LINE
8
1
10
137.085
20
65.723
11
136.913
21
65.814
62
0
0
LINE
8
1
10
136.913
20
65.814
11
136.906
21
65.818
62
0
0
LINE
8
1
10
136.906
20
65.818
11
136.501
21
65.958
62
0
0
LINE
8
1
10
136.501
20
65.958
11
136.277
21
65.996
62
0
0
LINE
8
1
10
136.277
20
65.996
11
120.133
21
65.992
62
0
0
LINE
8
1
10
120.133
20
65.992
11
119.509
21
65.936
62
0
0
LINE
8
1
10
119.509
20
65.936
11
118.32
21
65.718
62
0
0
LINE
8
1
10
118.32
20
65.718
11
117.166
21
65.358
62
0
0
LINE
8
1
10
117.166
20
65.358
11
116.064
21
64.863
62
0
0
LINE
8
1
10
116.064
20
64.863
11
115.03
21
64.237
62
0
0
LINE
8
1
10
115.03
20
64.237
11
114.078
21
63.492
62
0
0
LINE
8
1
10
114.078
20
63.492
11
113.223
21
62.637
62
0
0
LINE
8
1
10
113.223
20
62.637
11
112.478
21
61.686
62
0
0
LINE
8
1
10
112.478
20
61.686
11
111.852
21
60.651
62
0
0
LINE
8
1
10
111.852
20
60.651
11
111.356
21
59.549
62
0
0
LINE
8
1
10
111.356
20
59.549
11
110.996
21
58.395
62
0
0
LINE
8
1
10
110.996
20
58.395
11
110.778
21
57.205
62
0
0
LINE
8
1
10
110.778
20
57.205
11
110.705
21
55.999
62
0
0
LINE
8
1
10
110.705
20
55.999
11
110.778
21
54.793
62
0
0
LINE
8
1
10
110.778
20
54.793
11
110.996
21
53.604
62
0
0
LINE
8
1
10
110.996
20
53.604
11
111.356
21
52.45
62
0
0
LINE
8
1
10
111.356
20
52.45
11
111.852
21
51.348
62
0
0
LINE
8
1
10
111.852
20
51.348
11
112.478
21
50.313
62
0
0
LINE
8
1
10
112.478
20
50.313
11
113.222
21
49.362
62
0
0
LINE
8
1
10
113.222
20
49.362
11
114.077
21
48.507
62
0
0
LINE
8
1
10
114.077
20
48.507
11
115.029
21
47.761
62
0
0
LINE
8
1
10
115.029
20
47.761
11
116.063
21
47.135
62
0
0
LINE
8
1
10
116.063
20
47.135
11
117.165
21
46.64
62
0
0
LINE
8
1
10
117.165
20
46.64
11
118.319
21
46.28
62
0
0
LINE
8
1
10
118.319
20
46.28
11
119.509
21
46.062
62
0
0
LINE
8
1
10
119.509
20
46.062
11
136.051
21
45.989
62
0
0
LINE
8
1
10
136.051
20
45.989
11
136.277
21
46.002
62
0
0
LINE
8
1
10
136.277
20
46.002
11
136.501
21
46.04
62
0
0
LINE
8
1
10
136.501
20
46.04
11
136.724
21
46.106
62
0
0
LINE
8
1
10
136.724
20
46.106
11
137.079
21
46.271
62
0
0
LINE
8
1
10
137.079
20
46.271
11
138.693
21
47.463
62
0
0
LINE
8
1
10
138.693
20
47.463
11
138.882
21
47.624
62
0
0
LINE
8
1
10
138.882
20
47.624
11
139.05
21
47.806
62
0
0
LINE
8
1
10
139.05
20
47.806
11
139.194
21
48.008
62
0
0
LINE
8
1
10
139.194
20
48.008
11
139.313
21
48.226
62
0
0
LINE
8
1
10
139.313
20
48.226
11
139.404
21
48.457
62
0
0
LINE
8
1
10
139.404
20
48.457
11
139.422
21
48.516
62
0
0
LINE
8
1
10
139.422
20
48.516
11
139.438
21
48.576
62
0
0
LINE
8
1
10
139.438
20
48.576
11
139.438
21
48.577
62
0
0
LINE
8
1
10
139.438
20
48.577
11
139.524
21
48.881
62
0
0
LINE
8
1
10
139.524
20
48.881
11
139.626
21
49.113
62
0
0
LINE
8
1
10
139.626
20
49.113
11
139.758
21
49.332
62
0
0
LINE
8
1
10
139.758
20
49.332
11
139.916
21
49.532
62
0
0
LINE
8
1
10
139.916
20
49.532
11
140.099
21
49.71
62
0
0
LINE
8
1
10
140.099
20
49.71
11
140.303
21
49.863
62
0
0
LINE
8
1
10
140.303
20
49.863
11
140.524
21
49.989
62
0
0
LINE
8
1
10
140.524
20
49.989
11
140.783
21
49.972
62
0
0
LINE
8
1
10
140.783
20
49.972
11
141.04
21
49.92
62
0
0
LINE
8
1
10
141.04
20
49.92
11
141.289
21
49.835
62
0
0
LINE
8
1
10
141.289
20
49.835
11
141.522
21
49.719
62
0
0
LINE
8
1
10
141.522
20
49.719
11
141.741
21
49.572
62
0
0
LINE
8
1
10
141.741
20
49.572
11
141.937
21
49.398
62
0
0
LINE
8
1
10
141.937
20
49.398
11
142.107
21
49.201
62
0
0
LINE
8
1
10
142.107
20
49.201
11
142.251
21
48.982
62
0
0
LINE
8
1
10
142.251
20
48.982
11
142.365
21
48.748
62
0
0
LINE
8
1
10
142.365
20
48.748
11
142.534
21
48.241
62
0
0
LINE
8
1
10
142.534
20
48.241
11
142.653
21
47.996
62
0
0
LINE
8
1
10
142.653
20
47.996
11
142.804
21
47.771
62
0
0
LINE
8
1
10
142.804
20
47.771
11
142.985
21
47.568
62
0
0
LINE
8
1
10
142.985
20
47.568
11
144.534
21
46.388
62
0
0
LINE
8
1
10
144.534
20
46.388
11
144.702
21
46.275
62
0
0
LINE
8
1
10
144.702
20
46.275
11
144.874
21
46.184
62
0
0
LINE
8
1
10
144.874
20
46.184
11
144.881
21
46.18
62
0
0
LINE
8
1
10
144.881
20
46.18
11
145.287
21
46.04
62
0
0
LINE
8
1
10
145.287
20
46.04
11
145.51
21
46.002
62
0
0
LINE
8
1
10
145.51
20
46.002
11
166.408
21
45.989
62
0
0
LINE
8
1
10
166.408
20
45.989
11
166.634
21
46.002
62
0
0
LINE
8
1
10
166.634
20
46.002
11
166.857
21
46.04
62
0
0
LINE
8
1
10
166.857
20
46.04
11
167.081
21
46.106
62
0
0
LINE
8
1
10
167.081
20
46.106
11
167.436
21
46.271
62
0
0
LINE
8
1
10
167.436
20
46.271
11
168.953
21
47.391
62
0
0
LINE
8
1
10
168.953
20
47.391
11
169.159
21
47.568
62
0
0
LINE
8
1
10
169.159
20
47.568
11
169.34
21
47.771
62
0
0
LINE
8
1
10
169.34
20
47.771
11
169.491
21
47.996
62
0
0
LINE
8
1
10
169.491
20
47.996
11
169.61
21
48.24
62
0
0
LINE
8
1
10
169.61
20
48.24
11
169.781
21
48.753
62
0
0
LINE
8
1
10
169.781
20
48.753
11
169.896
21
48.988
62
0
0
LINE
8
1
10
169.896
20
48.988
11
170.037
21
49.201
62
0
0
LINE
8
1
10
170.037
20
49.201
11
170.207
21
49.398
62
0
0
LINE
8
1
10
170.207
20
49.398
11
170.403
21
49.572
62
0
0
LINE
8
1
10
170.403
20
49.572
11
170.622
21
49.719
62
0
0
LINE
8
1
10
170.622
20
49.719
11
170.855
21
49.835
62
0
0
LINE
8
1
10
170.855
20
49.835
11
171.104
21
49.92
62
0
0
LINE
8
1
10
171.104
20
49.92
11
171.361
21
49.972
62
0
0
LINE
8
1
10
171.361
20
49.972
11
171.62
21
49.989
62
0
0
LINE
8
1
10
171.62
20
49.989
11
171.841
21
49.863
62
0
0
LINE
8
1
10
171.841
20
49.863
11
172.045
21
49.71
62
0
0
LINE
8
1
10
172.045
20
49.71
11
172.228
21
49.532
62
0
0
LINE
8
1
10
172.228
20
49.532
11
172.386
21
49.332
62
0
0
LINE
8
1
10
172.386
20
49.332
11
172.518
21
49.113
62
0
0
LINE
8
1
10
172.518
20
49.113
11
172.62
21
48.88
62
0
0
LINE
8
1
10
172.62
20
48.88
11
172.692
21
48.634
62
0
0
LINE
8
1
10
172.692
20
48.634
11
172.706
21
48.575
62
0
0
LINE
8
1
10
172.706
20
48.575
11
172.722
21
48.515
62
0
0
LINE
8
1
10
172.722
20
48.515
11
172.831
21
48.226
62
0
0
LINE
8
1
10
172.831
20
48.226
11
172.95
21
48.008
62
0
0
LINE
8
1
10
172.95
20
48.008
11
173.094
21
47.806
62
0
0
LINE
8
1
10
173.094
20
47.806
11
173.262
21
47.624
62
0
0
LINE
8
1
10
173.262
20
47.624
11
175.425
21
45.989
62
0
0
LINE
8
1
10
175.425
20
45.989
11
192.635
21
46.062
62
0
0
LINE
8
1
10
192.635
20
46.062
11
193.824
21
46.28
62
0
0
LINE
8
1
10
193.824
20
46.28
11
194.978
21
46.64
62
0
0
LINE
8
1
10
194.978
20
46.64
11
196.08
21
47.135
62
0
0
LINE
8
1
10
196.08
20
47.135
11
197.114
21
47.761
62
0
0
LINE
8
1
10
197.114
20
47.761
11
198.066
21
48.506
62
0
0
LINE
8
1
10
198.066
20
48.506
11
198.921
21
49.361
62
0
0
LINE
8
1
10
198.921
20
49.361
11
199.666
21
50.312
62
0
0
LINE
8
1
10
199.666
20
50.312
11
200.292
21
51.347
62
0
0
LINE
8
1
10
200.292
20
51.347
11
200.788
21
52.449
62
0
0
LINE
8
1
10
200.788
20
52.449
11
201.148
21
53.603
62
0
0
LINE
8
1
10
201.148
20
53.603
11
201.366
21
54.793
62
0
0
LINE
8
1
10
201.366
20
54.793
11
201.439
21
55.999
62
0
0
LINE
8
1
10
201.439
20
55.999
11
201.366
21
57.205
62
0
0
LINE
8
1
10
201.366
20
57.205
11
201.148
21
58.394
62
0
0
LINE
8
1
10
201.148
20
58.394
11
200.788
21
59.548
62
0
0
LINE
8
1
10
200.788
20
59.548
11
200.292
21
60.65
62
0
0
LINE
8
1
10
200.292
20
60.65
11
199.666
21
61.685
62
0
0
LINE
8
1
10
199.666
20
61.685
11
198.922
21
62.636
62
0
0
LINE
8
1
10
198.922
20
62.636
11
198.067
21
63.491
62
0
0
LINE
8
1
10
198.067
20
63.491
11
197.115
21
64.237
62
0
0
LINE
8
1
10
197.115
20
64.237
11
196.081
21
64.863
62
0
0
LINE
8
1
10
196.081
20
64.863
11
194.979
21
65.358
62
0
0
LINE
8
1
10
194.979
20
65.358
11
193.825
21
65.718
62
0
0
LINE
8
1
10
193.825
20
65.718
11
192.636
21
65.936
62
0
0
LINE
8
1
10
192.636
20
65.936
11
175.426
21
66.009
62
0
0
LINE
8
1
10
175.426
20
66.009
11
173.342
21
64.43
62
0
0
LINE
8
1
10
173.342
20
64.43
11
173.161
21
64.227
62
0
0
LINE
8
1
10
173.161
20
64.227
11
173.009
21
64.002
62
0
0
LINE
8
1
10
173.009
20
64.002
11
172.89
21
63.758
62
0
0
LINE
8
1
10
172.89
20
63.758
11
172.72
21
63.244
62
0
0
LINE
8
1
10
172.72
20
63.244
11
172.604
21
63.008
62
0
0
LINE
8
1
10
172.604
20
63.008
11
172.464
21
62.797
62
0
0
LINE
8
1
10
172.464
20
62.797
11
172.291
21
62.598
62
0
0
LINE
8
1
10
172.291
20
62.598
11
172.096
21
62.425
62
0
0
LINE
8
1
10
172.096
20
62.425
11
171.879
21
62.279
62
0
0
LINE
8
1
10
171.879
20
62.279
11
171.646
21
62.163
62
0
0
LINE
8
1
10
171.646
20
62.163
11
171.397
21
62.078
62
0
0
LINE
8
1
10
171.397
20
62.078
11
171.14
21
62.026
62
0
0
LINE
8
1
10
171.14
20
62.026
11
170.881
21
62.009
62
0
0
LINE
8
1
10
170.881
20
62.009
11
170.66
21
62.135
62
0
0
LINE
8
1
10
170.66
20
62.135
11
170.455
21
62.288
62
0
0
LINE
8
1
10
170.455
20
62.288
11
170.273
21
62.466
62
0
0
LINE
8
1
10
170.273
20
62.466
11
170.114
21
62.666
62
0
0
LINE
8
1
10
170.114
20
62.666
11
169.983
21
62.885
62
0
0
LINE
8
1
10
169.983
20
62.885
11
169.881
21
63.118
62
0
0
LINE
8
1
10
169.881
20
63.118
11
169.809
21
63.364
62
0
0
LINE
8
1
10
169.809
20
63.364
11
169.794
21
63.424
62
0
0
LINE
8
1
10
169.794
20
63.424
11
169.778
21
63.483
62
0
0
LINE
8
1
10
169.778
20
63.483
11
169.673
21
63.764
62
0
0
LINE
8
1
10
169.673
20
63.764
11
169.551
21
63.99
62
0
0
LINE
8
1
10
169.551
20
63.99
11
169.407
21
64.192
62
0
0
LINE
8
1
10
169.407
20
64.192
11
169.239
21
64.374
62
0
0
LINE
8
1
10
169.239
20
64.374
11
167.61
21
65.61
62
0
0
LINE
8
1
10
167.61
20
65.61
11
167.442
21
65.723
62
0
0
LINE
8
1
10
167.442
20
65.723
11
167.27
21
65.814
62
0
0
LINE
8
1
10
167.27
20
65.814
11
167.263
21
65.818
62
0
0
LINE
8
1
10
167.263
20
65.818
11
166.857
21
65.958
62
0
0
LINE
8
1
10
-22.142
20
64.958
11
-22.365
21
64.996
62
0
0
LINE
8
1
10
-22.365
20
64.996
11
-43.263
21
65.009
62
0
0
LINE
8
1
10
-43.263
20
65.009
11
-43.489
21
64.996
62
0
0
LINE
8
1
10
-43.489
20
64.996
11
-43.712
21
64.958
62
0
0
LINE
8
1
10
-43.712
20
64.958
11
-43.936
21
64.892
62
0
0
LINE
8
1
10
-43.936
20
64.892
11
-44.291
21
64.727
62
0
0
LINE
8
1
10
-44.291
20
64.727
11
-45.905
21
63.535
62
0
0
LINE
8
1
10
-45.905
20
63.535
11
-46.094
21
63.374
62
0
0
LINE
8
1
10
-46.094
20
63.374
11
-46.262
21
63.192
62
0
0
LINE
8
1
10
-46.262
20
63.192
11
-46.405
21
62.99
62
0
0
LINE
8
1
10
-46.405
20
62.99
11
-46.524
21
62.772
62
0
0
LINE
8
1
10
-46.524
20
62.772
11
-46.615
21
62.541
62
0
0
LINE
8
1
10
-46.615
20
62.541
11
-46.633
21
62.482
62
0
0
LINE
8
1
10
-46.633
20
62.482
11
-46.649
21
62.422
62
0
0
LINE
8
1
10
-46.649
20
62.422
11
-46.736
21
62.118
62
0
0
LINE
8
1
10
-46.736
20
62.118
11
-46.838
21
61.885
62
0
0
LINE
8
1
10
-46.838
20
61.885
11
-46.97
21
61.665
62
0
0
LINE
8
1
10
-46.97
20
61.665
11
-47.129
21
61.465
62
0
0
LINE
8
1
10
-47.129
20
61.465
11
-47.311
21
61.287
62
0
0
LINE
8
1
10
-47.311
20
61.287
11
-47.515
21
61.135
62
0
0
LINE
8
1
10
-47.515
20
61.135
11
-47.736
21
61.009
62
0
0
LINE
8
1
10
-47.736
20
61.009
11
-47.995
21
61.026
62
0
0
LINE
8
1
10
-47.995
20
61.026
11
-48.252
21
61.078
62
0
0
LINE
8
1
10
-48.252
20
61.078
11
-48.501
21
61.163
62
0
0
LINE
8
1
10
-48.501
20
61.163
11
-48.734
21
61.279
62
0
0
LINE
8
1
10
-48.734
20
61.279
11
-48.952
21
61.426
62
0
0
LINE
8
1
10
-48.952
20
61.426
11
-49.148
21
61.6
62
0
0
LINE
8
1
10
-49.148
20
61.6
11
-49.319
21
61.797
62
0
0
LINE
8
1
10
-49.319
20
61.797
11
-49.463
21
62.016
62
0
0
LINE
8
1
10
-49.463
20
62.016
11
-49.578
21
62.252
62
0
0
LINE
8
1
10
-49.578
20
62.252
11
-49.745
21
62.757
62
0
0
LINE
8
1
10
-49.745
20
62.757
11
-49.864
21
63.002
62
0
0
LINE
8
1
10
-49.864
20
63.002
11
-50.016
21
63.227
62
0
0
LINE
8
1
10
-50.016
20
63.227
11
-50.197
21
63.43
62
0
0
LINE
8
1
10
-50.197
20
63.43
11
-51.745
21
64.61
62
0
0
LINE
8
1
10
-51.745
20
64.61
11
-51.914
21
64.723
62
0
0
LINE
8
1
10
-51.914
20
64.723
11
-52.086
21
64.814
62
0
0
LINE
8
1
10
-52.086
20
64.814
11
-52.093
21
64.818
62
0
0
LINE
8
1
10
-52.093
20
64.818
11
-52.498
21
64.958
62
0
0
LINE
8
1
10
-52.498
20
64.958
11
-52.722
21
64.996
62
0
0
LINE
8
1
10
-52.722
20
64.996
11
-68.866
21
64.992
62
0
0
LINE
8
1
10
-68.866
20
64.992
11
-69.49
21
64.936
62
0
0
LINE
8
1
10
-69.49
20
64.936
11
-70.679
21
64.718
62
0
0
LINE
8
1
10
-70.679
20
64.718
11
-71.833
21
64.358
62
0
0
LINE
8
1
10
-71.833
20
64.358
11
-72.935
21
63.863
62
0
0
LINE
8
1
10
-72.935
20
63.863
11
-73.969
21
63.237
62
0
0
LINE
8
1
10
-73.969
20
63.237
11
-74.921
21
62.492
62
0
0
LINE
8
1
10
-74.921
20
62.492
11
-75.776
21
61.637
62
0
0
LINE
8
1
10
-75.776
20
61.637
11
-76.521
21
60.686
62
0
0
LINE
8
1
10
-76.521
20
60.686
11
-77.147
21
59.651
62
0
0
LINE
8
1
10
-77.147
20
59.651
11
-77.643
21
58.549
62
0
0
LINE
8
1
10
-77.643
20
58.549
11
-78.003
21
57.395
62
0
0
LINE
8
1
10
-78.003
20
57.395
11
-78.221
21
56.205
62
0
0
LINE
8
1
10
-78.221
20
56.205
11
-78.294
21
54.999
62
0
0
LINE
8
1
10
-78.294
20
54.999
11
-78.221
21
53.793
62
0
0
LINE
8
1
10
-78.221
20
53.793
11
-78.003
21
52.604
62
0
0
LINE
8
1
10
-78.003
20
52.604
11
-77.643
21
51.45
62
0
0
LINE
8
1
10
-77.643
20
51.45
11
-77.147
21
50.348
62
0
0
LINE
8
1
10
-77.147
20
50.348
11
-76.521
21
49.313
62
0
0
LINE
8
1
10
-76.521
20
49.313
11
-75.777
21
48.362
62
0
0
LINE
8
1
10
-75.777
20
48.362
11
-74.922
21
47.507
62
0
0
LINE
8
1
10
-74.922
20
47.507
11
-73.97
21
46.761
62
0
0
LINE
8
1
10
-73.97
20
46.761
11
-72.936
21
46.135
62
0
0
LINE
8
1
10
-72.936
20
46.135
11
-71.834
21
45.64
62
0
0
LINE
8
1
10
-71.834
20
45.64
11
-70.68
21
45.28
62
0
0
LINE
8
1
10
-70.68
20
45.28
11
-69.49
21
45.062
62
0
0
LINE
8
1
10
-69.49
20
45.062
11
-52.948
21
44.989
62
0
0
LINE
8
1
10
-52.948
20
44.989
11
-52.722
21
45.002
62
0
0
LINE
8
1
10
-52.722
20
45.002
11
-52.498
21
45.04
62
0
0
LINE
8
1
10
-52.498
20
45.04
11
-52.275
21
45.106
62
0
0
LINE
8
1
10
-52.275
20
45.106
11
-51.92
21
45.271
62
0
0
LINE
8
1
10
-51.92
20
45.271
11
-50.306
21
46.463
62
0
0
LINE
8
1
10
-50.306
20
46.463
11
-50.117
21
46.624
62
0
0
LINE
8
1
10
-50.117
20
46.624
11
-49.949
21
46.806
62
0
0
LINE
8
1
10
-49.949
20
46.806
11
-49.805
21
47.008
62
0
0
LINE
8
1
10
-49.805
20
47.008
11
-49.686
21
47.226
62
0
0
LINE
8
1
10
-49.686
20
47.226
11
-49.595
21
47.457
62
0
0
LINE
8
1
10
-49.595
20
47.457
11
-49.577
21
47.516
62
0
0
LINE
8
1
10
-49.577
20
47.516
11
-49.561
21
47.576
62
0
0
LINE
8
1
10
-49.561
20
47.576
11
-49.561
21
47.577
62
0
0
LINE
8
1
10
-49.561
20
47.577
11
-49.475
21
47.881
62
0
0
LINE
8
1
10
-49.475
20
47.881
11
-49.373
21
48.113
62
0
0
LINE
8
1
10
-49.373
20
48.113
11
-49.241
21
48.332
62
0
0
LINE
8
1
10
-49.241
20
48.332
11
-49.083
21
48.532
62
0
0
LINE
8
1
10
-49.083
20
48.532
11
-48.9
21
48.71
62
0
0
LINE
8
1
10
-48.9
20
48.71
11
-48.696
21
48.863
62
0
0
LINE
8
1
10
-48.696
20
48.863
11
-48.475
21
48.989
62
0
0
LINE
8
1
10
-48.475
20
48.989
11
-48.216
21
48.972
62
0
0
LINE
8
1
10
-48.216
20
48.972
11
-47.959
21
48.92
62
0
0
LINE
8
1
10
-47.959
20
48.92
11
-47.71
21
48.835
62
0
0
LINE
8
1
10
-47.71
20
48.835
11
-47.477
21
48.719
62
0
0
LINE
8
1
10
-47.477
20
48.719
11
-47.258
21
48.572
62
0
0
LINE
8
1
10
-47.258
20
48.572
11
-47.062
21
48.398
62
0
0
LINE
8
1
10
-47.062
20
48.398
11
-46.892
21
48.201
62
0
0
LINE
8
1
10
-46.892
20
48.201
11
-46.748
21
47.982
62
0
0
LINE
8
1
10
-46.748
20
47.982
11
-46.633
21
47.746
62
0
0
LINE
8
1
10
-46.633
20
47.746
11
-46.465
21
47.241
62
0
0
LINE
8
1
10
-46.465
20
47.241
11
-46.346
21
46.996
62
0
0
LINE
8
1
10
-46.346
20
46.996
11
-46.195
21
46.771
62
0
0
LINE
8
1
10
-46.195
20
46.771
11
-46.014
21
46.568
62
0
0
LINE
8
1
10
-46.014
20
46.568
11
-44.465
21
45.388
62
0
0
LINE
8
1
10
-44.465
20
45.388
11
-44.297
21
45.275
62
0
0
LINE
8
1
10
-44.297
20
45.275
11
-44.125
21
45.184
62
0
0
LINE
8
1
10
-44.125
20
45.184
11
-44.118
21
45.18
62
0
0
LINE
8
1
10
-44.118
20
45.18
11
-43.712
21
45.04
62
0
0
LINE
8
1
10
-43.712
20
45.04
11
-43.489
21
45.002
62
0
0
LINE
8
1
10
-43.489
20
45.002
11
-22.591
21
44.989
62
0
0
LINE
8
1
10
-22.591
20
44.989
11
-22.365
21
45.002
62
0
0
LINE
8
1
10
-22.365
20
45.002
11
-22.142
21
45.04
62
0
0
LINE
8
1
10
-22.142
20
45.04
11
-21.918
21
45.106
62
0
0
LINE
8
1
10
-21.918
20
45.106
11
-21.563
21
45.271
62
0
0
LINE
8
1
10
-21.563
20
45.271
11
-20.046
21
46.391
62
0
0
LINE
8
1
10
-20.046
20
46.391
11
-19.84
21
46.568
62
0
0
LINE
8
1
10
-19.84
20
46.568
11
-19.659
21
46.771
62
0
0
LINE
8
1
10
-19.659
20
46.771
11
-19.508
21
46.996
62
0
0
LINE
8
1
10
-19.508
20
46.996
11
-19.389
21
47.24
62
0
0
LINE
8
1
10
-19.389
20
47.24
11
-19.218
21
47.753
62
0
0
LINE
8
1
10
-19.218
20
47.753
11
-19.103
21
47.988
62
0
0
LINE
8
1
10
-19.103
20
47.988
11
-18.962
21
48.201
62
0
0
LINE
8
1
10
-18.962
20
48.201
11
-18.792
21
48.398
62
0
0
LINE
8
1
10
-18.792
20
48.398
11
-18.596
21
48.572
62
0
0
LINE
8
1
10
-18.596
20
48.572
11
-18.377
21
48.719
62
0
0
LINE
8
1
10
-18.377
20
48.719
11
-18.144
21
48.835
62
0
0
LINE
8
1
10
-18.144
20
48.835
11
-17.895
21
48.92
62
0
0
LINE
8
1
10
-17.895
20
48.92
11
-17.638
21
48.972
62
0
0
LINE
8
1
10
-17.638
20
48.972
11
-17.379
21
48.989
62
0
0
LINE
8
1
10
-17.379
20
48.989
11
-17.158
21
48.863
62
0
0
LINE
8
1
10
-17.158
20
48.863
11
-16.954
21
48.71
62
0
0
LINE
8
1
10
-16.954
20
48.71
11
-16.771
21
48.532
62
0
0
LINE
8
1
10
-16.771
20
48.532
11
-16.613
21
48.332
62
0
0
LINE
8
1
10
-16.613
20
48.332
11
-16.481
21
48.113
62
0
0
LINE
8
1
10
-16.481
20
48.113
11
-16.379
21
47.88
62
0
0
LINE
8
1
10
-16.379
20
47.88
11
-16.307
21
47.634
62
0
0
LINE
8
1
10
-16.307
20
47.634
11
-16.293
21
47.575
62
0
0
LINE
8
1
10
-16.293
20
47.575
11
-16.277
21
47.515
62
0
0
LINE
8
1
10
-16.277
20
47.515
11
-16.168
21
47.226
62
0
0
LINE
8
1
10
-16.168
20
47.226
11
-16.049
21
47.008
62
0
0
LINE
8
1
10
-16.049
20
47.008
11
-15.905
21
46.806
62
0
0
LINE
8
1
10
-15.905
20
46.806
11
-15.737
21
46.624
62
0
0
LINE
8
1
10
-15.737
20
46.624
11
-13.574
21
44.989
62
0
0
LINE
8
1
10
-13.574
20
44.989
11
3.635
21
45.062
62
0
0
LINE
8
1
10
3.635
20
45.062
11
4.824
21
45.28
62
0
0
LINE
8
1
10
4.824
20
45.28
11
5.978
21
45.64
62
0
0
LINE
8
1
10
5.978
20
45.64
11
7.08
21
46.135
62
0
0
LINE
8
1
10
7.08
20
46.135
11
8.114
21
46.761
62
0
0
LINE
8
1
10
8.114
20
46.761
11
9.066
21
47.506
62
0
0
LINE
8
1
10
9.066
20
47.506
11
9.921
21
48.361
62
0
0
LINE
8
1
10
9.921
20
48.361
11
10.666
21
49.312
62
0
0
LINE
8
1
10
10.666
20
49.312
11
11.292
21
50.347
62
0
0
LINE
8
1
10
11.292
20
50.347
11
11.788
21
51.449
62
0
0
LINE
8
1
10
11.788
20
51.449
11
12.148
21
52.603
62
0
0
LINE
8
1
10
12.148
20
52.603
11
12.366
21
53.793
62
0
0
LINE
8
1
10
12.366
20
53.793
11
12.439
21
54.999
62
0
0
LINE
8
1
10
12.439
20
54.999
11
12.366
21
56.205
62
0
0
LINE
8
1
10
12.366
20
56.205
11
12.148
21
57.394
62
0
0
LINE
8
1
10
12.148
20
57.394
11
11.788
21
58.548
62
0
0
LINE
8
1
10
11.788
20
58.548
11
11.292
21
59.65
62
0
0
LINE
8
1
10
11.292
20
59.65
11
10.666
21
60.685
62
0
0
LINE
8
1
10
10.666
20
60.685
11
9.922
21
61.636
62
0
0
LINE
8
1
10
9.922
20
61.636
11
9.067
21
62.491
62
0
0
LINE
8
1
10
9.067
20
62.491
11
8.115
21
63.237
62
0
0
LINE
8
1
10
8.115
20
63.237
11
7.081
21
63.863
62
0
0
LINE
8
1
10
7.081
20
63.863
11
5.979
21
64.358
62
0
0
LINE
8
1
10
5.979
20
64.358
11
4.825
21
64.718
62
0
0
LINE
8
1
10
4.825
20
64.718
11
3.636
21
64.936
62
0
0
LINE
8
1
10
3.636
20
64.936
11
-13.573
21
65.009
62
0
0
LINE
8
1
10
-13.573
20
65.009
11
-15.657
21
63.43
62
0
0
LINE
8
1
10
-15.657
20
63.43
11
-15.838
21
63.227
62
0
0
LINE
8
1
10
-15.838
20
63.227
11
-15.99
21
63.002
62
0
0
LINE
8
1
10
-15.99
20
63.002
11
-16.109
21
62.758
62
0
0
LINE
8
1
10
-16.109
20
62.758
11
-16.279
21
62.244
62
0
0
LINE
8
1
10
-16.279
20
62.244
11
-16.395
21
62.008
62
0
0
LINE
8
1
10
-16.395
20
62.008
11
-16.535
21
61.797
62
0
0
LINE
8
1
10
-16.535
20
61.797
11
-16.708
21
61.598
62
0
0
LINE
8
1
10
-16.708
20
61.598
11
-16.903
21
61.425
62
0
0
LINE
8
1
10
-16.903
20
61.425
11
-17.12
21
61.279
62
0
0
LINE
8
1
10
-17.12
20
61.279
11
-17.353
21
61.163
62
0
0
LINE
8
1
10
-17.353
20
61.163
11
-17.602
21
61.078
62
0
0
LINE
8
1
10
-17.602
20
61.078
11
-17.859
21
61.026
62
0
0
LINE
8
1
10
-17.859
20
61.026
11
-18.118
21
61.009
62
0
0
LINE
8
1
10
-18.118
20
61.009
11
-18.339
21
61.135
62
0
0
LINE
8
1
10
-18.339
20
61.135
11
-18.544
21
61.288
62
0
0
LINE
8
1
10
-18.544
20
61.288
11
-18.726
21
61.466
62
0
0
LINE
8
1
10
-18.726
20
61.466
11
-18.885
21
61.666
62
0
0
LINE
8
1
10
-18.885
20
61.666
11
-19.016
21
61.885
62
0
0
LINE
8
1
10
-19.016
20
61.885
11
-19.118
21
62.118
62
0
0
LINE
8
1
10
-19.118
20
62.118
11
-19.19
21
62.364
62
0
0
LINE
8
1
10
-19.19
20
62.364
11
-19.205
21
62.424
62
0
0
LINE
8
1
10
-19.205
20
62.424
11
-19.221
21
62.483
62
0
0
LINE
8
1
10
-19.221
20
62.483
11
-19.326
21
62.764
62
0
0
LINE
8
1
10
-19.326
20
62.764
11
-19.448
21
62.99
62
0
0
LINE
8
1
10
-19.448
20
62.99
11
-19.592
21
63.192
62
0
0
LINE
8
1
10
-19.592
20
63.192
11
-19.76
21
63.374
62
0
0
LINE
8
1
10
-19.76
20
63.374
11
-21.389
21
64.61
62
0
0
LINE
8
1
10
-21.389
20
64.61
11
-21.557
21
64.723
62
0
0
LINE
8
1
10
-21.557
20
64.723
11
-21.729
21
64.814
62
0
0
LINE
8
1
10
-21.729
20
64.814
11
-21.736
21
64.818
62
0
0
LINE
8
1
10
-21.736
20
64.818
11
-22.142
21
64.958
62
0
0
LINE
8
1
10
-79.821
20
48.49
11
-79.821
21
56.509
62
0
0
LINE
8
1
10
-79.821
20
56.509
11
-146.269
21
63.989
62
0
0
LINE
8
1
10
-146.269
20
63.989
11
-176.992
21
63.776
62
0
0
LINE
8
1
10
-176.992
20
63.776
11
-183.304
21
62.753
62
0
0
LINE
8
1
10
-183.304
20
62.753
11
-211.353
21
56.283
62
0
0
LINE
8
1
10
-211.353
20
56.283
11
-211.768
21
56.111
62
0
0
LINE
8
1
10
-211.768
20
56.111
11
-212.161
21
55.893
62
0
0
LINE
8
1
10
-212.161
20
55.893
11
-212.527
21
55.633
62
0
0
LINE
8
1
10
-212.527
20
55.633
11
-212.862
21
55.333
62
0
0
LINE
8
1
10
-212.862
20
55.333
11
-213.161
21
54.998
62
0
0
LINE
8
1
10
-213.161
20
54.998
11
-213.42
21
54.631
62
0
0
LINE
8
1
10
-213.42
20
54.631
11
-213.638
21
54.238
62
0
0
LINE
8
1
10
-213.638
20
54.238
11
-213.809
21
53.823
62
0
0
LINE
8
1
10
-213.809
20
53.823
11
-213.934
21
53.391
62
0
0
LINE
8
1
10
-213.934
20
53.391
11
-214.009
21
52.948
62
0
0
LINE
8
1
10
-214.009
20
52.948
11
-214.034
21
52.5
62
0
0
LINE
8
1
10
-214.034
20
52.5
11
-214.009
21
52.052
62
0
0
LINE
8
1
10
-214.009
20
52.052
11
-213.934
21
51.609
62
0
0
LINE
8
1
10
-213.934
20
51.609
11
-213.809
21
51.177
62
0
0
LINE
8
1
10
-213.809
20
51.177
11
-213.638
21
50.762
62
0
0
LINE
8
1
10
-213.638
20
50.762
11
-213.42
21
50.369
62
0
0
LINE
8
1
10
-213.42
20
50.369
11
-213.161
21
50.002
62
0
0
LINE
8
1
10
-213.161
20
50.002
11
-212.862
21
49.667
62
0
0
LINE
8
1
10
-212.862
20
49.667
11
-212.527
21
49.367
62
0
0
LINE
8
1
10
-212.527
20
49.367
11
-212.161
21
49.107
62
0
0
LINE
8
1
10
-212.161
20
49.107
11
-211.768
21
48.889
62
0
0
LINE
8
1
10
-211.768
20
48.889
11
-211.353
21
48.717
62
0
0
LINE
8
1
10
-211.353
20
48.717
11
-181.78
21
41.924
62
0
0
LINE
8
1
10
-181.78
20
41.924
11
-176.993
21
41.224
62
0
0
LINE
8
1
10
-176.993
20
41.224
11
-146.27
21
41.011
62
0
0
LINE
8
1
10
-146.27
20
41.011
11
-79.821
21
48.49
62
0
0
CIRCLE
8
1
10
17.714
20
61.998
40
1.88994
62
0
0
CIRCLE
8
1
10
23.714
20
61.998
40
1.88994
62
0
0
CIRCLE
8
1
10
29.714
20
61.998
40
1.88994
62
0
0
CIRCLE
8
1
10
120.714
20
61.999
40
1.88989
62
0
0
CIRCLE
8
1
10
88.429
20
61.998
40
1.88997
62
0
0
CIRCLE
8
1
10
94.429
20
61.998
40
1.88997
62
0
0
CIRCLE
8
1
10
100.429
20
61.998
40
1.88997
62
0
0
CIRCLE
8
1
10
191.429
20
61.998
40
1.89
62
0
0
CIRCLE
8
1
10
-68.284
20
60.999
40
1.89001
62
0
0
CIRCLE
8
1
10
2.429
20
60.998
40
1.88997
62
0
0
CIRCLE
8
1
10
161.071
20
60.998
40
1.49046
62
0
0
CIRCLE
8
1
10
151.071
20
60.998
40
1.49046
62
0
0
CIRCLE
8
1
10
-27.927
20
59.998
40
1.49046
62
0
0
CIRCLE
8
1
10
-37.927
20
59.998
40
1.49046
62
0
0
CIRCLE
8
1
10
-169.83
20
58.499
40
1.89024
62
0
0
CIRCLE
8
1
10
64.071
20
56.998
40
1.49047
62
0
0
CIRCLE
8
1
10
54.071
20
56.998
40
1.49047
62
0
0
CIRCLE
8
1
10
23.714
20
55.998
40
1.88994
62
0
0
CIRCLE
8
1
10
114.714
20
55.998
40
1.88994
62
0
0
CIRCLE
8
1
10
120.714
20
55.998
40
1.88994
62
0
0
CIRCLE
8
1
10
126.714
20
55.998
40
1.88994
62
0
0
CIRCLE
8
1
10
94.429
20
55.999
40
1.89004
62
0
0
CIRCLE
8
1
10
185.429
20
55.998
40
1.89
62
0
0
CIRCLE
8
1
10
191.429
20
55.998
40
1.89
62
0
0
CIRCLE
8
1
10
197.429
20
55.998
40
1.89
62
0
0
CIRCLE
8
1
10
-74.284
20
54.998
40
1.89004
62
0
0
CIRCLE
8
1
10
-68.284
20
54.998
40
1.89004
62
0
0
CIRCLE
8
1
10
-62.284
20
54.998
40
1.89004
62
0
0
CIRCLE
8
1
10
-3.569
20
54.998
40
1.88987
62
0
0
CIRCLE
8
1
10
2.429
20
54.998
40
1.88998
62
0
0
CIRCLE
8
1
10
8.429
20
54.998
40
1.88998
62
0
0
CIRCLE
8
1
10
-109.379
20
52.5
40
2.03953
62
0
0
CIRCLE
8
1
10
-163.83
20
52.499
40
1.89024
62
0
0
CIRCLE
8
1
10
-169.83
20
52.499
40
1.89024
62
0
0
CIRCLE
8
1
10
-175.83
20
52.499
40
1.89024
62
0
0
LINE
8
1
10
-89.92
20
50.935
11
-89.92
21
54.065
62
0
0
LINE
8
1
10
-89.92
20
54.065
11
-82.841
21
54.065
62
0
0
LINE
8
1
10
-82.841
20
54.065
11
-82.841
21
50.935
62
0
0
LINE
8
1
10
-82.841
20
50.935
11
-89.92
21
50.935
62
0
0
LINE
8
1
10
-103.92
20
50.935
11
-103.92
21
54.065
62
0
0
LINE
8
1
10
-103.92
20
54.065
11
-96.841
21
54.065
62
0
0
LINE
8
1
10
-96.841
20
54.065
11
-96.841
21
50.935
62
0
0
LINE
8
1
10
-96.841
20
50.935
11
-103.92
21
50.935
62
0
0
LINE
8
1
10
-121.92
20
50.935
11
-121.92
21
54.065
62
0
0
LINE
8
1
10
-121.92
20
54.065
11
-114.841
21
54.065
62
0
0
LINE
8
1
10
-114.841
20
54.065
11
-114.841
21
50.935
62
0
0
LINE
8
1
10
-114.841
20
50.935
11
-121.92
21
50.935
62
0
0
CIRCLE
8
1
10
161.071
20
50.998
40
1.49047
62
0
0
CIRCLE
8
1
10
151.071
20
50.998
40
1.49047
62
0
0
CIRCLE
8
1
10
120.714
20
49.998
40
1.88994
62
0
0
CIRCLE
8
1
10
191.429
20
49.999
40
1.89008
62
0
0
CIRCLE
8
1
10
-27.927
20
49.998
40
1.49047
62
0
0
CIRCLE
8
1
10
-37.927
20
49.998
40
1.49047
62
0
0
LINE
8
1
10
78.857
20
50.958
11
78.634
21
50.996
62
0
0
LINE
8
1
10
78.634
20
50.996
11
57.736
21
51.009
62
0
0
LINE
8
1
10
57.736
20
51.009
11
57.51
21
50.996
62
0
0
LINE
8
1
10
57.51
20
50.996
11
57.287
21
50.958
62
0
0
LINE
8
1
10
57.287
20
50.958
11
57.063
21
50.892
62
0
0
LINE
8
1
10
57.063
20
50.892
11
56.708
21
50.727
62
0
0
LINE
8
1
10
56.708
20
50.727
11
55.094
21
49.535
62
0
0
LINE
8
1
10
55.094
20
49.535
11
54.905
21
49.374
62
0
0
LINE
8
1
10
54.905
20
49.374
11
54.737
21
49.192
62
0
0
LINE
8
1
10
54.737
20
49.192
11
54.594
21
48.99
62
0
0
LINE
8
1
10
54.594
20
48.99
11
54.475
21
48.772
62
0
0
LINE
8
1
10
54.475
20
48.772
11
54.384
21
48.541
62
0
0
LINE
8
1
10
54.384
20
48.541
11
54.366
21
48.482
62
0
0
LINE
8
1
10
54.366
20
48.482
11
54.35
21
48.422
62
0
0
LINE
8
1
10
54.35
20
48.422
11
54.263
21
48.118
62
0
0
LINE
8
1
10
54.263
20
48.118
11
54.161
21
47.885
62
0
0
LINE
8
1
10
54.161
20
47.885
11
54.029
21
47.665
62
0
0
LINE
8
1
10
54.029
20
47.665
11
53.87
21
47.465
62
0
0
LINE
8
1
10
53.87
20
47.465
11
53.688
21
47.287
62
0
0
LINE
8
1
10
53.688
20
47.287
11
53.484
21
47.135
62
0
0
LINE
8
1
10
53.484
20
47.135
11
53.263
21
47.009
62
0
0
LINE
8
1
10
53.263
20
47.009
11
53.004
21
47.026
62
0
0
LINE
8
1
10
53.004
20
47.026
11
52.747
21
47.078
62
0
0
LINE
8
1
10
52.747
20
47.078
11
52.498
21
47.163
62
0
0
LINE
8
1
10
52.498
20
47.163
11
52.265
21
47.279
62
0
0
LINE
8
1
10
52.265
20
47.279
11
52.047
21
47.426
62
0
0
LINE
8
1
10
52.047
20
47.426
11
51.851
21
47.6
62
0
0
LINE
8
1
10
51.851
20
47.6
11
51.68
21
47.797
62
0
0
LINE
8
1
10
51.68
20
47.797
11
51.536
21
48.016
62
0
0
LINE
8
1
10
51.536
20
48.016
11
51.421
21
48.252
62
0
0
LINE
8
1
10
51.421
20
48.252
11
51.254
21
48.757
62
0
0
LINE
8
1
10
51.254
20
48.757
11
51.135
21
49.002
62
0
0
LINE
8
1
10
51.135
20
49.002
11
50.983
21
49.227
62
0
0
LINE
8
1
10
50.983
20
49.227
11
50.802
21
49.43
62
0
0
LINE
8
1
10
50.802
20
49.43
11
49.254
21
50.61
62
0
0
LINE
8
1
10
49.254
20
50.61
11
49.085
21
50.723
62
0
0
LINE
8
1
10
49.085
20
50.723
11
48.913
21
50.814
62
0
0
LINE
8
1
10
48.913
20
50.814
11
48.906
21
50.818
62
0
0
LINE
8
1
10
48.906
20
50.818
11
48.501
21
50.958
62
0
0
LINE
8
1
10
48.501
20
50.958
11
48.277
21
50.996
62
0
0
LINE
8
1
10
48.277
20
50.996
11
32.133
21
50.992
62
0
0
LINE
8
1
10
32.133
20
50.992
11
31.509
21
50.936
62
0
0
LINE
8
1
10
31.509
20
50.936
11
30.32
21
50.718
62
0
0
LINE
8
1
10
30.32
20
50.718
11
29.166
21
50.358
62
0
0
LINE
8
1
10
29.166
20
50.358
11
28.064
21
49.863
62
0
0
LINE
8
1
10
28.064
20
49.863
11
27.03
21
49.237
62
0
0
LINE
8
1
10
27.03
20
49.237
11
26.078
21
48.492
62
0
0
LINE
8
1
10
26.078
20
48.492
11
25.223
21
47.637
62
0
0
LINE
8
1
10
25.223
20
47.637
11
24.478
21
46.686
62
0
0
LINE
8
1
10
24.478
20
46.686
11
23.852
21
45.651
62
0
0
LINE
8
1
10
23.852
20
45.651
11
23.356
21
44.549
62
0
0
LINE
8
1
10
23.356
20
44.549
11
22.996
21
43.395
62
0
0
LINE
8
1
10
22.996
20
43.395
11
22.778
21
42.205
62
0
0
LINE
8
1
10
22.778
20
42.205
11
22.705
21
40.999
62
0
0
LINE
8
1
10
22.705
20
40.999
11
22.778
21
39.793
62
0
0
LINE
8
1
10
22.778
20
39.793
11
22.996
21
38.604
62
0
0
LINE
8
1
10
22.996
20
38.604
11
23.356
21
37.45
62
0
0
LINE
8
1
10
23.356
20
37.45
11
23.852
21
36.348
62
0
0
LINE
8
1
10
23.852
20
36.348
11
24.478
21
35.313
62
0
0
LINE
8
1
10
24.478
20
35.313
11
25.222
21
34.362
62
0
0
LINE
8
1
10
25.222
20
34.362
11
26.077
21
33.507
62
0
0
LINE
8
1
10
26.077
20
33.507
11
27.029
21
32.761
62
0
0
LINE
8
1
10
27.029
20
32.761
11
28.063
21
32.135
62
0
0
LINE
8
1
10
28.063
20
32.135
11
29.165
21
31.64
62
0
0
LINE
8
1
10
29.165
20
31.64
11
30.319
21
31.28
62
0
0
LINE
8
1
10
30.319
20
31.28
11
31.509
21
31.062
62
0
0
LINE
8
1
10
31.509
20
31.062
11
48.051
21
30.989
62
0
0
LINE
8
1
10
48.051
20
30.989
11
48.277
21
31.002
62
0
0
LINE
8
1
10
48.277
20
31.002
11
48.501
21
31.04
62
0
0
LINE
8
1
10
48.501
20
31.04
11
48.724
21
31.106
62
0
0
LINE
8
1
10
48.724
20
31.106
11
49.079
21
31.271
62
0
0
LINE
8
1
10
49.079
20
31.271
11
50.693
21
32.463
62
0
0
LINE
8
1
10
50.693
20
32.463
11
50.882
21
32.624
62
0
0
LINE
8
1
10
50.882
20
32.624
11
51.05
21
32.806
62
0
0
LINE
8
1
10
51.05
20
32.806
11
51.194
21
33.008
62
0
0
LINE
8
1
10
51.194
20
33.008
11
51.313
21
33.226
62
0
0
LINE
8
1
10
51.313
20
33.226
11
51.404
21
33.457
62
0
0
LINE
8
1
10
51.404
20
33.457
11
51.422
21
33.516
62
0
0
LINE
8
1
10
51.422
20
33.516
11
51.438
21
33.576
62
0
0
LINE
8
1
10
51.438
20
33.576
11
51.438
21
33.577
62
0
0
LINE
8
1
10
51.438
20
33.577
11
51.524
21
33.881
62
0
0
LINE
8
1
10
51.524
20
33.881
11
51.626
21
34.113
62
0
0
LINE
8
1
10
51.626
20
34.113
11
51.758
21
34.332
62
0
0
LINE
8
1
10
51.758
20
34.332
11
51.916
21
34.532
62
0
0
LINE
8
1
10
51.916
20
34.532
11
52.099
21
34.71
62
0
0
LINE
8
1
10
52.099
20
34.71
11
52.303
21
34.863
62
0
0
LINE
8
1
10
52.303
20
34.863
11
52.524
21
34.989
62
0
0
LINE
8
1
10
52.524
20
34.989
11
52.783
21
34.972
62
0
0
LINE
8
1
10
52.783
20
34.972
11
53.04
21
34.92
62
0
0
LINE
8
1
10
53.04
20
34.92
11
53.289
21
34.835
62
0
0
LINE
8
1
10
53.289
20
34.835
11
53.522
21
34.719
62
0
0
LINE
8
1
10
53.522
20
34.719
11
53.741
21
34.572
62
0
0
LINE
8
1
10
53.741
20
34.572
11
53.937
21
34.398
62
0
0
LINE
8
1
10
53.937
20
34.398
11
54.107
21
34.201
62
0
0
LINE
8
1
10
54.107
20
34.201
11
54.251
21
33.982
62
0
0
LINE
8
1
10
54.251
20
33.982
11
54.366
21
33.746
62
0
0
LINE
8
1
10
54.366
20
33.746
11
54.534
21
33.241
62
0
0
LINE
8
1
10
54.534
20
33.241
11
54.653
21
32.996
62
0
0
LINE
8
1
10
54.653
20
32.996
11
54.804
21
32.771
62
0
0
LINE
8
1
10
54.804
20
32.771
11
54.985
21
32.568
62
0
0
LINE
8
1
10
54.985
20
32.568
11
56.534
21
31.388
62
0
0
LINE
8
1
10
56.534
20
31.388
11
56.702
21
31.275
62
0
0
LINE
8
1
10
56.702
20
31.275
11
56.874
21
31.184
62
0
0
LINE
8
1
10
56.874
20
31.184
11
56.881
21
31.18
62
0
0
LINE
8
1
10
56.881
20
31.18
11
57.287
21
31.04
62
0
0
LINE
8
1
10
57.287
20
31.04
11
57.51
21
31.002
62
0
0
LINE
8
1
10
57.51
20
31.002
11
78.408
21
30.989
62
0
0
LINE
8
1
10
78.408
20
30.989
11
78.634
21
31.002
62
0
0
LINE
8
1
10
78.634
20
31.002
11
78.857
21
31.04
62
0
0
LINE
8
1
10
78.857
20
31.04
11
79.081
21
31.106
62
0
0
LINE
8
1
10
79.081
20
31.106
11
79.436
21
31.271
62
0
0
LINE
8
1
10
79.436
20
31.271
11
80.953
21
32.391
62
0
0
LINE
8
1
10
80.953
20
32.391
11
81.159
21
32.568
62
0
0
LINE
8
1
10
81.159
20
32.568
11
81.34
21
32.771
62
0
0
LINE
8
1
10
81.34
20
32.771
11
81.491
21
32.996
62
0
0
LINE
8
1
10
81.491
20
32.996
11
81.61
21
33.24
62
0
0
LINE
8
1
10
81.61
20
33.24
11
81.781
21
33.753
62
0
0
LINE
8
1
10
81.781
20
33.753
11
81.896
21
33.988
62
0
0
LINE
8
1
10
81.896
20
33.988
11
82.037
21
34.201
62
0
0
LINE
8
1
10
82.037
20
34.201
11
82.207
21
34.398
62
0
0
LINE
8
1
10
82.207
20
34.398
11
82.403
21
34.572
62
0
0
LINE
8
1
10
82.403
20
34.572
11
82.622
21
34.719
62
0
0
LINE
8
1
10
82.622
20
34.719
11
82.855
21
34.835
62
0
0
LINE
8
1
10
82.855
20
34.835
11
83.104
21
34.92
62
0
0
LINE
8
1
10
83.104
20
34.92
11
83.361
21
34.972
62
0
0
LINE
8
1
10
83.361
20
34.972
11
83.62
21
34.989
62
0
0
LINE
8
1
10
83.62
20
34.989
11
83.841
21
34.863
62
0
0
LINE
8
1
10
83.841
20
34.863
11
84.045
21
34.71
62
0
0
LINE
8
1
10
84.045
20
34.71
11
84.228
21
34.532
62
0
0
LINE
8
1
10
84.228
20
34.532
11
84.386
21
34.332
62
0
0
LINE
8
1
10
84.386
20
34.332
11
84.518
21
34.113
62
0
0
LINE
8
1
10
84.518
20
34.113
11
84.62
21
33.88
62
0
0
LINE
8
1
10
84.62
20
33.88
11
84.692
21
33.634
62
0
0
LINE
8
1
10
84.692
20
33.634
11
84.706
21
33.575
62
0
0
LINE
8
1
10
84.706
20
33.575
11
84.722
21
33.515
62
0
0
LINE
8
1
10
84.722
20
33.515
11
84.831
21
33.226
62
0
0
LINE
8
1
10
84.831
20
33.226
11
84.95
21
33.008
62
0
0
LINE
8
1
10
84.95
20
33.008
11
85.094
21
32.806
62
0
0
LINE
8
1
10
85.094
20
32.806
11
85.262
21
32.624
62
0
0
LINE
8
1
10
85.262
20
32.624
11
87.425
21
30.989
62
0
0
LINE
8
1
10
87.425
20
30.989
11
104.635
21
31.062
62
0
0
LINE
8
1
10
104.635
20
31.062
11
105.824
21
31.28
62
0
0
LINE
8
1
10
105.824
20
31.28
11
106.978
21
31.64
62
0
0
LINE
8
1
10
106.978
20
31.64
11
108.08
21
32.135
62
0
0
LINE
8
1
10
108.08
20
32.135
11
109.114
21
32.761
62
0
0
LINE
8
1
10
109.114
20
32.761
11
110.066
21
33.506
62
0
0
LINE
8
1
10
110.066
20
33.506
11
110.921
21
34.361
62
0
0
LINE
8
1
10
110.921
20
34.361
11
111.666
21
35.312
62
0
0
LINE
8
1
10
111.666
20
35.312
11
112.292
21
36.347
62
0
0
LINE
8
1
10
112.292
20
36.347
11
112.788
21
37.449
62
0
0
LINE
8
1
10
112.788
20
37.449
11
113.148
21
38.603
62
0
0
LINE
8
1
10
113.148
20
38.603
11
113.366
21
39.793
62
0
0
LINE
8
1
10
113.366
20
39.793
11
113.439
21
40.999
62
0
0
LINE
8
1
10
113.439
20
40.999
11
113.366
21
42.205
62
0
0
LINE
8
1
10
113.366
20
42.205
11
113.148
21
43.394
62
0
0
LINE
8
1
10
113.148
20
43.394
11
112.788
21
44.548
62
0
0
LINE
8
1
10
112.788
20
44.548
11
112.292
21
45.65
62
0
0
LINE
8
1
10
112.292
20
45.65
11
111.666
21
46.685
62
0
0
LINE
8
1
10
111.666
20
46.685
11
110.922
21
47.636
62
0
0
LINE
8
1
10
110.922
20
47.636
11
110.067
21
48.491
62
0
0
LINE
8
1
10
110.067
20
48.491
11
109.115
21
49.237
62
0
0
LINE
8
1
10
109.115
20
49.237
11
108.081
21
49.863
62
0
0
LINE
8
1
10
108.081
20
49.863
11
106.979
21
50.358
62
0
0
LINE
8
1
10
106.979
20
50.358
11
105.825
21
50.718
62
0
0
LINE
8
1
10
105.825
20
50.718
11
104.636
21
50.936
62
0
0
LINE
8
1
10
104.636
20
50.936
11
87.426
21
51.009
62
0
0
LINE
8
1
10
87.426
20
51.009
11
85.342
21
49.43
62
0
0
LINE
8
1
10
85.342
20
49.43
11
85.161
21
49.227
62
0
0
LINE
8
1
10
85.161
20
49.227
11
85.009
21
49.002
62
0
0
LINE
8
1
10
85.009
20
49.002
11
84.89
21
48.758
62
0
0
LINE
8
1
10
84.89
20
48.758
11
84.72
21
48.244
62
0
0
LINE
8
1
10
84.72
20
48.244
11
84.604
21
48.008
62
0
0
LINE
8
1
10
84.604
20
48.008
11
84.464
21
47.797
62
0
0
LINE
8
1
10
84.464
20
47.797
11
84.291
21
47.598
62
0
0
LINE
8
1
10
84.291
20
47.598
11
84.096
21
47.425
62
0
0
LINE
8
1
10
84.096
20
47.425
11
83.879
21
47.279
62
0
0
LINE
8
1
10
83.879
20
47.279
11
83.646
21
47.163
62
0
0
LINE
8
1
10
83.646
20
47.163
11
83.397
21
47.078
62
0
0
LINE
8
1
10
83.397
20
47.078
11
83.14
21
47.026
62
0
0
LINE
8
1
10
83.14
20
47.026
11
82.881
21
47.009
62
0
0
LINE
8
1
10
82.881
20
47.009
11
82.66
21
47.135
62
0
0
LINE
8
1
10
82.66
20
47.135
11
82.455
21
47.288
62
0
0
LINE
8
1
10
82.455
20
47.288
11
82.273
21
47.466
62
0
0
LINE
8
1
10
82.273
20
47.466
11
82.114
21
47.666
62
0
0
LINE
8
1
10
82.114
20
47.666
11
81.983
21
47.885
62
0
0
LINE
8
1
10
81.983
20
47.885
11
81.881
21
48.118
62
0
0
LINE
8
1
10
81.881
20
48.118
11
81.809
21
48.364
62
0
0
LINE
8
1
10
81.809
20
48.364
11
81.794
21
48.424
62
0
0
LINE
8
1
10
81.794
20
48.424
11
81.778
21
48.483
62
0
0
LINE
8
1
10
81.778
20
48.483
11
81.673
21
48.764
62
0
0
LINE
8
1
10
81.673
20
48.764
11
81.551
21
48.99
62
0
0
LINE
8
1
10
81.551
20
48.99
11
81.407
21
49.192
62
0
0
LINE
8
1
10
81.407
20
49.192
11
81.239
21
49.374
62
0
0
LINE
8
1
10
81.239
20
49.374
11
79.61
21
50.61
62
0
0
LINE
8
1
10
79.61
20
50.61
11
79.442
21
50.723
62
0
0
LINE
8
1
10
79.442
20
50.723
11
79.27
21
50.814
62
0
0
LINE
8
1
10
79.27
20
50.814
11
79.263
21
50.818
62
0
0
LINE
8
1
10
79.263
20
50.818
11
78.857
21
50.958
62
0
0
CIRCLE
8
1
10
-68.284
20
48.998
40
1.89004
62
0
0
CIRCLE
8
1
10
2.429
20
48.999
40
1.89004
62
0
0
CIRCLE
8
1
10
32.714
20
46.999
40
1.88989
62
0
0
CIRCLE
8
1
10
103.429
20
46.998
40
1.88997
62
0
0
CIRCLE
8
1
10
-169.83
20
46.499
40
1.89024
62
0
0
CIRCLE
8
1
10
73.071
20
45.998
40
1.49046
62
0
0
CIRCLE
8
1
10
63.071
20
45.998
40
1.49046
62
0
0
LINE
8
1
10
179.857
20
44.958
11
179.634
21
44.996
62
0
0
LINE
8
1
10
179.634
20
44.996
11
158.736
21
45.009
62
0
0
LINE
8
1
10
158.736
20
45.009
11
158.51
21
44.996
62
0
0
LINE
8
1
10
158.51
20
44.996
11
158.287
21
44.958
62
0
0
LINE
8
1
10
158.287
20
44.958
11
158.063
21
44.892
62
0
0
LINE
8
1
10
158.063
20
44.892
11
157.708
21
44.727
62
0
0
LINE
8
1
10
157.708
20
44.727
11
156.094
21
43.535
62
0
0
LINE
8
1
10
156.094
20
43.535
11
155.905
21
43.374
62
0
0
LINE
8
1
10
155.905
20
43.374
11
155.737
21
43.192
62
0
0
LINE
8
1
10
155.737
20
43.192
11
155.594
21
42.99
62
0
0
LINE
8
1
10
155.594
20
42.99
11
155.475
21
42.772
62
0
0
LINE
8
1
10
155.475
20
42.772
11
155.384
21
42.541
62
0
0
LINE
8
1
10
155.384
20
42.541
11
155.366
21
42.482
62
0
0
LINE
8
1
10
155.366
20
42.482
11
155.35
21
42.422
62
0
0
LINE
8
1
10
155.35
20
42.422
11
155.263
21
42.118
62
0
0
LINE
8
1
10
155.263
20
42.118
11
155.161
21
41.885
62
0
0
LINE
8
1
10
155.161
20
41.885
11
155.029
21
41.665
62
0
0
LINE
8
1
10
155.029
20
41.665
11
154.87
21
41.465
62
0
0
LINE
8
1
10
154.87
20
41.465
11
154.688
21
41.287
62
0
0
LINE
8
1
10
154.688
20
41.287
11
154.484
21
41.135
62
0
0
LINE
8
1
10
154.484
20
41.135
11
154.263
21
41.009
62
0
0
LINE
8
1
10
154.263
20
41.009
11
154.004
21
41.026
62
0
0
LINE
8
1
10
154.004
20
41.026
11
153.747
21
41.078
62
0
0
LINE
8
1
10
153.747
20
41.078
11
153.498
21
41.163
62
0
0
LINE
8
1
10
153.498
20
41.163
11
153.265
21
41.279
62
0
0
LINE
8
1
10
153.265
20
41.279
11
153.047
21
41.426
62
0
0
LINE
8
1
10
153.047
20
41.426
11
152.851
21
41.6
62
0
0
LINE
8
1
10
152.851
20
41.6
11
152.68
21
41.797
62
0
0
LINE
8
1
10
152.68
20
41.797
11
152.536
21
42.016
62
0
0
LINE
8
1
10
152.536
20
42.016
11
152.421
21
42.252
62
0
0
LINE
8
1
10
152.421
20
42.252
11
152.254
21
42.757
62
0
0
LINE
8
1
10
152.254
20
42.757
11
152.135
21
43.002
62
0
0
LINE
8
1
10
152.135
20
43.002
11
151.983
21
43.227
62
0
0
LINE
8
1
10
151.983
20
43.227
11
151.802
21
43.43
62
0
0
LINE
8
1
10
151.802
20
43.43
11
150.254
21
44.61
62
0
0
LINE
8
1
10
150.254
20
44.61
11
150.085
21
44.723
62
0
0
LINE
8
1
10
150.085
20
44.723
11
149.913
21
44.814
62
0
0
LINE
8
1
10
149.913
20
44.814
11
149.906
21
44.818
62
0
0
LINE
8
1
10
149.906
20
44.818
11
149.501
21
44.958
62
0
0
LINE
8
1
10
149.501
20
44.958
11
149.277
21
44.996
62
0
0
LINE
8
1
10
149.277
20
44.996
11
133.133
21
44.992
62
0
0
LINE
8
1
10
133.133
20
44.992
11
132.509
21
44.936
62
0
0
LINE
8
1
10
132.509
20
44.936
11
131.32
21
44.718
62
0
0
LINE
8
1
10
131.32
20
44.718
11
130.166
21
44.358
62
0
0
LINE
8
1
10
130.166
20
44.358
11
129.064
21
43.863
62
0
0
LINE
8
1
10
129.064
20
43.863
11
128.03
21
43.237
62
0
0
LINE
8
1
10
128.03
20
43.237
11
127.078
21
42.492
62
0
0
LINE
8
1
10
127.078
20
42.492
11
126.223
21
41.637
62
0
0
LINE
8
1
10
126.223
20
41.637
11
125.478
21
40.686
62
0
0
LINE
8
1
10
125.478
20
40.686
11
124.852
21
39.651
62
0
0
LINE
8
1
10
124.852
20
39.651
11
124.356
21
38.549
62
0
0
LINE
8
1
10
124.356
20
38.549
11
123.996
21
37.395
62
0
0
LINE
8
1
10
123.996
20
37.395
11
123.778
21
36.205
62
0
0
LINE
8
1
10
123.778
20
36.205
11
123.705
21
34.999
62
0
0
LINE
8
1
10
123.705
20
34.999
11
123.778
21
33.793
62
0
0
LINE
8
1
10
123.778
20
33.793
11
123.996
21
32.604
62
0
0
LINE
8
1
10
123.996
20
32.604
11
124.356
21
31.45
62
0
0
LINE
8
1
10
124.356
20
31.45
11
124.852
21
30.348
62
0
0
LINE
8
1
10
124.852
20
30.348
11
125.478
21
29.313
62
0
0
LINE
8
1
10
125.478
20
29.313
11
126.222
21
28.362
62
0
0
LINE
8
1
10
126.222
20
28.362
11
127.077
21
27.507
62
0
0
LINE
8
1
10
127.077
20
27.507
11
128.029
21
26.761
62
0
0
LINE
8
1
10
128.029
20
26.761
11
129.063
21
26.135
62
0
0
LINE
8
1
10
129.063
20
26.135
11
130.165
21
25.64
62
0
0
LINE
8
1
10
130.165
20
25.64
11
131.319
21
25.28
62
0
0
LINE
8
1
10
131.319
20
25.28
11
132.509
21
25.062
62
0
0
LINE
8
1
10
132.509
20
25.062
11
149.051
21
24.989
62
0
0
LINE
8
1
10
149.051
20
24.989
11
149.277
21
25.002
62
0
0
LINE
8
1
10
149.277
20
25.002
11
149.501
21
25.04
62
0
0
LINE
8
1
10
149.501
20
25.04
11
149.724
21
25.106
62
0
0
LINE
8
1
10
149.724
20
25.106
11
150.079
21
25.271
62
0
0
LINE
8
1
10
150.079
20
25.271
11
151.693
21
26.463
62
0
0
LINE
8
1
10
151.693
20
26.463
11
151.882
21
26.624
62
0
0
LINE
8
1
10
151.882
20
26.624
11
152.05
21
26.806
62
0
0
LINE
8
1
10
152.05
20
26.806
11
152.194
21
27.008
62
0
0
LINE
8
1
10
152.194
20
27.008
11
152.313
21
27.226
62
0
0
LINE
8
1
10
152.313
20
27.226
11
152.404
21
27.457
62
0
0
LINE
8
1
10
152.404
20
27.457
11
152.422
21
27.516
62
0
0
LINE
8
1
10
152.422
20
27.516
11
152.438
21
27.576
62
0
0
LINE
8
1
10
152.438
20
27.576
11
152.438
21
27.577
62
0
0
LINE
8
1
10
152.438
20
27.577
11
152.524
21
27.881
62
0
0
LINE
8
1
10
152.524
20
27.881
11
152.626
21
28.113
62
0
0
LINE
8
1
10
152.626
20
28.113
11
152.758
21
28.332
62
0
0
LINE
8
1
10
152.758
20
28.332
11
152.916
21
28.532
62
0
0
LINE
8
1
10
152.916
20
28.532
11
153.099
21
28.71
62
0
0
LINE
8
1
10
153.099
20
28.71
11
153.303
21
28.863
62
0
0
LINE
8
1
10
153.303
20
28.863
11
153.524
21
28.989
62
0
0
LINE
8
1
10
153.524
20
28.989
11
153.783
21
28.972
62
0
0
LINE
8
1
10
153.783
20
28.972
11
154.04
21
28.92
62
0
0
LINE
8
1
10
154.04
20
28.92
11
154.289
21
28.835
62
0
0
LINE
8
1
10
154.289
20
28.835
11
154.522
21
28.719
62
0
0
LINE
8
1
10
154.522
20
28.719
11
154.741
21
28.572
62
0
0
LINE
8
1
10
154.741
20
28.572
11
154.937
21
28.398
62
0
0
LINE
8
1
10
154.937
20
28.398
11
155.107
21
28.201
62
0
0
LINE
8
1
10
155.107
20
28.201
11
155.251
21
27.982
62
0
0
LINE
8
1
10
155.251
20
27.982
11
155.366
21
27.746
62
0
0
LINE
8
1
10
155.366
20
27.746
11
155.534
21
27.241
62
0
0
LINE
8
1
10
155.534
20
27.241
11
155.653
21
26.996
62
0
0
LINE
8
1
10
155.653
20
26.996
11
155.804
21
26.771
62
0
0
LINE
8
1
10
155.804
20
26.771
11
155.985
21
26.568
62
0
0
LINE
8
1
10
155.985
20
26.568
11
157.534
21
25.388
62
0
0
LINE
8
1
10
157.534
20
25.388
11
157.702
21
25.275
62
0
0
LINE
8
1
10
157.702
20
25.275
11
157.874
21
25.184
62
0
0
LINE
8
1
10
157.874
20
25.184
11
157.881
21
25.18
62
0
0
LINE
8
1
10
157.881
20
25.18
11
158.287
21
25.04
62
0
0
LINE
8
1
10
158.287
20
25.04
11
158.51
21
25.002
62
0
0
LINE
8
1
10
158.51
20
25.002
11
179.408
21
24.989
62
0
0
LINE
8
1
10
179.408
20
24.989
11
179.634
21
25.002
62
0
0
LINE
8
1
10
179.634
20
25.002
11
179.857
21
25.04
62
0
0
LINE
8
1
10
179.857
20
25.04
11
180.081
21
25.106
62
0
0
LINE
8
1
10
180.081
20
25.106
11
180.436
21
25.271
62
0
0
LINE
8
1
10
180.436
20
25.271
11
181.953
21
26.391
62
0
0
LINE
8
1
10
181.953
20
26.391
11
182.159
21
26.568
62
0
0
LINE
8
1
10
182.159
20
26.568
11
182.34
21
26.771
62
0
0
LINE
8
1
10
182.34
20
26.771
11
182.491
21
26.996
62
0
0
LINE
8
1
10
182.491
20
26.996
11
182.61
21
27.24
62
0
0
LINE
8
1
10
182.61
20
27.24
11
182.781
21
27.753
62
0
0
LINE
8
1
10
182.781
20
27.753
11
182.896
21
27.988
62
0
0
LINE
8
1
10
182.896
20
27.988
11
183.037
21
28.201
62
0
0
LINE
8
1
10
183.037
20
28.201
11
183.207
21
28.398
62
0
0
LINE
8
1
10
183.207
20
28.398
11
183.403
21
28.572
62
0
0
LINE
8
1
10
183.403
20
28.572
11
183.622
21
28.719
62
0
0
LINE
8
1
10
183.622
20
28.719
11
183.855
21
28.835
62
0
0
LINE
8
1
10
183.855
20
28.835
11
184.104
21
28.92
62
0
0
LINE
8
1
10
184.104
20
28.92
11
184.361
21
28.972
62
0
0
LINE
8
1
10
184.361
20
28.972
11
184.62
21
28.989
62
0
0
LINE
8
1
10
184.62
20
28.989
11
184.841
21
28.863
62
0
0
LINE
8
1
10
184.841
20
28.863
11
185.045
21
28.71
62
0
0
LINE
8
1
10
185.045
20
28.71
11
185.228
21
28.532
62
0
0
LINE
8
1
10
185.228
20
28.532
11
185.386
21
28.332
62
0
0
LINE
8
1
10
185.386
20
28.332
11
185.518
21
28.113
62
0
0
LINE
8
1
10
185.518
20
28.113
11
185.62
21
27.88
62
0
0
LINE
8
1
10
185.62
20
27.88
11
185.692
21
27.634
62
0
0
LINE
8
1
10
185.692
20
27.634
11
185.706
21
27.575
62
0
0
LINE
8
1
10
185.706
20
27.575
11
185.722
21
27.515
62
0
0
LINE
8
1
10
185.722
20
27.515
11
185.831
21
27.226
62
0
0
LINE
8
1
10
185.831
20
27.226
11
185.95
21
27.008
62
0
0
LINE
8
1
10
185.95
20
27.008
11
186.094
21
26.806
62
0
0
LINE
8
1
10
186.094
20
26.806
11
186.262
21
26.624
62
0
0
LINE
8
1
10
186.262
20
26.624
11
188.425
21
24.989
62
0
0
LINE
8
1
10
188.425
20
24.989
11
205.635
21
25.062
62
0
0
LINE
8
1
10
205.635
20
25.062
11
206.824
21
25.28
62
0
0
LINE
8
1
10
206.824
20
25.28
11
207.978
21
25.64
62
0
0
LINE
8
1
10
207.978
20
25.64
11
209.08
21
26.135
62
0
0
LINE
8
1
10
209.08
20
26.135
11
210.114
21
26.761
62
0
0
LINE
8
1
10
210.114
20
26.761
11
211.066
21
27.506
62
0
0
LINE
8
1
10
211.066
20
27.506
11
211.921
21
28.361
62
0
0
LINE
8
1
10
211.921
20
28.361
11
212.666
21
29.312
62
0
0
LINE
8
1
10
212.666
20
29.312
11
213.292
21
30.347
62
0
0
LINE
8
1
10
213.292
20
30.347
11
213.788
21
31.449
62
0
0
LINE
8
1
10
213.788
20
31.449
11
214.148
21
32.603
62
0
0
LINE
8
1
10
214.148
20
32.603
11
214.366
21
33.793
62
0
0
LINE
8
1
10
214.366
20
33.793
11
214.439
21
34.999
62
0
0
LINE
8
1
10
214.439
20
34.999
11
214.366
21
36.205
62
0
0
LINE
8
1
10
214.366
20
36.205
11
214.148
21
37.394
62
0
0
LINE
8
1
10
214.148
20
37.394
11
213.788
21
38.548
62
0
0
LINE
8
1
10
213.788
20
38.548
11
213.292
21
39.65
62
0
0
LINE
8
1
10
213.292
20
39.65
11
212.666
21
40.685
62
0
0
LINE
8
1
10
212.666
20
40.685
11
211.922
21
41.636
62
0
0
LINE
8
1
10
211.922
20
41.636
11
211.067
21
42.491
62
0
0
LINE
8
1
10
211.067
20
42.491
11
210.115
21
43.237
62
0
0
LINE
8
1
10
210.115
20
43.237
11
209.081
21
43.863
62
0
0
LINE
8
1
10
209.081
20
43.863
11
207.979
21
44.358
62
0
0
LINE
8
1
10
207.979
20
44.358
11
206.825
21
44.718
62
0
0
LINE
8
1
10
206.825
20
44.718
11
205.636
21
44.936
62
0
0
LINE
8
1
10
205.636
20
44.936
11
188.426
21
45.009
62
0
0
LINE
8
1
10
188.426
20
45.009
11
186.342
21
43.43
62
0
0
LINE
8
1
10
186.342
20
43.43
11
186.161
21
43.227
62
0
0
LINE
8
1
10
186.161
20
43.227
11
186.009
21
43.002
62
0
0
LINE
8
1
10
186.009
20
43.002
11
185.89
21
42.758
62
0
0
LINE
8
1
10
185.89
20
42.758
11
185.72
21
42.244
62
0
0
LINE
8
1
10
185.72
20
42.244
11
185.604
21
42.008
62
0
0
LINE
8
1
10
185.604
20
42.008
11
185.464
21
41.797
62
0
0
LINE
8
1
10
185.464
20
41.797
11
185.291
21
41.598
62
0
0
LINE
8
1
10
185.291
20
41.598
11
185.096
21
41.425
62
0
0
LINE
8
1
10
185.096
20
41.425
11
184.879
21
41.279
62
0
0
LINE
8
1
10
184.879
20
41.279
11
184.646
21
41.163
62
0
0
LINE
8
1
10
184.646
20
41.163
11
184.397
21
41.078
62
0
0
LINE
8
1
10
184.397
20
41.078
11
184.14
21
41.026
62
0
0
LINE
8
1
10
184.14
20
41.026
11
183.881
21
41.009
62
0
0
LINE
8
1
10
183.881
20
41.009
11
183.66
21
41.135
62
0
0
LINE
8
1
10
183.66
20
41.135
11
183.455
21
41.288
62
0
0
LINE
8
1
10
183.455
20
41.288
11
183.273
21
41.466
62
0
0
LINE
8
1
10
183.273
20
41.466
11
183.114
21
41.666
62
0
0
LINE
8
1
10
183.114
20
41.666
11
182.983
21
41.885
62
0
0
LINE
8
1
10
182.983
20
41.885
11
182.881
21
42.118
62
0
0
LINE
8
1
10
182.881
20
42.118
11
182.809
21
42.364
62
0
0
LINE
8
1
10
182.809
20
42.364
11
182.794
21
42.424
62
0
0
LINE
8
1
10
182.794
20
42.424
11
182.778
21
42.483
62
0
0
LINE
8
1
10
182.778
20
42.483
11
182.673
21
42.764
62
0
0
LINE
8
1
10
182.673
20
42.764
11
182.551
21
42.99
62
0
0
LINE
8
1
10
182.551
20
42.99
11
182.407
21
43.192
62
0
0
LINE
8
1
10
182.407
20
43.192
11
182.239
21
43.374
62
0
0
LINE
8
1
10
182.239
20
43.374
11
180.61
21
44.61
62
0
0
LINE
8
1
10
180.61
20
44.61
11
180.442
21
44.723
62
0
0
LINE
8
1
10
180.442
20
44.723
11
180.27
21
44.814
62
0
0
LINE
8
1
10
180.27
20
44.814
11
180.263
21
44.818
62
0
0
LINE
8
1
10
180.263
20
44.818
11
179.857
21
44.958
62
0
0
LINE
8
1
10
21.179
20
27.49
11
21.179
21
35.509
62
0
0
LINE
8
1
10
21.179
20
35.509
11
-45.269
21
42.989
62
0
0
LINE
8
1
10
-45.269
20
42.989
11
-75.992
21
42.776
62
0
0
LINE
8
1
10
-75.992
20
42.776
11
-82.304
21
41.753
62
0
0
LINE
8
1
10
-82.304
20
41.753
11
-110.353
21
35.283
62
0
0
LINE
8
1
10
-110.353
20
35.283
11
-110.768
21
35.111
62
0
0
LINE
8
1
10
-110.768
20
35.111
11
-111.161
21
34.893
62
0
0
LINE
8
1
10
-111.161
20
34.893
11
-111.527
21
34.633
62
0
0
LINE
8
1
10
-111.527
20
34.633
11
-111.862
21
34.333
62
0
0
LINE
8
1
10
-111.862
20
34.333
11
-112.161
21
33.998
62
0
0
LINE
8
1
10
-112.161
20
33.998
11
-112.42
21
33.631
62
0
0
LINE
8
1
10
-112.42
20
33.631
11
-112.638
21
33.238
62
0
0
LINE
8
1
10
-112.638
20
33.238
11
-112.809
21
32.823
62
0
0
LINE
8
1
10
-112.809
20
32.823
11
-112.934
21
32.391
62
0
0
LINE
8
1
10
-112.934
20
32.391
11
-113.009
21
31.948
62
0
0
LINE
8
1
10
-113.009
20
31.948
11
-113.034
21
31.5
62
0
0
LINE
8
1
10
-113.034
20
31.5
11
-113.009
21
31.052
62
0
0
LINE
8
1
10
-113.009
20
31.052
11
-112.934
21
30.609
62
0
0
LINE
8
1
10
-112.934
20
30.609
11
-112.809
21
30.177
62
0
0
LINE
8
1
10
-112.809
20
30.177
11
-112.638
21
29.762
62
0
0
LINE
8
1
10
-112.638
20
29.762
11
-112.42
21
29.369
62
0
0
LINE
8
1
10
-112.42
20
29.369
11
-112.161
21
29.002
62
0
0
LINE
8
1
10
-112.161
20
29.002
11
-111.862
21
28.667
62
0
0
LINE
8
1
10
-111.862
20
28.667
11
-111.527
21
28.367
62
0
0
LINE
8
1
10
-111.527
20
28.367
11
-111.161
21
28.107
62
0
0
LINE
8
1
10
-111.161
20
28.107
11
-110.768
21
27.889
62
0
0
LINE
8
1
10
-110.768
20
27.889
11
-110.353
21
27.717
62
0
0
LINE
8
1
10
-110.353
20
27.717
11
-80.78
21
20.924
62
0
0
LINE
8
1
10
-80.78
20
20.924
11
-75.993
21
20.224
62
0
0
LINE
8
1
10
-75.993
20
20.224
11
-45.27
21
20.011
62
0
0
LINE
8
1
10
-45.27
20
20.011
11
21.179
21
27.49
62
0
0
CIRCLE
8
1
10
26.714
20
40.998
40
1.88994
62
0
0
CIRCLE
8
1
10
32.714
20
40.998
40
1.88994
62
0
0
CIRCLE
8
1
10
38.714
20
40.998
40
1.88994
62
0
0
CIRCLE
8
1
10
133.714
20
40.999
40
1.88989
62
0
0
CIRCLE
8
1
10
97.429
20
40.998
40
1.88997
62
0
0
CIRCLE
8
1
10
103.429
20
40.998
40
1.88997
62
0
0
CIRCLE
8
1
10
109.429
20
40.998
40
1.88997
62
0
0
CIRCLE
8
1
10
204.429
20
40.998
40
1.89
62
0
0
CIRCLE
8
1
10
174.071
20
39.998
40
1.49046
62
0
0
CIRCLE
8
1
10
164.071
20
39.998
40
1.49046
62
0
0
LINE
8
1
10
-86.58
20
-55.066
11
-86.276
21
-55.443
62
0
0
LINE
8
1
10
-86.276
20
-55.443
11
-85.169
21
-57.656
62
0
0
LINE
8
1
10
-85.169
20
-57.656
11
-84.897
21
-58.008
62
0
0
LINE
8
1
10
-84.897
20
-58.008
11
-84.576
21
-58.317
62
0
0
LINE
8
1
10
-84.576
20
-58.317
11
-84.238
21
-58.56
62
0
0
LINE
8
1
10
-84.238
20
-58.56
11
-83.87
21
-58.753
62
0
0
LINE
8
1
10
-83.87
20
-58.753
11
-83.479
21
-58.895
62
0
0
LINE
8
1
10
-83.479
20
-58.895
11
-83.071
21
-58.981
62
0
0
LINE
8
1
10
-83.071
20
-58.981
11
-61.56
21
-59.009
62
0
0
LINE
8
1
10
-61.56
20
-59.009
11
-61.56
21
-13.989
62
0
0
LINE
8
1
10
-61.56
20
-13.989
11
-83.071
21
-14.018
62
0
0
LINE
8
1
10
-83.071
20
-14.018
11
-83.479
21
-14.104
62
0
0
LINE
8
1
10
-83.479
20
-14.104
11
-83.87
21
-14.246
62
0
0
LINE
8
1
10
-83.87
20
-14.246
11
-84.238
21
-14.439
62
0
0
LINE
8
1
10
-84.238
20
-14.439
11
-84.576
21
-14.682
62
0
0
LINE
8
1
10
-84.576
20
-14.682
11
-84.897
21
-14.991
62
0
0
LINE
8
1
10
-84.897
20
-14.991
11
-85.169
21
-15.343
62
0
0
LINE
8
1
10
-85.169
20
-15.343
11
-86.277
21
-17.557
62
0
0
LINE
8
1
10
-86.277
20
-17.557
11
-86.581
21
-17.934
62
0
0
LINE
8
1
10
-86.581
20
-17.934
11
-86.942
21
-18.258
62
0
0
LINE
8
1
10
-86.942
20
-18.258
11
-87.349
21
-18.517
62
0
0
LINE
8
1
10
-87.349
20
-18.517
11
-87.794
21
-18.708
62
0
0
LINE
8
1
10
-87.794
20
-18.708
11
-88.266
21
-18.826
62
0
0
LINE
8
1
10
-88.266
20
-18.826
11
-88.749
21
-18.865
62
0
0
LINE
8
1
10
-88.749
20
-18.865
11
-89.231
21
-18.826
62
0
0
LINE
8
1
10
-89.231
20
-18.826
11
-89.704
21
-18.708
62
0
0
LINE
8
1
10
-89.704
20
-18.708
11
-90.148
21
-18.517
62
0
0
LINE
8
1
10
-90.148
20
-18.517
11
-90.555
21
-18.258
62
0
0
LINE
8
1
10
-90.555
20
-18.258
11
-90.918
21
-17.933
62
0
0
LINE
8
1
10
-90.918
20
-17.933
11
-91.222
21
-17.556
62
0
0
LINE
8
1
10
-91.222
20
-17.556
11
-92.329
21
-15.342
62
0
0
LINE
8
1
10
-92.329
20
-15.342
11
-92.601
21
-14.99
62
0
0
LINE
8
1
10
-92.601
20
-14.99
11
-92.921
21
-14.681
62
0
0
LINE
8
1
10
-92.921
20
-14.681
11
-93.333
21
-14.394
62
0
0
LINE
8
1
10
-93.333
20
-14.394
11
-93.786
21
-14.18
62
0
0
LINE
8
1
10
-93.786
20
-14.18
11
-94.27
21
-14.043
62
0
0
LINE
8
1
10
-94.27
20
-14.043
11
-94.766
21
-13.989
62
0
0
LINE
8
1
10
-94.766
20
-13.989
11
-115.417
21
6.66
62
0
0
LINE
8
1
10
-115.417
20
6.66
11
-115.417
21
8.506
62
0
0
LINE
8
1
10
-115.417
20
8.506
11
-118.969
21
10.197
62
0
0
LINE
8
1
10
-118.969
20
10.197
11
-118.984
21
10.206
62
0
0
LINE
8
1
10
-118.984
20
10.206
11
-119.362
21
10.51
62
0
0
LINE
8
1
10
-119.362
20
10.51
11
-119.685
21
10.871
62
0
0
LINE
8
1
10
-119.685
20
10.871
11
-119.945
21
11.278
62
0
0
LINE
8
1
10
-119.945
20
11.278
11
-120.136
21
11.723
62
0
0
LINE
8
1
10
-120.136
20
11.723
11
-120.253
21
12.195
62
0
0
LINE
8
1
10
-120.253
20
12.195
11
-120.293
21
12.679
62
0
0
LINE
8
1
10
-120.293
20
12.679
11
-120.253
21
13.161
62
0
0
LINE
8
1
10
-120.253
20
13.161
11
-120.136
21
13.633
62
0
0
LINE
8
1
10
-120.136
20
13.633
11
-119.945
21
14.078
62
0
0
LINE
8
1
10
-119.945
20
14.078
11
-119.685
21
14.485
62
0
0
LINE
8
1
10
-119.685
20
14.485
11
-119.362
21
14.846
62
0
0
LINE
8
1
10
-119.362
20
14.846
11
-118.984
21
15.15
62
0
0
LINE
8
1
10
-118.984
20
15.15
11
-115.417
21
16.85
62
0
0
LINE
8
1
10
-115.417
20
16.85
11
-115.417
21
39.871
62
0
0
LINE
8
1
10
-115.417
20
39.871
11
-122.461
21
37.228
62
0
0
LINE
8
1
10
-122.461
20
37.228
11
-122.461
21
37.229
62
0
0
LINE
8
1
10
-122.461
20
37.229
11
-128.086
21
35.823
62
0
0
LINE
8
1
10
-128.086
20
35.823
11
-133.71
21
35.042
62
0
0
LINE
8
1
10
-133.71
20
35.042
11
-139.333
21
34.886
62
0
0
LINE
8
1
10
-139.333
20
34.886
11
-144.956
21
35.354
62
0
0
LINE
8
1
10
-144.956
20
35.354
11
-150.58
21
36.448
62
0
0
LINE
8
1
10
-150.58
20
36.448
11
-156.205
21
38.167
62
0
0
LINE
8
1
10
-156.205
20
38.167
11
-156.205
21
38.166
62
0
0
LINE
8
1
10
-156.205
20
38.166
11
-160.437
21
39.87
62
0
0
LINE
8
1
10
-160.437
20
39.87
11
-160.437
21
16.85
62
0
0
LINE
8
1
10
-160.437
20
16.85
11
-156.885
21
15.159
62
0
0
LINE
8
1
10
-156.885
20
15.159
11
-156.87
21
15.15
62
0
0
LINE
8
1
10
-156.87
20
15.15
11
-156.492
21
14.846
62
0
0
LINE
8
1
10
-156.492
20
14.846
11
-156.169
21
14.485
62
0
0
LINE
8
1
10
-156.169
20
14.485
11
-155.909
21
14.078
62
0
0
LINE
8
1
10
-155.909
20
14.078
11
-155.718
21
13.633
62
0
0
LINE
8
1
10
-155.718
20
13.633
11
-155.601
21
13.161
62
0
0
LINE
8
1
10
-155.601
20
13.161
11
-155.561
21
12.677
62
0
0
LINE
8
1
10
-155.561
20
12.677
11
-155.601
21
12.194
62
0
0
LINE
8
1
10
-155.601
20
12.194
11
-155.718
21
11.723
62
0
0
LINE
8
1
10
-155.718
20
11.723
11
-155.909
21
11.278
62
0
0
LINE
8
1
10
-155.909
20
11.278
11
-156.169
21
10.871
62
0
0
LINE
8
1
10
-156.169
20
10.871
11
-156.493
21
10.509
62
0
0
LINE
8
1
10
-156.493
20
10.509
11
-156.87
21
10.206
62
0
0
LINE
8
1
10
-156.87
20
10.206
11
-160.437
21
8.505
62
0
0
LINE
8
1
10
-160.437
20
8.505
11
-160.437
21
6.66
62
0
0
LINE
8
1
10
-160.437
20
6.66
11
-181.088
21
-13.99
62
0
0
LINE
8
1
10
-181.088
20
-13.99
11
-182.933
21
-13.99
62
0
0
LINE
8
1
10
-182.933
20
-13.99
11
-184.624
21
-17.542
62
0
0
LINE
8
1
10
-184.624
20
-17.542
11
-184.633
21
-17.557
62
0
0
LINE
8
1
10
-184.633
20
-17.557
11
-184.937
21
-17.934
62
0
0
LINE
8
1
10
-184.937
20
-17.934
11
-185.299
21
-18.258
62
0
0
LINE
8
1
10
-185.299
20
-18.258
11
-185.706
21
-18.517
62
0
0
LINE
8
1
10
-185.706
20
-18.517
11
-186.15
21
-18.708
62
0
0
LINE
8
1
10
-186.15
20
-18.708
11
-186.623
21
-18.826
62
0
0
LINE
8
1
10
-186.623
20
-18.826
11
-187.105
21
-18.865
62
0
0
LINE
8
1
10
-187.105
20
-18.865
11
-187.588
21
-18.826
62
0
0
LINE
8
1
10
-187.588
20
-18.826
11
-188.06
21
-18.708
62
0
0
LINE
8
1
10
-188.06
20
-18.708
11
-188.505
21
-18.517
62
0
0
LINE
8
1
10
-188.505
20
-18.517
11
-188.912
21
-18.258
62
0
0
LINE
8
1
10
-188.912
20
-18.258
11
-189.274
21
-17.933
62
0
0
LINE
8
1
10
-189.274
20
-17.933
11
-189.577
21
-17.557
62
0
0
LINE
8
1
10
-189.577
20
-17.557
11
-191.278
21
-13.99
62
0
0
LINE
8
1
10
-191.278
20
-13.99
11
-214.294
21
-13.99
62
0
0
LINE
8
1
10
-214.294
20
-13.99
11
-214.294
21
-59.01
62
0
0
LINE
8
1
10
-214.294
20
-59.01
11
-191.278
21
-59.01
62
0
0
LINE
8
1
10
-191.278
20
-59.01
11
-189.578
21
-55.443
62
0
0
LINE
8
1
10
-189.578
20
-55.443
11
-189.274
21
-55.066
62
0
0
LINE
8
1
10
-189.274
20
-55.066
11
-188.912
21
-54.741
62
0
0
LINE
8
1
10
-188.912
20
-54.741
11
-188.505
21
-54.482
62
0
0
LINE
8
1
10
-188.505
20
-54.482
11
-188.06
21
-54.291
62
0
0
LINE
8
1
10
-188.06
20
-54.291
11
-187.588
21
-54.173
62
0
0
LINE
8
1
10
-187.588
20
-54.173
11
-187.105
21
-54.134
62
0
0
LINE
8
1
10
-187.105
20
-54.134
11
-186.623
21
-54.173
62
0
0
LINE
8
1
10
-186.623
20
-54.173
11
-186.15
21
-54.291
62
0
0
LINE
8
1
10
-186.15
20
-54.291
11
-185.706
21
-54.482
62
0
0
LINE
8
1
10
-185.706
20
-54.482
11
-185.299
21
-54.741
62
0
0
LINE
8
1
10
-185.299
20
-54.741
11
-184.936
21
-55.066
62
0
0
LINE
8
1
10
-184.936
20
-55.066
11
-184.633
21
-55.442
62
0
0
LINE
8
1
10
-184.633
20
-55.442
11
-182.933
21
-59.01
62
0
0
LINE
8
1
10
-182.933
20
-59.01
11
-181.088
21
-59.01
62
0
0
LINE
8
1
10
-181.088
20
-59.01
11
-160.437
21
-79.66
62
0
0
LINE
8
1
10
-160.437
20
-79.66
11
-160.437
21
-81.506
62
0
0
LINE
8
1
10
-160.437
20
-81.506
11
-156.871
21
-83.205
62
0
0
LINE
8
1
10
-156.871
20
-83.205
11
-156.492
21
-83.51
62
0
0
LINE
8
1
10
-156.492
20
-83.51
11
-156.169
21
-83.871
62
0
0
LINE
8
1
10
-156.169
20
-83.871
11
-155.909
21
-84.278
62
0
0
LINE
8
1
10
-155.909
20
-84.278
11
-155.718
21
-84.723
62
0
0
LINE
8
1
10
-155.718
20
-84.723
11
-155.601
21
-85.195
62
0
0
LINE
8
1
10
-155.601
20
-85.195
11
-155.561
21
-85.679
62
0
0
LINE
8
1
10
-155.561
20
-85.679
11
-155.601
21
-86.162
62
0
0
LINE
8
1
10
-155.601
20
-86.162
11
-155.718
21
-86.633
62
0
0
LINE
8
1
10
-155.718
20
-86.633
11
-155.909
21
-87.078
62
0
0
LINE
8
1
10
-155.909
20
-87.078
11
-156.169
21
-87.485
62
0
0
LINE
8
1
10
-156.169
20
-87.485
11
-156.493
21
-87.847
62
0
0
LINE
8
1
10
-156.493
20
-87.847
11
-156.87
21
-88.15
62
0
0
LINE
8
1
10
-156.87
20
-88.15
11
-157.276
21
-88.381
62
0
0
LINE
8
1
10
-157.276
20
-88.381
11
-157.277
21
-88.381
62
0
0
LINE
8
1
10
-157.277
20
-88.381
11
-160.437
21
-89.85
62
0
0
LINE
8
1
10
-160.437
20
-89.85
11
-160.437
21
-112.866
62
0
0
LINE
8
1
10
-160.437
20
-112.866
11
-115.417
21
-112.866
62
0
0
LINE
8
1
10
-115.417
20
-112.866
11
-115.417
21
-89.85
62
0
0
LINE
8
1
10
-115.417
20
-89.85
11
-118.983
21
-88.151
62
0
0
LINE
8
1
10
-118.983
20
-88.151
11
-119.362
21
-87.846
62
0
0
LINE
8
1
10
-119.362
20
-87.846
11
-119.685
21
-87.485
62
0
0
LINE
8
1
10
-119.685
20
-87.485
11
-119.945
21
-87.078
62
0
0
LINE
8
1
10
-119.945
20
-87.078
11
-120.136
21
-86.633
62
0
0
LINE
8
1
10
-120.136
20
-86.633
11
-120.253
21
-86.161
62
0
0
LINE
8
1
10
-120.253
20
-86.161
11
-120.293
21
-85.677
62
0
0
LINE
8
1
10
-120.293
20
-85.677
11
-120.253
21
-85.195
62
0
0
LINE
8
1
10
-120.253
20
-85.195
11
-120.136
21
-84.723
62
0
0
LINE
8
1
10
-120.136
20
-84.723
11
-119.945
21
-84.278
62
0
0
LINE
8
1
10
-119.945
20
-84.278
11
-119.685
21
-83.871
62
0
0
LINE
8
1
10
-119.685
20
-83.871
11
-119.362
21
-83.51
62
0
0
LINE
8
1
10
-119.362
20
-83.51
11
-118.984
21
-83.206
62
0
0
LINE
8
1
10
-118.984
20
-83.206
11
-115.417
21
-81.506
62
0
0
LINE
8
1
10
-115.417
20
-81.506
11
-115.417
21
-79.66
62
0
0
LINE
8
1
10
-115.417
20
-79.66
11
-94.766
21
-59.009
62
0
0
LINE
8
1
10
-94.766
20
-59.009
11
-94.27
21
-58.956
62
0
0
LINE
8
1
10
-94.27
20
-58.956
11
-93.786
21
-58.819
62
0
0
LINE
8
1
10
-93.786
20
-58.819
11
-93.333
21
-58.605
62
0
0
LINE
8
1
10
-93.333
20
-58.605
11
-92.921
21
-58.318
62
0
0
LINE
8
1
10
-92.921
20
-58.318
11
-92.601
21
-58.009
62
0
0
LINE
8
1
10
-92.601
20
-58.009
11
-92.329
21
-57.657
62
0
0
LINE
8
1
10
-92.329
20
-57.657
11
-91.222
21
-55.443
62
0
0
LINE
8
1
10
-91.222
20
-55.443
11
-90.918
21
-55.066
62
0
0
LINE
8
1
10
-90.918
20
-55.066
11
-90.555
21
-54.741
62
0
0
LINE
8
1
10
-90.555
20
-54.741
11
-90.148
21
-54.482
62
0
0
LINE
8
1
10
-90.148
20
-54.482
11
-89.704
21
-54.291
62
0
0
LINE
8
1
10
-89.704
20
-54.291
11
-89.231
21
-54.173
62
0
0
LINE
8
1
10
-89.231
20
-54.173
11
-88.749
21
-54.134
62
0
0
LINE
8
1
10
-88.749
20
-54.134
11
-88.266
21
-54.173
62
0
0
LINE
8
1
10
-88.266
20
-54.173
11
-87.794
21
-54.291
62
0
0
LINE
8
1
10
-87.794
20
-54.291
11
-87.349
21
-54.482
62
0
0
LINE
8
1
10
-87.349
20
-54.482
11
-86.942
21
-54.741
62
0
0
LINE
8
1
10
-86.942
20
-54.741
11
-86.58
21
-55.066
62
0
0
CIRCLE
8
1
10
-68.83
20
37.499
40
1.89024
62
0
0
CIRCLE
8
1
10
73.071
20
35.998
40
1.49047
62
0
0
CIRCLE
8
1
10
63.071
20
35.998
40
1.49047
62
0
0
CIRCLE
8
1
10
32.714
20
34.998
40
1.88994
62
0
0
CIRCLE
8
1
10
127.714
20
34.998
40
1.88994
62
0
0
CIRCLE
8
1
10
133.714
20
34.998
40
1.88994
62
0
0
CIRCLE
8
1
10
139.714
20
34.998
40
1.88994
62
0
0
CIRCLE
8
1
10
103.429
20
34.999
40
1.89004
62
0
0
CIRCLE
8
1
10
198.429
20
34.998
40
1.89
62
0
0
CIRCLE
8
1
10
204.429
20
34.998
40
1.89
62
0
0
CIRCLE
8
1
10
210.429
20
34.998
40
1.89
62
0
0
CIRCLE
8
1
10
-8.379
20
31.5
40
2.03961
62
0
0
CIRCLE
8
1
10
-62.83
20
31.499
40
1.89027
62
0
0
CIRCLE
8
1
10
-68.83
20
31.499
40
1.89024
62
0
0
CIRCLE
8
1
10
-74.83
20
31.499
40
1.89024
62
0
0
LINE
8
1
10
11.079
20
29.935
11
11.079
21
33.065
62
0
0
LINE
8
1
10
11.079
20
33.065
11
18.159
21
33.065
62
0
0
LINE
8
1
10
18.159
20
33.065
11
18.159
21
29.935
62
0
0
LINE
8
1
10
18.159
20
29.935
11
11.079
21
29.935
62
0
0
LINE
8
1
10
-2.92
20
29.935
11
-2.92
21
33.065
62
0
0
LINE
8
1
10
-2.92
20
33.065
11
4.159
21
33.065
62
0
0
LINE
8
1
10
4.159
20
33.065
11
4.159
21
29.935
62
0
0
LINE
8
1
10
4.159
20
29.935
11
-2.92
21
29.935
62
0
0
LINE
8
1
10
-20.92
20
29.935
11
-20.92
21
33.065
62
0
0
LINE
8
1
10
-20.92
20
33.065
11
-13.841
21
33.065
62
0
0
LINE
8
1
10
-13.841
20
33.065
11
-13.841
21
29.935
62
0
0
LINE
8
1
10
-13.841
20
29.935
11
-20.92
21
29.935
62
0
0
CIRCLE
8
1
10
174.071
20
29.998
40
1.49047
62
0
0
CIRCLE
8
1
10
164.071
20
29.998
40
1.49047
62
0
0
CIRCLE
8
1
10
133.714
20
28.998
40
1.88994
62
0
0
CIRCLE
8
1
10
204.429
20
28.999
40
1.89008
62
0
0
LINE
8
1
10
98.637
20
7.223
11
104.949
21
8.246
62
0
0
LINE
8
1
10
104.949
20
8.246
11
132.998
21
14.716
62
0
0
LINE
8
1
10
132.998
20
14.716
11
133.413
21
14.888
62
0
0
LINE
8
1
10
133.413
20
14.888
11
133.806
21
15.106
62
0
0
LINE
8
1
10
133.806
20
15.106
11
134.172
21
15.366
62
0
0
LINE
8
1
10
134.172
20
15.366
11
134.507
21
15.666
62
0
0
LINE
8
1
10
134.507
20
15.666
11
134.806
21
16.001
62
0
0
LINE
8
1
10
134.806
20
16.001
11
135.065
21
16.368
62
0
0
LINE
8
1
10
135.065
20
16.368
11
135.283
21
16.761
62
0
0
LINE
8
1
10
135.283
20
16.761
11
135.454
21
17.176
62
0
0
LINE
8
1
10
135.454
20
17.176
11
135.579
21
17.608
62
0
0
LINE
8
1
10
135.579
20
17.608
11
135.654
21
18.051
62
0
0
LINE
8
1
10
135.654
20
18.051
11
135.679
21
18.499
62
0
0
LINE
8
1
10
135.679
20
18.499
11
135.654
21
18.947
62
0
0
LINE
8
1
10
135.654
20
18.947
11
135.579
21
19.39
62
0
0
LINE
8
1
10
135.579
20
19.39
11
135.454
21
19.822
62
0
0
LINE
8
1
10
135.454
20
19.822
11
135.283
21
20.237
62
0
0
LINE
8
1
10
135.283
20
20.237
11
135.065
21
20.63
62
0
0
LINE
8
1
10
135.065
20
20.63
11
134.806
21
20.997
62
0
0
LINE
8
1
10
134.806
20
20.997
11
134.507
21
21.332
62
0
0
LINE
8
1
10
134.507
20
21.332
11
134.172
21
21.632
62
0
0
LINE
8
1
10
134.172
20
21.632
11
133.806
21
21.892
62
0
0
LINE
8
1
10
133.806
20
21.892
11
133.413
21
22.11
62
0
0
LINE
8
1
10
133.413
20
22.11
11
132.998
21
22.282
62
0
0
LINE
8
1
10
132.998
20
22.282
11
103.425
21
29.075
62
0
0
LINE
8
1
10
103.425
20
29.075
11
98.638
21
29.775
62
0
0
LINE
8
1
10
98.638
20
29.775
11
67.915
21
29.988
62
0
0
LINE
8
1
10
67.915
20
29.988
11
1.465
21
22.509
62
0
0
LINE
8
1
10
1.465
20
22.509
11
1.466
21
14.49
62
0
0
LINE
8
1
10
1.466
20
14.49
11
67.914
21
7.01
62
0
0
LINE
8
1
10
67.914
20
7.01
11
98.637
21
7.223
62
0
0
CIRCLE
8
1
10
-68.83
20
25.499
40
1.89024
62
0
0
CIRCLE
8
1
10
91.475
20
24.499
40
1.89021
62
0
0
LINE
8
1
10
191.52
20
-112.581
11
191.963
21
-112.506
62
0
0
LINE
8
1
10
191.963
20
-112.506
11
192.394
21
-112.382
62
0
0
LINE
8
1
10
192.394
20
-112.382
11
192.809
21
-112.21
62
0
0
LINE
8
1
10
192.809
20
-112.21
11
193.203
21
-111.993
62
0
0
LINE
8
1
10
193.203
20
-111.993
11
193.569
21
-111.734
62
0
0
LINE
8
1
10
193.569
20
-111.734
11
193.905
21
-111.434
62
0
0
LINE
8
1
10
193.905
20
-111.434
11
194.204
21
-111.099
62
0
0
LINE
8
1
10
194.204
20
-111.099
11
194.464
21
-110.733
62
0
0
LINE
8
1
10
194.464
20
-110.733
11
194.682
21
-110.34
62
0
0
LINE
8
1
10
194.682
20
-110.34
11
194.854
21
-109.926
62
0
0
LINE
8
1
10
194.854
20
-109.926
11
201.648
21
-80.353
62
0
0
LINE
8
1
10
201.648
20
-80.353
11
202.348
21
-75.566
62
0
0
LINE
8
1
10
202.348
20
-75.566
11
202.561
21
-44.842
62
0
0
LINE
8
1
10
202.561
20
-44.842
11
195.081
21
21.606
62
0
0
LINE
8
1
10
195.081
20
21.606
11
187.062
21
21.606
62
0
0
LINE
8
1
10
187.062
20
21.606
11
179.582
21
-44.841
62
0
0
LINE
8
1
10
179.582
20
-44.841
11
179.795
21
-75.565
62
0
0
LINE
8
1
10
179.795
20
-75.565
11
180.819
21
-81.876
62
0
0
LINE
8
1
10
180.819
20
-81.876
11
187.289
21
-109.926
62
0
0
LINE
8
1
10
187.289
20
-109.926
11
187.461
21
-110.34
62
0
0
LINE
8
1
10
187.461
20
-110.34
11
187.679
21
-110.733
62
0
0
LINE
8
1
10
187.679
20
-110.733
11
187.939
21
-111.099
62
0
0
LINE
8
1
10
187.939
20
-111.099
11
188.238
21
-111.434
62
0
0
LINE
8
1
10
188.238
20
-111.434
11
188.574
21
-111.734
62
0
0
LINE
8
1
10
188.574
20
-111.734
11
188.94
21
-111.993
62
0
0
LINE
8
1
10
188.94
20
-111.993
11
189.334
21
-112.21
62
0
0
LINE
8
1
10
189.334
20
-112.21
11
189.749
21
-112.382
62
0
0
LINE
8
1
10
189.749
20
-112.382
11
190.18
21
-112.506
62
0
0
LINE
8
1
10
190.18
20
-112.506
11
190.623
21
-112.581
62
0
0
LINE
8
1
10
190.623
20
-112.581
11
191.072
21
-112.607
62
0
0
LINE
8
1
10
191.072
20
-112.607
11
191.52
21
-112.581
62
0
0
LINE
8
1
10
167.52
20
-112.581
11
167.963
21
-112.506
62
0
0
LINE
8
1
10
167.963
20
-112.506
11
168.394
21
-112.382
62
0
0
LINE
8
1
10
168.394
20
-112.382
11
168.809
21
-112.21
62
0
0
LINE
8
1
10
168.809
20
-112.21
11
169.203
21
-111.993
62
0
0
LINE
8
1
10
169.203
20
-111.993
11
169.569
21
-111.734
62
0
0
LINE
8
1
10
169.569
20
-111.734
11
169.905
21
-111.434
62
0
0
LINE
8
1
10
169.905
20
-111.434
11
170.204
21
-111.099
62
0
0
LINE
8
1
10
170.204
20
-111.099
11
170.464
21
-110.733
62
0
0
LINE
8
1
10
170.464
20
-110.733
11
170.682
21
-110.34
62
0
0
LINE
8
1
10
170.682
20
-110.34
11
170.854
21
-109.926
62
0
0
LINE
8
1
10
170.854
20
-109.926
11
177.648
21
-80.353
62
0
0
LINE
8
1
10
177.648
20
-80.353
11
178.348
21
-75.566
62
0
0
LINE
8
1
10
178.348
20
-75.566
11
178.561
21
-44.842
62
0
0
LINE
8
1
10
178.561
20
-44.842
11
171.081
21
21.606
62
0
0
LINE
8
1
10
171.081
20
21.606
11
163.062
21
21.606
62
0
0
LINE
8
1
10
163.062
20
21.606
11
155.582
21
-44.841
62
0
0
LINE
8
1
10
155.582
20
-44.841
11
155.795
21
-75.565
62
0
0
LINE
8
1
10
155.795
20
-75.565
11
156.819
21
-81.876
62
0
0
LINE
8
1
10
156.819
20
-81.876
11
163.289
21
-109.926
62
0
0
LINE
8
1
10
163.289
20
-109.926
11
163.461
21
-110.34
62
0
0
LINE
8
1
10
163.461
20
-110.34
11
163.679
21
-110.733
62
0
0
LINE
8
1
10
163.679
20
-110.733
11
163.939
21
-111.099
62
0
0
LINE
8
1
10
163.939
20
-111.099
11
164.238
21
-111.434
62
0
0
LINE
8
1
10
164.238
20
-111.434
11
164.574
21
-111.734
62
0
0
LINE
8
1
10
164.574
20
-111.734
11
164.94
21
-111.993
62
0
0
LINE
8
1
10
164.94
20
-111.993
11
165.334
21
-112.21
62
0
0
LINE
8
1
10
165.334
20
-112.21
11
165.749
21
-112.382
62
0
0
LINE
8
1
10
165.749
20
-112.382
11
166.18
21
-112.506
62
0
0
LINE
8
1
10
166.18
20
-112.506
11
166.623
21
-112.581
62
0
0
LINE
8
1
10
166.623
20
-112.581
11
167.072
21
-112.607
62
0
0
LINE
8
1
10
167.072
20
-112.607
11
167.52
21
-112.581
62
0
0
LINE
8
1
10
143.52
20
-112.581
11
143.963
21
-112.506
62
0
0
LINE
8
1
10
143.963
20
-112.506
11
144.394
21
-112.382
62
0
0
LINE
8
1
10
144.394
20
-112.382
11
144.809
21
-112.21
62
0
0
LINE
8
1
10
144.809
20
-112.21
11
145.203
21
-111.993
62
0
0
LINE
8
1
10
145.203
20
-111.993
11
145.569
21
-111.734
62
0
0
LINE
8
1
10
145.569
20
-111.734
11
145.905
21
-111.434
62
0
0
LINE
8
1
10
145.905
20
-111.434
11
146.204
21
-111.099
62
0
0
LINE
8
1
10
146.204
20
-111.099
11
146.464
21
-110.733
62
0
0
LINE
8
1
10
146.464
20
-110.733
11
146.682
21
-110.34
62
0
0
LINE
8
1
10
146.682
20
-110.34
11
146.854
21
-109.926
62
0
0
LINE
8
1
10
146.854
20
-109.926
11
153.648
21
-80.353
62
0
0
LINE
8
1
10
153.648
20
-80.353
11
154.348
21
-75.566
62
0
0
LINE
8
1
10
154.348
20
-75.566
11
154.561
21
-44.842
62
0
0
LINE
8
1
10
154.561
20
-44.842
11
147.081
21
21.606
62
0
0
LINE
8
1
10
147.081
20
21.606
11
139.062
21
21.606
62
0
0
LINE
8
1
10
139.062
20
21.606
11
131.582
21
-44.841
62
0
0
LINE
8
1
10
131.582
20
-44.841
11
131.795
21
-75.565
62
0
0
LINE
8
1
10
131.795
20
-75.565
11
132.819
21
-81.876
62
0
0
LINE
8
1
10
132.819
20
-81.876
11
139.289
21
-109.926
62
0
0
LINE
8
1
10
139.289
20
-109.926
11
139.461
21
-110.34
62
0
0
LINE
8
1
10
139.461
20
-110.34
11
139.679
21
-110.733
62
0
0
LINE
8
1
10
139.679
20
-110.733
11
139.939
21
-111.099
62
0
0
LINE
8
1
10
139.939
20
-111.099
11
140.238
21
-111.434
62
0
0
LINE
8
1
10
140.238
20
-111.434
11
140.574
21
-111.734
62
0
0
LINE
8
1
10
140.574
20
-111.734
11
140.94
21
-111.993
62
0
0
LINE
8
1
10
140.94
20
-111.993
11
141.334
21
-112.21
62
0
0
LINE
8
1
10
141.334
20
-112.21
11
141.749
21
-112.382
62
0
0
LINE
8
1
10
141.749
20
-112.382
11
142.18
21
-112.506
62
0
0
LINE
8
1
10
142.18
20
-112.506
11
142.623
21
-112.581
62
0
0
LINE
8
1
10
142.623
20
-112.581
11
143.072
21
-112.607
62
0
0
LINE
8
1
10
143.072
20
-112.607
11
143.52
21
-112.581
62
0
0
CIRCLE
8
1
10
31.024
20
18.498
40
2.03956
62
0
0
CIRCLE
8
1
10
97.475
20
18.499
40
1.89021
62
0
0
CIRCLE
8
1
10
91.475
20
18.499
40
1.89021
62
0
0
CIRCLE
8
1
10
85.475
20
18.499
40
1.89021
62
0
0
LINE
8
1
10
36.486
20
16.934
11
36.486
21
20.064
62
0
0
LINE
8
1
10
36.486
20
20.064
11
43.566
21
20.064
62
0
0
LINE
8
1
10
43.566
20
20.064
11
43.566
21
16.934
62
0
0
LINE
8
1
10
43.566
20
16.934
11
36.486
21
16.934
62
0
0
LINE
8
1
10
18.485
20
16.934
11
18.485
21
20.064
62
0
0
LINE
8
1
10
18.485
20
20.064
11
25.566
21
20.064
62
0
0
LINE
8
1
10
25.566
20
20.064
11
25.566
21
16.934
62
0
0
LINE
8
1
10
25.566
20
16.934
11
18.485
21
16.934
62
0
0
LINE
8
1
10
4.486
20
16.934
11
4.485
21
20.064
62
0
0
LINE
8
1
10
4.485
20
20.064
11
11.566
21
20.064
62
0
0
LINE
8
1
10
11.566
20
20.064
11
11.566
21
16.934
62
0
0
LINE
8
1
10
11.566
20
16.934
11
4.486
21
16.934
62
0
0
LINE
8
1
10
189.506
20
11.506
11
189.506
21
18.586
62
0
0
LINE
8
1
10
189.506
20
18.586
11
192.637
21
18.586
62
0
0
LINE
8
1
10
192.637
20
18.586
11
192.637
21
11.506
62
0
0
LINE
8
1
10
192.637
20
11.506
11
189.506
21
11.506
62
0
0
LINE
8
1
10
165.506
20
11.506
11
165.506
21
18.586
62
0
0
LINE
8
1
10
165.506
20
18.586
11
168.637
21
18.586
62
0
0
LINE
8
1
10
168.637
20
18.586
11
168.637
21
11.506
62
0
0
LINE
8
1
10
168.637
20
11.506
11
165.506
21
11.506
62
0
0
LINE
8
1
10
141.506
20
11.506
11
141.506
21
18.586
62
0
0
LINE
8
1
10
141.506
20
18.586
11
144.637
21
18.586
62
0
0
LINE
8
1
10
144.637
20
18.586
11
144.637
21
11.506
62
0
0
LINE
8
1
10
144.637
20
11.506
11
141.506
21
11.506
62
0
0
LINE
8
1
10
26.179
20
1.49
11
26.179
21
9.509
62
0
0
LINE
8
1
10
26.179
20
9.509
11
-40.269
21
16.989
62
0
0
LINE
8
1
10
-40.269
20
16.989
11
-70.992
21
16.776
62
0
0
LINE
8
1
10
-70.992
20
16.776
11
-77.304
21
15.753
62
0
0
LINE
8
1
10
-77.304
20
15.753
11
-105.353
21
9.283
62
0
0
LINE
8
1
10
-105.353
20
9.283
11
-105.768
21
9.111
62
0
0
LINE
8
1
10
-105.768
20
9.111
11
-106.161
21
8.893
62
0
0
LINE
8
1
10
-106.161
20
8.893
11
-106.527
21
8.633
62
0
0
LINE
8
1
10
-106.527
20
8.633
11
-106.862
21
8.333
62
0
0
LINE
8
1
10
-106.862
20
8.333
11
-107.161
21
7.998
62
0
0
LINE
8
1
10
-107.161
20
7.998
11
-107.42
21
7.631
62
0
0
LINE
8
1
10
-107.42
20
7.631
11
-107.638
21
7.238
62
0
0
LINE
8
1
10
-107.638
20
7.238
11
-107.809
21
6.823
62
0
0
LINE
8
1
10
-107.809
20
6.823
11
-107.934
21
6.391
62
0
0
LINE
8
1
10
-107.934
20
6.391
11
-108.009
21
5.948
62
0
0
LINE
8
1
10
-108.009
20
5.948
11
-108.034
21
5.5
62
0
0
LINE
8
1
10
-108.034
20
5.5
11
-108.009
21
5.052
62
0
0
LINE
8
1
10
-108.009
20
5.052
11
-107.934
21
4.609
62
0
0
LINE
8
1
10
-107.934
20
4.609
11
-107.809
21
4.177
62
0
0
LINE
8
1
10
-107.809
20
4.177
11
-107.638
21
3.762
62
0
0
LINE
8
1
10
-107.638
20
3.762
11
-107.42
21
3.369
62
0
0
LINE
8
1
10
-107.42
20
3.369
11
-107.161
21
3.002
62
0
0
LINE
8
1
10
-107.161
20
3.002
11
-106.862
21
2.667
62
0
0
LINE
8
1
10
-106.862
20
2.667
11
-106.527
21
2.367
62
0
0
LINE
8
1
10
-106.527
20
2.367
11
-106.161
21
2.107
62
0
0
LINE
8
1
10
-106.161
20
2.107
11
-105.768
21
1.889
62
0
0
LINE
8
1
10
-105.768
20
1.889
11
-105.353
21
1.717
62
0
0
LINE
8
1
10
-105.353
20
1.717
11
-75.78
21
-5.075
62
0
0
LINE
8
1
10
-75.78
20
-5.075
11
-70.993
21
-5.775
62
0
0
LINE
8
1
10
-70.993
20
-5.775
11
-40.27
21
-5.988
62
0
0
LINE
8
1
10
-40.27
20
-5.988
11
26.179
21
1.49
62
0
0
LINE
8
1
10
-194.115
20
-12.427
11
-189.894
21
-11.847
62
0
0
LINE
8
1
10
-189.894
20
-11.847
11
-186.111
21
-10.855
62
0
0
LINE
8
1
10
-186.111
20
-10.855
11
-181.923
21
-9.239
62
0
0
LINE
8
1
10
-181.923
20
-9.239
11
-181.417
21
-9.006
62
0
0
LINE
8
1
10
-181.417
20
-9.006
11
-181.417
21
-6.01
62
0
0
LINE
8
1
10
-181.417
20
-6.01
11
-178.417
21
-6.01
62
0
0
LINE
8
1
10
-178.417
20
-6.01
11
-178.417
21
1.01
62
0
0
LINE
8
1
10
-178.417
20
1.01
11
-181.417
21
1.01
62
0
0
LINE
8
1
10
-181.417
20
1.01
11
-181.417
21
7.99
62
0
0
LINE
8
1
10
-181.417
20
7.99
11
-178.417
21
7.99
62
0
0
LINE
8
1
10
-178.417
20
7.99
11
-178.417
21
15.01
62
0
0
LINE
8
1
10
-178.417
20
15.01
11
-181.417
21
15.01
62
0
0
LINE
8
1
10
-181.417
20
15.01
11
-181.417
21
16.51
62
0
0
LINE
8
1
10
-181.417
20
16.51
11
-211.437
21
16.51
62
0
0
LINE
8
1
10
-211.437
20
16.51
11
-211.437
21
15.01
62
0
0
LINE
8
1
10
-211.437
20
15.01
11
-214.437
21
15.01
62
0
0
LINE
8
1
10
-214.437
20
15.01
11
-214.437
21
7.99
62
0
0
LINE
8
1
10
-214.437
20
7.99
11
-211.437
21
7.99
62
0
0
LINE
8
1
10
-211.437
20
7.99
11
-211.437
21
1.009
62
0
0
LINE
8
1
10
-211.437
20
1.009
11
-214.437
21
1.009
62
0
0
LINE
8
1
10
-214.437
20
1.009
11
-214.437
21
-6.01
62
0
0
LINE
8
1
10
-214.437
20
-6.01
11
-211.437
21
-6.01
62
0
0
LINE
8
1
10
-211.437
20
-6.01
11
-211.437
21
-9.006
62
0
0
LINE
8
1
10
-211.437
20
-9.006
11
-207.212
21
-10.7
62
0
0
LINE
8
1
10
-207.212
20
-10.7
11
-203.461
21
-11.74
62
0
0
LINE
8
1
10
-203.461
20
-11.74
11
-200.179
21
-12.291
62
0
0
LINE
8
1
10
-200.179
20
-12.291
11
-196.896
21
-12.506
62
0
0
LINE
8
1
10
-196.896
20
-12.506
11
-194.115
21
-12.427
62
0
0
CIRCLE
8
1
10
91.475
20
12.499
40
1.89019
62
0
0
CIRCLE
8
1
10
-63.83
20
11.499
40
1.89027
62
0
0
CIRCLE
8
1
10
-3.379
20
5.5
40
2.03961
62
0
0
CIRCLE
8
1
10
-57.83
20
5.499
40
1.89021
62
0
0
CIRCLE
8
1
10
-63.83
20
5.499
40
1.89027
62
0
0
CIRCLE
8
1
10
-69.83
20
5.499
40
1.89024
62
0
0
LINE
8
1
10
16.079
20
3.935
11
16.079
21
7.065
62
0
0
LINE
8
1
10
16.079
20
7.065
11
23.159
21
7.065
62
0
0
LINE
8
1
10
23.159
20
7.065
11
23.159
21
3.935
62
0
0
LINE
8
1
10
23.159
20
3.935
11
16.079
21
3.935
62
0
0
LINE
8
1
10
2.079
20
3.935
11
2.079
21
7.065
62
0
0
LINE
8
1
10
2.079
20
7.065
11
9.158
21
7.065
62
0
0
LINE
8
1
10
9.158
20
7.065
11
9.158
21
3.935
62
0
0
LINE
8
1
10
9.158
20
3.935
11
2.079
21
3.935
62
0
0
LINE
8
1
10
-15.92
20
3.935
11
-15.92
21
7.065
62
0
0
LINE
8
1
10
-15.92
20
7.065
11
-8.841
21
7.065
62
0
0
LINE
8
1
10
-8.841
20
7.065
11
-8.841
21
3.935
62
0
0
LINE
8
1
10
-8.841
20
3.935
11
-15.92
21
3.935
62
0
0
LINE
8
1
10
116.582
20
-26.01
11
123.562
21
-26.01
62
0
0
LINE
8
1
10
123.562
20
-26.01
11
123.562
21
-29.01
62
0
0
LINE
8
1
10
123.562
20
-29.01
11
130.582
21
-29.01
62
0
0
LINE
8
1
10
130.582
20
-29.01
11
130.582
21
-26.01
62
0
0
LINE
8
1
10
130.582
20
-26.01
11
132.082
21
-26.01
62
0
0
LINE
8
1
10
132.082
20
-26.01
11
132.082
21
4.009
62
0
0
LINE
8
1
10
132.082
20
4.009
11
130.582
21
4.009
62
0
0
LINE
8
1
10
130.582
20
4.009
11
130.582
21
7.009
62
0
0
LINE
8
1
10
130.582
20
7.009
11
123.562
21
7.009
62
0
0
LINE
8
1
10
123.562
20
7.009
11
123.562
21
4.009
62
0
0
LINE
8
1
10
123.562
20
4.009
11
116.582
21
4.009
62
0
0
LINE
8
1
10
116.582
20
4.009
11
116.582
21
7.009
62
0
0
LINE
8
1
10
116.582
20
7.009
11
109.562
21
7.009
62
0
0
LINE
8
1
10
109.562
20
7.009
11
109.562
21
4.009
62
0
0
LINE
8
1
10
109.562
20
4.009
11
106.566
21
4.009
62
0
0
LINE
8
1
10
106.566
20
4.009
11
104.871
21
-0.215
62
0
0
LINE
8
1
10
104.871
20
-0.215
11
103.831
21
-3.966
62
0
0
LINE
8
1
10
103.831
20
-3.966
11
103.229
21
-7.717
62
0
0
LINE
8
1
10
103.229
20
-7.717
11
103.064
21
-11.437
62
0
0
LINE
8
1
10
103.064
20
-11.437
11
103.339
21
-15.22
62
0
0
LINE
8
1
10
103.339
20
-15.22
11
103.929
21
-18.47
62
0
0
LINE
8
1
10
103.929
20
-18.47
11
105.186
21
-22.69
62
0
0
LINE
8
1
10
105.186
20
-22.69
11
106.565
21
-26.01
62
0
0
LINE
8
1
10
106.565
20
-26.01
11
109.562
21
-26.01
62
0
0
LINE
8
1
10
109.562
20
-26.01
11
109.562
21
-29.01
62
0
0
LINE
8
1
10
109.562
20
-29.01
11
116.582
21
-29.01
62
0
0
LINE
8
1
10
116.582
20
-29.01
11
116.582
21
-26.01
62
0
0
CIRCLE
8
1
10
-137.927
20
4.499
40
1.59007
62
0
0
LINE
8
1
10
189.506
20
-2.493
11
189.506
21
4.586
62
0
0
LINE
8
1
10
189.506
20
4.586
11
192.637
21
4.586
62
0
0
LINE
8
1
10
192.637
20
4.586
11
192.637
21
-2.493
62
0
0
LINE
8
1
10
192.637
20
-2.493
11
189.506
21
-2.493
62
0
0
LINE
8
1
10
165.506
20
-2.493
11
165.506
21
4.586
62
0
0
LINE
8
1
10
165.506
20
4.586
11
168.637
21
4.586
62
0
0
LINE
8
1
10
168.637
20
4.586
11
168.637
21
-2.493
62
0
0
LINE
8
1
10
168.637
20
-2.493
11
165.506
21
-2.493
62
0
0
LINE
8
1
10
141.506
20
-2.493
11
141.506
21
4.586
62
0
0
LINE
8
1
10
141.506
20
4.586
11
144.637
21
4.586
62
0
0
LINE
8
1
10
144.637
20
4.586
11
144.637
21
-2.493
62
0
0
LINE
8
1
10
144.637
20
-2.493
11
141.506
21
-2.493
62
0
0
CIRCLE
8
1
10
-63.83
20
-0.499
40
1.88995
62
0
0
LINE
8
1
10
55.637
20
-23.776
11
61.949
21
-22.753
62
0
0
LINE
8
1
10
61.949
20
-22.753
11
89.998
21
-16.283
62
0
0
LINE
8
1
10
89.998
20
-16.283
11
90.413
21
-16.111
62
0
0
LINE
8
1
10
90.413
20
-16.111
11
90.806
21
-15.893
62
0
0
LINE
8
1
10
90.806
20
-15.893
11
91.172
21
-15.633
62
0
0
LINE
8
1
10
91.172
20
-15.633
11
91.507
21
-15.333
62
0
0
LINE
8
1
10
91.507
20
-15.333
11
91.806
21
-14.998
62
0
0
LINE
8
1
10
91.806
20
-14.998
11
92.065
21
-14.631
62
0
0
LINE
8
1
10
92.065
20
-14.631
11
92.283
21
-14.238
62
0
0
LINE
8
1
10
92.283
20
-14.238
11
92.454
21
-13.823
62
0
0
LINE
8
1
10
92.454
20
-13.823
11
92.579
21
-13.391
62
0
0
LINE
8
1
10
92.579
20
-13.391
11
92.654
21
-12.948
62
0
0
LINE
8
1
10
92.654
20
-12.948
11
92.679
21
-12.5
62
0
0
LINE
8
1
10
92.679
20
-12.5
11
92.654
21
-12.052
62
0
0
LINE
8
1
10
92.654
20
-12.052
11
92.579
21
-11.609
62
0
0
LINE
8
1
10
92.579
20
-11.609
11
92.454
21
-11.177
62
0
0
LINE
8
1
10
92.454
20
-11.177
11
92.283
21
-10.762
62
0
0
LINE
8
1
10
92.283
20
-10.762
11
92.065
21
-10.369
62
0
0
LINE
8
1
10
92.065
20
-10.369
11
91.806
21
-10.002
62
0
0
LINE
8
1
10
91.806
20
-10.002
11
91.507
21
-9.667
62
0
0
LINE
8
1
10
91.507
20
-9.667
11
91.172
21
-9.367
62
0
0
LINE
8
1
10
91.172
20
-9.367
11
90.806
21
-9.107
62
0
0
LINE
8
1
10
90.806
20
-9.107
11
90.413
21
-8.889
62
0
0
LINE
8
1
10
90.413
20
-8.889
11
89.998
21
-8.717
62
0
0
LINE
8
1
10
89.998
20
-8.717
11
60.425
21
-1.924
62
0
0
LINE
8
1
10
60.425
20
-1.924
11
55.638
21
-1.224
62
0
0
LINE
8
1
10
55.638
20
-1.224
11
24.915
21
-1.011
62
0
0
LINE
8
1
10
24.915
20
-1.011
11
-41.534
21
-8.49
62
0
0
LINE
8
1
10
-41.534
20
-8.49
11
-41.533
21
-16.509
62
0
0
LINE
8
1
10
-41.533
20
-16.509
11
24.914
21
-23.989
62
0
0
LINE
8
1
10
24.914
20
-23.989
11
55.637
21
-23.776
62
0
0
CIRCLE
8
1
10
48.475
20
-6.499
40
1.89015
62
0
0
CIRCLE
8
1
10
143.071
20
-7.951
40
2.03966
62
0
0
CIRCLE
8
1
10
167.071
20
-7.951
40
2.03966
62
0
0
CIRCLE
8
1
10
191.071
20
-7.951
40
2.03966
62
0
0
CIRCLE
8
1
10
-11.974
20
-12.5
40
2.03963
62
0
0
CIRCLE
8
1
10
54.475
20
-12.499
40
1.89015
62
0
0
CIRCLE
8
1
10
48.475
20
-12.499
40
1.89015
62
0
0
CIRCLE
8
1
10
42.475
20
-12.499
40
1.89015
62
0
0
LINE
8
1
10
-6.513
20
-14.065
11
-6.514
21
-10.935
62
0
0
LINE
8
1
10
-6.514
20
-10.935
11
0.565
21
-10.935
62
0
0
LINE
8
1
10
0.565
20
-10.935
11
0.565
21
-13.972
62
0
0
LINE
8
1
10
0.565
20
-13.972
11
0.566
21
-13.973
62
0
0
LINE
8
1
10
0.566
20
-13.973
11
0.566
21
-14.065
62
0
0
LINE
8
1
10
0.566
20
-14.065
11
-6.513
21
-14.065
62
0
0
LINE
8
1
10
-24.514
20
-14.065
11
-24.514
21
-10.935
62
0
0
LINE
8
1
10
-24.514
20
-10.935
11
-17.433
21
-10.935
62
0
0
LINE
8
1
10
-17.433
20
-10.935
11
-17.433
21
-14.065
62
0
0
LINE
8
1
10
-17.433
20
-14.065
11
-24.514
21
-14.065
62
0
0
LINE
8
1
10
-38.513
20
-14.065
11
-38.513
21
-10.935
62
0
0
LINE
8
1
10
-38.513
20
-10.935
11
-31.433
21
-10.935
62
0
0
LINE
8
1
10
-31.433
20
-10.935
11
-31.433
21
-14.065
62
0
0
LINE
8
1
10
-31.433
20
-14.065
11
-38.513
21
-14.065
62
0
0
LINE
8
1
10
189.506
20
-20.493
11
189.506
21
-13.413
62
0
0
LINE
8
1
10
189.506
20
-13.413
11
192.637
21
-13.413
62
0
0
LINE
8
1
10
192.637
20
-13.413
11
192.637
21
-20.493
62
0
0
LINE
8
1
10
192.637
20
-20.493
11
189.506
21
-20.493
62
0
0
LINE
8
1
10
165.506
20
-20.493
11
165.506
21
-13.413
62
0
0
LINE
8
1
10
165.506
20
-13.413
11
168.637
21
-13.413
62
0
0
LINE
8
1
10
168.637
20
-13.413
11
168.637
21
-20.493
62
0
0
LINE
8
1
10
168.637
20
-20.493
11
165.506
21
-20.493
62
0
0
LINE
8
1
10
141.506
20
-20.493
11
141.506
21
-13.413
62
0
0
LINE
8
1
10
141.506
20
-13.413
11
144.637
21
-13.413
62
0
0
LINE
8
1
10
144.637
20
-13.413
11
144.637
21
-20.493
62
0
0
LINE
8
1
10
144.637
20
-20.493
11
141.506
21
-20.493
62
0
0
CIRCLE
8
1
10
48.475
20
-18.499
40
1.89015
62
0
0
LINE
8
1
10
22.398
20
-90.509
11
24.404
21
-90.509
62
0
0
LINE
8
1
10
24.404
20
-90.509
11
24.404
21
-89.509
62
0
0
LINE
8
1
10
24.404
20
-89.509
11
39.261
21
-89.509
62
0
0
LINE
8
1
10
39.261
20
-89.509
11
39.261
21
-83.489
62
0
0
LINE
8
1
10
39.261
20
-83.489
11
24.404
21
-83.489
62
0
0
LINE
8
1
10
24.404
20
-83.489
11
24.404
21
-80.509
62
0
0
LINE
8
1
10
24.404
20
-80.509
11
29.904
21
-80.509
62
0
0
LINE
8
1
10
29.904
20
-80.509
11
29.904
21
-55.489
62
0
0
LINE
8
1
10
29.904
20
-55.489
11
24.404
21
-55.489
62
0
0
LINE
8
1
10
24.404
20
-55.489
11
24.404
21
-52.509
62
0
0
LINE
8
1
10
24.404
20
-52.509
11
39.261
21
-52.509
62
0
0
LINE
8
1
10
39.261
20
-52.509
11
39.261
21
-46.489
62
0
0
LINE
8
1
10
39.261
20
-46.489
11
24.404
21
-46.489
62
0
0
LINE
8
1
10
24.404
20
-46.489
11
24.404
21
-45.489
62
0
0
LINE
8
1
10
24.404
20
-45.489
11
22.398
21
-45.489
62
0
0
LINE
8
1
10
22.398
20
-45.489
11
-0.101
21
-22.989
62
0
0
LINE
8
1
10
-0.101
20
-22.989
11
-30.109
21
-22.989
62
0
0
LINE
8
1
10
-30.109
20
-22.989
11
-60.115
21
-52.995
62
0
0
LINE
8
1
10
-60.115
20
-52.995
11
-60.115
21
-83.003
62
0
0
LINE
8
1
10
-60.115
20
-83.003
11
-30.109
21
-113.009
62
0
0
LINE
8
1
10
-30.109
20
-113.009
11
-0.101
21
-113.009
62
0
0
LINE
8
1
10
-0.101
20
-113.009
11
22.398
21
-90.509
62
0
0
LINE
8
1
10
130.582
20
-83.504
11
130.582
21
-53.496
62
0
0
LINE
8
1
10
130.582
20
-53.496
11
100.576
21
-23.49
62
0
0
LINE
8
1
10
100.576
20
-23.49
11
70.568
21
-23.49
62
0
0
LINE
8
1
10
70.568
20
-23.49
11
40.562
21
-53.496
62
0
0
LINE
8
1
10
40.562
20
-53.496
11
40.562
21
-82.5
62
0
0
LINE
8
1
10
40.562
20
-82.5
11
40.563
21
-82.5
62
0
0
LINE
8
1
10
40.563
20
-82.5
11
40.563
21
-83.504
62
0
0
LINE
8
1
10
40.563
20
-83.504
11
70.568
21
-113.51
62
0
0
LINE
8
1
10
70.568
20
-113.51
11
100.576
21
-113.51
62
0
0
LINE
8
1
10
100.576
20
-113.51
11
130.582
21
-83.504
62
0
0
CIRCLE
8
1
10
85.572
20
-27.499
40
1.58987
62
0
0
CIRCLE
8
1
10
-26.604
20
-32.999
40
2.23977
62
0
0
LINE
8
1
10
73.89
20
-105.49
11
48.583
21
-80.182
62
0
0
LINE
8
1
10
48.583
20
-80.182
11
48.582
21
-56.817
62
0
0
LINE
8
1
10
48.582
20
-56.817
11
73.89
21
-31.51
62
0
0
LINE
8
1
10
73.89
20
-31.51
11
97.255
21
-31.51
62
0
0
LINE
8
1
10
97.255
20
-31.51
11
122.562
21
-56.817
62
0
0
LINE
8
1
10
122.562
20
-56.817
11
122.562
21
-80.182
62
0
0
LINE
8
1
10
122.562
20
-80.182
11
97.255
21
-105.49
62
0
0
LINE
8
1
10
97.255
20
-105.49
11
73.89
21
-105.49
62
0
0
CIRCLE
8
1
10
-38.033
20
-36.584
40
1.9898
62
0
0
CIRCLE
8
1
10
7.823
20
-36.584
40
1.9898
62
0
0
CIRCLE
8
1
10
-96.927
20
-36.499
40
1.59005
62
0
0
CIRCLE
8
1
10
-178.927
20
-36.499
40
1.59005
62
0
0
CIRCLE
8
1
10
108.501
20
-37.085
40
1.99002
62
0
0
CIRCLE
8
1
10
62.641
20
-37.084
40
1.98981
62
0
0
CIRCLE
8
1
10
-42.276
20
-40.828
40
1.98971
62
0
0
CIRCLE
8
1
10
12.065
20
-40.828
40
1.98982
62
0
0
CIRCLE
8
1
10
112.744
20
-41.327
40
1.98983
62
0
0
CIRCLE
8
1
10
58.401
20
-41.326
40
1.98953
62
0
0
CIRCLE
8
1
10
-46.518
20
-45.071
40
1.98973
62
0
0
CIRCLE
8
1
10
16.308
20
-45.071
40
1.98972
62
0
0
CIRCLE
8
1
10
116.986
20
-45.57
40
1.99002
62
0
0
CIRCLE
8
1
10
54.159
20
-45.57
40
1.98982
62
0
0
CIRCLE
8
1
10
36.25
20
-49.497
40
1.58992
62
0
0
CIRCLE
8
1
10
19.894
20
-56.499
40
2.23977
62
0
0
CIRCLE
8
1
10
143.071
20
-62.402
40
1.88983
62
0
0
CIRCLE
8
1
10
167.071
20
-62.402
40
1.88983
62
0
0
CIRCLE
8
1
10
191.071
20
-62.402
40
1.88983
62
0
0
LINE
8
1
10
115.85
20
-81.497
11
116.385
21
-81.398
62
0
0
LINE
8
1
10
116.385
20
-81.398
11
116.659
21
-81.306
62
0
0
LINE
8
1
10
116.659
20
-81.306
11
117.157
21
-81.059
62
0
0
LINE
8
1
10
117.157
20
-81.059
11
117.6
21
-80.725
62
0
0
LINE
8
1
10
117.6
20
-80.725
11
117.969
21
-80.322
62
0
0
LINE
8
1
10
117.969
20
-80.322
11
118.131
21
-80.084
62
0
0
LINE
8
1
10
118.131
20
-80.084
11
118.379
21
-79.587
62
0
0
LINE
8
1
10
118.379
20
-79.587
11
118.531
21
-79.053
62
0
0
LINE
8
1
10
118.531
20
-79.053
11
118.582
21
-78.501
62
0
0
LINE
8
1
10
118.582
20
-78.501
11
118.57
21
-64.222
62
0
0
LINE
8
1
10
118.57
20
-64.222
11
118.471
21
-63.687
62
0
0
LINE
8
1
10
118.471
20
-63.687
11
118.379
21
-63.413
62
0
0
LINE
8
1
10
118.379
20
-63.413
11
118.132
21
-62.915
62
0
0
LINE
8
1
10
118.132
20
-62.915
11
117.798
21
-62.472
62
0
0
LINE
8
1
10
117.798
20
-62.472
11
117.395
21
-62.103
62
0
0
LINE
8
1
10
117.395
20
-62.103
11
117.157
21
-61.941
62
0
0
LINE
8
1
10
117.157
20
-61.941
11
116.66
21
-61.693
62
0
0
LINE
8
1
10
116.66
20
-61.693
11
116.126
21
-61.541
62
0
0
LINE
8
1
10
116.126
20
-61.541
11
115.573
21
-61.49
62
0
0
LINE
8
1
10
115.573
20
-61.49
11
55.295
21
-61.502
62
0
0
LINE
8
1
10
55.295
20
-61.502
11
54.76
21
-61.601
62
0
0
LINE
8
1
10
54.76
20
-61.601
11
54.486
21
-61.693
62
0
0
LINE
8
1
10
54.486
20
-61.693
11
53.988
21
-61.94
62
0
0
LINE
8
1
10
53.988
20
-61.94
11
53.545
21
-62.274
62
0
0
LINE
8
1
10
53.545
20
-62.274
11
53.176
21
-62.677
62
0
0
LINE
8
1
10
53.176
20
-62.677
11
53.014
21
-62.915
62
0
0
LINE
8
1
10
53.014
20
-62.915
11
52.766
21
-63.412
62
0
0
LINE
8
1
10
52.766
20
-63.412
11
52.614
21
-63.946
62
0
0
LINE
8
1
10
52.614
20
-63.946
11
52.563
21
-64.486
62
0
0
LINE
8
1
10
52.563
20
-64.486
11
52.562
21
-64.487
62
0
0
LINE
8
1
10
52.562
20
-64.487
11
52.575
21
-78.777
62
0
0
LINE
8
1
10
52.575
20
-78.777
11
52.674
21
-79.312
62
0
0
LINE
8
1
10
52.674
20
-79.312
11
52.766
21
-79.586
62
0
0
LINE
8
1
10
52.766
20
-79.586
11
53.013
21
-80.084
62
0
0
LINE
8
1
10
53.013
20
-80.084
11
53.347
21
-80.527
62
0
0
LINE
8
1
10
53.347
20
-80.527
11
53.75
21
-80.896
62
0
0
LINE
8
1
10
53.75
20
-80.896
11
53.988
21
-81.058
62
0
0
LINE
8
1
10
53.988
20
-81.058
11
54.485
21
-81.306
62
0
0
LINE
8
1
10
54.485
20
-81.306
11
55.019
21
-81.458
62
0
0
LINE
8
1
10
55.019
20
-81.458
11
55.572
21
-81.51
62
0
0
LINE
8
1
10
55.572
20
-81.51
11
115.85
21
-81.497
62
0
0
CIRCLE
8
1
10
57.572
20
-65.499
40
1.88987
62
0
0
CIRCLE
8
1
10
75.572
20
-65.499
40
1.88987
62
0
0
CIRCLE
8
1
10
95.572
20
-65.499
40
1.88987
62
0
0
CIRCLE
8
1
10
113.572
20
-65.499
40
1.88987
62
0
0
CIRCLE
8
1
10
137.071
20
-68.402
40
1.88983
62
0
0
CIRCLE
8
1
10
143.071
20
-68.402
40
1.88983
62
0
0
CIRCLE
8
1
10
149.071
20
-68.402
40
1.88983
62
0
0
CIRCLE
8
1
10
161.071
20
-68.402
40
1.88983
62
0
0
CIRCLE
8
1
10
167.071
20
-68.402
40
1.88983
62
0
0
CIRCLE
8
1
10
173.071
20
-68.402
40
1.88983
62
0
0
CIRCLE
8
1
10
185.071
20
-68.402
40
1.88983
62
0
0
CIRCLE
8
1
10
191.071
20
-68.402
40
1.88983
62
0
0
CIRCLE
8
1
10
197.071
20
-68.402
40
1.88983
62
0
0
CIRCLE
8
1
10
126.572
20
-68.499
40
1.58993
62
0
0
CIRCLE
8
1
10
44.572
20
-68.499
40
1.58996
62
0
0
LINE
8
1
10
-181.417
20
-111.01
11
-178.417
21
-111.01
62
0
0
LINE
8
1
10
-178.417
20
-111.01
11
-178.417
21
-103.99
62
0
0
LINE
8
1
10
-178.417
20
-103.99
11
-181.417
21
-103.99
62
0
0
LINE
8
1
10
-181.417
20
-103.99
11
-181.417
21
-97.01
62
0
0
LINE
8
1
10
-181.417
20
-97.01
11
-178.417
21
-97.01
62
0
0
LINE
8
1
10
-178.417
20
-97.01
11
-178.417
21
-89.99
62
0
0
LINE
8
1
10
-178.417
20
-89.99
11
-181.417
21
-89.99
62
0
0
LINE
8
1
10
-181.417
20
-89.99
11
-181.417
21
-86.994
62
0
0
LINE
8
1
10
-181.417
20
-86.994
11
-185.642
21
-85.299
62
0
0
LINE
8
1
10
-185.642
20
-85.299
11
-189.393
21
-84.259
62
0
0
LINE
8
1
10
-189.393
20
-84.259
11
-192.675
21
-83.708
62
0
0
LINE
8
1
10
-192.675
20
-83.708
11
-195.698
21
-83.51
62
0
0
LINE
8
1
10
-195.698
20
-83.51
11
-181.417
21
-83.51
62
0
0
LINE
8
1
10
-181.417
20
-83.51
11
-181.417
21
-81.51
62
0
0
LINE
8
1
10
-181.417
20
-81.51
11
-178.417
21
-81.51
62
0
0
LINE
8
1
10
-178.417
20
-81.51
11
-178.417
21
-74.49
62
0
0
LINE
8
1
10
-178.417
20
-74.49
11
-181.417
21
-74.49
62
0
0
LINE
8
1
10
-181.417
20
-74.49
11
-181.417
21
-69.486
62
0
0
LINE
8
1
10
-181.417
20
-69.486
11
-186.586
21
-70.913
62
0
0
LINE
8
1
10
-186.586
20
-70.913
11
-191.272
21
-71.694
62
0
0
LINE
8
1
10
-191.272
20
-71.694
11
-195.959
21
-71.987
62
0
0
LINE
8
1
10
-195.959
20
-71.987
11
-200.644
21
-71.792
62
0
0
LINE
8
1
10
-200.644
20
-71.792
11
-205.299
21
-71.115
62
0
0
LINE
8
1
10
-205.299
20
-71.115
11
-210.924
21
-69.654
62
0
0
LINE
8
1
10
-210.924
20
-69.654
11
-210.924
21
-69.655
62
0
0
LINE
8
1
10
-210.924
20
-69.655
11
-211.389
21
-69.503
62
0
0
LINE
8
1
10
-211.389
20
-69.503
11
-211.391
21
-69.501
62
0
0
LINE
8
1
10
-211.391
20
-69.501
11
-211.437
21
-69.486
62
0
0
LINE
8
1
10
-211.437
20
-69.486
11
-211.437
21
-74.49
62
0
0
LINE
8
1
10
-211.437
20
-74.49
11
-214.437
21
-74.49
62
0
0
LINE
8
1
10
-214.437
20
-74.49
11
-214.437
21
-81.51
62
0
0
LINE
8
1
10
-214.437
20
-81.51
11
-211.437
21
-81.51
62
0
0
LINE
8
1
10
-211.437
20
-81.51
11
-211.437
21
-83.51
62
0
0
LINE
8
1
10
-211.437
20
-83.51
11
-196.347
21
-83.51
62
0
0
LINE
8
1
10
-196.347
20
-83.51
11
-199.71
21
-83.657
62
0
0
LINE
8
1
10
-199.71
20
-83.657
11
-202.96
21
-84.152
62
0
0
LINE
8
1
10
-202.96
20
-84.152
11
-206.743
21
-85.144
62
0
0
LINE
8
1
10
-206.743
20
-85.144
11
-210.931
21
-86.76
62
0
0
LINE
8
1
10
-210.931
20
-86.76
11
-211.437
21
-86.994
62
0
0
LINE
8
1
10
-211.437
20
-86.994
11
-211.437
21
-89.99
62
0
0
LINE
8
1
10
-211.437
20
-89.99
11
-214.437
21
-89.99
62
0
0
LINE
8
1
10
-214.437
20
-89.99
11
-214.437
21
-97.01
62
0
0
LINE
8
1
10
-214.437
20
-97.01
11
-211.437
21
-97.01
62
0
0
LINE
8
1
10
-211.437
20
-97.01
11
-211.437
21
-103.99
62
0
0
LINE
8
1
10
-211.437
20
-103.99
11
-214.437
21
-103.99
62
0
0
LINE
8
1
10
-214.437
20
-103.99
11
-214.437
21
-111.01
62
0
0
LINE
8
1
10
-214.437
20
-111.01
11
-211.437
21
-111.01
62
0
0
LINE
8
1
10
-211.437
20
-111.01
11
-211.437
21
-112.51
62
0
0
LINE
8
1
10
-211.437
20
-112.51
11
-181.417
21
-112.51
62
0
0
LINE
8
1
10
-181.417
20
-112.51
11
-181.417
21
-111.01
62
0
0
CIRCLE
8
1
10
57.572
20
-71.499
40
1.88987
62
0
0
CIRCLE
8
1
10
75.572
20
-71.499
40
1.88987
62
0
0
CIRCLE
8
1
10
95.572
20
-71.499
40
1.88987
62
0
0
CIRCLE
8
1
10
113.572
20
-71.499
40
1.88987
62
0
0
CIRCLE
8
1
10
143.071
20
-74.402
40
1.88983
62
0
0
CIRCLE
8
1
10
167.071
20
-74.402
40
1.88983
62
0
0
CIRCLE
8
1
10
191.071
20
-74.402
40
1.88983
62
0
0
CIRCLE
8
1
10
57.572
20
-77.499
40
1.88987
62
0
0
CIRCLE
8
1
10
75.572
20
-77.499
40
1.88987
62
0
0
CIRCLE
8
1
10
95.572
20
-77.499
40
1.88987
62
0
0
CIRCLE
8
1
10
113.572
20
-77.499
40
1.88987
62
0
0
CIRCLE
8
1
10
-137.926
20
-77.499
40
1.59004
62
0
0
LINE
8
1
10
-67.917
20
-110.01
11
-62.913
21
-110.01
62
0
0
LINE
8
1
10
-62.913
20
-110.01
11
-64.34
21
-104.841
62
0
0
LINE
8
1
10
-64.34
20
-104.841
11
-65.122
21
-100.154
62
0
0
LINE
8
1
10
-65.122
20
-100.154
11
-65.415
21
-95.468
62
0
0
LINE
8
1
10
-65.415
20
-95.468
11
-65.177
21
-90.344
62
0
0
LINE
8
1
10
-65.177
20
-90.344
11
-64.243
21
-84.721
62
0
0
LINE
8
1
10
-64.243
20
-84.721
11
-62.929
21
-80.037
62
0
0
LINE
8
1
10
-62.929
20
-80.037
11
-62.928
21
-80.036
62
0
0
LINE
8
1
10
-62.928
20
-80.036
11
-62.913
21
-79.99
62
0
0
LINE
8
1
10
-62.913
20
-79.99
11
-67.917
21
-79.99
62
0
0
LINE
8
1
10
-67.917
20
-79.99
11
-67.917
21
-76.99
62
0
0
LINE
8
1
10
-67.917
20
-76.99
11
-74.937
21
-76.99
62
0
0
LINE
8
1
10
-74.937
20
-76.99
11
-74.937
21
-79.99
62
0
0
LINE
8
1
10
-74.937
20
-79.99
11
-76.937
21
-79.99
62
0
0
LINE
8
1
10
-76.937
20
-79.99
11
-76.937
21
-110.01
62
0
0
LINE
8
1
10
-76.937
20
-110.01
11
-74.937
21
-110.01
62
0
0
LINE
8
1
10
-74.937
20
-110.01
11
-74.937
21
-113.01
62
0
0
LINE
8
1
10
-74.937
20
-113.01
11
-67.917
21
-113.01
62
0
0
LINE
8
1
10
-67.917
20
-113.01
11
-67.917
21
-110.01
62
0
0
LINE
8
1
10
-168.917
20
-110.01
11
-163.913
21
-110.01
62
0
0
LINE
8
1
10
-163.913
20
-110.01
11
-165.34
21
-104.841
62
0
0
LINE
8
1
10
-165.34
20
-104.841
11
-166.122
21
-100.154
62
0
0
LINE
8
1
10
-166.122
20
-100.154
11
-166.415
21
-95.468
62
0
0
LINE
8
1
10
-166.415
20
-95.468
11
-166.177
21
-90.344
62
0
0
LINE
8
1
10
-166.177
20
-90.344
11
-165.243
21
-84.721
62
0
0
LINE
8
1
10
-165.243
20
-84.721
11
-163.929
21
-80.037
62
0
0
LINE
8
1
10
-163.929
20
-80.037
11
-163.928
21
-80.036
62
0
0
LINE
8
1
10
-163.928
20
-80.036
11
-163.913
21
-79.99
62
0
0
LINE
8
1
10
-163.913
20
-79.99
11
-168.917
21
-79.99
62
0
0
LINE
8
1
10
-168.917
20
-79.99
11
-168.917
21
-76.99
62
0
0
LINE
8
1
10
-168.917
20
-76.99
11
-175.937
21
-76.99
62
0
0
LINE
8
1
10
-175.937
20
-76.99
11
-175.937
21
-79.99
62
0
0
LINE
8
1
10
-175.937
20
-79.99
11
-177.937
21
-79.99
62
0
0
LINE
8
1
10
-177.937
20
-79.99
11
-177.937
21
-110.01
62
0
0
LINE
8
1
10
-177.937
20
-110.01
11
-175.937
21
-110.01
62
0
0
LINE
8
1
10
-175.937
20
-110.01
11
-175.937
21
-113.01
62
0
0
LINE
8
1
10
-175.937
20
-113.01
11
-168.917
21
-113.01
62
0
0
LINE
8
1
10
-168.917
20
-113.01
11
-168.917
21
-110.01
62
0
0
CIRCLE
8
1
10
-50.104
20
-79.499
40
2.23977
62
0
0
LINE
8
1
10
-80.418
20
-111.01
11
-77.418
21
-111.01
62
0
0
LINE
8
1
10
-77.418
20
-111.01
11
-77.418
21
-103.99
62
0
0
LINE
8
1
10
-77.418
20
-103.99
11
-80.418
21
-103.99
62
0
0
LINE
8
1
10
-80.418
20
-103.99
11
-80.418
21
-97.01
62
0
0
LINE
8
1
10
-80.418
20
-97.01
11
-77.418
21
-97.01
62
0
0
LINE
8
1
10
-77.418
20
-97.01
11
-77.418
21
-89.99
62
0
0
LINE
8
1
10
-77.418
20
-89.99
11
-80.418
21
-89.99
62
0
0
LINE
8
1
10
-80.418
20
-89.99
11
-80.418
21
-86.994
62
0
0
LINE
8
1
10
-80.418
20
-86.994
11
-84.642
21
-85.299
62
0
0
LINE
8
1
10
-84.642
20
-85.299
11
-88.393
21
-84.259
62
0
0
LINE
8
1
10
-88.393
20
-84.259
11
-91.676
21
-83.708
62
0
0
LINE
8
1
10
-91.676
20
-83.708
11
-94.958
21
-83.493
62
0
0
LINE
8
1
10
-94.958
20
-83.493
11
-98.71
21
-83.657
62
0
0
LINE
8
1
10
-98.71
20
-83.657
11
-101.96
21
-84.152
62
0
0
LINE
8
1
10
-101.96
20
-84.152
11
-105.743
21
-85.144
62
0
0
LINE
8
1
10
-105.743
20
-85.144
11
-109.931
21
-86.76
62
0
0
LINE
8
1
10
-109.931
20
-86.76
11
-110.438
21
-86.994
62
0
0
LINE
8
1
10
-110.438
20
-86.994
11
-110.438
21
-89.99
62
0
0
LINE
8
1
10
-110.438
20
-89.99
11
-113.438
21
-89.99
62
0
0
LINE
8
1
10
-113.438
20
-89.99
11
-113.438
21
-97.01
62
0
0
LINE
8
1
10
-113.438
20
-97.01
11
-110.438
21
-97.01
62
0
0
LINE
8
1
10
-110.438
20
-97.01
11
-110.438
21
-103.99
62
0
0
LINE
8
1
10
-110.438
20
-103.99
11
-113.438
21
-103.99
62
0
0
LINE
8
1
10
-113.438
20
-103.99
11
-113.438
21
-111.01
62
0
0
LINE
8
1
10
-113.438
20
-111.01
11
-110.438
21
-111.01
62
0
0
LINE
8
1
10
-110.438
20
-111.01
11
-110.438
21
-112.51
62
0
0
LINE
8
1
10
-110.438
20
-112.51
11
-80.418
21
-112.51
62
0
0
LINE
8
1
10
-80.418
20
-112.51
11
-80.418
21
-111.01
62
0
0
CIRCLE
8
1
10
36.25
20
-86.497
40
1.58992
62
0
0
CIRCLE
8
1
10
-46.518
20
-90.929
40
1.98966
62
0
0
CIRCLE
8
1
10
16.308
20
-90.929
40
1.98968
62
0
0
CIRCLE
8
1
10
116.986
20
-91.428
40
1.99002
62
0
0
CIRCLE
8
1
10
54.157
20
-91.43
40
1.98984
62
0
0
CIRCLE
8
1
10
-42.276
20
-95.17
40
1.98976
62
0
0
CIRCLE
8
1
10
12.065
20
-95.17
40
1.98987
62
0
0
CIRCLE
8
1
10
112.744
20
-95.671
40
1.98983
62
0
0
CIRCLE
8
1
10
58.399
20
-95.67
40
1.98948
62
0
0
CIRCLE
8
1
10
-38.033
20
-99.414
40
1.98974
62
0
0
CIRCLE
8
1
10
7.823
20
-99.414
40
1.98975
62
0
0
CIRCLE
8
1
10
108.501
20
-99.913
40
1.98999
62
0
0
CIRCLE
8
1
10
62.644
20
-99.912
40
1.98972
62
0
0
LINE
8
1
10
47.583
20
-111.51
11
50.583
21
-111.51
62
0
0
LINE
8
1
10
50.583
20
-111.51
11
50.583
21
-104.49
62
0
0
LINE
8
1
10
50.583
20
-104.49
11
47.583
21
-104.49
62
0
0
LINE
8
1
10
47.583
20
-104.49
11
47.582
21
-99.486
62
0
0
LINE
8
1
10
47.582
20
-99.486
11
42.413
21
-100.913
62
0
0
LINE
8
1
10
42.413
20
-100.913
11
37.727
21
-101.694
62
0
0
LINE
8
1
10
37.727
20
-101.694
11
33.04
21
-101.987
62
0
0
LINE
8
1
10
33.04
20
-101.987
11
28.355
21
-101.792
62
0
0
LINE
8
1
10
28.355
20
-101.792
11
23.7
21
-101.115
62
0
0
LINE
8
1
10
23.7
20
-101.115
11
18.075
21
-99.654
62
0
0
LINE
8
1
10
18.075
20
-99.654
11
18.075
21
-99.655
62
0
0
LINE
8
1
10
18.075
20
-99.655
11
17.61
21
-99.503
62
0
0
LINE
8
1
10
17.61
20
-99.503
11
17.608
21
-99.501
62
0
0
LINE
8
1
10
17.608
20
-99.501
11
17.562
21
-99.486
62
0
0
LINE
8
1
10
17.562
20
-99.486
11
17.562
21
-104.49
62
0
0
LINE
8
1
10
17.562
20
-104.49
11
14.562
21
-104.49
62
0
0
LINE
8
1
10
14.562
20
-104.49
11
14.562
21
-111.51
62
0
0
LINE
8
1
10
14.562
20
-111.51
11
17.562
21
-111.51
62
0
0
LINE
8
1
10
17.562
20
-111.51
11
17.562
21
-113.51
62
0
0
LINE
8
1
10
17.562
20
-113.51
11
47.583
21
-113.51
62
0
0
LINE
8
1
10
47.583
20
-113.51
11
47.583
21
-111.51
62
0
0
CIRCLE
8
1
10
-3.604
20
-102.999
40
2.23977
62
0
0
CIRCLE
8
1
10
85.573
20
-109.499
40
1.58991
62
0
0
CIRCLE
8
1
10
-50.426
20
109.499
40
2.71493
62
1
0
CIRCLE
8
1
10
-32.426
20
109.499
40
2.71493
62
1
0
CIRCLE
8
1
10
-12.426
20
109.499
40
2.71493
62
1
0
CIRCLE
8
1
10
5.572
20
109.499
40
2.71493
62
1
0
CIRCLE
8
1
10
16.572
20
109.499
40
2.71493
62
1
0
CIRCLE
8
1
10
34.572
20
109.499
40
2.71493
62
1
0
CIRCLE
8
1
10
54.572
20
109.499
40
2.71493
62
1
0
CIRCLE
8
1
10
72.572
20
109.499
40
2.71493
62
1
0
CIRCLE
8
1
10
72.572
20
109.499
40
1.88986
62
1
0
CIRCLE
8
1
10
54.572
20
109.499
40
1.88986
62
1
0
CIRCLE
8
1
10
34.572
20
109.499
40
1.88986
62
1
0
CIRCLE
8
1
10
16.572
20
109.499
40
1.88986
62
1
0
CIRCLE
8
1
10
5.572
20
109.499
40
1.88986
62
1
0
CIRCLE
8
1
10
-12.426
20
109.499
40
1.88986
62
1
0
CIRCLE
8
1
10
-32.426
20
109.499
40
1.88986
62
1
0
CIRCLE
8
1
10
-50.426
20
109.499
40
1.88986
62
1
0
CIRCLE
8
1
10
-50.426
20
103.499
40
2.71493
62
1
0
CIRCLE
8
1
10
-32.426
20
103.499
40
2.71493
62
1
0
CIRCLE
8
1
10
-12.426
20
103.499
40
2.71493
62
1
0
CIRCLE
8
1
10
5.572
20
103.499
40
2.71493
62
1
0
CIRCLE
8
1
10
16.572
20
103.499
40
2.71493
62
1
0
CIRCLE
8
1
10
34.572
20
103.499
40
2.71493
62
1
0
CIRCLE
8
1
10
54.572
20
103.499
40
2.71493
62
1
0
CIRCLE
8
1
10
72.572
20
103.499
40
2.71493
62
1
0
CIRCLE
8
1
10
108.572
20
103.499
40
2.71493
62
1
0
CIRCLE
8
1
10
126.572
20
103.499
40
2.71493
62
1
0
CIRCLE
8
1
10
146.572
20
103.499
40
2.71493
62
1
0
CIRCLE
8
1
10
164.572
20
103.499
40
2.71493
62
1
0
CIRCLE
8
1
10
-204.283
20
102.998
40
2.71503
62
1
0
CIRCLE
8
1
10
-133.57
20
102.998
40
2.71503
62
1
0
CIRCLE
8
1
10
164.572
20
103.499
40
1.88986
62
1
0
CIRCLE
8
1
10
146.572
20
103.499
40
1.88986
62
1
0
CIRCLE
8
1
10
126.572
20
103.499
40
1.88986
62
1
0
CIRCLE
8
1
10
108.572
20
103.499
40
1.88986
62
1
0
CIRCLE
8
1
10
72.572
20
103.499
40
1.88986
62
1
0
CIRCLE
8
1
10
54.572
20
103.499
40
1.88986
62
1
0
CIRCLE
8
1
10
34.572
20
103.499
40
1.88986
62
1
0
CIRCLE
8
1
10
16.572
20
103.499
40
1.88986
62
1
0
CIRCLE
8
1
10
5.572
20
103.499
40
1.88986
62
1
0
CIRCLE
8
1
10
-12.426
20
103.499
40
1.88986
62
1
0
CIRCLE
8
1
10
-32.426
20
103.499
40
1.88986
62
1
0
CIRCLE
8
1
10
-50.426
20
103.499
40
1.88986
62
1
0
CIRCLE
8
1
10
-117.426
20
102.499
40
2.71494
62
1
0
CIRCLE
8
1
10
-99.426
20
102.499
40
2.71494
62
1
0
CIRCLE
8
1
10
-79.426
20
102.499
40
2.71494
62
1
0
CIRCLE
8
1
10
-61.426
20
102.499
40
2.71494
62
1
0
CIRCLE
8
1
10
-204.284
20
102.999
40
1.89001
62
1
0
CIRCLE
8
1
10
-133.569
20
102.998
40
1.88988
62
1
0
CIRCLE
8
1
10
-61.426
20
102.499
40
1.88986
62
1
0
CIRCLE
8
1
10
-79.426
20
102.499
40
1.88986
62
1
0
CIRCLE
8
1
10
-99.426
20
102.499
40
1.88986
62
1
0
CIRCLE
8
1
10
-117.426
20
102.499
40
1.88986
62
1
0
CIRCLE
8
1
10
-50.426
20
97.499
40
2.71493
62
1
0
CIRCLE
8
1
10
-32.426
20
97.499
40
2.71493
62
1
0
CIRCLE
8
1
10
-12.426
20
97.499
40
2.71493
62
1
0
CIRCLE
8
1
10
5.572
20
97.499
40
2.71493
62
1
0
CIRCLE
8
1
10
16.572
20
97.499
40
2.71493
62
1
0
CIRCLE
8
1
10
34.572
20
97.499
40
2.71493
62
1
0
CIRCLE
8
1
10
54.572
20
97.499
40
2.71493
62
1
0
CIRCLE
8
1
10
72.572
20
97.499
40
2.71493
62
1
0
CIRCLE
8
1
10
108.572
20
97.499
40
2.71493
62
1
0
CIRCLE
8
1
10
126.572
20
97.499
40
2.71493
62
1
0
CIRCLE
8
1
10
146.572
20
97.499
40
2.71493
62
1
0
CIRCLE
8
1
10
164.572
20
97.499
40
2.71493
62
1
0
CIRCLE
8
1
10
-210.283
20
96.999
40
2.71499
62
1
0
CIRCLE
8
1
10
-204.283
20
96.999
40
2.71499
62
1
0
CIRCLE
8
1
10
-198.283
20
96.999
40
2.71499
62
1
0
CIRCLE
8
1
10
-139.57
20
96.999
40
2.71499
62
1
0
CIRCLE
8
1
10
-133.57
20
96.999
40
2.71499
62
1
0
CIRCLE
8
1
10
-127.57
20
96.999
40
2.71499
62
1
0
CIRCLE
8
1
10
164.572
20
97.499
40
1.88986
62
1
0
CIRCLE
8
1
10
146.572
20
97.499
40
1.88986
62
1
0
CIRCLE
8
1
10
126.572
20
97.499
40
1.88986
62
1
0
CIRCLE
8
1
10
108.572
20
97.499
40
1.88986
62
1
0
CIRCLE
8
1
10
72.572
20
97.499
40
1.88986
62
1
0
CIRCLE
8
1
10
54.572
20
97.499
40
1.88986
62
1
0
CIRCLE
8
1
10
34.572
20
97.499
40
1.88986
62
1
0
CIRCLE
8
1
10
16.572
20
97.499
40
1.88986
62
1
0
CIRCLE
8
1
10
5.572
20
97.499
40
1.88986
62
1
0
CIRCLE
8
1
10
-12.426
20
97.499
40
1.88986
62
1
0
CIRCLE
8
1
10
-32.426
20
97.499
40
1.88986
62
1
0
CIRCLE
8
1
10
-50.426
20
97.499
40
1.88986
62
1
0
CIRCLE
8
1
10
-117.426
20
96.499
40
2.71494
62
1
0
CIRCLE
8
1
10
-99.426
20
96.499
40
2.71494
62
1
0
CIRCLE
8
1
10
-79.426
20
96.499
40
2.71494
62
1
0
CIRCLE
8
1
10
-61.426
20
96.499
40
2.71494
62
1
0
CIRCLE
8
1
10
-198.284
20
96.998
40
1.89004
62
1
0
CIRCLE
8
1
10
-204.284
20
96.998
40
1.89004
62
1
0
CIRCLE
8
1
10
-210.284
20
96.998
40
1.89004
62
1
0
CIRCLE
8
1
10
-127.569
20
96.998
40
1.88988
62
1
0
CIRCLE
8
1
10
-133.569
20
96.998
40
1.88988
62
1
0
CIRCLE
8
1
10
-139.569
20
96.998
40
1.88988
62
1
0
CIRCLE
8
1
10
-61.426
20
96.499
40
1.88986
62
1
0
CIRCLE
8
1
10
-79.426
20
96.499
40
1.88986
62
1
0
CIRCLE
8
1
10
-99.426
20
96.499
40
1.88986
62
1
0
CIRCLE
8
1
10
-117.426
20
96.499
40
1.88986
62
1
0
CIRCLE
8
1
10
108.572
20
91.499
40
2.71493
62
1
0
CIRCLE
8
1
10
126.572
20
91.499
40
2.71493
62
1
0
CIRCLE
8
1
10
146.572
20
91.499
40
2.71493
62
1
0
CIRCLE
8
1
10
164.572
20
91.499
40
2.71493
62
1
0
CIRCLE
8
1
10
-204.283
20
90.999
40
2.71487
62
1
0
CIRCLE
8
1
10
-133.57
20
90.999
40
2.7149
62
1
0
CIRCLE
8
1
10
164.572
20
91.499
40
1.88986
62
1
0
CIRCLE
8
1
10
146.572
20
91.499
40
1.88986
62
1
0
CIRCLE
8
1
10
126.572
20
91.499
40
1.88986
62
1
0
CIRCLE
8
1
10
108.572
20
91.499
40
1.88986
62
1
0
CIRCLE
8
1
10
-117.426
20
90.499
40
2.71494
62
1
0
CIRCLE
8
1
10
-99.426
20
90.499
40
2.71494
62
1
0
CIRCLE
8
1
10
-79.426
20
90.499
40
2.71494
62
1
0
CIRCLE
8
1
10
-61.426
20
90.499
40
2.71494
62
1
0
CIRCLE
8
1
10
-204.284
20
90.998
40
1.89004
62
1
0
CIRCLE
8
1
10
-133.569
20
90.999
40
1.88997
62
1
0
CIRCLE
8
1
10
-61.426
20
90.499
40
1.88986
62
1
0
CIRCLE
8
1
10
-79.426
20
90.499
40
1.88986
62
1
0
CIRCLE
8
1
10
-99.426
20
90.499
40
1.88986
62
1
0
CIRCLE
8
1
10
-117.426
20
90.499
40
1.88986
62
1
0
CIRCLE
8
1
10
-25.426
20
88.499
40
2.71493
62
1
0
CIRCLE
8
1
10
-7.426
20
88.499
40
2.71493
62
1
0
CIRCLE
8
1
10
12.572
20
88.499
40
2.71493
62
1
0
CIRCLE
8
1
10
30.572
20
88.499
40
2.71493
62
1
0
CIRCLE
8
1
10
41.572
20
88.499
40
2.71493
62
1
0
CIRCLE
8
1
10
59.572
20
88.499
40
2.71493
62
1
0
CIRCLE
8
1
10
79.572
20
88.499
40
2.71493
62
1
0
CIRCLE
8
1
10
97.572
20
88.499
40
2.71493
62
1
0
CIRCLE
8
1
10
97.572
20
88.499
40
1.88986
62
1
0
CIRCLE
8
1
10
79.572
20
88.499
40
1.88986
62
1
0
CIRCLE
8
1
10
59.572
20
88.499
40
1.88986
62
1
0
CIRCLE
8
1
10
41.572
20
88.499
40
1.88986
62
1
0
CIRCLE
8
1
10
30.572
20
88.499
40
1.88986
62
1
0
CIRCLE
8
1
10
12.572
20
88.499
40
1.88986
62
1
0
CIRCLE
8
1
10
-7.426
20
88.499
40
1.88986
62
1
0
CIRCLE
8
1
10
-25.426
20
88.499
40
1.88986
62
1
0
CIRCLE
8
1
10
-25.426
20
82.499
40
2.71493
62
1
0
CIRCLE
8
1
10
-7.426
20
82.499
40
2.71493
62
1
0
CIRCLE
8
1
10
12.572
20
82.499
40
2.71493
62
1
0
CIRCLE
8
1
10
30.572
20
82.499
40
2.71493
62
1
0
CIRCLE
8
1
10
41.572
20
82.499
40
2.71493
62
1
0
CIRCLE
8
1
10
59.572
20
82.499
40
2.71493
62
1
0
CIRCLE
8
1
10
79.572
20
82.499
40
2.71493
62
1
0
CIRCLE
8
1
10
97.572
20
82.499
40
2.71493
62
1
0
CIRCLE
8
1
10
110.572
20
82.499
40
2.71493
62
1
0
CIRCLE
8
1
10
128.572
20
82.499
40
2.71493
62
1
0
CIRCLE
8
1
10
148.572
20
82.499
40
2.71493
62
1
0
CIRCLE
8
1
10
166.572
20
82.499
40
2.71493
62
1
0
CIRCLE
8
1
10
-204.283
20
81.998
40
2.71503
62
1
0
CIRCLE
8
1
10
-133.57
20
81.998
40
2.71503
62
1
0
CIRCLE
8
1
10
-112.283
20
81.998
40
2.71503
62
1
0
CIRCLE
8
1
10
-41.57
20
81.998
40
2.71503
62
1
0
CIRCLE
8
1
10
166.572
20
82.499
40
1.88986
62
1
0
CIRCLE
8
1
10
148.572
20
82.499
40
1.88986
62
1
0
CIRCLE
8
1
10
128.572
20
82.499
40
1.88986
62
1
0
CIRCLE
8
1
10
110.572
20
82.499
40
1.88986
62
1
0
CIRCLE
8
1
10
97.572
20
82.499
40
1.88986
62
1
0
CIRCLE
8
1
10
79.572
20
82.499
40
1.88986
62
1
0
CIRCLE
8
1
10
59.572
20
82.499
40
1.88986
62
1
0
CIRCLE
8
1
10
41.572
20
82.499
40
1.88986
62
1
0
CIRCLE
8
1
10
30.572
20
82.499
40
1.88986
62
1
0
CIRCLE
8
1
10
12.572
20
82.499
40
1.88986
62
1
0
CIRCLE
8
1
10
-7.426
20
82.499
40
1.88986
62
1
0
CIRCLE
8
1
10
-25.426
20
82.499
40
1.88986
62
1
0
CIRCLE
8
1
10
-112.284
20
81.999
40
1.89001
62
1
0
CIRCLE
8
1
10
-204.284
20
81.999
40
1.89001
62
1
0
CIRCLE
8
1
10
-41.569
20
81.998
40
1.88985
62
1
0
CIRCLE
8
1
10
-133.569
20
81.998
40
1.88988
62
1
0
CIRCLE
8
1
10
-25.426
20
76.499
40
2.71493
62
1
0
CIRCLE
8
1
10
-7.426
20
76.499
40
2.71493
62
1
0
CIRCLE
8
1
10
12.572
20
76.499
40
2.71493
62
1
0
CIRCLE
8
1
10
30.572
20
76.499
40
2.71493
62
1
0
CIRCLE
8
1
10
41.572
20
76.499
40
2.71493
62
1
0
CIRCLE
8
1
10
59.572
20
76.499
40
2.71493
62
1
0
CIRCLE
8
1
10
79.572
20
76.499
40
2.71493
62
1
0
CIRCLE
8
1
10
97.572
20
76.499
40
2.71493
62
1
0
CIRCLE
8
1
10
110.572
20
76.499
40
2.71493
62
1
0
CIRCLE
8
1
10
128.572
20
76.499
40
2.71493
62
1
0
CIRCLE
8
1
10
148.572
20
76.499
40
2.71493
62
1
0
CIRCLE
8
1
10
166.572
20
76.499
40
2.71493
62
1
0
CIRCLE
8
1
10
-210.283
20
75.999
40
2.71499
62
1
0
CIRCLE
8
1
10
-204.283
20
75.999
40
2.71499
62
1
0
CIRCLE
8
1
10
-198.283
20
75.999
40
2.71499
62
1
0
CIRCLE
8
1
10
-139.57
20
75.999
40
2.71499
62
1
0
CIRCLE
8
1
10
-133.57
20
75.999
40
2.71499
62
1
0
CIRCLE
8
1
10
-127.57
20
75.999
40
2.71499
62
1
0
CIRCLE
8
1
10
-118.283
20
75.999
40
2.71499
62
1
0
CIRCLE
8
1
10
-112.283
20
75.999
40
2.71499
62
1
0
CIRCLE
8
1
10
-106.283
20
75.999
40
2.71499
62
1
0
CIRCLE
8
1
10
-47.57
20
75.999
40
2.71499
62
1
0
CIRCLE
8
1
10
-41.57
20
75.999
40
2.71499
62
1
0
CIRCLE
8
1
10
-35.57
20
75.999
40
2.71499
62
1
0
CIRCLE
8
1
10
166.572
20
76.499
40
1.88986
62
1
0
CIRCLE
8
1
10
148.572
20
76.499
40
1.88986
62
1
0
CIRCLE
8
1
10
128.572
20
76.499
40
1.88986
62
1
0
CIRCLE
8
1
10
110.572
20
76.499
40
1.88986
62
1
0
CIRCLE
8
1
10
97.572
20
76.499
40
1.88986
62
1
0
CIRCLE
8
1
10
79.572
20
76.499
40
1.88986
62
1
0
CIRCLE
8
1
10
59.572
20
76.499
40
1.88986
62
1
0
CIRCLE
8
1
10
41.572
20
76.499
40
1.88986
62
1
0
CIRCLE
8
1
10
30.572
20
76.499
40
1.88986
62
1
0
CIRCLE
8
1
10
12.572
20
76.499
40
1.88986
62
1
0
CIRCLE
8
1
10
-7.426
20
76.499
40
1.88986
62
1
0
CIRCLE
8
1
10
-25.426
20
76.499
40
1.88986
62
1
0
CIRCLE
8
1
10
-106.284
20
75.998
40
1.89004
62
1
0
CIRCLE
8
1
10
-112.284
20
75.998
40
1.89004
62
1
0
CIRCLE
8
1
10
-118.284
20
75.998
40
1.89004
62
1
0
CIRCLE
8
1
10
-198.284
20
75.998
40
1.89004
62
1
0
CIRCLE
8
1
10
-204.284
20
75.998
40
1.89004
62
1
0
CIRCLE
8
1
10
-210.284
20
75.998
40
1.89004
62
1
0
CIRCLE
8
1
10
-35.569
20
75.998
40
1.88985
62
1
0
CIRCLE
8
1
10
-41.569
20
75.998
40
1.88985
62
1
0
CIRCLE
8
1
10
-47.569
20
75.998
40
1.88985
62
1
0
CIRCLE
8
1
10
-127.569
20
75.998
40
1.88988
62
1
0
CIRCLE
8
1
10
-133.569
20
75.998
40
1.88988
62
1
0
CIRCLE
8
1
10
-139.569
20
75.998
40
1.88988
62
1
0
CIRCLE
8
1
10
110.572
20
70.499
40
2.71493
62
1
0
CIRCLE
8
1
10
128.572
20
70.499
40
2.71493
62
1
0
CIRCLE
8
1
10
148.572
20
70.499
40
2.71493
62
1
0
CIRCLE
8
1
10
166.572
20
70.499
40
2.71493
62
1
0
CIRCLE
8
1
10
-204.283
20
69.999
40
2.71487
62
1
0
CIRCLE
8
1
10
-133.57
20
69.999
40
2.7149
62
1
0
CIRCLE
8
1
10
-112.283
20
69.999
40
2.71487
62
1
0
CIRCLE
8
1
10
-41.57
20
69.999
40
2.7149
62
1
0
CIRCLE
8
1
10
166.572
20
70.499
40
1.88986
62
1
0
CIRCLE
8
1
10
148.572
20
70.499
40
1.88986
62
1
0
CIRCLE
8
1
10
128.572
20
70.499
40
1.88986
62
1
0
CIRCLE
8
1
10
110.572
20
70.499
40
1.88986
62
1
0
CIRCLE
8
1
10
-112.284
20
69.998
40
1.89004
62
1
0
CIRCLE
8
1
10
-204.284
20
69.998
40
1.89004
62
1
0
CIRCLE
8
1
10
-41.569
20
69.999
40
1.88994
62
1
0
CIRCLE
8
1
10
-133.569
20
69.999
40
1.88997
62
1
0
CIRCLE
8
1
10
23.715
20
67.998
40
2.71503
62
1
0
CIRCLE
8
1
10
94.428
20
67.998
40
2.71503
62
1
0
CIRCLE
8
1
10
23.714
20
67.999
40
1.88989
62
1
0
CIRCLE
8
1
10
94.429
20
67.998
40
1.88997
62
1
0
CIRCLE
8
1
10
17.715
20
61.999
40
2.71499
62
1
0
CIRCLE
8
1
10
23.715
20
61.999
40
2.71499
62
1
0
CIRCLE
8
1
10
29.715
20
61.999
40
2.71499
62
1
0
CIRCLE
8
1
10
88.428
20
61.999
40
2.71499
62
1
0
CIRCLE
8
1
10
94.428
20
61.999
40
2.71499
62
1
0
CIRCLE
8
1
10
100.428
20
61.999
40
2.71499
62
1
0
CIRCLE
8
1
10
120.715
20
61.998
40
2.71503
62
1
0
CIRCLE
8
1
10
191.428
20
61.998
40
2.71503
62
1
0
CIRCLE
8
1
10
120.714
20
61.999
40
1.88989
62
1
0
CIRCLE
8
1
10
29.714
20
61.998
40
1.88994
62
1
0
CIRCLE
8
1
10
23.714
20
61.998
40
1.88994
62
1
0
CIRCLE
8
1
10
17.714
20
61.998
40
1.88994
62
1
0
CIRCLE
8
1
10
191.429
20
61.998
40
1.89
62
1
0
CIRCLE
8
1
10
100.429
20
61.998
40
1.88997
62
1
0
CIRCLE
8
1
10
94.429
20
61.998
40
1.88997
62
1
0
CIRCLE
8
1
10
88.429
20
61.998
40
1.88997
62
1
0
CIRCLE
8
1
10
-68.283
20
60.998
40
2.71503
62
1
0
CIRCLE
8
1
10
2.428
20
60.998
40
2.71485
62
1
0
CIRCLE
8
1
10
-68.284
20
60.999
40
1.89001
62
1
0
CIRCLE
8
1
10
2.429
20
60.998
40
1.88997
62
1
0
CIRCLE
8
1
10
-169.83
20
58.499
40
2.71476
62
1
0
CIRCLE
8
1
10
-169.83
20
58.499
40
1.89024
62
1
0
CIRCLE
8
1
10
23.715
20
55.999
40
2.7149
62
1
0
CIRCLE
8
1
10
94.428
20
55.999
40
2.71487
62
1
0
CIRCLE
8
1
10
114.715
20
55.999
40
2.71499
62
1
0
CIRCLE
8
1
10
120.715
20
55.999
40
2.71499
62
1
0
CIRCLE
8
1
10
126.715
20
55.999
40
2.71499
62
1
0
CIRCLE
8
1
10
185.428
20
55.999
40
2.71499
62
1
0
CIRCLE
8
1
10
191.428
20
55.999
40
2.71499
62
1
0
CIRCLE
8
1
10
197.428
20
55.999
40
2.71499
62
1
0
CIRCLE
8
1
10
126.714
20
55.998
40
1.88994
62
1
0
CIRCLE
8
1
10
120.714
20
55.998
40
1.88994
62
1
0
CIRCLE
8
1
10
114.714
20
55.998
40
1.88994
62
1
0
CIRCLE
8
1
10
23.714
20
55.998
40
1.88994
62
1
0
CIRCLE
8
1
10
197.429
20
55.998
40
1.89
62
1
0
CIRCLE
8
1
10
191.429
20
55.998
40
1.89
62
1
0
CIRCLE
8
1
10
185.429
20
55.998
40
1.89
62
1
0
CIRCLE
8
1
10
94.429
20
55.999
40
1.89004
62
1
0
CIRCLE
8
1
10
-74.283
20
54.999
40
2.71499
62
1
0
CIRCLE
8
1
10
-68.283
20
54.999
40
2.71499
62
1
0
CIRCLE
8
1
10
-62.283
20
54.999
40
2.71499
62
1
0
CIRCLE
8
1
10
-3.57
20
54.999
40
2.71499
62
1
0
CIRCLE
8
1
10
2.428
20
54.999
40
2.71481
62
1
0
CIRCLE
8
1
10
8.428
20
54.999
40
2.71499
62
1
0
CIRCLE
8
1
10
-62.284
20
54.998
40
1.89004
62
1
0
CIRCLE
8
1
10
-68.284
20
54.998
40
1.89004
62
1
0
CIRCLE
8
1
10
-74.284
20
54.998
40
1.89004
62
1
0
CIRCLE
8
1
10
8.429
20
54.998
40
1.88998
62
1
0
CIRCLE
8
1
10
2.429
20
54.998
40
1.88998
62
1
0
CIRCLE
8
1
10
-3.569
20
54.998
40
1.88987
62
1
0
CIRCLE
8
1
10
-163.83
20
52.499
40
2.7148
62
1
0
CIRCLE
8
1
10
-169.83
20
52.499
40
2.7148
62
1
0
CIRCLE
8
1
10
-175.83
20
52.499
40
2.7148
62
1
0
CIRCLE
8
1
10
-175.83
20
52.499
40
1.89024
62
1
0
CIRCLE
8
1
10
-169.83
20
52.499
40
1.89024
62
1
0
CIRCLE
8
1
10
-163.83
20
52.499
40
1.89024
62
1
0
CIRCLE
8
1
10
120.715
20
49.999
40
2.7149
62
1
0
CIRCLE
8
1
10
191.428
20
49.999
40
2.71487
62
1
0
CIRCLE
8
1
10
120.714
20
49.998
40
1.88994
62
1
0
CIRCLE
8
1
10
191.429
20
49.999
40
1.89008
62
1
0
CIRCLE
8
1
10
-68.283
20
48.999
40
2.71487
62
1
0
CIRCLE
8
1
10
2.428
20
48.999
40
2.71468
62
1
0
CIRCLE
8
1
10
-68.284
20
48.998
40
1.89004
62
1
0
CIRCLE
8
1
10
2.429
20
48.999
40
1.89004
62
1
0
CIRCLE
8
1
10
32.715
20
46.998
40
2.71503
62
1
0
CIRCLE
8
1
10
103.428
20
46.998
40
2.71503
62
1
0
CIRCLE
8
1
10
-169.83
20
46.499
40
2.71477
62
1
0
CIRCLE
8
1
10
32.714
20
46.999
40
1.88989
62
1
0
CIRCLE
8
1
10
103.429
20
46.998
40
1.88997
62
1
0
CIRCLE
8
1
10
-169.83
20
46.499
40
1.89024
62
1
0
CIRCLE
8
1
10
26.715
20
40.999
40
2.71499
62
1
0
CIRCLE
8
1
10
32.715
20
40.999
40
2.71499
62
1
0
CIRCLE
8
1
10
38.715
20
40.999
40
2.71499
62
1
0
CIRCLE
8
1
10
97.428
20
40.999
40
2.71499
62
1
0
CIRCLE
8
1
10
103.428
20
40.999
40
2.71499
62
1
0
CIRCLE
8
1
10
109.428
20
40.999
40
2.71499
62
1
0
CIRCLE
8
1
10
133.715
20
40.998
40
2.71503
62
1
0
CIRCLE
8
1
10
204.428
20
40.998
40
2.71503
62
1
0
CIRCLE
8
1
10
133.714
20
40.999
40
1.88989
62
1
0
CIRCLE
8
1
10
38.714
20
40.998
40
1.88994
62
1
0
CIRCLE
8
1
10
32.714
20
40.998
40
1.88994
62
1
0
CIRCLE
8
1
10
26.714
20
40.998
40
1.88994
62
1
0
CIRCLE
8
1
10
204.429
20
40.998
40
1.89
62
1
0
CIRCLE
8
1
10
109.429
20
40.998
40
1.88997
62
1
0
CIRCLE
8
1
10
103.429
20
40.998
40
1.88997
62
1
0
CIRCLE
8
1
10
97.429
20
40.998
40
1.88997
62
1
0
CIRCLE
8
1
10
-68.83
20
37.499
40
2.71476
62
1
0
CIRCLE
8
1
10
-68.83
20
37.499
40
1.89024
62
1
0
CIRCLE
8
1
10
32.715
20
34.999
40
2.7149
62
1
0
CIRCLE
8
1
10
103.428
20
34.999
40
2.71487
62
1
0
CIRCLE
8
1
10
127.715
20
34.999
40
2.71499
62
1
0
CIRCLE
8
1
10
133.715
20
34.999
40
2.71499
62
1
0
CIRCLE
8
1
10
139.715
20
34.999
40
2.71499
62
1
0
CIRCLE
8
1
10
198.428
20
34.999
40
2.71499
62
1
0
CIRCLE
8
1
10
204.428
20
34.999
40
2.71499
62
1
0
CIRCLE
8
1
10
210.428
20
34.999
40
2.71499
62
1
0
CIRCLE
8
1
10
139.714
20
34.998
40
1.88994
62
1
0
CIRCLE
8
1
10
133.714
20
34.998
40
1.88994
62
1
0
CIRCLE
8
1
10
127.714
20
34.998
40
1.88994
62
1
0
CIRCLE
8
1
10
32.714
20
34.998
40
1.88994
62
1
0
CIRCLE
8
1
10
210.429
20
34.998
40
1.89
62
1
0
CIRCLE
8
1
10
204.429
20
34.998
40
1.89
62
1
0
CIRCLE
8
1
10
198.429
20
34.998
40
1.89
62
1
0
CIRCLE
8
1
10
103.429
20
34.999
40
1.89004
62
1
0
CIRCLE
8
1
10
-62.83
20
31.499
40
2.7148
62
1
0
CIRCLE
8
1
10
-68.83
20
31.499
40
2.7148
62
1
0
CIRCLE
8
1
10
-74.83
20
31.499
40
2.7148
62
1
0
CIRCLE
8
1
10
-74.83
20
31.499
40
1.89024
62
1
0
CIRCLE
8
1
10
-68.83
20
31.499
40
1.89024
62
1
0
CIRCLE
8
1
10
-62.83
20
31.499
40
1.89027
62
1
0
CIRCLE
8
1
10
133.715
20
28.999
40
2.7149
62
1
0
CIRCLE
8
1
10
204.428
20
28.999
40
2.71487
62
1
0
CIRCLE
8
1
10
133.714
20
28.998
40
1.88994
62
1
0
CIRCLE
8
1
10
204.429
20
28.999
40
1.89008
62
1
0
CIRCLE
8
1
10
-68.83
20
25.499
40
2.71473
62
1
0
CIRCLE
8
1
10
-68.83
20
25.499
40
1.89024
62
1
0
CIRCLE
8
1
10
91.475
20
24.498
40
2.71476
62
1
0
CIRCLE
8
1
10
91.475
20
24.499
40
1.89021
62
1
0
CIRCLE
8
1
10
97.475
20
18.499
40
2.71479
62
1
0
CIRCLE
8
1
10
91.475
20
18.499
40
2.71479
62
1
0
CIRCLE
8
1
10
85.475
20
18.499
40
2.71479
62
1
0
CIRCLE
8
1
10
85.475
20
18.499
40
1.89021
62
1
0
CIRCLE
8
1
10
91.475
20
18.499
40
1.89021
62
1
0
CIRCLE
8
1
10
97.475
20
18.499
40
1.89021
62
1
0
CIRCLE
8
1
10
91.475
20
12.498
40
2.71475
62
1
0
CIRCLE
8
1
10
91.475
20
12.499
40
1.89019
62
1
0
CIRCLE
8
1
10
-63.83
20
11.499
40
2.71476
62
1
0
CIRCLE
8
1
10
-63.83
20
11.499
40
1.89027
62
1
0
CIRCLE
8
1
10
-57.83
20
5.499
40
2.7148
62
1
0
CIRCLE
8
1
10
-63.83
20
5.499
40
2.7148
62
1
0
CIRCLE
8
1
10
-69.83
20
5.499
40
2.7148
62
1
0
CIRCLE
8
1
10
-69.83
20
5.499
40
1.89024
62
1
0
CIRCLE
8
1
10
-63.83
20
5.499
40
1.89027
62
1
0
CIRCLE
8
1
10
-57.83
20
5.499
40
1.89021
62
1
0
CIRCLE
8
1
10
-63.83
20
-0.499
40
2.71442
62
1
0
CIRCLE
8
1
10
-63.83
20
-0.499
40
1.88995
62
1
0
CIRCLE
8
1
10
48.475
20
-6.5
40
2.71476
62
1
0
CIRCLE
8
1
10
48.475
20
-6.499
40
1.89015
62
1
0
CIRCLE
8
1
10
54.475
20
-12.499
40
2.71478
62
1
0
CIRCLE
8
1
10
48.475
20
-12.499
40
2.71478
62
1
0
CIRCLE
8
1
10
42.475
20
-12.499
40
2.71478
62
1
0
CIRCLE
8
1
10
42.475
20
-12.499
40
1.89015
62
1
0
CIRCLE
8
1
10
48.475
20
-12.499
40
1.89015
62
1
0
CIRCLE
8
1
10
54.475
20
-12.499
40
1.89015
62
1
0
CIRCLE
8
1
10
48.475
20
-18.5
40
2.71476
62
1
0
CIRCLE
8
1
10
48.475
20
-18.499
40
1.89015
62
1
0
CIRCLE
8
1
10
191.071
20
-62.402
40
2.7146
62
1
0
CIRCLE
8
1
10
167.071
20
-62.402
40
2.7146
62
1
0
CIRCLE
8
1
10
143.071
20
-62.402
40
2.7146
62
1
0
CIRCLE
8
1
10
191.071
20
-62.402
40
1.88983
62
1
0
CIRCLE
8
1
10
167.071
20
-62.402
40
1.88983
62
1
0
CIRCLE
8
1
10
143.071
20
-62.402
40
1.88983
62
1
0
CIRCLE
8
1
10
57.572
20
-65.499
40
2.71493
62
1
0
CIRCLE
8
1
10
75.572
20
-65.499
40
2.71493
62
1
0
CIRCLE
8
1
10
95.572
20
-65.499
40
2.71493
62
1
0
CIRCLE
8
1
10
113.572
20
-65.499
40
2.71493
62
1
0
CIRCLE
8
1
10
113.572
20
-65.499
40
1.88987
62
1
0
CIRCLE
8
1
10
95.572
20
-65.499
40
1.88987
62
1
0
CIRCLE
8
1
10
75.572
20
-65.499
40
1.88987
62
1
0
CIRCLE
8
1
10
57.572
20
-65.499
40
1.88987
62
1
0
CIRCLE
8
1
10
197.071
20
-68.402
40
2.71459
62
1
0
CIRCLE
8
1
10
191.071
20
-68.402
40
2.7146
62
1
0
CIRCLE
8
1
10
185.071
20
-68.402
40
2.71459
62
1
0
CIRCLE
8
1
10
173.071
20
-68.402
40
2.71459
62
1
0
CIRCLE
8
1
10
167.071
20
-68.402
40
2.7146
62
1
0
CIRCLE
8
1
10
161.071
20
-68.402
40
2.71459
62
1
0
CIRCLE
8
1
10
149.071
20
-68.402
40
2.71459
62
1
0
CIRCLE
8
1
10
143.071
20
-68.402
40
2.7146
62
1
0
CIRCLE
8
1
10
137.071
20
-68.402
40
2.71459
62
1
0
CIRCLE
8
1
10
197.071
20
-68.402
40
1.88983
62
1
0
CIRCLE
8
1
10
191.071
20
-68.402
40
1.88983
62
1
0
CIRCLE
8
1
10
185.071
20
-68.402
40
1.88983
62
1
0
CIRCLE
8
1
10
173.071
20
-68.402
40
1.88983
62
1
0
CIRCLE
8
1
10
167.071
20
-68.402
40
1.88983
62
1
0
CIRCLE
8
1
10
161.071
20
-68.402
40
1.88983
62
1
0
CIRCLE
8
1
10
149.071
20
-68.402
40
1.88983
62
1
0
CIRCLE
8
1
10
143.071
20
-68.402
40
1.88983
62
1
0
CIRCLE
8
1
10
137.071
20
-68.402
40
1.88983
62
1
0
CIRCLE
8
1
10
57.572
20
-71.499
40
2.71493
62
1
0
CIRCLE
8
1
10
75.572
20
-71.499
40
2.71493
62
1
0
CIRCLE
8
1
10
95.572
20
-71.499
40
2.71493
62
1
0
CIRCLE
8
1
10
113.572
20
-71.499
40
2.71493
62
1
0
CIRCLE
8
1
10
113.572
20
-71.499
40
1.88987
62
1
0
CIRCLE
8
1
10
95.572
20
-71.499
40
1.88987
62
1
0
CIRCLE
8
1
10
75.572
20
-71.499
40
1.88987
62
1
0
CIRCLE
8
1
10
57.572
20
-71.499
40
1.88987
62
1
0
CIRCLE
8
1
10
191.071
20
-74.402
40
2.7146
62
1
0
CIRCLE
8
1
10
167.071
20
-74.402
40
2.7146
62
1
0
CIRCLE
8
1
10
143.071
20
-74.402
40
2.7146
62
1
0
CIRCLE
8
1
10
191.071
20
-74.402
40
1.88983
62
1
0
CIRCLE
8
1
10
167.071
20
-74.402
40
1.88983
62
1
0
CIRCLE
8
1
10
143.071
20
-74.402
40
1.88983
62
1
0
CIRCLE
8
1
10
57.572
20
-77.499
40
2.71493
62
1
0
CIRCLE
8
1
10
75.572
20
-77.499
40
2.71493
62
1
0
CIRCLE
8
1
10
95.572
20
-77.499
40
2.71493
62
1
0
CIRCLE
8
1
10
113.572
20
-77.499
40
2.71493
62
1
0
CIRCLE
8
1
10
113.572
20
-77.499
40
1.88987
62
1
0
CIRCLE
8
1
10
95.572
20
-77.499
40
1.88987
62
1
0
CIRCLE
8
1
10
75.572
20
-77.499
40
1.88987
62
1
0
CIRCLE
8
1
10
57.572
20
-77.499
40
1.88987
62
1
0
ENDSEC
0
EOF
